<svg width="482" height="481" viewBox="0 0 482 481" fill="none" xmlns="http://www.w3.org/2000/svg">
<path d="M470.469 223.053L470.328 221.387L470.43 222.653L470.469 223.053Z" fill="#ED2A57"/>
<path d="M36.1355 346.84C37.1048 348.653 38.0915 350.493 39.1115 352.307C38.1888 350.693 37.3182 349.027 36.4608 347.413L36.1355 346.84Z" fill="#ED2A57"/>
<path d="M39.2089 352.507L39.6182 353.24L39.4422 352.893L39.2089 352.507Z" fill="#ED2A57"/>
<path d="M41.5248 356.493C42.2941 357.813 43.0488 359.147 43.8474 360.453L43.6448 360.093C42.9141 358.907 42.2221 357.693 41.5248 356.493Z" fill="#ED2A57"/>
<path d="M29.3021 332.573C27.1674 327.733 25.2741 322.787 23.4888 317.773C25.2808 322.787 27.1781 327.733 29.3021 332.573Z" fill="#ED2A57"/>
<path d="M99.2581 330.093C105.561 334.133 114.05 337.453 121.247 341.427C123.578 341.493 125.899 341.52 128.243 341.52C155.086 341.52 180.855 336.92 204.799 328.493C200.501 323.88 196.629 318.853 193.446 313.4C198.778 316.973 203.546 319.107 207.223 324.067C208.009 325.107 208.859 325.973 209.743 326.707C296.85 293.747 358.797 209.613 358.797 110.973C358.797 84.3599 354.287 58.7999 345.985 35.0266C314.389 18.7332 278.53 9.5332 240.547 9.5332C210.797 9.5332 182.369 15.1866 156.255 25.4399C161.542 24.1466 166.149 23.8132 169.253 24.8799C170.715 25.3599 172.009 26.0132 173.235 26.7199C207.982 16.6266 241.138 20.6932 263.407 41.1465C267.207 44.6532 270.586 48.5466 273.503 52.7199C277.777 51.9732 282.117 51.3733 286.514 50.9866C308.419 49.2532 331.798 54.1732 330.227 73.9332C329.343 85.0132 337.547 99.9466 331.883 109.973C324.703 122.64 304.799 125.813 298.397 139.68C296.006 144.867 294.763 148.627 288.878 152.04C285.443 154.067 280.973 155.2 277.349 157.147C269.326 177.813 256.938 198.587 240.378 217.747C245.011 217.173 249.669 217.467 254.489 218.16C261.133 219.12 263.629 220.453 269.443 216.747C275.575 212.853 281.603 209.187 288.839 208.507C294.543 207.973 299.071 206.827 302.591 202.12C306.262 197.2 311.037 195 316.363 191.453C311.426 199.893 304.917 207.307 297.629 213.76C295.713 215.453 293.913 216.347 292.282 217.827L291.399 218.72L291.321 218.8L290.431 219.987C288.747 222.493 288.027 225.64 285.839 227.853C282.805 230.96 281.961 229.32 278.063 230.147C274.517 230.827 273.074 233.373 270.346 235.573C267.273 238.133 264.875 238.187 261.089 239.04C256.938 239.92 255.787 241.16 253.026 244.213C250.357 247.16 248.741 247.52 244.607 247.133C241.841 246.853 237.846 244.653 235.149 245.52C232.519 246.36 229.771 250.307 227.133 251.76C221.599 254.787 216.746 255.387 210.614 254.933C206.527 254.627 202.514 255.28 198.466 255.44C189.118 261.853 179.537 267.307 169.929 271.72L169.566 272.413C167.175 277.6 165.914 281.36 160.062 284.787C155.131 287.707 148.023 288.72 144.49 292.96C142.061 295.867 143.698 300.947 140.938 303.32C137.007 306.68 128.783 304.533 123.747 303.667L110.255 305.227C104.195 295.693 87.9941 293.813 85.7861 283.133L85.5834 281.813C74.9234 278.587 65.2514 273.307 57.0794 265.827C36.7074 247.107 29.2434 218.133 33.5568 186.187C32.4208 183.987 31.3021 181.92 30.8221 179.293C30.0941 175.253 30.9461 171.36 31.0234 167.347C31.0821 163.96 29.9514 161.627 29.0874 158.387C28.2234 155.133 28.5101 151.653 29.0874 148.12C16.8168 176.307 9.97009 207.387 9.97009 240.107C9.97009 266.747 14.5728 292.293 22.8941 316.08C38.3901 324.04 54.9101 330.333 72.2221 334.64C74.7941 325.667 83.0768 319.72 99.2581 330.093Z" fill="#ED2A57"/>
<path d="M61.9314 385.867L61.4181 385.267C62.2434 386.267 63.0754 387.253 63.8941 388.28L63.0554 387.24L61.9314 385.867Z" fill="#ED2A57"/>
<path d="M233.488 470.547L235.118 470.587L233.514 470.547H233.488Z" fill="#ED2A57"/>
<path d="M57.7742 380.627C58.8528 382.027 59.9315 383.427 61.0355 384.787C60.0022 383.507 58.9822 382.2 57.9688 380.88L57.7742 380.627Z" fill="#ED2A57"/>
<path d="M41.1182 139.733C41.8529 142.013 43.3276 143.92 44.6462 145.933C53.4409 124.693 66.8955 103.427 84.6675 84.0799C93.7235 74.2399 103.352 65.4532 113.322 57.8266C113.589 56.7066 113.894 55.5465 114.381 54.3332C116.629 48.7732 122.061 43.2132 128.75 38.4266C92.3596 58.6399 62.0222 88.3999 41.1182 124.32C42.7169 128.147 39.9822 136.027 41.1182 139.733Z" fill="#ED2A57"/>
<path d="M44.4515 361.36L43.9115 360.533C45.2168 362.667 46.5488 364.747 47.9128 366.813L47.6862 366.44C46.5822 364.787 45.5035 363.067 44.4515 361.36Z" fill="#ED2A57"/>
<path d="M443.148 130.04C442.25 128.387 441.353 126.747 440.433 125.107C440.764 125.733 441.081 126.333 441.426 126.96C442.005 127.96 442.577 129 443.148 130.04Z" fill="#ED2A57"/>
<path d="M422.081 98.0266L422.725 98.8132C422.458 98.4666 422.173 98.1333 421.906 97.7733L421.911 97.7999L422.081 98.0266Z" fill="#ED2A57"/>
<path d="M450.974 145.773C450.34 144.373 449.696 142.987 449.053 141.6C449.54 142.667 450.021 143.72 450.496 144.747L450.974 145.773Z" fill="#ED2A57"/>
<path d="M453.586 151.867L453.801 152.373C453.034 150.52 452.261 148.68 451.443 146.84L451.73 147.533C452.359 148.973 452.995 150.413 453.586 151.867Z" fill="#ED2A57"/>
<path d="M448.994 141.493C448.649 140.787 448.312 140.067 447.966 139.333L448.442 140.373L448.994 141.493Z" fill="#ED2A57"/>
<path d="M432.045 111.693C431.506 110.893 430.935 110.107 430.389 109.32C430.571 109.587 430.759 109.853 430.941 110.12L432.045 111.693Z" fill="#ED2A57"/>
<path d="M440.355 125C439.818 124.08 439.259 123.187 438.717 122.28C438.925 122.627 439.138 122.973 439.347 123.333L440.355 125Z" fill="#ED2A57"/>
<path d="M434.183 114.987C433.637 114.133 433.098 113.28 432.546 112.427L432.799 112.867C433.266 113.547 433.722 114.28 434.183 114.987Z" fill="#ED2A57"/>
<path d="M73.0594 398.547C73.8261 399.36 74.6181 400.16 75.4048 400.96C74.7741 400.333 74.1448 399.653 73.5141 399.013L73.0594 398.547Z" fill="#ED2A57"/>
<path d="M165.813 458.267L165.52 458.187L166.689 458.6L166.124 458.373C166.02 458.333 165.917 458.293 165.813 458.267Z" fill="#ED2A57"/>
<path d="M166.706 458.6L167.454 458.813C167.384 458.8 167.314 458.773 167.245 458.747L166.706 458.6Z" fill="#ED2A57"/>
<path d="M182.577 463.307L184.045 463.68L183.031 463.413L182.577 463.307Z" fill="#ED2A57"/>
<path d="M149.409 451.933C150.038 452.2 150.655 452.467 151.279 452.747L151.175 452.667L149.409 451.933Z" fill="#ED2A57"/>
<path d="M129.966 442.453L131.342 443.213L130.316 442.64L129.966 442.453Z" fill="#ED2A57"/>
<path d="M134.045 444.627C134.85 445.04 135.649 445.453 136.442 445.88L136.415 445.853C135.61 445.427 134.831 445.04 134.045 444.627Z" fill="#ED2A57"/>
<path d="M187.944 464.613L187.709 464.573L188.908 464.84L188.878 464.827L187.944 464.613Z" fill="#ED2A57"/>
<path d="M222.391 469.947L223.21 470L222.963 469.987L222.391 469.947Z" fill="#ED2A57"/>
<path d="M204.631 467.88L206.247 468.12L206.086 468.08L204.631 467.88Z" fill="#ED2A57"/>
<path d="M67.9862 393C68.4609 393.533 68.9542 394.053 69.4315 394.587C69.0449 394.16 68.6555 393.733 68.2715 393.307L67.9862 393Z" fill="#ED2A57"/>
<path d="M81.2289 406.707C82.1289 407.573 83.0182 408.44 83.9275 409.293L83.6809 409.04C82.8556 408.267 82.0475 407.48 81.2289 406.707Z" fill="#ED2A57"/>
<path d="M454.613 154.373L454.49 154.067L454.509 154.133L454.613 154.373Z" fill="#ED2A57"/>
<path d="M88.7355 413.613L90.2288 414.933L89.7021 414.44L88.7355 413.613Z" fill="#ED2A57"/>
<path d="M114.342 433.08L115.83 434.04L115.323 433.707L114.342 433.08Z" fill="#ED2A57"/>
<path d="M90.5662 415.2L91.2288 415.76L90.9048 415.467L90.5662 415.2Z" fill="#ED2A57"/>
<path d="M115.933 434.12C116.662 434.587 117.402 435.053 118.124 435.493C117.493 435.093 116.85 434.707 116.213 434.28L115.933 434.12Z" fill="#ED2A57"/>
<path d="M463.987 183.093L463.675 181.92L463.87 182.693L463.987 183.093Z" fill="#ED2A57"/>
<path d="M467.626 200.053L467.488 199.24L467.578 199.827L467.626 200.053Z" fill="#ED2A57"/>
<path d="M467.444 199.053L467.358 198.547L467.365 198.627L467.444 199.053Z" fill="#ED2A57"/>
<path d="M457.757 162.653C457.517 162 457.302 161.36 457.055 160.68L457.465 161.907L457.757 162.653Z" fill="#ED2A57"/>
<path d="M458.946 166.12C458.823 165.733 458.693 165.373 458.563 164.987L458.815 165.733L458.946 166.12Z" fill="#ED2A57"/>
<path d="M468.45 205.227L468.489 205.307C468.385 204.64 468.274 203.987 468.17 203.333L468.358 204.56L468.45 205.227Z" fill="#ED2A57"/>
<path d="M461.675 174.68L461.466 174.04L461.636 174.573L461.675 174.68Z" fill="#ED2A57"/>
<path d="M460.81 171.827L460.971 172.333C460.647 171.293 460.31 170.253 459.971 169.213C460.199 169.933 460.433 170.667 460.661 171.36L460.81 171.827Z" fill="#ED2A57"/>
<path d="M456.971 160.48L456.575 159.4L456.666 159.72L456.971 160.48Z" fill="#ED2A57"/>
<path d="M471.017 234.56L470.995 233.507V233.747L471.017 234.56Z" fill="#ED2A57"/>
<path d="M447.311 138.04L447.077 137.587L447.207 137.853L447.311 138.04Z" fill="#ED2A57"/>
<path d="M192.638 255.173C191.405 254.987 190.274 255.027 189.157 255.173C181.706 259.813 173.769 264.147 169.929 271.72C179.537 267.307 189.118 261.853 198.466 255.44C196.544 255.507 194.594 255.48 192.638 255.173Z" fill="#F14264"/>
<path d="M84.6808 265.2C81.7648 259.907 74.9955 258 70.0062 254.16C60.2955 246.587 58.9635 234.893 62.7048 223.72C60.5808 223.227 58.5995 222.453 57.0408 220.68C54.7728 218.133 55.4035 214.427 52.3568 212.573C49.1928 210.667 45.6528 211.32 42.5222 208.493C39.4622 205.707 37.9555 202.16 37.0515 198.2C36.2662 194.8 36.2008 191.76 34.7528 188.56C34.3502 187.747 33.9528 186.947 33.5568 186.187C29.2435 218.133 36.7075 247.107 57.0795 265.827C65.2515 273.307 74.9235 278.587 85.5835 281.813C85.0195 276.293 87.6568 270.56 84.6808 265.2Z" fill="#F14264"/>
<path d="M196.323 38.5066C204.235 44.1599 207.321 54.3199 191.19 65.8132C182.129 72.2932 172.73 83.8532 163.089 88.1999C150.922 93.7065 142.477 89.5199 129.563 95.9599C124.755 98.3866 121.391 100.267 116.921 100.56C113.154 100.787 110.203 99.2666 105.806 100.747C102.786 101.76 99.2328 105.36 96.5168 105.96C92.7035 106.747 91.9434 102.973 91.1314 100.88L85.8821 97.7199C91.6194 90.0533 88.2794 83.9466 96.1021 76.7733C100.421 72.7866 106.346 70.0532 109.99 65.5332C112.25 62.7065 112.738 60.3199 113.322 57.8266C103.351 65.4532 93.7234 74.2399 84.6674 84.0799C66.8954 103.427 53.4408 124.693 44.6461 145.933C45.4248 147.12 46.1394 148.28 46.6328 149.587C47.9461 153.04 46.6914 156.347 47.7968 159.8C49.4461 165 53.9674 165 58.1114 167.413C66.3621 172.173 63.5301 182.733 74.1448 185.227C80.3021 186.693 84.5901 189.067 88.7608 193.947L89.5794 194.947C90.8848 194.467 92.1848 194.053 93.5021 193.733C102.182 191.653 111.646 191.493 120.533 190.027C132.941 187.987 144.959 184.76 157.685 183.733C179.577 181.973 202.981 186.893 201.41 206.667C201.001 211.64 202.442 217.467 203.643 223.227C206.326 223.973 209.035 224.547 211.743 224.773C219.305 225.347 226.381 221.733 233.323 219.333C235.675 218.533 238.026 218.013 240.378 217.747C256.938 198.587 269.326 177.813 277.349 157.147C275.795 157.987 274.373 158.947 273.314 160.213C270.885 163.12 272.527 168.227 269.767 170.6C265.837 173.92 257.599 171.787 252.585 170.933L239.106 172.493C233.025 162.973 216.845 161.08 214.629 150.413C213.389 144.493 216.721 138.28 213.523 132.467C210.587 127.187 203.818 125.293 198.85 121.413C177.133 104.587 197.206 66.9866 222.339 60.9866C231.019 58.9599 240.477 58.7732 249.345 57.2665C257.469 55.9465 265.41 54.1333 273.503 52.7199C270.586 48.5466 267.207 44.6532 263.407 41.1466C241.138 20.6932 207.982 16.6266 173.235 26.7199C175.613 28.0799 177.75 29.6933 180.271 30.9066C185.597 33.4666 191.717 35.2133 196.323 38.5066Z" fill="#F14264"/>
<path d="M470.49 223.533L470.469 223.053L470.43 222.653L470.49 223.533Z" fill="#EB173D"/>
<path d="M91.2288 415.76L92.4501 416.8C93.2755 417.493 94.0874 418.173 94.9261 418.84L95.9115 419.64C94.2048 418.28 92.5488 416.893 90.9048 415.467L91.2288 415.76Z" fill="#EB173D"/>
<path d="M107.3 428.253C106.096 427.4 104.894 426.533 103.709 425.64C103.994 425.853 104.266 426.08 104.546 426.28L106.086 427.413C106.837 427.947 107.606 428.48 108.365 429.013L107.509 428.4L107.3 428.253Z" fill="#EB173D"/>
<path d="M113.798 432.68L112.867 432.067C111.855 431.4 110.859 430.72 109.866 430.04L110.178 430.267C110.945 430.8 111.725 431.333 112.523 431.867C113.115 432.293 113.738 432.68 114.342 433.08L115.323 433.707L113.798 432.68Z" fill="#EB173D"/>
<path d="M85.3701 410.6C86.2048 411.36 87.0461 412.107 87.8715 412.853L88.7354 413.613L89.7021 414.44C88.2341 413.173 86.8048 411.88 85.3701 410.6Z" fill="#EB173D"/>
<path d="M155.561 454.493L157.133 455.08L158.133 455.48C156.126 454.693 154.131 453.92 152.149 453.093C153.293 453.547 154.417 454.053 155.561 454.493Z" fill="#EB173D"/>
<path d="M235.118 470.587C236.917 470.627 238.722 470.68 240.547 470.68C238.19 470.68 235.857 470.613 233.514 470.547L235.118 470.587Z" fill="#EB173D"/>
<path d="M194.329 466.027L194.615 466.067C194.114 465.973 193.614 465.867 193.114 465.76L194.329 466.027Z" fill="#EB173D"/>
<path d="M173.437 460.72L173.638 460.787L173.593 460.76L173.437 460.72Z" fill="#EB173D"/>
<path d="M175.425 461.32L177.173 461.853L178.498 462.2L179.518 462.48C178.809 462.267 178.127 462.067 177.446 461.88C176.769 461.707 176.099 461.547 175.425 461.32Z" fill="#EB173D"/>
<path d="M170.729 459.88L172.365 460.413L172.905 460.56C172.039 460.28 171.189 460 170.331 459.747C170.462 459.8 170.594 459.84 170.729 459.88Z" fill="#EB173D"/>
<path d="M183.031 463.413L184.045 463.68C184.954 463.893 185.852 464.12 186.78 464.347C186.144 464.2 185.539 464.027 184.935 463.867C184.293 463.72 183.655 463.573 183.031 463.413Z" fill="#EB173D"/>
<path d="M163.855 457.56C162.49 457.08 161.114 456.613 159.769 456.08L160.607 456.413C161.243 456.653 161.894 456.867 162.511 457.093C163.505 457.467 164.498 457.813 165.519 458.187L165.813 458.267C165.161 458.027 164.506 457.8 163.855 457.56Z" fill="#EB173D"/>
<path d="M180.907 462.867L181.726 463.093L181.187 462.933L180.907 462.867Z" fill="#EB173D"/>
<path d="M36.4608 347.413C37.3181 349.027 38.1888 350.693 39.1115 352.307L39.2088 352.507L39.4421 352.893C38.4155 351.093 37.4288 349.24 36.4608 347.413Z" fill="#EB173D"/>
<path d="M116.213 434.28C116.85 434.707 117.493 435.093 118.123 435.493C118.807 435.893 119.466 436.333 120.143 436.747L118.862 435.933C117.966 435.373 117.077 434.853 116.213 434.28Z" fill="#EB173D"/>
<path d="M125.133 439.707L123.464 438.747L124.755 439.493C125.503 439.933 126.244 440.347 126.977 440.773C127.66 441.173 128.36 441.573 129.081 441.947C128.316 441.533 127.581 441.08 126.808 440.64L125.133 439.707Z" fill="#EB173D"/>
<path d="M133.506 444.32C132.869 443.987 132.251 443.68 131.641 443.333L130.315 442.64L131.342 443.213C132.251 443.693 133.141 444.16 134.045 444.627C134.831 445.04 135.61 445.427 136.415 445.853C135.435 445.36 134.474 444.827 133.506 444.32Z" fill="#EB173D"/>
<path d="M204.626 467.867L203.287 467.64L204.631 467.88L206.086 468.08L204.626 467.867Z" fill="#EB173D"/>
<path d="M146.966 450.813C146.361 450.56 145.757 450.307 145.173 450.04L144.873 449.92C145.477 450.187 146.089 450.453 146.686 450.733C147.582 451.12 148.506 451.533 149.409 451.933L151.175 452.667C149.745 452.093 148.362 451.453 146.966 450.813Z" fill="#EB173D"/>
<path d="M198.973 466.92L199.409 466.987L200.818 467.253L201.397 467.333L200.337 467.133L198.973 466.92Z" fill="#EB173D"/>
<path d="M138.318 446.787L137.618 446.427C138.405 446.853 139.19 447.253 139.969 447.64C140.651 447.947 141.339 448.253 142.003 448.587L143.243 449.147C142.243 448.68 141.255 448.2 140.261 447.747C139.605 447.4 138.962 447.093 138.318 446.787Z" fill="#EB173D"/>
<path d="M210.562 468.707L211.797 468.88C212.505 468.973 213.213 469.04 213.919 469.12L212.706 468.973C211.995 468.88 211.277 468.813 210.562 468.707Z" fill="#EB173D"/>
<path d="M451.73 147.533L451.443 146.84L450.974 145.773L450.495 144.747C450.922 145.667 451.326 146.6 451.73 147.533Z" fill="#EB173D"/>
<path d="M448.442 140.373L447.966 139.333L447.311 138.04L447.208 137.853C447.618 138.667 448.026 139.507 448.442 140.373Z" fill="#EB173D"/>
<path d="M443.889 131.373C443.726 131.08 443.557 130.773 443.394 130.48C443.667 131 443.946 131.507 444.222 132.027L443.889 131.373Z" fill="#EB173D"/>
<path d="M441.426 126.96C441.081 126.333 440.763 125.733 440.433 125.107L440.355 125L439.347 123.333C440.055 124.533 440.743 125.733 441.426 126.96Z" fill="#EB173D"/>
<path d="M436.8 119.093L436.524 118.667C436.717 118.973 436.902 119.267 437.093 119.587C436.996 119.427 436.9 119.253 436.8 119.093Z" fill="#EB173D"/>
<path d="M453.801 152.387L454.004 152.88L454.509 154.133L454.49 154.067L453.801 152.373L453.586 151.867L453.801 152.387Z" fill="#EB173D"/>
<path d="M457.465 161.907L457.055 160.68L456.971 160.48L456.666 159.72C456.951 160.44 457.218 161.173 457.465 161.907Z" fill="#EB173D"/>
<path d="M50.6741 370.92L50.9141 371.267C51.0834 371.507 51.2621 371.733 51.4275 371.973C50.4728 370.587 49.5248 369.227 48.5955 367.853C49.2768 368.853 49.9661 369.88 50.6741 370.92Z" fill="#EB173D"/>
<path d="M75.7688 379.6L76.7235 380.08C72.4302 374.747 69.6168 369.573 69.4022 365.707C69.1355 361.253 70.6368 357.467 70.9155 353.24C71.3128 347.333 70.6502 341.013 71.9875 335.507L72.2222 334.64C54.9102 330.333 38.3902 324.04 22.8942 316.08C23.0915 316.653 23.2875 317.213 23.4888 317.773C25.2742 322.787 27.1675 327.733 29.3022 332.573L29.3222 332.667C30.3422 334.973 31.4982 337.2 32.5862 339.467C33.5795 340.307 34.5742 341.12 35.6035 341.933C47.4395 356.053 60.9182 368.667 75.7688 379.6Z" fill="#EB173D"/>
<path d="M209.744 326.707C212.824 329.227 216.552 330.04 220.974 330.453C228.206 331.12 234.221 334.787 240.36 338.68C246.168 342.373 248.681 341.067 255.34 340.107C262.589 339.04 269.457 338.867 276.485 341.293C277.29 341.56 278.108 341.867 278.92 342.187C279.933 339.413 281.253 337.027 283.988 334.64C287.638 331.48 293.056 329.973 295.57 325.56C297.285 322.507 295.802 317.533 297.81 315C300.67 311.413 307.1 313.027 311.005 313.6L321.3 311.227C326.426 320.36 338.957 321.253 341.173 331.747C341.594 333.76 341.594 335.827 341.549 337.947L341.894 337.96C355.113 324.907 366.748 310.28 376.505 294.4C370.34 293.933 364.345 292.013 360.524 288.173C354.3 281.933 359.933 277.893 361.408 271.413C362.961 264.52 355.769 261.547 350.981 258.04C345.376 253.987 339.314 249.093 344.005 242.013C347.974 236.04 357.114 233.147 359.225 225.893C361.271 218.813 354.041 213.24 350.592 207.96C345.506 200.187 346.409 193.053 351.598 185.507C356.829 177.893 365.266 172.027 369.157 163.493C372.009 157.253 369.657 151.893 369.561 145.44C369.358 129.427 384.892 135.147 394.972 132.533C398.332 131.64 402.105 127.64 405.555 126.333C400.125 100.493 390.373 76.2533 377.057 54.3733C380.941 57.2266 384.709 60.2399 388.405 63.3333C387.465 62.5599 386.58 61.7066 385.626 60.9466L384.56 60.0799C382.786 58.6399 380.98 57.2266 379.154 55.8533L378.941 55.6799C376.998 54.2133 374.998 52.7866 372.997 51.3733L372.108 50.7599C370.36 49.5599 368.605 48.3733 366.839 47.1866L365.897 46.5733C363.832 45.24 361.74 43.9466 359.641 42.6533L359.602 42.64C357.588 41.4133 355.522 40.24 353.464 39.0533L352.294 38.4266C350.236 37.2666 348.142 36.1466 346.032 35.0533L345.985 35.0266C354.288 58.7999 358.797 84.36 358.797 110.973C358.797 209.613 296.85 293.747 209.744 326.707Z" fill="#EB173D"/>
<path d="M421.945 97.8932L421.911 97.7999L421.847 97.7199H421.854C420.658 96.1999 419.463 94.6799 418.235 93.1866L418.189 93.1332C416.695 91.3332 415.183 89.5866 413.635 87.8132L412.641 86.7199C411.174 85.0666 409.711 83.4532 408.205 81.8933L407.835 81.4666C406.173 79.7066 404.482 77.9866 402.769 76.2933L401.95 75.4666C400.457 74.0399 398.962 72.6132 397.449 71.2132L396.519 70.3332C394.709 68.6799 392.781 67.1066 390.907 65.4933C402.261 75.2933 412.69 86.1199 421.945 97.8932Z" fill="#EB173D"/>
<path d="M423.972 100.44C423.848 100.28 423.732 100.12 423.608 99.9599L422.725 98.8132L422.081 98.0265C422.725 98.8265 423.348 99.6399 423.972 100.44Z" fill="#EB173D"/>
<path d="M427.959 105.84L427.199 104.773L426.173 103.4C426.941 104.44 427.699 105.493 428.454 106.547C428.285 106.32 428.129 106.08 427.959 105.84Z" fill="#EB173D"/>
<path d="M432.799 112.867L432.546 112.427L432.045 111.693L430.941 110.12C431.578 111.013 432.183 111.92 432.799 112.867Z" fill="#EB173D"/>
<path d="M57.9689 380.88C58.9822 382.2 60.0022 383.507 61.0355 384.787L61.4182 385.267L61.9315 385.867C60.5875 384.213 59.2742 382.587 57.9689 380.88Z" fill="#EB173D"/>
<path d="M227.797 470.307C228.302 470.333 228.829 470.347 229.35 470.373C228.322 470.307 227.29 470.267 226.282 470.213L227.797 470.307Z" fill="#EB173D"/>
<path d="M220.962 469.813C219.974 469.733 219.007 469.667 218.014 469.547C219.467 469.707 220.93 469.827 222.391 469.947L222.963 469.987C222.299 469.92 221.638 469.853 220.962 469.813Z" fill="#EB173D"/>
<path d="M75.4048 400.96L76.1715 401.747C76.5875 402.16 77.0062 402.587 77.4222 403C76.1195 401.693 74.8102 400.36 73.5142 399.013C74.1448 399.653 74.7742 400.333 75.4048 400.96Z" fill="#EB173D"/>
<path d="M204.799 328.493C180.855 336.92 155.086 341.52 128.243 341.52C125.899 341.52 123.578 341.493 121.247 341.427C124.787 343.373 127.985 345.427 130.498 347.84C140.126 357.107 139.385 366.533 150.175 376.08C154.183 379.653 157.19 382.053 159.133 386.12C160.763 389.507 160.431 392.84 163.439 396.373C165.498 398.773 170.162 400.747 171.722 403.053L172.333 404.307C174.854 404.4 177.381 404.467 179.933 404.467C205.195 404.467 229.511 400.373 252.261 392.867C251.533 388.027 251.383 383.347 252.905 379.293C254.489 375.08 257.133 371.787 260.159 368.733C259.017 368.307 257.997 367.507 256.775 366.16C254.034 363.107 252.883 361.867 248.706 360.947C244.933 360.147 242.535 360.093 239.463 357.52C236.747 355.293 235.287 352.787 231.745 352.053C227.842 351.28 227.017 352.893 223.965 349.787C221.781 347.573 221.066 344.427 219.378 341.893L218.487 340.76L218.41 340.653L217.526 339.747C215.889 338.293 214.077 337.387 212.186 335.72C209.607 333.427 207.145 331 204.799 328.493Z" fill="#EB173D"/>
<path d="M467.43 199.027L467.578 199.827L467.488 199.24L467.444 199.053L467.365 198.627L467.43 199.027Z" fill="#EB173D"/>
<path d="M464.234 184.107L464.246 184.16L463.988 183.093L463.87 182.693L464.234 184.107Z" fill="#EB173D"/>
<path d="M63.8942 388.28L64.3809 388.827C65.0822 389.64 65.7809 390.453 66.4862 391.28C65.3355 389.933 64.1929 388.6 63.0555 387.24L63.8942 388.28Z" fill="#EB173D"/>
<path d="M461.973 175.733L461.675 174.68L461.635 174.573C461.745 174.96 461.862 175.347 461.973 175.733Z" fill="#EB173D"/>
<path d="M470.996 233.507L470.969 232.76L470.996 233.747V233.507Z" fill="#A0182F"/>
<path d="M467.365 198.627L467.358 198.547L467.189 197.667L467.43 199.027L467.365 198.627Z" fill="#A0182F"/>
<path d="M226.282 470.213C227.29 470.267 228.322 470.307 229.35 470.373C229.389 470.373 229.419 470.373 229.459 470.373C227.747 470.28 226.058 470.213 224.354 470.08C225.003 470.147 225.638 470.16 226.282 470.213Z" fill="#A0182F"/>
<path d="M75.7688 379.6L77.0941 380.56L76.7235 380.08L75.7688 379.6Z" fill="#A0182F"/>
<path d="M129.212 405.573C125.626 404.493 123.17 405 120.553 405.387C128.472 408.827 136.631 411.84 144.99 414.373L144.802 414.293C139.501 411.773 134.728 407.28 129.212 405.573Z" fill="#A0182F"/>
<path d="M188.878 464.827C187.547 464.533 186.241 464.2 184.935 463.867C185.539 464.027 186.143 464.2 186.779 464.347L187.709 464.573L187.943 464.613L188.878 464.827Z" fill="#A0182F"/>
<path d="M252.261 392.867C229.512 400.373 205.196 404.467 179.933 404.467C177.381 404.467 174.854 404.4 172.333 404.307C173.041 406.853 170.43 408.627 169.026 409.92L168.02 415.973C161.017 414.107 156.788 416.693 151 416.133C170.521 421.493 191.034 424.387 212.25 424.387C227.29 424.387 241.99 422.933 256.223 420.173C255.969 418.627 255.834 416.96 255.853 415.173C255.969 408.413 253.392 400.387 252.261 392.867Z" fill="#A0182F"/>
<path d="M405.555 126.333C406.238 126.053 406.911 125.893 407.555 125.933C412.818 125.973 413.271 133.853 414.014 137.853C414.11 140.48 414.175 143.307 414.883 145.853C418.43 158.613 435.113 161.24 429.357 177.347C426.589 185.053 418.964 191.493 418.574 199.973C418.184 209.44 426.802 217.267 429.753 225.813C437.561 248.347 408.257 252.253 405.217 271.2C403.722 280.52 402.969 288.067 393.05 292.093C388.534 293.947 382.436 294.84 376.505 294.4C366.748 310.28 355.113 324.907 341.894 337.96C344.005 338.12 346.084 338.373 348.065 338.8C354.269 340.067 358.907 341.96 365.519 341.293C371.465 340.707 379.154 340.08 384.091 336.587C388.638 333.347 391.946 328.32 397.058 325.827C398.662 325.04 400.293 324.867 401.905 324.933C427.688 287.733 442.824 242.533 442.824 193.827C442.824 159.587 435.326 127.08 421.945 97.8933C412.69 86.1199 402.261 75.2932 390.908 65.4933C390.072 64.7733 389.25 64.0532 388.405 63.3332C384.709 60.2399 380.941 57.2266 377.057 54.3733C390.373 76.2533 400.125 100.493 405.555 126.333Z" fill="#A0182F"/>
<path d="M216.454 469.4L217.077 469.467L217.208 469.493L218.014 469.547C219.008 469.667 219.974 469.733 220.962 469.813C219.449 469.68 217.945 469.547 216.454 469.4Z" fill="#A0182F"/>
<path d="M170.305 459.747C170.315 459.747 170.322 459.747 170.331 459.747C171.189 460 172.039 460.28 172.905 460.56L173.437 460.72L173.593 460.76C172.479 460.427 171.407 460.093 170.305 459.747Z" fill="#A0182F"/>
<path d="M200.337 467.133L201.397 467.333C202.014 467.44 202.643 467.56 203.287 467.64L204.626 467.867C203.195 467.64 201.759 467.373 200.337 467.133Z" fill="#A0182F"/>
<path d="M177.446 461.88C178.128 462.067 178.809 462.267 179.518 462.48L180.907 462.867L181.188 462.933C179.933 462.587 178.673 462.227 177.446 461.88Z" fill="#A0182F"/>
<path d="M233.487 470.547H233.514C235.857 470.613 238.19 470.68 240.547 470.68C237.982 470.68 235.442 470.613 232.91 470.52L233.487 470.547Z" fill="#A0182F"/>
<path d="M210.316 468.667L210.562 468.707C211.277 468.813 211.996 468.88 212.706 468.973C211.913 468.853 211.116 468.76 210.316 468.667Z" fill="#A0182F"/>
<path d="M421.911 97.7999L421.945 97.8932C435.326 127.08 442.823 159.587 442.823 193.827C442.823 242.533 427.687 287.733 401.905 324.933C405.354 325.067 408.835 326.293 412.33 324.907C416.033 323.52 418.605 318.707 421.055 315.867C425.233 311.027 429.513 308.627 435.657 307.187C446.271 304.693 443.446 294.12 451.69 289.36C455.855 286.973 460.362 286.973 462.025 281.747C463.117 278.32 461.869 274.987 463.175 271.507C464.506 268 467.566 265.253 468.67 261.68C469.886 257.84 466.917 249.453 468.969 245.893C468.969 245.84 468.957 245.787 468.957 245.733L469.399 245.16L470.262 244.6L471.034 244.373C471.055 242.973 471.081 241.547 471.081 240.107C471.081 238.253 471.055 236.4 471.017 234.56L470.995 233.747L470.969 232.76C470.925 231.533 470.879 230.267 470.827 229.067C470.795 228.347 470.762 227.653 470.717 226.947C470.646 225.813 470.574 224.68 470.49 223.533L470.43 222.653L470.327 221.387C470.255 220.253 470.145 219.093 470.042 217.973V217.96C469.969 217.267 469.911 216.587 469.826 215.907C469.697 214.627 469.554 213.36 469.399 212.093L469.326 211.493L469.195 210.507C468.989 208.787 468.747 207.027 468.489 205.307L468.45 205.227L468.358 204.56L468.17 203.333C467.982 202.24 467.806 201.133 467.626 200.053L467.578 199.827L467.43 199.027L467.189 197.667C467.014 196.72 466.826 195.76 466.643 194.84C466.482 194.013 466.305 193.16 466.125 192.32C465.935 191.427 465.753 190.533 465.553 189.653C465.357 188.813 465.17 187.96 464.955 187.093C464.753 186.253 464.545 185.4 464.357 184.573L464.273 184.267L464.246 184.16L464.234 184.107L463.87 182.693L463.675 181.92C463.506 181.227 463.31 180.52 463.117 179.853L462.785 178.627L462.635 178.093C462.479 177.44 462.298 176.84 462.115 176.227L461.973 175.733C461.862 175.347 461.745 174.96 461.635 174.573L461.466 174.04L460.971 172.333L460.81 171.827L460.661 171.36C460.433 170.667 460.199 169.933 459.971 169.213C459.79 168.613 459.582 168.04 459.402 167.44C459.247 166.987 459.095 166.56 458.946 166.12L458.815 165.733L458.563 164.987C458.485 164.76 458.407 164.533 458.322 164.293L457.757 162.653L457.465 161.907C457.218 161.173 456.951 160.44 456.666 159.72L456.575 159.4L456.062 158.12C455.621 156.933 455.159 155.747 454.698 154.573L454.613 154.373L454.509 154.133L454.003 152.88L453.801 152.387L453.586 151.867C452.995 150.413 452.359 148.973 451.73 147.533C451.326 146.6 450.922 145.667 450.495 144.747C450.021 143.72 449.539 142.667 449.053 141.6L448.994 141.493L448.442 140.373C448.026 139.507 447.618 138.667 447.207 137.853L447.077 137.587L446.845 137.12C446.201 135.787 445.531 134.48 444.855 133.2L444.706 132.933L444.649 132.853L444.222 132.027C443.946 131.507 443.667 131 443.394 130.48C443.313 130.333 443.233 130.187 443.147 130.04C442.577 129 442.005 127.96 441.426 126.96C440.743 125.733 440.055 124.533 439.347 123.333C439.138 122.973 438.925 122.627 438.717 122.28C438.178 121.373 437.645 120.467 437.093 119.587C436.902 119.267 436.717 118.973 436.523 118.667L435.91 117.693C435.346 116.773 434.761 115.893 434.183 114.987C433.722 114.28 433.266 113.547 432.799 112.867C432.183 111.92 431.578 111.013 430.941 110.12C430.759 109.853 430.571 109.587 430.389 109.32C429.745 108.387 429.11 107.467 428.454 106.547C427.699 105.493 426.941 104.44 426.173 103.4C425.443 102.413 424.711 101.427 423.971 100.44C423.347 99.6399 422.725 98.8266 422.081 98.0266L421.911 97.7999Z" fill="#580E1F"/>
<path d="M421.911 97.7999L421.906 97.7732C421.886 97.7599 421.873 97.7466 421.854 97.7199H421.847L421.911 97.7999Z" fill="#580E1F"/>
<path d="M432.363 354.64C430.825 356 424.472 357.213 422.393 357.493C420.62 357.747 417.677 356.6 416.288 357.267C414.694 358.04 413.98 361.667 412.493 363.027C410.302 365.027 406.821 366.053 403.996 366.387C401.522 366.707 397.617 365.307 395.382 366.347C393.129 367.36 393.225 370.08 391.232 371.293C386.769 373.92 380.279 370.08 376.042 371.333C373.277 372.16 372.725 375.707 370.313 376.747C368.3 377.627 365.053 376.453 363.032 376.053L362.466 375.947C364.506 393.573 353.437 415.96 339.444 421.467C332.87 424.067 325.594 424.813 318.839 426.813C309.386 429.627 300.299 433.587 290.561 435.373C275.329 438.173 258.886 435.547 256.223 420.173C241.99 422.933 227.29 424.387 212.25 424.387C191.034 424.387 170.521 421.493 151 416.133C149.206 415.933 147.233 415.427 144.99 414.373C136.632 411.84 128.472 408.827 120.553 405.387C119.474 405.547 118.389 405.693 117.168 405.667C104.612 405.627 87.0582 392.76 77.0942 380.56L75.7688 379.6C60.9182 368.667 47.4395 356.053 35.6035 341.933C34.5742 341.12 33.5795 340.307 32.5862 339.467C33.6742 341.747 34.6942 344.067 35.8569 346.293L36.1355 346.84L36.4609 347.413C37.4289 349.24 38.4155 351.093 39.4422 352.893L39.6182 353.24L39.8902 353.707C40.4235 354.653 40.9822 355.56 41.5249 356.493C42.2222 357.693 42.9142 358.907 43.6449 360.093L43.8475 360.453L43.9115 360.533L44.4515 361.36C45.5035 363.067 46.5822 364.787 47.6862 366.44L47.9129 366.813L48.3808 367.533C48.4528 367.64 48.5235 367.747 48.5955 367.853C49.5249 369.227 50.4729 370.587 51.4275 371.973C53.3022 374.64 55.2022 377.293 57.1769 379.853L57.7742 380.627L57.9688 380.88C59.2742 382.587 60.5875 384.213 61.9315 385.867L63.0555 387.24C64.1928 388.6 65.3355 389.933 66.4862 391.28C66.7715 391.613 67.0568 391.947 67.3502 392.28L67.9862 393L68.2715 393.307C68.6555 393.733 69.0448 394.16 69.4315 394.587C70.5582 395.827 71.6822 397.08 72.8395 398.307L73.0595 398.547L73.5142 399.013C74.8102 400.36 76.1195 401.693 77.4222 403C77.7408 403.32 78.0555 403.653 78.3808 403.973L78.9715 404.56L79.4848 405.04C80.0555 405.613 80.6475 406.147 81.2289 406.707C82.0475 407.48 82.8555 408.267 83.6809 409.04L83.9275 409.293L84.5902 409.88C84.8502 410.133 85.1102 410.36 85.3702 410.6C86.8048 411.88 88.2342 413.173 89.7022 414.44L90.2288 414.933L90.5662 415.2L90.9048 415.467C92.5488 416.893 94.2049 418.28 95.9115 419.64L96.8742 420.427C99.1222 422.2 101.402 423.933 103.709 425.64C104.894 426.533 106.096 427.4 107.3 428.253L107.509 428.4L108.365 429.013C108.392 429.027 108.425 429.053 108.452 429.067L108.71 429.253L109.866 430.04C110.86 430.72 111.856 431.4 112.868 432.067L113.798 432.68L115.323 433.707L115.83 434.04L115.933 434.12L116.213 434.28C117.077 434.853 117.966 435.373 118.862 435.933L120.144 436.747C120.238 436.8 120.329 436.867 120.422 436.907C121.033 437.307 121.625 437.653 122.236 438.013L123.464 438.747L125.133 439.707L126.808 440.64C127.581 441.08 128.316 441.533 129.081 441.947L129.966 442.453L130.316 442.64L131.641 443.333C132.252 443.68 132.869 443.987 133.506 444.32C134.474 444.827 135.436 445.36 136.416 445.853L136.442 445.88L137.618 446.427L138.318 446.787C138.962 447.093 139.605 447.4 140.261 447.747C141.256 448.2 142.244 448.68 143.244 449.147L144.594 449.787H144.601C144.692 449.827 144.784 449.88 144.873 449.92L145.173 450.04C145.757 450.307 146.361 450.56 146.966 450.813C148.362 451.453 149.745 452.093 151.176 452.667L151.28 452.747L152.149 453.093C154.132 453.92 156.126 454.693 158.133 455.48L159.769 456.08C161.114 456.613 162.49 457.08 163.855 457.56C164.506 457.8 165.161 458.027 165.813 458.267C165.917 458.293 166.02 458.333 166.123 458.373L166.689 458.6H166.706L167.245 458.747C167.314 458.773 167.384 458.8 167.454 458.813L167.466 458.827C168.411 459.133 169.357 459.44 170.305 459.747C171.408 460.093 172.479 460.427 173.593 460.76L173.638 460.787C174.256 460.96 174.821 461.16 175.425 461.32C176.1 461.547 176.769 461.707 177.446 461.88C178.673 462.227 179.933 462.587 181.188 462.933L181.726 463.093L182.577 463.307L183.031 463.413C183.656 463.573 184.293 463.72 184.936 463.867C186.241 464.2 187.548 464.533 188.878 464.827L188.908 464.84L189.195 464.907L189.709 465.027L191.482 465.413L193.029 465.747L193.114 465.76C193.614 465.867 194.114 465.973 194.616 466.067L195.492 466.24C196.141 466.36 196.816 466.507 197.466 466.613L198.973 466.92L200.337 467.133C201.76 467.373 203.195 467.64 204.626 467.867L206.086 468.08L206.248 468.12L207.866 468.333L208.574 468.427L210.277 468.653L210.316 468.667C211.116 468.76 211.913 468.853 212.706 468.973L213.92 469.12C214.537 469.187 215.162 469.28 215.78 469.32L216.266 469.387L216.454 469.4C217.945 469.547 219.449 469.68 220.962 469.813C221.638 469.853 222.299 469.92 222.964 469.987L223.21 470L224.354 470.08C226.058 470.213 227.747 470.28 229.459 470.373C229.518 470.373 229.578 470.387 229.641 470.387L230.862 470.44C231.545 470.48 232.233 470.493 232.91 470.52C235.442 470.613 237.982 470.68 240.548 470.68C329.676 470.68 406.997 420.053 445.362 346.013C441.849 346.627 438.138 346.84 435.385 349.307C433.689 350.84 433.93 353.253 432.363 354.64Z" fill="#580E1F"/>
<path d="M457.459 334.52C454.406 336.373 455.029 340.08 452.769 342.627C450.806 344.84 448.149 345.573 445.362 346.013C406.997 420.053 329.675 470.68 240.547 470.68C238.722 470.68 236.917 470.627 235.118 470.587L233.487 470.547L232.91 470.52C232.233 470.493 231.545 470.48 230.862 470.44L229.641 470.387C229.578 470.387 229.518 470.373 229.459 470.373C229.419 470.373 229.389 470.373 229.35 470.373C228.829 470.347 228.302 470.333 227.797 470.307L226.282 470.213C225.638 470.16 225.003 470.147 224.354 470.08L223.21 470L222.391 469.947C220.93 469.827 219.467 469.707 218.014 469.547L217.207 469.493L217.077 469.467L216.454 469.4L216.266 469.387L215.779 469.32C215.162 469.28 214.537 469.187 213.919 469.12C213.213 469.04 212.505 468.973 211.797 468.88L210.562 468.707L210.315 468.667L210.277 468.653L208.574 468.427L207.866 468.333L206.247 468.12L204.631 467.88L203.287 467.64C202.643 467.56 202.014 467.44 201.397 467.333L200.818 467.253L199.409 466.987L198.973 466.92L197.466 466.613C196.815 466.507 196.141 466.36 195.491 466.24L194.615 466.067L194.329 466.027L193.114 465.76L193.029 465.747L191.482 465.413L189.709 465.027L189.195 464.907L188.907 464.84L187.709 464.573L186.779 464.347C185.851 464.12 184.954 463.893 184.045 463.68L182.577 463.307L181.726 463.093L180.907 462.867L179.518 462.48L178.498 462.2L177.173 461.853L175.425 461.32C174.821 461.16 174.255 460.96 173.638 460.787L173.437 460.72L172.905 460.56L172.365 460.413L170.729 459.88C170.594 459.84 170.462 459.8 170.331 459.747C170.322 459.747 170.315 459.747 170.305 459.747C169.357 459.44 168.411 459.133 167.466 458.827L167.454 458.813L166.706 458.6H166.689L165.519 458.187C164.498 457.813 163.505 457.467 162.511 457.093C161.894 456.867 161.243 456.653 160.607 456.413L159.769 456.08L158.133 455.48L157.133 455.08L155.561 454.493C154.417 454.053 153.293 453.547 152.149 453.093L151.279 452.747C150.655 452.467 150.038 452.2 149.409 451.933C148.506 451.533 147.582 451.12 146.686 450.733C146.089 450.453 145.477 450.187 144.873 449.92C144.783 449.88 144.691 449.827 144.601 449.787H144.594L143.243 449.147L142.003 448.587C141.339 448.253 140.651 447.947 139.969 447.64C139.19 447.253 138.405 446.853 137.618 446.427L136.442 445.88C135.649 445.453 134.85 445.04 134.045 444.627C133.141 444.16 132.251 443.693 131.342 443.213L129.966 442.453L129.081 441.947C128.359 441.573 127.659 441.173 126.977 440.773C126.243 440.347 125.503 439.933 124.755 439.493L123.463 438.747L122.235 438.013C121.625 437.653 121.033 437.307 120.422 436.907C120.329 436.867 120.238 436.8 120.143 436.747C119.466 436.333 118.807 435.893 118.123 435.493C117.402 435.053 116.662 434.587 115.933 434.12L115.83 434.04L114.342 433.08C113.738 432.68 113.115 432.293 112.523 431.867C111.725 431.333 110.945 430.8 110.178 430.267L109.866 430.04L108.71 429.253L108.451 429.067C108.425 429.053 108.391 429.027 108.365 429.013C107.606 428.48 106.837 427.947 106.086 427.413L104.546 426.28C104.266 426.08 103.994 425.853 103.709 425.64C101.402 423.933 99.1221 422.2 96.8741 420.427L95.9115 419.64L94.9261 418.84C94.0875 418.173 93.2755 417.493 92.4502 416.8L91.2288 415.76L90.5661 415.2L90.2288 414.933L88.7355 413.613L87.8715 412.853C87.0461 412.107 86.2048 411.36 85.3701 410.6C85.1101 410.36 84.8501 410.133 84.5901 409.88L83.9275 409.293C83.0181 408.44 82.1288 407.573 81.2288 406.707C80.6475 406.147 80.0555 405.613 79.4848 405.04L78.9715 404.56L78.3808 403.973C78.0555 403.653 77.7408 403.32 77.4221 403C77.0061 402.587 76.5875 402.16 76.1715 401.747L75.4048 400.96C74.6181 400.16 73.8261 399.36 73.0595 398.547L72.8395 398.307C71.6822 397.08 70.5581 395.827 69.4315 394.587C68.9541 394.053 68.4608 393.533 67.9861 393L67.3501 392.28C67.0568 391.947 66.7715 391.613 66.4861 391.28C65.7808 390.453 65.0821 389.64 64.3808 388.827L63.8942 388.28C63.0755 387.253 62.2435 386.267 61.4181 385.267L61.0355 384.787C59.9315 383.427 58.8528 382.027 57.7742 380.627L57.1768 379.853C55.2022 377.293 53.3022 374.64 51.4275 371.973C51.2622 371.733 51.0835 371.507 50.9141 371.267L50.6742 370.92C49.9662 369.88 49.2768 368.853 48.5955 367.853C48.5235 367.747 48.4528 367.64 48.3808 367.533L47.9128 366.813C46.5488 364.747 45.2168 362.667 43.9115 360.533L43.8475 360.453C43.0488 359.147 42.2942 357.813 41.5248 356.493C40.9822 355.56 40.4235 354.653 39.8902 353.707L39.6181 353.24L39.2088 352.507L39.1115 352.307C38.0915 350.493 37.1048 348.653 36.1355 346.84L35.8568 346.293C34.6941 344.067 33.6741 341.747 32.5861 339.467C31.4981 337.2 30.3421 334.973 29.3221 332.667L29.3021 332.573C27.1781 327.733 25.2808 322.787 23.4888 317.773C23.2875 317.213 23.0915 316.653 22.8942 316.08C14.5728 292.293 9.97015 266.747 9.97015 240.107C9.97015 207.387 16.8168 176.307 29.0875 148.12C29.8155 143.64 31.0235 139.067 30.9968 134.813C30.9648 130.88 30.1528 127.867 32.9395 124.467C34.1741 122.947 37.5582 121.84 39.5462 122.64L40.4102 123.213L40.8582 123.787L41.1181 124.32C62.0221 88.4 92.3595 58.6399 128.75 38.4266C137.17 32.3999 147.595 27.5866 156.255 25.4399C182.369 15.1866 210.797 9.53323 240.547 9.53323C278.53 9.53323 314.389 18.7333 345.985 35.0266L346.031 35.0533C348.142 36.1466 350.235 37.2666 352.294 38.4266L353.463 39.0533C355.522 40.24 357.587 41.4133 359.602 42.64L359.641 42.6533C361.739 43.9466 363.831 45.24 365.897 46.5733L366.839 47.1866C368.605 48.3733 370.359 49.5599 372.107 50.7599L372.997 51.3733C374.998 52.7866 376.998 54.2133 378.941 55.6799L379.154 55.8533C380.979 57.2266 382.786 58.6399 384.559 60.0799L385.626 60.9466C386.579 61.7066 387.465 62.5599 388.405 63.3333C389.25 64.0533 390.071 64.7733 390.907 65.4933C392.781 67.1066 394.709 68.6799 396.519 70.3333L397.449 71.2133C398.962 72.6133 400.457 74.0399 401.95 75.4666L402.769 76.2933C404.482 77.9866 406.173 79.7066 407.835 81.4666L408.205 81.8933C409.711 83.4533 411.174 85.0666 412.641 86.72L413.635 87.8133C415.183 89.5866 416.695 91.3333 418.189 93.1332L418.235 93.1866C419.463 94.68 420.658 96.2 421.854 97.72C421.873 97.7466 421.886 97.7599 421.906 97.7733C422.173 98.1333 422.458 98.4666 422.725 98.8133L423.607 99.9599C423.731 100.12 423.847 100.28 423.971 100.44C424.711 101.427 425.443 102.413 426.173 103.4L427.199 104.773L427.959 105.84C428.129 106.08 428.285 106.32 428.454 106.547C429.11 107.467 429.745 108.387 430.389 109.32C430.935 110.107 431.506 110.893 432.045 111.693L432.546 112.427C433.098 113.28 433.637 114.133 434.183 114.987C434.761 115.893 435.346 116.773 435.91 117.693L436.523 118.667L436.799 119.093C436.899 119.253 436.995 119.427 437.093 119.587C437.645 120.467 438.178 121.373 438.717 122.28C439.259 123.187 439.818 124.08 440.355 125L440.433 125.107C441.353 126.747 442.25 128.387 443.147 130.04C443.233 130.187 443.313 130.333 443.394 130.48C443.557 130.773 443.726 131.08 443.889 131.373L444.222 132.027L444.649 132.853L444.706 132.933L444.855 133.2C445.531 134.48 446.201 135.787 446.845 137.12L447.077 137.587L447.311 138.04L447.966 139.333C448.311 140.067 448.649 140.787 448.994 141.493L449.053 141.6C449.695 142.987 450.339 144.373 450.974 145.773L451.443 146.84C452.261 148.68 453.034 150.52 453.801 152.373L454.49 154.067L454.613 154.373L454.698 154.573C455.159 155.747 455.621 156.933 456.062 158.12L456.575 159.4L456.971 160.48L457.055 160.68C457.302 161.36 457.517 162 457.757 162.653L458.322 164.293C458.407 164.533 458.485 164.76 458.563 164.987C458.693 165.373 458.823 165.733 458.946 166.12C459.095 166.56 459.247 166.987 459.402 167.44C459.582 168.04 459.79 168.613 459.971 169.213C460.31 170.253 460.647 171.293 460.971 172.333L461.466 174.04L461.675 174.68L461.973 175.733L462.115 176.227C462.298 176.84 462.479 177.44 462.635 178.093L462.785 178.627L463.117 179.853C463.31 180.52 463.506 181.227 463.675 181.92L463.987 183.093L464.246 184.16L464.273 184.267L464.357 184.573C464.545 185.4 464.753 186.253 464.955 187.093C465.17 187.96 465.357 188.813 465.553 189.653C465.753 190.533 465.935 191.427 466.125 192.32C466.305 193.16 466.482 194.013 466.643 194.84C466.826 195.76 467.014 196.72 467.189 197.667L467.358 198.547L467.443 199.053L467.487 199.24L467.626 200.053C467.806 201.133 467.982 202.24 468.17 203.333C468.274 203.987 468.385 204.64 468.489 205.307C468.747 207.027 468.989 208.787 469.195 210.507L469.326 211.493L469.399 212.093C469.554 213.36 469.697 214.627 469.826 215.907C469.911 216.587 469.969 217.267 470.042 217.96V217.973C470.145 219.093 470.255 220.253 470.327 221.387L470.469 223.053L470.49 223.533C470.574 224.68 470.646 225.813 470.717 226.947C470.762 227.653 470.795 228.347 470.827 229.067C470.879 230.267 470.925 231.533 470.969 232.76L470.995 233.507L471.017 234.56C471.055 236.4 471.081 238.253 471.081 240.107C471.081 241.547 471.055 242.973 471.034 244.373C473.022 244.067 475.771 245.04 476.875 246.387C479.655 249.827 478.837 252.8 478.818 256.773C478.793 258.907 479.103 261.093 479.493 263.32C480.214 255.64 480.591 247.92 480.591 240.107C480.591 176 455.621 115.72 410.285 70.3466C364.941 25.0132 304.665 0.0533142 240.547 0.0533142C176.411 0.0533142 116.135 25.0132 70.7928 70.3466C25.4435 115.72 0.479492 176 0.479492 240.107C0.479492 304.227 25.4435 364.493 70.7928 409.853C116.135 455.187 176.411 480.16 240.547 480.16C304.665 480.16 364.941 455.187 410.285 409.853C432.727 387.4 450.177 361.307 462.065 332.88C460.498 333.28 458.939 333.627 457.459 334.52Z" fill="#F68228"/>
<path d="M366.915 281.853L367.585 280.347C368.462 278.493 369.522 276.2 370.165 273.387C372.827 261.653 363.227 255.387 358.607 252.36C357.802 251.84 356.983 251.32 356.262 250.787C355.301 250.08 352.651 248.147 351.578 246.84C352.449 245.64 354.399 244.173 356.262 242.733C360.523 239.493 365.818 235.467 367.839 228.4C370.717 218.547 364.655 211.2 360.667 206.32C359.659 205.12 358.705 203.973 358.114 203.053C355.697 199.333 355.119 196.253 358.998 190.573C360.733 188.04 363.11 185.533 365.61 182.92C369.735 178.547 374.399 173.627 377.323 167.227C380.357 160.587 379.597 154.76 378.985 150.053C378.765 148.387 378.571 146.827 378.537 145.333C378.519 144.107 378.654 143.413 378.751 143.107C380.065 142.573 383.747 142.453 386.015 142.413C389.51 142.32 393.446 142.213 397.253 141.213C400.183 140.453 402.643 138.867 404.834 137.32L405.055 138.773C405.151 141.52 405.295 144.88 406.238 148.253C408.257 155.533 412.902 160.213 416.631 163.96C421.749 169.133 422.406 170.16 420.911 174.28C420.165 176.387 418.605 178.76 416.987 181.253C413.845 186.04 409.939 192 409.609 199.6C409.25 208.24 413.617 215.333 417.111 221.013C418.858 223.827 420.465 226.44 421.262 228.733C423.581 235.413 421.042 238.373 412.583 245.827C406.165 251.48 398.155 258.493 396.369 269.76L396.154 271.013C394.726 280.067 394.063 281.987 389.638 283.8C386.923 284.893 383.241 285.533 379.525 285.533C374.029 285.533 369.209 284.133 366.915 281.853ZM393.05 292.093C402.969 288.067 403.722 280.52 405.217 271.2C408.257 252.253 437.561 248.347 429.753 225.813C426.802 217.267 418.183 209.44 418.574 199.973C418.963 191.493 426.589 185.053 429.357 177.347C435.113 161.24 418.43 158.613 414.883 145.853C414.175 143.307 414.11 140.48 414.014 137.853C413.271 133.853 412.818 125.973 407.555 125.933C406.911 125.893 406.238 126.053 405.555 126.333C402.105 127.64 398.331 131.64 394.971 132.533C384.891 135.147 369.358 129.427 369.561 145.44C369.657 151.893 372.009 157.253 369.157 163.493C365.266 172.027 356.829 177.893 351.598 185.507C346.409 193.053 345.506 200.187 350.591 207.96C354.041 213.24 361.271 218.813 359.225 225.893C357.114 233.147 347.974 236.04 344.005 242.013C339.314 249.093 345.375 253.987 350.981 258.04C355.769 261.547 362.961 264.52 361.407 271.413C359.933 277.893 354.299 281.933 360.523 288.173C364.345 292.013 370.339 293.933 376.505 294.4C382.435 294.84 388.534 293.947 393.05 292.093Z" fill="#A0182F"/>
<path d="M396.154 271.013L396.369 269.76C398.155 258.493 406.165 251.48 412.583 245.827C421.042 238.373 423.581 235.413 421.262 228.733C420.465 226.44 418.858 223.827 417.111 221.013C413.617 215.333 409.25 208.24 409.609 199.6C409.939 192 413.845 186.04 416.987 181.253C418.605 178.76 420.165 176.387 420.911 174.28C422.406 170.16 421.749 169.133 416.631 163.96C412.902 160.213 408.257 155.533 406.238 148.253C405.295 144.88 405.151 141.52 405.055 138.773L404.834 137.32C402.643 138.867 400.183 140.453 397.253 141.213C393.446 142.213 389.51 142.32 386.015 142.413C383.747 142.453 380.065 142.573 378.751 143.107C378.654 143.413 378.519 144.107 378.537 145.333C378.571 146.827 378.765 148.387 378.985 150.053C379.597 154.76 380.357 160.587 377.323 167.227C374.399 173.627 369.735 178.547 365.61 182.92C363.11 185.533 360.733 188.04 358.998 190.573C355.119 196.253 355.697 199.333 358.114 203.053C358.705 203.973 359.659 205.12 360.667 206.32C364.655 211.2 370.717 218.547 367.839 228.4C365.818 235.467 360.523 239.493 356.262 242.733C354.399 244.173 352.449 245.64 351.578 246.84C352.651 248.147 355.301 250.08 356.262 250.787C356.983 251.32 357.802 251.84 358.607 252.36C363.227 255.387 372.827 261.653 370.165 273.387C369.522 276.2 368.462 278.493 367.585 280.347L366.915 281.853C369.209 284.133 374.029 285.533 379.525 285.533C383.241 285.533 386.923 284.893 389.638 283.8C394.063 281.987 394.726 280.067 396.154 271.013Z" fill="#580E1F"/>
<path d="M289.88 341.427C290.626 340.773 291.829 340.067 293.129 339.307C296.278 337.413 300.618 334.867 303.385 330C305.009 327.133 305.348 324.173 305.482 321.853C306.314 321.947 307.19 322.08 308.004 322.227C308.608 322.32 309.198 322.413 309.732 322.493L311.389 322.733L317.774 321.253C320.476 323.96 323.47 325.933 326.069 327.613C330.228 330.333 331.98 331.627 332.397 333.627C332.618 334.747 332.61 336.307 332.545 338C335.54 337.747 338.586 337.707 341.549 337.947C341.594 335.827 341.594 333.76 341.173 331.747C338.957 321.253 326.426 320.36 321.3 311.227L311.005 313.6C307.1 313.027 300.67 311.413 297.81 315C295.802 317.533 297.285 322.507 295.57 325.56C293.056 329.973 287.638 331.48 283.988 334.64C281.253 337.027 279.933 339.413 278.92 342.187C281.706 343.213 284.521 344.32 287.378 345.2C288.022 343.453 288.638 342.493 289.88 341.427Z" fill="#A0182F"/>
<path d="M252.261 392.867C253.391 400.387 255.969 408.413 255.853 415.173C255.834 416.96 255.969 418.627 256.223 420.173C258.886 435.547 275.329 438.173 290.561 435.373C300.299 433.587 309.386 429.627 318.839 426.813C325.594 424.813 332.87 424.067 339.443 421.467C353.437 415.96 364.506 393.573 362.466 375.947C359.407 375.413 358.087 375.64 355.079 376.333L353.509 376.613C354.022 380.587 353.561 384.427 353.178 386.6C351.073 398.547 343.581 410.2 336.157 413.147C332.935 414.373 329.271 415.173 325.367 416C322.411 416.653 319.365 417.293 316.279 418.227C312.823 419.267 309.451 420.413 306.19 421.533C300.241 423.573 294.641 425.493 288.938 426.547C285.905 427.107 283.001 427.413 280.278 427.413C274.373 427.413 269.813 426.053 267.429 423.627C265.642 421.8 264.793 419.093 264.843 415.293C264.909 409.92 263.745 404.467 262.615 399.16C261.263 392.84 259.867 386.293 261.309 382.467C262.902 378.24 266.501 374.947 270.69 371.147C271.975 369.947 273.314 368.733 274.646 367.453C271.95 366.613 267.962 368.813 265.201 369.08C262.959 369.267 261.485 369.253 260.159 368.733C257.133 371.787 254.489 375.08 252.905 379.293C251.383 383.347 251.533 388.027 252.261 392.867Z" fill="#A0182F"/>
<path d="M261.309 382.467C259.868 386.293 261.264 392.84 262.616 399.16C263.745 404.467 264.909 409.92 264.844 415.293C264.793 419.093 265.642 421.8 267.429 423.627C269.813 426.053 274.373 427.413 280.278 427.413C283.001 427.413 285.905 427.107 288.938 426.547C294.641 425.493 300.241 423.573 306.19 421.533C309.452 420.413 312.824 419.267 316.28 418.227C319.365 417.293 322.412 416.653 325.368 416C329.272 415.173 332.936 414.373 336.157 413.147C343.581 410.2 351.073 398.547 353.178 386.6C353.561 384.427 354.022 380.587 353.509 376.613C351.157 376.987 350.236 376.413 347.168 374.853C339.341 370.827 334.714 378.733 326.564 378.093C323.269 377.84 320.502 376.573 317.17 377.107C311.089 378.093 305.23 376.413 299.208 376.867C293.077 377.36 288.217 376.747 282.676 373.693C280.032 372.253 277.29 368.267 274.665 367.453H274.646C273.314 368.733 271.976 369.947 270.69 371.147C266.501 374.947 262.902 378.24 261.309 382.467Z" fill="#580E1F"/>
<path d="M332.397 333.627C331.979 331.627 330.227 330.333 326.069 327.613C323.47 325.933 320.476 323.96 317.774 321.253L311.389 322.733L309.731 322.493C309.198 322.413 308.607 322.32 308.003 322.227C307.19 322.08 306.314 321.947 305.482 321.853C305.348 324.173 305.009 327.133 303.385 330C300.618 334.867 296.278 337.413 293.129 339.307C291.829 340.067 290.626 340.773 289.88 341.427C288.638 342.493 288.022 343.453 287.378 345.2C290.848 346.293 294.408 346.973 298.052 346.707C306.412 346.053 314.63 342.053 322.594 339.773C325.718 338.893 329.102 338.307 332.545 338C332.61 336.307 332.618 334.747 332.397 333.627Z" fill="#580E1F"/>
<path d="M145.822 409.227C144.628 408.64 143.029 407.6 141.36 406.507C137.857 404.213 133.486 401.333 128.244 399.72C122.689 398 118.928 398.613 116.176 399.013C115.129 399.187 114.109 399.32 113.233 399.307C106.73 399.28 98.2329 393.267 94.8809 390.667C85.4089 383.333 77.7369 373.64 77.4449 368.613C77.3009 366.413 77.7169 364.307 78.1595 362.04C78.4649 360.307 78.8155 358.547 78.9515 356.627C79.0875 354.467 79.1075 352.293 79.1142 350.16C79.1275 346.32 79.1529 342.667 79.9382 339.44C80.3555 337.747 80.9662 336.227 81.7649 334.973C83.4862 332.213 85.9742 330.813 88.7289 330.973C90.7809 331.12 93.3342 332.2 96.5169 334.213C101.045 337.12 106.014 339.48 110.842 341.813C116.577 344.52 122.526 347.36 125.348 350.067C128.452 353.067 130.186 356.493 132.174 360.48C134.914 365.92 138.014 372.093 145.465 378.707L146.608 379.733C149.862 382.613 150.85 383.507 151.676 385.253C152.006 385.933 152.266 386.893 152.54 387.88C153.176 390.373 154.085 393.747 157.386 397.627C159.341 399.907 161.718 401.667 163.681 402.96L162.621 403.92L161.894 404.6L161.186 405.24L160.569 409C157.469 408.8 154.936 409.16 152.753 409.48C149.245 409.96 147.629 410.12 145.822 409.227ZM168.02 415.973L169.026 409.92C170.43 408.627 173.041 406.853 172.333 404.307L171.722 403.053C170.162 400.747 165.498 398.773 163.44 396.373C160.432 392.84 160.764 389.507 159.133 386.12C157.19 382.053 154.184 379.653 150.176 376.08C139.385 366.533 140.126 357.107 130.498 347.84C127.985 345.427 124.788 343.373 121.248 341.427C114.05 337.453 105.561 334.133 99.2582 330.093C83.0769 319.72 74.7942 325.667 72.2222 334.64L71.9875 335.507C70.6502 341.013 71.3129 347.333 70.9155 353.24C70.6369 357.467 69.1355 361.253 69.4022 365.707C69.6169 369.573 72.4302 374.747 76.7235 380.08L77.0942 380.56C87.0582 392.76 104.612 405.627 117.168 405.667C118.389 405.693 119.474 405.547 120.553 405.387C123.17 405 125.626 404.493 129.212 405.573C134.728 407.28 139.501 411.773 144.802 414.293L144.99 414.373C147.233 415.427 149.206 415.933 151 416.133C156.788 416.693 161.017 414.107 168.02 415.973Z" fill="#A0182F"/>
<path d="M161.186 405.24L161.894 404.6L162.621 403.92L163.681 402.96C161.718 401.667 159.341 399.907 157.386 397.627C154.085 393.747 153.175 390.373 152.539 387.88C152.266 386.893 152.006 385.933 151.675 385.253C150.85 383.507 149.862 382.613 146.607 379.733L145.465 378.707C138.014 372.093 134.914 365.92 132.174 360.48C130.186 356.493 128.451 353.067 125.347 350.067C122.526 347.36 116.577 344.52 110.842 341.813C106.014 339.48 101.045 337.12 96.5168 334.213C93.3341 332.2 90.7808 331.12 88.7288 330.973C85.9741 330.813 83.4861 332.213 81.7648 334.973C80.9661 336.227 80.3555 337.747 79.9381 339.44C79.1528 342.667 79.1274 346.32 79.1141 350.16C79.1074 352.293 79.0875 354.467 78.9515 356.627C78.8155 358.547 78.4648 360.307 78.1595 362.04C77.7168 364.307 77.3008 366.413 77.4448 368.613C77.7368 373.64 85.4088 383.333 94.8808 390.667C98.2328 393.267 106.73 399.28 113.233 399.307C114.109 399.32 115.129 399.187 116.175 399.013C118.927 398.613 122.689 398 128.243 399.72C133.486 401.333 137.857 404.213 141.359 406.507C143.029 407.6 144.627 408.64 145.822 409.227C147.629 410.12 149.245 409.96 152.753 409.48C154.935 409.16 157.469 408.8 160.569 409L161.186 405.24Z" fill="#580E1F"/>
<path d="M121.736 53.0533C124.196 47.0133 132.941 41.3733 136.597 39.2399C146.933 33.1733 158.782 29.6399 163.582 31.2399C165.641 31.9199 167.462 33.1332 169.41 34.3599C170.87 35.2932 172.385 36.2666 174.126 37.0932C176.069 38.0399 178.102 38.8533 180.07 39.6533C183.624 41.1199 187.001 42.4799 189.684 44.3999C191.133 45.4132 192.296 46.5466 193.173 47.7599H193.186C195.081 50.4132 195.478 53.2266 194.284 55.7066C193.386 57.5599 191.457 59.5599 188.385 61.7599C184.006 64.8532 179.96 68.5999 176.036 72.2266C171.353 76.5332 166.513 80.9999 162.933 82.5866C159.022 84.3866 155.17 84.6799 150.745 85.0666C144.673 85.5732 137.78 86.1466 128.881 90.6266L127.484 91.3066C123.632 93.2399 122.436 93.8399 120.488 93.9599C119.722 94.0132 118.753 93.8799 117.728 93.7733C115.168 93.4399 111.698 93.0532 106.878 94.6666C104.026 95.6132 101.545 97.1999 99.5835 98.5066L99.0769 97.1866L98.7449 96.2266L98.4022 95.3599L95.1595 93.3866C96.4768 90.5733 97.0769 88.1066 97.6022 85.9332C98.4542 82.4799 98.9409 80.9466 100.421 79.5999C101.41 78.6932 102.962 77.6132 104.605 76.4799C108.048 74.0799 112.342 71.0932 115.798 66.8132C119.416 62.3199 120.305 58.5999 120.936 55.9066C121.177 54.8533 121.405 53.8666 121.736 53.0533ZM114.381 54.3332C113.894 55.5466 113.589 56.7066 113.322 57.8266C112.738 60.3199 112.25 62.7066 109.99 65.5332C106.346 70.0532 100.421 72.7866 96.1022 76.7733C88.2795 83.9466 91.6195 90.0533 85.8822 97.7199L91.1315 100.88C91.9435 102.973 92.7035 106.747 96.5169 105.96C99.2329 105.36 102.786 101.76 105.806 100.747C110.204 99.2666 113.154 100.787 116.921 100.56C121.392 100.267 124.756 98.3866 129.564 95.9599C142.477 89.5199 150.922 93.7066 163.089 88.1999C172.73 83.8532 182.129 72.2932 191.19 65.8132C207.321 54.3199 204.236 44.1599 196.324 38.5066C191.717 35.2133 185.597 33.4666 180.272 30.9066C177.75 29.6933 175.613 28.0799 173.236 26.7199C172.009 26.0133 170.716 25.3599 169.253 24.8799C166.149 23.8132 161.542 24.1466 156.256 25.4399C147.596 27.5866 137.17 32.3999 128.75 38.4266C122.061 43.2132 116.629 48.7732 114.381 54.3332Z" fill="#F14264"/>
<path d="M104.605 76.4799C102.962 77.6132 101.41 78.6932 100.421 79.5999C98.9408 80.9466 98.4541 82.4799 97.6021 85.9332C97.0768 88.1066 96.4768 90.5733 95.1594 93.3866L98.4021 95.3599L98.7448 96.2266L99.0768 97.1866L99.5834 98.5066C101.545 97.1999 104.026 95.6132 106.878 94.6666C111.698 93.0532 115.167 93.4399 117.727 93.7733C118.753 93.8799 119.722 94.0132 120.487 93.9599C122.435 93.8399 123.631 93.2399 127.483 91.3066L128.881 90.6266C137.779 86.1466 144.673 85.5732 150.745 85.0666C155.17 84.6799 159.022 84.3866 162.933 82.5866C166.513 80.9999 171.353 76.5332 176.035 72.2266C179.959 68.5999 184.006 64.8532 188.385 61.7599C191.457 59.5599 193.386 57.5599 194.283 55.7066C195.478 53.2266 195.081 50.4132 193.186 47.7599H193.173C192.295 46.5466 191.133 45.4132 189.683 44.3999C187.001 42.4799 183.623 41.1199 180.07 39.6533C178.102 38.8533 176.069 38.0399 174.126 37.0932C172.385 36.2666 170.87 35.2932 169.41 34.3599C167.462 33.1332 165.641 31.9199 163.582 31.2399C158.782 29.6399 146.933 33.1733 136.597 39.2399C132.941 41.3733 124.195 47.0133 121.735 53.0533C121.405 53.8666 121.177 54.8533 120.935 55.9066C120.305 58.5999 119.415 62.3199 115.798 66.8132C112.342 71.0932 108.047 74.0799 104.605 76.4799Z" fill="#ED2A57"/>
<path d="M265.41 63.5999C273.249 62.0133 280.629 60.5333 288.086 59.96C292.042 59.64 295.824 59.5733 299.345 59.7999H299.35C306.99 60.2533 312.817 61.9599 315.773 64.5999C317.981 66.5199 318.917 69.3066 318.605 73.0933C318.177 78.44 319.358 84 320.502 89.3733C321.86 95.7866 323.269 102.453 321.184 106.147C318.857 110.24 313.973 113.24 308.342 116.707C300.592 121.453 291.816 126.853 287.405 136.427L286.736 137.92C284.845 142.08 284.189 143.333 281.649 144.84C280.649 145.4 279.037 146.053 277.329 146.707C273.12 148.333 267.345 150.533 263.472 155.187C261.193 157.92 260.55 160.8 260.244 163.147C259.18 162.987 258.056 162.76 257.004 162.6C256.224 162.413 255.476 162.28 254.782 162.147L252.65 161.8L244.297 162.76C240.965 159.827 237.184 157.627 233.936 155.747C228.706 152.733 226.536 151.307 226.121 149.28C225.842 147.907 226.036 146.053 226.264 144.04C226.705 139.853 227.27 134.68 224.197 129.16C220.982 123.373 215.304 120.133 211.146 117.773C209.542 116.867 208.048 116.027 206.982 115.187C199.214 109.147 201.208 98.8533 202.416 94.7466C205.872 82.9866 216.266 71.9466 226.108 69.6133C230.337 68.5999 235.149 68.1067 240.237 67.5867C244.094 67.1733 248.102 66.7466 252.157 66.0666C256.685 65.3466 261.133 64.4666 265.41 63.5999ZM222.34 60.9866C197.206 66.9866 177.133 104.587 198.85 121.413C203.818 125.293 210.588 127.187 213.524 132.467C216.721 138.28 213.389 144.493 214.629 150.413C216.845 161.08 233.025 162.973 239.106 172.493L252.585 170.933C257.6 171.787 265.837 173.92 269.768 170.6C272.528 168.227 270.885 163.12 273.314 160.213C274.373 158.947 275.796 157.987 277.349 157.147C280.973 155.2 285.444 154.067 288.878 152.04C294.764 148.627 296.006 144.867 298.397 139.68C304.8 125.813 324.704 122.64 331.884 109.973C337.548 99.9466 329.344 85.0133 330.228 73.9333C331.798 54.1733 308.42 49.2533 286.514 50.9867C282.117 51.3733 277.777 51.9733 273.504 52.72C265.41 54.1333 257.469 55.9466 249.345 57.2666C240.477 58.7733 231.02 58.96 222.34 60.9866Z" fill="#ED2A57"/>
<path d="M226.107 69.6133C216.266 71.9466 205.871 82.9866 202.415 94.7466C201.207 98.8533 199.214 109.147 206.982 115.187C208.047 116.027 209.542 116.867 211.146 117.773C215.303 120.133 220.982 123.373 224.197 129.16C227.27 134.68 226.705 139.853 226.263 144.04C226.035 146.053 225.842 147.907 226.121 149.28C226.535 151.307 228.706 152.733 233.935 155.747C237.183 157.627 240.965 159.827 244.297 162.76L252.65 161.8L254.782 162.147C255.475 162.28 256.223 162.413 257.003 162.6C258.055 162.76 259.179 162.987 260.243 163.147C260.55 160.8 261.193 157.92 263.471 155.187C267.345 150.533 273.119 148.333 277.329 146.707C279.037 146.053 280.649 145.4 281.649 144.84C284.189 143.333 284.845 142.08 286.735 137.92L287.405 136.427C291.815 126.853 300.591 121.453 308.342 116.707C313.973 113.24 318.857 110.24 321.183 106.147C323.269 102.453 321.859 95.7866 320.502 89.3733C319.358 84 318.177 78.4399 318.605 73.0933C318.917 69.3066 317.981 66.5199 315.773 64.5999C312.817 61.9599 306.99 60.2533 299.35 59.7999H299.345C295.823 59.5733 292.042 59.6399 288.086 59.9599C280.629 60.5333 273.249 62.0133 265.41 63.5999C261.133 64.4666 256.685 65.3466 252.157 66.0666C248.102 66.7466 244.094 67.1733 240.237 67.5866C235.149 68.1066 230.337 68.5999 226.107 69.6133Z" fill="#EB173D"/>
<path d="M189.157 255.173C187.202 255.44 185.331 255.987 183.253 256.147C179.342 256.453 176.243 254.787 173.209 253.44C167.397 257.36 161.815 262.147 158.574 269.16L157.899 270.627C156.009 274.813 155.346 276.067 152.818 277.587C151.818 278.147 150.193 278.787 148.493 279.413C144.282 281.04 138.522 283.28 134.642 287.92C132.355 290.653 131.719 293.547 131.402 295.88C130.349 295.72 129.225 295.48 128.173 295.32C127.386 295.16 126.646 295.013 125.951 294.88L123.813 294.533L115.459 295.48C112.121 292.56 108.359 290.36 105.091 288.467C99.8688 285.44 97.6981 284.027 97.2848 282C96.9981 280.64 97.1928 278.773 97.4261 276.76C97.8754 272.6 98.4141 267.4 95.3675 261.893C92.1514 256.093 86.4741 252.853 82.3168 250.52C80.7061 249.573 79.1915 248.747 78.1395 247.92C70.3701 241.893 72.3715 231.613 73.5928 227.467L73.7875 226.867C70.6168 224.533 66.4275 224.587 62.7048 223.72C58.9635 234.893 60.2955 246.587 70.0061 254.16C74.9955 258 81.7648 259.907 84.6808 265.2C87.6568 270.56 85.0195 276.293 85.5835 281.813L85.7861 283.133C87.9941 293.813 104.195 295.693 110.255 305.227L123.747 303.667C128.783 304.533 137.007 306.68 140.938 303.32C143.698 300.947 142.061 295.867 144.49 292.96C148.023 288.72 155.131 287.707 160.062 284.787C165.914 281.36 167.175 277.6 169.566 272.413L169.929 271.72C173.769 264.147 181.706 259.813 189.157 255.173Z" fill="#ED2A57"/>
<path d="M157.685 183.733C144.959 184.76 132.941 187.987 120.533 190.027C111.646 191.493 102.182 191.653 93.5021 193.733C92.1848 194.053 90.8848 194.467 89.5795 194.947C91.5795 197.533 93.7434 200.973 96.5888 202.533L97.2715 202.333C101.506 201.32 106.306 200.84 111.399 200.28C115.258 199.893 119.259 199.48 123.319 198.813C127.847 198.053 132.285 197.173 136.597 196.32C144.399 194.76 151.793 193.267 159.262 192.707C163.198 192.373 166.993 192.32 170.521 192.533C178.146 193 183.987 194.68 186.935 197.307C189.157 199.253 190.074 202.053 189.774 205.813C189.437 210.16 190.145 214.627 191.034 219.04C195.186 220.413 199.389 222.053 203.643 223.227C202.442 217.467 201.001 211.64 201.41 206.667C202.981 186.893 179.577 181.973 157.685 183.733Z" fill="#ED2A57"/>
<path d="M189.774 205.813C190.074 202.053 189.157 199.253 186.935 197.307C183.987 194.68 178.146 193 170.521 192.533C166.993 192.32 163.198 192.373 159.262 192.707C151.793 193.267 144.399 194.76 136.597 196.32C132.285 197.173 127.847 198.053 123.32 198.813C119.26 199.48 115.258 199.893 111.399 200.28C106.306 200.84 101.506 201.32 97.2715 202.333L96.5888 202.533L97.4848 202.987C102.63 204.933 107.703 201.427 112.763 203.88C117.87 206.373 121.17 211.413 125.71 214.64C130.654 218.16 138.345 218.76 144.282 219.347C150.902 220.013 155.539 218.133 161.738 216.853C169.818 215.187 179.367 215.587 187.202 217.827C188.482 218.2 189.755 218.613 191.034 219.04C190.145 214.627 189.437 210.16 189.774 205.813Z" fill="#EB173D"/>
<path d="M78.1394 247.92C79.1914 248.747 80.7061 249.573 82.3167 250.52C86.4741 252.853 92.1514 256.093 95.3674 261.893C98.4141 267.4 97.8754 272.6 97.4261 276.76C97.1927 278.773 96.9981 280.64 97.2848 282C97.6981 284.027 99.8687 285.44 105.091 288.467C108.359 290.36 112.121 292.56 115.459 295.48L123.813 294.533L125.951 294.88C126.646 295.013 127.386 295.16 128.173 295.32C129.225 295.48 130.349 295.72 131.402 295.88C131.719 293.547 132.355 290.653 134.642 287.92C138.522 283.28 144.282 281.04 148.493 279.413C150.193 278.787 151.818 278.147 152.818 277.587C155.346 276.067 156.009 274.813 157.899 270.627L158.574 269.16C161.815 262.147 167.397 257.36 173.209 253.44C169.915 251.96 166.706 250.813 162.629 252.92C158.977 254.787 158.378 255.213 154.729 254.373C151.526 253.64 150.271 253.44 146.763 254.107C144.75 254.52 141.517 255.68 139.487 254.827C137.091 253.773 136.533 250.227 133.779 249.427C129.529 248.173 123.039 251.973 118.571 249.333C116.577 248.173 116.689 245.44 114.439 244.387C112.186 243.373 108.295 244.747 105.813 244.453C102.974 244.12 99.5061 243.067 97.3287 241.093C95.8354 239.747 95.1207 236.107 93.5221 235.32C92.1514 234.653 89.1954 235.813 87.4287 235.547C85.3501 235.267 78.9781 234.053 77.4448 232.68C75.8794 231.32 76.1194 228.88 74.4301 227.387L73.7874 226.867L73.5928 227.467C72.3714 231.613 70.3701 241.893 78.1394 247.92Z" fill="#EB173D"/>
<path d="M468.67 261.68C467.566 265.253 464.506 268 463.175 271.507C461.869 274.987 463.117 278.32 462.025 281.747C460.362 286.973 455.855 286.973 451.69 289.36C443.446 294.12 446.271 304.693 435.657 307.187C429.513 308.627 425.233 311.027 421.055 315.867C418.605 318.707 416.033 323.52 412.33 324.907C408.835 326.293 405.354 325.067 401.905 324.933C400.293 324.867 398.662 325.04 397.058 325.827C391.946 328.32 388.638 333.347 384.091 336.587C379.154 340.08 371.465 340.707 365.519 341.293C358.907 341.96 354.269 340.067 348.065 338.8C346.083 338.373 344.005 338.12 341.894 337.96L341.549 337.947C338.586 337.707 335.539 337.747 332.545 338C329.102 338.307 325.718 338.893 322.594 339.773C314.63 342.053 306.411 346.053 298.051 346.707C294.408 346.973 290.847 346.293 287.378 345.2C284.521 344.32 281.706 343.213 278.92 342.187C278.107 341.867 277.29 341.56 276.485 341.293C269.457 338.867 262.589 339.04 255.339 340.107C248.681 341.067 246.167 342.373 240.359 338.68C234.221 334.787 228.206 331.12 220.974 330.453C216.551 330.04 212.823 329.227 209.743 326.707C208.859 325.973 208.009 325.107 207.223 324.067C203.546 319.107 198.778 316.973 193.446 313.4C196.629 318.853 200.501 323.88 204.799 328.493C207.145 331 209.608 333.427 212.186 335.72C214.077 337.387 215.889 338.293 217.526 339.747C218.631 339.867 219.826 339.613 221.858 340.04C225.399 340.76 226.867 343.293 229.577 345.507C232.649 348.053 235.053 348.107 238.834 348.96C242.998 349.853 244.146 351.053 246.902 354.133C249.551 357.08 251.183 357.413 255.307 357.053C258.086 356.773 262.07 354.56 264.793 355.44C267.422 356.267 270.15 360.213 272.795 361.667C278.342 364.72 283.182 365.307 289.307 364.853C295.35 364.4 301.209 366.053 307.289 365.08C310.615 364.56 313.382 365.827 316.67 366.053C324.834 366.707 329.459 358.827 337.295 362.84C340.958 364.72 341.549 365.16 345.206 364.307C348.397 363.56 349.657 363.36 353.157 364.027C355.171 364.427 358.394 365.613 360.433 364.72C362.843 363.693 363.402 360.147 366.149 359.32C370.391 358.08 376.881 361.893 381.35 359.253C383.345 358.08 383.241 355.347 385.482 354.32C387.743 353.293 391.633 354.68 394.109 354.373C396.947 354.053 400.417 353 402.599 351.013C404.079 349.667 404.814 346 406.399 345.227C407.77 344.547 410.739 345.747 412.506 345.467C414.558 345.173 420.93 343.96 422.49 342.6C424.037 341.253 423.808 338.827 425.498 337.307C430.436 332.867 438.438 335.64 442.889 330.6C445.141 328.053 444.523 324.347 447.578 322.493C450.722 320.573 454.275 321.227 457.407 318.4C460.454 315.64 461.986 312.067 462.875 308.12C463.662 304.72 463.727 301.667 465.175 298.493C466.625 295.293 468.45 292.747 469.099 289.2C469.813 285.133 468.975 281.307 468.905 277.28C468.847 273.88 469.969 271.547 470.834 268.307C472.68 261.267 469.285 253.213 468.969 245.893C466.917 249.453 469.886 257.84 468.67 261.68Z" fill="#FABB23"/>
<path d="M476.875 246.387C475.771 245.04 473.022 244.067 471.034 244.373L470.262 244.6L469.399 245.16L468.957 245.733C468.957 245.787 468.969 245.84 468.969 245.893C469.285 253.213 472.679 261.267 470.834 268.307C469.969 271.547 468.847 273.88 468.905 277.28C468.975 281.307 469.813 285.133 469.099 289.2C468.45 292.747 466.625 295.293 465.175 298.493C463.727 301.667 463.662 304.72 462.875 308.12C461.986 312.067 460.454 315.64 457.407 318.4C454.275 321.227 450.722 320.573 447.578 322.493C444.523 324.347 445.141 328.053 442.889 330.6C438.438 335.64 430.435 332.867 425.498 337.307C423.807 338.827 424.037 341.253 422.49 342.6C420.93 343.96 414.558 345.173 412.506 345.467C410.739 345.747 407.77 344.547 406.399 345.227C404.814 346 404.079 349.667 402.599 351.013C400.417 353 396.947 354.053 394.109 354.373C391.633 354.68 387.743 353.293 385.482 354.32C383.241 355.347 383.345 358.08 381.35 359.253C376.881 361.893 370.391 358.08 366.149 359.32C363.402 360.147 362.843 363.693 360.433 364.72C358.394 365.613 355.171 364.427 353.157 364.027C349.657 363.36 348.397 363.56 345.206 364.307C341.549 365.16 340.958 364.72 337.295 362.84C329.459 358.827 324.834 366.707 316.67 366.053C313.382 365.827 310.615 364.56 307.289 365.08C301.209 366.053 295.35 364.4 289.307 364.853C283.182 365.307 278.342 364.72 272.795 361.667C270.15 360.213 267.422 356.267 264.793 355.44C262.07 354.56 258.086 356.773 255.307 357.053C251.183 357.413 249.551 357.08 246.902 354.133C244.146 351.053 242.998 349.853 238.834 348.96C235.053 348.107 232.649 348.053 229.577 345.507C226.867 343.293 225.399 340.76 221.858 340.04C219.826 339.613 218.631 339.867 217.526 339.747L218.41 340.653L218.487 340.76L219.378 341.893C221.066 344.427 221.781 347.573 223.965 349.787C227.017 352.893 227.842 351.28 231.745 352.053C235.287 352.787 236.747 355.293 239.463 357.52C242.535 360.093 244.933 360.147 248.706 360.947C252.883 361.867 254.034 363.107 256.775 366.16C257.997 367.507 259.017 368.307 260.159 368.733C261.485 369.253 262.959 369.267 265.201 369.08C267.962 368.813 271.95 366.613 274.646 367.453H274.665C277.29 368.267 280.031 372.253 282.675 373.693C288.217 376.747 293.077 377.36 299.207 376.867C305.23 376.413 311.089 378.093 317.17 377.107C320.502 376.573 323.269 377.84 326.563 378.093C334.714 378.733 339.341 370.827 347.167 374.853C350.235 376.413 351.157 376.987 353.509 376.613L355.079 376.333C358.087 375.64 359.407 375.413 362.466 375.947L363.031 376.053C365.053 376.453 368.299 377.627 370.313 376.747C372.725 375.707 373.277 372.16 376.042 371.333C380.279 370.08 386.769 373.92 391.231 371.293C393.225 370.08 393.129 367.36 395.382 366.347C397.617 365.307 401.522 366.707 403.995 366.387C406.821 366.053 410.302 365.027 412.493 363.027C413.979 361.667 414.694 358.04 416.287 357.267C417.677 356.6 420.619 357.747 422.393 357.493C424.471 357.213 430.825 356 432.363 354.64C433.93 353.253 433.689 350.84 435.385 349.307C438.138 346.84 441.849 346.627 445.362 346.013C448.149 345.573 450.806 344.84 452.769 342.627C455.029 340.08 454.406 336.373 457.459 334.52C458.939 333.627 460.498 333.28 462.065 332.88C463.851 332.453 465.637 331.92 467.287 330.44C470.347 327.653 471.854 324.107 472.763 320.133C473.542 316.72 473.627 313.68 475.057 310.507C476.519 307.32 478.355 304.787 478.993 301.213C479.721 297.173 478.857 293.347 478.785 289.307C478.727 285.88 479.857 283.573 480.721 280.333C482.137 274.987 480.501 269.08 479.493 263.32C479.103 261.093 478.793 258.907 478.818 256.773C478.837 252.8 479.655 249.827 476.875 246.387Z" fill="#F68228"/>
<path d="M38.9809 146.373C39.8129 149.6 40.9635 151.933 40.9049 155.333C40.8329 159.333 39.9822 163.2 40.7089 167.253C41.3529 170.813 43.1715 173.333 44.6329 176.573C46.0689 179.72 46.1395 182.76 46.9382 186.187C47.8422 190.12 49.3422 193.707 52.3955 196.453C55.5395 199.293 59.0742 198.6 62.2369 200.56C65.2835 202.4 64.6662 206.107 66.9142 208.653C71.3582 213.707 79.3675 210.92 84.3182 215.36C86.0195 216.853 85.7729 219.293 87.3382 220.64C88.8835 222.027 95.2382 223.227 97.3102 223.533C99.0769 223.8 102.045 222.613 103.41 223.293C105.001 224.08 105.729 227.733 107.209 229.067C109.386 231.027 112.868 232.107 115.7 232.427C118.156 232.72 122.066 231.333 124.326 232.36C126.561 233.413 126.47 236.147 128.46 237.307C132.914 239.96 139.43 236.147 143.66 237.413C146.413 238.187 146.966 241.773 149.382 242.8C151.414 243.653 154.644 242.48 156.665 242.107C160.16 241.427 161.408 241.613 164.609 242.347C168.273 243.187 168.864 242.773 172.534 240.867C180.356 236.88 184.974 244.787 193.133 244.12C196.413 243.867 199.181 242.613 202.533 243.147C208.594 244.12 214.46 242.453 220.488 242.893C226.614 243.373 231.466 242.8 237.014 239.747C239.658 238.293 242.4 234.32 245.037 233.48C247.733 232.653 251.736 234.827 254.495 235.107C258.628 235.493 260.244 235.16 262.914 232.2C265.662 229.147 266.805 227.907 270.976 227C274.764 226.16 277.154 226.093 280.24 223.56C282.962 221.347 284.404 218.813 287.937 218.093C289.982 217.693 291.178 217.947 292.282 217.827C293.913 216.347 295.713 215.453 297.629 213.76C304.917 207.307 311.426 199.893 316.364 191.453C311.037 195 306.262 197.2 302.591 202.12C299.072 206.827 294.544 207.973 288.84 208.507C281.604 209.187 275.576 212.853 269.444 216.747C263.629 220.453 261.133 219.12 254.489 218.16C249.669 217.467 245.012 217.173 240.378 217.747C238.026 218.013 235.675 218.533 233.324 219.333C226.381 221.733 219.305 225.347 211.744 224.773C209.036 224.547 206.326 223.973 203.644 223.227C199.389 222.053 195.186 220.413 191.034 219.04C189.756 218.613 188.482 218.2 187.202 217.827C179.368 215.587 169.818 215.187 161.738 216.853C155.54 218.133 150.902 220.013 144.282 219.347C138.345 218.76 130.654 218.16 125.71 214.64C121.17 211.413 117.87 206.373 112.764 203.88C107.704 201.427 102.63 204.933 97.4849 202.987L96.5888 202.533C93.7435 200.973 91.5795 197.533 89.5795 194.947L88.7608 193.947C84.5902 189.067 80.3022 186.693 74.1449 185.227C63.5302 182.733 66.3622 172.173 58.1115 167.413C53.9675 165 49.4462 165 47.7969 159.8C46.6915 156.347 47.9462 153.04 46.6329 149.587C46.1395 148.28 45.4249 147.12 44.6462 145.933C43.3275 143.92 41.8529 142.013 41.1182 139.733C39.9822 136.027 42.7169 128.147 41.1182 124.32L40.8582 123.787C40.5995 131.16 37.1049 139.267 38.9809 146.373Z" fill="#FABB23"/>
<path d="M29.0875 158.387C29.9515 161.627 31.0822 163.96 31.0235 167.347C30.9462 171.36 30.0942 175.253 30.8222 179.293C31.3022 181.92 32.4208 183.987 33.5568 186.187C33.9528 186.947 34.3502 187.747 34.7528 188.56C36.2008 191.76 36.2662 194.8 37.0515 198.2C37.9555 202.16 39.4622 205.707 42.5222 208.493C45.6528 211.32 49.1928 210.667 52.3568 212.573C55.4035 214.427 54.7728 218.133 57.0408 220.68C58.5995 222.453 60.5808 223.227 62.7048 223.72C66.4275 224.587 70.6168 224.533 73.7875 226.867L74.4301 227.387C76.1195 228.88 75.8795 231.32 77.4448 232.68C78.9782 234.053 85.3501 235.267 87.4288 235.547C89.1955 235.813 92.1515 234.653 93.5221 235.32C95.1208 236.107 95.8355 239.747 97.3288 241.093C99.5061 243.067 102.974 244.12 105.813 244.453C108.295 244.747 112.186 243.373 114.439 244.387C116.689 245.44 116.577 248.173 118.571 249.333C123.039 251.973 129.529 248.173 133.779 249.427C136.533 250.227 137.091 253.773 139.488 254.827C141.517 255.68 144.75 254.52 146.763 254.107C150.271 253.44 151.526 253.64 154.729 254.373C158.378 255.213 158.977 254.787 162.629 252.92C166.706 250.813 169.915 251.96 173.209 253.44C176.243 254.787 179.342 256.453 183.253 256.147C185.332 255.987 187.202 255.44 189.157 255.173C190.274 255.027 191.405 254.987 192.638 255.173C194.594 255.48 196.543 255.507 198.466 255.44C202.514 255.28 206.527 254.627 210.614 254.933C216.746 255.387 221.599 254.787 227.133 251.76C229.771 250.307 232.52 246.36 235.149 245.52C237.846 244.653 241.841 246.853 244.607 247.133C248.741 247.52 250.357 247.16 253.026 244.213C255.787 241.16 256.938 239.92 261.089 239.04C264.875 238.187 267.273 238.133 270.346 235.573C273.074 233.373 274.517 230.827 278.063 230.147C281.961 229.32 282.805 230.96 285.839 227.853C288.027 225.64 288.747 222.493 290.431 219.987L291.321 218.8L291.399 218.72L292.282 217.827C291.178 217.947 289.982 217.693 287.937 218.093C284.403 218.813 282.962 221.347 280.239 223.56C277.154 226.093 274.763 226.16 270.975 227C266.805 227.907 265.662 229.147 262.914 232.2C260.243 235.16 258.627 235.493 254.495 235.107C251.735 234.827 247.733 232.653 245.037 233.48C242.399 234.32 239.658 238.293 237.014 239.747C231.466 242.8 226.614 243.373 220.488 242.893C214.46 242.453 208.594 244.12 202.533 243.147C199.181 242.613 196.413 243.867 193.133 244.12C184.974 244.787 180.355 236.88 172.534 240.867C168.863 242.773 168.273 243.187 164.609 242.347C161.407 241.613 160.159 241.427 156.665 242.107C154.643 242.48 151.414 243.653 149.382 242.8C146.966 241.773 146.413 238.187 143.659 237.413C139.43 236.147 132.914 239.96 128.459 237.307C126.47 236.147 126.561 233.413 124.326 232.36C122.066 231.333 118.155 232.72 115.699 232.427C112.867 232.107 109.386 231.027 107.209 229.067C105.729 227.733 105.001 224.08 103.41 223.293C102.045 222.613 99.0768 223.8 97.3102 223.533C95.2382 223.227 88.8835 222.027 87.3382 220.64C85.7728 219.293 86.0195 216.853 84.3182 215.36C79.3675 210.92 71.3582 213.707 66.9142 208.653C64.6661 206.107 65.2835 202.4 62.2368 200.56C59.0742 198.6 55.5395 199.293 52.3955 196.453C49.3422 193.707 47.8422 190.12 46.9382 186.187C46.1395 182.76 46.0688 179.72 44.6328 176.573C43.1715 173.333 41.3528 170.813 40.7088 167.253C39.9822 163.2 40.8328 159.333 40.9048 155.333C40.9635 151.933 39.8128 149.6 38.9808 146.373C37.1048 139.267 40.5995 131.16 40.8582 123.787L40.4102 123.213L39.5462 122.64C37.5582 121.84 34.1742 122.947 32.9395 124.467C30.1528 127.867 30.9648 130.88 30.9968 134.813C31.0235 139.067 29.8155 143.64 29.0875 148.12C28.5102 151.653 28.2235 155.133 29.0875 158.387Z" fill="#F68228"/>
</svg>
