<svg width="411" height="483" viewBox="0 0 411 483" fill="none" xmlns="http://www.w3.org/2000/svg">
<path d="M210.399 92.0399H209.782C210.633 92.0399 211.482 92.04 212.327 92.0533C211.685 92.04 211.042 92.0399 210.399 92.0399Z" fill="#43BA3B"/>
<path d="M389.878 161.12C381.329 157.187 380.238 149.773 376.899 141.48C363.245 107.467 363.419 70.1066 333.798 44.2533C322.383 47.9999 354.747 102.693 343.73 107.387C333.869 111.6 318.675 109.973 301.753 106.213C331.446 121.453 356.917 144.027 375.977 172.533C392.775 197.627 403.435 225.573 407.626 254.587C407.178 228.32 406.443 194.013 406.826 185.64C407.041 180.947 408.237 175.84 409.203 170.72C406.034 163.733 396.763 164.293 389.878 161.12Z" fill="#43BA3B"/>
<path d="M249.315 87.9866C267.83 91.6533 285.421 97.8399 301.753 106.213C318.675 109.973 333.869 111.6 343.73 107.387C354.747 102.693 322.383 47.9999 333.798 44.2533C363.419 70.1066 363.245 107.467 376.899 141.48C380.238 149.773 381.329 157.187 389.878 161.12C396.763 164.293 406.034 163.733 409.203 170.72C409.341 170.08 409.451 169.44 409.569 168.827L409.633 168.427L409.893 166.787L409.97 166.253L410.186 164.733L410.263 164.12L410.394 162.693L410.458 162.013L410.517 160.627L410.542 159.96L410.517 158.6L410.503 157.907L410.373 156.52L410.315 155.933C410.243 155.293 410.133 154.627 409.99 153.987C407.938 144.52 397.459 145.573 389.878 142.08C381.329 138.12 380.238 130.733 376.899 122.44C363.245 88.4133 363.419 51.0399 333.798 25.2266C322.383 28.9199 312.075 35.8799 301.058 40.5866C272.741 52.6799 242.657 64.2399 212.017 68.0266C202.513 69.1999 145.586 88.2399 133.686 99.6799C157.883 89.5332 183.998 84.1466 210.399 84.1466C223.383 84.1466 236.479 85.4399 249.315 87.9866Z" fill="#9CD869"/>
<path d="M149.121 464.107L150.609 464.6L149.998 464.4L149.121 464.107Z" fill="#62C44B"/>
<path d="M153.473 465.533L153.999 465.693C153.941 465.68 153.875 465.653 153.818 465.64L153.473 465.533Z" fill="#62C44B"/>
<path d="M398.889 315.853L399.031 314.973L398.993 315.2L398.889 315.853Z" fill="#62C44B"/>
<path d="M151.785 464.973L152.05 465.093L151.927 465.027L151.785 464.973Z" fill="#62C44B"/>
<path d="M400.298 306.373L400.473 304.947L400.337 305.987L400.298 306.373Z" fill="#62C44B"/>
<path d="M400.766 302.16L400.935 300.413L400.771 302L400.766 302.16Z" fill="#62C44B"/>
<path d="M161.886 467.947C162.513 468.107 163.146 468.267 163.777 468.427C163.549 468.36 163.321 468.307 163.094 468.253C162.69 468.147 162.289 468.053 161.886 467.947Z" fill="#62C44B"/>
<path d="M164.929 468.72C165.007 468.733 165.081 468.747 165.159 468.773L165.007 468.733L164.929 468.72Z" fill="#62C44B"/>
<path d="M156.545 466.44L155.214 466.067C156.026 466.307 156.851 466.56 157.657 466.787L157.077 466.6C156.897 466.547 156.725 466.493 156.545 466.44Z" fill="#62C44B"/>
<path d="M271.183 132.427C277.425 141.48 280.887 151.893 281.837 163.04C282.367 159.987 282.713 156.773 282.771 153.387C282.959 142.68 278.042 132.827 277.931 122.427C277.807 111.96 288.467 115.693 295.087 118.693C302.375 121.973 308.463 128.2 310.827 136.053C317.167 157.067 309.99 183.973 303.345 204C290.858 241.693 264.498 270.227 231.569 288.347C227.282 294.973 223.637 301.867 221.436 309.053C218.188 319.6 221.773 325.933 228.483 329.507C278.042 303.64 315.862 256.333 327.581 197.24C331.871 175.667 332.302 154.213 329.419 133.587C306.339 115.2 278.717 101.853 247.783 95.6932C246.198 95.3999 244.613 95.0799 243.015 94.8266L241.235 94.5466C240.242 94.3599 239.247 94.2265 238.246 94.0665C237.566 93.9599 236.889 93.8799 236.214 93.7999C235.31 93.6665 234.389 93.5466 233.479 93.4132C232.777 93.3466 232.077 93.2799 231.367 93.1999C230.485 93.1065 229.607 92.9866 228.725 92.8932C228.017 92.8399 227.295 92.7732 226.579 92.7332C225.703 92.6399 224.833 92.5732 223.969 92.5066C223.241 92.4799 222.539 92.4266 221.818 92.3732C220.954 92.3466 220.097 92.2799 219.245 92.2266C218.511 92.1866 217.791 92.1732 217.077 92.1466C216.211 92.1199 215.367 92.0799 214.523 92.0533C213.795 92.0533 213.055 92.0533 212.327 92.0533C211.482 92.0399 210.633 92.0399 209.782 92.0399L208.014 92.0533C207.111 92.0533 206.195 92.0799 205.293 92.0932C204.662 92.1066 204.038 92.1466 203.414 92.1732C202.55 92.1866 201.681 92.2265 200.798 92.2799C200.167 92.3065 199.53 92.3466 198.887 92.3732L198.322 92.4266C197.653 92.4532 196.997 92.5065 196.321 92.5332C195.69 92.5865 195.061 92.6399 194.417 92.7066C193.541 92.7732 192.665 92.8532 191.806 92.9465C191.195 92.9866 190.585 93.0666 189.981 93.1199C188.967 93.2266 187.974 93.3466 186.966 93.4799L185.583 93.6665C184.167 93.8399 182.75 94.0265 181.355 94.2665C180.75 94.3599 180.146 94.4666 179.547 94.5599C178.697 94.6932 177.859 94.8266 177.009 94.9866C176.339 95.1199 175.683 95.2132 175.014 95.3599C174.241 95.5199 173.481 95.6532 172.722 95.8132C172.026 95.9599 171.331 96.0932 170.635 96.2399C169.902 96.3999 169.181 96.5732 168.441 96.7466C167.745 96.8799 167.037 97.0266 166.329 97.2266C165.607 97.3866 164.911 97.5599 164.198 97.7466C163.49 97.9066 162.782 98.0932 162.074 98.2799C161.378 98.4532 160.67 98.6665 159.969 98.8665C159.274 99.0399 158.553 99.2399 157.87 99.4665C157.157 99.6532 156.442 99.8532 155.734 100.067C155.053 100.28 154.383 100.48 153.701 100.68C152.389 101.08 151.109 101.52 149.815 101.947C149.102 102.2 148.386 102.44 147.686 102.693C147.035 102.92 146.379 103.16 145.723 103.373C145.003 103.653 144.299 103.92 143.578 104.173C142.943 104.44 142.306 104.64 141.67 104.933C140.962 105.173 140.247 105.467 139.531 105.747C138.914 105.987 138.285 106.267 137.675 106.507C136.947 106.813 136.245 107.107 135.519 107.413C134.927 107.667 134.315 107.933 133.711 108.2C132.998 108.533 132.283 108.827 131.587 109.16C130.977 109.427 130.386 109.707 129.789 109.987C129.086 110.307 128.378 110.64 127.67 110.987L125.957 111.853C125.326 112.147 124.709 112.453 124.078 112.76C120.519 118.387 116.629 125.227 113.438 132.413C174.591 93.5466 244.055 93.0666 271.183 132.427Z" fill="#62C44B"/>
<path d="M99.1914 438.467L98.7314 438.147C100.387 439.333 102.077 440.52 103.785 441.68C102.699 440.933 101.634 440.187 100.563 439.427L99.1914 438.467Z" fill="#62C44B"/>
<path d="M113.789 318.227C83.8674 319.133 58.2661 309.427 44.1434 288.947C38.1541 280.253 34.7114 270.28 33.6208 259.587C28.7554 254.2 26.2087 246.2 27.1834 234.267C27.4167 231.48 27.7674 228.747 28.2301 226.04L28.1834 226.187C27.9874 226.787 27.8128 227.373 27.6314 227.987C27.3781 228.867 27.1248 229.733 26.8648 230.627L26.3648 232.427C26.1048 233.333 25.8648 234.267 25.6234 235.173L25.1887 236.907C24.9354 237.907 24.7087 238.947 24.4661 239.947L24.1181 241.427C23.7861 242.907 23.454 244.44 23.142 245.973C18.8487 267.627 18.4781 289.147 21.4021 309.853C42.9527 326.973 68.5048 339.627 96.9514 346.213C101.271 337.12 107.935 327.44 113.789 318.227Z" fill="#62C44B"/>
<path d="M23.9488 324.293C23.0248 320.093 22.2928 315.853 21.6488 311.587C22.2928 315.867 23.0248 320.107 23.9488 324.293Z" fill="#62C44B"/>
<path d="M27.4741 337.813L27.1887 336.947C27.7674 338.88 28.3781 340.853 29.0154 342.76C28.7087 341.867 28.4434 340.947 28.1568 340.027C27.9234 339.293 27.6887 338.56 27.4741 337.813Z" fill="#62C44B"/>
<path d="M76.8394 419.613L76.1567 418.987C77.7301 420.533 79.326 422.08 80.9447 423.587L79.7487 422.427C78.7741 421.507 77.794 420.573 76.8394 419.613Z" fill="#62C44B"/>
<path d="M81.1727 423.8L82.5554 425.04L81.9247 424.453L81.1727 423.8Z" fill="#62C44B"/>
<path d="M84.5768 426.827L83.3154 425.72C84.2634 426.573 85.2448 427.413 86.2128 428.267L85.4954 427.627L84.5768 426.827Z" fill="#62C44B"/>
<path d="M73.6754 416.467C74.3381 417.16 75.0141 417.84 75.6834 418.52L74.7354 417.507L73.6754 416.467Z" fill="#62C44B"/>
<path d="M71.9607 414.68C72.2954 415.027 72.6301 415.4 72.9621 415.747L72.0833 414.787L71.9607 414.68Z" fill="#62C44B"/>
<path d="M29.6193 344.52L29.1327 343.147C29.826 345.227 30.542 347.253 31.2887 349.28C30.99 348.493 30.7234 347.667 30.438 346.867C30.1714 346.093 29.878 345.307 29.6193 344.52Z" fill="#62C44B"/>
<path d="M48.7434 384.72L48.7901 384.813L48.7554 384.733L48.7434 384.72Z" fill="#62C44B"/>
<path d="M60.3394 401.24L61.0994 402.173L60.8527 401.853L60.3394 401.24Z" fill="#62C44B"/>
<path d="M44.4167 377.453C44.7061 377.973 44.9754 378.493 45.2688 379L45.1648 378.773L44.4167 377.453Z" fill="#62C44B"/>
<path d="M39.3234 367.893C40.014 369.267 40.7074 370.64 41.41 372.013L40.682 370.56C40.2207 369.653 39.758 368.8 39.3234 367.893Z" fill="#62C44B"/>
<path d="M33.8087 355.76C34.25 356.813 34.7061 357.88 35.1594 358.933L34.6461 357.667C34.3674 357.027 34.0687 356.4 33.8087 355.76Z" fill="#62C44B"/>
<path d="M32.0101 351.133C31.7821 350.507 31.5287 349.92 31.2887 349.307C32.0287 351.253 32.782 353.2 33.5753 355.16L32.9461 353.52C32.6327 352.747 32.3154 351.933 32.0101 351.133Z" fill="#62C44B"/>
<path d="M147.178 463.44L147.834 463.667L147.49 463.533L147.178 463.44Z" fill="#62C44B"/>
<path d="M126.138 454.613L126.943 455.013L126.417 454.747L126.138 454.613Z" fill="#62C44B"/>
<path d="M131.425 457.133L133.042 457.853L132.367 457.547L131.425 457.133Z" fill="#62C44B"/>
<path d="M127.45 455.267C128.061 455.573 128.678 455.853 129.289 456.133L128.717 455.853L127.45 455.267Z" fill="#62C44B"/>
<path d="M144.751 462.573L145.965 463.013L145.003 462.653L144.751 462.573Z" fill="#62C44B"/>
<path d="M140.222 460.867C140.857 461.12 141.501 461.387 142.163 461.6L141.305 461.267L140.222 460.867Z" fill="#62C44B"/>
<path d="M137.409 459.733L139.11 460.4L138.454 460.133L137.409 459.733Z" fill="#62C44B"/>
<path d="M134.323 458.4C134.693 458.56 135.053 458.707 135.417 458.867L135.233 458.773L134.323 458.4Z" fill="#62C44B"/>
<path d="M121.927 452.493L122.941 453.013L122.293 452.667L121.927 452.493Z" fill="#62C44B"/>
<path d="M94.1514 434.707L93.5527 434.267C94.4501 434.96 95.3727 435.64 96.2887 436.32L95.6194 435.8L94.1514 434.707Z" fill="#62C44B"/>
<path d="M90.6621 431.933L90.1461 431.533C91.0421 432.253 91.9221 432.987 92.8394 433.707L92.6248 433.533C91.9554 433 91.3048 432.493 90.6621 431.933Z" fill="#62C44B"/>
<path d="M104.506 442.147C105.974 443.12 107.455 444.08 108.935 445.027C107.689 444.227 106.462 443.44 105.245 442.613L104.506 442.147Z" fill="#62C44B"/>
<path d="M86.9928 428.947L87.5194 429.4L87.1888 429.093L86.9928 428.947Z" fill="#62C44B"/>
<path d="M117.298 449.987C118.211 450.493 119.147 451.013 120.089 451.507L118.381 450.573L117.298 449.987Z" fill="#62C44B"/>
<path d="M52.842 391.013C53.8887 392.52 54.9608 394.013 56.0314 395.507C55.1408 394.28 54.2781 393.067 53.4327 391.8L52.842 391.013Z" fill="#62C44B"/>
<path d="M401.707 286.427L401.714 285.973L401.707 286.053V286.427Z" fill="#62C44B"/>
<path d="M401.345 270.907C401.305 270.28 401.266 269.693 401.227 269.093L401.241 269.347L401.345 270.907Z" fill="#62C44B"/>
<path d="M401.474 272.867L401.41 271.773L401.449 272.467L401.474 272.867Z" fill="#62C44B"/>
<path d="M401.175 268.387L401.189 268.533L401.065 266.947L401.071 267.2L401.175 268.387Z" fill="#62C44B"/>
<path d="M400.103 258.213C400.086 258.08 400.071 257.947 400.051 257.827L400.077 258.013L400.103 258.213Z" fill="#62C44B"/>
<path d="M389.215 215.147C388.689 213.813 388.159 212.48 387.625 211.16C388.107 212.36 388.591 213.573 389.053 214.787L389.215 215.147Z" fill="#62C44B"/>
<path d="M399.434 253.427L399.251 252.347L399.285 252.653L399.434 253.427Z" fill="#62C44B"/>
<path d="M399.706 255.32C399.623 254.693 399.537 254.107 399.434 253.493L399.597 254.587L399.706 255.32Z" fill="#62C44B"/>
<path d="M396.913 240.4C396.621 239.187 396.315 237.96 396.011 236.72C396.263 237.68 396.471 238.613 396.693 239.573L396.913 240.4Z" fill="#62C44B"/>
<path d="M393.186 226.707L393.477 227.587C392.893 225.68 392.301 223.787 391.658 221.92L392.126 223.413C392.503 224.493 392.847 225.573 393.186 226.707Z" fill="#62C44B"/>
<path d="M395.198 233.573L395.077 233.133L395.146 233.4L395.198 233.573Z" fill="#62C44B"/>
<path d="M390.093 217.533C389.95 217.16 389.826 216.773 389.683 216.387L389.937 217.107C389.989 217.253 390.037 217.387 390.093 217.533Z" fill="#62C44B"/>
<path d="M400.531 261.68C400.499 261.4 400.469 261.133 400.441 260.853L400.447 260.947L400.531 261.68Z" fill="#62C44B"/>
<path d="M395.998 236.613C395.829 235.973 395.654 235.32 395.49 234.707L395.711 235.56L395.998 236.613Z" fill="#62C44B"/>
<path d="M398.147 246.267C397.985 245.453 397.81 244.667 397.643 243.867C397.777 244.507 397.919 245.16 398.045 245.787L398.147 246.267Z" fill="#62C44B"/>
<path d="M123.118 104.72L123.097 104.747L123.735 104.44L124.787 103.667L123.039 104.52V104.747L123.118 104.72Z" fill="#235C2B"/>
<path d="M90.7527 130.333C94.5993 126.693 98.4446 123.093 102.239 119.64L102.355 119.52C104.414 117.627 106.479 115.747 108.507 113.88C109.222 113.213 109.937 112.56 110.643 111.907L110.539 111.213C101.875 116.24 93.574 121.96 85.6993 128.307L87.2847 133.693C88.3567 132.613 89.4487 131.587 90.526 130.547L90.7527 130.333Z" fill="#235C2B"/>
<path d="M336.142 437.547C372.026 408.373 396.763 367.307 405.774 321.867C410.243 299.347 410.795 276.667 407.626 254.587C403.435 225.573 392.775 197.627 375.977 172.533C356.917 144.027 331.446 121.453 301.753 106.213C285.421 97.8399 267.83 91.6533 249.315 87.9866C236.479 85.44 223.383 84.1466 210.399 84.1466C183.998 84.1466 157.883 89.5333 133.686 99.6799C130.879 100.867 128.074 102.107 125.313 103.413L124.962 103.853L133.055 100.067C131.282 102.2 127.873 106.8 124.078 112.76C124.709 112.453 125.326 112.147 125.957 111.853L127.67 110.987C128.378 110.64 129.086 110.307 129.789 109.987C130.386 109.707 130.977 109.427 131.587 109.16C132.283 108.827 132.998 108.533 133.711 108.2C134.315 107.933 134.927 107.667 135.519 107.413C136.245 107.107 136.947 106.813 137.675 106.507C138.285 106.267 138.914 105.987 139.532 105.747C140.247 105.467 140.962 105.173 141.67 104.933C142.306 104.64 142.943 104.44 143.578 104.173C144.299 103.92 145.003 103.653 145.723 103.373C146.38 103.16 147.035 102.92 147.686 102.693C148.386 102.44 149.102 102.2 149.815 101.947C151.109 101.52 152.389 101.08 153.701 100.68C154.383 100.48 155.053 100.28 155.734 100.067C156.442 99.8532 157.157 99.6532 157.87 99.4666C158.553 99.2399 159.274 99.0399 159.969 98.8666C160.67 98.6666 161.378 98.4532 162.074 98.2799C162.782 98.0933 163.49 97.9066 164.198 97.7466C164.911 97.5599 165.607 97.3866 166.329 97.2266C167.037 97.0266 167.745 96.8799 168.441 96.7466C169.181 96.5732 169.902 96.4 170.635 96.24C171.331 96.0933 172.026 95.9599 172.722 95.8133C173.481 95.6533 174.241 95.5199 175.014 95.3599C175.683 95.2133 176.339 95.12 177.009 94.9866C177.859 94.8266 178.697 94.6933 179.547 94.5599C180.146 94.4666 180.75 94.3599 181.355 94.2666C182.75 94.0266 184.167 93.8399 185.583 93.6666L186.966 93.4799C187.974 93.3466 188.967 93.2266 189.981 93.12C190.585 93.0666 191.195 92.9866 191.806 92.9466C192.665 92.8532 193.541 92.7733 194.417 92.7066C195.061 92.64 195.69 92.5866 196.321 92.5332C196.997 92.5066 197.653 92.4533 198.322 92.4266L198.887 92.3733C199.53 92.3466 200.167 92.3066 200.798 92.2799C201.681 92.2266 202.55 92.1866 203.414 92.1733C204.038 92.1466 204.662 92.1066 205.293 92.0933C206.195 92.0799 207.111 92.0533 208.014 92.0533L209.782 92.0399H210.399C211.042 92.0399 211.685 92.0399 212.327 92.0533C213.055 92.0533 213.795 92.0533 214.523 92.0533C215.367 92.08 216.211 92.1199 217.077 92.1466C217.791 92.1732 218.511 92.1866 219.245 92.2266C220.097 92.2799 220.954 92.3466 221.818 92.3733C222.539 92.4266 223.241 92.4799 223.969 92.5066C224.833 92.5733 225.703 92.6399 226.579 92.7332C227.295 92.7733 228.017 92.8399 228.725 92.8933C229.608 92.9866 230.485 93.1066 231.367 93.1999C232.077 93.2799 232.777 93.3466 233.479 93.4133C234.389 93.5466 235.31 93.6666 236.214 93.7999C236.889 93.8799 237.566 93.9599 238.246 94.0666C239.247 94.2266 240.242 94.3599 241.236 94.5466L243.015 94.8266C244.613 95.0799 246.198 95.3999 247.783 95.6933C278.717 101.853 306.34 115.2 329.419 133.587C329.411 133.533 329.411 133.48 329.407 133.427C330.971 134.667 332.531 135.947 334.031 137.253L334.793 137.867C337.865 140.533 340.865 143.253 343.755 146.08L344.348 146.64C345.633 147.88 346.901 149.2 348.161 150.493L348.713 151.053C350.123 152.533 351.519 154.053 352.89 155.573L352.949 155.627C354.235 157.067 355.509 158.573 356.769 160.04L357.437 160.867C358.102 161.667 358.706 162.52 359.359 163.333C359.925 164.027 360.47 164.747 361.022 165.453C362.297 167.08 363.607 168.667 364.823 170.32L365.389 171.107C366.414 172.507 367.414 173.933 368.41 175.387L368.902 176.12C370.04 177.8 371.137 179.453 372.209 181.173L372.41 181.493C373.385 183.053 374.347 184.653 375.289 186.213L375.879 187.24C377.679 190.333 379.374 193.48 380.998 196.68V196.627L381.181 197.013L381.531 197.667L382.023 198.72L382.343 199.373C382.823 200.373 383.298 201.347 383.779 202.36L384.22 203.28L384.636 204.2L385.221 205.52C385.631 206.467 386.039 207.4 386.449 208.333L387.014 209.667L387.266 210.267L387.41 210.613C387.481 210.8 387.553 210.973 387.625 211.16C388.16 212.48 388.689 213.813 389.215 215.147L389.683 216.387C389.826 216.773 389.95 217.16 390.093 217.533C390.457 218.533 390.817 219.533 391.158 220.533L391.638 221.893L391.658 221.92C392.301 223.787 392.893 225.68 393.477 227.587L393.773 228.6C393.802 228.68 393.831 228.773 393.859 228.867V228.907L393.958 229.227C394.296 230.373 394.627 231.507 394.938 232.653L395.077 233.133L395.198 233.573L395.49 234.707C395.654 235.32 395.829 235.973 395.998 236.613L396.011 236.72C396.315 237.96 396.621 239.187 396.913 240.4L397.109 241.32L397.238 241.933C397.378 242.573 397.505 243.227 397.643 243.867C397.81 244.667 397.985 245.453 398.147 246.267L398.323 247.187L398.441 247.747C398.661 248.96 398.875 250.16 399.077 251.36L399.251 252.347L399.434 253.427V253.493C399.537 254.107 399.623 254.693 399.706 255.32L399.889 256.56L399.966 257.12L400.051 257.827C400.071 257.947 400.086 258.08 400.103 258.213L400.253 259.293L400.357 260.16L400.441 260.853C400.469 261.133 400.499 261.4 400.531 261.68L400.642 262.64L400.714 263.253L400.745 263.653L400.85 264.64L400.927 265.507L400.987 266.213L401.065 266.947L401.189 268.533L401.227 269.093C401.266 269.693 401.305 270.28 401.345 270.907L401.41 271.773L401.474 272.867L401.514 273.827L401.558 274.813L401.61 276.147C401.635 276.973 401.649 277.773 401.682 278.6L401.707 279.453L401.714 279.88V280.12V280.507V280.6C401.728 281.36 401.734 282.133 401.734 282.92C401.734 283.613 401.728 284.293 401.714 284.973V285.973L401.707 286.427V286.507L401.701 287.053L401.682 287.293C401.675 288.107 401.635 288.907 401.61 289.707L401.571 290.76L401.539 291.613L401.531 291.707L401.487 292.653L401.41 294.053C401.362 294.68 401.345 295.307 401.299 295.907L401.241 296.627L401.117 298.107L400.987 299.827L400.954 300.253L400.936 300.413L400.766 302.16L400.642 303.4L400.473 304.947L400.298 306.373L400.189 307.227L400.025 308.427L399.862 309.573L399.615 311.36L399.355 313.053L399.233 313.747L399.097 314.573L399.031 314.973L398.889 315.853C398.623 317.333 398.35 318.827 398.05 320.347C397.751 321.867 397.419 323.387 397.089 324.907L396.75 326.387C396.505 327.4 396.271 328.413 396.011 329.413L395.589 331.133C395.349 332.053 395.102 332.973 394.848 333.893C394.686 334.493 394.517 335.107 394.348 335.68C394.094 336.56 393.834 337.453 393.562 338.333C393.399 338.933 393.211 339.533 393.029 340.12C392.749 341.013 392.465 341.893 392.178 342.76L391.613 344.493C391.295 345.427 390.969 346.347 390.638 347.253L390.105 348.76C389.695 349.947 389.247 351.107 388.806 352.267L388.509 353C387.969 354.4 387.41 355.8 386.831 357.16L386.273 358.44C385.877 359.4 385.474 360.333 385.053 361.293L384.318 362.88C383.934 363.707 383.565 364.533 383.175 365.36L382.35 367.027C381.971 367.813 381.602 368.6 381.193 369.387L380.329 371.067C379.933 371.827 379.529 372.587 379.121 373.347L378.238 375C377.807 375.773 377.373 376.573 376.931 377.36L376.069 378.867C375.556 379.76 375.029 380.64 374.495 381.52L373.807 382.707C373.061 383.92 372.281 385.147 371.514 386.347L370.714 387.56C370.176 388.373 369.643 389.2 369.092 390.013L368.058 391.507C367.583 392.227 367.084 392.92 366.597 393.613L365.459 395.213C364.993 395.867 364.505 396.52 364.018 397.16L362.822 398.747C362.342 399.4 361.842 400 361.367 400.653L360.121 402.227C359.626 402.84 359.107 403.493 358.593 404.107L357.371 405.6C356.806 406.293 356.235 406.947 355.657 407.627L354.826 408.587C358.762 406.493 362.679 403.973 366.362 401.187L366.303 401.2C366.337 401.187 366.362 401.173 366.395 401.16C367.323 400.44 368.227 399.693 369.118 398.973L369.994 398.24C370.611 397.707 371.241 397.2 371.839 396.64L372.761 395.787L374.495 394.147L375.295 393.387C376.086 392.56 376.873 391.787 377.614 390.947C376.626 392.52 375.574 394.067 374.515 395.56L374.443 395.667L373.95 396.413L373.502 396.987L373.131 397.493L373.086 397.533L373.014 397.613C372.026 398.973 371.007 400.333 369.949 401.613L369.031 402.68C367.935 404 366.817 405.307 365.661 406.56L364.706 407.573C363.543 408.827 362.355 410.053 361.127 411.293L361.087 411.32C361.081 411.32 361.078 411.32 361.076 411.333C355.657 416.64 349.74 421.427 343.47 425.773L343.73 425.613L342.586 426.373C341.509 427.12 340.417 427.84 339.319 428.52C338.533 429.04 337.753 429.547 336.949 430.04C335.831 430.733 334.706 431.413 333.571 432.08C332.771 432.52 331.979 433 331.154 433.467C329.99 434.093 328.834 434.733 327.651 435.347C326.847 435.773 326.042 436.227 325.222 436.613C324.45 437 323.681 437.373 322.91 437.76V437.773C322.305 438.2 321.722 438.613 321.131 439.053L319.474 440.187C318.857 440.64 318.219 441.08 317.577 441.52L315.875 442.64C315.238 443.067 314.589 443.493 313.953 443.893L312.231 445.013C311.569 445.413 310.918 445.8 310.249 446.2L308.547 447.24C307.853 447.653 307.143 448.067 306.443 448.48L304.818 449.427C303.967 449.893 303.155 450.36 302.305 450.813L301.037 451.507C299.798 452.2 298.564 452.84 297.309 453.467L295.777 454.24C294.99 454.613 294.217 455.013 293.43 455.387L291.703 456.2C290.964 456.56 290.242 456.88 289.495 457.213C288.905 457.493 288.305 457.76 287.701 458.04C286.987 458.333 286.234 458.68 285.493 458.987L283.706 459.747C282.941 460.04 282.206 460.36 281.453 460.653C280.861 460.907 280.263 461.133 279.659 461.387C278.859 461.68 278.081 461.96 277.275 462.253L275.586 462.92C274.678 463.24 273.735 463.573 272.813 463.867L271.481 464.333C270.142 464.787 268.785 465.24 267.427 465.667L266.102 466.067C265.146 466.347 264.198 466.64 263.238 466.907L261.555 467.387C260.703 467.613 259.853 467.827 258.995 468.053L257.215 468.533C256.397 468.733 255.566 468.933 254.727 469.133C254.118 469.28 253.519 469.427 252.91 469.56C252.071 469.76 251.239 469.933 250.394 470.12L248.607 470.467C247.731 470.68 246.847 470.84 245.97 470.987L244.262 471.32C243.274 471.507 242.274 471.653 241.267 471.84L239.922 472.053C238.481 472.28 237.026 472.493 235.577 472.653L234.765 472.773C233.57 472.92 232.361 473.067 231.166 473.2L229.607 473.347C228.665 473.453 227.69 473.533 226.736 473.64L224.987 473.773C224.078 473.84 223.177 473.88 222.266 473.933C221.67 473.973 221.058 474.04 220.449 474.053C219.545 474.093 218.654 474.133 217.751 474.16C217.147 474.173 216.53 474.187 215.946 474.213C215.023 474.24 214.101 474.28 213.173 474.28L211.43 474.293H210.813C210.165 474.293 209.515 474.293 208.871 474.28C208.157 474.28 207.43 474.28 206.689 474.24C205.838 474.24 204.974 474.187 204.123 474.16C203.414 474.133 202.701 474.133 201.971 474.093C201.102 474.053 200.211 473.987 199.315 473.933C198.621 473.88 197.938 473.867 197.255 473.827C196.321 473.733 195.393 473.667 194.465 473.587C193.826 473.533 193.165 473.493 192.514 473.4C191.526 473.32 190.559 473.2 189.571 473.08C188.967 473.027 188.37 472.973 187.766 472.893C186.714 472.773 185.667 472.613 184.629 472.48L182.998 472.28C181.809 472.107 180.639 471.893 179.458 471.68L178.203 471.507C176.613 471.213 175.014 470.92 173.415 470.6C171.493 470.227 169.602 469.813 167.699 469.387L166.771 469.173L166.121 469L165.159 468.773C165.081 468.747 165.007 468.733 164.929 468.72L164.594 468.64C164.321 468.56 164.049 468.493 163.777 468.427C163.146 468.267 162.513 468.107 161.886 467.947L160.235 467.507L159.457 467.28L158.969 467.16L158.611 467.053L157.657 466.787C156.851 466.56 156.026 466.307 155.214 466.067L154.755 465.92C154.506 465.84 154.245 465.76 153.999 465.693L153.473 465.533L152.05 465.093L151.785 464.973H151.765L150.609 464.6L149.121 464.107L147.834 463.667L147.178 463.44L145.965 463.013L144.751 462.573L144.678 462.547L143.313 462.04L142.163 461.6C141.501 461.387 140.857 461.12 140.222 460.867L139.11 460.4L137.409 459.733L136.947 459.533L135.563 458.947L135.417 458.867C135.053 458.707 134.693 458.56 134.323 458.4L133.042 457.853L131.425 457.133L130.815 456.853L130.633 456.76L129.646 456.293L129.289 456.133C128.678 455.853 128.061 455.573 127.45 455.267L126.943 455.013L126.138 454.613L125.17 454.133C124.926 454.013 124.683 453.88 124.442 453.76C124.059 453.573 123.673 453.387 123.286 453.187L122.941 453.013L121.927 452.493L120.681 451.813L120.583 451.773L120.369 451.667L120.089 451.507C119.147 451.013 118.212 450.493 117.298 449.987L116.232 449.36L116.037 449.253L114.894 448.627L113.121 447.547L112.165 446.973L110.561 446.027L109.924 445.64L108.935 445.027C107.455 444.08 105.974 443.12 104.506 442.147L104.389 442.08H104.382L103.979 441.813L103.785 441.68C102.077 440.52 100.388 439.333 98.7315 438.147L98.2301 437.787L96.5608 436.533L96.2888 436.32C95.3728 435.64 94.4501 434.96 93.5528 434.267L92.8394 433.707C91.9221 432.987 91.0422 432.253 90.1462 431.533L89.2728 430.84L88.0381 429.827L87.5195 429.4L86.9928 428.947L86.2128 428.267C85.2448 427.413 84.2635 426.573 83.3155 425.72L82.5555 425.04L81.1728 423.8L80.9448 423.587C79.3261 422.08 77.7302 420.533 76.1568 418.987L75.6835 418.52C75.0141 417.84 74.3381 417.16 73.6754 416.467L72.9622 415.747C72.6302 415.4 72.2955 415.027 71.9608 414.68L71.9088 414.627C71.5768 414.267 71.2434 413.92 70.9088 413.547L70.5195 413.147L69.8941 412.467C68.9715 411.453 68.0635 410.44 67.1595 409.4C66.5235 408.693 65.9075 407.947 65.2635 407.213L64.6781 406.547L64.1075 405.867C63.5861 405.24 63.0861 404.587 62.5608 403.973L61.5275 402.707L61.0995 402.173L60.3394 401.24L60.2355 401.067C59.4875 400.133 58.7928 399.187 58.0661 398.213C57.5915 397.6 57.1048 396.973 56.6301 396.347L56.4021 396L56.0315 395.507C54.9608 394.013 53.8888 392.52 52.8421 391.013L52.6221 390.64L52.3555 390.28C51.1595 388.533 49.9981 386.733 48.8728 384.947L48.7902 384.813L48.7435 384.72L48.7168 384.68L48.4515 384.253C47.4902 382.72 46.5475 381.173 45.6262 379.587L45.2688 379C44.9755 378.493 44.7061 377.973 44.4168 377.453L44.1835 377.053C43.3568 375.613 42.5595 374.133 41.7608 372.667L41.5394 372.24L41.4102 372.013C40.7075 370.64 40.0142 369.267 39.3235 367.893L39.0195 367.253L38.6102 366.427C38.2328 365.64 37.8888 364.92 37.5368 364.133C36.8888 362.8 36.2715 361.413 35.6595 360.04L35.2448 359.147L35.1595 358.933C34.7062 357.88 34.2501 356.813 33.8088 355.76L33.5755 355.16C32.7821 353.2 32.0288 351.253 31.2888 349.307V349.28C30.5421 347.253 29.8261 345.227 29.1328 343.147L29.0155 342.76C28.3782 340.853 27.7675 338.88 27.1888 336.947L27.0661 336.507C26.7221 335.293 26.4168 334.093 26.0781 332.907C25.9155 332.28 25.7408 331.667 25.5848 331.053L25.3448 330.213L25.3902 330.267C24.8835 328.307 24.3968 326.32 23.9622 324.347L23.9488 324.293C23.0248 320.107 22.2928 315.867 21.6488 311.587C21.5582 310.987 21.4088 310.4 21.3235 309.8C21.3502 309.813 21.3755 309.84 21.4021 309.853C18.4781 289.147 18.8488 267.627 23.1421 245.973C23.4541 244.44 23.7862 242.907 24.1182 241.427L24.4661 239.947C24.7088 238.947 24.9355 237.907 25.1888 236.907L25.6235 235.173C25.8648 234.267 26.1048 233.333 26.3648 232.427L26.8648 230.627C27.1248 229.733 27.3782 228.867 27.6315 227.987C27.8128 227.373 27.9875 226.787 28.1835 226.187L28.2301 226.04C28.2328 226.027 28.2355 226.013 28.2355 226L28.2475 225.987C32.8341 198.747 48.6595 174.973 67.6861 153.8H67.6982C69.4715 151.827 71.2715 149.867 73.0715 147.947L73.4661 147.573C75.3448 145.587 77.2355 143.6 79.1515 141.68L76.3262 136.32C45.1702 164.853 23.6942 202.8 15.4315 244.427C5.08884 296.587 15.6781 349.613 45.2301 393.8C74.7741 437.973 119.765 467.987 171.883 478.333C184.739 480.88 197.829 482.16 210.813 482.16C256.189 482.16 300.693 466.32 336.142 437.547Z" fill="#235C2B"/>
<path d="M69.894 412.467L70.5194 413.147L70.9087 413.547C70.5714 413.2 70.2327 412.827 69.894 412.467Z" fill="#52BE37"/>
<path d="M149.998 464.4L150.609 464.6L151.765 464.973L151.063 464.733L149.998 464.4Z" fill="#52BE37"/>
<path d="M60.8527 401.853L61.0993 402.173L61.5273 402.707L62.5607 403.973C61.9887 403.24 61.4047 402.573 60.8527 401.853Z" fill="#52BE37"/>
<path d="M34.6461 357.667L35.1595 358.933L35.2448 359.147L35.6595 360.04C35.3155 359.253 34.9715 358.453 34.6461 357.667Z" fill="#52BE37"/>
<path d="M52.6221 390.64L52.8421 391.013L53.4327 391.8L52.6221 390.64Z" fill="#52BE37"/>
<path d="M40.682 370.56L41.41 372.013L41.5393 372.24L41.7607 372.667C41.4033 371.96 41.0393 371.253 40.682 370.56Z" fill="#52BE37"/>
<path d="M48.4514 384.253L48.7167 384.68L48.7434 384.72L48.7554 384.733L48.4514 384.253Z" fill="#52BE37"/>
<path d="M76.5221 419.307L75.8182 418.64L74.7355 417.507L75.6835 418.52L76.1568 418.987L76.8394 419.613L76.5221 419.307Z" fill="#52BE37"/>
<path d="M157.643 466.76C157.455 466.72 157.266 466.653 157.077 466.6L157.657 466.787L158.611 467.053L158.969 467.16L157.643 466.76Z" fill="#52BE37"/>
<path d="M400.189 307.227L400.298 306.373L400.337 305.987L400.189 307.227Z" fill="#52BE37"/>
<path d="M128.717 455.853L129.289 456.133L129.646 456.293L129.301 456.133L128.717 455.853Z" fill="#52BE37"/>
<path d="M122.293 452.667L122.941 453.013L123.286 453.187C123.673 453.387 124.059 453.573 124.442 453.76L123.514 453.293L122.293 452.667Z" fill="#52BE37"/>
<path d="M165.159 468.773L166.121 469L165.007 468.733L165.159 468.773Z" fill="#52BE37"/>
<path d="M117.966 450.32C117.315 449.987 116.659 449.627 116.037 449.253L116.231 449.36L117.298 449.987L118.381 450.573L117.966 450.32Z" fill="#52BE37"/>
<path d="M85.8155 427.893L85.4955 427.627L86.2128 428.267L86.9928 428.947L87.1888 429.093L85.8155 427.893Z" fill="#52BE37"/>
<path d="M104.499 442.12L104.389 442.08L104.506 442.147L105.245 442.613L104.499 442.12Z" fill="#52BE37"/>
<path d="M81.0994 423.68L80.0807 422.733L79.7488 422.427L80.9447 423.587L81.1727 423.8L81.9248 424.453L81.0994 423.68Z" fill="#52BE37"/>
<path d="M109.923 445.64L110.561 446.027L112.165 446.973C111.423 446.547 110.678 446.107 109.923 445.64Z" fill="#52BE37"/>
<path d="M27.5607 332.907C34.8807 346.24 43.7873 358.68 54.0633 369.947C70.006 382.467 88.1033 392.547 107.935 399.573C105.375 394.733 104.271 389.16 104.641 383.72C104.719 382.667 104.823 381.52 104.961 380.36C89.1553 372.76 90.2994 360.16 96.9514 346.213C68.5047 339.627 42.9527 326.973 21.402 309.853C21.3753 309.84 21.35 309.813 21.3234 309.8C21.4087 310.4 21.558 310.987 21.6487 311.587C22.2927 315.853 23.0247 320.093 23.9487 324.293L23.962 324.347C24.3967 326.32 24.8834 328.307 25.39 330.267C26.098 331.16 26.8393 332.04 27.5607 332.907Z" fill="#52BE37"/>
<path d="M183.693 393.613C179.763 389.2 170.565 389.267 165.411 388.853C156.118 388.107 146.75 387.947 137.461 387.253C138.597 388.04 139.779 388.72 141.014 389.373C155.597 396.907 169.375 397.387 183.693 393.613Z" fill="#52BE37"/>
<path d="M382.343 199.373L382.023 198.72L381.531 197.667L381.181 197.013C381.577 197.813 381.966 198.6 382.343 199.373Z" fill="#52BE37"/>
<path d="M400.441 260.853L400.357 260.16L400.447 260.947L400.441 260.853Z" fill="#52BE37"/>
<path d="M399.597 254.587L399.434 253.493V253.427L399.285 252.653C399.395 253.293 399.499 253.947 399.597 254.587Z" fill="#52BE37"/>
<path d="M327.581 197.24C315.862 256.333 278.042 303.64 228.483 329.507C234.122 332.547 241.989 333.587 249.829 333.533C258.905 322.653 268.745 312.48 280.101 303.533C295.769 291.2 326.807 269.32 347.998 280.733C349.545 281.56 350.895 282.533 352.083 283.56C355.131 274.92 357.619 266 359.451 256.747C366.499 221.16 363.173 185.947 351.565 154.2C354.266 157.147 356.853 160.213 359.359 163.333C358.706 162.52 358.102 161.667 357.437 160.867L356.769 160.04C355.509 158.573 354.235 157.067 352.949 155.627L352.89 155.573C351.519 154.053 350.123 152.533 348.713 151.053L348.161 150.493C346.901 149.2 345.633 147.88 344.347 146.64L343.755 146.08C340.865 143.253 337.865 140.533 334.793 137.867L334.031 137.253C332.531 135.947 330.971 134.667 329.407 133.427C329.411 133.48 329.411 133.533 329.419 133.587C332.302 154.213 331.871 175.667 327.581 197.24Z" fill="#52BE37"/>
<path d="M380.998 196.68C379.374 193.48 377.679 190.333 375.879 187.24L375.289 186.213C374.347 184.653 373.385 183.053 372.41 181.493L372.209 181.173C371.137 179.453 370.039 177.8 368.902 176.12L368.41 175.387C367.414 173.933 366.414 172.507 365.389 171.107L364.823 170.32C363.607 168.667 362.297 167.08 361.022 165.453C368.669 175.24 375.395 185.733 381.03 196.813L380.998 196.68Z" fill="#52BE37"/>
<path d="M401.065 266.947L400.987 266.213L401.071 267.2L401.065 266.947Z" fill="#52BE37"/>
<path d="M392.126 223.413L391.658 221.92L391.638 221.893L391.158 220.533C391.49 221.493 391.821 222.44 392.126 223.413Z" fill="#52BE37"/>
<path d="M393.773 228.6L393.477 227.587L393.186 226.707C393.383 227.32 393.578 227.96 393.773 228.6Z" fill="#52BE37"/>
<path d="M401.501 273.587L401.514 273.827L401.474 272.867L401.449 272.467L401.501 273.587Z" fill="#52BE37"/>
<path d="M401.701 286.467V287.053L401.707 286.507V286.053L401.701 286.467Z" fill="#52BE37"/>
<path d="M397.238 241.933L397.109 241.32L396.913 240.4L396.693 239.573C396.867 240.347 397.057 241.147 397.238 241.933Z" fill="#52BE37"/>
<path d="M395.711 235.56L395.49 234.707L395.198 233.573L395.146 233.4C395.335 234.093 395.517 234.813 395.711 235.56Z" fill="#52BE37"/>
<path d="M389.937 217.107L389.683 216.387L389.215 215.147L389.053 214.787C389.358 215.573 389.657 216.32 389.937 217.107Z" fill="#52BE37"/>
<path d="M398.122 246.173L398.226 246.707L398.323 247.187L398.147 246.267L398.045 245.787L398.122 246.173Z" fill="#52BE37"/>
<path d="M387.41 210.613L387.266 210.267L387.014 209.667L386.449 208.333C386.766 209.093 387.091 209.84 387.41 210.613Z" fill="#52BE37"/>
<path d="M385.221 205.52L384.635 204.2L384.219 203.28L383.779 202.36C384.258 203.4 384.746 204.453 385.221 205.52Z" fill="#52BE37"/>
<path d="M399.233 313.747L399.355 313.053L399.239 313.693L399.233 313.747Z" fill="#52BE37"/>
<path d="M117.966 450.32L118.381 450.573L120.089 451.507L120.369 451.667L120.583 451.773C119.706 451.293 118.837 450.813 117.966 450.32Z" fill="#43BA3B"/>
<path d="M135.233 458.773L135.417 458.867L135.563 458.947L136.947 459.533L137.409 459.733L138.454 460.133C137.369 459.693 136.291 459.24 135.233 458.773Z" fill="#43BA3B"/>
<path d="M129.301 456.133L129.646 456.293L130.633 456.76L130.815 456.853L131.425 457.133L132.367 457.547C131.334 457.08 130.314 456.613 129.301 456.133Z" fill="#43BA3B"/>
<path d="M123.514 453.293L124.442 453.76C124.683 453.88 124.926 454.013 125.17 454.133L126.138 454.613L126.417 454.747C125.43 454.28 124.474 453.76 123.514 453.293Z" fill="#43BA3B"/>
<path d="M400.642 303.4L400.766 302.16L400.771 302L400.642 303.4Z" fill="#43BA3B"/>
<path d="M401.707 286.053L401.714 285.973V284.973L401.701 286.467L401.707 286.053Z" fill="#43BA3B"/>
<path d="M401.241 269.347L401.227 269.093L401.189 268.533L401.175 268.387L401.241 269.347Z" fill="#43BA3B"/>
<path d="M167.699 469.387C169.602 469.813 171.493 470.227 173.415 470.6C171.194 470.187 168.966 469.693 166.771 469.173L167.699 469.387Z" fill="#43BA3B"/>
<path d="M160.235 467.507L161.886 467.947C162.289 468.053 162.69 468.147 163.094 468.253C162.138 468 161.181 467.76 160.235 467.507Z" fill="#43BA3B"/>
<path d="M107.935 399.573C88.1034 392.547 70.006 382.467 54.0634 369.947C80.5994 399 116.329 420.187 157.883 428.44C161.717 429.173 165.542 429.827 169.362 430.32C149.681 426.453 126.385 419.8 112.451 405.813C110.599 403.973 109.118 401.84 107.935 399.573Z" fill="#43BA3B"/>
<path d="M359.451 256.747C357.619 266 355.131 274.92 352.083 283.56C360.418 290.893 360.29 303.133 356.995 315.32C363.991 322.96 356.333 340.587 347.946 355.733C364.641 333.467 376.738 307.267 382.523 278.147C388.046 250.333 387.201 222.72 381.03 196.813C375.395 185.733 368.669 175.24 361.022 165.453C360.47 164.747 359.925 164.027 359.359 163.333C356.853 160.213 354.266 157.147 351.565 154.2C363.173 185.947 366.499 221.16 359.451 256.747Z" fill="#43BA3B"/>
<path d="M154.755 465.92L155.214 466.067L156.545 466.44C155.949 466.267 155.351 466.093 154.755 465.92Z" fill="#43BA3B"/>
<path d="M151.063 464.733C149.861 464.36 148.679 463.96 147.49 463.533L147.834 463.667L149.121 464.107L149.998 464.4L151.063 464.733Z" fill="#43BA3B"/>
<path d="M141.305 461.267L142.163 461.6L143.313 462.04L144.678 462.547C143.541 462.12 142.41 461.693 141.305 461.267Z" fill="#43BA3B"/>
<path d="M399.031 314.973L399.097 314.573L398.993 315.2L399.031 314.973Z" fill="#43BA3B"/>
<path d="M381.03 196.813C387.201 222.72 388.046 250.333 382.523 278.147C376.738 307.267 364.641 333.467 347.946 355.733C342.373 365.773 336.487 374.72 334.402 378.853C330.077 387.453 316.641 415.613 337.643 414.2C342.925 413.84 348.907 411.693 354.826 408.587L355.657 407.627C356.235 406.947 356.806 406.293 357.371 405.6L358.593 404.107C359.107 403.493 359.626 402.84 360.121 402.227L361.367 400.653C361.842 400 362.342 399.4 362.822 398.747L364.018 397.16C364.505 396.52 364.993 395.867 365.459 395.213L366.597 393.613C367.083 392.92 367.583 392.227 368.058 391.507L369.091 390.013C369.643 389.2 370.175 388.373 370.714 387.56L371.514 386.347C372.281 385.147 373.061 383.92 373.807 382.707L374.495 381.52C375.029 380.64 375.555 379.76 376.069 378.867L376.931 377.36C377.373 376.573 377.807 375.773 378.238 375L379.121 373.347C379.529 372.587 379.933 371.827 380.329 371.067L381.193 369.387C381.602 368.6 381.971 367.813 382.35 367.027L383.175 365.36C383.565 364.533 383.934 363.707 384.318 362.88L385.053 361.293C385.474 360.333 385.877 359.4 386.273 358.44L386.831 357.16C387.41 355.8 387.969 354.4 388.509 353L388.806 352.267C389.247 351.107 389.695 349.947 390.105 348.76L390.638 347.253C390.969 346.347 391.295 345.427 391.613 344.493L392.178 342.76C392.465 341.893 392.749 341.013 393.029 340.12C393.211 339.533 393.399 338.933 393.562 338.333C393.834 337.453 394.094 336.56 394.347 335.68C394.517 335.107 394.686 334.493 394.847 333.893C395.102 332.973 395.349 332.053 395.589 331.133L396.011 329.413C396.271 328.413 396.505 327.4 396.75 326.387L397.089 324.907C397.419 323.387 397.751 321.867 398.05 320.347C398.35 318.827 398.623 317.333 398.889 315.853L398.993 315.2L399.097 314.573L399.233 313.747L399.239 313.693L399.355 313.053L399.615 311.36L399.862 309.573L400.025 308.427L400.189 307.227L400.337 305.987L400.473 304.947L400.642 303.4L400.771 302L400.935 300.413L400.954 300.253L400.987 299.827L401.117 298.107L401.241 296.627L401.299 295.907C401.345 295.307 401.362 294.68 401.41 294.053L401.487 292.653L401.531 291.707L401.539 291.613L401.571 290.76L401.61 289.707C401.635 288.907 401.675 288.107 401.682 287.293L401.701 287.053V286.467L401.714 284.973C401.727 284.293 401.734 283.613 401.734 282.92C401.734 282.133 401.727 281.36 401.714 280.6V280.507V280.12V279.88L401.707 279.453L401.682 278.6C401.649 277.773 401.635 276.973 401.61 276.147L401.558 274.813L401.514 273.827L401.501 273.587L401.449 272.467L401.41 271.773L401.345 270.907L401.241 269.347L401.175 268.387L401.071 267.2L400.987 266.213L400.927 265.507L400.85 264.64L400.745 263.653L400.714 263.253L400.642 262.64L400.531 261.68L400.447 260.947L400.357 260.16L400.253 259.293L400.103 258.213L400.077 258.013L400.051 257.827L399.966 257.12L399.889 256.56L399.706 255.32L399.597 254.587C399.499 253.947 399.395 253.293 399.285 252.653L399.251 252.347L399.077 251.36C398.875 250.16 398.661 248.96 398.441 247.747L398.323 247.187L398.226 246.707L398.122 246.173L398.045 245.787C397.919 245.16 397.777 244.507 397.643 243.867C397.505 243.227 397.378 242.573 397.238 241.933C397.057 241.147 396.867 240.347 396.693 239.573C396.471 238.613 396.263 237.68 396.011 236.72L395.998 236.613L395.711 235.56C395.517 234.813 395.335 234.093 395.146 233.4L395.077 233.133L394.938 232.653C394.627 231.507 394.295 230.373 393.958 229.227L393.859 228.907V228.867C393.831 228.773 393.802 228.68 393.773 228.6C393.578 227.96 393.383 227.32 393.186 226.707C392.847 225.573 392.503 224.493 392.126 223.413C391.821 222.44 391.49 221.493 391.158 220.533C390.817 219.533 390.457 218.533 390.093 217.533C390.037 217.387 389.989 217.253 389.937 217.107C389.657 216.32 389.358 215.573 389.053 214.787C388.591 213.573 388.107 212.36 387.625 211.16C387.553 210.973 387.481 210.8 387.41 210.613C387.091 209.84 386.766 209.093 386.449 208.333C386.039 207.4 385.631 206.467 385.221 205.52C384.746 204.453 384.258 203.4 383.779 202.36C383.298 201.347 382.823 200.373 382.343 199.373C381.966 198.6 381.577 197.813 381.181 197.013L380.998 196.627V196.68L381.03 196.813Z" fill="#235C2B"/>
<path d="M321.598 438.4C320.799 438.76 320.001 439.173 319.175 439.547C317.934 440.12 316.667 440.667 315.414 441.2C314.621 441.547 313.842 441.907 313.05 442.213C311.73 442.773 310.399 443.293 309.067 443.787C308.321 444.08 307.586 444.387 306.839 444.68C305.383 445.213 303.922 445.707 302.454 446.2C301.823 446.427 301.214 446.64 300.583 446.88C298.498 447.547 296.407 448.2 294.314 448.84C270.221 455.88 244.918 460.72 219.779 461.133C205.714 461.4 184.258 461.533 173.905 449.893C168.817 444.2 168.843 437.28 170.733 430.6L169.362 430.32C165.542 429.827 161.717 429.173 157.883 428.44C116.329 420.187 80.5994 399 54.0634 369.947C43.7874 358.68 34.8807 346.24 27.5607 332.907C26.8394 332.04 26.0981 331.16 25.3901 330.267L25.3447 330.213L25.5848 331.053C25.7408 331.667 25.9154 332.28 26.0781 332.907C26.4167 334.093 26.7221 335.293 27.0661 336.507L27.1887 336.947L27.4741 337.813C27.6888 338.56 27.9234 339.293 28.1568 340.027C28.4434 340.947 28.7088 341.867 29.0154 342.76L29.1327 343.147L29.6194 344.52C29.8781 345.307 30.1714 346.093 30.4381 346.867C30.7234 347.667 30.9901 348.493 31.2887 349.28V349.307C31.5287 349.92 31.7821 350.507 32.0101 351.133C32.3154 351.933 32.6328 352.747 32.9461 353.52L33.5754 355.16L33.8087 355.76C34.0687 356.4 34.3674 357.027 34.6461 357.667C34.9714 358.453 35.3154 359.253 35.6594 360.04C36.2714 361.413 36.8888 362.8 37.5368 364.133C37.8888 364.92 38.2328 365.64 38.6101 366.427L39.0194 367.253L39.3234 367.893C39.7581 368.8 40.2208 369.653 40.6821 370.56C41.0394 371.253 41.4034 371.96 41.7607 372.667C42.5594 374.133 43.3567 375.613 44.1834 377.053L44.4167 377.453L45.1648 378.773L45.2688 379L45.6261 379.587C46.5474 381.173 47.4901 382.72 48.4514 384.253L48.7554 384.733L48.7901 384.813L48.8727 384.947C49.9981 386.733 51.1594 388.533 52.3554 390.28L52.6221 390.64L53.4327 391.8C54.2781 393.067 55.1408 394.28 56.0314 395.507L56.4021 396L56.6301 396.347C57.1047 396.973 57.5914 397.6 58.0661 398.213C58.7927 399.187 59.4874 400.133 60.2354 401.067L60.3394 401.24L60.8527 401.853C61.4047 402.573 61.9887 403.24 62.5607 403.973C63.0861 404.587 63.5861 405.24 64.1074 405.867L64.6781 406.547L65.2634 407.213C65.9074 407.947 66.5234 408.693 67.1594 409.4C68.0634 410.44 68.9714 411.453 69.8941 412.467C70.2327 412.827 70.5714 413.2 70.9087 413.547C71.2434 413.92 71.5767 414.267 71.9087 414.627L71.9607 414.68L72.0834 414.787L72.9621 415.747L73.6754 416.467L74.7354 417.507L75.8181 418.64L76.5221 419.307L76.8394 419.613C77.7941 420.573 78.7741 421.507 79.7488 422.427L80.0807 422.733L81.0994 423.68L81.9247 424.453L82.5554 425.04L83.3154 425.72L84.5768 426.827L85.4954 427.627L85.8154 427.893L87.1887 429.093L87.5194 429.4L88.0381 429.827L89.2727 430.84L90.1461 431.533L90.6621 431.933C91.3048 432.493 91.9554 433 92.6247 433.533L92.8394 433.707L93.5527 434.267L94.1514 434.707L95.6194 435.8L96.2887 436.32L96.5607 436.533L98.2301 437.787L98.7315 438.147L99.1914 438.467L100.563 439.427C101.634 440.187 102.699 440.933 103.785 441.68L103.979 441.813L104.382 442.08H104.389L104.499 442.12L105.245 442.613C106.462 443.44 107.689 444.227 108.935 445.027L109.923 445.64C110.678 446.107 111.423 446.547 112.165 446.973L113.121 447.547L114.894 448.627L116.037 449.253C116.659 449.627 117.315 449.987 117.966 450.32C118.837 450.813 119.706 451.293 120.583 451.773L120.681 451.813L121.927 452.493L122.293 452.667L123.514 453.293C124.474 453.76 125.43 454.28 126.417 454.747L126.943 455.013L127.45 455.267L128.717 455.853L129.301 456.133C130.314 456.613 131.334 457.08 132.367 457.547L133.042 457.853L134.323 458.4L135.233 458.773C136.291 459.24 137.369 459.693 138.454 460.133L139.11 460.4L140.222 460.867L141.305 461.267C142.41 461.693 143.541 462.12 144.678 462.547L144.751 462.573L145.003 462.653L145.965 463.013L147.178 463.44L147.49 463.533C148.679 463.96 149.861 464.36 151.063 464.733L151.765 464.973H151.785L151.927 465.027L152.05 465.093L153.473 465.533L153.818 465.64C153.875 465.653 153.941 465.68 153.999 465.693C154.245 465.76 154.506 465.84 154.755 465.92C155.351 466.093 155.949 466.267 156.545 466.44C156.725 466.493 156.897 466.547 157.077 466.6C157.266 466.653 157.455 466.72 157.643 466.76L158.969 467.16L159.457 467.28L160.235 467.507C161.181 467.76 162.138 468 163.094 468.253C163.321 468.307 163.549 468.36 163.777 468.427C164.049 468.493 164.321 468.56 164.594 468.64L164.929 468.72L165.007 468.733L166.121 469L166.771 469.173C168.966 469.693 171.194 470.187 173.415 470.6C175.014 470.92 176.613 471.213 178.203 471.507L179.458 471.68C180.639 471.893 181.809 472.107 182.998 472.28L184.629 472.48C185.667 472.613 186.714 472.773 187.766 472.893C188.37 472.973 188.967 473.027 189.571 473.08C190.559 473.2 191.526 473.32 192.514 473.4C193.165 473.493 193.826 473.533 194.465 473.587C195.393 473.667 196.321 473.733 197.255 473.827C197.938 473.867 198.621 473.88 199.315 473.933C200.211 473.987 201.102 474.053 201.971 474.093C202.701 474.133 203.414 474.133 204.123 474.16C204.974 474.187 205.838 474.24 206.689 474.24C207.43 474.28 208.157 474.28 208.871 474.28C209.722 474.293 210.579 474.293 211.43 474.293L213.173 474.28C214.101 474.28 215.023 474.24 215.946 474.213C216.53 474.187 217.147 474.173 217.751 474.16C218.654 474.133 219.545 474.093 220.449 474.053C221.058 474.04 221.67 473.973 222.266 473.933C223.177 473.88 224.078 473.84 224.987 473.773L226.735 473.64C227.69 473.533 228.665 473.453 229.607 473.347L231.166 473.2C232.361 473.067 233.57 472.92 234.765 472.773L235.577 472.653C237.026 472.493 238.481 472.28 239.922 472.053L241.267 471.84C242.274 471.653 243.274 471.507 244.262 471.32L245.97 470.987C246.847 470.84 247.731 470.68 248.607 470.467L250.394 470.12C251.239 469.933 252.071 469.76 252.91 469.56C253.519 469.427 254.118 469.28 254.727 469.133C255.566 468.933 256.397 468.733 257.215 468.533L258.995 468.053C259.853 467.827 260.703 467.613 261.555 467.387L263.238 466.907C264.198 466.64 265.146 466.347 266.102 466.067L267.427 465.667C268.785 465.24 270.142 464.787 271.481 464.333L272.813 463.867C273.735 463.573 274.678 463.24 275.586 462.92L277.275 462.253C278.081 461.96 278.859 461.68 279.659 461.387C280.263 461.133 280.861 460.907 281.453 460.653C282.206 460.36 282.941 460.04 283.706 459.747L285.493 458.987C286.234 458.68 286.987 458.333 287.701 458.04C288.305 457.76 288.905 457.493 289.495 457.213C290.242 456.88 290.963 456.56 291.703 456.2L293.43 455.387C294.217 455.013 294.99 454.613 295.777 454.24L297.309 453.467C298.563 452.84 299.798 452.2 301.037 451.507L302.305 450.813C303.155 450.36 303.967 449.893 304.818 449.427L306.443 448.48C307.143 448.067 307.853 447.653 308.547 447.24L310.249 446.2C310.918 445.8 311.569 445.413 312.231 445.013L313.953 443.893C314.589 443.493 315.238 443.067 315.875 442.64L317.577 441.52C318.219 441.08 318.857 440.64 319.474 440.187L321.131 439.053C321.722 438.613 322.305 438.2 322.91 437.773L321.598 438.4Z" fill="#235C2B"/>
<path d="M113.789 318.227C115.75 315.133 117.615 312.093 119.285 309.08C107.201 306.907 95.7434 302.373 91.0594 293.347C74.5661 290.067 60.8527 282.16 52.1407 269.533L51.738 268.88C44.3914 267.267 38.0501 264.493 33.6207 259.587C34.7114 270.28 38.1541 280.253 44.1434 288.947C58.2661 309.427 83.8674 319.133 113.789 318.227Z" fill="#95D662"/>
<path d="M271.183 132.427C244.055 93.0666 174.591 93.5466 113.438 132.413L113.411 132.453C166.557 99.0666 226.638 98.8399 250.193 132.987C258.378 144.853 261.081 159.4 259.054 174.92C265.005 176.48 270.441 178.787 274.605 182.08C278.107 176.347 280.581 170.093 281.837 163.04C280.887 151.893 277.425 141.48 271.183 132.427Z" fill="#95D662"/>
<path d="M91.0594 293.347C89.6487 290.627 88.8447 287.507 88.8447 283.88C88.85 279.747 89.8701 275.787 91.6367 272.093C78.1901 271.16 63.6207 271.52 51.738 268.88L52.1407 269.533C60.8527 282.16 74.5661 290.067 91.0594 293.347Z" fill="#9CD869"/>
<path d="M250.193 132.987C226.638 98.8399 166.557 99.0666 113.411 132.453C111.534 136.72 109.891 141.08 108.709 145.36C110.657 143.867 112.645 142.373 114.725 140.96C153.895 113.947 199.901 112.693 217.471 138.2C223.974 147.64 225.657 159.4 223.227 171.84C233.238 171.507 247.166 171.773 259.054 174.92C261.081 159.4 258.378 144.853 250.193 132.987Z" fill="#9CD869"/>
<path d="M217.471 138.2C199.901 112.693 153.895 113.947 114.725 140.96C112.645 142.373 110.657 143.867 108.709 145.36C104.493 160.667 106.117 175.12 123.227 180.333C135.362 184.04 148.886 182.267 161.158 180.44C180.659 177.493 199.913 173.12 219.667 172.013C220.779 171.96 221.974 171.907 223.227 171.84C225.657 159.4 223.974 147.64 217.471 138.2Z" fill="#A5DC7A"/>
<path d="M281.837 124.32V123.493V124.32ZM303.345 204C309.99 183.973 317.167 157.067 310.827 136.053C308.463 128.2 302.375 121.973 295.087 118.693C288.467 115.693 277.807 111.96 277.931 122.427C278.042 132.827 282.959 142.68 282.771 153.387C282.713 156.773 282.367 159.987 281.837 163.04C280.581 170.093 278.107 176.347 274.605 182.08C277.879 184.653 280.349 187.853 281.686 191.813C294.99 173.973 300.471 153.827 297.335 133.773C298.622 135.333 299.506 137.16 300.149 139.28C305.657 157.547 298.57 182.973 292.755 200.507C284.823 224.413 270.397 245.107 251.323 261.373C244.951 270.027 237.631 278.96 231.569 288.347C264.498 270.227 290.858 241.693 303.345 204Z" fill="#62C44B"/>
<path d="M91.0594 293.347C95.7434 302.373 107.201 306.907 119.285 309.08C121.337 305.453 123.066 301.947 124.241 298.627C114.099 297.12 106.462 294.333 102.674 290.533C100.785 288.653 99.9901 286.667 99.9901 283.907C99.9901 281.307 100.785 277.773 103.701 273.453C99.8674 272.8 95.7994 272.373 91.6368 272.093C89.8701 275.787 88.8501 279.747 88.8447 283.88C88.8447 287.507 89.6488 290.627 91.0594 293.347Z" fill="#62C44B"/>
<path d="M292.755 200.507C298.57 182.973 305.657 157.547 300.149 139.28C299.506 137.16 298.622 135.333 297.335 133.773C300.471 153.827 294.99 173.973 281.686 191.813C282.894 195.387 283.174 199.56 282.225 204.453C278.581 223.253 265.582 240.827 254.962 256.267C253.805 257.973 252.577 259.64 251.323 261.373C270.397 245.107 284.823 224.413 292.755 200.507Z" fill="#9CD869"/>
<path d="M102.674 290.533C106.462 294.333 114.099 297.12 124.241 298.627C127.391 289.72 126.643 282.32 117.654 277.747C113.569 275.653 108.831 274.32 103.701 273.453C100.785 277.773 99.9901 281.307 99.9901 283.907C99.9901 286.667 100.785 288.653 102.674 290.533Z" fill="#9CD869"/>
<path d="M107.935 399.573C109.118 401.84 110.599 403.973 112.451 405.813C126.385 419.8 149.681 426.453 169.362 430.32L170.733 430.6C171.603 427.547 172.851 424.547 174.209 421.76L175.118 420.093C157.143 416.76 133.181 410.84 120.35 397.96C118.778 396.373 117.615 394.733 116.861 392.88C135.115 406.747 158.702 411.04 184.011 405C185.141 402.373 185.791 399.8 185.459 397.48C185.245 395.92 184.602 394.64 183.693 393.613C169.375 397.387 155.597 396.907 141.014 389.373C139.779 388.72 138.597 388.04 137.461 387.253C131.601 386.8 125.761 386.173 119.971 385.04C113.807 383.827 108.883 382.253 104.961 380.36C104.823 381.52 104.719 382.667 104.641 383.72C104.271 389.16 105.375 394.733 107.935 399.573Z" fill="#52BE37"/>
<path d="M352.083 283.56C350.895 282.533 349.545 281.56 347.998 280.733C326.807 269.32 295.769 291.2 280.101 303.533C268.745 312.48 258.905 322.653 249.829 333.533C255.514 333.467 261.173 332.88 265.985 331.973C272.391 325 279.329 318.347 286.993 312.28C320.935 285.56 336.479 287.213 342.723 290.56C345.153 291.867 346.517 293.52 347.29 296.067C348.381 299.733 348.095 304.907 346.563 311.067C349.602 311.36 352.41 312.093 354.774 313.467C355.643 313.987 356.358 314.613 356.995 315.32C360.29 303.133 360.418 290.893 352.083 283.56Z" fill="#52BE37"/>
<path d="M116.861 392.88C117.615 394.733 118.778 396.373 120.35 397.96C133.181 410.84 157.143 416.76 175.118 420.093C177.534 415.787 181.75 410.253 184.011 405C158.702 411.04 135.115 406.747 116.861 392.88Z" fill="#62C44B"/>
<path d="M347.29 296.067C346.517 293.52 345.153 291.867 342.723 290.56C336.479 287.213 320.935 285.56 286.993 312.28C279.329 318.347 272.391 325 265.985 331.973C268.662 331.493 271.097 330.933 273.105 330.333C288.071 325.933 302.389 319.68 317.506 315.733C325.067 313.733 336.962 310.147 346.563 311.067C348.095 304.907 348.381 299.733 347.29 296.067Z" fill="#62C44B"/>
<path d="M281.837 124.32V123.493" stroke="#52BE37" stroke-linecap="round" stroke-linejoin="round"/>
<path d="M87.2847 133.693L85.6994 128.307L82.5687 117.693C82.1861 117.853 81.7114 118.013 81.1074 118.093C79.8914 118.293 78.1047 118.2 76.7541 118.093L75.9047 116.12C73.8247 118.853 72.1101 121.813 70.1927 124.613L76.3261 136.32L79.1514 141.68C81.8474 138.973 84.5501 136.307 87.2847 133.693Z" fill="#235C2B"/>
<path d="M76.754 118.093C78.1047 118.2 79.8913 118.293 81.1073 118.093C81.7113 118.013 82.186 117.853 82.5686 117.693C83.822 117.107 84.238 116.147 85.622 114.947C89.0126 112.027 92.0393 110.08 96.0793 108.52C97.6073 107.907 99.1726 107.227 100.081 105.747L100.529 100.613C104.414 99.4665 105.655 97.8665 105.466 95.0799C103.909 96.0932 102.298 96.9999 100.529 97.7599C95.5673 99.8932 89.9353 101.347 84.426 101.467C83.926 102.08 83.1726 102.427 82.4326 102.707C80.2166 103.587 78.5606 104.627 76.702 106.267C75.7086 107.107 75.6313 107.733 74.222 107.987C73.558 108.093 72.5767 108.04 71.8367 107.973L71.3686 106.88C69.394 109.52 68.0366 112.48 65.5806 114.693C63.282 116.8 60.43 118.587 57.422 119.4C53.35 120.48 48.3206 118.547 48.2633 113.84C45.482 114.28 42.8127 115.36 40.318 113.48C38.9087 112.427 36.0433 107.973 38.81 106.867C36.758 105.227 33.9073 104.88 32.47 102.333C31.4833 100.56 31.438 98.0799 33.8806 97.7465C31.5033 95.9599 29.222 93.4399 30.482 90.1599C31.5687 87.3066 35.6806 87.5066 37.506 89.6266C35.8233 86.9466 34.2247 85.0132 36.57 82.2665C37.3433 81.3599 38.486 80.1866 39.8367 80.3866C40.9873 80.5466 41.91 81.9733 42.9166 82.5199C42.7273 81.0799 41.618 79.6799 41.6886 78.2399C41.7526 76.4666 43.574 75.1733 44.9567 74.3199C46.6127 73.3066 48.4313 72.7732 50.0686 73.0399C49.238 69.0399 49.542 64.5199 53.5313 64.3066C51.6287 61.2932 48.6726 59.1199 46.5606 56.3199C45.41 56.2933 44.222 56.4799 43.0393 56.8266C43.2473 57.6266 43.4166 58.4799 43.3913 59.3199C42.946 58.4799 42.4486 57.7999 41.9193 57.1999C40.8313 57.5732 39.75 58.1066 38.714 58.7732C36.1806 60.3066 32.8673 62.6932 32.7433 65.9465C32.6327 68.5465 34.646 71.1333 34.9913 73.7199C33.1526 72.7333 31.4646 70.1333 29.3726 69.8533C26.922 69.4933 24.8313 71.6132 23.4273 73.2665C19.154 78.3065 22.0513 81.7466 25.118 86.7066C21.798 82.8266 14.3007 82.4532 12.326 87.6266C10.026 93.6666 14.178 98.2399 18.5233 101.48C14.0807 102.107 14.158 106.613 15.9647 109.827C18.5687 114.48 23.7727 115.107 27.5007 118.093C22.8753 119.96 26.8966 126.947 29.5606 129.56C30.9646 129.293 32.3766 129.013 33.8086 128.787C33.8286 129.92 33.998 130.96 34.3153 131.933C37.6753 132.507 41.1753 131.387 44.7473 130.787C44.7873 134.56 46.586 137.373 49.2034 139.147C49.6327 139.08 50.0633 139.013 50.4847 138.92C55.9793 137.453 61.1833 134.173 65.3553 130.387C67.25 128.64 68.7847 126.68 70.1927 124.613C72.11 121.813 73.8246 118.853 75.9046 116.12L76.754 118.093Z" fill="#62C44B"/>
<path d="M79.9901 101.24L79.0794 101.04L78.5541 100.947L77.6834 100.68L77.1514 100.52L76.2807 100.227L75.8048 100.027C74.8128 99.6399 73.8835 99.1466 73.0008 98.5733L72.5768 98.3199L71.8621 97.8266L71.4341 97.4799L70.7848 96.8799L70.4021 96.5332L69.7981 95.9066L69.5768 95.6399L68.4461 94.1466L68.2634 93.8399L67.8554 93.0665L67.6541 92.6399L67.3154 91.8266L67.1727 91.3733L66.9328 90.5332L66.8608 90.1066C66.7381 89.3866 66.6661 88.6932 66.6914 87.9332V87.9066C66.7181 86.7466 66.9074 85.5866 67.3154 84.3466C65.6981 84.0532 64.0741 83.8799 62.4821 83.6399H62.4514C61.4821 83.5066 60.5261 83.3466 59.6048 83.1199L59.3781 83.0799L58.2008 82.7199L58.0208 82.6799L56.7727 82.1999L56.5527 82.0932L55.5648 81.6132L55.2981 81.4399L54.2061 80.6799L54.0501 80.5332L53.1807 79.7199L52.9141 79.4399L51.9781 78.2399C51.2834 77.1999 50.5114 75.1866 50.0688 73.0399C48.4314 72.7733 46.6128 73.3066 44.9568 74.3199C43.5741 75.1733 41.7528 76.4666 41.6888 78.2399C41.6181 79.6799 42.7274 81.0799 42.9167 82.5199C41.9101 81.9733 40.9875 80.5466 39.8368 80.3866C38.4861 80.1866 37.3435 81.3599 36.5701 82.2665C34.2248 85.0132 35.8234 86.9466 37.5061 89.6266C35.6807 87.5066 31.5688 87.3066 30.4821 90.1599C29.2221 93.4399 31.5034 95.9599 33.8807 97.7466C31.4381 98.0799 31.4835 100.56 32.4701 102.333C33.9075 104.88 36.7581 105.227 38.8101 106.867C36.0434 107.973 38.9088 112.427 40.3181 113.48C42.8128 115.36 45.4821 114.28 48.2634 113.84C48.3208 118.547 53.3501 120.48 57.4221 119.4C60.4301 118.587 63.2821 116.8 65.5807 114.693C68.0367 112.48 69.3941 109.52 71.3688 106.88L71.8368 107.973C72.5768 108.04 73.5581 108.093 74.2221 107.987C75.6314 107.733 75.7088 107.107 76.7021 106.267C78.5608 104.627 80.2168 103.587 82.4328 102.707C83.1728 102.427 83.9261 102.08 84.4261 101.467C83.4248 101.48 82.4074 101.48 81.4248 101.413L79.9901 101.24Z" fill="#9CD869"/>
<path d="M44.7474 130.787C41.1754 131.387 37.6754 132.507 34.3154 131.933L34.3554 132.027L35.1021 133.693L35.2768 134.027L35.7114 134.653L35.9714 135.013L36.4714 135.573L36.7848 135.88L37.3434 136.413L37.5634 136.6L38.9607 137.533L39.2061 137.693L39.9221 138.04L40.3247 138.227L41.0394 138.52L41.4874 138.653L42.2274 138.907L42.6368 139C43.5394 139.227 44.4821 139.333 45.4101 139.4L45.8594 139.427H46.6648L47.1648 139.4L47.9581 139.333L48.4181 139.293L49.2381 139.173C49.2248 139.173 49.2168 139.16 49.2034 139.147C46.5861 137.373 44.7874 134.56 44.7474 130.787Z" fill="#A5DC7A"/>
<path d="M27.5008 118.093C23.7728 115.107 18.5688 114.48 15.9648 109.827C14.1582 106.613 14.0808 102.107 18.5235 101.48C14.1782 98.2399 10.0262 93.6666 12.3262 87.6266C14.3008 82.4532 21.7981 82.8266 25.1181 86.7066C22.0515 81.7466 19.1541 78.3065 23.4275 73.2665C24.8315 71.6132 26.9221 69.4933 29.3728 69.8533C31.4648 70.1333 33.1528 72.7332 34.9915 73.7199C34.6461 71.1333 32.6328 68.5465 32.7435 65.9465C32.8675 62.6932 36.1808 60.3066 38.7141 58.7732C39.7501 58.1066 40.8315 57.5732 41.9195 57.1999C41.9288 57.1999 41.9381 57.1866 41.9488 57.1866L41.8181 57.0533L41.2088 56.3999L40.8768 56.1332L40.3968 55.7866L40.0195 55.5332L39.5448 55.2399L39.1488 55.0533L38.6408 54.8399L38.2328 54.6799L37.6808 54.5332L37.2848 54.4399L36.6928 54.3465L36.3101 54.3066L35.4848 54.2533H35.2768L34.3288 54.3465L33.9595 54.3866L33.3075 54.4799L32.8808 54.5999L32.2635 54.7465L31.8408 54.8932L31.2368 55.0799L30.8008 55.2132L30.1848 55.4799L29.7741 55.6399L29.0995 55.9999L28.7555 56.1599L27.7675 56.7199C25.2408 58.2799 21.9208 60.6665 21.7982 63.9332C21.6888 66.5199 23.6941 69.0799 24.0394 71.6665C22.2141 70.7065 20.5234 68.1332 18.4394 67.8132C15.9901 67.4399 13.8861 69.5866 12.4821 71.2399C8.22748 76.2932 11.1048 79.7199 14.1715 84.6399C10.8528 80.7732 3.36749 80.3865 1.38749 85.5999C-0.913847 91.6265 3.23811 96.2132 7.57811 99.4266C3.13411 100.067 3.21144 104.573 5.01144 107.787C7.63011 112.453 12.8262 113.08 16.5622 116.067C11.5142 118.08 16.7315 126.2 19.2982 128.133L20.4021 128.827L20.7061 129L21.6542 129.427L21.8301 129.48L22.9608 129.813L23.2408 129.867L24.1941 130.013L24.4275 130.053L25.5915 130.067H25.7474L26.8394 130L27.0342 129.947C27.8715 129.88 28.7301 129.733 29.5861 129.587C29.5795 129.573 29.5675 129.56 29.5608 129.56C26.8968 126.947 22.8755 119.96 27.5008 118.093Z" fill="#A5DC7A"/>
<path d="M44.2221 51.1866C44.0741 50.4 44.0261 49.5733 44.0661 48.7599C43.1368 49.8666 42.4741 51.1199 42.3568 52.6133V53.6266L42.4048 53.9332L42.5008 54.5999L42.5781 54.9733L42.7274 55.5733L43.0394 56.8266C44.2221 56.4799 45.4101 56.2933 46.5608 56.32C45.4634 54.8533 44.5861 53.2 44.2221 51.1866Z" fill="#A5DC7A"/>
<path d="M117.315 88.8399L117.129 86.3866C113.886 88.5732 110.957 91.0932 107.865 93.3866L110.539 111.213L110.643 111.907C111.658 110.987 112.671 110.04 113.659 109.133L123.039 104.747V104.52L123.695 90.5599C123.214 90.5999 122.669 90.5732 121.979 90.4399C120.583 90.2266 118.713 89.4532 117.315 88.8399Z" fill="#235C2B"/>
<path d="M108.131 34.7866C108.65 33.4666 108.313 31.9733 108.883 30.6533C109.767 28.6666 111.982 27.9599 114.003 27.7466C119.258 27.1866 120.85 30.6666 121.473 35.0799C123.227 32.7599 125.858 30.8533 129.086 31.5199C131.998 32.1466 133.154 35.4665 132.173 38.0665C134.198 38.5865 137.097 35.7733 138.875 37.5866C141.494 40.2266 137.623 44.5066 136.654 46.6399C139.41 47.0266 141.974 47.6399 142.787 50.6665C143.495 53.3732 141.922 56.3199 139.454 57.5066C143.683 58.1999 140.805 66.8666 137.714 65.8932C137.525 69.4799 136.882 70.9066 133.342 70.7066L132.023 73.6665C131.198 74.3332 130.133 74.4399 129.119 74.4665C126.417 74.5732 124.241 75.0799 121.642 76.1332C120.278 76.6932 119.954 77.3332 118.35 77.0665C117.595 76.9332 116.563 76.5066 115.802 76.1866L115.698 74.8266C112.613 76.8932 110.053 79.5732 106.591 81.0665C103.355 82.4532 99.6274 83.3199 96.0994 83.0533C91.326 82.6933 86.6607 78.7732 88.3567 73.6932C85.2194 73.1466 81.9581 73.3066 79.9567 70.3599C78.8341 68.7199 77.4234 62.8666 80.8074 62.7066C79.2101 60.1866 76.2807 58.7733 75.6834 55.5066C75.2794 53.2533 76.1567 50.5599 78.8994 51.1199C77.0087 48.3199 75.4941 44.7732 78.0794 41.6932C80.2954 39.0532 84.6287 40.8132 85.7901 43.7466C84.9981 40.2266 83.9981 37.5866 87.5314 35.5199C88.6941 34.8399 90.3567 33.9999 91.722 34.7199C92.8967 35.3199 93.3581 37.1865 94.2434 38.1332C94.5674 36.5332 93.9101 34.6266 94.5021 33.1066C95.2354 31.2133 97.6781 30.4932 99.4847 30.0932C103.434 29.2399 107.481 30.2533 108.131 34.7866ZM89.4741 16.5866C88.3887 19.3466 89.6034 22.8132 89.0194 25.7599C87.3954 24.0399 86.5581 20.6266 84.4261 19.5199C81.9247 18.2399 78.886 19.7466 76.7807 20.9999C70.33 24.7999 72.1554 29.5866 73.5967 35.9866C71.4794 30.6266 63.5994 27.4399 59.5527 32.2533C54.8434 37.8799 57.5914 44.3199 61.0527 49.3999C56.0647 48.4399 54.4474 53.2932 55.2007 57.3999C56.2661 63.3465 61.6047 65.9866 64.5034 70.5599C58.8567 70.8532 60.5914 79.9066 62.4821 83.6399C64.0741 83.8799 65.6981 84.0532 67.3154 84.3466C66.9074 85.5866 66.718 86.7466 66.6914 87.9066C70.0634 89.7732 74.222 89.8799 78.2994 90.5732C76.93 94.6799 77.8127 98.3332 79.9901 101.24L81.4247 101.413C82.4074 101.48 83.4247 101.48 84.4261 101.467C89.9354 101.347 95.5674 99.8932 100.529 97.7599C102.298 96.9999 103.909 96.0932 105.466 95.0799C106.273 94.5466 107.071 93.9733 107.865 93.3866C110.957 91.0933 113.886 88.5733 117.129 86.3866L117.315 88.8399C118.713 89.4532 120.583 90.2266 121.979 90.4399C122.669 90.5732 123.214 90.5999 123.695 90.5599C125.267 90.3999 126.074 89.5332 127.982 88.7466C132.705 86.8399 136.675 85.9065 141.591 85.7332C143.457 85.6665 145.378 85.5065 146.893 84.2665C147.431 83.8399 150.011 78.9332 149.297 78.8932C155.773 79.1999 156.91 76.6399 157.266 70.1199C162.899 71.8799 168.129 56.0933 160.423 54.8399C164.933 52.6399 167.802 47.2799 166.511 42.3732C165.037 36.7999 160.353 35.6933 155.351 35.0533C156.363 32.7599 159.099 29.1465 160.323 25.5999C159.574 25.7466 158.826 25.8132 158.137 25.6266C159.138 22.9999 158.91 19.9599 157.607 17.5999C154.414 16.8266 150.258 20.1866 147.159 19.4132C147.842 17.5999 147.831 15.6666 147.427 13.8266C143.858 14.7066 140.853 17.2799 138.635 20.1999C137.949 15.3465 136.597 11.1066 133.511 8.73322C131.225 9.98655 129.243 11.8666 127.665 13.9466C127.295 11.3066 126.709 8.83994 125.774 6.78661L125.033 6.83992C121.337 7.19992 117.315 8.51988 115.711 12.1332C114.646 14.5199 115.269 17.2533 114.329 19.6533C113.418 13.4933 109.078 10.8799 103.909 10.6266C103.817 11.5866 103.701 12.5466 103.343 13.4266C103.199 12.3999 102.933 11.4666 102.609 10.6132C101.277 10.6532 99.9194 10.7866 98.542 11.1066C95.2474 11.8399 90.8314 13.1599 89.4741 16.5866Z" fill="#44BA3B"/>
<path d="M94.502 33.1066C93.91 34.6266 94.5674 36.5332 94.2434 38.1332C93.358 37.1866 92.8967 35.3199 91.722 34.7199C90.3567 33.9999 88.694 34.8399 87.5314 35.5199C83.998 37.5866 84.998 40.2266 85.79 43.7466C84.6287 40.8132 80.2954 39.0532 78.0794 41.6932C75.494 44.7732 77.0087 48.3199 78.8993 51.1199C76.1567 50.5599 75.2793 53.2533 75.6833 55.5066C76.2807 58.7733 79.21 60.1866 80.8073 62.7066C77.4234 62.8666 78.834 68.7199 79.9567 70.3599C81.958 73.3066 85.2194 73.1466 88.3567 73.6932C86.6607 78.7732 91.326 82.6933 96.0993 83.0533C99.6273 83.3199 103.355 82.4532 106.591 81.0666C110.053 79.5732 112.613 76.8932 115.698 74.8266L115.802 76.1866C116.563 76.5066 117.595 76.9332 118.35 77.0666C119.954 77.3332 120.278 76.6932 121.642 76.1332C124.241 75.0799 126.417 74.5732 129.119 74.4666C130.133 74.4399 131.198 74.3332 132.023 73.6666L133.342 70.7066C136.882 70.9066 137.525 69.4799 137.714 65.8932C140.805 66.8666 143.683 58.1999 139.454 57.5066C141.922 56.3199 143.495 53.3732 142.787 50.6666C141.974 47.6399 139.41 47.0266 136.654 46.6399C137.623 44.5066 141.494 40.2266 138.875 37.5866C137.097 35.7733 134.198 38.5866 132.173 38.0666C133.154 35.4665 131.998 32.1466 129.086 31.5199C125.858 30.8533 123.227 32.7599 121.473 35.0799C120.85 30.6666 119.258 27.1866 114.003 27.7466C111.982 27.9599 109.767 28.6666 108.883 30.6533C108.313 31.9733 108.65 33.4666 108.131 34.7866C107.481 30.2533 103.434 29.2399 99.4847 30.0932C97.678 30.4932 95.2353 31.2133 94.502 33.1066Z" fill="#71C83D"/>
<path d="M158.137 25.6266C158.826 25.8133 159.574 25.7466 160.323 25.5999C160.353 25.5866 160.378 25.5999 160.405 25.5999C160.717 24.7333 160.925 23.84 160.975 22.9733L160.989 22.7599L160.982 22.1866L160.951 21.7333L160.873 21.24L160.735 20.7466L160.579 20.3066L160.261 19.72L160.105 19.4133L159.398 18.5333L158.853 18.0799L158.637 17.9599L158.313 17.7866L157.585 17.5466C157.594 17.5599 157.598 17.5866 157.607 17.5999C158.91 19.9599 159.138 22.9999 158.137 25.6266Z" fill="#77CB47"/>
<path d="M147.427 13.8266C147.47 13.8266 147.503 13.7999 147.542 13.7866L147.263 12.7733L147.178 12.5599L146.854 11.7999L146.725 11.5332L146.301 10.7866L146.19 10.6266L145.529 9.78661H145.522L144.782 9.06656L144.547 8.89325L143.917 8.4799L143.605 8.2799L142.923 7.95992L142.605 7.82658L141.526 7.5066L140.422 7.33322L140.045 7.31994L139.363 7.26656H138.987L138.323 7.29325L138.025 7.31994L137.298 7.39989L137.083 7.43993L136.303 7.59989L136.154 7.66656L135.342 7.91994L135.245 7.94657L134.402 8.2799L134.375 8.3066L133.511 8.73322C136.597 11.1066 137.949 15.3466 138.635 20.1999C140.853 17.2799 143.858 14.7066 147.427 13.8266Z" fill="#77CB47"/>
<path d="M66.8607 90.1066L66.9327 90.5332L67.1726 91.3733L67.3154 91.8266L67.654 92.6399L67.8553 93.0666L68.2633 93.8399L68.446 94.1466L69.5767 95.6399L69.798 95.9066L70.402 96.5332L70.7847 96.8799L71.434 97.4799L71.862 97.8266L72.5767 98.3199L73.0007 98.5733C73.8834 99.1466 74.8127 99.6399 75.8047 100.027L76.2807 100.227L77.1514 100.52L77.6833 100.68L78.554 100.947L79.0794 101.04L79.99 101.24C77.8127 98.3333 76.93 94.6799 78.2993 90.5733C74.222 89.8799 70.0633 89.7733 66.6913 87.9066V87.9332C66.666 88.6932 66.738 89.3866 66.8607 90.1066Z" fill="#77CB47"/>
<path d="M46.5608 56.32C48.6728 59.12 51.6288 61.2933 53.5315 64.3066C49.5421 64.52 49.2381 69.04 50.0688 73.04C50.5114 75.1866 51.2834 77.2 51.9781 78.24L52.9141 79.44L53.1808 79.72L54.0501 80.5332L54.2061 80.6799L55.2981 81.44L55.5648 81.6133L56.5528 82.0933L56.7728 82.1999L58.0208 82.6799L58.2008 82.72L59.3781 83.0799L59.6048 83.12C60.5261 83.3466 61.4821 83.5066 62.4515 83.64H62.4821C60.5915 79.9066 58.8568 70.8533 64.5035 70.5599C61.6048 65.9866 56.2661 63.3466 55.2008 57.3999C54.4475 53.2932 56.0648 48.4399 61.0528 49.3999C57.5914 44.3199 54.8434 37.88 59.5528 32.2533C63.5994 27.44 71.4794 30.6266 73.5968 35.9866C72.1554 29.5866 70.3301 24.7999 76.7808 20.9999C78.8861 19.7466 81.9248 18.24 84.4261 19.52C86.5581 20.6266 87.3954 24.0399 89.0194 25.7599C89.6034 22.8133 88.3888 19.3466 89.4741 16.5866C90.8315 13.16 95.2474 11.84 98.5421 11.1066C99.9194 10.7866 101.277 10.6533 102.609 10.6133L102.102 9.53325L101.867 9.13326L101.466 8.51997L101.167 8.13326L100.745 7.63996L100.401 7.29328L99.9248 6.86658L99.5634 6.55994L99.0168 6.19992L98.6274 5.9466L98.0035 5.61327L97.6515 5.43996L96.7101 5.09328L96.5941 5.03996L95.4821 4.7466L95.0994 4.66659L94.3194 4.53325L93.8581 4.45331L93.1181 4.41327L92.6315 4.38663H91.8968H91.3834L90.6048 4.42661L90.1235 4.45331L89.2661 4.58664L88.8501 4.63996L87.5714 4.86658C84.2768 5.58659 79.8475 6.93329 78.4955 10.3733C77.4101 13.1066 78.6328 16.5866 78.0341 19.52C76.4221 17.7866 75.5781 14.3866 73.4354 13.2799C70.9608 11.9999 67.9074 13.5199 65.8021 14.7466C59.3648 18.5733 61.1835 23.3199 62.6261 29.7599C60.5088 24.3733 52.6221 21.2 48.5688 26.04C43.8648 31.64 46.6261 38.0933 50.0754 43.1599C46.0474 42.3733 44.2088 45.4133 44.0661 48.7599C44.0261 49.5733 44.0741 50.4 44.2221 51.1866C44.5861 53.2 45.4634 54.8533 46.5608 56.32Z" fill="#77CB47"/>
<path d="M114.329 19.6533C115.269 17.2533 114.646 14.5199 115.711 12.1332C117.315 8.51987 121.337 7.19991 125.033 6.83991L125.774 6.78659L125.033 5.3599L124.957 5.22657C124.397 4.33323 123.747 3.53322 122.987 2.87989L122.799 2.70658L121.771 1.97325L121.479 1.79988C120.61 1.30654 119.629 0.946594 118.485 0.719927L118.011 0.653261L116.646 0.533209L116.102 0.50658C115.446 0.50658 114.782 0.519875 114.055 0.599874C110.358 0.986542 106.345 2.26655 104.727 5.87989L104.382 6.94655L104.293 7.31993L104.149 8.03991L104.102 8.47989L104.031 9.23991L103.909 10.6266C109.078 10.8799 113.418 13.4933 114.329 19.6533Z" fill="#77CB47"/>
<path d="M321.598 438.4L322.91 437.773V437.76C322.474 437.973 322.039 438.187 321.598 438.4Z" fill="#57C9F3"/>
<path d="M116.211 203.36C123.299 205.52 130.879 206.56 139.383 206.56C148.315 206.56 156.805 205.413 164.725 204.2C171.013 203.28 177.222 202.187 183.258 201.147C196.347 198.867 208.722 196.733 221.001 196.027C224.022 195.88 227.041 195.787 229.965 195.787C246.621 195.787 255.331 198.52 258.547 200.2C256.053 212.467 246.355 226.453 237.773 238.813C236.889 240.093 236.013 241.373 235.154 242.613C232.426 246.573 229.25 250.747 225.871 255.16C215.633 268.573 204.019 283.787 198.433 301.987C192.717 320.6 199.159 333.267 203.519 339.173C209.722 347.573 222.689 357.6 249.167 357.6C259.495 357.6 270.974 356.04 279.881 353.413C287.221 351.253 294.217 348.76 300.986 346.347C308.826 343.56 316.233 340.893 323.578 339C324.45 338.747 325.386 338.52 326.354 338.267C327.646 337.907 329.069 337.533 330.537 337.16C326.547 345.08 321.326 353.707 318.941 357.613C316.362 361.867 314.342 365.227 312.911 368.04C305.779 382.227 297.523 402.547 305.222 419.44C298.615 422.227 292.522 424.28 287.553 425.747C263.022 432.933 240.091 436.733 219.355 437.107C217.577 437.12 215.654 437.133 213.646 437.133C203.071 437.133 197.471 436.093 194.579 435.16C194.899 434.36 195.321 433.347 195.899 432.2C196.225 431.533 197.446 429.653 198.342 428.28C203.499 420.333 211.301 408.307 209.274 394.093C207.534 381.813 199.146 366.84 169.045 364.973C168.427 364.933 167.829 364.92 167.29 364.88C162.126 364.44 157.039 364.213 152.129 364C142.353 363.52 133.115 363.107 124.625 361.44C121.293 360.787 118.927 360.08 117.302 359.48C119.681 353.467 126.047 343.627 130.146 337.293C141.922 319.067 154.097 300.227 148.691 280.2C146.75 272.96 141.689 262.96 128.554 256.293C113.763 248.787 96.7234 248.12 80.2487 247.427C71.4927 247.093 55.3047 246.467 51.5807 243.573C51.3807 243.053 50.7767 240.973 51.1407 236.213C53.0767 212.587 66.7181 191.107 84.2767 171.307L84.706 172.867C89.1034 187.667 100.277 198.48 116.211 203.36ZM122.279 105.507C87.3167 137.56 45.3394 175.92 41.2994 225.547C36.9847 278.6 101.959 253.88 131.769 269.04C170.479 288.72 56.7007 361.12 134.095 376.32C149.055 379.267 164.381 378.973 179.529 380.16C185.875 380.64 198.401 380.44 199.582 388.787C200.647 396.32 191.383 406.72 188.338 413.067C184.037 422 180.614 432.893 188.014 441.213C198.387 452.84 219.831 452.693 233.894 452.44C259.054 452 284.343 447.173 308.437 440.12C320.351 436.613 332.251 431.853 343.47 425.773C349.739 421.427 355.657 416.64 361.075 411.333L361.042 411.347L361.087 411.32C364.263 407.56 367.217 403.573 369.883 399.373L369.67 399.507C359.269 410.653 342.782 421.387 330.129 422.28C309.113 423.693 322.553 395.547 326.899 386.947C332.394 375.987 364.381 331.613 347.258 321.547C337.415 315.76 319.941 321.2 309.99 323.8C294.873 327.733 280.555 334.027 265.595 338.413C249.063 343.267 204.857 346.627 213.907 317.107C219.837 297.813 236.193 280.68 247.438 264.36C258.066 248.933 271.066 231.347 274.709 212.533C281.042 179.84 233.375 178.907 212.146 180.093C192.398 181.173 173.149 185.573 153.641 188.507C141.37 190.347 127.847 192.12 115.711 188.413C77.93 176.88 115.698 115.627 124.962 103.853L123.735 104.44L122.279 105.507Z" fill="#57C9F3"/>
<path d="M84.7061 172.867L84.2768 171.307C66.7181 191.107 53.0768 212.587 51.1408 236.213C50.7768 240.973 51.3808 243.053 51.5808 243.573C55.3048 246.467 71.4928 247.093 80.2488 247.427C96.7235 248.12 113.763 248.787 128.554 256.293C141.689 262.96 146.75 272.96 148.691 280.2C154.097 300.227 141.922 319.067 130.146 337.293C126.047 343.627 119.681 353.467 117.302 359.48C118.927 360.08 121.293 360.787 124.625 361.44C133.115 363.107 142.353 363.52 152.129 364C157.039 364.213 162.126 364.44 167.29 364.88C167.829 364.92 168.427 364.933 169.045 364.973C199.146 366.84 207.534 381.813 209.274 394.093C211.301 408.307 203.499 420.333 198.342 428.28C197.446 429.653 196.225 431.533 195.899 432.2C195.321 433.347 194.899 434.36 194.579 435.16C197.471 436.093 203.071 437.133 213.646 437.133C215.654 437.133 217.577 437.12 219.355 437.107C240.091 436.733 263.022 432.933 287.553 425.747C292.522 424.28 298.615 422.227 305.222 419.44C297.523 402.547 305.779 382.227 312.911 368.04C314.342 365.227 316.362 361.867 318.941 357.613C321.326 353.707 326.547 345.08 330.537 337.16C329.069 337.533 327.646 337.907 326.354 338.267C325.386 338.52 324.45 338.747 323.578 339C316.233 340.893 308.826 343.56 300.986 346.347C294.217 348.76 287.221 351.253 279.881 353.413C270.974 356.04 259.495 357.6 249.167 357.6C222.689 357.6 209.722 347.573 203.519 339.173C199.159 333.267 192.717 320.6 198.433 301.987C204.019 283.787 215.633 268.573 225.871 255.16C229.25 250.747 232.426 246.573 235.154 242.613C236.013 241.373 236.889 240.093 237.773 238.813C246.355 226.453 256.053 212.467 258.548 200.2C255.332 198.52 246.621 195.787 229.965 195.787C227.041 195.787 224.022 195.88 221.001 196.027C208.722 196.733 196.347 198.867 183.258 201.147C177.222 202.187 171.013 203.28 164.725 204.2C156.805 205.413 148.315 206.56 139.383 206.56C130.879 206.56 123.299 205.52 116.211 203.36C100.277 198.48 89.1034 187.667 84.7061 172.867Z" fill="#79D4F5"/>
<path d="M124.962 103.853L125.313 103.413L125.591 103.08L124.787 103.667L123.735 104.44L124.962 103.853Z" fill="#385DB3"/>
<path d="M113.659 109.133C112.671 110.04 111.658 110.987 110.643 111.907C109.937 112.56 109.222 113.213 108.507 113.88C110.235 112.28 111.969 110.707 113.659 109.133Z" fill="#385DB3"/>
<path d="M361.087 411.32L361.127 411.293C362.355 410.053 363.543 408.827 364.706 407.573L365.661 406.56C366.817 405.307 367.935 404 369.031 402.68L369.949 401.613C371.007 400.333 372.026 398.973 373.014 397.613L373.086 397.533C372.026 398.173 370.955 398.773 369.883 399.373C367.217 403.573 364.263 407.56 361.087 411.32Z" fill="#385DB3"/>
<path d="M361.075 411.333C361.078 411.32 361.081 411.32 361.087 411.32L361.042 411.347L361.075 411.333Z" fill="#385DB3"/>
<path d="M373.502 396.987L373.95 396.413L374.443 395.667L373.502 396.987Z" fill="#385DB3"/>
<path d="M123.735 104.44L123.097 104.747L122.279 105.507L123.735 104.44Z" fill="#385DB3"/>
<path d="M115.711 188.413C127.847 192.12 141.37 190.347 153.641 188.507C173.149 185.573 192.398 181.173 212.146 180.093C233.375 178.907 281.042 179.84 274.709 212.533C271.066 231.347 258.066 248.933 247.438 264.36C236.193 280.68 219.837 297.813 213.907 317.107C204.857 346.627 249.063 343.267 265.595 338.413C280.555 334.027 294.873 327.733 309.99 323.8C319.941 321.2 337.415 315.76 347.258 321.547C364.381 331.613 332.394 375.987 326.899 386.947C322.553 395.547 309.113 423.693 330.129 422.28C342.782 421.387 359.269 410.653 369.67 399.507C368.583 400.093 367.493 400.64 366.395 401.16C366.382 401.16 366.375 401.173 366.362 401.187C362.679 403.973 358.762 406.493 354.826 408.587C348.907 411.693 342.925 413.84 337.643 414.2C316.641 415.613 330.077 387.453 334.402 378.853C336.487 374.72 342.373 365.773 347.946 355.733C356.333 340.587 363.991 322.96 356.995 315.32C356.358 314.613 355.643 313.987 354.774 313.467C352.41 312.093 349.602 311.36 346.563 311.067C336.962 310.147 325.067 313.733 317.506 315.733C302.389 319.68 288.071 325.933 273.105 330.333C271.097 330.933 268.662 331.493 265.985 331.973C261.173 332.88 255.514 333.467 249.829 333.533C241.989 333.587 234.122 332.547 228.483 329.507C221.773 325.933 218.188 319.6 221.436 309.053C223.637 301.867 227.282 294.973 231.569 288.347C237.632 278.96 244.951 270.027 251.323 261.373C252.577 259.64 253.805 257.973 254.962 256.267C265.582 240.827 278.581 223.253 282.225 204.453C283.174 199.56 282.894 195.387 281.686 191.813C280.349 187.853 277.879 184.653 274.605 182.08C270.441 178.787 265.005 176.48 259.054 174.92C247.166 171.773 233.238 171.507 223.227 171.84C221.974 171.907 220.779 171.96 219.667 172.013C199.913 173.12 180.659 177.493 161.158 180.44C148.886 182.267 135.362 184.04 123.227 180.333C106.117 175.12 104.493 160.667 108.709 145.36C109.891 141.08 111.534 136.72 113.411 132.453L113.438 132.413C116.629 125.227 120.519 118.387 124.078 112.76C127.873 106.8 131.282 102.2 133.055 100.067L124.962 103.853C115.698 115.627 77.9301 176.88 115.711 188.413Z" fill="#385DB3"/>
<path d="M369.883 399.373C370.955 398.773 372.026 398.173 373.086 397.533L373.131 397.493L373.502 396.987L374.443 395.667L374.515 395.56C375.574 394.067 376.626 392.52 377.614 390.947C376.873 391.787 376.086 392.56 375.295 393.387L374.495 394.147L372.761 395.787L371.839 396.64C371.241 397.2 370.611 397.707 369.994 398.24L369.118 398.973C368.227 399.693 367.323 400.44 366.395 401.16C367.493 400.64 368.583 400.093 369.67 399.507L369.883 399.373Z" fill="#9ADFF7"/>
<path d="M366.303 401.2L366.362 401.187C366.375 401.173 366.382 401.16 366.395 401.16C366.362 401.173 366.337 401.187 366.303 401.2Z" fill="#9ADFF7"/>
<path d="M233.894 452.44C219.831 452.693 198.387 452.84 188.014 441.213C180.614 432.893 184.037 422 188.338 413.067C191.383 406.72 200.647 396.32 199.582 388.787C198.401 380.44 185.875 380.64 179.529 380.16C164.381 378.973 149.055 379.267 134.095 376.32C56.7007 361.12 170.479 288.72 131.769 269.04C101.959 253.88 36.9846 278.6 41.2993 225.547C45.3393 175.92 87.3167 137.56 122.279 105.507L123.097 104.747L123.118 104.72L123.039 104.747L113.659 109.133C111.969 110.707 110.235 112.28 108.507 113.88C106.479 115.747 104.414 117.627 102.355 119.52L102.239 119.64C98.4446 123.093 94.5993 126.693 90.7526 130.333L90.526 130.547C89.4487 131.587 88.3567 132.613 87.2847 133.693C84.55 136.307 81.8473 138.973 79.1513 141.68C77.2353 143.6 75.3446 145.587 73.466 147.573L73.0713 147.947C71.2713 149.867 69.4713 151.827 67.698 153.8H67.686C48.6593 174.973 32.834 198.747 28.2473 225.987L28.2353 226C28.2353 226.013 28.2326 226.027 28.23 226.04C27.7673 228.747 27.4166 231.48 27.1833 234.267C26.2086 246.2 28.7553 254.2 33.6207 259.587C38.05 264.493 44.3913 267.267 51.738 268.88C63.6207 271.52 78.19 271.16 91.6367 272.093C95.7994 272.373 99.8674 272.8 103.701 273.453C108.831 274.32 113.569 275.653 117.654 277.747C126.643 282.32 127.391 289.72 124.241 298.627C123.066 301.947 121.337 305.453 119.285 309.08C117.615 312.093 115.75 315.133 113.789 318.227C107.935 327.44 101.271 337.12 96.9513 346.213C90.2993 360.16 89.1553 372.76 104.961 380.36C108.883 382.253 113.807 383.827 119.971 385.04C125.761 386.173 131.601 386.8 137.461 387.253C146.75 387.947 156.118 388.107 165.411 388.853C170.565 389.267 179.763 389.2 183.693 393.613C184.602 394.64 185.245 395.92 185.459 397.48C185.791 399.8 185.141 402.373 184.011 405C181.75 410.253 177.534 415.787 175.118 420.093L174.209 421.76C172.851 424.547 171.603 427.547 170.733 430.6C168.843 437.28 168.817 444.2 173.905 449.893C184.258 461.533 205.714 461.4 219.779 461.133C244.918 460.72 270.221 455.88 294.314 448.84C296.407 448.2 298.498 447.547 300.583 446.88C301.214 446.64 301.823 446.427 302.454 446.2C303.922 445.707 305.383 445.213 306.839 444.68C307.586 444.387 308.321 444.08 309.067 443.787C310.399 443.293 311.73 442.773 313.05 442.213C313.842 441.907 314.621 441.547 315.414 441.2C316.667 440.667 317.934 440.12 319.175 439.547C320.001 439.173 320.799 438.76 321.598 438.4C322.039 438.187 322.474 437.973 322.91 437.76C323.681 437.373 324.45 437 325.222 436.613C326.042 436.227 326.847 435.773 327.651 435.347C328.834 434.733 329.99 434.093 331.154 433.467C331.979 433 332.771 432.52 333.571 432.08C334.706 431.413 335.831 430.733 336.949 430.04C337.753 429.547 338.533 429.04 339.319 428.52C340.417 427.84 341.509 427.12 342.586 426.373L343.73 425.613L343.47 425.773C332.251 431.853 320.351 436.613 308.437 440.12C284.343 447.173 259.054 452 233.894 452.44Z" fill="#9ADFF7"/>
</svg>
