<svg width="481" height="428" viewBox="0 0 481 428" fill="none" xmlns="http://www.w3.org/2000/svg">
<path d="M165.031 362.373C165.138 362.413 165.231 362.44 165.338 362.467L165.525 362.533C165.498 362.52 165.471 362.52 165.445 362.507L165.031 362.373Z" fill="#F6D363"/>
<path d="M394.458 150.587L394.111 149L393.938 148.306L393.751 147.613C393.925 148.293 394.072 148.96 394.232 149.627L394.458 150.587Z" fill="#F6D363"/>
<path d="M79.2046 304.48L79.858 305.28L80.5913 306.147C81.2713 306.96 81.9513 307.787 82.658 308.587L83.258 309.28L82.3646 308.24C81.3113 306.973 80.2446 305.747 79.2046 304.48Z" fill="#F6D363"/>
<path d="M73.7382 297.427C72.8715 296.267 72.0182 295.107 71.1782 293.933L70.6982 293.253L71.9382 295.027L72.5249 295.827C73.1649 296.72 73.8182 297.627 74.4982 298.507L75.1515 299.373L75.3515 299.64L75.1115 299.28C74.6449 298.68 74.1915 298.053 73.7382 297.427Z" fill="#F6D363"/>
<path d="M66.178 286.413L65.2581 285C65.8581 285.96 66.4581 286.907 67.0581 287.84L67.578 288.64L68.2047 289.587L67.4581 288.427C67.0181 287.76 66.6046 287.107 66.178 286.413Z" fill="#F6D363"/>
<path d="M63.2446 281.653C63.7513 282.493 64.2313 283.347 64.738 284.173L65.138 284.76C64.7113 284.106 64.3246 283.413 63.9113 282.746L63.2446 281.653Z" fill="#F6D363"/>
<path d="M83.2847 309.307L83.4314 309.48L83.5248 309.56L83.4581 309.48L83.2847 309.307Z" fill="#F6D363"/>
<path d="M69.8315 291.987L68.7515 290.4L69.4582 291.453L70.0315 292.307L70.5115 292.987L69.8315 291.987Z" fill="#F6D363"/>
<path d="M62.0581 279.6L62.5248 280.44L62.978 281.213C63.0314 281.293 63.0714 281.36 63.1114 281.427L62.7248 280.733L62.0581 279.6Z" fill="#F6D363"/>
<path d="M398.778 185.027L398.765 184.52C398.805 186.24 398.831 187.947 398.831 189.68C398.831 188.133 398.818 186.573 398.778 185.027Z" fill="#F6D363"/>
<path d="M150.618 357.213L150.872 357.306C151.538 357.586 152.192 357.84 152.858 358.12C153.472 358.387 154.098 358.6 154.725 358.826C153.458 358.346 152.191 357.84 150.951 357.333L150.618 357.213Z" fill="#F6D363"/>
<path d="M304.125 31.5599L302.925 30.9065C302.218 30.5465 301.525 30.1865 300.832 29.8398C302.445 30.6665 304.045 31.5199 305.632 32.4133L304.125 31.5599Z" fill="#F6D363"/>
<path d="M217.005 191.92C167.111 243.56 99.3913 259.107 65.7913 226.653C33.1113 195.08 44.7379 129.693 91.3113 78.6133C92.6179 77.1733 93.9513 75.7466 95.3113 74.3332C96.6713 72.9599 98.0446 71.5332 99.4446 70.1999C148.885 21.8799 213.831 8.01331 246.511 39.6133C280.125 72.08 266.911 140.267 217.005 191.92ZM300.538 29.68C300.445 29.64 300.351 29.5866 300.271 29.5466L298.978 28.9065C298.111 28.4665 297.231 28.0266 296.365 27.6133L294.978 26.9599C294.125 26.5599 293.258 26.1599 292.391 25.7599L290.938 25.1332C290.098 24.7466 289.245 24.3866 288.391 24.0266L286.831 23.3999C286.018 23.0532 285.165 22.7199 284.325 22.3599L282.725 21.7599C281.898 21.4399 281.045 21.1332 280.205 20.8266L278.538 20.2399C277.725 19.9465 276.885 19.6532 276.045 19.3732L274.311 18.7999C273.471 18.5332 272.671 18.2533 271.858 18.0133C271.245 17.8266 270.631 17.6533 270.005 17.48C269.218 17.2266 268.405 16.9999 267.605 16.7732C266.965 16.5732 266.325 16.4132 265.698 16.2399C264.885 16.0265 264.111 15.8132 263.311 15.5999C262.658 15.4532 261.978 15.2799 261.311 15.1199C260.538 14.9466 259.751 14.7332 258.978 14.5599C258.298 14.4132 257.605 14.2665 256.911 14.1065C256.138 13.9599 255.391 13.7733 254.618 13.6133C253.898 13.4666 253.191 13.3333 252.471 13.2133C251.711 13.0666 250.965 12.92 250.191 12.7866C249.471 12.6533 248.738 12.5333 247.991 12.4133C247.258 12.3066 246.498 12.1732 245.751 12.0399C244.991 11.9465 244.231 11.8399 243.445 11.7332C242.738 11.6399 241.991 11.5332 241.271 11.4398C240.485 11.3332 239.698 11.2399 238.911 11.1599C238.205 11.0932 237.471 10.9999 236.765 10.92C235.938 10.8533 235.138 10.7865 234.325 10.7065C233.618 10.6532 232.911 10.5865 232.218 10.5332C231.378 10.4799 230.525 10.4398 229.698 10.3732C229.018 10.3199 228.325 10.2799 227.645 10.2533C226.765 10.2 225.925 10.1733 225.071 10.1466C224.378 10.12 223.698 10.0933 223.018 10.08C222.138 10.0533 221.285 10.0533 220.391 10.0533C219.605 10.0399 218.831 10.0266 218.031 10.0266C118.498 10.3199 38.058 91.2932 38.3646 190.827C38.378 192.387 38.3913 193.933 38.4446 195.48L38.4846 196.387C38.5379 197.627 38.5646 198.88 38.6446 200.093L38.7113 201.16C38.7646 202.32 38.8579 203.507 38.9512 204.68L39.0446 205.96C39.1513 207.053 39.258 208.16 39.3646 209.253L39.498 210.347C39.618 211.507 39.7513 212.64 39.898 213.787L40.0313 214.68C40.2046 215.88 40.3513 217.08 40.5247 218.267L40.6846 219.16C40.8846 220.36 41.0846 221.52 41.298 222.72L41.4713 223.667C41.6846 224.827 41.9246 225.973 42.1512 227.12L42.3512 228.067C42.6046 229.213 42.8446 230.36 43.1113 231.493L43.3113 232.293C43.5913 233.48 43.8846 234.653 44.1779 235.84L44.3779 236.573C44.6979 237.76 45.0179 238.973 45.3779 240.133L45.6313 241C45.9646 242.16 46.2846 243.267 46.6446 244.373L46.8846 245.147C47.2712 246.307 47.6312 247.44 48.0179 248.587L48.298 249.347L48.5913 250.173C73.338 262.827 101.378 269.933 131.085 269.84C139.978 269.8 148.725 269.12 157.271 267.84C164.978 261.333 172.738 254.773 180.591 248.133C196.471 234.56 212.645 220.773 228.671 206.813C244.765 192.933 260.711 178.893 276.418 165.08C284.231 158.147 291.991 151.28 299.658 144.48C300.845 143.4 302.031 142.333 303.218 141.253C308.151 124.72 310.805 107.2 310.751 89.0133C310.671 68.2133 307.071 48.2533 300.538 29.68Z" fill="#F6D363"/>
<path d="M88.4846 314.973L89.4047 315.907C90.1114 316.627 90.8047 317.347 91.5113 318.04L92.2047 318.72C90.818 317.36 89.4447 315.973 88.1113 314.573L88.4846 314.973Z" fill="#F6D363"/>
<path d="M92.9514 319.44L93.6315 320.107V320.066L93.3381 319.8L92.9514 319.44Z" fill="#F6D363"/>
<path d="M159.125 360.4L158.165 360.08L156.498 359.493L156.965 359.666C157.685 359.946 158.431 360.173 159.138 360.44C159.805 360.68 160.471 360.906 161.125 361.133L161.285 361.173L160.991 361.066C160.365 360.866 159.738 360.626 159.125 360.4Z" fill="#F6D363"/>
<path d="M85.5381 311.813L86.4048 312.76C86.8048 313.173 87.1915 313.6 87.5915 314.027C86.4448 312.8 85.2981 311.547 84.1648 310.293L85.5381 311.813Z" fill="#F6D363"/>
<path d="M324.885 44.7333C325.405 45.1066 325.885 45.5333 326.405 45.92C327.885 47.0267 329.405 48.0933 330.845 49.2399L329.498 48.1467L328.698 47.56C327.831 46.8666 326.951 46.1866 326.058 45.5333L325.218 44.9333C324.338 44.2666 323.458 43.64 322.551 42.9867L321.618 42.3467H321.605C322.751 43.1334 323.831 44 324.938 44.8266C324.925 44.7866 324.898 44.76 324.885 44.7333Z" fill="#F6D363"/>
<path d="M348.711 65.52L348.231 65.0266C347.391 64.1599 346.538 63.3065 345.685 62.4399L345.138 61.8933L345.085 61.8533C346.405 63.16 347.711 64.4799 349.005 65.8266C348.911 65.7199 348.805 65.6133 348.711 65.52Z" fill="#F6D363"/>
<path d="M335.978 53.6133C337.378 54.8133 338.818 55.9732 340.178 57.1999L339.418 56.48L338.778 55.9599C337.925 55.1866 337.058 54.3866 336.178 53.6533L335.498 53.0666C334.631 52.3466 333.765 51.5866 332.871 50.8666L332.138 50.2666L331.605 49.8533C332.311 50.4133 332.978 51.0532 333.685 51.6399C334.458 52.2799 335.218 52.9466 335.978 53.6133Z" fill="#F6D363"/>
<path d="M342.591 59.4266L341.965 58.8533L340.778 57.76C341.898 58.8 343.005 59.8533 344.098 60.92C343.605 60.4266 343.098 59.9333 342.591 59.4266Z" fill="#F6D363"/>
<path d="M362.725 81.9999L362.392 81.5332L361.658 80.5999C362.325 81.4932 363.005 82.3866 363.671 83.2933C363.351 82.8666 363.032 82.4266 362.725 81.9999Z" fill="#F6D363"/>
<path d="M352.805 69.9467L351.658 68.68L351.205 68.1733C350.551 67.4666 349.885 66.7599 349.205 66.0399C350.431 67.3333 351.618 68.6267 352.805 69.9467Z" fill="#F6D363"/>
<path d="M360.018 78.5333L360.005 78.4933L360.151 78.68L360.711 79.3867L360.085 78.56L359.685 78.08C358.898 77.1067 358.138 76.1466 357.351 75.1999L356.951 74.72C356.151 73.7867 355.365 72.8399 354.551 71.9066L354.111 71.3999L353.511 70.7467C355.751 73.28 357.911 75.8799 360.018 78.5333Z" fill="#F6D363"/>
<path d="M49.498 252.746L49.8047 253.56C50.2313 254.667 50.6447 255.76 51.0713 256.84L51.4179 257.68C51.8446 258.76 52.2979 259.827 52.7513 260.92L53.098 261.693L53.658 262.96C51.818 258.813 50.138 254.586 48.6313 250.28C48.9247 251.093 49.2047 251.933 49.498 252.746Z" fill="#F6D363"/>
<path d="M56.4714 269.013L56.1248 268.333L56.378 268.893L56.7647 269.64C57.2847 270.693 57.7914 271.747 58.338 272.787L58.6714 273.387C58.2047 272.507 57.7648 271.6 57.3248 270.72L56.4714 269.013Z" fill="#F6D363"/>
<path d="M320.245 41.4133C319.818 41.1199 319.405 40.8133 318.992 40.5466L318.005 39.8932L316.698 39.0398C317.898 39.8132 319.072 40.6133 320.245 41.4133Z" fill="#F6D363"/>
<path d="M53.7646 263.213L54.5113 264.933L54.858 265.68C55.2713 266.56 55.6846 267.44 56.1113 268.32L56.1512 268.333C55.3379 266.64 54.538 264.946 53.7646 263.213Z" fill="#F6D363"/>
<path d="M59.4847 274.947L59.1248 274.267L59.7914 275.52L59.4847 274.947Z" fill="#F6D363"/>
<path d="M315.951 38.5466L315.365 38.1599L314.311 37.4932C313.445 36.9599 312.551 36.4132 311.671 35.8799L310.578 35.2265C309.698 34.7065 308.818 34.1866 307.925 33.6799L306.778 33.0265L306.231 32.7332C309.525 34.5865 312.778 36.5066 315.951 38.5466Z" fill="#F6D363"/>
<path d="M59.8047 275.533L60.378 276.653L60.8314 277.427C61.1114 277.907 61.378 278.4 61.6447 278.88C61.2713 278.213 60.9113 277.52 60.5513 276.867L59.8047 275.533Z" fill="#F6D363"/>
<path d="M76.1382 300.64L77.1249 301.946L77.8582 302.84L78.6715 303.826L77.8848 302.813C77.2981 302.08 76.6982 301.373 76.1382 300.64Z" fill="#F6D363"/>
<path d="M190.818 368.36L191.431 368.467L192.205 368.56L191.458 368.44L190.818 368.36Z" fill="#F6D363"/>
<path d="M193.871 368.8L193.658 368.773L193.965 368.813H194.005C193.965 368.813 193.911 368.8 193.871 368.8Z" fill="#F6D363"/>
<path d="M184.925 367.32C184.738 367.28 184.551 367.24 184.351 367.213L185.031 367.36L185.565 367.453L184.925 367.32Z" fill="#F6D363"/>
<path d="M397.258 166.2L397.205 165.84L397.085 165.08L397.125 165.427L397.258 166.2Z" fill="#F6D363"/>
<path d="M186.818 367.693L186.991 367.733L188.418 367.96L187.725 367.827L186.818 367.693Z" fill="#F6D363"/>
<path d="M214.218 370.44C215.071 370.466 215.978 370.466 216.858 370.466C217.618 370.466 218.405 370.48 219.191 370.48C217.351 370.506 215.511 370.466 213.685 370.413L214.218 370.44Z" fill="#F6D363"/>
<path d="M398.218 175.333L398.325 176.293L398.271 175.827L398.178 174.747L398.205 175.147C398.205 175.2 398.205 175.267 398.218 175.333Z" fill="#F6D363"/>
<path d="M397.951 172.24L397.858 171.267L397.778 170.693L397.871 171.56L397.951 172.24Z" fill="#F6D363"/>
<path d="M397.605 169.133L397.618 169.24L397.605 169.173L397.551 168.747L397.605 169.133Z" fill="#F6D363"/>
<path d="M397.391 167.266L397.338 166.747L397.285 166.52L397.338 166.947L397.391 167.266Z" fill="#F6D363"/>
<path d="M396.832 163.293L396.685 162.24L396.538 161.387C396.472 160.947 396.392 160.52 396.312 160.08C396.472 161.093 396.658 162.133 396.805 163.173L396.832 163.293Z" fill="#F6D363"/>
<path d="M203.125 369.813L202.058 369.733L203.031 369.813L203.871 369.88L203.125 369.813Z" fill="#F6D363"/>
<path d="M204.911 369.973L205.005 369.987L205.418 370L205.191 369.987L204.911 369.973Z" fill="#F6D363"/>
<path d="M208.738 370.213L209.591 370.267L211.031 370.333L210.218 370.267C209.725 370.24 209.231 370.227 208.738 370.213Z" fill="#F6D363"/>
<path d="M398.618 181.373L398.592 180.427L398.525 179.427L398.592 180.747L398.618 181.373Z" fill="#F6D363"/>
<path d="M177.858 365.853L178.205 365.92L179.311 366.173L178.805 366.053L177.858 365.853Z" fill="#F6D363"/>
<path d="M395.538 155.773C395.391 154.986 395.245 154.186 395.085 153.386L394.885 152.56L394.805 152.2C395.058 153.386 395.311 154.586 395.538 155.773Z" fill="#F6D363"/>
<path d="M161.925 361.4L162.218 361.493L162.138 361.453L161.925 361.4Z" fill="#F6D363"/>
<path d="M169.658 363.747L171.405 364.24L170.778 364.053L169.658 363.747Z" fill="#F6D363"/>
<path d="M395.938 157.787L395.925 157.747L396.018 158.307L395.938 157.787Z" fill="#F6D363"/>
<path d="M182.591 366.893L182.685 366.907L182.378 366.853C182.445 366.867 182.511 366.88 182.591 366.893Z" fill="#F6D363"/>
<path d="M181.551 366.653C181.605 366.667 181.671 366.68 181.725 366.693L181.645 366.68L181.551 366.653Z" fill="#F6D363"/>
<path d="M75.4048 313.866L75.4181 313.88L75.4315 313.866L75.4715 313.946L75.4982 313.96L75.5382 314.013L75.5649 314.026L75.5916 314.08L75.8315 314.333L75.8848 314.4L75.9781 314.533L78.4582 317.387L78.0715 317.8C80.2182 320.16 82.3915 322.426 84.6315 324.693L86.0715 326.066C87.0448 325.266 88.0315 324.52 89.0315 323.72C90.5515 322.533 92.0848 321.293 93.6048 320.107L92.8715 319.387L92.6181 319.146L92.2048 318.72L91.5115 318.04C90.8048 317.347 90.1115 316.627 89.4048 315.907L88.4848 314.973C88.2581 314.733 88.0315 314.493 87.8048 314.266V314.253C87.7382 314.187 87.6582 314.093 87.5916 314.026C87.1916 313.6 86.8048 313.173 86.4048 312.76L85.5382 311.813L84.0982 310.213L83.5649 309.6H83.5515L83.5249 309.56L83.4315 309.48L83.2848 309.307L83.2582 309.28L82.6582 308.587C81.9516 307.787 81.2716 306.96 80.5916 306.146L79.8582 305.28L78.8848 304.093L78.7916 303.973L78.7115 303.88L78.6715 303.826L77.8582 302.84L77.1249 301.946L76.0582 300.546L75.5916 299.933L75.5649 299.92L75.3515 299.64L75.1515 299.373L74.4982 298.507C73.8182 297.627 73.1649 296.72 72.5249 295.826L71.9382 295.026C71.5115 294.4 71.0849 293.813 70.6582 293.2L70.5382 293.026L70.0315 292.307L69.4582 291.453L68.6848 290.32L68.3515 289.813L68.2982 289.733L68.2048 289.587L67.5782 288.64L67.0582 287.84C66.4582 286.907 65.8582 285.96 65.2582 285L65.1382 284.76L64.7382 284.173C64.2315 283.347 63.7515 282.493 63.2448 281.653L63.1916 281.573L63.1782 281.546L63.1115 281.426C63.0715 281.36 63.0315 281.293 62.9782 281.213L62.5249 280.44L62.0048 279.533L61.8715 279.293L61.7782 279.133C61.7382 279.053 61.6848 278.96 61.6448 278.88C61.3782 278.4 61.1115 277.906 60.8315 277.426L60.3782 276.653C59.9515 275.84 59.5382 275.026 59.0982 274.226L58.8582 273.76C58.7916 273.64 58.7248 273.52 58.6715 273.387L58.3382 272.787C57.7915 271.747 57.2849 270.693 56.7649 269.64L56.3782 268.893C56.2982 268.706 56.2048 268.507 56.1115 268.32C55.6848 267.44 55.2716 266.56 54.8582 265.68L54.5115 264.933L53.7649 263.213L53.7515 263.16L53.6982 263.053L53.6715 262.987C53.6582 262.973 53.6582 262.973 53.6582 262.96L53.0982 261.693L52.7515 260.92C52.2981 259.827 51.8448 258.76 51.4181 257.68L51.0715 256.84C50.6448 255.76 50.2315 254.666 49.8048 253.56L49.4982 252.746C49.2049 251.906 48.9115 251.08 48.6048 250.253L48.5916 250.173L48.2982 249.346L48.0181 248.587C47.6315 247.44 47.2715 246.306 46.8848 245.146L46.6448 244.373C46.2848 243.267 45.9649 242.16 45.6315 241L45.3782 240.133C45.0182 238.973 44.6982 237.76 44.3782 236.573L44.1782 235.84C43.8848 234.653 43.5915 233.48 43.3115 232.293L43.1115 231.493C42.8448 230.36 42.6048 229.213 42.3515 228.066L42.1515 227.12C41.9248 225.973 41.6848 224.826 41.4715 223.666L41.2982 222.72C41.0849 221.52 40.8848 220.36 40.6848 219.16L40.5249 218.266C40.3516 217.08 40.2049 215.88 40.0315 214.68L39.8982 213.787C39.7515 212.64 39.6182 211.507 39.4982 210.347L39.3649 209.253C39.2582 208.16 39.1515 207.053 39.0448 205.96L38.9515 204.68C38.8581 203.507 38.7648 202.32 38.7115 201.16L38.6448 200.093C38.5648 198.88 38.5381 197.627 38.4848 196.387L38.4448 195.48C38.3915 193.933 38.3782 192.387 38.3649 190.827C38.0582 91.2932 118.498 10.3199 218.032 10.0265H218.632L220.392 10.0532C221.285 10.0532 222.138 10.0532 223.018 10.0799C223.698 10.0932 224.378 10.1199 225.072 10.1466C225.925 10.1732 226.765 10.1999 227.645 10.2532C228.325 10.2799 229.018 10.3198 229.698 10.3731C230.525 10.4398 231.378 10.4798 232.218 10.5331C232.911 10.5865 233.618 10.6531 234.325 10.7065C235.138 10.7865 235.938 10.8532 236.765 10.9199C237.472 10.9999 238.205 11.0932 238.911 11.1599C239.698 11.2398 240.485 11.3331 241.271 11.4398C241.992 11.5331 242.738 11.6398 243.445 11.7332C244.231 11.8398 244.991 11.9465 245.751 12.0398C246.498 12.1731 247.258 12.3065 247.992 12.4132C248.738 12.5332 249.472 12.6532 250.192 12.7865C250.965 12.9199 251.712 13.0666 252.471 13.2132C253.191 13.3332 253.898 13.4666 254.618 13.6132C255.391 13.7732 256.138 13.9598 256.911 14.1064C257.605 14.2664 258.298 14.4132 258.978 14.5598C259.751 14.7332 260.538 14.9465 261.311 15.1199C261.978 15.2799 262.658 15.4532 263.311 15.5998C264.111 15.8131 264.885 16.0265 265.698 16.2398C266.325 16.4131 266.965 16.5731 267.605 16.7731C268.405 16.9998 269.218 17.2266 270.005 17.4799C270.632 17.6532 271.245 17.8266 271.858 18.0132C272.672 18.2532 273.471 18.5331 274.311 18.7998L276.045 19.3731C276.885 19.6531 277.725 19.9465 278.538 20.2398L280.205 20.8265C281.045 21.1332 281.898 21.4398 282.725 21.7599L284.325 22.3598C285.165 22.7198 286.018 23.0532 286.832 23.3998L288.392 24.0265C289.245 24.3865 290.098 24.7465 290.938 25.1331L292.392 25.7599C293.258 26.1599 294.125 26.5598 294.978 26.9598L296.365 27.6132C297.232 28.0266 298.111 28.4665 298.978 28.9065L300.272 29.5466C300.352 29.5865 300.445 29.6399 300.538 29.6799C300.632 29.7332 300.738 29.7865 300.832 29.8398C301.525 30.1865 302.218 30.5464 302.925 30.9065L304.125 31.5598L305.751 32.4532L306.165 32.6932L306.778 33.0265L307.925 33.6799C308.818 34.1866 309.698 34.7065 310.578 35.2265L311.672 35.8799C312.552 36.4132 313.445 36.9598 314.311 37.4932L315.365 38.1599L315.951 38.5466C316.045 38.6132 316.138 38.6532 316.232 38.7199L316.365 38.8265L316.458 38.8665L318.005 39.8932L318.992 40.5466C319.405 40.8132 319.818 41.1199 320.245 41.4132C320.551 41.6132 320.845 41.7999 321.138 42.0132L321.205 42.0665L321.605 42.3466H321.618L322.551 42.9865C323.458 43.6399 324.338 44.2665 325.218 44.9331L326.058 45.5331C326.952 46.1865 327.832 46.8665 328.698 47.5598L329.498 48.1466L330.965 49.3199L331.445 49.7199L331.511 49.7731C331.551 49.7998 331.565 49.8265 331.605 49.8532L332.138 50.2665L332.871 50.8665C333.765 51.5865 334.632 52.3465 335.498 53.0665L336.178 53.6532C337.058 54.3865 337.925 55.1865 338.778 55.9598L339.418 56.4799L340.311 57.3199L340.605 57.5998L340.778 57.7466V57.7599L341.965 58.8532L342.592 59.4265C343.098 59.9332 343.605 60.4265 344.098 60.9199C344.218 61.0266 344.338 61.1332 344.445 61.2532L344.525 61.3332L344.978 61.7599H344.992C345.032 61.7998 345.058 61.8265 345.085 61.8532L345.138 61.8932L345.685 62.4398C346.538 63.3065 347.392 64.1599 348.232 65.0265L348.711 65.5199C348.805 65.6132 348.911 65.7198 349.005 65.8265C349.018 65.8398 349.018 65.8531 349.032 65.8665L349.178 66.0132C349.858 66.7332 350.551 67.4531 351.205 68.1731L351.658 68.6799L352.925 70.0799L353.471 70.6799L354.111 71.3998L354.551 71.9065C355.365 72.8398 356.151 73.7865 356.951 74.7199L357.351 75.1998C358.138 76.1465 358.898 77.1066 359.685 78.0799L360.085 78.5598L360.805 79.5065L361.232 80.0665L361.351 80.1998C361.458 80.3198 361.552 80.4665 361.658 80.5998L362.392 81.5331L362.725 81.9998C363.032 82.4265 363.352 82.8665 363.672 83.2932C363.858 83.5465 364.045 83.7999 364.232 84.0532L364.298 84.1466L364.778 84.7731L364.805 84.8265C367.165 82.5998 369.485 80.3732 371.792 78.1598C369.592 75.1732 367.325 72.2532 364.938 69.3865L363.711 70.1998C363.231 68.7598 362.218 67.4932 360.911 66.7199L361.951 65.8665C358.965 62.4398 355.845 59.0798 352.578 55.8665C316.765 20.1331 269.205 0.50647 218.632 0.50647H218.005C167.312 0.639801 119.725 20.5332 83.9916 56.4799C48.2582 92.4532 28.6715 140.16 28.8315 190.866C28.9782 236.693 45.2582 280.013 74.9781 314.293L75.0848 314.173L75.4048 313.866Z" fill="#FDE3A5"/>
<path d="M393.391 148.093L393.618 149.08L393.631 149.106C393.671 149.28 393.711 149.453 393.751 149.613L393.938 150.306L394.111 151L394.458 152.587L394.485 152.68L394.498 152.747L394.645 153.44L394.671 153.573L394.805 154.187L394.885 154.56L395.085 155.387C395.245 156.187 395.391 156.986 395.538 157.773C395.578 157.946 395.605 158.106 395.645 158.266V158.293L395.818 159.213L395.831 159.266L395.885 159.547L395.925 159.747L395.938 159.787L396.071 160.613L396.205 161.426L396.218 161.466L396.298 162.013C396.298 162.027 396.311 162.053 396.311 162.08C396.391 162.52 396.471 162.947 396.538 163.387L396.685 164.24L396.831 165.293L396.845 165.333V165.36L397.058 166.866L397.071 166.88L397.085 167.08L397.205 167.84L397.258 168.2L397.285 168.52L397.338 168.747L397.391 169.266V169.32V169.347L397.551 170.693L397.605 171.173L397.618 171.24L397.645 171.4V171.426L397.778 172.693L397.858 173.266L397.951 174.24L397.965 174.36V174.387L398.098 175.706L398.178 176.626V176.747L398.271 177.827L398.325 178.293V178.36V178.373L398.391 179.547C398.431 180.147 398.485 180.747 398.511 181.347L398.525 181.426L398.591 182.426L398.618 183.373L398.658 184.426L398.685 184.693L398.725 185.613L398.765 186.52L398.778 187.027C398.818 188.573 398.831 190.133 398.831 191.68C399.165 291.213 318.725 372.186 219.191 372.48H218.605L216.858 372.466C215.978 372.466 215.071 372.467 214.218 372.44L213.485 372.413L212.765 372.4L212.151 372.36L211.031 372.333L209.591 372.266L208.738 372.213C208.511 372.2 208.271 372.2 208.031 372.187L207.951 372.16L206.405 372.08L205.418 372L205.005 371.987L204.911 371.973H204.845H204.671L204.192 371.92L203.031 371.813L202.058 371.733L200.698 371.613L200.111 371.56L199.805 371.52L199.658 371.493L198.405 371.346H198.271L198.218 371.333L197.298 371.226L196.365 371.133L195.525 371.013L195.351 370.987L194.298 370.866L193.965 370.813L193.658 370.773L192.205 370.56L191.431 370.466L190.818 370.36H190.765L190.618 370.333L189.751 370.187L188.418 369.96L186.992 369.733L186.818 369.693L186.658 369.666L186.498 369.626L185.765 369.493L185.031 369.36L184.351 369.213C184.298 369.2 184.231 369.187 184.178 369.187L183.392 369.053L182.685 368.907L182.592 368.893C182.512 368.88 182.445 368.867 182.378 368.853L182.005 368.773L181.725 368.693C181.672 368.68 181.605 368.667 181.551 368.653L180.778 368.507L180.765 368.48L179.311 368.173L178.205 367.92L177.698 367.826L177.592 367.8L177.165 367.707L177.031 367.666L176.378 367.493L175.578 367.307L175.098 367.2L173.818 366.866L173.311 366.746L172.778 366.6L172.525 366.533L172.458 366.507C172.432 366.507 172.418 366.493 172.392 366.493L171.405 366.24L169.658 365.746L169.458 365.693L169.205 365.626L168.565 365.44L168.218 365.346L168.125 365.32L166.831 364.933C166.391 364.8 165.965 364.666 165.525 364.533L165.338 364.466C165.138 364.413 164.965 364.346 164.765 364.293L164.565 364.24L164.445 364.2C164.125 364.093 163.791 364.013 163.471 363.907L162.218 363.493L161.925 363.4L161.285 363.173L161.125 363.133C160.472 362.906 159.805 362.68 159.138 362.44C158.431 362.173 157.685 361.946 156.965 361.666L156.378 361.453L155.831 361.253L154.725 360.826C154.098 360.6 153.472 360.387 152.858 360.12C152.192 359.84 151.538 359.587 150.871 359.307L150.618 359.213L150.045 358.987H150.031L149.911 358.933C148.365 360.04 146.831 361.133 145.298 362.213C143.765 363.293 142.245 364.32 140.711 365.4C164.885 376.306 191.311 382.026 218.605 382.026H219.218C269.898 381.866 317.498 361.96 353.231 326.026C388.951 290.053 408.538 242.333 408.391 191.653C408.325 173.68 405.778 156.093 400.925 139.266C398.378 142.026 395.818 144.747 393.231 147.48L393.391 148.093Z" fill="#FDE3A5"/>
<path d="M364.778 84.7733L364.298 84.1467L364.231 84.0534C364.045 83.8 363.858 83.5467 363.671 83.2933C363.005 82.3867 362.325 81.4933 361.658 80.6C361.551 80.4666 361.458 80.32 361.351 80.2L361.231 80.0666L360.805 79.5066L360.711 79.3867L360.151 78.68L361.311 80.2134L362.671 82C363.378 82.96 364.111 83.8933 364.791 84.8666L364.805 84.8267L364.778 84.8V84.7733Z" fill="#F3AB4D"/>
<path d="M393.231 145.48H393.218L393.391 146.093L393.231 145.48Z" fill="#F3AB4D"/>
<path d="M62.7249 280.733L63.1114 281.427L63.1781 281.547L63.1915 281.573L63.2448 281.653L63.9114 282.747C63.5248 282.08 63.1115 281.427 62.7249 280.733Z" fill="#F3AB4D"/>
<path d="M59.8047 275.533L60.5513 276.867C60.1913 276.227 59.8313 275.587 59.4846 274.947L59.7914 275.52L59.8047 275.533Z" fill="#F3AB4D"/>
<path d="M158.165 360.08C157.378 359.787 156.605 359.547 155.832 359.253L156.378 359.453L156.498 359.493L158.165 360.08Z" fill="#F3AB4D"/>
<path d="M197.445 369.24L197.298 369.227L198.218 369.333L198.271 369.346L197.445 369.24Z" fill="#F3AB4D"/>
<path d="M394.485 150.733L394.645 151.44L394.498 150.747L394.485 150.68L394.458 150.587L394.231 149.627L394.485 150.733Z" fill="#F3AB4D"/>
<path d="M203.925 369.88L203.125 369.813L203.871 369.88L204.191 369.92L204.671 369.973H204.845H204.911L205.191 369.987L203.925 369.88Z" fill="#F3AB4D"/>
<path d="M395.965 158.12L396.032 158.427L396.018 158.306L395.925 157.747L395.885 157.547L395.832 157.266L395.965 158.12Z" fill="#F3AB4D"/>
<path d="M397.111 165.306L397.125 165.427L397.085 165.08L397.071 164.88L397.058 164.866L396.845 163.36V163.333L396.831 163.293L396.805 163.173C396.911 163.866 397.018 164.573 397.111 165.306Z" fill="#F3AB4D"/>
<path d="M169.791 363.787L168.565 363.44L169.205 363.627L169.458 363.693L169.658 363.747L170.778 364.053L169.791 363.787Z" fill="#F3AB4D"/>
<path d="M175.098 365.2L175.578 365.307L176.378 365.493L175.658 365.32L175.098 365.2Z" fill="#F3AB4D"/>
<path d="M398.231 175.613C398.285 176.267 398.351 176.907 398.391 177.547L398.325 176.373V176.36V176.293L398.218 175.333C398.218 175.426 398.218 175.52 398.231 175.613Z" fill="#F3AB4D"/>
<path d="M164.098 362.08C163.445 361.867 162.792 361.667 162.138 361.453L162.218 361.493L163.472 361.907H163.485L164.445 362.2L164.565 362.24L164.098 362.08Z" fill="#F3AB4D"/>
<path d="M397.871 171.56L397.778 170.693L397.645 169.427V169.4L397.618 169.24L397.605 169.133C397.698 169.933 397.778 170.747 397.871 171.56Z" fill="#F3AB4D"/>
<path d="M92.6182 319.146L92.8715 319.387L92.9115 319.413L92.6182 319.146Z" fill="#F3AB4D"/>
<path d="M48.5913 250.173L48.6046 250.253L48.6313 250.28C50.1379 254.587 51.818 258.813 53.658 262.96C53.658 262.973 53.6579 262.973 53.6713 262.987L53.6979 263.053L53.7512 263.16L53.7646 263.213C54.5379 264.947 55.3379 266.64 56.1512 268.333C56.9912 269.013 57.8313 269.693 58.658 270.387C67.9246 281.333 78.4713 291.173 90.0713 299.666C96.1513 302.733 102.431 305.467 108.898 307.853C116.978 301.307 125.205 294.56 133.578 287.627C141.218 281.24 148.991 274.76 156.858 268.2L157.271 267.84C148.725 269.12 139.978 269.8 131.085 269.84C101.378 269.933 73.338 262.827 48.5913 250.173Z" fill="#F3AB4D"/>
<path d="M191.125 368.387L189.751 368.187L190.618 368.333L190.765 368.36H190.818L191.458 368.44L191.125 368.387Z" fill="#F3AB4D"/>
<path d="M321.605 42.3467L321.205 42.0666L321.138 42.0133C320.845 41.8 320.551 41.6133 320.245 41.4133C319.071 40.6133 317.898 39.8132 316.698 39.0399L316.458 38.8666L316.365 38.8266L316.231 38.72C316.138 38.6533 316.045 38.6133 315.951 38.5467C312.778 36.5067 309.525 34.5866 306.231 32.7333L306.165 32.6933L305.751 32.4533L305.631 32.4133C304.045 31.52 302.445 30.6666 300.831 29.8399C300.738 29.7866 300.631 29.7333 300.538 29.68C307.071 48.2533 310.671 68.2133 310.751 89.0133C310.805 107.2 308.151 124.72 303.218 141.253C309.618 135.507 315.978 129.827 322.205 124.2C330.831 116.4 339.245 108.707 347.378 101.173C343.098 80.9199 335.405 61.9466 324.938 44.8266C323.831 43.9999 322.751 43.1333 321.605 42.3467Z" fill="#F3AB4D"/>
<path d="M335.978 53.6133C344.778 61.1733 352.858 69.5333 360.071 78.6533L360.018 78.5332C357.911 75.8799 355.751 73.28 353.511 70.7466L353.471 70.68L352.925 70.08L352.805 69.9466C351.618 68.6266 350.431 67.3332 349.205 66.0398L349.178 66.0133L349.031 65.8665C349.018 65.8532 349.018 65.8399 349.005 65.8266C347.711 64.4799 346.405 63.1599 345.085 61.8533C345.058 61.8266 345.031 61.7999 344.991 61.7599H344.978L344.525 61.3332L344.445 61.2533C344.338 61.1333 344.218 61.0266 344.098 60.9199C343.005 59.8533 341.898 58.7999 340.778 57.7599V57.7466L340.605 57.5999L340.311 57.3199L340.178 57.1999C338.818 55.9732 337.378 54.8133 335.978 53.6133Z" fill="#F3AB4D"/>
<path d="M326.405 45.9199C328.871 47.7732 331.311 49.6665 333.685 51.6398C332.978 51.0532 332.311 50.4132 331.605 49.8532C331.565 49.8266 331.551 49.7998 331.511 49.7732L331.445 49.7199L330.965 49.3199L330.845 49.2398C329.405 48.0932 327.885 47.0266 326.405 45.9199Z" fill="#F3AB4D"/>
<path d="M82.3647 308.24L83.2581 309.28L83.2847 309.306L83.4581 309.48L82.3647 308.24Z" fill="#F3AB4D"/>
<path d="M341.365 197.813C339.285 199.787 337.191 201.773 335.071 203.773C315.258 222.626 294.618 241.2 273.645 259.4C252.605 277.533 231.245 295.307 209.738 312.213C208.298 313.347 206.858 314.467 205.418 315.6C268.925 303.347 320.551 257.747 341.365 197.813Z" fill="#F3AB4D"/>
<path d="M79.1781 304.44L77.8848 302.813L78.6715 303.827L78.7115 303.88L78.7915 303.973L78.8848 304.093L78.9514 304.173L79.1781 304.44Z" fill="#F3AB4D"/>
<path d="M71.1782 293.933C70.7515 293.293 70.2849 292.627 69.8315 291.987L70.5115 292.987L70.5382 293.027L70.6582 293.2L70.6982 293.253L71.1782 293.933Z" fill="#F3AB4D"/>
<path d="M210.218 370.267L211.031 370.333L212.151 370.36L210.685 370.293L210.218 370.267Z" fill="#F3AB4D"/>
<path d="M213.485 370.413H213.685C215.511 370.466 217.351 370.506 219.191 370.48C217.031 370.506 214.911 370.466 212.765 370.4L213.485 370.413Z" fill="#F1692C"/>
<path d="M181.725 366.693L182.005 366.773L182.378 366.853L182.685 366.907L183.392 367.053L184.178 367.187C183.338 367.013 182.485 366.853 181.645 366.68L181.725 366.693Z" fill="#F1692C"/>
<path d="M210.685 370.293C209.258 370.24 207.831 370.16 206.405 370.08L207.951 370.16L208.031 370.187C208.271 370.2 208.511 370.2 208.738 370.213C209.231 370.227 209.725 370.24 210.218 370.267L210.685 370.293Z" fill="#F1692C"/>
<path d="M194.245 368.84L194.298 368.867L195.351 368.987L195.525 369.013L196.365 369.133L197.298 369.227L197.445 369.24C196.391 369.12 195.311 368.987 194.245 368.84Z" fill="#F1692C"/>
<path d="M178.805 366.053C177.751 365.827 176.698 365.573 175.658 365.32L176.378 365.493L177.032 365.667L177.165 365.707L177.592 365.8L177.698 365.827L177.858 365.853L178.805 366.053Z" fill="#F1692C"/>
<path d="M170.778 364.053L171.405 364.24L172.392 364.493C171.525 364.253 170.658 364.027 169.792 363.787L170.778 364.053Z" fill="#F1692C"/>
<path d="M172.525 364.533L172.778 364.6C172.671 364.573 172.565 364.533 172.458 364.507L172.525 364.533Z" fill="#F1692C"/>
<path d="M398.098 173.706L397.965 172.386V172.36L397.951 172.24L397.871 171.56C397.778 170.746 397.698 169.933 397.605 169.133L397.551 168.747V168.693L397.392 167.347V167.32V167.266L397.338 166.947C397.631 169.2 397.885 171.44 398.098 173.706Z" fill="#F1692C"/>
<path d="M397.111 165.307C397.018 164.573 396.911 163.867 396.805 163.173C396.658 162.133 396.471 161.093 396.311 160.08C396.311 160.053 396.298 160.027 396.298 160.013C396.605 161.76 396.871 163.547 397.111 165.307Z" fill="#F1692C"/>
<path d="M395.965 158.12L395.831 157.266L395.818 157.213L395.645 156.293V156.266C395.605 156.106 395.578 155.946 395.538 155.773C395.311 154.586 395.058 153.386 394.805 152.2V152.187L394.671 151.573C395.165 153.746 395.591 155.933 395.965 158.12Z" fill="#F1692C"/>
<path d="M165.445 362.507C165.005 362.36 164.551 362.213 164.098 362.08L164.565 362.24L164.765 362.293L165.031 362.373L165.445 362.507Z" fill="#F1692C"/>
<path d="M398.831 189.68C398.831 187.947 398.805 186.24 398.765 184.52L398.725 183.613L398.685 182.693C398.778 185.013 398.831 187.347 398.831 189.68Z" fill="#F1692C"/>
<path d="M187.725 367.827L188.418 367.96L189.751 368.187L191.125 368.387C189.992 368.213 188.858 368.027 187.725 367.827Z" fill="#F1692C"/>
<path d="M398.591 180.747L398.525 179.427L398.511 179.347C398.485 178.747 398.431 178.147 398.391 177.547C398.351 176.907 398.285 176.267 398.231 175.613C398.365 177.32 398.485 179.027 398.591 180.747Z" fill="#F1692C"/>
<path d="M376.405 163.013C365.085 174.613 353.405 186.267 341.365 197.813C320.551 257.747 268.925 303.346 205.418 315.6C197.511 321.786 189.578 327.866 181.658 333.786C186.712 334.186 191.818 334.4 196.951 334.36C293.351 334.066 371.818 258.16 376.405 163.013Z" fill="#F1692C"/>
<path d="M335.978 53.6133C335.218 52.9467 334.458 52.2799 333.685 51.6399C331.311 49.6666 328.871 47.7733 326.405 45.92C325.885 45.5333 325.405 45.1066 324.885 44.7332C324.898 44.7599 324.925 44.7866 324.938 44.8266C335.405 61.9466 343.098 80.9199 347.378 101.173C352.831 96.1066 358.151 91.1332 363.351 86.1999C362.311 83.6532 361.218 81.1333 360.071 78.6533C352.858 69.5333 344.778 61.1733 335.978 53.6133Z" fill="#F1692C"/>
<path d="M394.231 149.627C394.071 148.96 393.925 148.293 393.751 147.613C393.711 147.453 393.671 147.28 393.631 147.106L393.618 147.08L393.391 146.093L393.218 145.48V145.506C393.658 147.253 394.098 148.986 394.485 150.733L394.231 149.627Z" fill="#F1692C"/>
<path d="M106.071 310.133C107.018 309.373 107.938 308.613 108.898 307.853C102.431 305.467 96.1513 302.733 90.0713 299.666C95.2046 303.44 100.551 306.92 106.071 310.133Z" fill="#F1692C"/>
<path d="M203.925 369.88C202.645 369.787 201.378 369.667 200.111 369.56L200.698 369.613L202.058 369.733L203.125 369.813L203.925 369.88Z" fill="#F1692C"/>
<path d="M58.6581 270.387C57.8314 269.693 56.9913 269.013 56.1513 268.333L56.1113 268.32L56.1247 268.333L56.4714 269.013L57.3247 270.72C57.7647 271.6 58.2047 272.507 58.6714 273.387C58.7247 273.52 58.7914 273.64 58.8581 273.76L59.098 274.226L59.1247 274.266L59.4846 274.946C59.8313 275.586 60.1913 276.226 60.5513 276.866C60.9113 277.52 61.2713 278.213 61.6447 278.88C61.6847 278.96 61.738 279.053 61.778 279.133L61.8714 279.293L62.0047 279.533L62.0581 279.6L62.7247 280.733C63.1114 281.426 63.5247 282.08 63.9113 282.746C64.3247 283.413 64.7114 284.106 65.138 284.76L65.2581 285L66.178 286.413C66.6047 287.106 67.0181 287.76 67.4581 288.426L68.2047 289.587L68.298 289.733L68.3513 289.813L68.6846 290.32L68.7513 290.4L69.8314 291.987C70.2847 292.627 70.7513 293.293 71.178 293.933C72.018 295.106 72.8714 296.266 73.738 297.426C74.1914 298.053 74.6447 298.68 75.1113 299.28L75.3513 299.64L75.5647 299.92L75.5914 299.933L76.0581 300.546L76.138 300.64C76.698 301.373 77.298 302.08 77.8846 302.813L79.178 304.44C79.1913 304.453 79.1914 304.466 79.2047 304.48C80.2447 305.746 81.3114 306.973 82.3647 308.24L83.4581 309.48L83.5247 309.56L83.5513 309.6H83.5647L84.098 310.213L84.1647 310.293C85.298 311.546 86.4447 312.8 87.5914 314.026C87.6581 314.093 87.738 314.187 87.8047 314.253V314.266L87.8447 314.28L87.8846 314.333L88.1113 314.573C89.4447 315.973 90.818 317.36 92.2047 318.72L92.618 319.146L92.9113 319.413L92.9513 319.44L93.338 319.8L93.6314 320.066C97.7114 316.826 101.885 313.506 106.071 310.133C100.551 306.92 95.2047 303.44 90.0714 299.666C78.4714 291.173 67.9247 281.333 58.6581 270.387Z" fill="#AB4C1F"/>
<path d="M150.045 356.987L150.618 357.213L150.951 357.333C152.191 357.84 153.458 358.347 154.725 358.827L155.831 359.253C156.605 359.547 157.378 359.787 158.165 360.08L159.125 360.4C159.738 360.627 160.365 360.867 160.991 361.067L161.285 361.173L161.925 361.4L162.138 361.453C162.791 361.667 163.445 361.867 164.098 362.08C164.551 362.213 165.005 362.36 165.445 362.507C165.471 362.52 165.498 362.52 165.525 362.533C165.965 362.667 166.391 362.8 166.831 362.933L168.125 363.32L168.218 363.347L168.565 363.44L169.791 363.787C170.658 364.027 171.525 364.253 172.391 364.493C172.418 364.493 172.431 364.507 172.458 364.507C172.565 364.533 172.671 364.573 172.778 364.6L173.311 364.747L173.818 364.867L175.098 365.2L175.658 365.32C176.698 365.573 177.751 365.827 178.805 366.053L179.311 366.173L180.765 366.48L180.778 366.507L181.551 366.653L181.645 366.68C182.485 366.853 183.338 367.013 184.178 367.187C184.231 367.187 184.298 367.2 184.351 367.213C184.551 367.24 184.738 367.28 184.925 367.32L185.565 367.453L185.765 367.493L186.498 367.627L186.658 367.667L186.818 367.693L187.725 367.827C188.858 368.027 189.991 368.213 191.125 368.387L191.458 368.44L192.205 368.56L193.658 368.773L193.871 368.8C193.911 368.8 193.965 368.813 194.005 368.813C194.085 368.827 194.151 368.827 194.245 368.84C195.311 368.987 196.391 369.12 197.445 369.24L198.271 369.347H198.405L199.658 369.493L199.805 369.52L200.111 369.56C201.378 369.667 202.645 369.787 203.925 369.88L205.191 369.987L205.418 370L206.405 370.08C207.831 370.16 209.258 370.24 210.685 370.293L212.151 370.36L212.765 370.4C214.911 370.467 217.031 370.507 219.191 370.48C318.725 370.187 399.165 289.213 398.831 189.68C398.831 187.347 398.778 185.013 398.685 182.693L398.658 182.427L398.618 181.373L398.591 180.747C398.485 179.027 398.365 177.32 398.231 175.613C398.218 175.52 398.218 175.427 398.218 175.333C398.205 175.267 398.205 175.2 398.205 175.147L398.178 174.747V174.627L398.098 173.707C397.885 171.44 397.631 169.2 397.338 166.947L397.285 166.52L397.258 166.2L397.125 165.427L397.111 165.307C396.871 163.547 396.605 161.76 396.298 160.013L396.218 159.467L396.205 159.427L396.071 158.613L396.058 158.56L396.031 158.427L395.965 158.12C395.591 155.933 395.165 153.747 394.671 151.573L394.645 151.44L394.485 150.733C394.098 148.987 393.658 147.253 393.218 145.507L391.871 146.933C386.791 152.267 381.631 157.64 376.405 163.013C371.818 258.16 293.351 334.067 196.951 334.36C191.818 334.4 186.711 334.187 181.658 333.787C171.058 341.747 160.431 349.453 149.911 356.933L150.031 356.987H150.045Z" fill="#AB4C1F"/>
<path d="M361.312 80.2132L360.151 78.6799L360.005 78.4932L360.018 78.5332L360.072 78.6532C361.218 81.1332 362.311 83.6532 363.351 86.1998L364.338 85.3065L364.792 84.8665C364.112 83.8932 363.378 82.9598 362.672 81.9998L361.312 80.2132Z" fill="#AB4C1F"/>
<path d="M99.4447 70.1999C142.511 28.4799 198.805 16.5999 227.205 44.0266C256.525 72.3733 244.991 131.853 201.471 176.893C157.938 221.96 98.8713 235.533 69.578 207.2C41.1647 179.773 51.098 123.093 91.3113 78.6133C44.738 129.693 33.1114 195.08 65.7914 226.653C99.3914 259.107 167.111 243.56 217.005 191.92C266.911 140.267 280.125 72.08 246.511 39.6133C213.831 8.01332 148.885 21.8799 99.4447 70.1999Z" fill="#FAD370"/>
<path d="M103.458 76.6665C134.632 44.3865 176.938 34.6665 197.938 54.9731C218.938 75.2398 210.671 117.867 179.485 150.12C148.325 182.4 106.018 192.107 85.0048 171.827C64.0182 151.547 72.2715 108.933 103.458 76.6665ZM69.5781 207.2C98.8715 235.533 157.938 221.96 201.471 176.893C244.991 131.853 256.525 72.3732 227.205 44.0265C198.805 16.5999 142.511 28.4798 99.4448 70.1998C98.0448 71.5332 96.6715 72.9598 95.3115 74.3332C93.9515 75.7465 92.6181 77.1732 91.3115 78.6132C51.0981 123.093 41.1648 179.773 69.5781 207.2Z" fill="#FCD57E"/>
<path d="M179.485 150.12C210.671 117.867 218.938 75.2398 197.938 54.9731C176.938 34.6664 134.631 44.3865 103.458 76.6665C72.2714 108.933 64.0181 151.546 85.0047 171.826C106.018 192.106 148.325 182.4 179.485 150.12Z" fill="#FDDD90"/>
<path d="M462.311 61.9598C468.551 52.3865 474.365 42.9465 478.165 32.2265C479.058 29.5198 479.818 26.6931 480.111 23.5331C480.178 21.9065 480.245 20.2664 479.845 18.3731L479.498 17.0132L478.965 15.5731L478.071 13.9064L477.458 13.0931L477.325 12.9198L476.831 12.3331L476.258 11.7865L475.045 10.8132C474.191 10.2532 473.325 9.74643 472.458 9.43976C470.725 8.74643 469.085 8.55988 467.538 8.41321C465.378 8.26654 463.431 8.43982 461.578 8.75983L462.165 8.82648L463.458 9.06647L464.858 9.51984L466.298 10.1998L467.685 11.1598L468.325 11.7465L468.645 12.0799L469.111 12.6398L469.365 13.0132L469.711 13.5198C470.071 14.1065 470.391 14.7864 470.631 15.4398L471.031 16.9198C471.191 17.8665 471.325 18.8664 471.298 19.7064C471.311 21.4798 471.018 22.9598 470.711 24.4532C470.018 27.3465 469.031 29.9198 467.925 32.4265C465.711 37.3865 463.045 42.0398 460.178 46.6265C457.325 51.2132 454.258 55.7065 451.031 60.2132C444.565 69.1866 437.431 78.0532 429.978 87.0132C415.005 104.907 398.538 123.066 380.845 141.173C363.178 159.333 344.631 177.786 325.191 195.906C305.845 214.106 285.751 232.106 265.378 249.8C244.951 267.426 224.231 284.733 203.458 301.28C182.711 317.893 161.778 333.586 141.271 348.48C120.778 363.36 100.405 377.026 80.5114 389.2C70.538 395.266 60.698 401 50.8047 405.987C45.858 408.48 40.8848 410.813 35.8581 412.88C30.7914 414.933 25.7248 416.773 20.1248 417.88C17.2981 418.346 14.3781 418.8 10.7248 418.093C8.95143 417.76 6.72466 416.853 5.018 415.093L4.71136 414.76L4.15133 414.08L3.91136 413.68L3.67138 413.293L3.23141 412.466L2.52477 410.56L2.28466 409.093C2.178 408.347 2.19133 407.653 2.218 406.973L2.00472 407.573C1.28472 410.267 0.671357 413.173 1.11136 416.733L1.43141 418.133C1.52474 418.586 1.61802 419.027 1.91136 419.64L2.71136 421.333L3.24469 422.173L3.37802 422.346C3.55136 422.6 3.16466 422.106 3.818 422.946L4.39144 423.533L5.59143 424.613L6.89808 425.507L8.24469 426.173C11.8847 427.693 15.1647 427.68 18.178 427.52C24.1914 427.04 29.6047 425.453 34.9647 423.653C40.3114 421.827 45.538 419.64 50.7513 417.28C61.1913 412.573 71.5114 406.973 81.938 400.987C101.258 389.827 120.951 377.213 140.711 363.4C142.245 362.32 143.765 361.293 145.298 360.213C146.831 359.133 148.365 358.04 149.911 356.933C160.431 349.453 171.058 341.747 181.658 333.787C189.578 327.867 197.511 321.786 205.418 315.6C206.858 314.466 208.298 313.346 209.738 312.213C231.245 295.306 252.605 277.533 273.645 259.4C294.618 241.2 315.258 222.626 335.071 203.773C337.191 201.773 339.285 199.787 341.365 197.813C353.405 186.267 365.085 174.613 376.405 163.013C381.631 157.64 386.791 152.266 391.871 146.933L393.218 145.506V145.48H393.231C395.818 142.747 398.378 140.026 400.925 137.266C415.445 121.56 429.058 105.84 441.471 90.2532C448.938 80.8265 456.018 71.4932 462.311 61.9598Z" fill="#FABF6C"/>
<path d="M75.0847 314.173L75.4181 313.88L75.4048 313.866L75.0847 314.173Z" fill="#EE3122"/>
<path d="M2.52478 410.56L3.23142 412.467L3.67139 413.293L3.91137 413.68L4.15134 414.08L4.71137 414.76L5.01801 415.093C6.72467 416.853 8.95145 417.76 10.7248 418.093C14.3781 418.8 17.2981 418.347 20.1248 417.88C25.7248 416.773 30.7914 414.933 35.8581 412.88C40.8848 410.813 45.8581 408.48 50.8047 405.987C60.6981 401 70.538 395.267 80.5114 389.2C100.405 377.027 120.778 363.36 141.271 348.48C161.778 333.587 182.711 317.893 203.458 301.28C224.231 284.733 244.951 267.426 265.378 249.8C285.751 232.106 305.845 214.106 325.191 195.906C344.631 177.786 363.178 159.333 380.845 141.173C398.538 123.066 415.005 104.907 429.978 87.0132C437.431 78.0533 444.565 69.1866 451.031 60.2133C454.258 55.7066 457.325 51.2132 460.178 46.6265C463.045 42.0399 465.711 37.3865 467.925 32.4265C469.031 29.9199 470.018 27.3466 470.711 24.4532C471.018 22.9599 471.311 21.4798 471.298 19.7065C471.325 18.8665 471.191 17.8665 471.031 16.9199L470.631 15.4398C470.391 14.7865 470.071 14.1065 469.711 13.5199L469.365 13.0132L469.111 12.6398L468.645 12.0799L468.325 11.7466L467.685 11.1599L466.298 10.1998L464.858 9.51987L463.458 9.0665L462.165 8.82651L461.578 8.75986C460.925 8.67984 460.338 8.67987 459.738 8.6532C456.671 8.6532 454.125 9.27991 451.698 9.94656C450.338 10.3599 449.005 10.7865 447.738 11.2398C449.658 10.6798 451.685 10.1999 454.111 10.0799C455.618 9.99991 457.365 10.1199 459.351 10.8132C460.405 11.2799 461.418 11.8265 462.365 12.7599L462.725 13.0665L463.218 13.7065L463.485 14.0799C463.578 14.1066 464.085 15.0399 464.365 15.6932C464.725 16.5065 464.765 16.9199 464.898 17.4799L465.111 18.9731C465.205 19.9865 465.111 20.7732 465.058 21.6532C464.831 23.2665 464.525 24.7465 464.085 26.0665C463.231 28.7998 462.151 31.2265 460.978 33.6265C456.191 42.9732 450.151 51.5332 443.711 60.2133C437.218 68.8799 430.125 77.4265 422.725 86.1065C407.858 103.386 391.591 121 374.165 138.613C356.751 156.253 338.538 174.24 319.485 191.906C300.498 209.68 280.818 227.24 260.871 244.56C240.898 261.8 220.658 278.746 200.365 295C180.138 311.32 159.725 326.786 139.778 341.466C119.831 356.173 100.018 369.693 80.7248 381.88C71.0448 387.933 61.5381 393.72 51.9648 398.787C47.1914 401.32 42.4047 403.72 37.5513 405.88C32.6713 408.013 27.8448 410.013 22.4981 411.36C19.7914 411.987 17.058 412.6 13.5513 412.307C11.818 412.107 9.65803 411.72 7.57803 410.053L6.85811 409.387L6.52478 409.013C5.65811 407.907 6.21811 408.613 5.99145 408.32L5.47139 407.48C5.13806 406.8 4.85809 406.067 4.63142 405.36C4.45809 404.693 4.45803 404.307 4.37803 403.747L4.29809 402.333L4.39144 401C4.51145 400.253 4.61806 399.427 4.80473 398.733C5.16473 397.293 5.63137 396.013 6.11137 394.813L6.68467 393.507C5.61801 395.533 4.55142 397.667 3.69809 400.027C3.25809 401.32 2.84467 402.64 2.55134 404.107C2.39134 404.827 2.32467 405.667 2.21801 406.44V406.973C2.19134 407.653 2.17801 408.347 2.28467 409.093L2.52478 410.56Z" fill="#EE3122"/>
<path d="M75.538 314.013L75.498 313.96L75.5513 314.027L75.5914 314.08L75.5647 314.027L75.538 314.013Z" fill="#F1692C"/>
<path d="M4.80474 398.733C4.61807 399.427 4.51146 400.253 4.39146 401L4.2981 402.333L4.37804 403.747C4.45804 404.307 4.4581 404.693 4.63143 405.36C4.8581 406.067 5.13807 406.8 5.4714 407.48L5.99146 408.32C6.21812 408.613 5.65812 407.907 6.52479 409.013L6.85812 409.387L7.57804 410.053C9.65804 411.72 11.818 412.107 13.5514 412.307C17.058 412.6 19.7914 411.987 22.4981 411.36C27.8448 410.013 32.6714 408.013 37.5514 405.88C42.4047 403.72 47.1914 401.32 51.9648 398.787C61.5381 393.72 71.0448 387.933 80.7248 381.88C100.018 369.693 119.831 356.173 139.778 341.467C159.725 326.787 180.138 311.32 200.365 295C220.658 278.747 240.898 261.8 260.871 244.56C280.818 227.24 300.498 209.68 319.485 191.907C338.538 174.24 356.751 156.253 374.165 138.613C391.591 121 407.858 103.387 422.725 86.1065C430.125 77.4265 437.218 68.88 443.711 60.2133C450.151 51.5333 456.191 42.9733 460.978 33.6266C462.151 31.2266 463.231 28.7999 464.085 26.0666C464.525 24.7466 464.831 23.2666 465.058 21.6533C465.111 20.7733 465.205 19.9865 465.111 18.9732L464.898 17.48C464.765 16.92 464.725 16.5066 464.365 15.6933C464.085 15.0399 463.578 14.1067 463.485 14.08L463.218 13.7065L462.725 13.0666L462.365 12.7599C461.418 11.8266 460.405 11.28 459.351 10.8133C457.365 10.12 455.618 10 454.111 10.08C451.685 10.2 449.658 10.6799 447.738 11.2399L446.311 11.6666C441.645 13.2133 437.578 15.16 433.671 17.1467C429.778 19.12 426.125 21.1866 422.618 23.2666C420.138 24.7199 417.778 26.1866 415.485 27.6133C416.071 27.28 416.671 26.9199 417.298 26.5999C420.551 24.6266 423.938 22.64 427.525 20.72C431.285 18.7333 435.191 16.7466 439.658 15.1332C441.938 14.3466 444.245 13.5732 447.218 13.3333C448.671 13.2133 450.445 13.2532 452.551 13.9999L454.138 14.8399L455.685 16.1599L456.165 16.7732L456.285 16.9467L456.591 17.3599C456.951 18.0666 457.325 18.9199 457.525 19.5732C458.111 21.8532 457.831 23.5733 457.591 25.12C457.311 26.6933 456.871 27.9999 456.445 29.3065C455.498 31.8799 454.351 34.1866 453.151 36.4399C448.271 45.3732 442.271 53.5732 435.898 61.9332C429.485 70.2932 422.511 78.4932 415.218 86.8666C400.645 103.547 384.711 120.587 367.698 137.64C350.698 154.68 332.951 172.133 314.378 189.28C297.058 205.413 279.125 221.413 261.005 237.227C259.791 238.267 258.605 239.333 257.391 240.387L256.498 241.16C237.325 257.653 217.991 273.933 198.578 289.533C178.925 305.427 159.138 320.507 139.805 334.867C120.498 349.28 101.298 362.56 82.6581 374.547C73.3248 380.507 64.1381 386.24 54.8981 391.293C50.2848 393.813 45.6848 396.227 41.0314 398.413C36.3514 400.6 31.6715 402.64 26.5915 404.133C24.0181 404.84 21.4181 405.533 18.0981 405.507C16.4848 405.48 14.378 405.267 12.1114 403.84L10.5514 402.467L9.96476 401.693L9.83143 401.52L9.60474 401.147L9.19146 400.28L8.79146 399.147C8.49812 398.253 8.5514 397.947 8.4714 397.4C8.33807 396.28 8.49802 395.533 8.55135 394.613C8.69802 393.853 8.84471 393.067 9.04471 392.36C9.43138 391 9.92476 389.773 10.4314 388.587C11.4448 386.267 12.6581 384.253 13.8714 382.253C17.8047 376.04 22.0048 370.653 26.1248 365.64C26.6715 364.92 27.258 364.2 27.818 363.507C26.818 364.653 25.8314 365.827 24.8447 367.027C19.698 373.307 14.3248 380.067 9.45812 388.187C8.49812 389.853 7.55135 391.587 6.68468 393.507L6.11138 394.813C5.63138 396.013 5.16474 397.293 4.80474 398.733Z" fill="#F1692C"/>
<path d="M426.005 22.3599C426.725 22.0399 427.445 21.6932 428.218 21.3999C430.311 20.5332 432.472 19.6799 435.298 19.3065L436.405 19.1732H436.792C438.325 18.7065 439.952 18.3599 441.858 18.1999C443.298 18.1199 445.032 18.1599 447.032 18.8932L448.618 19.68L450.112 20.9332L450.658 21.5999L450.778 21.7866L451.032 22.1065C451.352 22.6399 451.752 23.4799 451.992 24.1999C452.618 26.4799 452.431 28.1866 452.218 29.7332C451.991 31.2932 451.578 32.5733 451.138 33.88C450.258 36.4133 449.165 38.6932 448.005 40.9065C443.312 49.7198 437.498 57.7466 431.312 65.9466C425.098 74.1066 418.312 82.1732 411.232 90.3599C397.045 106.693 381.565 123.32 364.978 140.027C348.405 156.68 331.125 173.747 313.018 190.467C296.138 206.227 278.658 221.813 261.005 237.227C279.125 221.413 297.058 205.413 314.378 189.28C332.952 172.133 350.698 154.68 367.698 137.64C384.712 120.587 400.645 103.547 415.218 86.8665C422.511 78.4932 429.485 70.2932 435.898 61.9332C442.272 53.5732 448.271 45.3732 453.151 36.4398C454.351 34.1865 455.498 31.8799 456.445 29.3065C456.872 27.9999 457.312 26.6933 457.592 25.1199C457.832 23.5733 458.112 21.8532 457.525 19.5732C457.325 18.9199 456.952 18.0666 456.592 17.3599L456.285 16.9466L456.165 16.7732L455.685 16.1599L454.138 14.8399L452.551 13.9999C450.445 13.2532 448.671 13.2132 447.218 13.3332C444.245 13.5732 441.938 14.3465 439.658 15.1332C435.192 16.7466 431.285 18.7333 427.525 20.7199C423.938 22.6399 420.552 24.6266 417.298 26.5999C419.312 25.4932 421.418 24.3999 423.618 23.3599C424.405 23.0266 425.205 22.6932 426.005 22.3599Z" fill="#F3AB4D"/>
<path d="M142.631 332.453C123.751 346.466 104.991 359.373 86.7646 371.013C77.6313 376.813 68.6446 382.36 59.6046 387.24C55.0846 389.706 50.5646 392.026 46.0046 394.133C41.4179 396.24 36.8446 398.2 31.8313 399.586C29.2846 400.253 26.7512 400.92 23.4178 400.813C21.8312 400.72 19.7646 400.506 17.5646 399L16.0712 397.64C15.2446 396.56 15.7646 397.24 15.5646 396.933L15.4445 396.746L15.2313 396.4L15.0313 396.013L14.7913 395.48L14.3913 394.373L14.2445 393.813L14.1913 393.426L14.0979 392.693C13.9513 391.6 14.1113 390.88 14.1646 389.973C14.2979 389.253 14.4312 388.453 14.6178 387.773C14.9778 386.426 15.4445 385.226 15.9512 384.066L16.0445 383.866C16.2179 382.96 16.4445 382.2 16.6845 381.466C17.1378 380.16 17.6579 379.013 18.2046 377.946C19.0179 376.293 19.9379 374.826 20.8712 373.426C21.9646 371.426 23.1913 369.68 24.3913 367.973C24.9646 367.186 25.5513 366.413 26.1246 365.64C22.0046 370.653 17.8046 376.04 13.8712 382.253C12.6579 384.253 11.4446 386.266 10.4313 388.586C9.92459 389.773 9.43121 391 9.04454 392.36C8.84454 393.066 8.69785 393.853 8.55118 394.613C8.49785 395.533 8.3379 396.28 8.47123 397.4C8.55123 397.946 8.49795 398.253 8.79129 399.146L9.19129 400.28L9.60457 401.146L9.83126 401.52L9.96459 401.693L10.5512 402.466L12.1112 403.84C14.3779 405.266 16.4846 405.48 18.0979 405.506C21.4179 405.533 24.018 404.84 26.5913 404.133C31.6713 402.64 36.3513 400.6 41.0313 398.413C45.6846 396.226 50.2846 393.813 54.8979 391.293C64.1379 386.24 73.3246 380.506 82.6579 374.546C101.298 362.56 120.498 349.28 139.805 334.866C159.138 320.506 178.925 305.426 198.578 289.533C217.991 273.933 237.325 257.653 256.498 241.16C237.818 257.226 218.951 273.066 200.031 288.266C180.845 303.773 161.511 318.453 142.631 332.453Z" fill="#F3AB4D"/>
<path d="M364.978 140.027C381.565 123.32 397.045 106.693 411.231 90.3599C418.311 82.1732 425.098 74.1067 431.311 65.9467C437.498 57.7466 443.311 49.7199 448.005 40.9066C449.165 38.6932 450.258 36.4133 451.138 33.88C451.578 32.5733 451.991 31.2932 452.218 29.7332C452.431 28.1866 452.618 26.4799 451.991 24.1999C451.751 23.4799 451.351 22.6399 451.031 22.1065L450.778 21.7866L450.658 21.5999L450.111 20.9332L448.618 19.68L447.031 18.8932C445.031 18.1599 443.298 18.1199 441.858 18.1999C439.951 18.3599 438.325 18.7065 436.791 19.1732H437.685L439.125 19.3333C439.631 19.4266 440.165 19.5199 440.791 19.8399C441.885 20.2132 443.418 21.3865 444.085 22.5065C444.111 22.4799 444.725 23.5332 444.991 24.3999L445.165 25.0266L445.245 25.4533L445.351 26.3333C445.471 28.4532 445.058 29.92 444.698 31.3466C444.258 32.6667 443.791 33.9066 443.271 35.0533C442.218 37.36 441.031 39.4799 439.805 41.5599C429.698 57.7733 416.711 72.8266 402.645 88.5599C388.565 104.213 373.285 120.293 356.965 136.4C340.698 152.493 323.738 168.987 306.031 185.24C288.391 201.573 270.151 217.773 251.738 233.787C233.258 249.733 214.605 265.48 195.911 280.587C177.285 295.773 158.538 310.2 140.271 324C121.991 337.813 103.885 350.627 86.3247 362.28C77.5247 368.093 68.8979 373.653 60.2446 378.68C51.5379 383.653 43.1246 388.333 33.898 391.773C31.5113 392.6 29.1379 393.347 26.1379 393.707C24.6046 393.8 22.9646 394.027 20.4446 393.067C19.2179 392.52 17.8313 391.587 17.0046 390.12L16.7913 389.773L16.2713 388.533L15.9379 387.227L15.8713 386.387C15.8179 385.4 15.9112 384.573 16.0446 383.867L15.9512 384.067C15.4445 385.227 14.9779 386.427 14.6179 387.773C14.4312 388.453 14.298 389.253 14.1646 389.973C14.1113 390.88 13.9513 391.6 14.098 392.693L14.1913 393.427L14.2446 393.813L14.3913 394.373L14.7913 395.48L15.0313 396.013L15.2313 396.4L15.4446 396.747L15.5646 396.933C15.7646 397.24 15.2446 396.56 16.0713 397.64L17.5646 399C19.7646 400.507 21.8312 400.72 23.4179 400.813C26.7512 400.92 29.2846 400.253 31.8313 399.587C36.8446 398.2 41.4179 396.24 46.0046 394.133C50.5646 392.027 55.0846 389.707 59.6046 387.24C68.6446 382.36 77.6313 376.813 86.7646 371.013C104.991 359.373 123.751 346.467 142.631 332.453C161.511 318.453 180.845 303.773 200.031 288.267C218.951 273.067 237.818 257.227 256.498 241.16L257.391 240.387C258.605 239.333 259.791 238.267 261.005 237.227C278.658 221.813 296.138 206.227 313.018 190.467C331.125 173.747 348.405 156.68 364.978 140.027Z" fill="#FABF6C"/>
<path d="M16.6847 381.466C16.4447 382.2 16.2181 382.96 16.0448 383.866C15.9114 384.573 15.8181 385.4 15.8715 386.386L15.9381 387.226L16.2715 388.533L16.7915 389.773L17.0048 390.12C17.8315 391.586 19.2181 392.52 20.4448 393.066C22.9648 394.026 24.6048 393.8 26.1381 393.706C29.1381 393.346 31.5115 392.6 33.8982 391.773C43.1248 388.333 51.5381 383.653 60.2448 378.68C68.8981 373.653 77.5248 368.093 86.3248 362.28C103.885 350.626 121.991 337.813 140.271 324C158.538 310.2 177.285 295.773 195.911 280.586C214.605 265.48 233.258 249.733 251.738 233.786C270.151 217.773 288.391 201.573 306.031 185.24C323.738 168.986 340.698 152.493 356.965 136.4C373.285 120.293 388.565 104.213 402.645 88.5598C416.711 72.8264 429.698 57.7731 439.805 41.5598C441.031 39.4798 442.218 37.3598 443.271 35.0532C443.791 33.9065 444.258 32.6665 444.698 31.3465C445.058 29.9199 445.471 28.4531 445.351 26.3331L445.245 25.4532L445.165 25.0265L444.991 24.3998C444.725 23.5331 444.111 22.4797 444.085 22.5064C443.418 21.3864 441.885 20.2131 440.792 19.8398C440.165 19.5197 439.632 19.4264 439.125 19.3331L437.685 19.1731H436.792H436.405L435.298 19.3064C432.471 19.6797 430.311 20.5331 428.218 21.3998C427.445 21.6931 426.725 22.0398 426.005 22.3598C427.325 21.8531 428.765 21.3864 430.471 21.0397L431.551 20.8799L432.845 20.8398L434.338 20.9731L435.165 21.1331L436.165 21.5064C436.765 21.6931 437.511 22.2398 438.138 22.7998C438.471 23.1864 438.085 22.5998 438.978 23.7598L439.085 23.9465L439.338 24.2931L439.938 25.7064L440.138 26.4398L440.218 26.9198L440.298 28.6132C440.191 30.6399 439.711 31.9464 439.258 33.2397C438.778 34.5064 438.245 35.6265 437.698 36.7465C436.591 38.9332 435.378 40.9332 434.111 42.9465C423.831 58.4932 410.978 73.0931 397.045 88.3865C383.098 103.6 368.045 119.253 351.991 134.947C335.965 150.653 319.311 166.786 301.911 182.653C289.938 193.706 277.631 204.68 265.231 215.6C259.738 220.44 254.258 225.306 248.711 230.133C243.258 234.853 237.752 239.493 232.258 244.16C219.538 254.973 206.791 265.706 194.005 276.08C175.778 291.013 157.458 305.226 139.605 318.84C121.778 332.48 104.098 345.12 87.0181 356.706C78.4447 362.466 70.0715 368.026 61.6715 373.066C53.2181 378.066 45.0715 382.773 36.1915 386.413C33.9248 387.293 31.6582 388.133 28.8582 388.653C27.4315 388.866 25.8981 389.173 23.4715 388.586C22.9515 388.493 22.1247 388.106 21.4847 387.746L20.4448 386.986L19.9648 386.52L19.2715 385.6L19.0847 385.24L18.9514 384.986L18.6715 384.32C18.2981 383.413 18.1115 382.2 18.1648 381.853C18.1382 379.533 18.7115 378.266 19.1648 376.946C19.6582 375.693 20.2048 374.6 20.7781 373.573L20.8715 373.426C19.9381 374.826 19.0181 376.293 18.2048 377.946C17.6581 379.013 17.1381 380.16 16.6847 381.466Z" fill="#EE3122"/>
<path d="M24.3914 367.973C23.1914 369.68 21.9647 371.427 20.8714 373.427L20.778 373.573C20.2047 374.6 19.6581 375.693 19.1647 376.947C18.7114 378.267 18.1381 379.533 18.1647 381.853C18.1114 382.2 18.298 383.413 18.6714 384.32L18.9513 384.987L19.0846 385.24L19.2714 385.6L19.9647 386.52L20.4447 386.987L21.4846 387.747C22.1246 388.107 22.9514 388.493 23.4714 388.587C25.898 389.173 27.4314 388.867 28.8581 388.653C31.6581 388.133 33.9248 387.293 36.1914 386.413C45.0714 382.773 53.218 378.067 61.6714 373.067C70.0714 368.027 78.4446 362.467 87.018 356.707C104.098 345.12 121.778 332.48 139.605 318.84C157.458 305.227 175.778 291.013 194.005 276.08C206.791 265.707 219.538 254.973 232.258 244.16C220.325 254.28 208.365 264.307 196.378 274.04C178.925 288.28 161.365 301.853 144.231 314.84C127.111 327.867 110.151 339.893 93.7248 350.893C85.5114 356.373 77.4447 361.64 69.3647 366.413C61.2314 371.133 53.3781 375.587 44.7647 378.96C43.0314 379.6 41.3248 380.2 39.3248 380.64C37.4048 381.413 35.4314 382.16 33.138 382.707C31.738 382.96 30.378 383.347 28.0447 383.013L27.138 382.813L26.0447 382.4C25.3513 382.133 24.4981 381.467 23.8581 380.76C22.7514 379.253 23.498 380.253 23.218 379.867L23.138 379.707C23.0447 379.547 23.0714 379.653 22.7914 379.013L22.338 377.493L22.2314 376.707V376.293C22.2847 373.92 22.8846 372.747 23.3513 371.467C23.8713 370.267 24.4313 369.227 25.018 368.227C26.1646 366.267 27.4181 364.547 28.6581 362.867C32.6448 357.587 36.7381 352.973 40.7248 348.667L39.578 349.88C35.7513 354.093 31.7513 358.507 27.818 363.507C27.258 364.2 26.6714 364.92 26.1248 365.64C25.5514 366.413 24.9648 367.187 24.3914 367.973Z" fill="#F1692C"/>
<path d="M424.431 24.3999L425.471 24.2133L426.738 24.1199C427.685 24.1199 428.738 24.1465 430.218 24.7732C430.845 24.9865 431.765 25.6932 432.365 26.3065C433.325 27.5865 432.698 26.7466 432.925 27.0799L433.045 27.2266L433.178 27.4266L433.511 28.1866L433.978 29.7599L434.058 30.6932C434.098 31.3466 434.045 31.7999 433.991 32.2533C433.725 34.0799 433.245 35.3866 432.751 36.5466C432.258 37.7599 431.685 38.8266 431.138 39.8932L430.138 41.5866C429.778 42.5066 429.405 43.3999 429.005 44.2266C427.978 46.3732 426.845 48.3199 425.658 50.2665C415.978 65.3199 403.738 79.3999 390.485 94.0932C377.205 108.733 362.845 123.773 347.511 138.84C332.218 153.906 316.298 169.373 299.685 184.6C288.431 195.013 276.885 205.32 265.231 215.6C277.631 204.68 289.938 193.707 301.911 182.653C319.311 166.787 335.965 150.653 351.991 134.947C368.045 119.253 383.098 103.6 397.045 88.3866C410.978 73.0932 423.831 58.4933 434.111 42.9466C435.378 40.9333 436.591 38.9333 437.698 36.7466C438.245 35.6266 438.778 34.5065 439.258 33.2398C439.711 31.9465 440.191 30.6399 440.298 28.6133L440.218 26.9199L440.138 26.4398L439.938 25.7065L439.338 24.2932L439.085 23.9466L438.978 23.7599C438.085 22.5999 438.471 23.1865 438.138 22.7999C437.511 22.2399 436.765 21.6932 436.165 21.5065L435.165 21.1332L434.338 20.9732L432.845 20.8398L431.551 20.8799L430.471 21.0398C428.765 21.3865 427.325 21.8532 426.005 22.3599C425.205 22.6932 424.405 23.0266 423.618 23.3599C421.418 24.3999 419.311 25.4932 417.298 26.5999C416.671 26.9199 416.071 27.2799 415.485 27.6133C411.031 30.1866 406.991 32.8666 403.111 35.4266C401.458 36.5332 399.871 37.6265 398.325 38.7065C404.178 34.7465 410.338 30.5198 417.831 26.8398C419.791 25.9065 421.738 24.9865 424.431 24.3999Z" fill="#F1692C"/>
<path d="M405.525 34.8266C406.485 34.3199 407.471 33.8399 408.538 33.3466L409.565 32.8266C411.445 31.9199 413.298 31.0265 415.885 30.3999L416.898 30.1866L417.245 30.1599C418.551 29.6799 419.938 29.2399 421.605 28.9599L422.658 28.8133L423.885 28.7999L425.325 28.9199L426.098 29.0799L427.045 29.4266L427.938 29.8932L428.898 30.5999L429.351 31.0266L429.965 31.7999L430.205 32.1199L430.392 32.4799L430.711 33.1332L431.138 34.4799L431.311 36.1732C431.285 38.2132 430.845 39.4798 430.445 40.7732L430.138 41.5866L431.138 39.8932C431.685 38.8266 432.258 37.7599 432.751 36.5466C433.245 35.3866 433.725 34.0799 433.992 32.2533C434.045 31.7999 434.098 31.3466 434.058 30.6932L433.978 29.7599L433.511 28.1866L433.178 27.4266L433.045 27.2266L432.925 27.0799C432.698 26.7466 433.325 27.5865 432.365 26.3065C431.765 25.6932 430.845 24.9865 430.218 24.7732C428.738 24.1465 427.685 24.1199 426.738 24.1199L425.471 24.2133L424.431 24.3999C421.738 24.9865 419.791 25.9065 417.831 26.8398C410.338 30.5198 404.178 34.7465 398.325 38.7065L398.058 38.8799C393.632 41.9199 389.511 44.9065 385.645 47.7999C387.431 46.5065 389.245 45.2266 391.138 43.9199C395.511 40.8666 400.152 37.7332 405.525 34.8266Z" fill="#F3AB4D"/>
<path d="M25.018 368.227C24.4314 369.227 23.8714 370.266 23.3514 371.466C22.8847 372.746 22.2848 373.92 22.2314 376.293V376.707L22.3381 377.493L22.7915 379.013C23.0715 379.653 23.0448 379.547 23.1381 379.707L23.218 379.866C23.498 380.253 22.7515 379.253 23.8581 380.76C24.4981 381.467 25.3514 382.133 26.0447 382.4L27.1381 382.813L28.0447 383.013C30.3781 383.347 31.7381 382.96 33.1381 382.707C35.4314 382.16 37.4048 381.413 39.3248 380.64C38.7648 380.76 38.2047 380.88 37.5781 380.96C36.2047 381.133 34.6314 381.386 32.2314 380.666C30.9648 380.173 29.6714 379.626 28.418 377.733L28.2314 377.387L28.0447 376.987L27.7648 376.347L27.4048 374.987L27.3381 374.453L27.3248 374.053C27.2715 371.84 27.778 370.587 28.218 369.307C28.658 368.12 29.1647 367.08 29.6847 366.12C29.9247 365.253 30.2314 364.6 30.4981 363.88C31.0181 362.747 31.578 361.746 32.1514 360.8C32.8714 359.573 33.6581 358.44 34.4447 357.373L34.6847 356.987C35.8447 355.187 37.0714 353.64 38.2847 352.093C41.5514 348.08 44.8181 344.48 48.0447 341.093C49.4047 339.6 50.7781 338.147 52.1381 336.747C49.3914 339.507 46.578 342.4 43.6847 345.48C42.698 346.52 41.7248 347.573 40.7248 348.666C36.7381 352.973 32.6448 357.586 28.6581 362.866C27.4181 364.546 26.1647 366.267 25.018 368.227Z" fill="#F3AB4D"/>
<path d="M265.231 215.6C276.885 205.32 288.431 195.013 299.685 184.6C316.298 169.373 332.218 153.906 347.511 138.84C362.845 123.773 377.205 108.733 390.485 94.0932C403.738 79.3998 415.978 65.3198 425.658 50.2664C426.845 48.3198 427.978 46.3732 429.005 44.2265C429.405 43.3998 429.778 42.5065 430.138 41.5865L430.445 40.7731C430.845 39.4798 431.285 38.2131 431.311 36.1731L431.138 34.4799L430.711 33.1331L430.391 32.4799L430.205 32.1198L429.965 31.7998L429.351 31.0265L428.898 30.5998L427.938 29.8932L427.045 29.4265L426.098 29.0799L425.325 28.9199L423.885 28.7998L422.658 28.8132L421.605 28.9598C419.938 29.2398 418.551 29.6798 417.245 30.1598L418.125 30.0799C419.058 30.0799 420.125 30.0799 421.658 30.7466L422.805 31.4398L423.365 31.9064L424.191 32.8932L424.405 33.1998L424.658 33.7064L424.965 34.4932C425.378 35.8265 425.271 36.2265 425.325 36.8532C425.325 37.4932 425.245 37.8264 425.205 38.3331C424.871 40.0531 424.378 41.2531 423.885 42.3998C423.378 43.5065 422.845 44.5198 422.285 45.5331C421.165 47.5198 419.991 49.3332 418.765 51.1465C408.818 65.3999 396.685 78.9332 383.551 93.0932C370.391 107.2 356.245 121.747 341.178 136.347C326.151 150.947 310.525 165.973 294.245 180.786C278.045 195.667 261.311 210.493 244.445 225.16C227.538 239.733 210.471 254.186 193.431 268.106C176.431 282.08 159.338 295.373 142.725 308.187C126.125 321.013 109.671 332.906 93.8179 343.866C85.8713 349.36 78.098 354.626 70.3247 359.426C62.5114 364.2 54.9513 368.72 46.8313 372.387C44.7647 373.293 42.6713 374.12 40.1779 374.773C38.8579 375.053 37.6047 375.426 35.3913 375.226C34.2713 375.053 32.6713 374.813 31.1113 373.2C30.9913 373.146 29.8313 371.533 30.298 372.173L30.2313 371.987L30.138 371.826L29.9512 371.44L29.458 369.88L29.338 369.066V368.6C29.3513 367.546 29.4979 366.773 29.6846 366.12C29.1646 367.08 28.6579 368.12 28.2179 369.307C27.7779 370.587 27.2713 371.84 27.3247 374.053L27.338 374.453L27.4046 374.987L27.7647 376.346L28.0446 376.987L28.2313 377.387L28.4179 377.733C29.6712 379.626 30.9647 380.173 32.2313 380.666C34.6313 381.386 36.2046 381.133 37.5779 380.96C38.2046 380.88 38.7647 380.76 39.3247 380.64C41.3247 380.2 43.0313 379.6 44.7647 378.96C53.378 375.586 61.2313 371.133 69.3647 366.413C77.4447 361.64 85.5114 356.373 93.7247 350.893C110.151 339.893 127.111 327.867 144.231 314.84C161.365 301.853 178.925 288.28 196.378 274.04C208.365 264.306 220.325 254.28 232.258 244.16C237.751 239.493 243.258 234.853 248.711 230.133C254.258 225.306 259.738 220.44 265.231 215.6Z" fill="#FABF6C"/>
<path d="M29.3381 369.067L29.4582 369.88L29.9514 371.44L30.1381 371.827L30.2315 371.987L30.2982 372.173C29.8315 371.533 30.9914 373.147 31.1114 373.2C32.6714 374.813 34.2715 375.053 35.3915 375.227C37.6049 375.427 38.8581 375.053 40.1781 374.773C42.6714 374.12 44.7648 373.293 46.8315 372.387C54.9515 368.72 62.5115 364.2 70.3249 359.427C78.0982 354.627 85.8714 349.36 93.8181 343.867C109.671 332.907 126.125 321.013 142.725 308.187C159.338 295.373 176.432 282.08 193.432 268.107C210.471 254.187 227.538 239.733 244.445 225.16C261.311 210.493 278.045 195.667 294.245 180.787C310.525 165.973 326.151 150.947 341.178 136.347C356.245 121.747 370.391 107.2 383.551 93.0933C396.685 78.9333 408.818 65.4 418.765 51.1467C419.992 49.3333 421.165 47.5199 422.285 45.5333C422.845 44.5199 423.378 43.5066 423.885 42.3999C424.378 41.2533 424.871 40.0533 425.205 38.3333C425.245 37.8266 425.325 37.4933 425.325 36.8533C425.272 36.2267 425.378 35.8266 424.965 34.4933L424.658 33.7066L424.405 33.1999L424.192 32.8933L423.365 31.9066L422.805 31.4399L421.658 30.7467C420.125 30.08 419.058 30.08 418.125 30.08L417.245 30.1599L416.898 30.1866L415.885 30.3999C413.298 31.0266 411.445 31.92 409.565 32.8266L408.538 33.3467C409.458 32.96 410.445 32.5733 411.605 32.28L412.605 32.0399L413.818 31.88H415.392L416.445 32.08L417.565 32.48L418.925 33.4266C419.298 33.8799 418.925 33.2 419.911 34.5866L420.005 34.7467C420.098 34.8933 420.058 34.7199 420.392 35.5066C420.645 36.0666 420.805 36.6933 420.898 37.32L420.925 38.3066L420.871 39.1999L420.605 40.5066C419.725 43.4932 418.605 45.2533 417.485 47.2133C416.338 49.08 415.152 50.8666 413.898 52.5866C403.898 66.32 391.898 79.5066 378.911 93.2933C365.925 107.027 351.991 121.24 337.151 135.48C322.351 149.76 307.005 164.44 291.018 178.96C275.098 193.533 258.671 208.027 242.138 222.413C225.551 236.733 208.832 250.92 192.125 264.6C175.485 278.333 158.765 291.427 142.511 304.053C126.285 316.693 110.205 328.427 94.7514 339.307C86.9914 344.733 79.4181 349.973 71.8448 354.773C64.2448 359.547 56.8982 364.053 49.0582 367.827C47.0715 368.76 45.0848 369.627 42.7114 370.36C41.5248 370.707 40.3114 371.107 38.3114 371.133L36.5114 370.92L35.2448 370.48L33.9381 369.68L33.2847 369.107C33.1381 368.987 32.0581 367.413 32.4847 368.027L32.3381 367.693C31.9515 367.013 31.5515 365.213 31.6582 364.6C31.8182 362.12 32.4714 361.147 32.9781 359.947C33.4581 358.987 33.9648 358.173 34.4448 357.373C33.6581 358.44 32.8714 359.573 32.1514 360.8C31.5781 361.747 31.0182 362.747 30.4982 363.88C30.2315 364.6 29.9247 365.253 29.6847 366.12C29.4981 366.773 29.3515 367.547 29.3381 368.6V369.067Z" fill="#EE3122"/>
<path d="M31.6581 364.6C31.5515 365.213 31.9514 367.013 32.3381 367.693L32.4847 368.026C32.058 367.413 33.138 368.986 33.2847 369.106L33.9381 369.68L35.2447 370.48L36.5114 370.92L38.3114 371.133C40.3114 371.106 41.5247 370.706 42.7114 370.36C45.0847 369.626 47.0715 368.76 49.0581 367.826C56.8981 364.053 64.2447 359.546 71.8447 354.773C79.4181 349.973 86.9914 344.733 94.7514 339.306C110.205 328.426 126.285 316.693 142.511 304.053C158.765 291.427 175.485 278.333 192.125 264.6C208.831 250.92 225.551 236.733 242.138 222.413C258.671 208.026 275.098 193.533 291.018 178.96C307.005 164.44 322.351 149.76 337.151 135.48C351.991 121.24 365.925 107.026 378.911 93.2932C391.898 79.5065 403.898 66.3199 413.898 52.5865C415.151 50.8665 416.338 49.0799 417.485 47.2132C418.605 45.2532 419.725 43.4931 420.605 40.5064L420.871 39.1998L420.925 38.3065L420.898 37.3199C420.805 36.6932 420.645 36.0664 420.391 35.5064C420.058 34.7198 420.098 34.8932 420.005 34.7466L419.911 34.5865C418.925 33.1999 419.298 33.8798 418.925 33.4265L417.565 32.4799L416.445 32.0799L415.391 31.8799H413.818L412.605 32.0398L411.605 32.2799C410.445 32.5732 409.458 32.9599 408.538 33.3466C407.471 33.8399 406.485 34.3198 405.525 34.8265C400.151 37.7332 395.511 40.8665 391.138 43.9199C394.005 41.9732 397.031 40.0265 400.338 38.1598C402.071 37.2265 403.765 36.2798 406.191 35.5199L407.151 35.2665L408.338 35.0799L409.925 35.0532L411.045 35.2665L412.338 35.7598L413.778 36.8532L414.511 37.8265L414.591 37.9731L414.818 38.4132L415.165 39.3731L415.365 40.3998L415.391 40.9998C415.391 41.6265 415.311 42.3065 415.218 42.6932L414.898 43.9199C414.431 45.3599 413.911 46.3732 413.351 47.4132C412.818 48.3865 412.258 49.3198 411.698 50.1998C410.538 51.9998 409.365 53.7065 408.125 55.3865C398.218 68.5865 386.485 81.3865 373.805 94.7598C361.085 108.093 347.405 121.813 332.991 135.733C325.805 142.706 318.418 149.693 310.898 156.747C303.391 163.827 295.725 170.907 287.965 177.947C272.431 192.133 256.445 206.253 240.325 220.266C224.151 234.2 207.885 248.04 191.645 261.36C183.538 268.066 175.445 274.613 167.378 281.04C159.338 287.48 151.351 293.813 143.418 299.92C127.591 312.173 112.045 323.773 97.0047 334.413C89.4847 339.72 82.1115 344.84 74.7915 349.546C67.4315 354.266 60.2981 358.72 52.7781 362.506C50.8581 363.44 48.9514 364.333 46.6981 365.106C45.5781 365.493 44.4048 365.88 42.5648 366.04C41.7514 366.053 40.2581 366.2 38.2981 365.066L37.5514 364.48C37.0714 363.946 37.5648 364.813 36.3648 363.066L36.218 362.76L36.0047 362.28L35.7381 361.36L35.5781 360.4L35.5514 359.6L35.8047 358L36.1781 356.866C36.4581 356.213 36.7248 355.56 36.9915 355.053C37.5648 354.013 38.1515 353.093 38.7248 352.24C39.8848 350.52 41.1114 349.026 42.3114 347.546C44.2314 345.266 46.1114 343.16 48.0447 341.093C44.8181 344.48 41.5514 348.08 38.2847 352.093C37.0714 353.64 35.8447 355.187 34.6847 356.987L34.4447 357.373C33.9647 358.173 33.4581 358.986 32.9781 359.946C32.4714 361.146 31.8181 362.12 31.6581 364.6Z" fill="#F1692C"/>
<path d="M56.538 351.187V351.2V351.187ZM58.5247 347.093L58.5513 347.04L58.498 347.253L58.5247 347.093ZM394.285 55.8398H394.445H394.285H394.218H394.285ZM398.631 54.4266H398.791H398.565H398.631ZM408.938 44.1866L409.138 44.1732L408.951 44.1866H408.938H408.925H408.938ZM44.8846 360.133L44.938 359.96L44.8846 360.133ZM42.3113 347.547C41.1113 349.027 39.8847 350.52 38.7247 352.24C38.1514 353.093 37.5647 354.013 36.9914 355.053C36.7247 355.56 36.458 356.213 36.178 356.867L35.8047 358L35.5513 359.6L35.578 360.4L35.738 361.36L36.0047 362.28L36.2179 362.76L36.3647 363.067C37.5647 364.813 37.0713 363.947 37.5513 364.48L38.298 365.067C40.258 366.2 41.7513 366.053 42.5647 366.04C44.4047 365.88 45.578 365.493 46.698 365.107C48.9513 364.333 50.858 363.44 52.778 362.507C60.298 358.72 67.4314 354.267 74.7914 349.547C82.1114 344.84 89.4846 339.72 97.0047 334.413C112.045 323.773 127.591 312.173 143.418 299.92C151.351 293.813 159.338 287.48 167.378 281.04C175.445 274.613 183.538 268.067 191.645 261.36C207.885 248.04 224.151 234.2 240.325 220.267C256.445 206.253 272.431 192.133 287.965 177.947C295.725 170.907 303.391 163.827 310.898 156.747C318.418 149.693 325.805 142.707 332.991 135.733C347.405 121.813 361.085 108.093 373.805 94.7599C386.485 81.3866 398.218 68.5866 408.125 55.3866C409.365 53.7066 410.538 51.9999 411.698 50.1999C412.258 49.3199 412.818 48.3866 413.351 47.4133C413.911 46.3733 414.431 45.3599 414.898 43.9199L415.218 42.6932C415.311 42.3065 415.391 41.6265 415.391 40.9999L415.365 40.3999L415.165 39.3732L414.818 38.4133L414.591 37.9732L414.511 37.8266L413.778 36.8532L412.338 35.7599L411.045 35.2665L409.925 35.0533L408.338 35.08L407.151 35.2665L406.191 35.5199C403.765 36.2799 402.071 37.2266 400.338 38.1599C397.031 40.0266 394.005 41.9733 391.138 43.9199C389.245 45.2266 387.431 46.5065 385.645 47.7999C384.645 48.5065 383.685 49.1999 382.711 49.9199C375.658 55.0933 367.658 61.2532 361.951 65.8665L360.911 66.7199C362.218 67.4933 363.231 68.7599 363.711 70.1999L364.938 69.3866C371.005 65.4132 379.298 60.0399 386.498 55.5732C391.271 52.6932 396.405 49.6399 401.765 47.0266C401.231 47.7199 400.658 48.3733 400.098 49.0533C395.098 54.9066 389.338 60.8399 383.311 66.8532C379.578 70.5599 375.738 74.3466 371.791 78.1599C369.485 80.3732 367.165 82.5999 364.805 84.8266L364.791 84.8665L364.338 85.3065L363.351 86.1999C358.151 91.1332 352.831 96.1065 347.378 101.173C339.245 108.707 330.831 116.4 322.205 124.2C315.978 129.827 309.618 135.507 303.218 141.253C302.031 142.333 300.845 143.4 299.658 144.48C291.991 151.28 284.231 158.147 276.418 165.08C260.711 178.893 244.765 192.933 228.671 206.813C212.645 220.773 196.471 234.56 180.591 248.133C172.738 254.773 164.978 261.333 157.271 267.84L156.858 268.2C148.991 274.76 141.218 281.24 133.578 287.627C125.205 294.56 116.978 301.307 108.898 307.853C107.938 308.613 107.018 309.373 106.071 310.133C101.885 313.507 97.7113 316.827 93.6313 320.067V320.107H93.6047C92.0847 321.293 90.5513 322.533 89.0313 323.72C88.0313 324.52 87.0447 325.267 86.0713 326.067C79.938 330.853 73.9113 335.427 68.0313 339.8C61.578 344.573 55.1913 349.16 49.0179 352.893L49.1247 352.72C53.1514 347 57.5247 341.653 61.658 336.733C66.8847 330.573 73.5247 322.96 78.0713 317.8L78.458 317.387L75.978 314.533L75.8846 314.4L75.8313 314.333L75.5914 314.08L75.5513 314.027L75.498 313.96L75.4713 313.947L75.4313 313.867L75.4179 313.88L75.0846 314.173L74.978 314.293C69.818 319.053 62.538 326.227 56.6446 332.133C55.178 333.64 53.658 335.187 52.138 336.747C50.778 338.147 49.4046 339.6 48.0446 341.093C46.1113 343.16 44.2313 345.267 42.3113 347.547Z" fill="#F3AB4D"/>
<path d="M44.8848 360.133L44.9382 359.96" stroke="#F3AB4D" stroke-linecap="round" stroke-linejoin="round"/>
<path d="M409.138 43.1732L408.938 43.1866H408.951L409.138 43.1732Z" fill="#F3AB4D"/>
<path d="M408.938 44.1866H408.925" stroke="#F3AB4D" stroke-linecap="round" stroke-linejoin="round"/>
<path d="M56.5381 351.187V351.2" stroke="#FABF6C" stroke-linecap="round" stroke-linejoin="round"/>
<path d="M398.565 54.4266H398.791" stroke="#FABF6C" stroke-linecap="round" stroke-linejoin="round"/>
<path d="M58.5247 347.093L58.498 347.253L58.5513 347.04L58.5247 347.093Z" fill="#EE3122"/>
<path d="M394.218 55.8399H394.445" stroke="#EE3122" stroke-linecap="round" stroke-linejoin="round"/>
<path d="M60.6582 344.146L60.6982 343.96L60.6848 344.013L60.6582 344.146Z" fill="#F1692C"/>
<path d="M390.925 57.4933L390.845 57.5333L391.071 57.4933H390.925Z" fill="#F1692C"/>
<path d="M64.1914 340.107L64.2447 339.893L64.218 339.96L64.1914 340.107Z" fill="#F3AB4D"/>
<path d="M386.405 60.4398L386.325 60.4665L386.551 60.4265L386.405 60.4398Z" fill="#F3AB4D"/>
</svg>
