<svg width="479" height="474" viewBox="0 0 479 474" fill="none" xmlns="http://www.w3.org/2000/svg">
<path d="M42.601 243.124C43.7299 242.307 44.945 241.817 46.2239 241.728C42.6976 233.068 40.6447 223.577 39.9689 213.491C38.5399 226.191 39.8842 236.069 42.601 243.124Z" fill="#B2CEE4"/>
<path d="M54.0087 371.622C54.2947 372.011 54.564 372.428 54.8528 372.802L54.8861 372.83C54.5862 372.428 54.3002 372.025 54.0087 371.622Z" fill="#B2CEE4"/>
<path d="M230.293 464.359L231.889 464.399L230.323 464.359H230.293Z" fill="#B2CEE4"/>
<path d="M456.641 177.8L456.322 176.609L456.367 176.805L456.641 177.8Z" fill="#B2CEE4"/>
<path d="M461.928 202.916C461.912 202.811 461.892 202.707 461.876 202.602L461.91 202.826L461.928 202.916Z" fill="#B2CEE4"/>
<path d="M461.084 197.722L460.94 196.93L461.031 197.483L461.084 197.722Z" fill="#B2CEE4"/>
<path d="M452.971 165.574C452.939 165.483 452.908 165.377 452.874 165.286L452.961 165.544L452.971 165.574Z" fill="#B2CEE4"/>
<path d="M454.36 169.917L454.522 170.387C454.204 169.373 453.872 168.328 453.542 167.329C453.777 168.056 453.997 168.752 454.211 169.463L454.36 169.917Z" fill="#B2CEE4"/>
<path d="M456.141 175.961L456.18 176.067C456.011 175.463 455.828 174.844 455.653 174.24L455.718 174.467L456.141 175.961Z" fill="#B2CEE4"/>
<path d="M455.206 172.732L455.017 172.067L455.167 172.626L455.206 172.732Z" fill="#B2CEE4"/>
<path d="M163.577 452.238L163.292 452.145L164.449 452.56L163.876 452.345L163.577 452.238Z" fill="#B2CEE4"/>
<path d="M180.096 457.23L181.551 457.591L180.537 457.337L180.096 457.23Z" fill="#B2CEE4"/>
<path d="M164.465 452.579L165.206 452.807L164.984 452.74L164.465 452.579Z" fill="#B2CEE4"/>
<path d="M219.353 463.786L220.151 463.826L219.923 463.813L219.353 463.786Z" fill="#B2CEE4"/>
<path d="M201.718 276.773C191.199 278.208 183.884 287.877 180.746 296.445C179.189 300.721 178.208 305.2 177.618 309.607C174.166 307.07 171.874 303.345 168.672 300.547C165.644 297.909 162.956 295.459 158.999 293.864C155.076 292.284 151.579 291.458 147.228 291.081C139.639 290.385 131.936 291.458 124.283 292.125C118.685 292.603 112.551 293.502 107.127 295.125C110.03 292.516 112.909 290.197 115.242 287.124C97.7794 286.602 81.8437 281.615 68.9435 271.801C74.4057 283.601 80.6681 297.285 88.9251 309.825C90.6009 310.941 92.2172 311.84 93.719 312.492C97.8766 314.348 101.846 315.203 105.445 315.493C105.88 319.74 104.833 322.842 105.3 326.988C105.607 329.511 105.906 331.917 106.777 334.628C107.29 335.208 107.789 335.831 108.302 336.44C114.324 336.918 120.405 337.165 126.565 337.165C173.186 337.165 216.515 323.118 252.588 299.054C251.749 298.663 250.789 298.344 249.522 298.083C245.792 297.256 243.435 297.198 240.397 294.691C237.732 292.502 236.29 290.008 232.795 289.298C228.947 288.515 228.124 290.139 225.129 287.065C222.972 284.877 222.27 281.789 220.608 279.296L219.763 278.208L218.541 277.802C213.118 276.193 207.512 275.99 201.718 276.773Z" fill="#B2CEE4"/>
<path d="M185.165 458.469L186.09 458.669L185.405 458.496L185.165 458.469Z" fill="#B2CEE4"/>
<path d="M451.355 160.862C451.128 160.209 450.907 159.571 450.667 158.918L451.077 160.118L451.355 160.862Z" fill="#B2CEE4"/>
<path d="M273.9 237.73C273.9 237.001 273.92 236.286 273.937 235.557C270.016 227.327 265.104 219.855 259.309 213.709C257.633 211.908 255.893 210.271 254.119 208.753C249.84 214.423 245.219 220.019 240.238 225.436C231.975 234.426 223.225 242.463 214.167 249.607C213.271 255.634 214.149 261.915 216.676 267.094C218.364 267.556 220.195 267.823 222.171 268.002C229.299 268.672 235.247 272.288 241.29 276.143C247.024 279.789 249.487 278.48 256.042 277.527C263.207 276.5 269.968 276.322 276.889 278.688L278.212 279.15L278.602 278.822C275.516 265.933 273.9 252.033 273.9 237.73Z" fill="#B2CEE4"/>
<path d="M22.6125 307.774C24.8975 309.03 26.5625 307.242 28.2243 306.598C30.2581 305.825 31.9924 304.843 33.1421 301.864C33.4867 300.785 34.8635 296.985 35.5399 292.83C33.395 280.608 33.3772 269.336 34.8458 260.48C35.0068 256.229 35.1695 251.865 35.4432 247.179C36.0326 236.342 37.5914 223.798 39.8731 212.107C38.8458 193.267 42.646 172.51 50.9808 151.673C50.5316 151.045 50.1693 150.369 49.8955 149.628C49.3963 148.292 49.1741 146.858 49.1741 145.345C49.195 142.43 50.0066 139.242 51.4752 136.037C52.9631 132.833 55.1047 129.548 57.8342 126.488C58.4912 125.764 59.1723 125.071 59.8486 124.411C59.3478 122.688 59.1015 120.868 59.1015 118.92C59.1063 114.315 60.4203 109.194 62.8164 103.944C65.2141 98.711 68.7213 93.3488 73.2156 88.3086C78.1221 82.8336 83.5391 78.4697 88.9174 75.4424C94.3022 72.4312 99.6435 70.7405 104.502 70.7083C106.069 70.7083 107.587 70.9014 109.03 71.304C116.479 64.8145 124.179 59.0014 132.025 53.8647C131.823 53.0273 131.69 52.2061 131.693 51.3687C131.693 48.3575 132.838 45.3464 134.736 42.4479C136.636 39.5816 139.353 36.8601 142.725 34.5413C147.799 31.0953 153.346 29.2757 158.251 29.2596C160.225 29.2757 162.097 29.5656 163.799 30.2258C165.493 30.9021 167.019 31.9648 168.158 33.4141C168.573 33.9616 168.897 34.5413 169.177 35.1532C190.36 27.4883 211.271 25.0246 229.786 28.2774C231.754 27.0053 233.767 25.7976 235.872 24.7348C246.234 19.3726 258.024 16.3129 269.496 16.3129C273.315 16.3129 277.109 16.6349 280.8 17.3596C289.887 19.147 297.201 22.9956 302.275 28.3417C307.357 33.6718 310.123 40.5155 310.123 47.8583C310.123 54.0096 308.212 60.5151 304.315 66.9079C300.482 73.188 295.102 78.6953 288.829 83.2685C292.426 97.5355 292.687 113.509 289.784 130.192C293.829 130.933 297.656 132.462 301.189 134.54C301.444 133.718 301.679 132.897 301.924 132.076C305.83 118.598 308.642 102.704 309.044 88.5179C308.659 105.877 316.067 119.725 327.116 129.403C331.463 127.938 335.931 127.213 340.491 127.213C344.741 127.213 348.923 127.873 352.997 129.129C353.53 122.801 353.815 116.392 353.815 109.902C353.815 83.687 349.358 58.4862 341.182 35.0566C310.031 19.0021 274.699 9.93625 237.235 9.93625C111.721 9.93625 9.97021 111.69 9.97021 237.195C9.97021 263.475 14.5112 288.66 22.7156 312.121C27.9071 314.794 33.2243 317.226 38.6316 319.513C32.395 313.442 27.4385 310.028 22.6125 307.774Z" fill="#B2CEE4"/>
<path d="M29.0161 328.352C26.9645 323.682 25.1323 318.899 23.3982 314.072C25.1323 318.899 26.9702 323.682 29.0161 328.352Z" fill="#B2CEE4"/>
<path d="M419.52 101.507C418.912 100.698 418.321 99.8891 417.705 99.0646L418.296 99.8736C418.704 100.418 419.113 100.962 419.52 101.507Z" fill="#B2CEE4"/>
<path d="M415.968 96.8531L416.194 97.1495L416.832 97.9293C415.369 96.0577 413.909 94.2328 412.401 92.3924C413.617 93.8585 414.798 95.3871 415.987 96.8688L415.968 96.8531Z" fill="#B2CEE4"/>
<path d="M35.7583 342.413C36.7146 344.241 37.6835 346.041 38.6764 347.827C37.7876 346.224 36.9157 344.593 36.0649 342.975L35.7583 342.413Z" fill="#B2CEE4"/>
<path d="M450.576 158.706L450.186 157.658L450.301 157.977L450.576 158.706Z" fill="#B2CEE4"/>
<path d="M45.7894 359.647C46.3184 360.485 46.8278 361.308 47.368 362.132L47.1279 361.755C46.6715 361.057 46.2375 360.345 45.7894 359.647Z" fill="#B2CEE4"/>
<path d="M38.7811 347.998L39.1894 348.728L39.021 348.391L38.7811 347.998Z" fill="#B2CEE4"/>
<path d="M447.249 150.233L447.457 150.722C446.702 148.905 445.937 147.102 445.144 145.27L445.43 145.957C446.042 147.362 446.664 148.798 447.249 150.233Z" fill="#B2CEE4"/>
<path d="M442.722 139.994C442.391 139.305 442.039 138.6 441.702 137.88L442.163 138.876L442.722 139.994Z" fill="#B2CEE4"/>
<path d="M431.88 119.884C431.485 119.22 431.1 118.556 430.697 117.907L431.212 118.772C431.436 119.127 431.656 119.498 431.88 119.884Z" fill="#B2CEE4"/>
<path d="M441.063 136.623L440.827 136.163L440.959 136.424L441.063 136.623Z" fill="#B2CEE4"/>
<path d="M426.01 110.635C425.179 109.41 424.317 108.201 423.464 106.976C423.951 107.674 424.441 108.371 424.926 109.1L426.01 110.635Z" fill="#B2CEE4"/>
<path d="M429.531 116.081L429.824 116.546C428.74 114.781 427.624 113.078 426.486 111.344L426.752 111.778C427.706 113.186 428.635 114.61 429.531 116.081Z" fill="#B2CEE4"/>
<path d="M437.106 129.013L437.673 130.03C436.573 127.951 435.442 125.917 434.273 123.884L435.255 125.671C435.886 126.764 436.496 127.874 437.106 129.013Z" fill="#B2CEE4"/>
<path d="M39.9698 213.476C40.6455 223.562 42.6996 233.057 46.225 241.718H47.2977C52.2865 242.102 56.5677 247.402 60.9929 255.503C62.024 254.798 62.9478 253.822 63.7066 252.589C66.4028 249.083 68.8331 243.96 71.5805 239.477C70.3589 245.497 68.7227 250.524 67.8837 256.287C67.3121 260.178 67.1761 264.293 67.4546 268.567C67.9558 269.624 68.4489 270.713 68.9436 271.801C81.8447 281.616 97.7797 286.595 115.242 287.123L115.487 286.819C119.027 281.968 119.73 275.452 119.502 270.04L119.437 269C115.553 266.406 111.979 263.412 108.857 260.05C101.411 252.077 97.6692 243.175 97.6692 234.658C97.6692 228.686 99.5392 222.938 103.158 218.039C106.777 213.092 112.104 209.025 118.944 206.175C125.783 203.326 133.404 201.997 141.212 201.997L142.245 202.029C142.5 200.924 142.895 199.867 143.439 198.907C144.376 197.258 145.682 195.849 147.253 194.68C150.391 192.326 154.562 190.982 159.129 190.982C162.546 190.982 165.742 191.766 168.451 193.111C171.158 194.472 173.401 196.441 174.808 198.907C175.732 200.524 176.272 202.397 176.272 204.35C176.272 206.287 175.732 208.145 174.808 209.794L174.68 209.97C181.56 213.428 187.823 217.879 192.882 223.306C193.862 224.363 194.773 225.452 195.623 226.508L195.891 226.492C197.28 227.037 199.871 228.205 202.002 228.798C205.431 229.742 208.805 230.015 212.434 230.079C219.003 230.191 226.525 229.502 232.969 227.933C221.699 230.751 215.633 239.845 214.17 249.595C223.227 242.455 231.976 234.417 240.241 225.436C245.221 220.008 249.842 214.421 254.122 208.737C244.624 200.54 233.729 195.625 222.101 191.942C227.572 193.911 234.639 192.823 240.358 192.807C242.817 192.791 245.194 192.743 247.54 192.583C245.735 187.299 244.746 181.52 244.746 175.5C244.746 162.932 249.003 151.516 256.006 143.207C262.975 134.882 272.766 129.614 283.633 129.614C285.732 129.614 287.785 129.806 289.784 130.175C292.689 113.508 292.428 97.5296 288.83 83.2645C285.86 85.4259 282.69 87.4112 279.357 89.1403C275.571 91.0936 271.602 92.7105 267.529 94.0394C268.355 97.2574 269.81 100.588 271.861 103.341C264.294 93.335 238.635 97.4175 227.591 105.967C224.27 108.529 221.802 111.491 219.23 114.324C219.354 111.843 220.809 109.297 221.47 106.8C222.343 103.469 221.842 100.38 220.341 97.3856C217.607 92.0061 207.279 90.213 198.516 90.4532C194.155 90.5652 189.666 91.0615 185.301 91.7179C187.348 89.2843 190.679 87.187 192.999 84.8175C195.194 82.5601 197.229 80.5427 198.26 78.0291C199.294 75.5475 199.672 73.4342 199.495 70.9846C199.21 66.7099 197.178 62.7553 195.578 58.7367C194.39 55.8069 192.745 52.6689 190.466 50.0912C193.468 51.0998 196.176 52.2047 199.632 52.749C202.197 53.1492 205.069 53.1012 207.948 52.7649C208.758 50.8117 209.727 48.8904 210.903 46.9692C215.412 39.5724 222.043 33.2484 229.786 28.2692C211.273 25.0192 190.361 27.4848 169.177 35.1377C169.795 36.4666 170.101 37.9074 170.101 39.3643C170.093 42.3582 168.963 45.3522 167.067 48.25C165.149 51.1319 162.447 53.8537 159.07 56.1432C153.997 59.5854 148.443 61.4265 143.543 61.4425C141.589 61.4425 139.698 61.1383 138.004 60.4819C136.296 59.7935 134.775 58.7688 133.644 57.2799C132.852 56.2552 132.333 55.0704 132.026 53.8536C124.179 58.9929 116.481 64.8046 109.03 71.3048C111.012 71.8492 112.825 72.7778 114.363 74.1386L115.716 75.5957C116.981 75.6117 118.236 75.4676 119.502 75.1634C123.081 74.3308 126.978 72.6338 130.09 70.2322C120.263 78.0132 124.887 103.598 133.684 114.437C136.328 117.687 139.328 120.088 142.232 122.618C139.738 122.554 137.154 121.145 134.65 120.536C131.324 119.736 128.226 120.312 125.284 121.865C120.866 124.235 119.041 131.728 118.788 139.22C119.216 139.765 119.598 140.341 119.898 140.949C120.628 142.406 120.951 143.975 120.951 145.576C120.951 147.514 120.45 149.467 119.502 151.324C119.762 153.229 120.048 155.135 120.385 157.024C119.406 156.255 118.475 155.263 117.58 154.254C116.93 155.023 116.209 155.759 115.404 156.479C111.552 159.794 106.665 161.507 102.027 161.523C98.87 161.523 95.7592 160.722 93.2776 158.849C91.8943 157.808 90.8152 156.511 90.1076 155.071C89.4063 153.63 89.0413 152.045 89.0413 150.46C89.0621 149.051 89.3215 147.674 89.8226 146.297C88.9372 146.697 88.0599 147.097 87.1713 147.466C84.2606 148.714 81.1754 150.428 78.6346 152.765C79.5904 149.755 80.6231 147.017 81.0986 143.543C81.2267 142.599 81.2731 141.622 81.2795 140.613C80.3365 141.974 79.3118 143.303 78.1351 144.648C75.154 147.978 71.8463 150.636 68.5401 152.477C65.2276 154.334 61.9087 155.439 58.7835 155.439C56.406 155.439 54.0669 154.766 52.2737 153.149L50.9817 151.676C42.6467 172.506 38.8475 193.255 39.8738 212.099C40.1716 210.61 40.4645 209.137 40.7751 207.696C40.4325 209.698 40.1844 211.603 39.9698 213.476Z" fill="#DAE3EB"/>
<path d="M445.141 145.288L444.668 144.218C444.524 143.897 444.374 143.591 444.229 143.27C444.62 144.172 445.025 145.059 445.427 145.976L445.141 145.288Z" fill="#82B8E2"/>
<path d="M142.667 443.908C143.33 444.203 143.988 444.512 144.647 444.781L143.22 444.136L142.667 443.908Z" fill="#82B8E2"/>
<path d="M147.412 446.021C147.942 446.25 148.467 446.478 148.999 446.693C147.754 446.183 146.535 445.632 145.298 445.081C146.001 445.404 146.702 445.726 147.412 446.021Z" fill="#82B8E2"/>
<path d="M153.475 448.528L155.01 449.119L156.018 449.508C154.034 448.729 152.067 447.965 150.112 447.146C151.228 447.616 152.354 448.072 153.475 448.528Z" fill="#82B8E2"/>
<path d="M447.453 150.734L447.642 151.222L448.031 152.167L447.453 150.734L447.246 150.247L447.453 150.734Z" fill="#82B8E2"/>
<path d="M451.075 160.126L450.665 158.926L450.575 158.713L450.3 157.983C450.561 158.682 450.814 159.412 451.075 160.126Z" fill="#82B8E2"/>
<path d="M136.807 441.104C137.243 441.319 137.679 441.548 138.119 441.763C138.783 442.1 139.458 442.369 140.114 442.705L141.329 443.271C140.341 442.813 139.374 442.328 138.393 441.857C137.856 441.602 137.334 441.346 136.807 441.104Z" fill="#82B8E2"/>
<path d="M455.716 174.49L455.651 174.248L455.202 172.738L455.163 172.632C455.353 173.251 455.548 173.871 455.716 174.49Z" fill="#82B8E2"/>
<path d="M231.889 464.399C233.67 464.439 235.462 464.466 237.235 464.466C234.922 464.466 232.623 464.426 230.323 464.359L231.889 464.399Z" fill="#82B8E2"/>
<path d="M161.641 451.562C160.302 451.08 158.959 450.624 157.621 450.101L158.458 450.437C159.081 450.651 159.698 450.865 160.329 451.107C161.316 451.469 162.302 451.817 163.291 452.152L163.577 452.246C162.928 452.018 162.29 451.777 161.641 451.562Z" fill="#82B8E2"/>
<path d="M171.105 454.687L171.311 454.754L171.242 454.727L171.105 454.687Z" fill="#82B8E2"/>
<path d="M457.768 182.166L457.619 181.564L457.73 182.031L457.768 182.166Z" fill="#82B8E2"/>
<path d="M164.985 452.731L165.207 452.798C166.286 453.173 167.351 453.521 168.416 453.842L170.039 454.378L170.565 454.511C169.67 454.244 168.778 453.949 167.889 453.655C166.922 453.347 165.94 453.052 164.985 452.731Z" fill="#82B8E2"/>
<path d="M352.995 129.141C361.5 131.773 369.516 137.052 376.712 144.771C381.958 144.165 387.017 142.857 391.64 140.768C395.13 139.205 398.487 137.323 401.761 135.25C397.001 105.952 386.659 78.5522 371.829 54.1508C375.68 56.9896 379.419 59.9721 383.079 63.0342C382.132 62.2368 381.227 61.3755 380.266 60.61L379.215 59.7647C377.454 58.3453 375.674 56.9417 373.867 55.602L373.668 55.4267C371.743 53.9913 369.783 52.5718 367.8 51.1842L366.936 50.5623C365.215 49.3821 363.488 48.2178 361.733 47.0695L360.81 46.4476C358.764 45.1398 356.725 43.832 354.638 42.588L354.612 42.5561C352.62 41.3599 350.592 40.1797 348.545 39.0473L347.41 38.3935C345.357 37.2612 343.303 36.1607 341.225 35.0921L341.18 35.0602C349.357 58.4888 353.815 83.7036 353.815 109.907C353.815 116.382 353.529 122.81 352.995 129.141Z" fill="#82B8E2"/>
<path d="M416.061 97.0385L415.988 96.8649C414.8 95.3831 413.619 93.854 412.402 92.3879L412.358 92.3405C410.889 90.5591 409.389 88.8092 407.868 87.0909L406.881 86.0032C405.453 84.3794 404.01 82.7871 402.522 81.2579L402.139 80.8323C400.509 79.1139 398.84 77.4114 397.143 75.7246L396.339 74.9364C394.876 73.5018 393.409 72.1145 391.914 70.7115L390.998 69.8601C389.189 68.2048 387.276 66.6599 385.411 65.0519C396.618 74.6999 406.908 85.4041 416.061 97.0385Z" fill="#82B8E2"/>
<path d="M173.057 455.252L174.803 455.774L176.096 456.122L177.069 456.389C176.396 456.202 175.719 456.001 175.037 455.801C174.374 455.627 173.704 455.466 173.057 455.252Z" fill="#82B8E2"/>
<path d="M74.8221 374.712C85.5017 380.127 96.6686 384.743 108.252 388.434C105.957 386.425 103.599 384.344 101.19 382.221C85.0856 374.014 67.7219 360.221 55.2954 340.7C52.9044 337.351 50.787 333.875 48.8378 330.384C46.2972 327.619 43.9005 324.983 41.6862 322.604C40.6332 321.506 39.6187 320.481 38.6327 319.512C33.2238 317.232 27.9075 314.781 22.7152 312.116C22.9446 312.772 23.164 313.413 23.3991 314.069C25.1332 318.885 26.9657 323.672 29.0175 328.346L29.0489 328.417C30.0506 330.711 31.1905 332.891 32.2591 335.143C33.2409 335.955 34.2369 336.767 35.2343 337.579C46.8956 351.458 60.1927 363.94 74.8221 374.712Z" fill="#82B8E2"/>
<path d="M278.603 278.821L278.213 279.154L278.421 279.24L278.688 279.154L278.603 278.821Z" fill="#82B8E2"/>
<path d="M36.0648 342.978C36.9168 344.595 37.7871 346.226 38.6757 347.828L38.7797 347.997L39.0201 348.391C38.0065 346.619 37.0251 344.791 36.0648 342.978Z" fill="#82B8E2"/>
<path d="M442.16 138.892L441.699 137.895L441.063 136.623L440.959 136.424C441.366 137.221 441.763 138.049 442.16 138.892Z" fill="#82B8E2"/>
<path d="M438.458 131.504L438.45 131.488L437.671 130.028L437.105 129.013C437.565 129.813 438.015 130.673 438.458 131.504Z" fill="#82B8E2"/>
<path d="M54.9103 372.822C54.4437 372.197 53.9701 371.544 53.4951 370.905C53.6673 371.141 53.8368 371.391 54.009 371.614C54.3006 372.016 54.5867 372.433 54.8853 372.822H54.9103Z" fill="#82B8E2"/>
<path d="M434.276 123.875L434.198 123.737C433.9 123.228 433.58 122.719 433.276 122.211C433.956 123.336 434.602 124.507 435.257 125.648L434.276 123.875Z" fill="#82B8E2"/>
<path d="M50.0823 366.155L50.3289 366.503C50.5185 366.768 50.7136 367.033 50.8948 367.297C49.9262 365.904 48.9604 364.524 48.0142 363.103C48.6998 364.12 49.3883 365.137 50.0823 366.155Z" fill="#82B8E2"/>
<path d="M418.293 99.8766L417.701 99.0827L416.831 97.9306L416.193 97.1522C416.896 98.0707 417.605 98.9581 418.293 99.8766Z" fill="#82B8E2"/>
<path d="M421.996 104.862L421.228 103.822C420.952 103.433 420.66 103.061 420.382 102.672C421.289 103.899 422.171 105.142 423.053 106.385C422.699 105.872 422.354 105.36 421.996 104.862Z" fill="#82B8E2"/>
<path d="M426.752 111.78L426.486 111.346L426.012 110.633L424.927 109.084C425.538 109.967 426.15 110.866 426.752 111.78Z" fill="#82B8E2"/>
<path d="M431.21 118.77L430.697 117.921L429.825 116.545L429.532 116.082C430.097 116.947 430.658 117.843 431.21 118.77Z" fill="#82B8E2"/>
<path d="M223.19 464.026L224.679 464.119C225.283 464.159 225.887 464.186 226.498 464.199L227.706 464.253L226.453 464.186C225.367 464.119 224.269 464.093 223.19 464.026Z" fill="#82B8E2"/>
<path d="M217.93 463.639C216.974 463.546 216.001 463.479 215.045 463.386C216.474 463.519 217.91 463.653 219.353 463.786L219.923 463.813C219.254 463.759 218.605 463.679 217.93 463.639Z" fill="#82B8E2"/>
<path d="M461.03 197.48L460.939 196.941L460.909 196.732L460.83 196.343L460.901 196.732L461.03 197.48Z" fill="#82B8E2"/>
<path d="M180.537 457.339L181.55 457.593C182.44 457.806 183.344 458.033 184.234 458.26L182.434 457.793C181.792 457.633 181.153 457.472 180.537 457.339Z" fill="#82B8E2"/>
<path d="M200.501 461.493L201.853 461.719L202.987 461.879L201.839 461.693L200.501 461.493Z" fill="#82B8E2"/>
<path d="M188.887 459.295L190.407 459.628L191.692 459.895L191.986 459.935C191.304 459.829 190.634 459.668 189.958 459.508L188.887 459.295Z" fill="#82B8E2"/>
<path d="M403.075 199.668C404.174 190.587 404.751 181.323 404.751 171.937C404.751 163.513 404.284 155.195 403.38 147.03C398.853 154.524 395.746 162.612 393.799 171.266C397.741 179.965 400.854 189.534 403.075 199.668Z" fill="#82B8E2"/>
<path d="M196.278 460.773L196.7 460.866L198.089 461.106L198.648 461.199L197.602 460.999L196.278 460.773Z" fill="#82B8E2"/>
<path d="M192.835 460.121C193.485 460.241 194.133 460.374 194.789 460.494L194.012 460.347L192.835 460.121Z" fill="#82B8E2"/>
<path d="M208.022 462.586L208.899 462.706C209.607 462.813 210.302 462.879 210.998 462.946L209.802 462.813C209.209 462.733 208.614 462.666 208.022 462.586Z" fill="#82B8E2"/>
<path d="M108.302 336.44C118.157 348.089 128.46 358.134 135.515 366.617C139.608 369.267 143.927 371.746 148.37 373.982C156.548 378.195 166.463 381.805 176.167 383.597C169.795 383.582 163.649 382.923 157.932 382.837C151.865 382.679 147.383 383.639 144.043 385.044L143.927 385.531C143.101 388.511 140.218 390.331 135.931 390.976C134.884 392.194 134.027 393.512 133.332 394.888C147.611 397.696 162.381 399.201 177.498 399.201C233.619 399.201 284.971 378.839 324.622 345.137L323.188 344.536C309.265 342.257 295.514 342.085 281.222 343.088C270.08 343.891 258.396 344.235 247.559 347.674C260.071 341.741 270.866 330.55 277.442 316.866C275.108 315.834 273.043 314.229 271.374 312.252C269.796 310.361 268.554 308.14 267.704 305.675C267.015 305.861 266.371 306.019 265.762 306.062C261.7 306.463 260.104 306.091 257.473 303.182C255.596 301.118 254.458 299.886 252.587 299.055C216.515 323.128 173.187 337.17 126.564 337.17C120.405 337.17 114.324 336.927 108.302 336.44Z" fill="#82B8E2"/>
<path d="M456.37 176.787L456.325 176.606L456.183 176.063L456.144 175.957L456.37 176.787Z" fill="#5D81A0"/>
<path d="M163.875 452.348C163.129 452.107 162.394 451.812 161.641 451.558C162.291 451.772 162.928 452.026 163.576 452.241L163.875 452.348Z" fill="#5D81A0"/>
<path d="M167.889 453.666C168.778 453.96 169.669 454.241 170.565 454.522L171.104 454.696L171.242 454.736C170.125 454.388 169.008 454.027 167.889 453.666Z" fill="#5D81A0"/>
<path d="M385.714 319.126C384.202 325.881 383.012 332.722 381.829 339.591C391.774 327.985 400.572 315.391 408.048 301.967C406.281 302.769 404.313 303.241 402.579 303.47C400.176 303.756 396.425 302.454 394.198 303.37C392.4 307.391 390.444 311.298 388.305 314.948C387.462 316.407 386.597 317.781 385.714 319.126Z" fill="#5D81A0"/>
<path d="M197.604 460.99L198.65 461.19C199.274 461.297 199.885 461.39 200.502 461.483L201.841 461.683C200.43 461.483 199.015 461.23 197.604 460.99Z" fill="#5D81A0"/>
<path d="M182.437 457.773L184.236 458.241L185.164 458.468L185.406 458.508L186.09 458.668H186.103C184.88 458.374 183.65 458.081 182.437 457.773Z" fill="#5D81A0"/>
<path d="M460.828 196.344L460.808 196.255L460.647 195.387L460.9 196.734L460.828 196.344Z" fill="#5D81A0"/>
<path d="M205.599 462.266L205.737 462.293L207.418 462.506L208.022 462.586C208.614 462.666 209.209 462.733 209.802 462.813C208.39 462.626 207.003 462.453 205.599 462.266Z" fill="#5D81A0"/>
<path d="M401.763 135.247C407.573 131.574 413.121 127.347 418.674 123.342C414.834 131.812 408.553 138.603 403.771 146.361L403.381 147.026C404.285 155.195 404.752 163.506 404.752 171.929C404.752 181.317 404.176 190.579 403.077 199.666C404.603 206.679 405.727 213.962 406.37 221.466C410.82 226.69 415.874 231.218 420.948 234.812C424.236 237.155 427.665 239.292 431.166 241.255C434.726 225.266 436.629 208.642 436.629 191.576C436.629 157.839 429.248 125.811 416.064 97.0296C406.91 85.3934 396.621 74.6912 385.414 65.0498C384.633 64.369 383.873 63.6882 383.08 63.0232C379.42 59.9519 375.684 56.9756 371.83 54.1418C386.661 78.5383 397.003 105.943 401.763 135.247Z" fill="#5D81A0"/>
<path d="M221.299 463.893C221.925 463.959 222.561 463.986 223.19 464.026C224.269 464.093 225.367 464.119 226.453 464.186C224.738 464.106 223.017 464.026 221.299 463.893Z" fill="#5D81A0"/>
<path d="M189.959 459.512C190.633 459.672 191.303 459.833 191.986 459.939L192.836 460.113L194.012 460.34C192.66 460.059 191.316 459.792 189.959 459.512Z" fill="#5D81A0"/>
<path d="M177.067 456.406L178.393 456.766C177.262 456.446 176.152 456.125 175.034 455.817C175.717 456.018 176.393 456.218 177.067 456.406Z" fill="#5D81A0"/>
<path d="M339.147 348.192C334.186 348.023 329.312 346.998 324.623 345.13C284.97 378.841 233.619 399.194 177.5 399.194C162.382 399.194 147.612 397.691 133.332 394.882C132.513 396.554 131.897 398.295 131.487 400.164C131.164 401.681 130.759 403.183 130.537 404.771L131.487 405.108C133.877 404.588 136.282 403.914 138.983 403.38C146.942 401.751 156.361 402.13 164.079 404.349C171.953 406.611 180.025 410.544 188.283 411.162C195.728 411.738 202.696 408.198 209.544 405.838C216.476 403.464 223.232 403.633 230.397 404.658C236.939 405.614 239.426 406.92 245.149 403.268C251.19 399.405 257.129 395.837 264.267 395.149C269.861 394.629 274.361 393.478 277.812 388.842C281.429 383.996 286.14 381.861 291.396 378.35C290.478 379.909 289.472 381.44 288.44 382.957L288.433 382.971C286.257 386.131 283.88 389.137 281.314 391.975L281.164 392.157C279.949 393.52 278.708 394.812 277.434 396.076L276.804 396.694C275.538 397.944 274.251 399.152 272.927 400.332L272.199 400.936C272.216 400.908 272.226 400.88 272.243 400.852C270.62 402.158 269.063 403.043 267.665 404.321L266.789 405.206L266.71 405.29L265.826 406.456C264.554 408.353 263.833 410.614 262.611 412.552C299.911 403.591 333.652 385.443 361.26 360.595C355.124 354.611 347.047 350.72 339.147 348.192Z" fill="#5D81A0"/>
<path d="M213.766 463.266L214.123 463.306L214.241 463.333L215.045 463.386C216.001 463.479 216.974 463.546 217.93 463.639C216.542 463.519 215.149 463.386 213.766 463.266Z" fill="#5D81A0"/>
<path d="M74.8197 374.73C89.5205 385.558 105.577 394.654 122.684 401.725C118.577 397.676 113.615 393.212 108.249 388.456C96.6664 384.754 85.4998 380.151 74.8197 374.73Z" fill="#5D81A0"/>
<path d="M230.293 464.359H230.323C232.623 464.426 234.922 464.466 237.235 464.466C234.722 464.466 232.227 464.399 229.706 464.333L230.293 464.359Z" fill="#5D81A0"/>
<path d="M416.194 97.1436L415.968 96.8477L415.987 96.8789L416.06 97.0346C429.244 125.823 436.626 157.849 436.626 191.589C436.626 208.653 434.723 225.281 431.163 241.271C432.909 242.252 434.684 243.218 436.464 244.136C443.793 240.617 442.27 231.727 449.591 227.508C453.703 225.126 458.14 225.126 459.778 220.019C460.855 216.609 459.622 213.339 460.91 209.93C461.318 208.887 461.875 207.89 462.487 206.94C462.317 205.586 462.131 204.247 461.927 202.908L461.909 202.83L461.875 202.612C461.793 202.051 461.698 201.507 461.609 200.977C461.439 199.887 461.265 198.797 461.083 197.739L461.031 197.49L460.902 196.727L460.648 195.388C460.472 194.454 460.292 193.519 460.11 192.601C459.946 191.776 459.778 190.919 459.602 190.094C459.42 189.238 459.225 188.366 459.045 187.494C458.842 186.638 458.654 185.797 458.459 184.94C458.257 184.131 458.056 183.29 457.861 182.48L457.771 182.154L457.732 182.029L457.622 181.562L457.485 181.017L457.192 179.834C457.011 179.18 456.823 178.479 456.641 177.81L456.367 176.798L456.139 175.972L455.717 174.478C455.549 173.87 455.355 173.248 455.166 172.625L455.015 172.08L454.522 170.399L454.358 169.916L454.21 169.464C453.997 168.764 453.776 168.063 453.541 167.331L452.969 165.587L452.957 165.556L452.873 165.292C452.555 164.357 452.23 163.423 451.915 162.489L451.352 160.885L451.073 160.138C450.811 159.406 450.561 158.69 450.299 157.99L450.182 157.662L449.689 156.386C449.253 155.234 448.798 154.05 448.344 152.914L448.26 152.711L448.135 152.416L448.032 152.166L447.643 151.232L447.455 150.734L447.246 150.251C446.661 148.803 446.039 147.371 445.427 145.97C445.026 145.051 444.619 144.164 444.23 143.276C443.744 142.218 443.265 141.159 442.771 140.116L442.718 140.007L442.161 138.886C441.764 138.06 441.367 137.22 440.959 136.426L440.828 136.161L440.601 135.678C439.945 134.386 439.301 133.125 438.639 131.817L438.485 131.568L438.459 131.506C438.016 130.665 437.565 129.808 437.107 129.014C436.497 127.878 435.885 126.757 435.254 125.667C434.599 124.515 433.954 123.347 433.274 122.226C432.811 121.448 432.349 120.669 431.877 119.891C431.653 119.517 431.432 119.143 431.208 118.785C430.657 117.851 430.096 116.948 429.531 116.092C428.634 114.613 427.706 113.196 426.752 111.779C426.148 110.86 425.536 109.973 424.927 109.085C424.443 108.354 423.952 107.669 423.465 106.968C423.328 106.781 423.194 106.579 423.054 106.376C422.173 105.131 421.29 103.885 420.382 102.671C420.096 102.282 419.806 101.892 419.518 101.519C419.112 100.958 418.702 100.413 418.294 99.8683C417.606 98.9652 416.898 98.0622 416.194 97.1436Z" fill="#374B5E"/>
<path d="M67.0436 380.806C69.4419 383.599 71.9813 388.326 75.6323 389.708C80.7124 391.655 85.715 388.184 90.6893 390.611C95.7328 393.052 98.979 398.017 103.468 401.206C108.334 404.648 115.926 405.283 121.773 405.861C123.546 406.031 125.158 406.017 126.703 405.89C125.49 404.563 124.137 403.167 122.684 401.714C105.578 394.66 89.5212 385.546 74.8197 374.726C60.1901 363.948 46.8937 351.476 35.2338 337.595C34.2364 336.776 33.239 335.972 32.2571 335.154C33.3335 337.397 34.3365 339.683 35.4807 341.883L35.7586 342.419L36.0647 342.984C37.0254 344.789 38.0073 346.624 39.0203 348.401L39.1896 348.726L39.4562 349.205C40.723 351.448 42.028 353.649 43.3668 355.836L43.4232 355.92C44.1907 357.176 44.9962 358.403 45.7891 359.645C46.2377 360.35 46.6722 361.056 47.1279 361.747L47.3677 362.128L47.8234 362.819C47.8869 362.904 47.9518 363.002 48.0138 363.101C48.9605 364.512 49.9268 365.909 50.8946 367.291C51.7524 368.504 52.6228 369.718 53.4932 370.917C53.9687 371.566 54.4413 372.2 54.9096 372.835C59.8078 374.317 63.4659 376.616 67.0436 380.806Z" fill="#374B5E"/>
<path d="M380.201 348.82C378.045 360.616 376.446 373.776 376.758 385.877C372.894 378.201 369.664 370.656 364.3 363.968C363.357 362.763 362.337 361.675 361.258 360.601C333.651 385.456 299.911 403.607 262.61 412.559L261.303 414.213C258.315 417.26 257.477 415.664 253.645 416.462C250.148 417.173 248.715 419.654 246.045 421.86C242.992 424.341 240.646 424.413 236.917 425.226C232.812 426.126 231.682 427.33 228.966 430.348C226.335 433.25 224.738 433.598 220.671 433.235C217.93 432.945 214 430.783 211.328 431.625C208.739 432.437 206.043 436.355 203.424 437.777C197.973 440.794 193.198 441.389 187.143 440.911C181.193 440.475 175.419 442.129 169.443 441.143C166.155 440.62 163.414 441.868 160.182 442.129C152.136 442.739 147.583 434.976 139.864 438.937C138.022 439.88 136.974 440.432 135.91 440.664C136.206 440.809 136.51 440.969 136.807 441.114C137.334 441.36 137.856 441.607 138.392 441.868C139.374 442.332 140.342 442.811 141.328 443.276L142.666 443.914L143.219 444.146L144.646 444.785C144.681 444.799 144.706 444.799 144.734 444.814C144.919 444.901 145.112 444.988 145.299 445.075C146.537 445.612 147.756 446.177 148.999 446.685C149.086 446.729 149.173 446.758 149.259 446.801L150.111 447.15C152.067 447.977 154.034 448.731 156.017 449.515L157.621 450.095C158.96 450.617 160.302 451.082 161.641 451.56C162.394 451.822 163.128 452.112 163.876 452.344L164.447 452.576H164.466L164.986 452.721C165.94 453.055 166.923 453.345 167.89 453.65C169.009 454.013 170.126 454.375 171.244 454.724L171.313 454.738L173.056 455.26C173.703 455.463 174.373 455.638 175.036 455.812C176.153 456.116 177.263 456.436 178.395 456.769L178.459 456.784L179.272 457.001L180.097 457.219L180.538 457.335C181.155 457.466 181.793 457.625 182.436 457.785C183.649 458.09 184.878 458.38 186.103 458.67L186.644 458.786L187.139 458.917L188.887 459.294L189.958 459.512C191.316 459.787 192.659 460.063 194.012 460.339L194.791 460.484L196.278 460.774L197.604 460.991C199.014 461.238 200.429 461.485 201.839 461.688L202.989 461.891L203.444 461.949L205.023 462.181L205.6 462.268C207.003 462.457 208.39 462.616 209.802 462.805L210.998 462.95C211.608 463.008 212.219 463.11 212.83 463.139L213.331 463.211L213.766 463.269C215.149 463.386 216.543 463.516 217.93 463.632C218.605 463.676 219.255 463.763 219.924 463.806L220.152 463.821L221.299 463.893C223.017 464.024 224.738 464.096 226.453 464.183L227.707 464.256C228.381 464.3 229.05 464.314 229.706 464.329C232.228 464.401 234.722 464.459 237.236 464.459C351.722 464.459 446.422 379.797 462.183 269.671C459.876 270.6 457.485 270.673 455.284 272.022C452.262 273.85 452.886 277.492 450.666 280.017C446.287 284.979 438.386 282.222 433.516 286.604C431.853 288.098 432.075 290.492 430.546 291.842C429.015 293.177 422.757 294.366 420.717 294.671C418.964 294.918 416.061 293.771 414.701 294.439C413.124 295.208 412.422 298.792 410.955 300.127C410.13 300.867 409.128 301.476 408.05 301.955C400.574 315.39 391.777 327.984 381.832 339.577C381.299 342.653 380.78 345.729 380.201 348.82Z" fill="#374B5E"/>
<path d="M130.467 405.34L131.487 405.121L130.538 404.766L130.467 405.34Z" fill="#374B5E"/>
<path d="M470.373 257.856C469.469 261.754 467.982 265.256 464.969 267.981C464.067 268.802 463.143 269.3 462.182 269.666C446.421 379.8 351.722 464.466 237.235 464.466C235.462 464.466 233.67 464.451 231.888 464.393L230.292 464.363L229.706 464.334C229.05 464.319 228.38 464.29 227.706 464.246L226.497 464.202C225.888 464.187 225.284 464.158 224.679 464.114L223.19 464.026C222.561 463.997 221.924 463.953 221.3 463.894L220.151 463.836L219.352 463.777C217.91 463.66 216.474 463.528 215.044 463.382L214.241 463.323L214.124 463.308L213.767 463.264L213.33 463.206L212.83 463.147C212.219 463.103 211.61 463.015 210.999 462.957C210.303 462.883 209.608 462.81 208.9 462.708L208.022 462.59L207.419 462.502L205.737 462.283L205.599 462.268L205.022 462.18L203.443 461.96L202.988 461.887L201.852 461.711L200.501 461.491C199.883 461.403 199.273 461.301 198.649 461.184L198.091 461.096L196.7 460.861L196.278 460.773L194.791 460.495C194.133 460.363 193.485 460.246 192.836 460.114L191.985 459.938L191.692 459.894L190.406 459.63L188.885 459.293L187.139 458.927L186.643 458.795L186.103 458.678H186.088L185.163 458.473L184.236 458.253C183.345 458.018 182.441 457.799 181.551 457.579L180.096 457.227L179.271 457.007L178.46 456.773H178.394L177.069 456.407L176.095 456.128L174.802 455.776L173.056 455.264L171.312 454.751L171.107 454.677L170.566 454.516L170.04 454.37L168.416 453.842C167.351 453.52 166.286 453.168 165.207 452.802L164.466 452.568H164.447L163.291 452.143C162.302 451.82 161.315 451.469 160.329 451.102C159.698 450.868 159.081 450.648 158.458 450.428L157.621 450.106L156.017 449.505L155.009 449.124L153.475 448.523C152.352 448.084 151.228 447.615 150.11 447.146L149.259 446.809C149.172 446.765 149.086 446.721 148.999 446.691C148.469 446.472 147.943 446.237 147.414 446.003C146.703 445.71 146.003 445.387 145.299 445.08C145.112 444.977 144.92 444.904 144.732 444.816C144.706 444.801 144.681 444.787 144.646 444.787C143.988 444.508 143.329 444.215 142.666 443.922L141.327 443.277L140.112 442.706C139.457 442.384 138.782 442.105 138.118 441.768C137.678 441.548 137.242 441.328 136.807 441.109C136.509 440.962 136.206 440.816 135.91 440.669C134.869 440.889 133.838 440.772 132.057 440.391C128.914 439.629 127.667 439.467 124.23 440.098C122.235 440.493 119.039 441.666 117.053 440.801C114.676 439.775 114.129 436.273 111.413 435.467C110.328 435.145 109.069 435.159 107.749 435.335C145.902 460.378 190.535 473.844 237.235 473.844C300.436 473.844 359.868 449.227 404.569 404.534C447.132 361.967 471.459 306.05 473.681 246.221C473.329 246.924 472.971 247.613 472.633 248.36C471.204 251.482 471.14 254.5 470.373 257.856Z" fill="#98AABF"/>
<path d="M18.5252 310.51L19.3833 311.075L19.8245 311.657C19.8245 311.706 19.8116 311.77 19.8116 311.819C21.817 315.342 18.9098 323.583 20.0847 327.365C21.1836 330.888 24.2103 333.619 25.5145 337.077C26.4647 339.582 26.0607 342.006 26.1916 344.478C27.381 346.805 28.6075 349.1 29.8729 351.395C31.8816 352.672 34.4219 353.253 36.8379 354.659C44.9519 359.33 42.1772 369.753 52.636 372.225C53.402 372.403 54.1357 372.613 54.8516 372.823C54.5639 372.436 54.2941 372.015 54.0064 371.627C53.8351 371.401 53.6654 371.159 53.4941 370.916C52.6231 369.72 51.7521 368.509 50.8956 367.297C50.713 367.022 50.5191 366.763 50.33 366.505L50.0827 366.149C49.3878 365.131 48.6994 364.113 48.0142 363.095C47.9528 362.998 47.8866 362.901 47.8235 362.804L47.3678 362.125C46.8281 361.301 46.319 360.477 45.789 359.637C44.9971 358.408 44.1907 357.18 43.4248 355.92L43.3666 355.839C42.0285 353.657 40.7228 351.443 39.4558 349.213L39.1892 348.729L38.7803 348.001L38.6769 347.84C37.6831 346.046 36.7151 344.236 35.7584 342.41L35.4804 341.893C34.3363 339.679 33.3328 337.384 32.2581 335.154C31.1899 332.908 30.049 330.726 29.0487 328.431L29.0164 328.351C26.9689 323.68 25.1331 318.897 23.3975 314.081C23.1632 313.435 22.9434 312.772 22.7155 312.126C14.511 288.661 9.97005 263.484 9.97005 237.207C9.97005 111.708 111.719 9.94757 237.235 9.94757C274.697 9.94757 310.03 19.0133 341.18 35.0603L341.224 35.0927C343.302 36.1592 345.356 37.2743 347.408 38.4055L348.544 39.0519C350.59 40.1831 352.618 41.3628 354.612 42.5587L354.637 42.591C356.723 43.8354 358.762 45.1443 360.808 46.4532L361.733 47.0835C363.486 48.2147 365.213 49.3943 366.934 50.574L367.799 51.1881C369.782 52.5779 371.742 54.0001 373.667 55.4384L373.866 55.5999C375.672 56.9574 377.453 58.3471 379.213 59.7692L380.265 60.6096C381.226 61.3853 382.13 62.2417 383.077 63.0497C383.87 63.6961 384.63 64.3749 385.41 65.0536C387.275 66.6696 389.187 68.221 390.997 69.8693L391.913 70.7258C393.408 72.1155 394.874 73.5052 396.336 74.9435L397.143 75.7354C398.838 77.416 400.507 79.1128 402.138 80.8419L402.521 81.2622C404.009 82.7974 405.451 84.3972 406.879 86.0132L407.866 87.1122C409.387 88.8252 410.887 90.5542 412.356 92.348L412.401 92.3965C413.909 94.2225 415.37 96.0648 416.832 97.9232L417.703 99.0707C418.32 99.8949 418.91 100.703 419.518 101.511C419.806 101.899 420.096 102.287 420.382 102.674C420.66 103.062 420.953 103.434 421.229 103.806L421.997 104.856C422.356 105.357 422.7 105.874 423.054 106.375C423.194 106.569 423.327 106.779 423.466 106.973C424.317 108.185 425.18 109.397 426.011 110.641L426.485 111.352C427.622 113.082 428.739 114.778 429.823 116.54L430.694 117.929C431.097 118.576 431.481 119.239 431.877 119.885C432.349 120.661 432.811 121.436 433.273 122.228C433.577 122.729 433.897 123.246 434.195 123.763L434.272 123.893C435.442 125.929 436.573 127.949 437.672 130.033L438.451 131.488L438.458 131.504L438.483 131.569L438.639 131.827C439.301 133.12 439.944 134.397 440.6 135.673L440.828 136.158L441.063 136.611L441.698 137.887C442.035 138.614 442.388 139.309 442.717 140.004L442.771 140.117C443.265 141.168 443.744 142.218 444.228 143.269C444.374 143.592 444.524 143.899 444.668 144.222L445.141 145.289C445.935 147.115 446.699 148.908 447.454 150.735L448.032 152.157L448.136 152.415L448.26 152.706L448.344 152.916C448.798 154.047 449.253 155.227 449.689 156.391L450.182 157.667L450.573 158.718L450.663 158.928C450.904 159.59 451.126 160.221 451.352 160.883L451.916 162.499C452.229 163.42 452.554 164.358 452.872 165.295C452.905 165.392 452.937 165.489 452.969 165.586L453.541 167.331C453.871 168.333 454.204 169.367 454.521 170.401L455.015 172.082L455.204 172.729L455.654 174.248C455.828 174.845 456.011 175.46 456.179 176.074L456.321 176.607L456.639 177.803C456.822 178.481 457.011 179.176 457.192 179.839L457.485 181.019L457.62 181.552L457.771 182.166L457.861 182.473C458.055 183.297 458.257 184.138 458.459 184.946C458.653 185.802 458.842 186.642 459.044 187.499C459.225 188.371 459.419 189.228 459.602 190.101C459.778 190.925 459.946 191.781 460.109 192.606C460.292 193.527 460.473 194.448 460.647 195.385L460.809 196.242L460.83 196.338L460.909 196.726L460.94 196.936L461.082 197.728C461.264 198.811 461.439 199.894 461.609 200.976C461.697 201.51 461.791 202.059 461.875 202.609C461.891 202.706 461.911 202.819 461.927 202.916C462.131 204.241 462.316 205.598 462.486 206.94C463.882 204.742 465.573 202.673 466.352 200.201C467.522 196.435 464.606 188.178 466.63 184.655C466.628 184.606 466.617 184.558 466.617 184.525L467.053 183.944L467.767 183.475C457.901 140.796 436.3 101.624 404.568 69.8693C359.866 25.1866 300.434 0.59079 237.235 0.59079C174.028 0.59079 114.61 25.1866 69.9161 69.8693C25.2236 114.601 0.603638 174.021 0.603638 237.207C0.603638 262.934 4.68892 288.047 12.5427 311.787C14.0295 310.574 16.8106 309.831 18.5252 310.51Z" fill="#98AABF"/>
<path d="M327.115 129.403C316.067 119.718 308.66 105.894 309.044 88.5239C308.641 102.707 305.829 118.594 301.924 132.074C301.679 132.902 301.443 133.73 301.188 134.542C303.886 136.167 306.407 138.135 308.686 140.4C314.436 135.245 320.637 131.528 327.115 129.403Z" fill="#374B5E"/>
<path d="M273.937 235.562C273.997 230.347 274.262 225.222 274.742 220.157C267.474 218.164 261.006 213.773 256.003 207.793C252.371 203.477 249.48 198.322 247.538 192.597C245.192 192.762 242.814 192.807 240.355 192.822C234.636 192.837 227.569 193.916 222.099 191.953C233.726 195.639 244.621 200.555 254.118 208.752C255.892 210.266 257.632 211.914 259.308 213.713C265.104 219.857 270.015 227.335 273.937 235.562Z" fill="#374B5E"/>
<path d="M393.797 171.263C395.744 162.619 398.85 154.531 403.377 147.043L403.767 146.365C408.548 138.615 414.829 131.821 418.67 123.362C413.117 127.368 407.569 131.59 401.759 135.257C398.485 137.336 395.128 139.216 391.638 140.772C387.015 142.868 381.955 144.162 376.711 144.778C380.875 149.246 384.767 154.5 388.306 160.539C390.295 163.944 392.121 167.534 393.797 171.263Z" fill="#374B5E"/>
<path d="M292.802 315.138C290.173 317.087 287.028 318.24 283.632 318.24C281.449 318.24 279.355 317.756 277.441 316.874C270.864 330.549 260.07 341.748 247.557 347.682C258.394 344.239 270.08 343.897 281.221 343.1C295.513 342.09 309.263 342.261 323.186 344.537C311.714 339.543 301.262 329.51 292.802 315.138Z" fill="#374B5E"/>
<path d="M364.3 363.977C369.665 370.654 372.894 378.197 376.758 385.883C376.446 373.779 378.045 360.61 380.2 348.819C380.779 345.736 381.3 342.654 381.831 339.585C383.015 332.71 384.204 325.877 385.717 319.114C373.445 337.937 357.529 348.237 340.49 348.237L339.146 348.194C347.045 350.723 355.121 354.615 361.258 360.61C362.336 361.676 363.356 362.77 364.3 363.977Z" fill="#374B5E"/>
<path d="M405.326 263.076C407.138 263.283 408.969 263.283 410.802 262.572C414.447 261.166 416.986 256.443 419.391 253.645C423.502 248.863 427.726 246.524 433.793 245.088C434.81 244.836 435.676 244.51 436.462 244.14C434.683 243.222 432.907 242.26 431.162 241.283C427.659 239.299 424.23 237.167 420.942 234.828C415.868 231.245 410.816 226.715 406.365 221.488C406.846 226.833 407.074 232.266 407.074 237.744C407.074 246.376 406.482 254.874 405.326 263.076Z" fill="#374B5E"/>
<path d="M214.233 273.783L213.513 273.186C212.188 272.021 210.901 270.797 209.64 269.545L209.004 268.948C207.725 267.695 206.484 266.37 205.269 265.015L205.134 264.884C203.853 263.442 202.627 261.985 201.435 260.5C200.649 262.189 199.709 263.821 198.576 265.379C194.954 270.302 189.612 274.381 182.78 277.206C175.938 280.061 168.319 281.372 160.516 281.387C151.053 281.372 141.32 279.435 132.357 275.823C127.802 273.973 123.457 271.686 119.435 269.006L119.501 270.04C119.728 275.459 119.026 281.984 115.487 286.834L115.24 287.14C112.907 290.214 110.029 292.529 107.126 295.137C112.55 293.505 118.684 292.617 124.283 292.136C131.934 291.466 139.638 290.388 147.227 291.102C151.579 291.466 155.074 292.296 158.998 293.884C162.954 295.472 165.642 297.919 168.67 300.555C171.873 303.352 174.164 307.08 177.616 309.615C178.206 305.216 179.188 300.73 180.745 296.462C183.884 287.883 191.199 278.211 201.715 276.784C207.511 276.012 213.115 276.201 218.54 277.818L219.76 278.211L219.736 278.168L219.638 278.051L218.774 277.177C217.383 275.91 215.851 275.08 214.24 273.798C214.24 273.798 214.237 273.798 214.233 273.783Z" fill="#374B5E"/>
<path d="M214.167 249.616C215.631 239.865 221.696 230.764 232.967 227.942C226.522 229.523 218.999 230.202 212.432 230.084C208.802 230.025 205.429 229.744 202 228.799C199.87 228.223 197.278 227.055 195.888 226.509L195.621 226.524C201.228 233.645 204.067 241.342 204.067 248.729C204.067 251.329 203.689 253.885 202.995 256.367C205.06 257.83 206.951 259.47 208.621 261.716C210.862 264.715 213.537 266.236 216.675 267.093C214.148 261.908 213.271 255.643 214.167 249.616Z" fill="#374B5E"/>
<path d="M234.443 96.5111C225.342 94.7352 218.021 90.8663 212.934 85.5227C207.868 80.1949 205.099 73.3607 205.099 66.0033C205.099 61.7063 206.056 57.2507 207.946 52.7792C205.068 53.1122 202.196 53.1597 199.632 52.7632C196.174 52.2241 193.466 51.1142 190.464 50.0994C192.744 52.684 194.388 55.8077 195.576 58.7411C197.176 62.7687 199.207 66.7169 199.493 70.9823C199.67 73.4401 199.293 75.549 198.257 78.0384C197.228 80.5596 195.192 82.5733 192.998 84.8249C190.678 87.1875 187.347 89.2964 185.299 91.7382C189.665 91.0723 194.154 90.5807 198.514 90.4697C207.276 90.216 217.605 92.0078 220.339 97.399C221.839 100.396 222.34 103.488 221.47 106.802C220.807 109.307 219.353 111.844 219.229 114.334C221.801 111.495 224.268 108.53 227.589 105.977C238.632 97.4308 264.293 93.3557 271.86 103.361C269.808 100.602 268.352 97.2722 267.526 94.0534C260.427 96.3208 253.016 97.5735 245.733 97.5893C241.907 97.5735 238.127 97.2405 234.443 96.5111Z" fill="#374B5E"/>
<path d="M120.383 157.047C120.046 155.157 119.76 153.253 119.5 151.333C119.007 152.354 118.345 153.314 117.578 154.258C118.474 155.264 119.404 156.27 120.383 157.047Z" fill="#374B5E"/>
<path d="M119.026 86.0105C119.015 90.6359 117.695 95.7648 115.305 101.004C112.903 106.227 109.407 111.608 104.906 116.642C100 122.133 94.5804 126.491 89.1967 129.496C88.1111 130.125 87.0208 130.66 85.929 131.148C85.5592 132.454 85.0983 133.744 84.4941 135.065C83.6493 136.922 82.5527 138.794 81.2784 140.619C81.2721 141.626 81.2264 142.617 81.0974 143.545C80.6223 147.038 79.5886 149.76 78.6337 152.78C81.1745 150.436 84.2597 148.721 87.1703 147.479C88.0592 147.101 88.9371 146.708 89.8213 146.314C90.6913 143.86 92.3275 141.547 94.6072 139.565C98.4617 136.229 103.353 134.515 107.991 134.499C111.16 134.499 114.253 135.333 116.753 137.189C117.531 137.787 118.202 138.479 118.789 139.219C119.04 131.746 120.865 124.241 125.283 121.865C128.225 120.308 131.324 119.742 134.649 120.544C137.152 121.158 139.737 122.558 142.23 122.621C139.326 120.088 136.326 117.696 133.683 114.44C124.887 103.6 120.261 78.0182 130.089 70.2462C126.977 72.6376 123.08 74.3524 119.501 75.1705C118.236 75.4695 116.979 75.6111 115.714 75.5953C116.655 76.7281 117.398 78.0339 117.915 79.4184C118.675 81.4794 119.015 83.6978 119.026 86.0105Z" fill="#374B5E"/>
<path d="M279.363 221.097H279.356L279.294 221.734L279.363 221.097Z" fill="#688DAC"/>
<path d="M331.853 132.973C334.124 132.421 336.432 132.098 338.775 131.991C336.432 132.098 334.124 132.421 331.853 132.973Z" fill="#688DAC"/>
<path d="M311.842 143.931L311.855 143.946C317.942 138.513 324.61 134.753 331.661 133.034C324.604 134.753 317.926 138.482 311.842 143.931Z" fill="#688DAC"/>
<path d="M349.73 151.189C354.966 151.189 359.943 153.753 364.465 158.406C359.41 145.047 351.835 135.573 340.492 131.904C339.962 131.904 339.44 131.965 338.908 131.98C329.783 133.623 321.245 138.721 313.736 146.429C319.245 154.352 322.53 164.486 322.53 175.495C322.53 176.923 322.471 178.336 322.361 179.733C329.194 162.167 338.933 151.189 349.73 151.189Z" fill="#688DAC"/>
<path d="M316.345 200.32C314.864 203.008 313.176 205.503 311.285 207.788C304.451 215.942 294.914 221.139 284.34 221.348C283.879 226.516 283.632 231.803 283.632 237.209C283.632 252.114 285.457 266.317 288.711 279.206C291.407 280.162 293.785 281.879 295.689 284.06C296.513 284.104 297.324 284.104 298.162 284.03C304.145 283.582 310.037 281.371 315.826 279.34C313.545 267.721 312.271 254.758 312.271 241.077C312.271 226.411 313.747 212.552 316.345 200.32Z" fill="#688DAC"/>
<path d="M342.419 342.885C346.688 341.034 350.819 336.548 354.607 330.182C353.017 330.681 351.397 330.966 349.728 330.966C341.802 330.966 334.457 325.027 328.389 314.93C327.707 314.987 326.997 315.044 326.25 314.959C323.016 314.717 320.296 313.464 316.995 314.005C312.193 314.774 307.529 313.891 302.807 313.72C313.214 330.723 327.076 341.603 342.419 342.885Z" fill="#688DAC"/>
<path d="M273.898 237.746C273.898 252.041 275.515 265.935 278.601 278.823L278.687 279.163C280.147 278.66 281.698 278.363 283.312 278.319C280.278 265.831 278.586 252.129 278.586 237.746C278.586 235.909 278.608 234.131 278.674 232.324C278.687 231.717 278.725 231.095 278.743 230.473C278.797 229.332 278.835 228.147 278.9 226.992C278.952 226.236 279.017 225.51 279.069 224.77C279.146 223.747 279.199 222.755 279.291 221.748L279.354 221.111C277.783 220.918 276.249 220.578 274.742 220.163C274.262 225.229 273.996 230.339 273.936 235.568C273.917 236.294 273.898 237.005 273.898 237.746Z" fill="#374B5E"/>
<path d="M311.286 143.208L311.844 143.931C317.928 138.485 324.606 134.747 331.663 133.024C331.729 133.009 331.792 132.978 331.853 132.978C334.122 132.424 336.431 132.101 338.774 131.993C338.848 131.993 338.919 131.978 338.997 131.963C338.971 131.978 338.939 131.978 338.907 131.993C339.439 131.963 339.96 131.901 340.491 131.901C374.682 131.901 402.401 179.282 402.401 237.723C402.401 246.276 401.775 254.614 400.652 262.583C402.218 262.644 403.771 262.921 405.33 263.075C406.486 254.86 407.078 246.369 407.078 237.723C407.078 232.247 406.85 226.816 406.369 221.478C405.726 213.971 404.601 206.695 403.075 199.665C400.854 189.527 397.742 179.959 393.799 171.252C392.124 167.514 390.298 163.929 388.309 160.529C384.771 154.484 380.877 149.238 376.714 144.777C369.518 137.055 361.5 131.763 352.996 129.132C348.923 127.871 344.742 127.209 340.491 127.209C335.932 127.209 331.463 127.948 327.117 129.394C320.639 131.532 314.436 135.239 308.688 140.393C309.589 141.3 310.455 142.223 311.286 143.208Z" fill="#374B5E"/>
<path d="M323.187 344.536L324.622 345.136C329.31 347.01 334.185 348.025 339.146 348.197L340.491 348.24C357.529 348.24 373.447 337.942 385.717 319.105C386.601 317.775 387.465 316.388 388.309 314.929C390.447 311.282 392.404 307.391 394.201 303.358L394.077 303.387C391.869 304.402 391.967 307.077 390.005 308.25C388.829 308.936 387.524 309.179 386.152 309.179C375.916 328.288 361.609 340.802 345.598 343.062L345.963 343.12C345.072 343.248 344.176 343.377 343.28 343.434C342.356 343.52 341.427 343.563 340.491 343.563C323.798 343.563 308.642 332.25 297.515 313.856C296.428 313.928 295.383 313.928 294.356 313.856L292.803 315.129C301.261 329.518 311.715 339.544 323.187 344.536Z" fill="#374B5E"/>
<path d="M349.727 330.966C351.397 330.966 353.016 330.681 354.606 330.195C350.818 336.563 346.688 341.032 342.417 342.902C343.418 342.974 344.432 343.031 345.438 343.045L345.595 343.074C361.605 340.818 375.913 328.296 386.15 309.193C382.355 309.221 378.082 307.422 375.016 308.336C372.313 309.135 371.762 312.633 369.385 313.676C367.396 314.532 364.194 313.347 362.199 312.962C358.748 312.305 357.515 312.505 354.378 313.233C350.76 314.061 350.187 313.647 346.575 311.777C339.56 308.193 335.156 314.233 328.387 314.932C334.456 325.026 341.8 330.966 349.727 330.966Z" fill="#374B5E"/>
<path d="M340.492 131.904C351.836 135.573 359.41 145.047 364.465 158.406C359.943 153.753 354.966 151.189 349.73 151.189C338.933 151.189 329.194 162.168 322.361 179.733C321.765 187.257 319.654 194.274 316.347 200.308C313.747 212.546 312.273 226.396 312.273 241.074C312.273 254.755 313.546 267.715 315.828 279.338C318.023 278.54 320.191 277.803 322.356 277.188C330.074 274.962 339.492 274.593 347.45 276.236C353.563 277.465 358.134 279.353 364.664 278.693C370.523 278.11 378.099 277.495 382.971 274.056C387.447 270.862 390.713 265.903 395.736 263.461C397.372 262.648 399.025 262.494 400.654 262.586C401.776 254.602 402.401 246.28 402.401 237.727C402.401 179.288 374.683 131.904 340.492 131.904Z" fill="#374B5E"/>
<path d="M338.998 131.969C338.918 131.984 338.847 132 338.773 132C336.43 132.107 334.123 132.429 331.852 132.982C331.79 132.998 331.727 133.013 331.661 133.028C324.612 134.748 317.944 138.51 311.856 143.93C312.507 144.728 313.13 145.573 313.734 146.432C321.244 138.725 329.782 133.643 338.907 132C338.938 131.984 338.97 131.984 338.998 131.969Z" fill="#A0B3C7"/>
<path d="M340.49 343.57C341.426 343.57 342.356 343.527 343.278 343.441C344.176 343.37 345.071 343.256 345.963 343.128L345.598 343.057L345.441 343.043C344.435 343.014 343.419 342.972 342.42 342.886C327.077 341.59 313.215 330.726 302.807 313.71C301.631 313.696 300.469 313.681 299.279 313.767C298.677 313.809 298.106 313.838 297.515 313.866C308.641 332.249 323.798 343.57 340.49 343.57Z" fill="#A0B3C7"/>
<path d="M279.072 224.755C279.02 225.495 278.955 226.235 278.903 226.976C278.838 228.131 278.799 229.315 278.746 230.47C278.728 231.092 278.69 231.699 278.676 232.321C278.611 234.113 278.589 235.89 278.589 237.726C278.589 252.104 280.28 265.815 283.314 278.298H283.632C285.406 278.283 287.114 278.609 288.713 279.201C285.458 266.304 283.632 252.104 283.632 237.208C283.632 231.803 283.88 226.517 284.34 221.349L283.632 221.364C282.196 221.364 280.767 221.275 279.363 221.097L279.294 221.734C279.202 222.741 279.149 223.733 279.072 224.755Z" fill="#A0B3C7"/>
<path d="M39.9683 213.486C40.1827 211.61 40.4314 209.705 40.7738 207.709C40.4641 209.154 40.1693 210.613 39.873 212.117C37.5905 223.805 36.033 236.342 35.4419 247.196C35.1679 251.872 35.0057 256.234 34.8448 260.493C36.2534 252.006 39.0273 245.797 42.6008 243.131C39.8849 236.059 38.5404 226.187 39.9683 213.486Z" fill="#374B5E"/>
<path d="M33.1411 301.876C31.9917 304.85 30.2575 305.841 28.2231 306.603C26.5609 307.249 24.8971 309.045 22.6113 307.795C27.4373 310.037 32.394 313.442 38.6308 319.519C39.6178 320.496 40.6321 321.516 41.6838 322.622C43.8992 324.993 46.2957 327.636 48.8358 330.409C41.8849 317.953 37.6624 304.936 35.5389 292.839C34.8622 296.991 33.4859 300.799 33.1411 301.876Z" fill="#374B5E"/>
<path d="M106.776 334.638C105.904 331.928 105.606 329.517 105.299 326.993C104.833 322.856 105.878 319.761 105.443 315.497C101.845 315.226 97.8754 314.356 93.7178 312.501C92.2159 311.86 90.5985 310.961 88.9226 309.834C90.1777 311.746 91.4828 313.642 92.8478 315.468C96.9926 322.272 101.811 328.633 106.776 334.638Z" fill="#374B5E"/>
<path d="M67.8847 256.294C68.7222 250.519 70.3592 245.508 71.5803 239.484C68.8325 243.965 66.4034 249.094 63.707 252.591C62.9473 253.825 62.0245 254.795 60.9929 255.501C63.0781 259.292 65.2147 263.744 67.4556 268.579C67.1764 264.288 67.313 260.174 67.8847 256.294Z" fill="#374B5E"/>
<path d="M144.043 385.047C147.382 383.641 151.866 382.681 157.932 382.834C163.648 382.918 169.794 383.585 176.167 383.599C166.462 381.804 156.548 378.201 148.37 373.984C143.926 371.758 139.607 369.267 135.515 366.624C141.638 373.984 145.302 380.135 144.043 385.047Z" fill="#374B5E"/>
<path d="M131.486 400.165C131.896 398.3 132.512 396.558 133.332 394.886C134.027 393.518 134.884 392.206 135.931 390.976C127.954 392.164 115.058 389.276 101.189 382.228C103.598 384.357 105.957 386.429 108.251 388.447C113.617 393.201 118.579 397.664 122.686 401.713C124.138 403.164 125.491 404.546 126.704 405.886C127.998 405.762 129.246 405.61 130.466 405.347L130.536 404.767C130.759 403.191 131.162 401.685 131.486 400.165Z" fill="#374B5E"/>
<path d="M59.1453 337.56C88.4627 381.561 133.751 391.539 139.306 382.967C138.526 381.121 135.663 378.352 131.582 374.762C131.691 375.392 131.66 375.949 131.42 376.403C129.284 382.366 93.254 371.231 68.4025 335.362C43.3459 299.626 45.3796 262.131 51.6991 262.175C53.3255 261.955 55.1174 263.816 57.1511 267.157C53.7284 257.105 51.0632 249.53 47.4001 246.556C46.0404 246.395 44.7012 247.069 43.4572 248.461C44.5606 247.259 45.7459 246.629 46.9444 246.629C37.318 250.395 30.6806 295.289 59.1453 337.56Z" fill="#688DAC"/>
<path d="M58.1136 338.806C53.2938 331.671 49.468 324.448 46.4599 317.387L46.3954 317.211C45.8228 315.875 45.2913 314.554 44.7907 313.218L44.5558 312.616C44.1213 311.427 43.6926 310.237 43.2962 309.092L42.9703 308.109C42.6341 307.081 42.2965 306.053 41.9911 305.026L41.6079 303.704C41.3598 302.809 41.0941 301.899 40.8607 301.033L40.4643 299.418C40.2749 298.654 40.0679 297.876 39.8991 297.098C39.7626 296.496 39.6392 295.88 39.5101 295.278C39.3794 294.573 39.2223 293.927 39.1063 293.266C38.9904 292.606 38.8656 291.945 38.7481 291.284C38.6527 290.668 38.5411 290.081 38.4501 289.508C38.3473 288.789 38.249 288.099 38.1653 287.394L37.9568 285.853C37.8731 285.104 37.8071 284.399 37.7366 283.695L37.5927 282.285C37.5413 281.536 37.49 280.832 37.4489 280.127L37.3725 278.835C37.3197 278.101 37.3138 277.396 37.2874 276.692L37.2624 275.488C37.2492 274.798 37.2624 274.123 37.2683 273.447L37.2742 272.302C37.3006 271.642 37.3197 270.981 37.352 270.35L37.4107 269.219C37.4489 268.603 37.4958 267.986 37.5472 267.369L37.6441 266.312L37.8526 264.58L37.97 263.582L38.2372 261.938L38.4046 260.983L38.7305 259.456L38.9184 258.634L39.2957 257.152L39.4895 256.447L39.9446 255.038L40.1398 254.45L40.6728 253.085L40.8475 252.718L41.492 251.338L41.5815 251.162L42.3669 249.841C42.7178 249.312 43.0863 248.842 43.4592 248.446C44.7027 247.051 46.0415 246.376 47.401 246.537C48.7457 246.581 50.0523 247.169 51.3457 248.255C60.439 255.889 69.3268 287.658 90.0355 317.343C95.6553 326.034 101.795 333.888 107.79 340.95L107.802 340.979C109.297 342.726 110.778 344.444 112.24 346.103C113.142 347.13 114.046 348.129 114.93 349.098C122.517 357.554 129.377 364.63 133.963 370.399L134.347 370.899C135.456 372.308 136.418 373.658 137.217 374.906L137.575 375.479C138.62 377.196 139.315 378.738 139.639 380.162L139.836 381.571L139.815 381.953L139.887 381.894C139.855 382.496 139.751 383.054 139.51 383.583C136.782 393.815 88.8596 384.698 58.1136 338.806ZM135.932 390.967C140.219 390.321 143.102 388.501 143.927 385.521L144.043 385.036C145.304 380.133 141.64 373.981 135.515 366.612C128.461 358.126 118.158 348.084 108.301 336.428C107.79 335.826 107.29 335.209 106.777 334.637C101.812 328.618 96.9942 322.261 92.8483 315.449C91.4845 313.629 90.1794 311.735 88.9242 309.826C80.6691 297.289 74.4063 283.606 68.9436 271.803C68.4503 270.717 67.9556 269.616 67.4549 268.573C65.2147 263.743 63.0771 259.295 60.9925 255.493C56.5677 247.404 52.2867 242.104 47.2982 241.722H46.225C44.9464 241.796 43.7308 242.295 42.6018 243.117C39.0285 245.789 36.2553 251.984 34.846 260.484C33.3779 269.322 33.397 280.597 35.5404 292.826C37.6647 304.923 41.8869 317.93 48.8382 330.394C50.7878 333.873 52.9048 337.338 55.2948 340.7C67.7221 360.226 85.0866 374.011 101.19 382.217C115.059 389.264 127.955 392.156 135.932 390.967Z" fill="#374B5E"/>
<path d="M57.1528 267.132C55.1193 263.791 53.3274 261.945 51.7011 262.165C45.3821 262.121 43.3485 299.599 68.4035 335.348C93.2563 371.214 129.287 382.349 131.421 376.386C131.663 375.932 131.694 375.375 131.584 374.745C135.664 378.334 138.529 381.104 139.308 382.95L139.75 382.012L139.815 381.953L139.835 381.587L139.639 380.166C139.314 378.745 138.621 377.192 137.575 375.492L137.216 374.906C136.417 373.661 135.456 372.313 134.346 370.906L133.963 370.408C129.376 364.636 122.516 357.559 114.928 349.105C114.046 348.124 113.141 347.127 112.238 346.102C110.778 344.446 109.296 342.732 107.802 340.974L107.789 340.959C101.794 333.897 95.6547 326.044 90.0345 317.342C69.3265 287.673 60.4391 255.894 51.3451 248.261C50.0529 247.162 48.746 246.591 47.401 246.547C51.0653 249.506 53.7289 257.081 57.1528 267.132Z" fill="#374B5E"/>
<path d="M139.51 383.583C139.75 383.055 139.854 382.499 139.886 381.898L139.815 381.956L139.75 382.015L139.308 382.953C133.754 391.523 88.4635 381.546 59.1458 337.55C30.6808 295.282 37.3205 250.378 46.9461 246.612C45.7477 246.612 44.5624 247.257 43.4577 248.444C43.0856 248.854 42.7179 249.323 42.3663 249.85L41.581 251.169L41.4901 251.345L40.847 252.722L40.6726 253.088L40.1394 254.465L39.9445 255.037L39.4888 256.443L39.2955 257.146L38.9175 258.641L38.7299 259.461L38.4032 260.999L38.2362 261.937L37.9696 263.593L37.8523 264.574L37.6443 266.318L37.5461 267.387C37.4949 267.988 37.4495 268.603 37.4099 269.233L37.3528 270.347C37.3205 270.991 37.3 271.651 37.2736 272.31L37.2678 273.453C37.2619 274.127 37.2473 274.8 37.2619 275.489L37.2868 276.705C37.3132 277.408 37.3205 278.112 37.3718 278.844L37.4494 280.133C37.489 280.837 37.5403 281.54 37.5916 282.287L37.7366 283.693C37.8069 284.397 37.8714 285.115 37.9564 285.862L38.1644 287.4C38.2479 288.103 38.3461 288.792 38.4486 289.51C38.5409 290.081 38.6523 290.682 38.7475 291.283C38.8647 291.942 38.9893 292.601 39.105 293.275C39.2222 293.934 39.379 294.579 39.5094 295.282C39.6383 295.883 39.7628 296.498 39.8991 297.114C40.0676 297.876 40.2741 298.652 40.4646 299.428L40.8602 301.04C41.0931 301.904 41.3597 302.813 41.6073 303.707L41.9912 305.04C42.2959 306.065 42.6329 307.091 42.9699 308.116L43.2966 309.098C43.6922 310.255 44.1214 311.442 44.5551 312.629L44.791 313.23C45.2906 314.563 45.8224 315.881 46.3952 317.215L46.4597 317.39C49.466 324.452 53.2928 331.675 58.1129 338.81C88.8591 384.711 136.782 393.809 139.51 383.583Z" fill="#A0B3C7"/>
<path d="M303.44 177.474C303.44 157.203 291.799 140.183 276.025 135.337C269.732 137.07 264.091 140.873 259.589 146.224C253.349 153.646 249.431 163.996 249.431 175.496C249.431 186.981 253.349 197.331 259.589 204.783C265.637 211.974 273.784 216.39 282.754 216.666C294.987 209.613 303.44 194.739 303.44 177.474Z" fill="#688DAC"/>
<path d="M276.024 135.337C291.798 140.185 303.44 157.197 303.44 177.476C303.44 194.749 294.986 209.613 282.754 216.669L283.633 216.685C292.961 216.685 301.444 212.206 307.687 204.781C313.923 197.326 317.855 186.987 317.855 175.497C317.855 163.992 313.923 153.653 307.687 146.229C301.444 138.789 292.961 134.294 283.633 134.294C281.021 134.294 278.473 134.678 276.024 135.337Z" fill="#374B5E"/>
<path d="M307.686 146.235C313.923 153.658 317.854 164.001 317.854 175.497C317.854 186.992 313.923 197.335 307.686 204.774C301.443 212.212 292.96 216.7 283.631 216.7L282.754 216.669C273.783 216.392 265.636 211.982 259.589 204.774C253.348 197.335 249.429 186.992 249.429 175.497C249.429 164.001 253.348 153.658 259.589 146.235C264.09 140.871 269.73 137.075 276.024 135.339C278.472 134.678 281.02 134.294 283.631 134.294C292.96 134.294 301.443 138.797 307.686 146.235ZM256.005 143.207C249.001 151.522 244.746 162.941 244.746 175.497C244.746 181.536 245.734 187.315 247.538 192.586C249.481 198.319 252.372 203.467 256.005 207.786C261.007 213.764 267.474 218.16 274.744 220.158C276.251 220.572 277.785 220.911 279.356 221.095H279.362C280.767 221.28 282.196 221.372 283.631 221.372L284.34 221.341C294.915 221.126 304.453 215.931 311.285 207.786C313.176 205.511 314.865 203.006 316.345 200.317C319.652 194.277 321.764 187.269 322.36 179.738C322.471 178.34 322.529 176.926 322.529 175.497C322.529 164.493 319.243 154.365 313.735 146.419C313.131 145.574 312.507 144.729 311.856 143.93H311.843L311.285 143.207C310.456 142.224 309.589 141.302 308.687 140.395C306.407 138.136 303.887 136.169 301.19 134.539C297.655 132.465 293.83 130.943 289.783 130.19C287.782 129.821 285.731 129.622 283.631 129.622C272.764 129.622 262.973 134.878 256.005 143.207Z" fill="#374B5E"/>
<path d="M101.409 113.522C105.606 108.817 108.866 103.846 111.041 99.0467C113.239 94.2949 114.343 89.7627 114.343 86.0302C114.343 84.164 114.057 82.4702 113.537 81.0745L113.251 80.4629C104.508 78.4399 91.1325 84.7912 80.335 96.8824C74.0918 103.877 69.8513 111.499 67.96 118.352C71.1043 116.674 74.2298 115.686 77.197 115.686C79.576 115.686 81.9206 116.36 83.7005 117.975C84.792 118.948 85.584 120.171 86.078 121.488C86.5453 122.759 86.7539 124.107 86.779 125.487L86.9092 125.44C91.788 122.696 96.8284 118.634 101.409 113.522Z" fill="#688DAC"/>
<path d="M113.252 80.4529C112.75 79.3381 112.089 78.4116 111.244 77.6423C109.588 76.1821 107.36 75.397 104.5 75.397C100.773 75.397 96.0829 76.7787 91.2108 79.5264C86.3325 82.2584 81.2783 86.3094 76.7045 91.4437C72.5091 96.1384 69.2543 101.131 67.0765 105.904C64.8815 110.678 63.7777 115.2 63.7777 118.921C63.7777 119.627 63.8295 120.318 63.9206 120.946C65.084 120.083 66.2538 119.298 67.4361 118.622L67.9621 118.34C69.8525 111.494 74.0934 103.863 80.3362 96.8606C91.1339 84.7707 104.51 78.4274 113.252 80.4529Z" fill="#374B5E"/>
<path d="M63.7767 118.936C63.7767 115.208 64.881 110.694 67.0753 105.928C69.2539 101.146 72.5084 96.1436 76.7035 91.4561C81.2778 86.3124 86.3302 82.2699 91.2096 79.5329C96.0811 76.7959 100.772 75.4116 104.5 75.4116C107.359 75.4116 109.587 76.1981 111.243 77.661C112.088 78.416 112.75 79.3442 113.25 80.461L113.537 81.0744C114.057 82.4743 114.342 84.1574 114.342 86.0293C114.342 89.7573 113.239 94.3032 111.042 99.0536C108.866 103.835 105.606 108.822 101.409 113.525C96.8283 118.637 91.7885 122.696 86.9091 125.448L86.7785 125.48L86.7927 125.779C86.7785 127.493 86.4733 129.302 85.9275 131.158C87.0207 130.671 88.1108 130.136 89.1962 129.507C94.5805 126.487 99.9995 122.145 104.904 116.655C109.406 111.606 112.901 106.242 115.305 101.02C117.694 95.766 119.014 90.6539 119.025 86.0293C119.014 83.7013 118.676 81.4833 117.914 79.4227C117.397 78.0542 116.654 76.7486 115.714 75.6161L114.361 74.1532C112.822 72.7847 111.01 71.8567 109.028 71.3218C107.586 70.9129 106.066 70.7241 104.5 70.7241C99.6408 70.7556 94.3021 72.4386 88.9162 75.4588C83.5381 78.4946 78.1208 82.8362 73.2146 88.3259C68.7206 93.3595 65.2128 98.7233 62.8156 103.961C60.4184 109.199 59.1065 114.312 59.1002 118.936C59.1002 120.871 59.3472 122.696 59.8474 124.41C61.1656 123.12 62.523 121.988 63.9199 120.95C63.8286 120.32 63.7767 119.644 63.7767 118.936Z" fill="#374B5E"/>
<path d="M62.7962 132.219C57.8136 137.785 54.9754 144.044 54.7534 148.916L55.3855 149.671C56.1764 150.334 57.237 150.735 58.7818 150.766C60.7828 150.766 63.4391 149.979 66.2403 148.407C69.0399 146.85 71.9891 144.491 74.6392 141.5C77.0812 138.771 78.9774 135.873 80.24 133.114C81.498 130.385 82.1162 127.795 82.1024 125.775C82.1024 124.711 81.9543 123.848 81.6876 123.139L81.239 122.245C76.0544 121.798 68.7671 125.544 62.7962 132.219Z" fill="#688DAC"/>
<path d="M54.754 148.931C54.9746 144.057 57.8129 137.794 62.7953 132.226C68.7664 125.547 76.0549 121.798 81.2393 122.245L80.5807 121.474C79.7955 120.765 78.7296 120.394 77.1964 120.364C75.1972 120.364 72.5394 121.135 69.7336 122.708C66.9277 124.282 63.9923 126.642 61.3283 129.634C58.8849 132.349 56.9876 135.264 55.7413 138.01C54.481 140.756 53.8501 143.332 53.864 145.368C53.864 146.417 54.0198 147.296 54.2805 147.99L54.754 148.931Z" fill="#374B5E"/>
<path d="M55.7419 138.006C56.9875 135.255 58.8852 132.35 61.3285 129.63C63.9912 126.632 66.9275 124.283 69.7324 122.707C72.5404 121.13 75.1969 120.358 77.1967 120.373C78.7313 120.389 79.796 120.76 80.5811 121.47L81.2395 122.243L81.6861 123.139C81.9534 123.85 82.1018 124.716 82.1018 125.782C82.1141 127.791 81.4975 130.403 80.2396 133.123C78.977 135.874 77.0792 138.779 74.6391 141.499C71.9872 144.497 69.0385 146.861 66.2382 148.422C63.4395 149.983 60.783 150.771 58.7817 150.771C57.2363 150.74 56.1761 150.354 55.3849 149.674L54.7528 148.917L54.2799 147.989C54.0203 147.294 53.8642 146.413 53.8642 145.362C53.8503 143.322 54.4809 140.757 55.7419 138.006ZM58.7817 155.454C61.9065 155.454 65.226 154.357 68.5393 152.502C71.845 150.648 75.1521 147.99 78.1332 144.651C79.3093 143.322 80.3354 141.993 81.2781 140.633C82.5515 138.81 83.6487 136.94 84.4941 135.085C85.0968 133.756 85.5588 132.474 85.9282 131.16C86.4737 129.306 86.7782 127.497 86.7921 125.782L86.7782 125.489C86.7534 124.113 86.5448 122.769 86.0781 121.486C85.5836 120.172 84.7923 118.951 83.6997 117.978C81.9194 116.371 79.5751 115.691 77.1967 115.691C74.2295 115.691 71.1047 116.68 67.9598 118.349L67.4344 118.627C66.2522 119.307 65.0823 120.095 63.9201 120.96C62.5231 121.996 61.1647 123.124 59.8465 124.422C59.1711 125.071 58.4896 125.782 57.8328 126.508C55.1037 129.568 52.9617 132.845 51.4735 136.044C50.0054 139.258 49.194 142.441 49.174 145.362C49.174 146.861 49.3949 148.299 49.8941 149.643C50.1676 150.369 50.5308 151.049 50.9805 151.698L52.2725 153.167C54.0651 154.789 56.4033 155.454 58.7817 155.454Z" fill="#374B5E"/>
<path d="M113.918 140.968L113.042 140.417C108.631 139.988 103.538 141.504 99.7331 144.825C96.5496 147.58 94.9656 150.993 95.036 154.115L96.0813 155.125C97.5705 156.242 99.6673 156.87 102.024 156.855C105.482 156.87 109.406 155.492 112.335 152.952C115.07 150.595 116.278 147.84 116.278 145.59C116.265 144.672 116.076 143.83 115.705 143.05C115.317 142.284 114.744 141.58 113.918 140.968Z" fill="#688DAC"/>
<path d="M113.044 140.394C111.654 139.628 109.924 139.2 107.991 139.2C104.526 139.184 100.605 140.562 97.6808 143.104C94.9526 145.477 93.7309 148.233 93.7431 150.468C93.7431 151.386 93.9376 152.228 94.3157 152.994L95.0368 154.096C94.9664 150.988 96.551 147.559 99.7339 144.818C103.54 141.496 108.634 139.981 113.044 140.394Z" fill="#374B5E"/>
<path d="M112.337 152.933C109.407 155.495 105.482 156.86 102.026 156.845C99.6688 156.86 97.5705 156.246 96.0827 155.111L95.0366 154.099L94.3157 153.01C93.9384 152.228 93.7436 151.384 93.7436 150.464C93.7313 148.224 94.9523 145.479 97.681 143.101C100.605 140.555 104.525 139.19 107.99 139.205C109.924 139.205 111.654 139.635 113.043 140.402L113.918 140.954C114.745 141.583 115.317 142.273 115.705 143.04C116.076 143.822 116.265 144.666 116.279 145.586C116.279 147.841 115.072 150.586 112.337 152.933ZM107.99 134.512C103.352 134.512 98.4602 136.245 94.6071 139.573C92.3278 141.552 90.6897 143.868 89.82 146.322C89.3199 147.687 89.0607 149.068 89.0408 150.464C89.0408 152.059 89.4043 153.639 90.1053 155.081C90.8139 156.522 91.8922 157.826 93.2757 158.854C95.7575 160.725 98.8682 161.538 102.026 161.538C106.665 161.523 111.55 159.805 115.402 156.492C116.207 155.786 116.928 155.035 117.578 154.268C118.345 153.317 119.008 152.35 119.5 151.338C120.448 149.482 120.95 147.534 120.95 145.586C120.95 143.991 120.626 142.411 119.897 140.969C119.598 140.356 119.213 139.773 118.787 139.221C118.201 138.484 117.531 137.794 116.753 137.196C114.251 135.34 111.159 134.512 107.99 134.512Z" fill="#374B5E"/>
<path d="M146.486 41.0331C141.244 44.6054 137.799 49.2302 136.799 53.4404L137.346 54.4292C137.905 55.1309 138.665 55.7049 139.71 56.1196C140.743 56.5182 142.056 56.7735 143.542 56.7416C147.258 56.7735 152.066 55.2584 156.431 52.2921C159.343 50.2986 161.635 47.9544 163.161 45.6579C164.702 43.3774 165.429 41.0969 165.422 39.3585C165.411 38.3219 165.183 37.4767 164.734 36.7272C159.938 35.2121 152.813 36.7272 146.486 41.0331Z" fill="#688DAC"/>
<path d="M146.486 41.0301C152.814 36.722 159.94 35.2063 164.734 36.722L164.449 36.2753C163.897 35.5733 163.116 35.0148 162.089 34.6C161.052 34.1851 159.751 33.9618 158.251 33.9618C154.542 33.9298 149.734 35.4296 145.369 38.4133C142.452 40.4077 140.166 42.7532 138.634 45.0349C137.101 47.3484 136.372 49.5982 136.384 51.3693C136.384 52.1511 136.534 52.8212 136.801 53.4435C137.801 49.2312 141.244 44.6041 146.486 41.0301Z" fill="#374B5E"/>
<path d="M138.633 45.0496C140.165 42.7479 142.451 40.4142 145.368 38.4162C149.734 35.4271 154.542 33.9407 158.25 33.9566C159.751 33.9566 161.05 34.1964 162.089 34.596C163.116 35.0276 163.896 35.571 164.447 36.2903L164.733 36.7378C165.182 37.4731 165.411 38.3203 165.422 39.3593C165.429 41.1016 164.701 43.3713 163.162 45.657C161.634 47.9587 159.342 50.3084 156.431 52.2905C152.066 55.2635 147.258 56.7821 143.543 56.7501C142.055 56.7821 140.744 56.5263 139.71 56.1267C138.665 55.6951 137.905 55.1357 137.346 54.4324L136.799 53.4414C136.534 52.818 136.384 52.1466 136.384 51.3634C136.371 49.6051 137.1 47.3514 138.633 45.0496ZM138.003 60.4905C139.697 61.1459 141.588 61.4496 143.543 61.4496C148.44 61.4336 153.995 59.5953 159.068 56.1587C162.446 53.857 165.149 51.1397 167.067 48.2626C168.963 45.3694 170.091 42.3643 170.099 39.3593C170.099 37.9047 169.794 36.4662 169.177 35.1555C168.897 34.5321 168.573 33.9566 168.157 33.4131C167.019 31.9585 165.492 30.9035 163.798 30.2322C162.096 29.5768 160.224 29.2732 158.25 29.2572C153.346 29.2892 147.798 31.0953 142.725 34.5479C139.353 36.8657 136.636 39.583 134.736 42.4442C132.837 45.3534 131.694 48.3584 131.694 51.3634C131.689 52.2106 131.823 53.0259 132.025 53.8571C132.332 55.0719 132.851 56.2547 133.644 57.2937C134.774 58.7642 136.294 59.8032 138.003 60.4905Z" fill="#374B5E"/>
<path d="M194.594 233.274C176.749 220.679 151.038 216.555 132.214 224.388C116.374 230.989 109.756 244.267 113.407 258.034C119.045 263.716 126.217 268.315 134.11 271.49C142.521 274.887 151.688 276.712 160.516 276.712C167.792 276.712 174.82 275.465 180.985 272.884C187.156 270.332 191.741 266.742 194.789 262.588C196.297 260.571 197.42 258.375 198.181 256.076C198.147 256.031 198.122 255.987 198.085 255.942C198.057 255.898 198.021 255.868 197.992 255.824C198.005 255.824 198.023 255.853 198.038 255.868C196.989 254.34 195.978 252.797 195.048 251.195C196.349 252.085 197.622 252.871 198.849 253.643C199.181 252.041 199.376 250.394 199.376 248.732C199.376 243.777 197.817 238.496 194.594 233.274Z" fill="#688DAC"/>
<path d="M159.126 217.726C155.696 217.726 152.499 216.951 149.785 215.581C147.082 214.225 144.841 212.259 143.437 209.801C142.893 208.848 142.509 207.82 142.254 206.733L141.21 206.703C133.935 206.688 126.91 207.939 120.741 210.501C114.576 213.078 109.97 216.668 106.938 220.809C103.89 224.965 102.356 229.672 102.356 234.677C102.356 241.783 105.481 249.573 112.284 256.887L113.407 258.034C109.756 244.27 116.374 230.983 132.213 224.384C151.038 216.564 176.749 220.675 194.594 233.277C193.197 231.013 191.502 228.749 189.442 226.514C184.565 221.271 178.34 216.907 171.475 213.63L170.988 214.032C167.843 216.355 163.68 217.696 159.126 217.726Z" fill="#374B5E"/>
<path d="M195.624 226.512C194.774 225.44 193.863 224.369 192.883 223.313C187.822 217.884 181.56 213.421 174.68 209.97C173.855 211.353 172.771 212.573 171.477 213.614C178.343 216.887 184.567 221.245 189.445 226.497C191.505 228.728 193.2 230.989 194.597 233.25C197.82 238.471 199.379 243.767 199.379 248.721C199.379 250.387 199.184 252.023 198.852 253.63C200.289 254.522 201.679 255.4 202.997 256.352C203.691 253.883 204.069 251.309 204.069 248.721C204.069 241.328 201.23 233.622 195.624 226.512Z" fill="#374B5E"/>
<path d="M194.79 262.594C191.742 266.743 187.156 270.339 180.985 272.891C174.82 275.458 167.792 276.712 160.516 276.712C151.688 276.712 142.522 274.891 134.109 271.488C126.218 268.31 119.046 263.713 113.407 258.027L112.285 256.892C105.482 249.579 102.356 241.789 102.356 234.67C102.356 229.655 103.89 224.954 106.937 220.805C109.97 216.671 114.576 213.074 120.741 210.507C126.911 207.925 133.934 206.687 141.211 206.702L142.255 206.731C142.08 205.955 141.964 205.179 141.964 204.373C141.964 203.567 142.08 202.777 142.243 202.045L141.211 202.015C133.401 202.015 125.781 203.329 118.941 206.194C112.101 209.03 106.775 213.104 103.156 218.059C99.5379 222.939 97.6664 228.7 97.6664 234.67C97.6664 243.192 101.409 252.087 108.855 260.056C111.977 263.429 115.55 266.414 119.435 269.011C123.456 271.697 127.802 273.981 132.357 275.831C141.32 279.443 151.052 281.383 160.516 281.398C168.317 281.383 175.937 280.07 182.779 277.219C189.611 274.384 194.953 270.294 198.576 265.384C199.708 263.832 200.648 262.206 201.434 260.504C200.299 259.071 199.22 257.594 198.181 256.086C197.42 258.37 196.297 260.564 194.79 262.594Z" fill="#374B5E"/>
<path d="M232.352 53.8923C223.412 68.5771 225.874 83.214 236.924 92.1818C239.795 92.6463 242.745 92.8704 245.733 92.8704C256.355 92.8864 267.488 90.0039 277.201 84.9915C286.925 79.9631 295.215 72.8209 300.319 64.4776C303.827 58.6806 305.419 53.0437 305.419 47.8551C305.419 41.6737 303.166 36.1168 298.884 31.5848C296.136 28.6863 292.512 26.2201 288.087 24.4106C266.223 24.6988 242.979 36.4851 232.352 53.8923Z" fill="#688DAC"/>
<path d="M209.792 66.0032C209.803 72.2088 212.051 77.7731 216.339 82.2949C220.639 86.8168 227.02 90.2964 235.34 91.8839L236.924 92.1725C225.875 83.2089 223.413 68.5689 232.353 53.8808C242.979 36.4827 266.224 24.697 288.088 24.4084C285.605 23.3821 282.871 22.5643 279.898 21.971C276.531 21.3136 273.043 21.0089 269.496 21.0089C258.868 20.9768 247.735 23.847 238.023 28.882C228.299 33.901 220.011 41.0367 214.912 49.4231C211.403 55.1796 209.792 60.8399 209.792 66.0032Z" fill="#374B5E"/>
<path d="M238.021 28.8874C247.733 23.8595 258.867 20.9841 269.494 21.0162C273.041 21.0162 276.529 21.3214 279.895 21.98C282.869 22.5744 285.603 23.3937 288.085 24.4217C292.51 26.2209 296.134 28.6946 298.883 31.586C303.164 36.132 305.417 41.6901 305.417 47.8746C305.417 53.0631 303.825 58.7014 300.317 64.4843C295.212 72.8373 286.923 79.9857 277.198 84.9975C267.486 90.0093 256.353 92.9007 245.731 92.8847C242.744 92.8847 239.794 92.6598 236.922 92.194L235.338 91.9049C227.017 90.2985 220.637 86.8288 216.337 82.2989C212.049 77.785 209.8 72.2108 209.789 66.0103C209.789 60.8539 211.402 55.1995 214.909 49.4326C220.007 41.0474 228.298 33.9153 238.021 28.8874ZM210.901 46.9911C209.723 48.9027 208.756 50.8302 207.945 52.79C206.054 57.2557 205.099 61.7053 205.099 66.0103C205.099 73.3674 207.866 80.1945 212.933 85.5276C218.02 90.8607 225.342 94.7321 234.442 96.5151C238.125 97.238 241.907 97.5754 245.731 97.5914C253.015 97.5754 260.426 96.3224 267.525 94.0574C271.599 92.7402 275.568 91.1017 279.354 89.158C282.687 87.4392 285.857 85.4473 288.827 83.2787C295.101 78.7166 300.481 73.2069 304.312 66.91C308.211 60.5327 310.121 54.0109 310.121 47.8746C310.121 40.5175 307.355 33.6904 302.272 28.3573C297.199 23.0081 289.885 19.1528 280.798 17.3698C277.108 16.6469 273.314 16.3256 269.494 16.3256C258.022 16.3256 246.231 19.3778 235.87 24.743C233.766 25.8032 231.751 27.024 229.783 28.293C222.041 33.2727 215.408 39.5858 210.901 46.9911Z" fill="#374B5E"/>
<path d="M283.63 313.578C284.274 313.578 284.897 313.492 285.502 313.378L286.633 312.334C285.443 311.876 284.235 311.333 283 310.661C280.388 309.217 277.7 305.314 275.102 304.485C274.25 304.227 273.263 304.284 272.238 304.456C272.893 306.286 273.821 307.902 274.959 309.246C277.276 312.005 280.318 313.578 283.63 313.578Z" fill="#688DAC"/>
<path d="M287.747 312.704L286.632 312.334L285.501 313.374C286.273 313.246 287.021 313.032 287.747 312.704Z" fill="#374B5E"/>
<path d="M277.44 316.875C279.354 317.762 281.447 318.248 283.63 318.248C287.027 318.248 290.172 317.09 292.801 315.145L294.353 313.873C292.079 313.787 289.91 313.401 287.747 312.701C287.021 313.03 286.273 313.244 285.501 313.373C284.897 313.501 284.273 313.587 283.63 313.587C280.316 313.587 277.275 312 274.958 309.241C273.82 307.912 272.891 306.282 272.236 304.466C270.742 304.738 269.155 305.281 267.7 305.682C268.551 308.155 269.794 310.385 271.371 312.272C273.041 314.23 275.105 315.846 277.44 316.875Z" fill="#374B5E"/>
<path d="M283.629 309.299L283.311 309.314C281.699 309.372 280.147 309.661 278.687 310.167L278.419 310.253C284.008 312.292 289.701 314.836 295.687 315.068C293.784 312.885 291.405 311.164 288.709 310.21C287.11 309.617 285.403 309.299 283.629 309.299Z" fill="#374B5E"/>
<path d="M150.054 210.258C152.275 211.904 155.504 213.027 159.129 213.012C160.421 213.012 161.669 212.877 162.831 212.608C165.493 210.603 167.144 207.879 167.144 204.842C167.144 201.056 164.56 197.719 160.656 195.729L159.129 195.669C156.4 195.669 153.906 196.298 151.892 197.285C149.876 198.303 148.357 199.709 147.513 201.22C146.942 202.223 146.662 203.256 146.656 204.348C146.662 205.44 146.942 206.473 147.513 207.475C148.085 208.478 148.929 209.435 150.054 210.258Z" fill="#688DAC"/>
<path d="M167.145 204.847C167.145 207.884 165.494 210.608 162.831 212.613C164.112 212.328 165.298 211.924 166.34 211.386C168.37 210.383 169.886 208.962 170.731 207.48C171.297 206.478 171.587 205.445 171.587 204.353C171.587 203.261 171.297 202.213 170.731 201.211C170.158 200.193 169.307 199.251 168.201 198.443C166.293 197.021 163.649 195.989 160.655 195.735C164.559 197.71 167.145 201.061 167.145 204.847Z" fill="#374B5E"/>
<path d="M147.511 201.236C148.355 199.722 149.874 198.327 151.89 197.308C153.903 196.304 156.398 195.689 159.127 195.689L160.653 195.749C163.647 196.004 166.291 197.038 168.198 198.448C169.305 199.272 170.155 200.217 170.729 201.236C171.294 202.24 171.585 203.275 171.585 204.369C171.585 205.449 171.294 206.498 170.729 207.503C169.883 208.987 168.368 210.396 166.336 211.401C165.296 211.94 164.109 212.345 162.828 212.615C161.666 212.885 160.418 213.02 159.127 213.02C155.5 213.05 152.272 211.925 150.051 210.276C148.926 209.452 148.082 208.492 147.511 207.503C146.94 206.498 146.659 205.449 146.653 204.369C146.659 203.275 146.94 202.24 147.511 201.236ZM142.253 206.723C142.508 207.818 142.893 208.852 143.436 209.811C144.841 212.255 147.082 214.234 149.785 215.583C152.499 216.948 155.695 217.727 159.127 217.727C163.68 217.697 167.843 216.363 170.987 214.024L171.474 213.634C172.768 212.6 173.853 211.371 174.676 209.991L174.805 209.811C175.73 208.162 176.269 206.318 176.269 204.369C176.269 202.42 175.73 200.546 174.805 198.927C173.398 196.454 171.155 194.505 168.447 193.125C165.74 191.776 162.543 190.996 159.127 190.996C154.56 190.996 150.389 192.361 147.25 194.7C145.679 195.869 144.373 197.278 143.436 198.927C142.893 199.887 142.496 200.936 142.241 202.046C142.079 202.78 141.964 203.575 141.964 204.369C141.964 205.179 142.079 205.959 142.253 206.723Z" fill="#374B5E"/>
<path d="M418.466 25.8764L424.199 15.3784L429.936 25.8764L440.434 31.6173L429.936 37.3421L424.199 47.8561L418.466 37.3421L407.968 31.6173L418.466 25.8764ZM424.199 57.0802L433.21 40.6156L449.658 31.6173L433.21 22.6028L424.199 6.15433L415.197 22.6028L398.744 31.6173L415.197 40.6156L424.199 57.0802Z" fill="#F8D427"/>
<path d="M424.196 47.8673L429.933 37.3581L440.431 31.6373L429.933 25.8845L424.196 15.3913L418.463 25.8845L407.965 31.6373L418.463 37.3581L424.196 47.8673Z" fill="#F5AB2A"/>
<path d="M449.045 70.9778L449.655 69.8566L450.272 70.9778L451.398 71.6095L450.272 72.1938L449.655 73.3308L449.045 72.1938L447.919 71.6095L449.045 70.9778ZM449.655 82.5533L453.54 75.447L460.628 71.6095L453.54 67.709L449.655 60.6184L445.784 67.709L438.703 71.6095L445.784 75.447L449.655 82.5533Z" fill="#F8D427"/>
<path d="M449.654 73.3168L450.273 72.1996L451.398 71.6016L450.273 70.9722L449.654 69.855L449.045 70.9722L447.92 71.6016L449.045 72.1996L449.654 73.3168Z" fill="#F5AB2A"/>
<path d="M378.026 14.0622L372.653 16.9943L378.026 19.9425L380.956 25.2911L383.904 19.9425L389.264 16.9943L383.904 14.0622L380.956 8.69743L378.026 14.0622Z" fill="#F5AB2A"/>
<path d="M198.182 256.082C199.221 257.6 200.3 259.073 201.435 260.504C202.626 261.992 203.852 263.452 205.133 264.882C202.604 262.051 200.24 259.073 198.086 255.936C198.124 255.98 198.149 256.038 198.182 256.082Z" fill="#DAE3EB"/>
<path d="M459.78 220.018C458.141 225.129 453.705 225.129 449.592 227.503C442.272 231.727 443.794 240.611 436.464 244.128C435.678 244.504 434.813 244.834 433.796 245.075C427.729 246.518 423.505 248.848 419.394 253.627C416.989 256.423 414.45 261.158 410.805 262.556C408.971 263.262 407.141 263.262 405.329 263.067C403.769 262.931 402.218 262.646 400.652 262.586C399.022 262.496 397.371 262.646 395.735 263.473C390.712 265.908 387.446 270.868 382.969 274.054C378.098 277.496 370.522 278.113 364.663 278.699C358.134 279.36 353.561 277.466 347.45 276.249C339.491 274.596 330.073 274.971 322.356 277.196C320.191 277.812 318.022 278.549 315.826 279.33C310.036 281.374 304.146 283.569 298.162 284.035C297.325 284.095 296.513 284.095 295.689 284.065C289.704 283.825 284.009 281.284 278.422 279.24L278.213 279.15L276.889 278.684C269.97 276.309 263.207 276.504 256.042 277.527C249.489 278.474 247.025 279.781 241.291 276.129C235.248 272.281 229.298 268.673 222.171 267.997C220.196 267.832 218.366 267.546 216.676 267.08C213.539 266.238 210.862 264.705 208.621 261.699C206.953 259.459 205.062 257.821 202.995 256.363C201.677 255.416 200.288 254.529 198.851 253.627C197.624 252.861 196.35 252.079 195.051 251.192C195.98 252.786 196.99 254.334 198.038 255.852C199.891 257.746 201.797 259.58 203.775 261.338C206.393 263.668 208.85 264.42 210.868 267.456C212.188 269.44 212.914 271.8 214.234 273.784L214.246 273.799H214.241C215.852 275.076 217.384 275.903 218.774 277.181C219.858 277.286 221.047 277.061 223.048 277.466C226.53 278.173 227.985 280.653 230.649 282.847C233.696 285.358 236.048 285.418 239.777 286.229C243.881 287.131 245.012 288.349 247.735 291.355C250.357 294.256 251.957 294.587 256.017 294.211C258.764 293.97 262.693 291.806 265.352 292.633C267.957 293.444 270.645 297.367 273.251 298.795C278.715 301.802 283.508 302.388 289.536 301.907C295.494 301.471 301.261 303.109 307.251 302.162C310.537 301.606 313.272 302.854 316.515 303.124C324.556 303.74 329.097 295.985 336.827 299.923C340.438 301.786 341.012 302.192 344.628 301.366C347.786 300.644 349.022 300.449 352.469 301.11C354.445 301.501 357.647 302.658 359.641 301.802C362.019 300.794 362.565 297.277 365.275 296.481C369.466 295.248 375.876 299.006 380.267 296.39C382.23 295.248 382.126 292.557 384.333 291.535C386.556 290.513 390.401 291.881 392.843 291.58C395.631 291.265 399.066 290.213 401.205 288.289C402.679 286.966 403.38 283.359 404.96 282.577C406.317 281.916 409.227 283.058 410.973 282.817C413.015 282.517 419.289 281.329 420.816 280.007C422.343 278.654 422.108 276.249 423.772 274.746C428.642 270.402 436.543 273.137 440.92 268.147C443.141 265.637 442.537 261.985 445.545 260.166C448.65 258.272 452.146 258.918 455.225 256.137C458.246 253.402 459.741 249.9 460.631 245.992C461.389 242.64 461.474 239.634 462.89 236.507C464.318 233.351 466.133 230.855 466.761 227.338C467.478 223.37 466.632 219.567 466.561 215.599C466.51 212.232 467.627 209.947 468.47 206.731C470.296 199.802 466.92 191.835 466.632 184.65C464.608 188.183 467.524 196.435 466.353 200.207C465.575 202.672 463.884 204.732 462.488 206.926C461.877 207.888 461.318 208.88 460.911 209.932C459.624 213.329 460.857 216.606 459.78 220.018Z" fill="#DAE3EB"/>
<path d="M214.245 273.793L214.234 273.779C214.238 273.779 214.241 273.793 214.241 273.793H214.245Z" fill="#B2CEE4"/>
<path d="M198.087 255.937C200.241 259.06 202.605 262.037 205.134 264.869L205.27 265.014C206.484 266.372 207.725 267.685 209.005 268.94L209.641 269.539C210.904 270.779 212.188 272.02 213.513 273.187L214.234 273.786C212.915 271.801 212.188 269.437 210.868 267.452C208.85 264.416 206.394 263.672 203.774 261.337C201.798 259.585 199.891 257.746 198.039 255.849C198.025 255.835 198.006 255.82 197.993 255.805C198.022 255.849 198.059 255.878 198.087 255.937Z" fill="#B2CEE4"/>
<path d="M466.62 184.512C466.62 184.557 466.63 184.602 466.633 184.647C466.922 191.838 470.298 199.796 468.472 206.731C467.628 209.95 466.511 212.237 466.563 215.607C466.633 219.563 467.479 223.369 466.763 227.341C466.134 230.846 464.321 233.343 462.892 236.502C461.476 239.631 461.391 242.625 460.632 245.995C459.743 249.891 458.247 253.396 455.227 256.134C452.148 258.902 448.652 258.27 445.547 260.166C442.54 261.986 443.143 265.642 440.921 268.154C436.545 273.133 428.644 270.395 423.774 274.743C422.109 276.232 422.345 278.639 420.818 279.993C419.291 281.332 413.016 282.506 410.975 282.806C409.228 283.047 406.318 281.919 404.962 282.566C403.381 283.348 402.68 286.958 401.206 288.282C399.068 290.208 395.632 291.246 392.846 291.577C390.403 291.878 386.558 290.509 384.334 291.532C382.127 292.555 382.231 295.248 380.268 296.376C375.877 299.008 369.467 295.247 365.276 296.481C362.566 297.263 362.022 300.784 359.643 301.807C357.648 302.664 354.447 301.491 352.47 301.115C349.022 300.438 347.787 300.633 344.631 301.355C341.013 302.198 340.44 301.776 336.83 299.911C329.099 295.97 324.557 303.732 316.516 303.115C313.273 302.86 310.538 301.611 307.252 302.152C301.262 303.1 295.494 301.476 289.537 301.912C283.509 302.378 278.716 301.792 273.252 298.783C270.647 297.354 267.959 293.442 265.353 292.615C262.695 291.803 258.765 293.954 256.018 294.209C251.958 294.586 250.359 294.255 247.735 291.351C245.013 288.342 243.883 287.124 239.777 286.221C236.05 285.409 233.697 285.349 230.65 282.837C227.986 280.655 226.531 278.173 223.049 277.466C221.05 277.06 219.86 277.285 218.775 277.165L219.64 278.038L219.736 278.158L219.762 278.203L220.607 279.301C222.27 281.799 222.971 284.882 225.129 287.064C228.123 290.148 228.947 288.523 232.794 289.305C236.289 290.012 237.731 292.495 240.396 294.691C243.434 297.203 245.793 297.263 249.523 298.091C250.789 298.346 251.749 298.662 252.587 299.054C254.458 299.896 255.596 301.115 257.473 303.191C260.104 306.094 261.7 306.47 265.762 306.064C266.371 306.019 267.015 305.853 267.704 305.673C269.159 305.267 270.745 304.725 272.24 304.454C273.266 304.274 274.251 304.213 275.104 304.484C277.701 305.297 280.391 309.208 283.002 310.637C284.237 311.329 285.445 311.871 286.635 312.322L287.751 312.683C289.913 313.39 292.082 313.766 294.357 313.856C295.385 313.917 296.43 313.917 297.516 313.856C298.106 313.826 298.678 313.811 299.281 313.766C300.471 313.676 301.634 313.691 302.809 313.706C307.531 313.886 312.194 314.759 316.998 314.007C320.297 313.45 323.018 314.714 326.252 314.955C327 315.03 327.709 314.97 328.39 314.925C335.158 314.218 339.565 308.17 346.578 311.765C350.19 313.646 350.763 314.052 354.381 313.21C357.519 312.487 358.751 312.292 362.202 312.954C364.197 313.345 367.4 314.518 369.389 313.661C371.765 312.623 372.317 309.118 375.021 308.32C378.085 307.403 382.359 309.208 386.153 309.178C387.524 309.178 388.831 308.922 390.006 308.245C391.967 307.072 391.87 304.394 394.078 303.386L394.203 303.356C396.429 302.438 400.18 303.732 402.582 303.446C404.318 303.236 406.286 302.754 408.052 301.957C409.131 301.476 410.131 300.874 410.957 300.122C412.424 298.783 413.126 295.202 414.703 294.435C416.063 293.773 418.966 294.916 420.719 294.676C422.759 294.36 429.017 293.172 430.548 291.833C432.077 290.479 431.854 288.102 433.518 286.597C438.387 282.22 446.288 284.973 450.666 280.008C452.888 277.496 452.264 273.84 455.286 272.02C457.487 270.666 459.877 270.591 462.185 269.658C463.146 269.297 464.068 268.786 464.971 267.973C467.984 265.235 469.472 261.745 470.375 257.849C471.142 254.479 471.207 251.471 472.636 248.357C472.974 247.604 473.331 246.912 473.683 246.22C474.852 243.979 476.027 241.888 476.515 239.195C477.216 235.208 476.371 231.418 476.306 227.446C476.243 224.091 477.364 221.79 478.217 218.585C480.133 211.304 476.287 202.865 476.332 195.373C476.357 191.492 477.164 188.528 474.417 185.158C473.195 183.654 469.862 182.586 467.907 183.383L467.771 183.458L467.056 183.925L466.62 184.512Z" fill="#B2CEE4"/>
<path d="M17.968 333.887C18.8116 337.107 19.9217 339.387 19.8704 342.751C19.8063 346.712 18.9612 350.503 19.6695 354.493C20.3065 357.999 22.1121 360.507 23.5414 363.657C24.9637 366.777 25.0349 369.799 25.8073 373.162C26.7051 377.052 28.1986 380.558 31.2069 383.28C34.2851 386.059 37.788 385.432 40.8918 387.313C43.9001 389.151 43.2816 392.785 45.5162 395.308C49.8954 400.281 57.7818 397.559 62.6542 401.92C64.3229 403.402 64.0892 405.796 65.6226 407.136C67.1489 408.49 73.4321 409.672 75.4642 409.957C77.2114 410.228 80.1214 409.06 81.4724 409.715C83.0513 410.485 83.7525 414.104 85.2274 415.43C87.3708 417.382 90.8081 418.408 93.5941 418.736C96.031 419.035 99.883 417.681 102.098 418.693C104.312 419.705 104.21 422.384 106.172 423.538C110.568 426.146 116.967 422.384 121.152 423.638C123.866 424.408 124.419 427.942 126.79 428.954C128.785 429.823 131.979 428.654 133.974 428.255C137.41 427.586 138.652 427.799 141.802 428.526C145.42 429.339 145.993 428.925 149.61 427.073C157.334 423.111 161.881 430.892 169.924 430.265C173.159 430.023 175.894 428.769 179.174 429.296C185.164 430.265 190.938 428.612 196.895 429.082C202.936 429.51 207.724 428.954 213.175 425.933C215.773 424.522 218.482 420.588 221.075 419.776C223.744 418.964 227.674 421.102 230.415 421.372C234.475 421.757 236.078 421.401 238.703 418.494C241.425 415.487 242.555 414.275 246.662 413.378C250.391 412.551 252.743 412.508 255.775 410C258.452 407.806 259.901 405.326 263.402 404.613C265.39 404.2 266.559 404.442 267.663 404.328C269.061 403.046 270.619 402.162 272.241 400.865C273.529 398.899 274.261 396.562 275.568 394.581C277.582 391.574 280.032 390.804 282.671 388.496C284.657 386.729 286.58 384.876 288.438 382.966C289.47 381.456 290.476 379.917 291.394 378.349C286.138 381.869 281.428 384.007 277.81 388.838C274.36 393.483 269.859 394.638 264.266 395.151C257.128 395.835 251.188 399.412 245.147 403.274C239.424 406.922 236.937 405.611 230.396 404.67C223.231 403.63 216.474 403.459 209.543 405.853C202.695 408.205 195.727 411.753 188.282 411.183C180.024 410.556 171.952 406.623 164.077 404.357C156.359 402.134 146.941 401.763 138.983 403.388C136.281 403.929 133.877 404.599 131.486 405.126L130.467 405.34C129.245 405.611 127.998 405.753 126.704 405.882C125.16 406.01 123.548 406.024 121.774 405.853C115.928 405.283 108.334 404.642 103.468 401.193C98.9795 398.015 95.7331 393.042 90.6898 390.605C85.7148 388.182 80.7128 391.645 75.6324 389.707C71.9828 388.31 69.4418 383.593 67.0449 380.8C63.4665 376.61 59.8083 374.302 54.9103 372.834H54.8846L54.8533 372.806C54.1365 372.606 53.4026 372.407 52.6359 372.221C42.1786 369.756 44.9518 359.324 36.8374 354.65C34.4219 353.253 31.8824 352.655 29.8745 351.387C28.4708 350.503 27.3222 349.263 26.6524 347.168C26.3659 346.256 26.2505 345.359 26.1907 344.475C26.061 342.01 26.4643 339.573 25.5152 337.065C24.2098 333.602 21.1829 330.894 20.0856 327.36C18.9099 323.583 21.8171 315.332 19.812 311.812C19.507 319.009 16.1353 326.961 17.968 333.887Z" fill="#DAE3EB"/>
<path d="M272.923 400.346C274.249 399.158 275.535 397.956 276.801 396.699L277.432 396.091C278.706 394.834 279.946 393.521 281.162 392.168L281.311 391.988C283.878 389.156 286.254 386.145 288.431 382.995L288.438 382.967C286.579 384.874 284.656 386.725 282.669 388.493C280.031 390.8 277.581 391.587 275.569 394.585C274.26 396.574 273.528 398.909 272.239 400.871C272.224 400.884 272.213 400.912 272.198 400.94L272.923 400.346Z" fill="#B2CEE4"/>
<path d="M111.414 435.471C114.13 436.255 114.676 439.764 117.053 440.791C119.04 441.661 122.237 440.477 124.231 440.092C127.668 439.45 128.915 439.621 132.058 440.377C133.84 440.776 134.871 440.891 135.911 440.662C136.975 440.434 138.023 439.864 139.866 438.936C147.585 434.971 152.138 442.73 160.182 442.117C163.416 441.86 166.157 440.62 169.445 441.147C175.421 442.117 181.194 440.463 187.145 440.905C193.2 441.375 197.974 440.791 203.425 437.781C206.044 436.355 208.739 432.433 211.329 431.62C214.001 430.778 217.932 432.946 220.672 433.231C224.74 433.602 226.337 433.245 228.967 430.35C231.683 427.326 232.812 426.114 236.917 425.215C240.647 424.402 242.992 424.331 246.046 421.849C248.716 419.653 250.149 417.171 253.647 416.458C257.478 415.659 258.316 417.257 261.304 414.219L262.611 412.55C263.833 410.61 264.553 408.356 265.826 406.459L266.71 405.304L266.789 405.219L267.664 404.32C266.56 404.448 265.391 404.192 263.404 404.605C259.902 405.318 258.453 407.8 255.777 409.997C252.745 412.507 250.393 412.55 246.663 413.363C242.557 414.261 241.426 415.474 238.705 418.498C236.079 421.393 234.476 421.749 230.415 421.364C227.675 421.093 223.744 418.954 221.075 419.781C218.482 420.58 215.774 424.516 213.177 425.929C207.725 428.938 202.937 429.509 196.897 429.081C190.939 428.61 185.165 430.265 179.175 429.295C175.896 428.767 173.16 430.022 169.925 430.265C161.882 430.878 157.335 423.104 149.61 427.07C145.993 428.924 145.42 429.337 141.803 428.524C138.652 427.797 137.411 427.583 133.975 428.254C131.98 428.639 128.786 429.822 126.791 428.938C124.419 427.925 123.867 424.402 121.153 423.632C116.966 422.377 110.569 426.143 106.172 423.547C104.21 422.377 104.314 419.696 102.099 418.683C99.8836 417.67 96.0311 419.025 93.595 418.726C90.808 418.412 87.372 417.371 85.2283 415.417C83.7535 414.105 83.0532 410.482 81.4742 409.712C80.1221 409.055 77.2124 410.225 75.4652 409.954C73.4327 409.669 67.1498 408.485 65.6223 407.13C64.089 405.789 64.3243 403.407 62.6555 401.91C57.7833 397.545 49.8958 400.269 45.5171 395.306C43.282 392.781 43.8996 389.144 40.8915 387.319C37.7879 385.422 34.2863 386.049 31.2069 383.282C28.1988 380.543 26.7055 377.049 25.8083 373.155C25.0367 369.789 24.964 366.78 23.5419 363.656C22.1128 360.504 20.3071 357.994 19.6695 354.485C18.9621 350.491 19.8064 346.697 19.8706 342.746C19.922 339.38 18.8123 337.098 17.9679 333.875C16.1366 326.957 19.5083 318.998 19.8136 311.81C19.8136 311.753 19.825 311.696 19.825 311.653L19.3843 311.068L18.5271 310.498C16.8126 309.813 14.0313 310.555 12.5437 311.781L12.0174 312.295C9.2632 315.675 10.0819 318.627 10.1133 322.521C10.1461 330.024 6.30076 338.439 8.22342 345.727C9.0678 348.937 10.186 351.233 10.1204 354.585C10.0562 358.55 9.22468 362.358 9.93926 366.352C10.5626 369.832 12.3683 372.342 13.7974 375.494C15.2266 378.632 15.3036 381.642 16.0638 384.994C16.9553 388.887 18.4486 392.396 21.4624 395.12C24.5418 397.902 28.0434 397.26 31.1484 399.157C34.1565 400.983 33.5518 404.634 35.7739 407.158C40.1527 412.122 48.0459 409.383 52.9224 413.762C54.5869 415.246 54.3459 417.627 55.8863 418.968C57.4196 420.323 63.6811 421.521 65.7207 421.821C67.4622 422.078 70.379 420.908 71.7368 421.578C73.3143 422.348 74.0161 425.943 75.4837 427.269C77.6289 429.223 81.0578 430.265 83.8505 430.593C86.2866 430.878 90.1391 429.509 92.3555 430.536C94.5692 431.548 94.4722 434.244 96.4333 435.385C99.6696 437.325 104.016 435.784 107.75 435.328C109.069 435.157 110.33 435.143 111.414 435.471Z" fill="#B2CEE4"/>
</svg>
