<svg width="481" height="474" viewBox="0 0 481 474" fill="none" xmlns="http://www.w3.org/2000/svg">
<path d="M129.667 458.817H129.32C130.148 458.83 130.962 458.87 131.803 458.897L131.389 458.87L129.667 458.817Z" fill="#9ADFF7"/>
<path d="M126.975 458.686L127.749 458.713L127.429 458.686H126.975Z" fill="#9ADFF7"/>
<path d="M124.912 458.534L125.286 458.574L125.019 458.534H124.912Z" fill="#9ADFF7"/>
<path d="M144.035 458.613C144.061 458.613 144.088 458.599 144.115 458.599H144.088L144.035 458.613Z" fill="#9ADFF7"/>
<path d="M142.136 458.728C142.67 458.701 143.204 458.661 143.724 458.621H143.631L142.136 458.728Z" fill="#9ADFF7"/>
<path d="M138.715 458.892L139.769 458.838H139.462L138.715 458.892Z" fill="#9ADFF7"/>
<path d="M115.059 457.382L115.165 457.409L115.112 457.382H115.059Z" fill="#9ADFF7"/>
<path d="M145.391 458.514L146.139 458.447L145.525 458.487L145.391 458.514Z" fill="#9ADFF7"/>
<path d="M109.941 456.466L110.422 456.546L109.874 456.426L109.941 456.466Z" fill="#9ADFF7"/>
<path d="M180.684 450.424L181.93 449.928L181.568 450.075L180.684 450.424Z" fill="#9ADFF7"/>
<path d="M176.729 451.871L177.707 451.536L177.198 451.697L176.729 451.871Z" fill="#9ADFF7"/>
<path d="M178.331 451.311L179.751 450.775L178.934 451.057L178.331 451.311Z" fill="#9ADFF7"/>
<path d="M175.345 452.315L175.493 452.275L175.399 452.302L175.345 452.315Z" fill="#9ADFF7"/>
<path d="M63.1175 220.473C73.7974 206.447 83.3839 196.382 88.9315 192.566C104.451 181.809 118.986 169.376 133.044 157.363C136.136 154.738 139.18 152.113 142.272 149.537C161.564 133.208 181.935 115.107 200.116 93.3354C201.098 92.1598 202.08 90.968 203.095 89.7764C207.395 84.6715 211.887 79.3091 216.042 73.6245C216.3 79.8888 216.171 87.2642 215.527 95.9763C214.995 103.239 213.82 109.777 212.966 114.544C211.485 122.692 210.551 128.087 214.689 133.433C217.057 136.461 220.583 138.377 224.432 138.651C231.904 139.214 236.445 133.755 238.152 131.71C247.605 120.389 255.593 112.016 266.076 105.268C284.209 93.6252 303.565 82.9485 322.294 72.6422C336.143 65.0092 350.459 57.1184 364.437 48.7607C367.126 47.1503 369.831 45.5076 372.601 43.8329C372.392 47.8748 372.601 51.627 372.778 55.1537C372.939 58.5032 373.117 61.6435 372.939 64.671C371.877 84.0114 366.321 99.4869 354.42 116.46L339.605 137.54L365.371 137.298C384.309 137.121 395.726 115.317 404.889 97.8121C407.482 92.8844 410.155 87.7635 411.765 85.7022C417.047 78.9387 425.646 71.821 435.421 66.1203C428.996 77.7632 426.951 89.084 424.793 100.952L424.342 103.384C419.575 129.536 400.058 148.716 379.365 169.006C374.614 173.66 369.735 178.459 365.113 183.306L333.904 215.884L377.754 205.32C386.016 203.339 393.52 198.83 400.332 194.289C395.066 202.276 390.637 211.053 387.578 221.037C384.405 231.472 383.165 241.794 382.006 251.763C379.977 268.639 378.254 283.213 367.496 294.743C360.008 302.747 352.665 309.301 345.596 314.245C343.711 315.565 341.312 316.998 338.784 318.496C332.471 322.248 325.321 326.515 320.232 332.474L317.124 336.065L318.928 337.885L314.822 338.754L305.304 349.914L327.866 354.101C329.621 354.407 331.473 354.649 333.357 354.81C334.677 354.906 336.014 354.938 337.367 354.938C327.125 362.121 317.495 369.931 308.026 378.788L309.201 379.979L306.109 380.656C297.365 388.997 288.782 398.209 280.038 408.596C273.451 416.454 255.56 430.158 207.878 442.349C188.537 455.119 165.976 462.687 142.111 463.976L142.4 464.008L143.608 464.105C144.751 464.201 145.895 464.314 147.038 464.378L148.681 464.443C149.695 464.507 150.71 464.539 151.724 464.572L153.496 464.588C154.349 464.62 155.219 464.62 156.072 464.588C157.135 464.588 158.182 464.572 159.229 464.523C159.969 464.507 160.726 464.475 161.483 464.443C162.578 464.378 163.657 464.314 164.784 464.201C165.477 464.137 166.185 464.105 166.894 464.024C168.118 463.911 169.342 463.766 170.566 463.605L172.337 463.38C174.141 463.122 175.976 462.848 177.78 462.494C211.372 456.198 268.54 442.848 290.167 417.13C310.135 393.378 330.78 374.037 357.335 357.708C377.094 345.502 395.839 335.05 407.208 314.083L405.678 315.388L405.163 315.79L404.019 316.692L403.375 317.191L402.296 317.997L401.572 318.544L400.428 319.317L399.671 319.832L398.448 320.638L397.707 321.169L396.402 321.99L395.645 322.473L394.228 323.327L393.504 323.746C392.908 324.1 392.28 324.454 391.668 324.825L391.33 325.018C390.573 325.437 389.816 325.871 389.043 326.29L388.576 326.515C387.964 326.854 387.352 327.192 386.724 327.514L385.919 327.9L384.341 328.706L383.439 329.156L381.925 329.865L380.943 330.348L379.445 331.024L378.431 331.459L376.901 332.136L375.919 332.538L374.34 333.215L373.374 333.617C372.778 333.843 372.167 334.1 371.555 334.31L370.83 334.6C369.96 334.938 369.123 335.26 368.237 335.566L368.173 335.582C367.319 335.888 366.498 336.162 365.677 336.451L364.839 336.725L363.084 337.257L362.102 337.579L360.491 338.062L359.445 338.335L357.915 338.754L356.868 339.028L355.338 339.414L354.291 339.656L352.746 339.994L351.763 340.204L350.105 340.526L349.251 340.67C348.559 340.799 347.882 340.88 347.206 340.993L346.787 341.057C345.966 341.186 345.161 341.266 344.339 341.363L343.744 341.427C343.132 341.46 342.552 341.508 341.972 341.556L341.135 341.621L339.637 341.685L338.751 341.701H337.866H337.592C336.433 341.701 335.321 341.669 334.21 341.556L333.615 341.508C332.471 341.427 331.344 341.266 330.281 341.057C335.74 334.696 346.143 329.994 353.164 325.098C361.828 319.06 369.944 311.523 377.191 303.777C398.093 281.345 391.99 251.924 400.235 224.918C409.43 194.949 433.602 176.301 454.311 155.044C453.554 154.964 452.749 154.948 451.944 154.948L450.897 154.996L449.367 155.125L448.192 155.286L446.63 155.56L445.406 155.833L443.779 156.236L442.523 156.574L440.881 157.089L439.576 157.54L437.885 158.168L436.581 158.684L434.858 159.376L433.586 159.94L431.846 160.713L430.59 161.293L428.819 162.13L427.579 162.726L425.824 163.644L424.648 164.223C424.052 164.546 423.456 164.851 422.845 165.173L421.814 165.737C421.154 166.075 420.542 166.413 419.914 166.784L419.06 167.251C418.352 167.621 417.659 167.976 416.999 168.378L416.419 168.7C415.533 169.216 414.664 169.666 413.843 170.117L413.247 170.455L411.54 171.406C410.799 171.84 410.074 172.227 409.414 172.581C398.415 178.491 386.708 189.554 374.663 192.453C399.043 166.993 430.606 142.886 437.386 105.751C439.834 92.353 441.573 80.7907 449.013 69.18C455.406 59.1797 464.247 51.1117 470.865 41.4978C446.565 41.4978 415.695 59.1635 401.33 77.5539C393.294 87.8441 380.798 123.9 365.258 124.045C378.238 105.59 384.921 87.9406 386.161 65.4117C386.74 54.9282 384.26 45.4593 387.352 35.3784C390.122 26.3282 396.789 17.2297 402.941 9.80597C388.061 19.0172 372.891 28.2929 357.641 37.3754C324.886 56.9734 290.859 73.6246 258.926 94.1406C246.526 102.096 237.395 111.951 227.991 123.24L227.218 124.109L227.057 124.287L226.445 124.914L226.381 124.947L225.93 125.269L225.833 125.333L225.463 125.446H225.447H225.43L225.173 125.333L225.141 125.301L225.012 124.947L224.98 124.818L224.947 124.238V124.142L224.98 123.433L224.996 123.191L225.125 122.241L225.141 121.903L225.302 120.937L225.35 120.663L225.575 119.343L225.64 118.827L225.881 117.555C225.978 116.927 226.107 116.283 226.22 115.607L226.284 115.269C226.397 114.64 226.509 114.028 226.622 113.352L226.687 112.917C226.815 112.321 226.912 111.677 227.025 111.033L227.057 110.759C227.17 110.083 227.282 109.358 227.379 108.634L227.476 108.038C227.604 107.297 227.685 106.556 227.798 105.783L227.846 105.365C227.943 104.672 228.039 103.948 228.12 103.239L228.168 102.74C228.281 101.902 228.378 101.065 228.458 100.228L228.506 99.648C228.603 98.7784 228.667 97.8605 228.732 96.9587C230.1 78.665 230.551 49.8234 219.005 34.2995C217.041 54.0908 202.161 70.2267 189.954 84.8327C172.965 105.204 153.882 122.37 133.704 139.424C116.667 153.837 99.6646 169.006 81.3709 181.696C64.1175 193.629 28.5575 241.263 15.1577 275.451C17.4766 270.539 20.0775 265.692 23.0776 260.99C33.5449 244.403 47.2506 230.715 63.1175 220.473Z" fill="#9ADFF7"/>
<path d="M173.834 452.817L173.285 453.017L174.249 452.709L173.968 452.776L173.834 452.817Z" fill="#9ADFF7"/>
<path d="M183.486 449.3L183.352 449.354L183.312 449.367L183.07 449.488C183.902 449.139 184.747 448.79 185.552 448.428L185.431 448.482C184.8 448.777 184.143 449.032 183.486 449.3Z" fill="#9ADFF7"/>
<path d="M150.339 457.979L150.739 457.926H150.673L150.339 457.979Z" fill="#9ADFF7"/>
<path d="M157.427 456.906L158.75 456.665L157.948 456.799L157.427 456.906Z" fill="#9ADFF7"/>
<path d="M151.75 457.798L151.269 457.878C152.137 457.758 152.992 457.624 153.861 457.491L153.366 457.558L151.75 457.798Z" fill="#9ADFF7"/>
<path d="M155.661 457.223L156.182 457.143H156.048L155.661 457.223Z" fill="#9ADFF7"/>
<path d="M146.345 458.415C147.28 458.321 148.201 458.228 149.123 458.121L148.495 458.174C147.787 458.281 147.053 458.361 146.345 458.415Z" fill="#9ADFF7"/>
<path d="M169.836 454.034L169.595 454.101L169.18 454.248C169.916 454.034 170.625 453.806 171.361 453.579L169.876 454.007L169.836 454.034Z" fill="#9ADFF7"/>
<path d="M160.201 456.404C161.003 456.217 161.831 456.056 162.62 455.883L161.765 456.056L160.201 456.404Z" fill="#9ADFF7"/>
<path d="M134.352 458.925H133.724L134.845 458.952C135.486 458.952 136.127 458.925 136.781 458.925H136.127C135.553 458.925 134.966 458.925 134.352 458.925Z" fill="#9ADFF7"/>
<path d="M109.548 456.371L108.318 456.143L109.895 456.478L109.842 456.437L109.548 456.371Z" fill="#3F8DD2"/>
<path d="M226.51 28.726C224.732 26.3181 221.936 24.9604 219.011 24.9604C218.187 24.9604 217.363 25.0736 216.522 25.2999C212.805 26.3181 210.106 29.5502 209.719 33.3804C208.183 48.6686 196.806 62.179 185.816 75.2209C184.798 76.433 183.764 77.6613 182.778 78.841C165.696 99.3169 146.206 116.625 127.669 132.285C124.599 134.887 121.512 137.521 118.425 140.172C104.771 151.824 90.6511 163.896 76.0497 173.997C64.2102 182.206 45.4102 204.476 29.2234 229.396C18.2502 246.349 -0.016497 277.766 0.542671 298.63C0.476411 301.118 0.250165 314.581 2.65006 332.358C2.51754 313.11 6.59651 293.668 15.157 275.455C28.5576 241.258 64.1165 193.632 81.3699 181.689C99.6641 169.003 116.664 153.828 133.697 139.412C153.882 122.379 172.952 105.199 189.954 84.8367C202.155 70.2272 217.039 54.0987 219.011 34.3016C230.55 49.8161 230.097 78.6632 228.724 96.9574C228.659 97.8624 228.594 98.7674 228.497 99.6563L228.449 100.222C228.368 101.062 228.271 101.903 228.174 102.743L228.11 103.228C228.045 103.955 227.948 104.666 227.851 105.361L227.802 105.781C227.689 106.557 227.592 107.3 227.479 108.044L227.382 108.642C227.285 109.369 227.172 110.08 227.059 110.759L227.027 111.034C226.898 111.68 226.817 112.31 226.687 112.924L226.623 113.361C226.51 114.023 226.397 114.654 226.283 115.268L226.219 115.623C226.106 116.286 225.976 116.932 225.879 117.546L225.637 118.839L225.572 119.34L225.346 120.665L225.298 120.94L225.136 121.91L225.12 122.249L224.991 123.187V123.429L224.942 124.14V124.237L224.991 124.819L225.007 124.948L225.136 125.304L225.168 125.336L225.427 125.449H225.443H225.459L225.831 125.336L225.928 125.271L226.38 124.948L226.445 124.916L227.059 124.286L227.221 124.108L227.996 123.235C237.402 111.955 246.517 102.097 258.912 94.1292C290.862 73.621 324.897 56.9753 357.639 37.3882C372.895 28.2896 388.07 19.0132 402.939 9.80151C396.781 17.2194 390.123 26.3341 387.343 35.3842C384.257 45.4525 386.745 54.9229 386.164 65.4114C384.919 87.9397 378.245 105.587 365.251 124.059C380.798 123.898 393.29 87.8588 401.339 77.5482C415.689 59.157 446.557 41.4932 470.863 41.4932C464.253 51.1089 455.413 59.1732 449.013 69.1768C441.579 80.7965 439.834 92.3516 437.377 105.749C430.606 142.887 399.044 166.999 374.657 192.452C386.697 189.56 398.413 178.489 409.419 172.591C410.082 172.219 410.793 171.847 411.536 171.411L413.233 170.457L413.831 170.118C414.671 169.682 415.528 169.213 416.417 168.712L416.999 168.389C417.661 167.969 418.356 167.613 419.051 167.241L419.924 166.773C420.538 166.417 421.152 166.078 421.814 165.738L422.849 165.189C423.447 164.849 424.045 164.542 424.659 164.219L425.822 163.654L427.584 162.732L428.828 162.135L430.59 161.294L431.834 160.712L433.58 159.937L434.872 159.371L436.586 158.676L437.895 158.159L439.575 157.545L440.884 157.092L442.517 156.575L443.777 156.236L445.409 155.832L446.622 155.557L448.205 155.298L449.353 155.137L450.888 154.991L451.939 154.943L452.149 154.927C452.892 154.927 453.603 154.975 454.298 155.04C433.596 176.308 409.419 194.957 400.24 224.92C391.981 251.925 398.09 281.354 377.178 303.785C369.938 311.526 361.825 319.073 353.179 325.101C346.149 329.998 335.741 334.701 330.279 341.068C331.346 341.262 332.461 341.424 333.608 341.505L334.206 341.569C335.321 341.666 336.436 341.699 337.584 341.699H337.858H338.764L339.636 341.682L341.139 341.618L341.963 341.569C342.561 341.505 343.127 341.456 343.741 341.424L344.339 341.359C345.163 341.262 345.955 341.181 346.779 341.068L347.216 340.987C347.878 340.89 348.557 340.794 349.252 340.68L350.108 340.535L351.757 340.212L352.743 340.002L354.294 339.646L355.328 339.42L356.864 339.032L357.914 338.757L359.45 338.337L360.484 338.062L362.1 337.578L363.086 337.27L364.831 336.721L365.671 336.462C366.512 336.171 367.32 335.881 368.176 335.59L368.241 335.557C369.114 335.267 369.954 334.943 370.827 334.604L371.554 334.313C372.168 334.087 372.782 333.844 373.364 333.618L374.334 333.214L375.917 332.552L376.903 332.148L378.439 331.469L379.44 331.032L380.944 330.354L381.913 329.869L383.432 329.158L384.337 328.705L385.921 327.913L386.713 327.525C387.343 327.186 387.957 326.847 388.571 326.523L389.04 326.297C389.816 325.877 390.575 325.441 391.335 325.004L391.658 324.81C392.272 324.455 392.903 324.116 393.5 323.744L394.228 323.324L395.634 322.467L396.393 321.982L397.702 321.158L398.446 320.641L399.658 319.833L400.418 319.316L401.565 318.54L402.292 317.99L403.375 317.199L404.021 316.698L405.153 315.793L405.686 315.389L407.205 314.079C395.844 335.04 377.097 345.513 357.332 357.714C330.78 374.037 310.126 393.381 290.168 417.122C268.544 442.85 211.367 456.199 177.784 462.502C175.974 462.857 174.148 463.132 172.338 463.39L170.577 463.617C169.348 463.762 168.12 463.908 166.892 464.037C166.181 464.102 165.47 464.15 164.791 464.198C163.66 464.312 162.577 464.376 161.478 464.457C160.735 464.473 159.975 464.506 159.232 464.522C158.181 464.57 157.131 464.602 156.08 464.602L154.884 464.619L153.495 464.602L151.733 464.57C150.699 464.554 149.697 464.505 148.679 464.457L147.03 464.376C145.883 464.312 144.751 464.199 143.604 464.102L142.392 464.005L142.053 463.972C139.661 464.101 137.253 464.166 134.845 464.166C115.424 464.166 96.343 459.867 78.8504 451.658C81.0629 453.031 83.3303 454.34 85.5976 455.601C107.811 467.802 131.112 473.976 154.884 473.976C163.11 473.976 171.401 473.2 179.498 471.681C240.166 460.32 279.792 443.981 297.327 423.134C318.401 398.052 338.408 380.323 362.229 365.649C363.554 364.825 364.896 364.017 366.205 363.209C384.612 351.945 403.633 340.276 415.431 318.54C417.564 314.564 416.578 309.619 413.023 306.791C411.326 305.417 409.274 304.739 407.205 304.739C405.007 304.739 402.809 305.514 401.048 307.049C393.436 313.724 380.701 320.867 367.546 325.845C372.992 321.304 378.503 316.035 383.998 310.152C399.803 293.232 402.147 273.483 404.393 254.43C405.524 245.024 406.591 236.168 409.177 227.667C415.932 205.591 431.947 190.044 448.884 173.56C452.892 169.682 457.013 165.658 461.005 161.569C463.477 159.015 464.302 155.282 463.106 151.937C461.91 148.559 458.92 146.184 455.381 145.763C454.33 145.666 453.248 145.586 452.149 145.586C443.438 145.586 433.45 149.432 424.255 153.957C434.759 140.527 443.292 125.384 446.557 107.462L447.009 104.973C449.175 93.0142 450.888 83.56 456.868 74.2028C459.938 69.4192 463.736 65.0396 467.728 60.3691C471.396 56.1026 475.194 51.6907 478.539 46.7939C480.511 43.9173 480.737 40.2165 479.121 37.1297C477.505 34.0753 474.321 32.152 470.863 32.152C442.84 32.152 410.874 51.2867 395.165 70.3081C395.311 68.8698 395.408 67.4153 395.488 65.9446C395.715 61.6943 395.537 57.7834 395.327 54.0179C395.036 48.1192 394.777 43.0284 396.28 38.1155C399.028 29.1946 407.367 19.0779 410.146 15.765C413.023 12.2257 412.991 7.11877 409.952 3.66034C408.126 1.55942 405.557 0.46051 402.939 0.46051C401.242 0.46051 399.529 0.912964 398.009 1.85028C381.558 12.0479 366.787 21.0496 352.84 29.3725C339.216 37.5176 325.075 45.3233 311.387 52.8543C292.349 63.3589 272.649 74.2029 253.87 86.259C248.036 90.0245 242.881 94.1292 237.984 98.6866L238.049 97.6524C240.473 65.0074 236.723 42.4628 226.51 28.726Z" fill="#3F8DD2"/>
<path d="M102.81 454.818C103.933 455.085 105.043 455.379 106.18 455.633L106.194 455.62C105.07 455.366 103.947 455.098 102.81 454.818Z" fill="#3F8DD2"/>
<path d="M106.783 455.796L107.318 455.903L107.011 455.836L106.783 455.796Z" fill="#3F8DD2"/>
<path d="M201.135 440.384L201.176 440.343L201.162 440.357L201.135 440.384Z" fill="#67CEF5"/>
<path d="M208.325 435.661C209.068 435.134 209.824 434.594 210.58 434.041C209.891 434.554 209.216 435.026 208.541 435.499L208.325 435.661Z" fill="#67CEF5"/>
<path d="M204.927 437.996C205.48 437.605 206.06 437.214 206.626 436.822L205.574 437.524L204.927 437.996Z" fill="#67CEF5"/>
<path d="M221.021 425.406L221.617 424.891L221.319 425.149L221.021 425.406Z" fill="#67CEF5"/>
<path d="M201.468 440.181L202.303 439.67L201.751 440.006L201.468 440.181Z" fill="#67CEF5"/>
<path d="M202.556 439.512L202.96 439.256L202.839 439.324L202.556 439.512Z" fill="#67CEF5"/>
<path d="M219.028 427.214L219.069 427.173H219.055L219.028 427.214Z" fill="#67CEF5"/>
<path d="M220.222 426.135L220.263 426.108H220.249L220.222 426.135Z" fill="#67CEF5"/>
<path d="M215.119 430.507L215.606 430.129L215.457 430.237L215.119 430.507Z" fill="#67CEF5"/>
<path d="M211.978 433.004L212.369 432.693L212.248 432.774L211.978 433.004Z" fill="#67CEF5"/>
<path d="M197.956 442.242L199.409 441.408L198.588 441.866L197.956 442.242Z" fill="#67CEF5"/>
<path d="M213.332 431.916L212.98 432.2L214.17 431.281L213.737 431.591L213.332 431.916Z" fill="#67CEF5"/>
<path d="M280.034 408.611C288.773 398.212 297.347 389.002 306.1 380.664L290.917 383.969L277.683 397.189L276.618 392.293C274.378 394.838 272.138 397.424 269.898 400.106C267.16 403.356 258.13 411.722 232.851 420.932C225.384 429.16 216.99 436.337 207.863 442.366C255.544 430.169 273.438 416.465 280.034 408.611Z" fill="#67CEF5"/>
<path d="M81.9135 216.186C80.7711 216.69 79.6582 217.224 78.5454 217.788L79.0796 217.536C80.0292 217.076 80.9639 216.616 81.9135 216.186Z" fill="#67CEF5"/>
<path d="M84.6976 214.947L84.2969 215.11L84.6976 214.962V214.947Z" fill="#67CEF5"/>
<path d="M70.4593 222.14C69.4973 222.718 68.5352 223.28 67.6028 223.887C68.55 223.28 69.5268 222.718 70.5185 222.155L70.4593 222.14Z" fill="#67CEF5"/>
<path d="M74.0549 220.119L73.3735 220.489L73.492 220.445L74.0549 220.119Z" fill="#67CEF5"/>
<path d="M194.389 444.195L195.519 443.603L194.672 444.033L194.389 444.195Z" fill="#67CEF5"/>
<path d="M141.63 167.438L141.916 167.216C144.873 164.688 147.845 162.145 150.817 159.65C166.903 146.028 183.751 131.198 199.63 113.952C198.12 122.567 196.96 132.167 204.224 141.529C208.881 147.538 215.875 151.305 223.456 151.861C232.898 152.576 241.275 148.65 248.332 140.194C256.979 129.815 264.179 122.249 273.239 116.416C290.978 105.003 310.147 94.4332 328.664 84.2287C338.805 78.6655 349.168 72.9435 359.5 66.9988C358.181 82.4168 353.46 94.7512 343.573 108.834L313.946 151.051L365.524 150.542C372.566 150.478 378.733 148.555 384.185 145.44C379.75 150.081 374.997 154.738 370.086 159.586C365.27 164.291 360.279 169.171 355.542 174.146L293.155 239.298L374.155 219.827C371.183 230.413 369.991 240.459 368.83 250.186C366.955 265.97 365.604 277.351 357.799 285.695C350.965 293.055 344.336 298.968 338.026 303.386C336.548 304.435 334.339 305.723 332.018 307.106C325.167 311.175 316.68 316.245 310.147 323.859L280.312 358.732L281.457 358.97L291.995 348.432L294.808 361.45L305.315 363.373C303.089 365.344 300.88 367.363 298.687 369.429L308.033 378.791C317.49 369.938 327.138 362.117 337.375 354.949C336.008 354.949 334.672 354.901 333.353 354.806C331.478 354.647 329.618 354.409 327.869 354.091L305.299 349.91L314.82 338.752L312.944 339.181L308.653 343.505L307.333 337.528L303.026 333.221L308.986 331.917L313.326 327.61L314.597 333.555L317.124 336.066L320.224 332.474C325.31 326.513 332.479 322.238 338.789 318.486C341.316 316.992 343.701 315.562 345.592 314.242C352.665 309.315 360.009 302.75 367.495 294.739C378.256 283.216 379.973 268.64 381.991 251.76C383.167 241.794 384.391 231.478 387.586 221.035C390.638 211.053 395.073 202.279 400.334 194.284C393.515 198.83 386.013 203.344 377.763 205.331L333.909 215.869L365.111 183.317C369.736 178.469 374.616 173.669 379.369 169.012C400.048 148.714 419.567 129.545 424.351 103.382L424.796 100.95C426.942 89.0767 428.992 77.7755 435.43 66.1246C425.654 71.8309 417.055 78.9359 411.778 85.7071C410.157 87.7734 407.471 92.8755 404.896 97.8188C395.724 115.319 384.312 137.111 365.365 137.286L339.616 137.54L354.43 116.464C366.319 99.4879 371.882 84.0062 372.931 64.6781C373.122 61.6422 372.947 58.511 372.788 55.1572C372.597 51.6286 372.391 47.8615 372.597 43.8401C369.832 45.5091 367.114 47.1463 364.443 48.7516C350.472 57.1123 336.151 65.012 322.29 72.6415C303.566 82.9413 284.206 93.6227 266.071 105.258C255.58 112.013 247.617 120.389 238.159 131.707C236.458 133.757 231.897 139.209 224.442 138.653C220.58 138.382 217.051 136.459 214.698 133.423C210.55 128.082 211.488 122.694 212.95 114.556C213.824 109.788 215.001 103.239 215.525 95.975C216.177 87.2647 216.304 79.8895 216.034 73.611C211.885 79.3173 207.403 84.6738 203.095 89.7761C202.078 90.9682 201.093 92.1444 200.123 93.3366C181.923 115.112 161.562 133.201 142.266 149.541C139.182 152.115 136.13 154.738 133.047 157.361C118.98 169.377 104.452 181.807 88.9309 192.568C83.3836 196.383 73.7974 206.444 63.1177 220.479C72.4908 214.391 82.6635 209.527 93.3575 205.999C94.5655 204.902 95.6305 203.996 96.457 203.44C112.527 192.297 127.325 179.645 141.63 167.438Z" fill="#67CEF5"/>
<path d="M193.556 444.628L194.363 444.212L193.973 444.4L193.556 444.628Z" fill="#67CEF5"/>
<path d="M191.713 445.586L192.304 445.277L192.089 445.384L191.713 445.586Z" fill="#67CEF5"/>
<path d="M189.421 446.688L190.226 446.298L190.119 446.338L189.421 446.688Z" fill="#67CEF5"/>
<path d="M172.862 210.377L172.743 210.318L172.788 210.332L172.862 210.377Z" fill="#57C9F3"/>
<path d="M194.965 219.637L194.031 219.163C194.091 219.192 194.12 219.222 194.165 219.237L194.965 219.637Z" fill="#57C9F3"/>
<path d="M198.706 221.723C198.721 221.737 198.736 221.737 198.751 221.752L198.987 221.885L198.529 221.619L198.558 221.649L198.706 221.723Z" fill="#57C9F3"/>
<path d="M174.287 210.798L173.99 210.709L174.139 210.753L174.287 210.798Z" fill="#57C9F3"/>
<path d="M178.473 212.273L176.897 211.708L177.269 211.842L178.473 212.273Z" fill="#57C9F3"/>
<path d="M190.894 217.556L190.137 217.185L190.211 217.245L190.894 217.556Z" fill="#57C9F3"/>
<path d="M182.659 213.87L182.362 213.751L182.51 213.811L182.659 213.87Z" fill="#57C9F3"/>
<path d="M294.816 361.451L295.987 366.709L298.693 369.429C300.882 367.365 303.1 365.328 305.317 363.376L294.816 361.451Z" fill="#57C9F3"/>
<path d="M269.899 400.115C272.138 397.431 274.377 394.844 276.616 392.298L273.696 378.919L262.444 367.667C258.995 379.809 253.779 391.575 246.867 402.549C242.68 409.127 237.98 415.275 232.847 420.935C258.132 411.728 267.159 403.369 269.899 400.115Z" fill="#57C9F3"/>
<path d="M229.755 416.546L230.068 416.219L229.918 416.369L229.755 416.546Z" fill="#57C9F3"/>
<path d="M225.958 420.596L225.917 420.636L226.066 420.501L225.958 420.596Z" fill="#57C9F3"/>
<path d="M232.47 413.407L233.084 412.698L232.961 412.807L232.47 413.407Z" fill="#57C9F3"/>
<path d="M226.921 419.61L227.764 418.74L227.533 418.944L226.921 419.61Z" fill="#57C9F3"/>
<path d="M287.421 220.234L284.649 207.601L275.513 198.448L288.162 195.707L297.298 186.571L300.071 199.205L309.208 208.357L296.558 211.114L287.421 220.234ZM171.923 170.409L167.607 174.725L166.299 168.755L161.967 164.438L167.938 163.131L172.269 158.83L173.561 164.785L177.862 169.117L171.923 170.409ZM281.435 358.984L280.301 358.748L310.137 323.871C316.674 316.263 325.165 311.19 332.002 307.11C334.317 305.74 336.538 304.448 338.019 303.393C344.32 298.982 350.968 293.059 357.789 285.718C365.602 277.369 366.941 265.98 368.816 250.196C369.981 240.477 371.178 230.442 374.14 219.841L293.14 239.311L355.536 174.158C360.262 169.18 365.255 164.312 370.076 159.602C374.991 154.75 379.732 150.088 384.174 145.456C378.724 148.575 372.565 150.497 365.507 150.56L313.933 151.064L343.564 108.847C353.457 94.7643 358.167 82.43 359.49 67.0081C349.156 72.9626 338.807 78.6809 328.646 84.2416C310.137 94.4493 290.982 105.019 273.228 116.424C264.155 122.253 256.972 129.83 248.323 140.211C241.266 148.67 232.902 152.592 223.434 151.883C215.873 151.316 208.863 147.552 204.216 141.55C196.954 132.193 198.104 122.583 199.616 113.967C183.753 131.216 166.898 146.039 150.799 159.665C147.821 162.17 144.86 164.706 141.914 167.242L141.631 167.463C127.327 179.655 112.52 192.321 96.4362 203.458C95.6171 204.009 94.5616 204.907 93.3486 206.01C102.706 202.938 112.472 200.89 122.475 199.945L119.435 196.889L137.708 192.903L150.94 179.687L154.942 197.976L158.407 201.441C175.121 204.45 191.188 210.688 205.728 219.872C217.417 227.26 227.687 236.271 236.32 246.541L252.135 230.773L260.595 269.493L288.619 297.533L264.171 302.889C268.833 323.761 268.392 344.964 263.131 365.096L278.726 361.693L281.435 358.984Z" fill="#57C9F3"/>
<path d="M238.157 406.062L237.665 406.773L238.431 405.679L238.417 405.692C238.335 405.815 238.239 405.939 238.157 406.062Z" fill="#57C9F3"/>
<path d="M165.77 208.38L165.205 208.231V208.246C165.264 208.261 165.309 208.261 165.353 208.276L165.77 208.38Z" fill="#57C9F3"/>
<path d="M109.55 207.166C108.791 207.33 108.032 207.509 107.257 207.628L108.017 207.509L109.55 207.166Z" fill="#57C9F3"/>
<path d="M112.547 206.601L110.819 206.914L112.07 206.69L112.547 206.601Z" fill="#57C9F3"/>
<path d="M124.541 205.058C124.422 205.058 124.302 205.088 124.168 205.088C124.228 205.088 124.272 205.073 124.332 205.073L124.541 205.058Z" fill="#57C9F3"/>
<path d="M127.369 204.819L125.729 204.938H125.983L127.369 204.819Z" fill="#57C9F3"/>
<path d="M122.056 205.276H122.041C121.087 205.365 120.118 205.469 119.149 205.589L119.612 205.544C120.446 205.439 121.251 205.35 122.056 205.276Z" fill="#57C9F3"/>
<path d="M139.035 458.838L138.047 458.892H138.475H138.715L139.462 458.838H139.035Z" fill="#52B3E8"/>
<path d="M119.116 457.925C119.21 457.939 119.303 457.952 119.384 457.965L119.851 458.046V458.019L119.116 457.925Z" fill="#52B3E8"/>
<path d="M144.118 458.591L144.385 458.578L144.091 458.591H144.118Z" fill="#52B3E8"/>
<path d="M112.719 456.969C113.053 457.036 113.401 457.089 113.721 457.156L115.057 457.383H115.111C114.323 457.25 113.521 457.103 112.719 456.969Z" fill="#52B3E8"/>
<path d="M126.65 458.634L126.009 458.621L126.303 458.634L126.97 458.688H127.424L126.65 458.634Z" fill="#52B3E8"/>
<path d="M131.381 458.882L131.794 458.895H132.128L131.407 458.882H131.381Z" fill="#52B3E8"/>
<path d="M162.629 455.864L163.177 455.73L161.773 456.038L162.629 455.864Z" fill="#52B3E8"/>
<path d="M185.431 448.476L185.565 448.409L186.128 448.167L185.873 448.275L185.431 448.476Z" fill="#52B3E8"/>
<path d="M169.009 454.261L169.183 454.234L169.597 454.1L169.009 454.261Z" fill="#52B3E8"/>
<path d="M174.468 452.613L173.973 452.774L174.254 452.707L175.325 452.332L175.379 452.318L174.468 452.613Z" fill="#52B3E8"/>
<path d="M150.678 457.929H150.745L151.279 457.862L151.76 457.795L150.678 457.929Z" fill="#52B3E8"/>
<path d="M156.059 457.129H156.192L157.421 456.902L157.942 456.795C157.315 456.916 156.7 457.009 156.059 457.129Z" fill="#52B3E8"/>
<path d="M145.465 458.491L145.318 458.517H145.398L145.532 458.491H145.465Z" fill="#52B3E8"/>
<path d="M107.005 455.839L107.313 455.906L108.329 456.133L109.545 456.36C108.703 456.2 107.848 456.026 107.005 455.839Z" fill="#52B3E8"/>
<path d="M98.685 436.493C66.6264 444.174 31.0601 410.473 19.2343 361.186C7.43806 311.929 23.8374 265.736 55.8959 258.054C80.6576 252.119 107.551 270.901 123.935 302.516L135.243 300.059L147.335 287.996L150.961 304.662L163.024 316.754L146.358 320.395L134.932 331.792L135.332 333.361C147.158 382.618 130.758 428.796 98.685 436.493ZM149.141 414.01C186.691 354.659 168.989 276.111 109.638 238.576C97.2493 230.732 84.0173 225.315 70.5042 222.162C69.5273 222.725 68.5506 223.287 67.5885 223.894L67.4405 223.968C65.9308 224.93 64.4359 225.922 62.9558 226.943L61.9642 227.609C60.4694 228.645 58.9892 229.74 57.5387 230.85L56.9763 231.294C55.6591 232.301 54.3713 233.367 53.0689 234.432L52.2252 235.172C50.8339 236.341 49.4723 237.57 48.1106 238.843L47.3706 239.553C46.1717 240.693 45.0025 241.862 43.848 243.046L43.1672 243.727C41.8796 245.059 40.651 246.45 39.4078 247.842L38.6233 248.774C37.4837 250.077 36.3736 251.424 35.2932 252.785L34.9083 253.288C33.7242 254.783 32.5993 256.278 31.5041 257.847L30.7345 258.942C29.6245 260.526 28.544 262.124 27.4931 263.782C-10.0417 323.148 7.63041 401.681 66.9816 439.231C68.6393 440.267 70.3267 441.273 71.9991 442.235L73.4052 443.035C74.7817 443.775 76.1581 444.515 77.5642 445.21L78.6299 445.773C80.332 446.602 82.0637 447.416 83.8102 448.185L84.9646 448.688C86.3707 449.295 87.7768 449.873 89.1977 450.405L90.6038 450.938C92.3651 451.619 94.1412 452.241 95.9321 452.818L96.2132 452.921C97.9301 453.439 99.6026 453.958 101.319 454.416L102.8 454.831C103.939 455.112 105.064 455.364 106.189 455.63C123.092 445.728 137.937 431.712 149.141 414.01Z" fill="#52B3E8"/>
<path d="M73.3828 220.468L72.346 221.061L72.1089 221.209L73.5012 220.424L73.3828 220.468Z" fill="#52B3E8"/>
<path d="M78.5565 217.785L78.3638 217.874L79.0905 217.533L78.5565 217.785Z" fill="#52B3E8"/>
<path d="M191.844 445.493L191.428 445.735L191.71 445.587L192.086 445.385L191.844 445.493Z" fill="#52B3E8"/>
<path d="M84.2973 215.117L83.2434 215.592L83.1692 215.637L84.6833 214.969L84.2973 215.117Z" fill="#52B3E8"/>
<path d="M202.155 439.726L201.751 439.995L202.303 439.672L202.559 439.497L202.842 439.322L202.155 439.726Z" fill="#52B3E8"/>
<path d="M213.018 432.167L212.247 432.762L212.369 432.694L212.991 432.194L213.328 431.911L213.018 432.167Z" fill="#52B3E8"/>
<path d="M125.984 204.928H125.746L124.553 205.047L124.345 205.062L125.984 204.928Z" fill="#52B3E8"/>
<path d="M230.647 415.54L230.701 415.458L230.66 415.499L230.647 415.54Z" fill="#52B3E8"/>
<path d="M119.155 205.581L118.991 205.596L119.617 205.536L119.155 205.581Z" fill="#52B3E8"/>
<path d="M107.25 207.648L106.744 207.782L108.01 207.514L107.25 207.648Z" fill="#52B3E8"/>
<path d="M238.407 405.698L238.708 405.287C238.599 405.438 238.503 405.574 238.394 405.711L238.407 405.698Z" fill="#52B3E8"/>
<path d="M113.689 206.405H113.674L112.542 206.599L112.081 206.689L113.689 206.405Z" fill="#52B3E8"/>
<path d="M173.99 210.724L173.945 210.709L174.139 210.768L173.99 210.724Z" fill="#52B3E8"/>
<path d="M129.391 314.551C130.245 316.671 131.042 318.863 131.796 321.07L130.643 315.775L129.391 314.551Z" fill="#52B3E8"/>
<path d="M89.3052 213.08C89.2606 213.095 89.2457 213.11 89.2012 213.125L89.5429 212.991L89.3052 213.08Z" fill="#52B3E8"/>
<path d="M142.053 463.974H142.098C165.967 462.689 188.538 455.116 207.881 442.36C216.993 436.325 225.403 429.14 232.871 420.925C237.995 415.264 242.685 409.11 246.882 402.522C253.798 391.558 259.011 379.803 262.447 367.644L260.475 365.643L263.149 365.075C268.392 344.939 268.84 323.744 264.18 302.876L259.071 303.997C265.225 331.601 262.253 361.281 249.003 388.063L249.944 389.034L248.316 389.393C246.524 392.888 244.567 396.323 242.431 399.729C241.669 400.939 240.893 402.119 240.101 403.314L239.951 403.508L239.698 403.882L239.085 404.763C238.966 404.927 238.831 405.092 238.712 405.271L238.428 405.674L237.666 406.765L237.352 407.168L236.815 407.885L236.098 408.841L235.963 409.035L235.112 410.125L234.649 410.723L233.827 411.754L233.095 412.68L232.483 413.397L231.855 414.114L230.705 415.458L230.646 415.533L230.063 416.22L229.764 416.548L228.943 417.415L227.778 418.729L226.926 419.611L226.807 419.73L226.224 420.298L226.164 420.372L226.06 420.492L225.925 420.641L224.73 421.866L224.491 422.105L224.043 422.553L223.565 423.001L222.893 423.644L222.58 423.927L221.624 424.869L221.041 425.391L220.264 426.108L220.219 426.123L220.085 426.258L219.756 426.556L219.637 426.661L219.084 427.154L219.039 427.199L218.427 427.751L218.098 428.02L216.605 429.305L215.992 429.783L215.604 430.126L215.111 430.515L214.752 430.798L214.17 431.276L212.99 432.188L212.377 432.696L211.989 433.009L211.75 433.159L210.585 434.025C209.838 434.578 209.076 435.13 208.329 435.653L207.926 435.937L206.97 436.594L206.91 436.639L206.642 436.803C206.059 437.207 205.491 437.595 204.939 437.983L204.7 438.103L204.028 438.566L203.027 439.208L202.967 439.238L202.564 439.492L202.325 439.656L201.473 440.164L201.264 440.284L201.189 440.329L201.145 440.373L200.054 441.016L199.427 441.389L197.978 442.225L197.903 442.27L197.724 442.36L197.679 442.39L197.605 442.449L197.44 442.524L196.051 443.301L195.991 443.346L195.693 443.51L195.513 443.6L194.378 444.182V444.197L193.556 444.615L192.317 445.273L191.719 445.571L191.435 445.721L190.928 445.945L190.375 446.229L190.241 446.273L189.434 446.662L189.329 446.722L188.538 447.095L187.626 447.498L187.387 447.603L186.805 447.872L186.192 448.141L186.133 448.171L185.565 448.409C184.758 448.768 183.922 449.126 183.071 449.47L181.935 449.918L180.696 450.426L179.755 450.77L178.35 451.307L177.723 451.516L176.737 451.86L175.497 452.278L175.348 452.323L174.258 452.696L173.302 452.995L173.108 453.055L172.794 453.145L172.719 453.174L171.375 453.563C170.643 453.802 169.911 454.026 169.179 454.235L169.015 454.265L168.357 454.444L167.267 454.743C166.445 454.952 165.594 455.161 164.758 455.355L163.876 455.594L163.174 455.729L162.622 455.863C161.845 456.042 161.008 456.207 160.217 456.386L159.261 456.565L158.917 456.64L158.738 456.67L157.423 456.909L156.199 457.133L155.676 457.208L154.914 457.342L154.705 457.372L153.868 457.491C153.002 457.626 152.151 457.745 151.284 457.865L150.746 457.924L150.343 457.984L150.104 458.029L149.88 458.044L149.432 458.089L149.133 458.119C148.207 458.223 147.281 458.313 146.34 458.417L146.161 458.432L145.414 458.492H145.324L144.398 458.567L144.129 458.582C144.099 458.582 144.085 458.597 144.055 458.597L143.756 458.612H143.726C143.218 458.641 142.68 458.701 142.143 458.716L141.246 458.761L140.813 458.791H140.365L139.783 458.821L138.737 458.88H138.498H138.065H137.9L136.78 458.91C136.138 458.91 135.496 458.94 134.853 458.94L133.733 458.91L132.15 458.88H131.806C130.97 458.865 130.163 458.821 129.326 458.806L127.743 458.716L126.966 458.686L126.309 458.641L126.011 458.612H125.831L125.562 458.582L125.293 458.567L124.92 458.537L123.352 458.387L121.783 458.253L120.887 458.149L120.349 458.089L119.812 458.044H119.856L119.378 457.969C119.304 457.954 119.214 457.939 119.124 457.924L118.482 457.85C117.72 457.745 116.959 457.656 116.227 457.551L115.166 457.402L115.061 457.372L113.732 457.148C113.404 457.088 113.045 457.028 112.716 456.968C112.672 456.968 112.627 456.954 112.582 456.954L111.521 456.759L110.431 456.55L109.938 456.461H109.908L108.325 456.132L107.324 455.893L106.786 455.789L106.174 455.639H106.189C105.054 455.37 103.933 455.086 102.813 454.818L101.334 454.414C99.6165 453.951 97.9286 453.443 96.2257 452.906L95.9418 452.816C94.1494 452.233 92.372 451.606 90.6094 450.934L89.2052 450.396C87.7862 449.873 86.3672 449.276 84.978 448.678L83.813 448.185C82.0653 447.409 80.3474 446.602 78.6446 445.766L77.5691 445.198C76.165 444.511 74.7908 443.779 73.4166 443.017L72.0126 442.225C70.3247 441.254 68.6517 440.269 66.9787 439.223C7.63321 401.671 -10.042 323.146 27.4997 263.786C28.5453 262.113 29.6207 260.514 30.741 258.931L31.5029 257.841C32.6082 256.272 33.7284 254.764 34.9234 253.27L35.2968 252.777C36.3872 251.418 37.4927 250.073 38.6279 248.759L39.4045 247.833C40.6443 246.429 41.8841 245.054 43.1687 243.725L43.8559 243.038C45.0061 241.843 46.1861 240.678 47.3811 239.543L48.113 238.841C49.4723 237.571 50.8316 236.346 52.2208 235.166L53.0721 234.434C54.3716 233.344 55.6712 232.298 56.9857 231.282L57.5384 230.849C59.0022 229.729 60.481 228.639 61.9747 227.593L62.9605 226.936C64.4393 225.92 65.9331 224.919 67.4567 223.963L67.5911 223.873C68.5321 223.276 69.4881 222.723 70.459 222.141L70.6084 222.081L71.9379 221.289L72.1021 221.2L72.3411 221.065L73.3867 220.483L74.0588 220.094L74.2381 220.005C75.5377 219.303 76.8073 218.631 78.1218 217.988L78.3758 217.869L78.555 217.779C79.6604 217.212 80.7807 216.689 81.9159 216.181L83.0362 215.673L83.1705 215.628L83.2452 215.583L84.3059 215.105L84.6942 214.941L85.7249 214.508L86.4717 214.194C87.2037 213.895 87.9655 213.597 88.7123 213.298L89.2052 213.104C89.25 213.089 89.2799 213.074 89.3247 213.059L89.5638 212.969L90.6094 212.581C91.5504 212.237 92.5064 211.879 93.4474 211.565L94.6573 211.147L96.2556 210.654L97.3908 210.296L98.1376 210.042L101.499 206.666L101.991 208.951L102.723 208.772C103.635 208.518 104.531 208.294 105.442 208.085L106.756 207.756L107.264 207.622C108.041 207.502 108.803 207.323 109.565 207.159L110.819 206.92L112.537 206.606L113.672 206.412H113.687H113.747L114.897 206.203C115.988 206.009 117.063 205.874 118.139 205.725L119.005 205.59L119.154 205.575C120.125 205.456 121.096 205.351 122.052 205.262H122.037H122.052H122.067H122.097L122.216 205.247C122.874 205.172 123.531 205.112 124.188 205.068C124.323 205.068 124.442 205.053 124.562 205.038L125.742 204.918L127.37 204.814L122.485 199.929C112.477 200.87 102.723 202.917 93.3577 206.009C82.6627 209.534 72.4906 214.388 63.1249 220.483C47.2467 230.715 33.5492 244.412 23.0782 260.992C20.0758 265.683 17.4768 270.552 15.1615 275.452C6.60248 293.675 2.52465 313.108 2.64415 332.347C2.89808 376.009 24.6466 418.64 64.1854 443.644C68.9205 446.647 73.805 449.306 78.8538 451.651C96.3452 459.866 115.42 464.168 134.853 464.168C137.258 464.168 139.663 464.108 142.053 463.974Z" fill="#9ADFF7"/>
<path d="M165.778 208.355L167.241 208.728L168.211 208.997L168.928 209.206L169.092 209.251L170.048 209.505L171.092 209.818L172.735 210.326L172.854 210.371L173.705 210.624L173.869 210.669L173.959 210.699L173.989 210.714L174.287 210.803L174.944 211.027C175.601 211.251 176.243 211.475 176.9 211.699L178.482 212.266L178.691 212.326L179.228 212.535C180.273 212.923 181.318 213.296 182.363 213.744L182.662 213.849L183.274 214.117L184.319 214.565C184.961 214.834 185.618 215.118 186.259 215.401L186.379 215.446L186.812 215.625L187.334 215.894L187.782 216.088L187.842 216.133L188.827 216.566L190.141 217.178L190.902 217.551L191.783 217.999L193.141 218.7L194.037 219.163L194.962 219.641L195.56 219.954C196.201 220.327 196.873 220.716 197.515 221.059L198.53 221.626L198.978 221.88L199.157 221.999C200.426 222.746 201.695 223.507 202.934 224.283C214.429 231.553 224.326 240.376 232.611 250.273L236.328 246.541C227.685 236.271 217.414 227.254 205.74 219.865C191.201 210.669 175.123 204.444 158.419 201.429L165.211 208.221L165.778 208.355Z" fill="#9ADFF7"/>
<path d="M177.203 451.688L177.712 451.527L178.342 451.312L178.931 451.058L177.203 451.688Z" fill="#57C9F3"/>
<path d="M120.336 458.099L120.884 458.166L121.778 458.26L120.336 458.099Z" fill="#57C9F3"/>
<path d="M139.482 458.822H139.789L140.363 458.795L139.055 458.822H139.482Z" fill="#57C9F3"/>
<path d="M149.429 458.101L149.869 458.061L150.096 458.034L149.429 458.101Z" fill="#57C9F3"/>
<path d="M186.131 448.172L186.185 448.145L185.876 448.28L186.131 448.172Z" fill="#57C9F3"/>
<path d="M181.561 450.087L181.923 449.939L183.062 449.497L183.317 449.363L181.561 450.087Z" fill="#57C9F3"/>
<path d="M207.925 435.942L208.329 435.659L208.545 435.497L207.925 435.942Z" fill="#57C9F3"/>
<path d="M194.913 443.88L194.671 444.028L195.518 443.598L195.693 443.504L196.002 443.342L194.913 443.88Z" fill="#57C9F3"/>
<path d="M199.429 441.394L200.048 441.017L198.595 441.851L199.429 441.394Z" fill="#57C9F3"/>
<path d="M220.083 426.252L220.219 426.13L220.083 426.252Z" fill="#57C9F3"/>
<path d="M219.065 427.174L219.62 426.673L219.051 427.174H219.065Z" fill="#57C9F3"/>
<path d="M199.147 222.023L198.969 221.89L198.732 221.771C198.88 221.845 199.014 221.934 199.147 222.023Z" fill="#57C9F3"/>
<path d="M194.208 219.279L195.541 219.961L194.963 219.65L194.163 219.25C194.193 219.25 194.208 219.265 194.208 219.279Z" fill="#57C9F3"/>
<path d="M236.089 408.852L236.799 407.895L236.239 408.619L236.089 408.852Z" fill="#57C9F3"/>
<path d="M232.966 412.787L233.089 412.691L233.825 411.764L233.416 412.214L232.966 412.787Z" fill="#57C9F3"/>
<path d="M169.296 209.312L171.081 209.818L170.04 209.506L169.087 209.253L169.296 209.312Z" fill="#57C9F3"/>
<path d="M191.782 217.992L190.892 217.562L190.225 217.251L191.782 217.992Z" fill="#57C9F3"/>
<path d="M123.612 205.147L125.044 205.013C125.834 204.953 126.594 204.864 127.369 204.849V204.819L125.983 204.938L124.343 205.073C124.283 205.073 124.224 205.088 124.179 205.088C123.523 205.132 122.867 205.192 122.196 205.252L123.612 205.147Z" fill="#57C9F3"/>
<path d="M178.116 212.151L178.487 212.27L177.268 211.839L178.116 212.151Z" fill="#57C9F3"/>
<path d="M183.059 214.069L183.267 214.129L182.658 213.876L182.51 213.817L183.059 214.069Z" fill="#57C9F3"/>
<path d="M187.329 215.892L186.795 215.639L186.38 215.446L187.329 215.892Z" fill="#57C9F3"/>
<path d="M122.16 205.305L122.056 205.275C121.251 205.35 120.446 205.439 119.612 205.543L118.986 205.603L118.136 205.737C117.048 205.886 115.975 206.02 114.902 206.214L113.739 206.423H113.68L112.07 206.706L110.818 206.93L109.551 207.168L108.016 207.511L106.749 207.779L105.423 208.092C104.528 208.316 103.634 208.539 102.71 208.778L101.995 208.957V208.986C108.597 207.228 115.349 205.991 122.16 205.305Z" fill="#57C9F3"/>
<path d="M131.416 458.87L129.667 458.817L131.389 458.87H131.416Z" fill="#57C9F3"/>
<path d="M122.005 457.325C132.061 455.971 141.878 453.413 151.354 449.754C167.984 439.832 182.621 425.968 193.688 408.46C219.184 368.194 219.184 319.061 198.002 279.895L185.358 267.237L189.523 266.329C180.256 253.418 168.445 242.038 154.195 233.039C149.539 230.064 144.734 227.476 139.84 225.215L136.627 228.413L135.527 223.296C125.025 218.863 114.151 215.947 103.203 214.475L103.218 214.564L108.915 220.276L101.031 221.972L95.3194 227.669L93.6087 219.8L87.9264 214.103L90.9015 213.434C90.1428 213.404 89.399 213.389 88.6404 213.374C91.7196 212.169 94.888 211.068 98.0415 210.116L98.1159 210.057L97.3871 210.31L96.2417 210.667L94.65 211.173L93.4452 211.574C92.4932 211.887 91.556 212.243 90.604 212.6L89.5479 212.987L89.2058 213.121L88.7148 213.315C87.9562 213.612 87.1977 213.91 86.4539 214.207L85.725 214.519L84.6837 214.951V214.966L83.1664 215.635L83.0326 215.695L81.902 216.185C80.9649 216.617 80.0278 217.078 79.0758 217.539L78.3618 217.881L78.1089 218C76.7999 218.655 75.5356 219.324 74.2266 220.008L74.048 220.112L73.4976 220.44L72.0995 221.213L71.9357 221.302L70.597 222.091L70.4482 222.15L70.5078 222.165C84.0144 225.319 97.2383 230.733 109.629 238.572C168.996 276.102 186.682 354.657 149.137 414.024C137.936 431.71 123.076 445.723 106.193 455.629L106.178 455.644H106.163L106.773 455.808L106.996 455.838C107.844 456.016 108.707 456.209 109.555 456.358L109.837 456.433H109.867L110.418 456.567L111.503 456.76L112.574 456.953C112.619 456.968 112.664 456.983 112.708 456.983C113.512 457.117 114.315 457.266 115.103 457.385L115.163 457.414L116.219 457.563C116.948 457.667 117.706 457.757 118.465 457.861L119.105 457.935L119.848 458.039C120.562 457.816 121.262 457.563 122.005 457.325Z" fill="#57C9F3"/>
<path d="M143.743 458.624L144.036 458.611L144.09 458.597L144.383 458.584L145.318 458.517L145.465 458.491L143.743 458.624Z" fill="#57C9F3"/>
<path d="M125.019 458.534L125.286 458.574L125.553 458.588L125.82 458.614H126.007L126.648 458.641L125.019 458.534Z" fill="#57C9F3"/>
<path d="M172.787 453.166L173.094 453.073L173.295 453.019L173.844 452.818L172.787 453.166Z" fill="#57C9F3"/>
<path d="M215.589 430.154L215.981 429.803L215.44 430.249L215.589 430.154Z" fill="#57C9F3"/>
<path d="M191.156 445.843L190.927 445.964L191.424 445.722L191.841 445.494L191.156 445.843Z" fill="#57C9F3"/>
<path d="M213.004 432.171L211.734 433.171L211.977 433.009L212.247 432.779L213.004 432.171Z" fill="#57C9F3"/>
<path d="M230.531 415.665L229.905 416.373L230.055 416.223L230.64 415.543L230.654 415.502L230.531 415.665Z" fill="#57C9F3"/>
<path d="M174.228 210.799L174.942 211.022L174.288 210.799L174.139 210.755L173.961 210.695L173.871 210.665L174.228 210.799Z" fill="#57C9F3"/>
<path d="M165.621 208.349C166.172 208.483 166.693 208.617 167.244 208.751L165.77 208.364L165.353 208.274C165.443 208.304 165.532 208.319 165.621 208.349Z" fill="#57C9F3"/>
<path d="M204.698 438.111L204.927 437.99L205.574 437.518L204.698 438.111Z" fill="#52B3E8"/>
<path d="M214.163 431.275L214.758 430.802L213.744 431.6L214.163 431.275Z" fill="#52B3E8"/>
<path d="M220.251 426.106H220.265L221.038 425.388L221.336 425.13L220.251 426.106Z" fill="#52B3E8"/>
<path d="M191.779 218.001L190.221 217.259L190.132 217.185L188.827 216.577C190.28 217.259 191.705 217.942 193.129 218.713L191.779 218.001Z" fill="#52B3E8"/>
<path d="M197.512 221.065C196.875 220.709 196.208 220.338 195.556 219.953L194.222 219.272C195.319 219.835 196.43 220.442 197.512 221.065Z" fill="#52B3E8"/>
<path d="M226.225 420.295L226.809 419.724L226.932 419.602L227.543 418.936L226.225 420.295Z" fill="#52B3E8"/>
<path d="M226.056 420.514L226.151 420.392L225.947 420.609L226.056 420.514Z" fill="#52B3E8"/>
<path d="M222.886 423.643L223.565 423.005L224.04 422.543L224.488 422.109L222.886 423.643Z" fill="#52B3E8"/>
<path d="M202.159 439.735L201.256 440.3L201.458 440.179L201.741 440.004L202.159 439.735Z" fill="#52B3E8"/>
<path d="M237.346 407.177L237.661 406.781L238.153 406.07C237.88 406.439 237.62 406.808 237.346 407.177Z" fill="#52B3E8"/>
<path d="M240.092 403.31C240.887 402.131 241.655 400.952 242.423 399.745C241.614 401.02 240.791 402.282 239.941 403.516L240.092 403.31Z" fill="#52B3E8"/>
<path d="M197.898 442.281L197.966 442.241L198.585 441.865L197.898 442.281Z" fill="#52B3E8"/>
<path d="M197.593 442.445L197.673 442.391L197.727 442.364L197.593 442.445Z" fill="#52B3E8"/>
<path d="M194.91 443.886L193.983 444.397L194.373 444.209L194.386 444.195L194.668 444.034L194.91 443.886Z" fill="#52B3E8"/>
<path d="M234.656 410.716L235.12 410.115L235.953 409.022L236.09 408.845L236.254 408.613C235.748 409.309 235.216 410.006 234.656 410.716Z" fill="#52B3E8"/>
<path d="M230.518 415.676L228.926 417.432L229.742 416.561L229.906 416.37L230.518 415.676Z" fill="#52B3E8"/>
<path d="M178.124 212.134L177.276 211.822L176.904 211.688C176.25 211.465 175.596 211.242 174.941 211.019L174.228 210.796C175.521 211.212 176.845 211.658 178.124 212.134Z" fill="#52B3E8"/>
<path d="M233.415 412.22C232.897 412.861 232.379 413.516 231.847 414.129L232.474 413.407L232.965 412.793L233.415 412.22Z" fill="#52B3E8"/>
<path d="M172.777 210.344L172.733 210.329L171.081 209.824L169.295 209.318C170.456 209.63 171.617 209.987 172.777 210.344Z" fill="#52B3E8"/>
<path d="M128.927 206.385C126.677 205.953 124.426 205.58 122.161 205.297C115.349 205.983 108.598 207.22 101.995 208.979L103.202 214.478C114.157 215.939 125.037 218.86 135.53 223.287L132.653 210.111L128.927 206.385Z" fill="#52B3E8"/>
<path d="M173.017 223.861C167.047 220.075 160.869 216.837 154.543 214.164L149.88 215.174L139.842 225.213C144.728 227.485 149.539 230.069 154.202 233.038C168.443 242.052 180.249 253.427 189.515 266.332L211.359 261.565C201.721 246.834 188.862 233.87 173.017 223.861Z" fill="#52B3E8"/>
<path d="M168.197 209.009L167.244 208.741C166.693 208.608 166.172 208.474 165.636 208.34C166.5 208.563 167.363 208.771 168.197 209.009Z" fill="#52B3E8"/>
<path d="M193.684 408.467C182.618 425.977 167.983 439.831 151.341 449.756C175.741 440.206 197.44 423.131 212.508 399.279C227.301 375.905 233.484 349.554 231.967 323.883L221.826 334.024L213.375 295.279L198.003 279.908C219.182 319.072 219.182 368.205 193.684 408.467Z" fill="#52B3E8"/>
<path d="M98.0433 210.122C94.8749 211.074 91.7216 212.175 88.6426 213.38C89.4012 213.395 90.1448 213.409 90.9034 213.439L95.7972 212.383L98.0433 210.122Z" fill="#52B3E8"/>
<path d="M187.772 216.092L187.327 215.899L186.376 215.454L186.257 215.409C185.604 215.127 184.951 214.845 184.298 214.577C185.471 215.053 186.629 215.587 187.772 216.092Z" fill="#52B3E8"/>
<path d="M183.06 214.063L182.51 213.81L182.362 213.751C181.306 213.32 180.266 212.933 179.211 212.547L178.676 212.339C180.147 212.874 181.619 213.453 183.06 214.063Z" fill="#52B3E8"/>
<path d="M128.92 206.391L127.369 204.841C126.594 204.87 125.834 204.96 125.044 205.005L123.613 205.139L122.212 205.258L122.092 205.273H122.062L122.167 205.303C124.433 205.586 126.669 205.959 128.92 206.391Z" fill="#3F8DD2"/>
<path d="M122.041 205.276H122.026" stroke="#3F8DD2" stroke-linecap="round" stroke-linejoin="round"/>
<path d="M122.056 205.276H122.041" stroke="#3F8DD2" stroke-linecap="round" stroke-linejoin="round"/>
<path d="M231.988 323.864C233.504 349.53 227.312 375.883 212.513 399.261C197.457 423.112 175.765 440.184 151.357 449.736C141.891 453.411 132.068 455.956 122.016 457.314C121.272 457.543 120.572 457.8 119.857 458.029V458.044H119.814L120.343 458.086L121.787 458.244L123.346 458.387L124.919 458.53H125.019L126.649 458.63L127.421 458.687L127.75 458.716L129.337 458.801H129.68L131.425 458.859L132.14 458.887L133.727 458.916H134.356C134.971 458.916 135.557 458.916 136.129 458.916H136.787L137.902 458.887H138.059L139.046 458.816L140.361 458.801L140.805 458.787L141.248 458.759L142.149 458.716L143.636 458.601H143.736H143.764L145.48 458.473H145.538L146.152 458.43L146.338 458.415C147.053 458.358 147.783 458.272 148.497 458.172L149.127 458.115L149.441 458.086L150.099 458.029L150.342 457.986L150.685 457.929L151.758 457.8L153.373 457.557L153.859 457.486L154.703 457.372L154.918 457.329L155.675 457.2L156.061 457.128C156.705 457.014 157.32 456.928 157.949 456.8L158.75 456.671L158.921 456.642L159.264 456.571L160.208 456.385L161.767 456.042L163.168 455.727L163.883 455.584L164.755 455.355C165.599 455.155 166.457 454.941 167.272 454.74L168.358 454.44L169.016 454.254L169.602 454.097L169.831 454.026L169.874 453.997L171.376 453.568L172.72 453.168L172.805 453.139L173.849 452.796L173.978 452.753L174.478 452.596L175.393 452.295L175.494 452.281L176.752 451.852L177.209 451.681L178.94 451.051L179.755 450.765L180.698 450.422L181.571 450.065L183.329 449.35L183.372 449.336L183.501 449.278C184.159 449.021 184.816 448.749 185.431 448.463L185.874 448.277L186.203 448.134L186.804 447.877L187.39 447.605L187.619 447.505L188.548 447.091L189.335 446.719L189.435 446.662L190.136 446.319L190.236 446.276L190.364 446.233L190.936 445.947L191.165 445.818L191.851 445.475L192.094 445.375L192.323 445.26L193.553 444.617L193.982 444.388L194.911 443.888L195.998 443.344L196.055 443.301L197.442 442.529L197.599 442.444L197.728 442.358L197.9 442.272L198.6 441.843L200.045 441.014L201.146 440.37L201.174 440.342L201.189 440.327L201.26 440.27L202.175 439.713L202.847 439.312L202.976 439.241L203.019 439.212L204.02 438.554L204.706 438.111L205.578 437.51L206.636 436.81L206.908 436.638L206.965 436.581L207.938 435.938L208.538 435.494C209.224 435.008 209.911 434.536 210.583 434.022L211.741 433.164L213.014 432.163L213.328 431.905L213.743 431.591L214.758 430.79L215.115 430.518L215.459 430.232L216.002 429.789L216.603 429.303L218.09 428.03L218.419 427.744L219.033 427.201L219.062 427.158L219.634 426.658L219.763 426.543L220.077 426.257L220.22 426.129L220.249 426.1L221.335 425.128L221.621 424.87L222.579 423.927L222.894 423.641L224.496 422.111L224.724 421.868L225.925 420.638L225.954 420.595L226.154 420.381L226.226 420.295L227.541 418.936L227.77 418.722L228.942 417.406L230.53 415.662L230.658 415.49L230.701 415.447L231.845 414.103C232.388 413.503 232.903 412.845 233.432 412.202L233.818 411.758L234.648 410.715C235.205 410.014 235.749 409.313 236.249 408.613L236.807 407.883L237.364 407.168C237.622 406.797 237.893 406.439 238.165 406.067C238.237 405.939 238.337 405.81 238.408 405.696C238.523 405.553 238.608 405.41 238.723 405.267C238.837 405.095 238.952 404.938 239.08 404.752L239.695 403.88L239.938 403.508C240.796 402.278 241.625 401.006 242.426 399.733C244.571 396.33 246.516 392.884 248.317 389.381L242.069 390.739L236.378 396.444L234.648 388.58L228.957 382.86L236.821 381.159L242.541 375.454L244.257 383.332L249.004 388.065C262.259 361.284 265.219 331.599 259.07 303.988L249.905 305.99L231.988 323.864Z" fill="#3F8DD2"/>
<path d="M202.941 224.294C201.691 223.505 200.425 222.745 199.16 222.001C199.026 221.927 198.892 221.837 198.743 221.763C198.728 221.748 198.714 221.748 198.699 221.733L198.55 221.659L198.52 221.629L197.508 221.063C196.436 220.438 195.319 219.843 194.218 219.277C194.203 219.262 194.188 219.247 194.158 219.247C194.129 219.217 194.084 219.188 194.039 219.158L193.146 218.696C191.717 217.937 190.288 217.252 188.829 216.568L187.847 216.136L187.772 216.091C186.626 215.57 185.48 215.049 184.318 214.573L183.276 214.111L183.068 214.052C181.624 213.441 180.15 212.861 178.691 212.325L178.483 212.265L178.111 212.146C176.831 211.655 175.506 211.208 174.226 210.806L173.868 210.673L173.705 210.628L172.856 210.375L172.782 210.345C171.62 209.973 170.459 209.631 169.298 209.303L169.09 209.258L168.926 209.214L168.211 208.99C167.363 208.767 166.5 208.559 165.636 208.335C165.532 208.321 165.443 208.291 165.368 208.261C165.309 208.246 165.279 208.246 165.219 208.231L168.167 211.194L154.546 214.156C160.873 216.821 167.05 220.066 173.02 223.847C188.874 233.865 201.721 246.816 211.367 261.554L224.095 258.77L232.61 250.285C224.333 240.371 214.419 231.558 202.941 224.294Z" fill="#3F8DD2"/>
<path d="M135.34 333.352L134.945 331.788L134.258 332.446L131.817 321.06C131.057 318.852 130.253 316.66 129.391 314.54L118.588 303.694L123.938 302.51C107.553 270.894 80.6572 252.111 55.9105 258.045C23.8407 265.734 7.44026 311.909 19.2362 361.169C8.94582 318.194 23.2706 277.91 51.2038 271.23C79.1662 264.521 110.213 293.93 120.533 336.919C130.823 379.893 116.513 420.163 88.5504 426.872C60.5879 433.582 29.5559 404.157 19.2362 361.169C31.0614 410.457 66.6395 444.164 98.6947 436.491C130.765 428.787 147.165 382.612 135.34 333.352Z" fill="#57C9F3"/>
<path d="M23.7205 357.219C16.3483 326.436 26.5706 297.572 46.608 292.788C66.6309 287.99 88.864 309.045 96.2653 339.814C103.638 370.611 93.4007 399.475 73.3633 404.259C53.3259 409.072 31.1073 388.017 23.7205 357.219ZM88.5586 426.87C116.521 420.167 130.829 379.888 120.534 336.92C110.21 293.922 79.1651 264.521 51.2029 271.224C23.2697 277.913 8.94695 318.191 19.2419 361.174C29.5515 404.157 60.5818 433.588 88.5586 426.87Z" fill="#67CEF5"/>
<path d="M73.3468 404.262C93.3873 399.482 103.638 370.617 96.2523 339.821C88.8522 309.041 66.6378 287.993 46.6117 292.801C26.5711 297.581 16.335 326.447 23.7062 357.227C31.0918 388.022 53.3207 409.085 73.3468 404.262Z" fill="#7ED3F6"/>
<path d="M280.957 365.735L289.387 357.305L291.925 368.961L300.355 377.39L288.699 379.929L280.256 388.373L277.717 376.731L269.273 368.288L280.957 365.735ZM276.609 392.3L277.675 397.195L290.915 383.969L306.092 380.672L309.177 379.999L308.013 378.807L298.672 369.452L295.965 366.731L294.801 361.471L291.982 348.455L281.434 358.988L278.727 361.695L263.13 365.104L260.465 365.665L262.443 367.67L273.692 378.919L276.609 392.3Z" fill="#67CEF5"/>
<path d="M280.262 388.359L288.715 379.92L300.368 377.391L291.943 368.939L289.386 357.3L280.961 365.725L269.281 368.268L277.719 376.721L280.262 388.359Z" fill="#B2E4F9"/>
<path d="M239.876 386.737L238.961 387.638L238.684 386.377L237.783 385.476L239.031 385.199L239.918 384.312L240.223 385.546L241.11 386.446L239.876 386.737ZM242.537 375.469L236.813 381.166L228.954 382.871L234.651 388.581L236.369 396.454L242.052 390.757L248.317 389.399L249.939 389.038L248.996 388.082L244.242 383.342L242.537 375.469Z" fill="#67CEF5"/>
<path d="M239.918 384.315L239.021 385.198L237.778 385.488L238.676 386.385L238.966 387.642L239.863 386.731L241.106 386.454L240.208 385.557L239.918 384.315Z" fill="#B2E4F9"/>
<path d="M313.314 327.612L308.983 331.915L303.024 333.217L307.327 337.52L308.643 343.507L312.946 339.19L314.828 338.766L318.933 337.888L317.121 336.076L314.602 333.557L313.314 327.612Z" fill="#9FDFE6"/>
<path d="M245.217 297.459L227.313 315.304L221.915 290.616L204.07 272.727L228.758 267.329L246.647 249.469L252.045 274.172L269.905 292.046L245.217 297.459ZM260.599 269.497L252.133 230.768L236.324 246.549L232.607 250.28L224.098 258.775L211.355 261.562L189.513 266.326L185.354 267.24L197.994 279.909L213.376 295.276L221.826 334.019L231.973 323.873L249.892 306.013L259.05 304.007L264.168 302.886L288.62 297.547L260.599 269.497Z" fill="#67CEF5"/>
<path d="M252.044 274.16L246.644 249.459L228.763 267.326L204.076 272.712L221.929 290.608L227.314 315.309L245.21 297.457L269.911 292.042L252.044 274.16Z" fill="#B2E4F9"/>
<path d="M139.918 308.594L141.847 306.694L142.423 309.343L144.324 311.258L141.689 311.834L139.76 313.734L139.184 311.114L137.269 309.199L139.918 308.594ZM129.394 314.54L130.647 315.764L131.798 321.062L134.26 332.45L134.937 331.788L146.368 320.4L163.025 316.743L150.961 304.664L147.333 287.992L135.239 300.057L123.938 302.519L118.582 303.699L129.394 314.54Z" fill="#67CEF5"/>
<path d="M139.765 313.746L141.679 311.846L144.322 311.261L142.422 309.347L141.836 306.705L139.923 308.604L137.266 309.204L139.18 311.118L139.765 313.746Z" fill="#B2E4F9"/>
<path d="M309.21 208.341L300.064 199.194L297.3 186.563L288.169 195.695L275.522 198.458L284.654 207.59L287.433 220.236L296.564 211.104L309.21 208.341Z" fill="#9FDFE6"/>
<path d="M139.931 196.919L148.35 188.499L150.911 200.142L159.33 208.577L147.673 211.137L139.253 219.556L136.708 207.899L128.273 199.479L139.931 196.919ZM128.936 206.377L132.671 210.113L135.533 223.276L136.632 228.397L139.856 225.204L149.887 215.158L154.556 214.149L168.171 211.182L165.219 208.23H165.204V208.215L158.426 201.422L154.947 197.958L150.956 179.673L137.717 192.882L119.447 196.889L122.49 199.931L127.37 204.811V204.826L128.936 206.377Z" fill="#67CEF5"/>
<path d="M139.25 219.547L147.669 211.143L159.33 208.577L150.911 200.143L148.359 188.497L139.925 196.916L128.28 199.483L136.699 207.902L139.25 219.547Z" fill="#B2E4F9"/>
<path d="M98.9184 215.514L99.1865 216.751L100.095 217.644L98.829 217.912L97.9352 218.821L97.6671 217.585L96.7585 216.676L97.9948 216.408L98.9184 215.514ZM95.8051 212.371L90.9193 213.429L87.9253 214.084L93.6154 219.774L95.3284 227.654L101.034 221.964L108.913 220.266L103.223 214.561L103.208 214.472L102.002 208.975V208.945L101.51 206.666L98.129 210.047L98.0545 210.107L95.8051 212.371Z" fill="#67CEF5"/>
<path d="M96.7502 216.684L97.6705 217.575L97.9376 218.821L98.843 217.916L100.09 217.649L99.1843 216.759L98.9172 215.512L97.997 216.402L96.7502 216.684Z" fill="#B2E4F9"/>
<path d="M172.264 158.831L167.935 163.13L161.966 164.451L166.295 168.75L167.601 174.719L171.915 170.405L177.869 169.114L173.555 164.785L172.264 158.831Z" fill="#B2E4F9"/>
</svg>
