<svg width="476" height="476" viewBox="0 0 476 476" fill="none" xmlns="http://www.w3.org/2000/svg">
<path d="M78.1259 401.071L78.6647 401.606L78.4055 401.318L78.1259 401.071Z" fill="#E6EE4C"/>
<path d="M84.0226 406.635C84.2605 406.854 84.5121 407.059 84.7556 407.264C84.5805 407.113 84.3986 406.963 84.2222 406.799L84.0226 406.635Z" fill="#E6EE4C"/>
<path d="M192.925 461.794L194.42 462.115L193.055 461.821L192.925 461.794Z" fill="#E6EE4C"/>
<path d="M100.573 420.349L101.847 421.327L101.392 420.974L100.573 420.349Z" fill="#E6EE4C"/>
<path d="M462.551 196.209L462.317 194.996L462.459 195.789L462.551 196.209Z" fill="#E6EE4C"/>
<path d="M464.866 211.798L464.918 212.17L464.866 211.709V211.798Z" fill="#E6EE4C"/>
<path d="M409.592 87.1935L409.046 86.5679L409.578 87.1935H409.592Z" fill="#E6EE4C"/>
<path d="M363.32 117.994C365.072 91.715 362.305 66.2421 355.701 42.2212C325.509 24.024 290.709 12.4409 253.095 9.94043C250.77 9.76297 248.445 9.65018 246.132 9.58563C245.424 9.56952 244.717 9.53717 244.009 9.52106C242.313 9.47266 240.644 9.44046 238.961 9.42432C238.155 9.42432 237.375 9.42432 236.588 9.42432C235.673 9.42432 234.744 9.4404 233.849 9.4404C232.868 9.47266 231.9 9.4726 230.926 9.53711C229.99 9.56937 229.054 9.5856 228.119 9.634C227.177 9.65015 226.236 9.69849 225.305 9.76303C224.339 9.79529 223.376 9.87589 222.421 9.94043C221.524 9.98883 220.624 10.0534 219.706 10.134C218.738 10.1986 217.763 10.2792 216.784 10.376C215.918 10.4567 215.042 10.5536 214.164 10.6342C213.164 10.731 212.19 10.8278 211.19 10.9569C210.339 11.0537 209.5 11.1504 208.657 11.2633C207.648 11.4085 206.642 11.5375 205.629 11.6666C204.837 11.7957 204.012 11.9086 203.206 12.0376C202.168 12.1989 201.147 12.3441 200.115 12.5216C199.334 12.6506 198.581 12.7958 197.808 12.9249C196.735 13.1185 195.69 13.296 194.638 13.5057C193.922 13.6509 193.189 13.8123 192.474 13.9413C191.377 14.1511 190.285 14.3769 189.206 14.635C188.545 14.7641 187.875 14.9254 187.214 15.0706C186.083 15.3287 184.947 15.5707 183.842 15.8449C183.231 16.0063 182.634 16.1514 182.029 16.2966C180.848 16.6031 179.67 16.9096 178.509 17.2322L176.994 17.6518C175.736 17.9744 174.466 18.3454 173.214 18.7164L172.175 19.023C170.772 19.4424 169.381 19.8618 167.99 20.3297L167.868 20.362C157.876 23.5884 148.19 27.4924 138.823 31.9933L138.338 32.2192C136.999 32.8806 135.655 33.558 134.329 34.2195L133.511 34.639C132.256 35.2682 131.015 35.9295 129.768 36.6393L128.775 37.1556C127.579 37.8009 126.39 38.4784 125.208 39.1398L124.098 39.769C122.941 40.4466 121.793 41.1241 120.655 41.8016L119.49 42.5115C118.387 43.1891 117.256 43.8828 116.153 44.5604L114.957 45.3186C113.852 46.0284 112.781 46.7542 111.716 47.4479L110.495 48.2868C109.429 48.9644 108.37 49.6904 107.319 50.4486L106.089 51.2875C105.05 52.0457 104.012 52.7716 102.998 53.5298L101.782 54.4171C100.764 55.1753 99.743 55.9496 98.7379 56.724L97.5409 57.6436C96.5472 58.4341 95.5534 59.2245 94.5597 60.0311L93.3966 60.9669C92.4093 61.7735 91.4284 62.5962 90.4475 63.4351L89.3167 64.3708C88.3504 65.2096 87.3808 66.0323 86.4129 66.8873L85.3352 67.8715C84.3673 68.7265 83.4123 69.5815 82.4637 70.4849L81.4506 71.4366C80.502 72.3401 79.534 73.2435 78.5984 74.1791L77.6627 75.0664C76.7012 76.0182 75.7526 76.97 74.7928 77.9218L73.9797 78.7768C73.0118 79.777 72.0568 80.7773 71.1082 81.7775L70.4258 82.5195C69.4466 83.5843 68.4641 84.6491 67.4978 85.7299L67.0477 86.2139C60.2673 93.8767 53.9725 101.991 48.2165 110.541L48.0277 110.799C47.255 111.961 46.4951 113.139 45.7289 114.332L45.0788 115.333C44.4044 116.397 43.7285 117.478 43.067 118.559L42.2201 119.93C41.6103 120.947 41.0263 121.979 40.4214 122.979L39.4663 124.609C38.9082 125.609 38.3629 126.593 37.816 127.561C37.4853 128.19 37.1546 128.787 36.8222 129.368C36.3028 130.352 35.7962 131.287 35.2961 132.255C34.9703 132.917 34.6138 133.578 34.296 134.207C33.8152 135.159 33.3409 136.111 32.865 137.063C32.5408 137.74 32.2036 138.402 31.8794 139.128C31.4244 140.031 30.9824 140.983 30.5485 141.919C30.2226 142.628 29.879 143.354 29.5741 144.064C29.1433 145.016 28.7416 145.936 28.3319 146.871C28.0205 147.613 27.6882 148.355 27.3768 149.114C26.98 150.033 26.6105 150.953 26.2217 151.872C25.9217 152.663 25.591 153.437 25.2926 154.211C24.9344 155.131 24.5762 156.034 24.2326 156.97C23.9277 157.76 23.6293 158.583 23.3373 159.374C22.9937 160.293 22.6872 161.197 22.35 162.116C22.058 162.955 21.7854 163.778 21.4918 164.6C21.1982 165.504 20.8884 166.423 20.5948 167.343C20.3222 168.198 20.056 169.053 19.7914 169.908C19.5043 170.811 19.2252 171.731 18.9525 172.634C18.6863 173.505 18.446 174.393 18.1911 175.248C17.9524 176.167 17.6862 177.055 17.4442 177.958C17.1974 178.878 16.9635 179.781 16.7247 180.668C16.4957 181.572 16.2697 182.459 16.0487 183.362C15.8213 184.298 15.6196 185.218 15.3922 186.137C15.1841 187.024 14.9695 187.912 14.7824 188.831C14.5743 189.783 14.379 190.719 14.1903 191.687C14.0015 192.574 13.8274 193.445 13.6499 194.348C13.4692 195.316 13.295 196.316 13.0982 197.317C12.9627 198.188 12.7933 199.043 12.6432 199.898C12.4738 200.93 12.3271 201.963 12.1577 203.011C12.027 203.85 11.8979 204.673 11.7753 205.496C11.6188 206.609 11.4882 207.706 11.3526 208.803C11.2462 209.609 11.1446 210.4 11.0526 211.174C10.8977 212.417 10.7929 213.675 10.6558 214.885C10.5832 215.562 10.5154 216.24 10.4492 216.885C10.2734 218.789 10.117 220.725 9.99274 222.644C8.53116 244.439 10.1943 265.734 14.5791 286.076C16.9054 289.254 18.9526 293.481 21.395 294.739C24.9796 296.611 29.8919 296.143 33.6136 297.772C34.7251 298.24 35.5752 298.934 36.348 299.676C36.0495 298.708 35.9592 297.643 36.1399 296.337L36.3028 282.463C37.2708 278.317 39.4195 274.429 41.8765 270.718L41.5071 270.364C1.88621 226.339 24.6101 141.289 92.2592 80.3901C159.266 20.0876 245.204 6.13327 285.316 48.6418C286.2 47.6093 287.181 46.6414 288.35 45.8186C295.034 40.9628 303.602 42.0275 307.462 48.2062C307.857 48.8515 308.177 49.513 308.449 50.2067L308.87 50.4164C310.117 50.1259 311.364 50.0453 312.561 50.2227V50.2067L312.637 50.2227L314.296 50.61L314.373 50.6422L315.749 51.3197L316.141 51.5456L317.095 52.3038L317.433 52.6588L318.498 53.9494L318.811 54.514L318.927 54.0622C319.831 50.5292 320.85 46.6898 321.233 42.8665C322.344 43.3988 328.899 72.1142 325.722 84.3748C324.125 90.4566 322.752 96.4739 320.597 102.411C318.011 109.493 313.633 125.076 305.565 128.013C304.908 128.255 304.292 128.287 303.681 128.255C301.064 141.983 296.203 156.147 289.247 170.279C294.125 167.069 296.873 165.149 299.477 158.648C302.837 150.275 306.241 142.209 312.892 135.433C318.14 130.11 321.818 125.254 322.026 118.543C322.259 111.477 325.462 105.669 328.255 98.2646C328.703 103.491 328.631 108.88 328.145 114.332C328.995 112.219 329.918 110.025 330.807 107.654C331.757 118.559 330.459 130.029 327.731 141.386C327.034 144.371 325.846 146.629 325.254 149.194L325.014 150.678L325.009 150.807L324.917 152.501C325.014 155.937 326.469 159.035 325.846 162.649C324.988 167.73 323.044 167.166 319.758 171.15C316.764 174.78 317.056 178.023 315.925 182.12C314.639 186.782 312.315 188.896 309.164 192.8C305.694 197.107 305.402 199.075 304.797 203.85C304.215 208.464 302.85 210.158 298.523 213.401C295.6 215.578 290.162 217.305 288.071 220.289C286.05 223.225 286.088 228.726 284.498 232.13C281.147 239.325 276.767 243.955 270.401 248.859C264.139 253.715 259.52 260.087 252.854 264.54C249.212 266.992 247.334 270.38 244.288 273.429C236.687 280.963 226.702 278.72 221.753 288.658C219.428 293.271 219.154 294.126 214.958 296.611C211.314 298.805 209.93 299.708 206.955 303.257C205.219 305.306 202.851 309.033 200.257 310.097C197.172 311.356 194.151 309.033 190.889 310.759C188.559 312.001 186.497 314.518 184.349 317.034C189.39 317.034 194.118 318.986 197.477 322.648C287.869 297.143 356.709 217.063 363.32 117.994Z" fill="#E6EE4C"/>
<path d="M466.111 247.567L466.15 246.482L466.137 246.746L466.111 247.567Z" fill="#E6EE4C"/>
<path d="M466.238 231.046C466.204 230.382 466.191 229.702 466.165 229.008C466.191 229.673 466.204 230.323 466.217 230.987L466.238 231.046Z" fill="#E6EE4C"/>
<path d="M466.329 236.121L466.291 234.442L466.303 235.694L466.329 236.121Z" fill="#E6EE4C"/>
<path d="M465.026 213.245L464.949 212.382L465.001 212.992L465.026 213.245Z" fill="#E6EE4C"/>
<path d="M204.839 463.839L205.631 463.973L205.405 463.919L204.839 463.839Z" fill="#E6EE4C"/>
<path d="M67.9036 390.379C69.2356 391.825 70.5552 393.299 71.9189 394.731L71.7427 394.525C70.4643 393.147 69.164 391.756 67.9036 390.379Z" fill="#E6EE4C"/>
<path d="M54.0414 373.34C54.9047 374.506 55.7805 375.657 56.6716 376.823L56.6063 376.74C55.743 375.63 54.8797 374.478 54.0414 373.34Z" fill="#E6EE4C"/>
<path d="M47.9965 364.755C48.9257 366.134 49.8787 367.528 50.8525 368.921C49.9302 367.597 49.0288 366.288 48.1441 364.95L47.9965 364.755Z" fill="#E6EE4C"/>
<path d="M61.923 383.424C62.6042 384.239 63.2937 385.04 63.9818 385.883C63.4166 385.206 62.8625 384.515 62.2932 383.852L61.923 383.424Z" fill="#E6EE4C"/>
<path d="M29.6887 331.851C30.2301 333.024 30.7812 334.211 31.3339 335.37C30.7812 334.211 30.2413 333.024 29.7169 331.851H29.6887Z" fill="#E6EE4C"/>
<path d="M36.0439 344.751L35.6151 343.978C36.7582 346.129 37.9265 348.28 39.13 350.389L38.9725 350.08C37.9602 348.322 36.9985 346.537 36.0439 344.751Z" fill="#E6EE4C"/>
<path d="M75.3399 291.579C70.5309 296.813 64.8935 301.257 57.7346 300.164C53.8834 299.575 51.0057 298.323 47.1803 300.107C44.8851 301.171 43.4571 303.357 41.2683 304.493L41.8076 304.852C47.0164 307.499 51.4789 303.616 57.2428 301.933C68.6297 298.568 73.1425 309.325 85.3305 302.163C92.3858 298.007 98.249 296.195 105.708 296.411C110.069 296.555 115.92 298.108 120.545 296.037L122.086 295.232C105.243 297.173 89.3643 295.994 75.3399 291.579Z" fill="#E6EE4C"/>
<path d="M168.662 323.396L168.404 323.481C165.972 324.403 163.57 327.624 161.315 329.766C162.145 329.666 162.985 329.553 163.823 329.468C165.083 327.269 166.705 325.198 168.662 323.396Z" fill="#E6EE4C"/>
<path d="M32.4742 337.712L32.0736 336.936C33.2032 339.249 34.347 341.534 35.5344 343.804L35.392 343.48C34.3851 341.576 33.4177 339.672 32.4742 337.712Z" fill="#E6EE4C"/>
<path d="M31.5394 335.806L31.8202 336.399L31.6946 336.13L31.5394 335.806Z" fill="#E6EE4C"/>
<path d="M8.04397 282.654L9.29223 282.363C11.3248 282.298 13.0259 283.963 14.5782 286.082C10.1946 265.74 8.53065 244.444 9.9924 222.647C10.1169 220.739 10.2722 218.799 10.4484 216.891C10.5131 216.244 10.5826 215.565 10.6554 214.902C10.7928 213.673 10.8963 212.428 11.0516 211.183C11.1421 210.39 11.2456 209.598 11.3507 208.806C11.4865 207.706 11.6175 206.623 11.7727 205.507C11.8973 204.683 12.0249 203.842 12.1559 203.001C12.3257 201.966 12.4729 200.931 12.6427 199.912C12.793 199.039 12.9612 198.182 13.097 197.309C13.2943 196.307 13.4689 195.32 13.65 194.35C13.8263 193.461 14.0009 192.571 14.1901 191.698C14.3777 190.728 14.5733 189.774 14.7819 188.836C14.9679 187.914 15.183 187.025 15.3915 186.152C15.6195 185.23 15.82 184.309 16.0464 183.355C16.2679 182.465 16.4943 181.576 16.7223 180.67C16.9633 179.781 17.1961 178.892 17.4435 177.954C17.686 177.064 17.9512 176.175 18.1889 175.253C18.4444 174.396 18.6853 173.507 18.9505 172.634C19.2238 171.728 19.5036 170.807 19.7898 169.917C20.055 169.06 20.3217 168.203 20.5934 167.346C20.8877 166.441 21.1982 165.503 21.4909 164.597C21.7851 163.789 22.0567 162.948 22.3494 162.123C22.6857 161.202 22.993 160.296 23.3358 159.375C23.6285 158.582 23.9276 157.774 24.2316 156.965C24.5744 156.044 24.9334 155.122 25.2923 154.2C25.5899 153.44 25.9214 152.664 26.2205 151.888C26.6102 150.966 26.9789 150.044 27.3767 149.107C27.6871 148.363 28.0186 147.603 28.3307 146.859C28.7398 145.937 29.1424 145.016 29.5725 144.078C29.8782 143.35 30.2225 142.639 30.5476 141.927C30.9825 140.989 31.4223 140.035 31.8783 139.13C32.2033 138.402 32.5397 137.739 32.8647 137.06C33.3401 136.122 33.8139 135.152 34.2941 134.198C34.6126 133.584 34.97 132.905 35.295 132.258C35.7947 131.288 36.3008 130.35 36.8214 129.379C37.1529 128.781 37.4844 128.199 37.8143 127.569C38.3608 126.598 38.9074 125.612 39.4652 124.626L40.4209 122.992C41.024 121.99 41.6094 120.955 42.219 119.936L43.0663 118.562C43.7276 117.478 44.4035 116.395 45.0778 115.344L45.7278 114.341C46.4943 113.145 47.2543 111.965 48.0272 110.8L48.2164 110.542C53.9712 101.988 60.2662 93.8866 67.0462 86.2221L67.4957 85.737C68.4627 84.6537 69.4458 83.5864 70.4257 82.5192L71.1064 81.7754C72.0556 80.7729 73.0113 79.7865 73.9798 78.784L74.7916 77.927C75.7521 76.973 76.6996 76.0189 77.6617 75.0649L78.598 74.1756C79.5326 73.2539 80.5011 72.3484 81.4487 71.4267L82.4625 70.4889C83.4101 69.5834 84.3657 68.7263 85.3343 67.8693L86.4112 66.8829C87.3798 66.042 88.35 65.2174 89.3153 64.3765L90.4472 63.4387C91.4271 62.5979 92.4087 61.7732 93.3966 60.9809L94.5592 60.0269C95.5521 59.2185 96.5465 58.4423 97.5393 57.6499L98.7359 56.7282C99.7417 55.9521 100.764 55.1759 101.782 54.4321L102.997 53.5266C104.01 52.7828 105.049 52.039 106.088 51.2952L107.317 50.4382C108.37 49.6944 109.427 48.9667 110.493 48.2875L111.715 47.4468C112.779 46.7515 113.851 46.0238 114.956 45.3285L116.151 44.5685C117.254 43.8732 118.385 43.1942 119.49 42.515L120.654 41.8035C121.791 41.1243 122.941 40.4453 124.097 39.7661L125.206 39.1516C126.39 38.4724 127.578 37.7933 128.773 37.1627L129.767 36.6291C131.014 35.9338 132.254 35.2709 133.509 34.6403L134.327 34.2197C135.653 33.5568 136.997 32.8777 138.336 32.2148L138.823 32.0046C148.19 27.4932 157.874 23.5963 167.867 20.3623L167.99 20.3299C169.38 19.861 170.771 19.4568 172.175 19.0363L173.213 18.713C174.466 18.341 175.735 17.9853 176.993 17.6619L178.508 17.2253C179.669 16.9181 180.846 16.6109 182.027 16.2875C182.632 16.1581 183.23 16.0125 183.841 15.8508C184.946 15.576 186.081 15.3334 187.213 15.0747C187.874 14.9292 188.543 14.7675 189.205 14.6381C190.283 14.3794 191.376 14.153 192.473 13.9428C193.187 13.8135 193.921 13.6517 194.638 13.5223C195.689 13.3121 196.735 13.1182 197.805 12.9242C198.58 12.7948 199.333 12.6654 200.113 12.536C201.144 12.3582 202.166 12.1965 203.205 12.0348C204.01 11.9055 204.836 11.7922 205.627 11.679C206.641 11.5335 207.648 11.4042 208.655 11.2748C209.499 11.1454 210.339 11.0645 211.188 10.9675C212.189 10.8382 213.164 10.725 214.163 10.6441C215.041 10.5471 215.917 10.4663 216.782 10.3855C217.762 10.2885 218.737 10.1913 219.706 10.1266C220.623 10.062 221.522 9.99741 222.419 9.93274C223.375 9.86804 224.337 9.80328 225.304 9.75476C226.234 9.70627 227.176 9.65778 228.117 9.62546C229.054 9.59311 229.988 9.56082 230.925 9.5285C231.898 9.47998 232.867 9.47998 233.848 9.44763C234.744 9.44763 235.672 9.41525 236.587 9.41525H237.687H238.959C240.643 9.4476 242.311 9.47998 244.008 9.5285C244.716 9.5285 245.422 9.56073 246.131 9.59308C248.443 9.65775 250.77 9.75485 253.093 9.93274C290.708 12.4552 325.507 24.0166 355.699 42.2238C355.686 42.1753 355.673 42.1106 355.66 42.0621C357.714 43.3072 359.734 44.5686 361.768 45.8783L362.688 46.4766C366.761 49.1447 370.75 51.9582 374.642 54.8526L375.363 55.4023C377.111 56.7282 378.838 58.0542 380.554 59.4286L381.236 59.9785C383.144 61.5146 385.043 63.0991 386.912 64.6999L386.939 64.7162C388.712 66.2523 390.473 67.8531 392.208 69.4216L393.09 70.2463C394.358 71.4267 395.543 72.6879 396.789 73.9007C397.458 74.5475 398.119 75.1942 398.782 75.8571C400.288 77.3609 401.851 78.8001 403.316 80.3362L404.096 81.1447C405.538 82.697 406.959 84.2331 408.345 85.8016L409.045 86.5616L409.59 87.1923C410.683 86.7557 411.741 86.5293 412.567 86.5616C414.944 86.7072 416.483 87.4348 417.711 88.502C418.919 87.6612 420.309 87.0468 421.564 86.7396C420.023 84.8962 418.464 83.0367 416.88 81.2418C375.045 33.4276 317.115 4.77444 253.718 0.537933C248.398 0.18222 243 0.00436401 237.7 0.00436401H237.687C177.46 0.00436401 119.931 22.7068 75.7262 63.8914C31.3318 105.27 4.65311 161.428 0.607406 222.017C-0.822011 243.555 0.620367 264.834 4.79704 285.451C5.73166 284.206 6.89429 283.123 8.04397 282.654Z" fill="#DFC36F"/>
<path d="M465.785 183.196C465.427 186.266 463.681 188.852 461.587 191.348L461.679 191.756L461.726 191.983L461.945 193.087C462.069 193.722 462.205 194.357 462.317 194.993L462.55 196.203L462.765 197.443L462.939 198.471L463.244 200.18C463.387 201.073 463.518 201.965 463.681 202.857L463.861 204.082L463.939 204.551L464.005 205.035V205.065L464.064 205.413C464.174 206.291 464.298 207.137 464.401 208.015C464.524 208.892 464.622 209.739 464.739 210.616L464.863 211.72L464.914 212.189L464.947 212.386L465.024 213.248C465.147 214.291 465.233 215.35 465.338 216.394L465.454 217.588L465.531 218.39V218.481L465.629 219.721L465.738 221.294C465.803 222.05 465.855 222.852 465.903 223.623L465.941 224.455L466.032 226.119C466.077 226.86 466.11 227.601 466.148 228.357V228.69L466.169 229.007C466.194 229.703 466.207 230.368 466.24 231.034L466.272 232.516C466.278 233.166 466.29 233.802 466.29 234.437L466.33 236.116V237.129V238.642L466.302 239.942V239.988C466.29 240.683 466.29 241.379 466.278 242.12C466.272 242.801 466.253 243.512 466.24 244.192L466.207 244.994C466.201 245.145 466.194 245.281 466.188 245.417L466.148 246.491L466.11 247.565C466.032 249.365 465.933 251.21 465.824 253.025C465.682 254.961 465.545 256.866 465.377 258.787C465.298 259.438 465.22 260.088 465.161 260.738C465.038 261.979 464.908 263.264 464.772 264.504C464.681 265.276 464.577 266.047 464.46 266.818C464.33 267.953 464.186 269.057 464.025 270.161C463.914 270.993 463.771 271.825 463.668 272.656C463.498 273.685 463.335 274.744 463.173 275.787C463.025 276.619 462.86 277.481 462.7 278.373C462.523 279.341 462.368 280.355 462.16 281.338C461.984 282.215 461.809 283.077 461.621 283.954C461.432 284.937 461.231 285.905 461.03 286.858C460.841 287.735 460.638 288.628 460.427 289.505C460.21 290.443 460.005 291.38 459.757 292.318C459.548 293.21 459.327 294.088 459.094 294.98C458.86 295.872 458.619 296.795 458.367 297.718C458.128 298.595 457.88 299.487 457.627 300.379C457.373 301.272 457.119 302.179 456.845 303.071C456.593 303.949 456.305 304.856 456.04 305.733C455.767 306.611 455.488 307.488 455.215 308.35C454.923 309.257 454.625 310.135 454.333 311.027C454.032 311.874 453.754 312.721 453.442 313.583C453.137 314.49 452.812 315.353 452.494 316.26L452.409 316.502C453.294 315.201 454.254 313.946 455.364 312.691C458.826 308.834 461.251 305.446 461.491 301.121C461.712 296.613 463.861 292.605 465.76 287.645C466.24 294.511 465.251 301.952 463.349 309.454C462.86 311.435 462.075 312.963 461.665 314.657L461.661 314.672L461.505 315.549L461.478 315.731L461.401 316.789C461.401 317.485 461.505 318.105 461.6 318.755C469.084 298.005 473.703 276.12 475.205 253.675C477.113 225.105 473.937 197.049 466.091 170.415C465.617 171.141 465.147 171.913 464.804 172.76C463.07 176.858 466.24 179.233 465.785 183.196Z" fill="#DFC36F"/>
<path d="M448.078 349.249C449.12 347.322 450.093 345.367 451.069 343.413L450.716 343.877C448.994 346.155 448.436 347.449 448.078 349.249Z" fill="#DFC36F"/>
<path d="M424.967 382.952C420.848 386.582 417.776 391.028 413.416 394.436C411.014 396.292 409.784 398.619 407.772 400.808C402.756 406.266 396.318 405.67 392.999 412.417C391.433 415.603 391.245 416.143 388.504 418.096C386.113 419.786 385.211 420.479 383.247 423.014C382.114 424.454 380.514 427.045 378.838 427.917C376.832 428.998 374.902 427.765 372.772 429.136C369.471 431.27 366.937 437.088 362.891 438.736C361.083 439.443 359.966 438.168 358.07 439.138C356.16 440.108 354.23 443.183 352.496 444.61C350.522 446.244 347.805 447.99 345.532 448.502C343.961 448.849 341.928 447.657 340.544 448.322C339.368 448.89 337.952 451.287 336.698 452.298C335.23 453.475 330.578 456.966 328.988 457.34C327.372 457.714 326.467 456.468 324.726 456.855C321.303 457.645 318.417 460.637 315.384 462.757C346.527 452.021 375.383 434.816 400.074 411.807C411.28 401.348 421.232 389.892 430.092 377.73C428.618 379.531 426.949 381.193 424.967 382.952Z" fill="#DFC36F"/>
<path d="M436.748 363.215C435.397 365.241 435.353 368.747 434.274 371.066C433.352 373.05 432.283 374.755 431.105 376.375C435.298 370.535 439.316 364.584 442.946 358.409C440.976 359.876 437.99 361.315 436.748 363.215Z" fill="#DFC36F"/>
<path d="M287.779 467.493C285.786 466.451 284.396 465.139 282.077 464.639C279.849 464.168 277.673 464.154 275.762 463.141L275.541 463.169C274.657 463.312 273.76 463.455 272.865 463.583C271.916 463.726 270.987 463.869 270.052 464.011C269.169 464.14 268.253 464.24 267.349 464.368C266.407 464.482 265.46 464.582 264.505 464.71C263.602 464.825 262.717 464.91 261.807 465.01C260.848 465.11 259.886 465.21 258.913 465.296C258.015 465.367 257.113 465.453 256.215 465.538C255.241 465.595 254.272 465.667 253.293 465.738C252.388 465.795 251.493 465.838 250.583 465.923C249.608 465.966 248.622 465.981 247.64 466.038C246.738 466.066 245.833 466.109 244.932 466.137C243.943 466.152 242.944 466.195 241.95 466.195C241.047 466.223 240.138 466.252 239.24 466.252H238.143L236.87 466.223C235.18 466.223 233.498 466.195 231.823 466.137C231.115 466.137 230.394 466.109 229.692 466.08C227.366 465.981 225.04 465.881 222.722 465.738C220.921 465.624 219.149 465.467 217.375 465.324L215.789 465.167L215.762 465.153L214.621 465.039L213.99 464.982C213.306 464.91 212.638 464.825 211.976 464.768C211.36 464.682 210.748 464.611 210.144 464.539C209.386 464.454 208.626 464.368 207.871 464.254L207.084 464.154C206.926 464.125 206.766 464.111 206.611 464.097L206.572 464.068L205.636 463.954L204.844 463.84C203.181 463.583 201.544 463.355 199.906 463.055H199.855L199.608 463.027L198.854 462.884L198.211 462.755L197.016 462.556C196.159 462.399 195.281 462.242 194.423 462.099L192.929 461.785L191.969 461.599C191.267 461.428 190.572 461.3 189.878 461.143L188.993 460.972L188.845 460.929L187.426 460.615C186.751 460.472 186.078 460.329 185.414 460.144L184.524 459.944L183.64 459.73L182.322 459.416L181.607 459.245L181.042 459.088C179.82 458.76 178.569 458.431 177.326 458.103L176.131 457.775C175.339 457.547 174.539 457.318 173.765 457.104L173.443 457.004L172.143 456.605L170.882 456.234L170.33 456.048C169.323 455.734 168.309 455.42 167.298 455.106L165.886 454.635L165.418 454.478L163.754 453.908L163.333 453.765L161.885 453.265L160.69 452.837C160.001 452.623 159.339 452.352 158.67 452.109L157.565 451.696L155.98 451.111L154.467 450.511C153.401 450.097 152.304 449.655 151.226 449.227C150.621 448.956 150.029 448.727 149.414 448.485C148.419 448.042 147.432 447.628 146.444 447.186L144.67 446.401L143.429 445.845L142.56 445.445L141.162 444.789L140.007 444.261C138.899 443.733 137.805 443.19 136.706 442.648C136.653 442.634 136.596 442.605 136.544 442.577V442.562C136.349 442.477 136.153 442.391 135.959 442.291L135.675 442.12H135.614L133.926 441.264C133.024 440.807 132.128 440.308 131.21 439.837C130.568 439.508 129.937 439.166 129.295 438.824L129.198 438.766L128.586 438.452C127.969 438.096 127.351 437.753 126.708 437.396C126.098 437.054 125.473 436.697 124.864 436.355C124.473 436.141 124.098 435.898 123.717 435.684C123.558 435.598 123.395 435.498 123.234 435.399L122.421 434.913L121.447 434.371C120.752 433.943 120.038 433.515 119.328 433.072C118.401 432.516 117.483 431.959 116.576 431.388L115.268 430.575L114.502 430.047C113.79 429.605 113.081 429.148 112.371 428.691C111.702 428.249 111.026 427.792 110.352 427.336L108.838 426.294L107.929 425.666L107.792 425.58L106.239 424.496C105.357 423.868 104.485 423.24 103.609 422.598L102.186 421.57L101.967 421.399L101.85 421.328L100.575 420.343C99.9516 419.872 99.3079 419.415 98.6857 418.916C97.9708 418.374 97.2615 417.831 96.5537 417.26L95.8402 416.704L95.4763 416.404L94.8384 415.905C94.1305 415.32 93.4156 414.749 92.6892 414.149L91.1166 412.822L90.1034 411.98L89.2785 411.281C87.7473 409.954 86.2446 408.612 84.7562 407.271C84.5136 407.057 84.2624 406.843 84.0241 406.629L83.185 405.844L82.1375 404.874C81.4068 404.189 80.6719 403.504 79.9498 402.79L78.6697 401.591L78.1317 401.063L77.7992 400.706L77.3255 400.236L76.4563 399.365L75.4945 398.409C74.5584 397.453 73.6308 396.482 72.726 395.555L72.5818 395.398L71.9211 394.727C70.5569 393.3 69.2383 391.816 67.9068 390.375L67.2047 389.575L66.8137 389.119L66.4969 388.762C65.9375 388.134 65.3795 387.492 64.8415 386.85L63.9824 385.879C63.2945 385.052 62.6052 384.238 61.9231 383.425L61.7019 383.168C60.2734 381.427 58.8778 379.657 57.5135 377.902L57.2851 377.617L56.6744 376.817C55.7839 375.647 54.9076 374.491 54.0443 373.335L53.492 372.579L52.7499 371.566L51.7624 370.182L51.3414 369.582L50.8591 368.897C49.8844 367.513 48.9311 366.129 48.0021 364.744L47.437 363.874L47.1844 363.517C46.0156 361.719 44.8511 359.921 43.7209 358.109L42.9032 356.753L41.9042 355.098L41.5517 354.541C40.8953 353.428 40.2459 352.329 39.608 351.202L39.5767 351.145L39.1357 350.374C37.9327 348.276 36.7639 346.121 35.6208 343.966L35.5352 343.809C34.3479 341.526 33.2034 339.243 32.0746 336.931L31.8277 336.389L31.5466 335.789L31.3396 335.361C30.7873 334.191 30.2351 333.007 29.6956 331.836C28.2472 330.952 26.6489 330.238 24.9478 329.225C18.1535 325.186 16.0087 315.568 11.0382 309.574C20.8036 340.47 36.9452 369.297 58.9348 394.427C100.771 442.248 158.701 470.89 222.091 475.114C227.424 475.485 232.823 475.67 238.143 475.67C257.514 475.67 276.6 473.301 295.049 468.735C292.216 469.191 289.898 468.592 287.779 467.493Z" fill="#DFC36F"/>
<path d="M303.95 464.226C301.435 465.213 299.578 467.279 297.006 468.266C301.085 467.213 305.138 466.079 309.166 464.799C307.431 464.479 306.19 463.359 303.95 464.226Z" fill="#DFC36F"/>
<path d="M48.1437 364.95C49.0269 366.288 49.9296 367.597 50.8518 368.921L51.3338 369.603L51.7546 370.188C50.5286 368.475 49.3125 366.734 48.1437 364.95Z" fill="#E6C92E"/>
<path d="M110.674 427.537C110.056 427.13 109.453 426.724 108.835 426.304L110.348 427.347C111.023 427.795 111.699 428.256 112.369 428.689C113.078 429.164 113.787 429.611 114.5 430.058C113.759 429.611 113.018 429.069 112.285 428.621L110.674 427.537Z" fill="#E6C92E"/>
<path d="M39.6029 351.215C40.2406 352.35 40.8909 353.443 41.5454 354.551L41.8986 355.111L42.8978 356.765C41.7668 354.943 40.6695 353.079 39.6029 351.215Z" fill="#E6C92E"/>
<path d="M62.2904 383.858C62.8596 384.521 63.4136 385.212 63.9786 385.889L64.8379 386.856C65.3767 387.492 65.9335 388.141 66.493 388.763C65.0714 387.16 63.6816 385.516 62.2904 383.858Z" fill="#E6C92E"/>
<path d="M52.7426 371.579L53.4843 372.593L54.0357 373.357C54.8747 374.496 55.7387 375.635 56.6012 376.746C55.2831 375.052 54.0149 373.329 52.7426 371.579Z" fill="#E6C92E"/>
<path d="M67.2048 389.574L67.9062 390.373C69.1657 391.751 70.4651 393.143 71.7439 394.521C70.213 392.881 68.6986 391.255 67.2048 389.574Z" fill="#E6C92E"/>
<path d="M99.9444 419.864L99.0282 419.17C97.9487 418.353 96.8773 417.55 95.8318 416.719L96.5465 417.291C97.2544 417.849 97.9623 418.394 98.677 418.938C99.3005 419.428 99.9444 419.891 100.568 420.368L101.385 420.98L99.9444 419.864Z" fill="#E6C92E"/>
<path d="M106.046 424.345L104.713 423.394C103.868 422.783 103.024 422.185 102.18 421.588L103.602 422.606C104.478 423.258 105.35 423.883 106.233 424.522L107.786 425.595L106.046 424.345Z" fill="#E6C92E"/>
<path d="M93.7666 415.01C92.5456 414.001 91.3151 413.005 90.1023 411.982L91.1159 412.827L92.6876 414.151C93.4147 414.751 94.1296 415.324 94.8362 415.91L95.4747 416.415L94.0068 415.201L93.7666 415.01Z" fill="#E6C92E"/>
<path d="M72.7257 395.551C73.63 396.486 74.5577 397.461 75.4936 398.41L76.4556 399.358L77.3242 400.238C75.7726 398.698 74.2471 397.145 72.7257 395.551Z" fill="#E6C92E"/>
<path d="M78.6657 401.598L79.946 402.805C80.667 403.504 81.4018 404.203 82.1338 404.888L83.1811 405.848C81.5704 404.353 79.9762 402.846 78.4066 401.31L78.6657 401.598Z" fill="#E6C92E"/>
<path d="M181.603 459.251L182.318 459.425L183.637 459.732L184.521 459.946L183.202 459.612L181.603 459.251Z" fill="#E6C92E"/>
<path d="M307.41 356.336C304.91 357.596 302.904 360.954 300.941 363.626C305.376 360.926 309.696 358.071 313.926 355.105C311.522 355.259 309.138 355.427 307.41 356.336Z" fill="#E6C92E"/>
<path d="M198.206 462.773L198.85 462.893L199.603 463.039L199.85 463.066L198.701 462.853L198.206 462.773Z" fill="#E6C92E"/>
<path d="M189.87 461.164C190.565 461.324 191.26 461.444 191.961 461.618L190.889 461.364L189.87 461.164Z" fill="#E6C92E"/>
<path d="M203.417 463.613C202.261 463.426 201.066 463.279 199.902 463.066C201.539 463.359 203.177 463.599 204.839 463.839L205.405 463.919C204.742 463.826 204.078 463.693 203.417 463.613Z" fill="#E6C92E"/>
<path d="M187.414 460.596C186.74 460.436 186.076 460.329 185.414 460.142C186.076 460.329 186.752 460.463 187.426 460.61L188.843 460.93L187.414 460.596Z" fill="#E6C92E"/>
<path d="M193.058 461.816L194.421 462.109C195.279 462.256 196.156 462.403 197.014 462.563L195.317 462.229C194.566 462.109 193.797 461.963 193.058 461.816Z" fill="#E6C92E"/>
<path d="M466.333 237.124V236.108L466.306 235.681L466.333 237.124Z" fill="#E6C92E"/>
<path d="M227.557 384.527C226.425 384.782 225.256 385.008 223.957 385.135C217.774 385.772 211.634 385.984 205.619 385.715C202.606 385.828 199.632 385.871 196.689 385.772C195.712 386.748 194.66 387.64 193.529 388.489C183.584 395.704 170.879 394.105 165.136 384.937C155.21 392.167 142.491 390.582 136.742 381.428L135.865 379.829L135.644 379.334L135.156 378.132L134.962 377.58L134.532 376.137L134.45 375.84L134.156 374.156L134.084 373.491L134 372.387L133.973 371.623L134 370.421L134.033 369.841C134.048 369.841 134.069 369.841 134.084 369.855C134.183 368.496 134.351 367.124 134.715 365.752L134.532 365.143L134.45 364.889L134.156 363.191L134.084 362.54L134 361.394L133.973 360.658L134 359.427C134.319 352.523 137.996 345.42 144.36 340.808C149.63 337.002 155.666 335.657 161.037 336.591C161.565 334.129 162.505 331.724 163.824 329.46C162.985 329.559 162.146 329.673 161.317 329.772L159.939 330.946C156.913 333.125 152.754 335.275 149.241 335.615C146.851 335.841 143.628 333.578 141.517 334.342C139.691 334.992 137.578 338.459 135.671 339.789C133.429 341.345 126.329 345.873 123.865 346.156C121.38 346.382 119.936 344.26 117.234 344.543C109.301 345.307 103.332 354.39 95.4719 354.263C91.4891 354.192 89.5479 350.74 85.2608 351.9C80.8295 353.117 77.796 356.696 72.7675 357.163C67.8381 357.616 63.8879 356.116 60.2701 353.768C57.1531 351.744 54.9742 349.424 51.3691 348.165C49.7986 347.613 48.2451 347.217 46.751 346.778C52.7472 353.159 59.1127 359.215 65.8248 364.874C95.7124 382.631 130.104 393.837 167.163 396.299C210.791 399.199 252.385 389.663 288.439 370.69C283.963 370.69 281.941 370.789 277.376 373.562C273.074 376.151 270.685 378.188 265.877 378.825C261.682 379.419 258.499 378.698 254.517 381.202C250.131 383.904 250.422 385.899 245.286 386.069C243.062 386.182 241.14 385.531 239.21 384.866C238.191 385.588 236.983 386.012 234.715 386.069C232.077 386.182 229.856 385.263 227.557 384.527Z" fill="#E6C92E"/>
<path d="M409.58 87.1923L409.047 86.5641L408.347 85.7946C406.962 84.2398 405.539 82.7008 404.097 81.1461L403.318 80.3294C401.853 78.8061 400.291 77.3612 398.783 75.8536C402.473 79.5442 406.078 83.3133 409.515 87.2238L409.58 87.1923Z" fill="#E6C92E"/>
<path d="M363.323 117.99C356.711 217.057 287.87 297.142 197.478 322.648C198.148 323.396 198.77 324.16 199.317 325.051C200.013 326.149 200.544 327.294 200.987 328.472C202.974 327.915 204.974 327.788 206.877 328.042H206.892L207.079 328.074L207.736 328.201L208.938 328.504L209.469 328.663L210.976 329.315L211.477 329.57L212.733 330.397L212.954 330.556L214.278 331.766L214.575 332.116L215.713 333.627C218.065 337.383 218.261 342.092 216.634 346.389C219.317 352.753 216.752 360.996 210.306 365.642C208.289 367.122 206.093 368.061 203.921 368.538C203.981 372.5 202.909 376.574 200.843 380.233C207.353 380.79 212.575 377.815 218.421 373.439C226.021 367.742 234.487 365.419 243.21 363.208C251.494 361.107 253.06 357.909 258.938 351.417C265.369 344.32 272.001 338.274 280.61 334.121C289.079 330.031 298.55 326.754 305.578 319.784C313.394 312.067 318.701 301.851 324.989 293.163C331.168 284.635 340.314 276.106 349.397 270.441C356.379 266.082 362.271 263.599 368.325 257.362C373.767 251.777 380.921 244.664 383.37 237.631C385.423 231.712 385.456 225.49 387.989 219.603L386.533 219.635C383.636 230.009 373.754 238.156 364.454 237.806L362.939 237.695L362.479 237.599L361.47 237.392L360.992 237.249L359.894 236.851L359.639 236.772L358.471 236.183L358.037 235.929L357.327 235.419L356.885 235.117L356.216 234.512L355.906 234.21C355.917 234.194 355.927 234.194 355.938 234.178C355.416 233.653 354.91 233.096 354.495 232.46L354.151 232.38L353.683 232.285L352.56 231.887L352.339 231.792L351.169 231.203L350.727 230.948L350 230.455L349.583 230.137L348.883 229.516C345.166 225.984 343.705 220.064 345.549 213.413C347.096 207.908 350.592 203.071 354.929 199.745C352.522 196.197 351.759 191.168 353.298 185.663C356.189 175.304 366.091 167.157 375.381 167.492C376.471 167.523 377.522 167.698 378.506 167.969C379.588 166.314 380.948 164.85 382.449 163.625L382.428 163.593L382.571 163.482L383.135 163.1L384.124 162.4L384.603 162.098L386.04 161.366L386.56 161.143L387.916 160.649L388.164 160.586L389.776 160.236L390.191 160.172L391.861 160.093C395.498 160.236 398.265 162.193 399.648 165.121C405.951 165.63 409.432 171.692 407.411 178.885C406.819 180.985 405.82 182.958 404.547 184.708L406.009 186.093C406.815 181.924 408.334 178.248 410.673 174.541C411.771 134.586 402.45 96.5724 385.13 63.237C389.151 66.6422 393.017 70.2224 396.792 73.8821C395.547 72.6728 394.362 71.4157 393.094 70.2382L392.211 69.4109C390.476 67.8357 388.716 66.2445 386.942 64.7169L386.915 64.7009C385.047 63.0938 383.149 61.5185 381.239 59.9751L380.557 59.4182C378.843 58.0497 377.115 56.7132 375.366 55.3925L374.646 54.8356C370.755 51.9396 366.766 49.1391 362.693 46.4818L361.771 45.8772C359.738 44.5565 357.717 43.2995 355.664 42.0583C355.677 42.1061 355.69 42.1697 355.702 42.2175C362.306 66.2285 365.075 91.7193 363.323 117.99Z" fill="#E6C92E"/>
<path d="M462.71 197.177L462.763 197.446L462.547 196.204L462.457 195.8L462.71 197.177Z" fill="#E6C92E"/>
<path d="M215.785 465.173L217.37 465.333C219.143 465.479 220.917 465.626 222.717 465.746C220.391 465.599 218.083 465.386 215.785 465.173Z" fill="#E6C92E"/>
<path d="M207.866 464.266C208.621 464.373 209.381 464.466 210.139 464.546C210.743 464.613 211.355 464.693 211.971 464.786C212.634 464.839 213.302 464.919 213.985 464.999C213.302 464.919 212.634 464.826 211.933 464.759C210.577 464.586 209.217 464.453 207.866 464.266Z" fill="#E6C92E"/>
<path d="M29.7367 331.865L29.7169 331.851C30.2413 333.024 30.7812 334.211 31.3338 335.37L31.5416 335.808L31.6957 336.133C31.0215 334.72 30.3855 333.292 29.7367 331.865Z" fill="#E6C92E"/>
<path d="M464.914 212.227L465.005 212.985L464.954 212.376L464.92 212.167L464.868 211.796L464.914 212.227Z" fill="#E6C92E"/>
<path d="M118.655 432.648L116.851 431.552L115.583 430.781L116.572 431.403C117.48 431.971 118.397 432.526 119.325 433.08C120.032 433.513 120.741 433.933 121.435 434.352C120.495 433.811 119.583 433.229 118.655 432.648Z" fill="#E6C92E"/>
<path d="M175.625 457.608C175.009 457.421 174.369 457.274 173.766 457.1C174.539 457.314 175.339 457.541 176.13 457.782L177.325 458.102C178.568 458.437 179.821 458.771 181.041 459.092L179.651 458.704C178.306 458.343 176.976 457.995 175.625 457.608Z" fill="#E6C92E"/>
<path d="M158.661 452.123C159.329 452.378 159.993 452.632 160.681 452.86L161.876 453.275L163.324 453.784C162.524 453.503 161.714 453.208 160.896 452.9C160.161 452.632 159.402 452.391 158.661 452.123Z" fill="#E6C92E"/>
<path d="M153.868 450.251C152.908 449.875 151.965 449.513 150.999 449.124L151.219 449.231C152.297 449.674 153.395 450.116 154.46 450.532L155.973 451.122L157.558 451.713L157.188 451.552C156.076 451.122 154.972 450.707 153.868 450.251Z" fill="#E6C92E"/>
<path d="M172.136 456.603L172.038 456.563L171.089 456.296L172.136 456.603Z" fill="#E6C92E"/>
<path d="M131.531 440.005L129.784 439.075L129.192 438.779L129.289 438.833C129.932 439.183 130.563 439.507 131.206 439.844C132.124 440.315 133.019 440.814 133.922 441.272L135.609 442.121C134.233 441.447 132.876 440.693 131.531 440.005Z" fill="#E6C92E"/>
<path d="M123.713 435.692C124.092 435.908 124.469 436.151 124.859 436.367C125.469 436.718 126.094 437.056 126.703 437.406C127.348 437.757 127.965 438.108 128.58 438.459C127.419 437.798 126.269 437.123 125.106 436.489C124.649 436.219 124.179 435.949 123.713 435.692Z" fill="#E6C92E"/>
<path d="M166.297 454.774L167.291 455.109C168.304 455.43 169.317 455.738 170.324 456.072C169.603 455.858 168.895 455.604 168.181 455.363C167.557 455.176 166.926 454.975 166.297 454.774Z" fill="#E6C92E"/>
<path d="M163.747 453.927L165.411 454.502L164.548 454.181L163.747 453.927Z" fill="#E6C92E"/>
<path d="M147.763 447.723C146.315 447.092 144.872 446.5 143.429 445.842L144.672 446.406L146.445 447.186C147.432 447.629 148.419 448.032 149.414 448.475L149.614 448.542C148.989 448.274 148.385 447.992 147.763 447.723Z" fill="#E6C92E"/>
<path d="M140 444.27L141.155 444.808L142.553 445.468C140.581 444.566 138.635 443.611 136.698 442.669C137.797 443.207 138.892 443.745 140 444.27Z" fill="#E6C92E"/>
<path d="M135.955 442.299C136.149 442.394 136.344 442.488 136.539 442.582L136.507 442.542L135.955 442.299Z" fill="#E6C92E"/>
<path d="M461.73 191.974L461.682 191.749L461.591 191.344L461.73 191.974Z" fill="#E2AF17"/>
<path d="M464.868 211.701L464.746 210.6L464.868 211.791V211.701Z" fill="#E2AF17"/>
<path d="M466.271 232.52L466.24 231.045L466.219 230.986L466.271 232.52Z" fill="#E2AF17"/>
<path d="M167.159 396.308C130.098 393.842 95.7081 382.654 65.8208 364.89C101.742 395.222 147.299 414.763 197.807 418.14C310.949 425.671 410.311 349.489 435.348 242.592L434.113 244.001C431.879 246.35 427.084 248.641 425.566 251.386C424.064 254.132 426.046 256.187 424.903 258.844C422.343 264.776 413.293 267.36 409.981 271.999C407.832 275.009 409.733 278.297 408.064 281.204C406.688 283.597 402.667 285.491 400.417 286.916C396.509 289.397 395.417 290.63 392.754 293.992C389.734 297.809 388.869 297.956 383.964 299.644C373.48 303.227 374.355 313.445 365.886 319.964C362.476 322.592 358.864 323.987 355.954 327.275C350.639 333.295 343.716 337.038 338.082 342.588C332.367 348.241 327.181 351.97 319.622 354.333C317.963 354.847 315.936 354.979 313.924 355.112C309.694 358.077 305.375 360.926 300.938 363.627C300.348 364.42 299.775 365.154 299.197 365.741C295.398 369.617 293.565 370.747 288.9 370.689H288.434C252.38 389.672 210.787 399.2 167.159 396.308Z" fill="#E2AF17"/>
<path d="M160.904 452.884C161.723 453.178 162.533 453.486 163.334 453.767L163.754 453.915L164.555 454.169C163.334 453.767 162.12 453.326 160.904 452.884Z" fill="#E2AF17"/>
<path d="M207.079 464.16L207.866 464.266C209.217 464.453 210.577 464.586 211.933 464.76C210.307 464.56 208.69 464.373 207.079 464.16Z" fill="#E2AF17"/>
<path d="M410.67 174.542C411.619 173.059 412.671 171.559 413.898 169.997C422.628 158.871 412.555 152.968 417.379 142.126C419.843 136.65 424.266 132.752 422.33 127.228C421.044 123.582 417.505 122.036 416.405 118.169C415.288 114.271 416.405 109.458 415.036 105.638C413.457 101.314 403.518 96.99 404.348 92.0187L404.81 90.8193C405.699 89.3358 407.629 87.9943 409.515 87.2368C406.076 83.3071 402.472 79.5353 398.782 75.8581C398.119 75.1953 397.458 74.5482 396.789 73.9011C393.015 70.2239 389.147 66.6572 385.127 63.2484C402.446 96.5797 411.767 134.582 410.67 174.542Z" fill="#E2AF17"/>
<path d="M462.938 198.471L462.763 197.454L462.711 197.169L462.938 198.471Z" fill="#E2AF17"/>
<path d="M172.034 456.578C170.754 456.19 169.455 455.776 168.183 455.361C168.897 455.602 169.605 455.856 170.326 456.07L170.878 456.244L171.086 456.298L172.034 456.578Z" fill="#E2AF17"/>
<path d="M183.199 459.621L184.518 459.955L185.408 460.155C186.071 460.342 186.734 460.449 187.408 460.609C186.005 460.275 184.589 459.955 183.199 459.621Z" fill="#E2AF17"/>
<path d="M195.316 462.24C193.834 461.96 192.353 461.666 190.891 461.36L191.964 461.6L192.924 461.8L193.055 461.827C193.795 461.973 194.564 462.107 195.316 462.24Z" fill="#E2AF17"/>
<path d="M198.701 462.853L199.85 463.066H199.902C201.066 463.279 202.261 463.426 203.417 463.613C201.838 463.386 200.259 463.119 198.701 462.853Z" fill="#E2AF17"/>
<path d="M466.152 246.473L466.192 245.417C466.18 245.857 466.167 246.297 466.14 246.737L466.152 246.473Z" fill="#E2AF17"/>
<path d="M215.758 465.159L215.785 465.173C218.083 465.386 220.391 465.599 222.717 465.746C220.001 465.573 217.299 465.333 214.615 465.039L215.758 465.159Z" fill="#E2AF17"/>
<path d="M197.811 418.129C147.303 414.755 101.748 395.2 65.8251 364.879C59.1144 359.21 52.7471 353.152 46.7517 346.778C44.7452 346.193 42.8348 345.489 41.0802 344.214C37.5802 341.65 35.7672 337.871 33.0724 334.646C32.0317 333.447 30.928 332.592 29.7388 331.857C30.3896 333.297 31.0254 334.722 31.6987 336.116L31.8247 336.386L32.0722 336.941L32.4725 337.721C33.4158 339.67 34.383 341.575 35.3892 343.494L35.5332 343.809L35.6187 343.974L36.0461 344.739C37.0013 346.523 37.9641 348.323 38.9748 350.077L39.1322 350.377L39.5746 351.157L39.6061 351.202C40.6723 353.077 41.7701 354.936 42.9008 356.751L43.718 358.115C44.8487 359.93 46.0124 361.729 47.1821 363.514L47.434 363.889L47.9994 364.743L48.1478 364.938C49.3175 366.723 50.5322 368.462 51.7589 370.187L52.7471 371.567C54.0202 373.321 55.2889 375.031 56.6056 376.74L56.6716 376.83L57.2819 377.625L57.5098 377.91C58.8745 379.664 60.2706 381.434 61.6997 383.174L61.9202 383.429L62.2921 383.863C63.6822 385.513 65.0724 387.163 66.494 388.767L66.8118 389.127L67.2017 389.577C68.6953 391.257 70.21 392.891 71.7426 394.526L71.918 394.735L72.5793 395.41L72.7232 395.56C74.2453 397.15 75.7705 398.709 77.3226 400.254L77.7964 400.719L78.1293 401.064L78.4083 401.304C79.9783 402.833 81.5724 404.348 83.1815 405.848L84.0213 406.642L84.2207 406.807C84.3962 406.957 84.5777 407.122 84.7546 407.272C86.2422 408.607 87.7448 409.956 89.2759 411.276L90.1007 411.981C91.3138 413.001 92.5435 414.005 93.7657 415.01L94.0056 415.205L95.4722 416.42L95.8366 416.705C96.8819 417.529 97.9541 418.339 99.0323 419.164L99.9485 419.854L101.39 420.978L101.847 421.323L101.964 421.398L102.184 421.578C103.027 422.178 103.871 422.778 104.717 423.378L106.049 424.338L107.788 425.582L107.926 425.672L108.835 426.302C109.453 426.722 110.057 427.142 110.674 427.532L112.284 428.612C113.018 429.076 113.76 429.601 114.499 430.051L115.265 430.576L115.585 430.771L116.852 431.551L118.656 432.645C119.584 433.23 120.496 433.815 121.436 434.355L121.445 434.37L122.419 434.925L123.231 435.405C123.393 435.495 123.555 435.6 123.714 435.69C124.179 435.945 124.65 436.214 125.107 436.484C126.271 437.129 127.421 437.804 128.582 438.464L129.194 438.779L129.786 439.079L131.533 439.993C132.877 440.698 134.234 441.433 135.612 442.123L135.672 442.138L135.957 442.303L136.509 442.543L136.542 442.573V442.588C136.593 442.603 136.651 442.633 136.702 442.663C138.64 443.608 140.585 444.567 142.557 445.452L143.426 445.842C144.869 446.502 146.312 447.102 147.759 447.731C148.383 447.986 148.987 448.271 149.611 448.541C149.729 448.601 149.842 448.646 149.963 448.706L151.002 449.111C151.968 449.501 152.911 449.876 153.871 450.251C154.975 450.701 156.08 451.12 157.191 451.54L157.563 451.705L158.667 452.11C159.408 452.38 160.168 452.62 160.901 452.89C162.117 453.325 163.331 453.775 164.551 454.165L165.415 454.495L165.884 454.645L166.3 454.764C166.93 454.974 167.559 455.169 168.183 455.364C169.456 455.769 170.755 456.189 172.036 456.579L172.133 456.609H172.139L173.439 457.014L173.762 457.104C174.366 457.269 175.005 457.434 175.623 457.614C176.972 458.004 178.304 458.349 179.648 458.709L181.038 459.098L181.603 459.248L183.202 459.608C184.593 459.953 186.009 460.268 187.411 460.598L188.842 460.943L188.99 460.973L189.875 461.153L190.893 461.363C192.355 461.663 193.835 461.963 195.317 462.233L197.013 462.562L198.208 462.772L198.702 462.862C200.261 463.117 201.84 463.387 203.418 463.612C204.079 463.702 204.744 463.822 205.406 463.912L205.633 463.972L206.569 464.077L206.608 464.092C206.764 464.122 206.923 464.137 207.081 464.152C208.692 464.362 210.309 464.557 211.934 464.752C212.636 464.827 213.303 464.917 213.987 464.992L214.617 465.037C217.301 465.337 220.002 465.577 222.718 465.742C225.038 465.892 227.362 465.981 229.689 466.086C230.39 466.116 231.111 466.146 231.82 466.146C233.494 466.191 235.178 466.221 236.866 466.221C237.672 466.251 238.432 466.251 239.237 466.251C240.134 466.251 241.044 466.221 241.947 466.191C242.94 466.191 243.94 466.161 244.928 466.146C245.83 466.116 246.734 466.071 247.637 466.041C248.619 465.981 249.606 465.967 250.58 465.922C251.489 465.847 252.384 465.802 253.289 465.742C254.269 465.667 255.237 465.607 256.211 465.532C257.11 465.457 258.012 465.367 258.909 465.292C259.882 465.217 260.844 465.127 261.803 465.007C262.714 464.917 263.598 464.827 264.501 464.722C265.456 464.587 266.404 464.497 267.346 464.362C268.249 464.242 269.165 464.137 270.05 464.017C270.984 463.882 271.914 463.732 272.861 463.597C273.757 463.462 274.653 463.327 275.537 463.177L275.759 463.132L275.478 462.967C273.245 461.648 272.109 459.368 270.407 457.554C268.958 455.964 267.197 455.649 265.23 454.75C260.752 452.695 259.53 446.397 256.187 443.023C254.458 441.268 252.62 440.473 252.924 437.159C253.062 435.69 254.776 433.08 256.406 432.181L257.212 431.881L257.751 431.866C257.768 431.881 257.781 431.911 257.796 431.926C260.695 432.21 262.442 437.834 264.889 438.809C267.178 439.679 270.36 438.974 272.744 439.709C275.115 440.428 275.759 442.693 277.98 443.547C281.321 444.822 284.242 441.988 287.983 440.398C295.396 437.309 298.184 443.832 306.141 438.224C309.74 435.69 312.851 434.13 316.314 433.335C315.177 432.51 314.169 431.476 313.352 430.186C306.674 435.06 298.112 433.995 294.247 427.817L293.409 426.197L293.245 425.792C292.811 424.668 292.53 423.483 292.421 422.253L292.388 421.893C292.37 421.278 292.358 420.649 292.401 419.989C292.445 420.019 292.491 420.019 292.535 420.049C292.869 415.49 295.196 410.886 299.365 407.872C302.918 405.278 306.979 404.378 310.603 405.008C311.409 401.184 313.721 397.45 317.254 394.871C323.96 390.012 332.515 391.092 336.38 397.27C336.834 397.975 337.197 398.755 337.484 399.549C338.836 399.174 340.18 399.114 341.473 399.279L341.486 399.264L341.557 399.279L343.221 399.684L343.292 399.699L344.676 400.359L345.046 400.599L346.013 401.364L346.357 401.694L347.404 403.013C350.158 407.392 348.528 413.765 343.773 417.215C342.414 418.189 340.94 418.819 339.478 419.134C339.484 420.139 339.375 421.158 339.175 422.178L339.291 422.103C343.688 419.974 348.021 420.124 352.387 418.699C357.109 417.124 362.363 412.551 366.475 409.057C371.057 405.158 373.233 401.349 376.695 396.88C381.203 391.046 387.549 385.138 393.605 381.194C399.776 377.16 406.822 373.756 412.533 368.747C417.69 364.219 420.699 358.115 424.148 352.657C427.643 347.138 432.159 342.864 437.33 338.755C442.052 334.961 444.26 333.972 446.411 328.633C448.106 324.449 449.816 320.34 452.393 316.516L452.497 316.261C452.815 315.347 453.14 314.477 453.445 313.577C453.757 312.722 454.037 311.868 454.335 311.028C454.628 310.128 454.926 309.243 455.219 308.344C455.492 307.474 455.771 306.604 456.044 305.719C456.309 304.85 456.597 303.935 456.849 303.065C457.123 302.165 457.377 301.28 457.63 300.381C457.882 299.481 458.131 298.596 458.369 297.711C458.623 296.797 458.864 295.867 459.097 294.967C459.331 294.067 459.553 293.198 459.761 292.313C460.008 291.383 460.214 290.438 460.43 289.494C460.643 288.624 460.845 287.739 461.033 286.854C461.235 285.895 461.436 284.935 461.625 283.945C461.812 283.075 461.988 282.22 462.163 281.336C462.372 280.361 462.526 279.341 462.703 278.367C462.864 277.482 463.029 276.612 463.177 275.772C463.339 274.738 463.502 273.688 463.67 272.638C463.775 271.813 463.918 270.974 464.027 270.149C464.191 269.039 464.333 267.944 464.464 266.805C464.581 266.04 464.686 265.26 464.776 264.495C464.912 263.251 465.041 261.976 465.164 260.731C465.224 260.086 465.302 259.427 465.38 258.782C465.548 256.862 465.686 254.943 465.828 253.008C465.938 251.209 466.035 249.364 466.113 247.565L466.139 246.74C466.166 246.305 466.179 245.855 466.19 245.42C466.197 245.27 466.205 245.135 466.211 244.986L466.244 244.191C466.256 243.501 466.275 242.796 466.281 242.106C466.295 241.386 466.295 240.682 466.307 239.977V239.932L466.334 238.627V237.128L466.307 235.688L466.295 234.428C466.295 233.798 466.281 233.154 466.275 232.509L466.224 230.979C466.211 230.319 466.197 229.66 466.172 229L466.152 228.685V228.355C466.113 227.605 466.08 226.855 466.035 226.121L465.945 224.456L465.906 223.616C465.858 222.851 465.807 222.042 465.743 221.292L465.633 219.702L465.534 218.488V218.383L465.456 217.573L465.341 216.388C465.238 215.338 465.151 214.289 465.028 213.239L465.002 212.999L464.912 212.234L464.866 211.799L464.743 210.6C464.626 209.73 464.528 208.89 464.405 208.02C464.302 207.136 464.177 206.281 464.068 205.411L464.008 205.051V205.036L463.942 204.556L463.865 204.076L463.684 202.847C463.522 201.962 463.39 201.062 463.249 200.177L462.943 198.468L462.717 197.163L462.463 195.784L462.321 194.989C462.208 194.359 462.073 193.714 461.949 193.084L461.73 191.975L461.591 191.345C458.383 195.169 454.343 198.753 453.251 203.477C452.639 206.116 454.544 207.825 453.953 210.225C453.367 212.639 447.931 219.102 446.092 221.097C444.533 222.821 440.798 224.456 439.914 226.18C438.894 228.175 440.694 231.654 440.155 234.008C439.492 236.888 437.492 240.037 435.355 242.586C410.318 349.478 310.954 425.672 197.811 418.129Z" fill="#A54C1D"/>
<path d="M409.595 87.1815H409.581L409.516 87.2285C407.632 87.9948 405.702 89.3241 404.812 90.8098L404.351 92.0139C403.52 96.9872 413.461 101.304 415.039 105.636C416.409 109.452 415.292 114.268 416.409 118.162C417.508 122.025 421.046 123.574 422.333 127.218C424.269 132.738 419.846 136.648 417.381 142.122C412.557 152.959 422.631 158.871 413.9 169.99C412.674 171.554 411.622 173.04 410.672 174.541C408.334 178.248 406.814 181.923 406.009 186.083C409.196 189.664 410.361 195.263 408.619 201.472C405.877 211.293 396.836 219.128 387.989 219.598C385.456 225.493 385.421 231.702 383.37 237.629C380.92 244.667 373.767 251.767 368.325 257.366C362.269 263.59 356.378 266.077 349.395 270.44C340.314 276.101 331.168 284.625 324.989 293.164C318.7 301.843 313.394 312.071 305.578 319.781C298.551 326.756 289.078 330.025 280.608 334.122C272.001 338.282 265.37 344.319 258.937 351.419C253.06 357.909 251.493 361.1 243.211 363.211C234.486 365.416 226.02 367.746 218.421 373.439C212.575 377.818 207.353 380.789 200.843 380.226L200.317 381.165C203.882 380.351 207.346 379.867 211.027 380.226C217.739 380.914 223.014 377.912 228.99 373.439C236.591 367.746 245.042 365.416 253.773 363.211C262.056 361.1 263.623 357.909 269.494 351.419C275.932 344.319 282.582 338.282 291.158 334.122C299.647 330.025 309.106 326.756 316.161 319.781C323.957 312.071 329.269 301.843 335.547 293.164C341.724 284.625 350.868 276.101 359.97 270.44C366.953 266.077 372.826 263.59 378.887 257.366C384.325 251.767 391.497 244.667 393.94 237.629C396.187 231.155 395.971 224.336 399.278 217.987C402.577 211.684 409.997 210.089 413.727 204.084C416.404 199.798 415.603 193.762 416.065 189.43C416.817 182.017 419.404 176.449 424.45 169.99C433.182 158.871 423.132 152.959 427.958 142.122C430.409 136.648 434.831 132.738 432.895 127.218C431.604 123.574 428.071 122.025 426.965 118.162C425.848 114.268 426.965 109.452 425.606 105.636C424.134 101.585 415.434 97.5345 414.989 92.9523C414.954 92.921 414.914 92.8898 414.882 92.8585L414.909 92.0139L415.369 90.8098C415.869 89.9653 416.728 89.1676 417.714 88.4951C416.487 87.4317 414.948 86.6967 412.569 86.556C411.743 86.5247 410.686 86.7437 409.595 87.1815Z" fill="#A54C1D"/>
<path d="M205.619 385.707C202.854 385.582 200.118 385.334 197.428 384.988L196.688 385.776C199.631 385.872 202.606 385.831 205.619 385.707Z" fill="#A54C1D"/>
<path d="M234.711 386.088C236.98 386.019 238.187 385.591 239.205 384.886C237.954 384.458 236.673 384.044 235.323 383.836L233.646 383.684H233.49L232.016 383.74C230.503 383.864 229.073 384.196 227.552 384.527C229.852 385.273 232.074 386.199 234.711 386.088Z" fill="#A54C1D"/>
<path d="M425.611 105.619C426.97 109.44 425.855 114.245 426.97 118.161C428.076 122.014 431.61 123.558 432.901 127.209C434.837 132.731 430.415 136.631 427.964 142.106C423.137 152.948 433.188 158.845 424.457 169.983C419.409 176.441 416.823 182.01 416.071 189.42C415.609 193.757 416.409 199.779 413.732 204.084C410.002 210.074 402.583 211.665 399.284 217.983C395.978 224.332 396.194 231.15 393.946 237.623C391.503 244.659 384.33 251.757 378.893 257.357C372.833 263.581 366.96 266.062 359.976 270.43C350.875 276.092 341.73 284.61 335.551 293.143C329.275 301.832 323.962 312.065 316.167 319.772C309.111 326.745 299.653 330.021 291.164 334.108C282.587 338.273 275.937 344.31 269.5 351.408C263.627 357.897 262.061 361.095 253.779 363.201C245.048 365.416 236.596 367.725 228.996 373.419C223.019 377.896 217.745 380.907 211.033 380.221C207.351 379.862 203.888 380.33 200.322 381.157C199.482 382.498 198.536 383.777 197.431 384.978C200.121 385.337 202.857 385.587 205.623 385.696C211.636 385.977 217.776 385.758 223.962 385.134C225.259 384.994 226.428 384.76 227.559 384.51C229.081 384.183 230.51 383.855 232.024 383.731H232.011C233.192 382.841 234.204 381.64 236.479 380.205C240.472 377.725 243.644 378.458 247.854 377.881C252.654 377.21 255.038 375.198 259.339 372.592C264.068 369.738 266.05 369.706 270.889 369.738C275.533 369.753 277.384 368.63 281.172 364.793C283.726 362.187 286.136 357.008 289.39 355.339C292.554 353.732 297.996 354.497 301.589 353.358C309.164 350.987 314.342 347.274 320.057 341.611C325.697 336.042 332.623 332.314 337.921 326.308C340.852 323.016 344.459 321.612 347.861 318.976C356.325 312.455 355.456 302.269 365.933 298.681C370.856 296.981 371.721 296.809 374.749 293.003C377.38 289.664 378.485 288.416 382.388 285.936C384.654 284.501 388.651 282.644 390.053 280.226C391.709 277.309 389.821 274.049 391.944 271.022C395.276 266.374 404.332 263.8 406.89 257.872C408.028 255.204 406.054 253.145 407.555 250.415C409.068 247.654 413.849 245.377 416.083 243.005C418.635 240.291 421.353 236.485 422.131 233.053C422.677 230.713 420.858 227.203 421.891 225.206C422.782 223.49 426.51 221.852 428.076 220.121C429.901 218.124 435.344 211.665 435.921 209.279C436.506 206.861 434.597 205.145 435.227 202.493C437.04 194.74 446.849 190.029 447.751 182.213C448.206 178.251 445.043 175.88 446.765 171.793C448.565 167.549 452.501 165.022 453.624 160.077C454.735 155.257 453.774 151.154 451.922 147.254C450.351 143.885 448.317 141.436 447.545 137.707C446.777 133.916 446.829 130.329 445.011 126.975C442.932 123.184 439.442 120.875 436.584 117.755C434.182 115.134 433.7 112.311 432.31 109.004C429.271 101.875 420.328 98.4427 414.994 92.936C415.44 97.5223 424.14 101.578 425.611 105.619Z" fill="#E6EE4C"/>
<path d="M469.947 148.232C468.367 144.885 466.34 142.398 465.58 138.661C464.808 134.892 464.859 131.311 463.041 127.964C460.95 124.132 457.461 121.834 454.622 118.737C452.212 116.094 451.718 113.295 450.33 109.979C447.131 102.457 437.401 99.0947 432.204 93.0581C429.495 89.9147 428.254 86.8495 423.129 86.568L421.565 86.74C420.309 87.0528 418.919 87.6628 417.712 88.5073C416.725 89.1798 415.866 89.9617 415.366 90.8218L414.906 92.0103L414.88 92.8549C414.912 92.8861 414.951 92.9174 414.986 92.9486C420.32 98.4535 429.262 101.894 432.301 109.025C433.691 112.325 434.173 115.14 436.575 117.783C439.434 120.895 442.923 123.194 445.003 126.994C446.82 130.357 446.769 133.938 447.535 137.722C448.307 141.46 450.342 143.916 451.912 147.278C453.765 151.172 454.726 155.269 453.615 160.102C452.491 165.028 448.556 167.561 446.756 171.815C445.034 175.897 448.196 178.274 447.743 182.231C446.841 190.034 437.03 194.757 435.218 202.514C434.588 205.157 436.499 206.877 435.912 209.301C435.335 211.678 429.893 218.153 428.068 220.139C426.501 221.875 422.772 223.517 421.883 225.222C420.85 227.223 422.669 230.726 422.122 233.072C421.343 236.497 418.626 240.313 416.074 243.019C413.841 245.396 409.06 247.679 407.546 250.431C406.045 253.168 408.019 255.233 406.882 257.876C404.323 263.818 395.267 266.383 391.936 271.043C389.812 274.062 391.701 277.33 390.045 280.239C388.642 282.663 384.647 284.524 382.379 285.963C378.475 288.434 377.371 289.669 374.739 293.016C371.713 296.832 370.848 297.004 365.925 298.693C355.447 302.274 356.317 312.471 347.853 318.992C344.45 321.635 340.844 323.027 337.913 326.326C332.615 332.332 325.688 336.069 320.049 341.621C314.333 347.283 309.156 351.004 301.581 353.366C297.989 354.523 292.547 353.741 289.383 355.368C286.128 357.025 283.718 362.202 281.163 364.798C277.377 368.645 275.525 369.771 270.882 369.755C266.042 369.724 264.06 369.755 259.33 372.602C255.031 375.213 252.647 377.231 247.846 377.888C243.636 378.482 240.465 377.731 236.47 380.218C234.197 381.657 233.185 382.861 232.002 383.737H232.017L233.49 383.69H233.646L235.323 383.83C236.674 384.049 237.953 384.472 239.206 384.878C241.134 385.551 243.059 386.192 245.281 386.082C250.419 385.91 250.126 383.924 254.511 381.203C258.493 378.701 261.677 379.42 265.871 378.842C270.68 378.2 273.07 376.167 277.371 373.571C281.937 370.788 283.958 370.694 288.435 370.694H288.901C293.565 370.741 295.399 369.615 299.198 365.736C299.776 365.158 300.349 364.423 300.938 363.625C302.901 360.951 304.907 357.604 307.408 356.337C309.136 355.43 311.519 355.258 313.923 355.102C315.937 354.977 317.964 354.852 319.622 354.336C327.182 351.958 332.366 348.236 338.082 342.591C343.715 337.023 350.64 333.301 355.954 327.28C358.864 323.981 362.475 322.604 365.886 319.962C374.356 313.44 373.479 303.228 383.965 299.647C388.869 297.958 389.734 297.801 392.754 293.985C395.417 290.639 396.509 289.388 400.418 286.917C402.667 285.493 406.688 283.601 408.064 281.193C409.734 278.3 407.831 275.016 409.981 271.997C413.294 267.353 422.344 264.772 424.904 258.845C426.046 256.186 424.064 254.122 425.567 251.385C427.084 248.649 431.879 246.35 434.114 243.988L435.349 242.596C437.485 240.047 439.486 236.888 440.149 234.026C440.688 231.665 438.888 228.177 439.908 226.191C440.793 224.471 444.528 222.829 446.087 221.109C447.924 219.107 453.36 212.664 453.947 210.24C454.538 207.831 452.635 206.127 453.245 203.484C454.336 198.761 458.377 195.179 461.585 191.348C463.679 188.861 465.424 186.265 465.784 183.2C466.237 179.244 463.067 176.866 464.8 172.753C465.144 171.909 465.615 171.158 466.087 170.423C468.048 167.436 470.74 164.997 471.655 161.04C472.759 156.239 471.786 152.126 469.947 148.232Z" fill="#DFBD4A"/>
<path d="M446.411 328.628C444.26 333.972 442.052 334.966 437.33 338.755C432.158 342.875 427.642 347.139 424.147 352.656C420.699 358.115 417.69 364.209 412.532 368.746C406.822 373.759 399.775 377.159 393.604 381.193C387.548 385.14 381.203 391.046 376.694 396.88C373.231 401.345 371.056 405.148 366.475 409.052C362.364 412.538 357.108 417.133 352.386 418.704C348.02 420.115 343.687 419.986 339.289 422.103L339.174 422.19C338.4 426.108 336.114 429.925 332.467 432.561C327.169 436.422 320.705 436.523 316.313 433.339C312.851 434.132 309.74 435.702 306.139 438.223C298.184 443.826 295.395 437.301 287.984 440.398C284.241 441.982 281.32 444.82 277.979 443.553C275.758 442.703 275.116 440.427 272.744 439.706C270.359 438.972 267.177 439.692 264.889 438.813C262.442 437.848 260.694 432.216 257.796 431.928C260.801 435.37 262.129 441.161 266.39 443.135C268.365 444.028 270.105 444.359 271.562 445.915C273.276 447.759 274.394 449.992 276.622 451.36C278.603 452.541 280.896 452.513 283.236 453.017C285.546 453.535 286.925 454.846 288.917 455.869C291.245 457.05 293.772 457.698 296.962 456.993C300.209 456.272 302.223 453.737 305.107 452.599C307.887 451.49 309.109 453.55 311.693 453.262C316.767 452.7 320.731 446.376 325.882 445.224C327.63 444.82 328.533 446.074 330.13 445.699C331.748 445.324 336.387 441.824 337.854 440.657C339.128 439.649 340.518 437.257 341.706 436.681C343.082 436.019 345.149 437.214 346.689 436.854C348.955 436.35 351.678 434.621 353.658 432.979C355.38 431.553 357.317 428.456 359.232 427.505C361.13 426.54 362.253 427.793 364.039 427.073C368.092 425.445 370.646 419.64 373.934 417.494C376.064 416.111 377.986 417.335 379.987 416.284C381.69 415.376 383.267 412.798 384.411 411.343C386.38 408.851 387.283 408.159 389.666 406.459C392.414 404.514 392.596 403.938 394.161 400.784C397.489 394.028 403.912 394.633 408.927 389.187C410.942 386.983 412.182 384.693 414.568 382.791C418.938 379.377 422.011 374.926 426.124 371.311C430.301 367.637 433.178 364.31 435.431 359.426C436.503 357.107 436.542 353.607 437.894 351.561C439.277 349.501 442.816 347.945 444.729 346.303C447.567 343.869 448.469 342.659 448.911 339.677C449.372 336.551 449.58 335.283 451.866 332.244C453.957 329.463 455.492 327.936 456.375 324.854C457.148 322.131 457 320.086 458.979 317.536C460.11 316.052 460.999 315.404 461.669 314.655C462.078 312.955 462.863 311.428 463.351 309.455C465.254 301.95 466.244 294.516 465.763 287.645C463.865 292.601 461.715 296.605 461.494 301.114C461.254 305.436 458.829 308.835 455.368 312.681C454.257 313.935 453.296 315.202 452.413 316.499L452.393 316.513C449.815 320.345 448.106 324.45 446.411 328.628Z" fill="#E9EB6E"/>
<path d="M461.478 315.728L461.505 315.543L461.66 314.674L461.666 314.66C460.997 315.4 460.108 316.055 458.977 317.536C456.997 320.085 457.145 322.135 456.372 324.855C455.489 327.945 453.955 329.469 451.863 332.245C449.576 335.278 449.369 336.56 448.909 339.678C448.466 342.669 447.565 343.865 444.727 346.3C442.814 347.952 439.276 349.504 437.892 351.568C436.539 353.605 436.501 357.108 435.43 359.443C433.176 364.313 430.298 367.631 426.121 371.319C422.009 374.921 418.936 379.392 414.565 382.796C412.179 384.689 410.939 386.982 408.924 389.189C403.911 394.643 397.486 394.03 394.159 400.78C392.593 403.941 392.412 404.511 389.664 406.462C387.282 408.156 386.378 408.854 384.408 411.36C383.265 412.798 381.687 415.39 379.985 416.287C377.983 417.341 376.062 416.116 373.932 417.497C370.644 419.633 368.091 425.443 364.037 427.08C362.25 427.807 361.128 426.539 359.23 427.507C357.315 428.462 355.378 431.552 353.655 432.976C351.676 434.627 348.953 436.35 346.688 436.863C345.146 437.219 343.08 436.023 341.704 436.678C340.515 437.262 339.125 439.654 337.852 440.665C336.384 441.832 331.745 445.335 330.127 445.691C328.53 446.076 327.628 444.823 325.88 445.221C320.729 446.375 316.765 452.697 311.692 453.267C309.106 453.566 307.885 451.501 305.106 452.597C302.221 453.737 300.207 456.271 296.959 456.997C293.77 457.709 291.242 457.054 288.915 455.873C286.922 454.847 285.545 453.537 283.233 453.025C280.894 452.526 278.6 452.555 276.62 451.359C274.391 450.006 273.275 447.756 271.56 445.919C270.104 444.367 268.364 444.039 266.387 443.142C262.128 441.177 260.798 435.382 257.794 431.936C257.778 431.907 257.765 431.893 257.75 431.865L257.208 431.879L256.404 432.178C254.774 433.089 253.061 435.695 252.921 437.162C252.618 440.48 254.456 441.277 256.185 443.029C259.528 446.403 260.748 452.697 265.227 454.762C267.195 455.659 268.956 455.972 270.404 457.553C272.106 459.375 273.242 461.654 275.476 462.978L275.755 463.135V463.149C277.666 464.16 279.842 464.174 282.071 464.644C284.389 465.157 285.78 466.467 287.774 467.506C289.892 468.603 292.211 469.201 295.043 468.759L295.803 468.617L297.005 468.261C299.577 467.278 301.435 465.214 303.95 464.231C306.189 463.363 307.43 464.473 309.166 464.801L310.522 464.872C312.238 464.687 313.836 463.847 315.388 462.75C318.421 460.628 321.306 457.638 324.729 456.841C326.471 456.456 327.375 457.709 328.991 457.325C330.583 456.955 335.235 453.48 336.703 452.284C337.956 451.273 339.372 448.881 340.548 448.311C341.932 447.642 343.965 448.838 345.536 448.497C347.808 447.984 350.525 446.247 352.499 444.595C354.235 443.185 356.164 440.109 358.075 439.127C359.97 438.159 361.087 439.44 362.894 438.728C366.941 437.091 369.474 431.253 372.776 429.131C374.906 427.764 376.836 428.988 378.842 427.906C380.518 427.038 382.117 424.446 383.252 423.008C385.214 420.473 386.117 419.775 388.508 418.081C391.249 416.13 391.437 415.589 393.003 412.399C396.322 405.664 402.76 406.262 407.775 400.809C409.789 398.616 411.017 396.295 413.421 394.429C417.78 391.012 420.853 386.569 424.971 382.938C426.953 381.187 428.622 379.521 430.096 377.726C430.45 377.299 430.772 376.815 431.104 376.374C432.283 374.765 433.352 373.056 434.273 371.062C435.351 368.741 435.397 365.238 436.748 363.216C437.989 361.322 440.976 359.884 442.945 358.418L443.576 357.934C446.413 355.499 447.317 354.302 447.751 351.284C447.875 350.5 447.96 349.845 448.083 349.233C448.442 347.439 449 346.157 450.721 343.865L451.073 343.409C452.975 340.917 454.391 339.379 455.23 336.475C455.645 334.979 455.806 333.669 456.191 332.374C456.399 331.633 456.691 330.893 457.158 330.152L457.821 329.155C460.006 326.322 461.252 326.521 461.868 323.203C462.187 321.566 461.835 320.17 461.6 318.761C461.505 318.106 461.401 317.479 461.401 316.796L461.478 315.728Z" fill="#DFC36F"/>
<path d="M261.679 53.7557C263.866 56.1755 265.828 58.7406 267.589 61.4508C268.433 60.4668 269.38 59.5956 270.455 58.789C273.994 56.224 278.067 55.3366 281.691 55.9496C282.231 53.3685 283.485 50.8196 285.316 48.6417C245.204 6.13322 159.266 20.0876 92.2592 80.39C151.271 27.2826 227.125 15.3448 261.679 53.7557Z" fill="#E8EF5B"/>
<path d="M289.863 87.1766C286.056 89.944 281.658 90.7883 277.853 89.8814C279.554 102.155 278.547 115.539 275.059 129.36C278.58 121.527 282.601 114.132 290.089 108.581C295.995 104.156 300.764 98.3244 304.654 91.8045C298.957 93.7589 292.928 92.0704 289.863 87.1766Z" fill="#E8EF5B"/>
<path d="M300.043 128.586C295.945 130.57 293.178 138.124 291.203 141.801C285.655 152.124 281.043 165.186 271.955 173.078C266.883 167.755 265.004 167.971 258.763 173.048C256.533 174.863 254.455 176.879 252.447 179.002C243.086 193.156 231.361 206.894 217.413 219.448C188.499 245.464 155.585 261.556 125.429 266.726C119.369 275.203 111.035 285.449 102.245 281.187C99.4915 279.849 96.4115 276.449 93.2946 276.172C88.2914 275.726 84.6913 280.526 81.8544 283.895C79.8205 286.28 77.6775 289.034 75.339 291.588C89.3638 295.988 105.241 297.172 122.084 295.234C127.444 291.988 130.12 285.772 136.24 283.587C142.975 281.126 149.7 282.264 156.409 280.88C163.698 279.387 171.688 273.249 177.959 268.603C184.942 263.418 188.194 257.91 193.431 251.572C200.245 243.31 209.931 235.372 219.199 230.387C228.639 225.31 239.481 221.402 248.166 214.679C256.015 208.633 260.489 199.679 265.687 191.817C270.949 183.879 277.814 178.094 285.708 172.648C287 171.74 288.189 170.986 289.248 170.278C296.205 156.155 301.065 141.97 303.682 128.263C302.468 128.216 301.299 127.97 300.043 128.586Z" fill="#E8EF5B"/>
<path d="M55.1089 252.839C52.574 250.801 50.1911 248.528 47.9823 246.098C13.4168 207.69 33.2557 133.508 92.2595 80.3958C24.61 141.284 1.88666 226.33 41.5063 270.366L41.8762 270.726C43.7731 267.904 45.8314 265.177 47.7173 262.621C50.1002 259.329 52.5631 256.069 55.1089 252.839Z" fill="#E8EF5B"/>
<path d="M225.842 207.199C218.096 212.429 213.998 202.301 206.678 203.612C201.929 204.471 196.854 210.56 193.419 213.635C187.059 219.272 181.662 225.918 175.638 231.872C171.482 236.016 166.655 241.382 161.555 244.336C156.643 247.185 154.715 244.351 149.85 242.919C140.8 240.221 134.845 254.012 130.258 260.011C128.894 261.774 127.255 264.185 125.429 266.733C155.586 261.548 188.5 245.451 217.414 219.453C231.361 206.883 243.087 193.152 252.449 179C243.595 188.42 236.318 200.146 225.842 207.199Z" fill="#E9F06A"/>
<path d="M47.9813 246.099C50.1885 248.527 52.5725 250.793 55.1076 252.851C64.1936 241.276 74.2924 230.248 85.7367 221.214C87.8748 219.542 90.1801 217.822 92.622 216.246C84.0102 213.707 76.4787 209.237 70.64 202.743C45.8769 175.221 60.0831 122.091 102.353 84.0396C144.629 46.0044 198.957 37.4521 223.713 64.9577C245.584 89.2481 237.035 133.537 205.628 169.755C208.824 172.794 212.203 175.671 217.048 175.141C228.975 173.903 229.989 153.133 241.252 152.313C245.669 151.992 248.762 156.702 252.875 157.586C259.642 159.033 263.812 152.201 266.717 147.137C270.069 141.301 272.426 135.193 275.051 129.373C278.539 115.564 279.546 102.173 277.845 89.8912C274.94 89.2 272.4 87.4958 270.743 84.8112L269.9 83.2198L269.749 82.8179C267.976 81.9016 266.45 80.5512 265.327 78.7668L264.496 77.127L264.333 76.7251L263.793 75.0212L263.78 75.005L263.507 73.2206L263.488 72.8188C263.255 68.8963 264.714 64.7326 267.587 61.4532C265.827 58.7525 263.864 56.1804 261.676 53.753C227.123 15.3481 151.269 27.2923 92.2586 80.4065C33.2543 133.521 13.4153 207.694 47.9813 246.099Z" fill="#E9F06A"/>
<path d="M136.237 220.306C141.12 218.818 145.57 215.099 149.599 210.666C141.406 214.028 133.246 216.364 125.36 217.643C128.543 219.934 131.883 221.615 136.237 220.306Z" fill="#E9F06A"/>
<path d="M223.721 64.9418C198.965 37.4289 144.636 45.9729 102.359 84.0223C60.0889 122.072 45.8845 175.217 70.6461 202.73C76.485 209.217 84.0168 213.681 92.6294 216.231C100.289 211.337 109.188 207.958 117.769 212.326C120.498 213.728 122.889 215.864 125.363 217.65C133.248 216.358 141.408 214.015 149.6 210.668C154.581 205.168 158.896 198.617 162.508 193.978C169.991 184.414 177.701 171.63 188.336 165.222C196.541 160.281 200.893 165.222 205.635 169.733C237.043 133.517 245.592 89.2347 223.721 64.9418Z" fill="#EBF077"/>
<path d="M57.7331 300.173C64.8912 301.27 70.5286 296.817 75.3373 291.583C77.6756 289.038 79.8199 286.286 81.8528 283.9C84.6906 280.528 88.2904 275.724 93.2931 276.169C96.4093 276.456 99.4905 279.86 102.244 281.196C111.033 285.459 119.368 275.199 125.428 266.737C127.253 264.192 128.891 261.774 130.254 260.008C134.842 254.011 140.796 240.22 149.847 242.924C154.713 244.371 156.641 247.203 161.553 244.34C166.653 241.397 171.479 236.02 175.635 231.884C181.659 225.919 187.056 219.286 193.416 213.639C196.852 210.569 201.926 204.477 206.674 203.618C213.995 202.298 218.094 212.43 225.839 207.213C236.315 200.15 243.591 188.427 252.445 179.01C254.454 176.878 256.532 174.858 258.76 173.045C265.004 167.971 266.881 167.764 271.953 173.077C281.041 165.187 285.654 152.127 291.201 141.804C293.176 138.129 295.943 130.573 300.042 128.585C301.297 127.98 302.466 128.219 303.68 128.267C304.292 128.283 304.908 128.267 305.563 128.012C313.633 125.069 318.01 109.481 320.597 102.418C322.752 96.4689 324.125 90.456 325.722 84.3795C328.899 72.1153 322.343 43.4033 321.231 42.8624C320.85 46.696 319.83 50.5296 318.927 54.061L318.81 54.5222C319.16 55.2062 319.428 55.9061 319.596 56.6538L319.706 56.6856L319.809 56.7173L321.168 57.3696L321.558 57.6082L322.506 58.3875L322.851 58.6898L323.909 60.0261C326.656 64.4164 325.032 70.7473 320.279 74.1991C318.914 75.1853 317.433 75.8375 315.971 76.1556C316.049 81.0549 313.534 86.2724 308.982 89.5651C307.591 90.5673 306.134 91.299 304.648 91.8239C300.758 98.3458 295.989 104.184 290.083 108.59C282.594 114.157 278.574 121.538 275.052 129.38C272.427 135.186 270.072 141.31 266.718 147.132C263.814 152.191 259.643 159.031 252.875 157.583C248.763 156.692 245.67 151.984 241.251 152.302C229.989 153.129 228.974 173.904 217.049 175.129C212.204 175.669 208.825 172.79 205.628 169.752C200.886 165.234 196.534 160.303 188.331 165.234C177.695 171.645 169.985 184.434 162.503 193.994C158.89 198.623 154.575 205.193 149.594 210.681C145.566 215.119 141.117 218.841 136.232 220.32C131.879 221.624 128.54 219.938 125.357 217.664C122.882 215.882 120.492 213.751 117.763 212.351C109.182 207.976 100.283 211.349 92.6234 216.248C90.1801 217.807 87.8752 219.541 85.7373 221.211C74.2923 230.246 64.1961 241.27 55.1085 252.834C52.5618 256.063 50.0994 259.324 47.7166 262.617C45.8316 265.178 43.7732 267.898 41.8755 270.729C39.4195 274.436 37.2705 278.317 36.3017 282.469L36.1395 296.339C35.9597 297.644 36.0488 298.71 36.3479 299.68C37.991 301.286 39.2127 303.227 41.2663 304.5C43.4551 303.37 44.8835 301.175 47.1789 300.109C51.0045 298.328 53.8805 299.584 57.7331 300.173Z" fill="#E6C92E"/>
<path d="M10.6131 292.055L11.8476 291.759L12.6914 291.837C12.7178 291.884 12.7427 291.915 12.7692 291.946C17.265 293.005 20.1308 302.158 23.9619 304.151C27.533 306.019 32.446 305.552 36.1681 307.171C39.8652 308.774 40.9097 312.479 44.3656 314.238C49.5884 316.916 54.0313 313.024 59.8067 311.343C71.1831 307.98 75.6975 318.753 87.8912 311.576C94.9461 307.42 100.81 305.598 108.268 305.816C112.629 305.941 118.474 307.529 123.104 305.443C129.542 302.547 132.123 295.402 138.794 292.989C145.528 290.545 152.259 291.666 158.964 290.281C166.257 288.802 174.262 282.653 180.523 277.998C187.496 272.83 190.769 267.319 195.998 260.983C202.812 252.702 212.471 244.778 221.755 239.797C231.206 234.706 242.042 230.814 250.721 224.089C258.554 218.049 263.044 209.083 268.24 201.221C273.496 193.267 280.375 187.491 288.269 182.058C295.466 177.092 298.85 175.972 302.039 168.032C305.386 159.673 308.807 151.594 315.461 144.837C320.703 139.498 324.38 134.672 324.595 127.916C324.738 123.137 326.284 118.887 328.147 114.326C328.634 108.878 328.706 103.491 328.258 98.2607C325.465 105.655 322.261 111.462 322.029 118.529C321.821 125.254 318.144 130.111 312.894 135.419C306.243 142.207 302.84 150.27 299.479 158.63C296.876 165.137 294.128 167.067 289.248 170.274C288.189 170.99 287 171.737 285.708 172.64C277.816 178.089 270.951 183.88 265.689 191.803C260.489 199.68 256.015 208.631 248.167 214.687C239.482 221.396 228.641 225.304 219.201 230.378C209.932 235.376 200.245 243.315 193.433 251.581C188.194 257.917 184.942 263.412 177.959 268.596C171.689 273.25 163.7 279.384 156.41 280.878C149.7 282.248 142.977 281.127 136.241 283.587C130.12 285.782 127.444 291.977 122.086 295.231L120.546 296.04C115.921 298.111 110.068 296.554 105.709 296.398C98.2495 296.196 92.3854 298.002 85.3304 302.174C73.143 309.335 68.63 298.578 57.2427 301.94C51.4782 303.622 47.0167 307.498 41.8064 304.851L41.2694 304.493C39.2161 303.217 37.9941 301.286 36.3502 299.667C35.5765 298.92 34.7281 298.235 33.6151 297.768C29.8945 296.134 24.9815 296.616 21.3964 294.748C18.954 293.487 16.9069 289.253 14.5812 286.062C13.0292 283.945 11.3277 282.295 9.29465 282.357L8.04769 282.637C6.89728 283.12 5.73596 284.209 4.79882 285.439C3.69979 286.887 2.89659 288.537 2.79852 289.751C2.52454 293.503 3.97846 295.402 5.86518 297.348C6.75406 295.262 8.70306 292.88 10.6131 292.055Z" fill="#E6C92E"/>
<path d="M330.812 107.65C329.924 110.007 328.999 112.209 328.149 114.319C326.285 118.878 324.74 123.128 324.596 127.905C324.382 134.667 320.706 139.506 315.464 144.826C308.809 151.588 305.388 159.668 302.042 168.028C298.852 175.969 295.468 177.085 288.272 182.048C280.377 187.492 273.497 193.262 268.243 201.218C263.047 209.081 258.557 218.046 250.723 224.095C242.044 230.81 231.207 234.703 221.758 239.79C212.474 244.769 202.814 252.694 196 260.976C190.771 267.319 187.497 272.825 180.526 277.99C174.265 282.643 166.26 288.785 158.966 290.273C152.261 291.669 145.53 290.553 138.796 292.988C132.125 295.392 129.545 302.541 123.107 305.442C118.475 307.52 112.63 305.938 108.27 305.814C100.812 305.597 94.9475 307.411 87.8938 311.568C75.6988 318.749 71.1855 307.97 59.8093 311.335C54.0336 313.026 49.5901 316.903 44.3681 314.236C40.911 312.483 39.8657 308.761 36.1698 307.163C32.4475 305.55 27.5357 306.016 23.9639 304.139C20.1315 302.154 17.2668 292.988 12.7706 291.948C17.5212 297.966 19.7297 307.272 26.4019 311.227C29.4868 313.057 32.2087 313.941 34.501 316.655C37.2089 319.865 39.0158 323.65 42.5349 326.209C45.615 328.473 49.1621 328.892 52.813 330.164C56.4189 331.42 58.5949 333.746 61.7139 335.763C65.3385 338.105 69.2949 339.609 74.2098 339.144C79.2334 338.694 82.2872 335.111 86.7105 333.902C90.9834 332.738 92.9391 336.182 96.9204 336.259C104.776 336.414 110.745 327.31 118.671 326.535C121.38 326.271 122.827 328.38 125.309 328.132C127.77 327.868 134.872 323.34 137.127 321.804C139.036 320.455 141.135 316.996 142.966 316.345C145.082 315.585 148.305 317.834 150.69 317.617C154.205 317.291 158.349 315.12 161.375 312.948C164.013 311.041 166.916 306.605 169.847 305.473C172.757 304.341 174.536 306.574 177.318 305.783C183.533 304.046 187.289 295.423 192.35 292.755C195.623 291.033 198.617 293.36 201.716 292.073C204.302 291.033 206.667 287.296 208.395 285.248C211.383 281.712 212.747 280.782 216.404 278.61C220.607 276.113 220.88 275.276 223.205 270.623C228.147 260.697 238.14 262.946 245.74 255.408C248.795 252.384 250.652 249.003 254.315 246.552C260.969 242.07 265.586 235.711 271.85 230.857C278.214 225.94 282.6 221.287 285.951 214.107C287.543 210.694 287.512 205.22 289.525 202.288C291.623 199.295 297.061 197.589 299.976 195.387C304.297 192.161 305.673 190.47 306.245 185.864C306.856 181.056 307.148 179.086 310.618 174.79C313.76 170.882 316.094 168.772 317.372 164.104C318.503 160.025 318.217 156.768 321.198 153.139C322.909 151.06 324.266 150.239 325.258 149.199C325.851 146.625 327.039 144.36 327.735 141.383C330.463 130.014 331.762 118.553 330.812 107.65Z" fill="#E9EB6E"/>
<path d="M24.9413 329.238C26.6422 330.244 28.2409 330.961 29.6886 331.846H29.716L29.7359 331.877C30.9242 332.594 32.0271 333.463 33.0674 334.653C35.7629 337.887 37.5751 341.655 41.076 344.218C42.8318 345.499 44.7402 346.201 46.7477 346.78C48.2427 347.223 49.7955 347.619 51.3668 348.168C54.9714 349.419 57.1482 351.753 60.2662 353.767C63.8846 356.131 67.834 357.626 72.7643 357.169C77.7922 356.696 80.8263 353.126 85.2562 351.906C89.5443 350.746 91.4862 354.209 95.4691 354.27C103.328 354.408 109.297 345.316 117.23 344.553C119.933 344.263 121.376 346.399 123.862 346.155C126.324 345.88 133.425 341.35 135.668 339.794C137.575 338.467 139.687 335.004 141.513 334.348C143.625 333.585 146.846 335.843 149.238 335.629C152.75 335.294 156.908 333.127 159.935 330.961L161.312 329.771C163.567 327.621 165.969 324.417 168.401 323.487L168.659 323.395C169.38 322.754 170.122 322.114 170.927 321.519C175.148 318.483 179.859 317.003 184.348 317.034C186.498 314.517 188.558 312 190.889 310.764C194.149 309.025 197.171 311.344 200.256 310.093C202.849 309.025 205.219 305.303 206.954 303.259C209.93 299.705 211.312 298.805 214.958 296.623C219.154 294.137 219.428 293.267 221.752 288.661C226.701 278.715 236.685 280.957 244.286 273.421C247.334 270.37 249.21 266.999 252.853 264.528C259.521 260.089 264.137 253.712 270.402 248.861C276.768 243.949 281.146 239.327 284.497 232.127C286.088 228.725 286.049 223.219 288.071 220.29C290.161 217.315 295.599 215.591 298.522 213.41C302.85 210.161 304.214 208.452 304.796 203.845C305.402 199.071 305.693 197.103 309.162 192.801C312.314 188.896 314.639 186.791 315.925 182.123C317.055 178.019 316.762 174.785 319.758 171.155C323.044 167.173 324.987 167.738 325.846 162.643C326.469 159.027 325.013 155.946 324.916 152.498L325.009 150.82L325.013 150.683L325.253 149.204C324.26 150.241 322.904 151.08 321.192 153.155C318.213 156.785 318.496 160.034 317.366 164.122C316.088 168.79 313.755 170.895 310.613 174.801C307.143 179.102 306.851 181.07 306.239 185.876C305.667 190.482 304.292 192.176 299.97 195.394C297.055 197.591 291.618 199.299 289.519 202.305C287.505 205.233 287.537 210.71 285.946 214.127C282.593 221.296 278.208 225.949 271.844 230.861C265.58 235.712 260.962 242.088 254.31 246.573C250.646 249.014 248.789 252.4 245.735 255.421C238.134 262.957 228.142 260.714 223.2 270.645C220.875 275.297 220.602 276.121 216.399 278.623C212.741 280.789 211.378 281.72 208.389 285.259C206.661 287.303 204.296 291.04 201.711 292.093C198.613 293.359 195.618 291.04 192.345 292.764C187.285 295.433 183.529 304.052 177.313 305.791C174.53 306.585 172.752 304.342 169.841 305.486C166.911 306.615 164.008 311.054 161.37 312.961C158.344 315.127 154.199 317.293 150.686 317.629C148.3 317.842 145.078 315.6 142.961 316.348C141.131 317.003 139.032 320.466 137.122 321.824C134.867 323.349 127.766 327.88 125.304 328.154C122.824 328.398 121.376 326.278 118.665 326.553C110.74 327.331 104.771 336.422 96.9168 336.27C92.9354 336.194 90.9798 332.746 86.7054 333.905C82.2816 335.126 79.2292 338.711 74.2059 339.153C69.2893 339.611 65.3338 338.116 61.7093 335.782C58.5897 333.768 56.4145 331.434 52.8083 330.183C49.1579 328.902 45.6112 328.475 42.5313 326.232C39.0121 323.654 37.2045 319.887 34.4968 316.653C32.204 313.937 29.4826 313.068 26.3966 311.237C19.7258 307.286 17.5169 297.981 12.7667 291.955C12.7407 291.925 12.7164 291.894 12.6889 291.849L11.8453 291.757L10.6097 292.062C8.70132 292.886 6.75185 295.266 5.86251 297.356C5.58183 298.012 5.40181 298.622 5.35452 299.171C4.97163 304.296 7.83638 305.929 10.5974 309.025L11.0307 309.59C16.0022 315.585 18.147 325.21 24.9413 329.238Z" fill="#DFC36F"/>
<path d="M352.878 218.413C354.424 212.915 357.918 208.04 362.251 204.729C359.827 201.16 359.088 196.163 360.608 190.65C363.512 180.277 373.392 172.121 382.708 172.47C383.798 172.516 384.833 172.667 385.812 172.956C386.904 171.27 388.254 169.827 389.749 168.612V168.597L389.899 168.476L390.458 168.081L391.438 167.413L391.925 167.078L393.35 166.349L393.894 166.137L395.2 165.636L395.493 165.56L397.089 165.21L397.505 165.165L399.188 165.074L399.648 165.119C398.266 162.188 395.499 160.229 391.86 160.092L390.191 160.168L389.776 160.229L388.165 160.578L387.916 160.639L386.561 161.155L386.04 161.368L384.605 162.097L384.125 162.401L383.135 163.099L382.571 163.494L382.428 163.6L382.448 163.631C380.949 164.846 379.588 166.304 378.505 167.959C377.523 167.701 376.47 167.534 375.38 167.488C366.091 167.154 356.19 175.295 353.298 185.668C351.76 191.181 352.521 196.208 354.929 199.747C350.592 203.058 347.096 207.903 345.549 213.416C343.706 220.068 345.167 225.976 348.883 229.515L349.583 230.138L349.999 230.457L350.727 230.943L351.17 231.201L352.338 231.793L352.56 231.884L353.682 232.279L354.15 232.386L354.495 232.462C352.098 228.908 351.33 223.896 352.878 218.413Z" fill="#A54C1D"/>
<path d="M366.277 224.704C363.498 227.261 359.814 228.094 357.261 226.429L356.136 225.415C359.106 226.278 362.952 224.643 365.343 221.238C366.322 219.891 366.92 218.422 367.174 216.984C369.545 216.651 371.994 215.108 373.724 212.686C374.922 210.961 375.553 209.114 375.665 207.389C376.835 207.691 378.6 209.886 376.269 214.306C375.385 215.97 373.943 217.136 372.404 217.832C380.692 216.5 388.786 209.084 391.359 199.836C393.341 192.783 391.561 186.487 387.285 183.096C388.559 181.356 389.566 179.388 390.15 177.284C391.067 174.015 390.84 170.988 389.747 168.612C388.254 169.822 386.902 171.275 385.811 172.955C384.83 172.668 383.798 172.516 382.706 172.471C373.391 172.123 363.512 180.281 360.607 190.649C359.086 196.158 359.826 201.168 362.249 204.74C357.918 208.039 354.423 212.928 352.876 218.422C351.329 223.901 352.098 228.911 354.494 232.468C354.909 233.104 355.414 233.649 355.936 234.193C360.009 232.18 363.678 228.82 366.277 224.704Z" fill="#E6EE4C"/>
<path d="M407.416 178.862C409.438 171.677 405.957 165.615 399.654 165.114L399.194 165.069L397.511 165.16L397.096 165.205L395.498 165.539L395.206 165.614L393.899 166.115L393.355 166.342L391.932 167.07L391.444 167.388L390.464 168.07L389.905 168.464L389.755 168.585V168.6C390.848 170.98 391.074 173.997 390.158 177.255C389.573 179.362 388.565 181.348 387.292 183.076C391.568 186.471 393.347 192.761 391.366 199.824C388.794 209.07 380.699 216.497 372.411 217.816C371.513 218.225 370.578 218.498 369.714 218.619C369.461 220.044 368.852 221.514 367.883 222.878C367.41 223.545 366.862 224.152 366.284 224.682C363.686 228.805 360.017 232.17 355.942 234.171C355.932 234.186 355.923 234.186 355.911 234.186L356.221 234.504L356.891 235.095L357.334 235.413L358.042 235.914L358.477 236.171L359.645 236.747L359.9 236.838L360.997 237.247L361.476 237.384L362.484 237.596L362.945 237.672L364.459 237.793C373.76 238.157 383.642 230.002 386.539 219.635L387.995 219.589C396.843 219.104 405.884 211.283 408.626 201.446C410.367 195.262 409.203 189.654 406.016 186.077L404.553 184.697C405.826 182.939 406.827 180.969 407.416 178.862Z" fill="#DFBD4A"/>
<path d="M376.273 214.296C378.604 209.887 376.839 207.682 375.669 207.384C375.558 209.112 374.927 210.944 373.727 212.672C371.997 215.101 369.549 216.635 367.178 216.978C366.923 218.423 366.326 219.883 365.347 221.239C362.956 224.635 359.109 226.274 356.14 225.41L357.265 226.423C359.817 228.091 363.501 227.242 366.281 224.695C366.859 224.144 367.407 223.563 367.879 222.892C368.848 221.522 369.459 220.047 369.71 218.632C370.576 218.512 371.51 218.229 372.408 217.812C373.947 217.127 375.389 215.965 376.273 214.296Z" fill="#DFBD4A"/>
<path d="M161.033 336.609C155.661 335.67 149.626 337.007 144.355 340.819C137.992 345.428 134.315 352.527 133.996 359.44L133.969 360.678L133.996 361.403L134.079 362.555L134.151 363.195L134.446 364.888L134.527 365.159L134.71 365.756C136.087 360.45 139.406 355.357 144.355 351.787C149.626 347.975 155.661 346.638 161.033 347.576C162.246 341.858 165.663 336.339 170.926 332.512C180.872 325.3 193.584 326.879 199.314 336.026C200.009 337.121 200.541 338.287 200.984 339.454C202.969 338.885 204.971 338.771 206.887 339.027L207.075 339.056L207.733 339.184L208.934 339.482L209.466 339.625L210.961 340.279L211.475 340.549L212.729 341.374L212.95 341.545L214.274 342.754L214.573 343.081L215.709 344.603C216.079 345.187 216.358 345.784 216.631 346.396C218.257 342.1 218.062 337.377 215.709 333.636L214.573 332.128L214.274 331.772L212.95 330.563L212.729 330.407L211.475 329.582L210.973 329.311L209.466 328.671L208.934 328.5L207.733 328.202L207.075 328.088L206.887 328.06H206.874C204.971 327.804 202.969 327.932 200.984 328.486C200.541 327.291 200.009 326.153 199.314 325.058C198.767 324.176 198.144 323.408 197.476 322.654C194.117 318.984 189.387 317.049 184.347 317.035C179.858 317.007 175.148 318.486 170.926 321.53C170.121 322.113 169.38 322.768 168.659 323.408C166.703 325.215 165.08 327.277 163.819 329.468C162.501 331.73 161.56 334.148 161.033 336.609Z" fill="#A54C1D"/>
<path d="M148.143 370.56C144.336 370.39 141.301 367.668 140.966 363.657C140.901 362.962 140.927 362.282 141.017 361.602C142.263 365.259 146.014 367.328 150.208 366.336C151.899 365.953 153.437 365.117 154.704 363.983C156.504 365.911 159.291 366.789 162.299 366.081C164.377 365.585 166.221 364.422 167.633 362.877C168.171 364.252 167.586 368.051 162.635 370.064C160.803 370.843 158.966 370.56 157.426 369.766C163.791 376.385 174.802 376.938 183.637 370.545C190.413 365.613 194.134 357.902 194.031 350.602C196.208 350.12 198.403 349.199 200.403 347.711C203.542 345.457 205.746 342.353 206.894 339.022C204.977 338.767 202.976 338.88 200.989 339.433C200.547 338.271 200.015 337.108 199.321 336.003C193.59 326.86 180.877 325.287 170.932 332.488C165.669 336.315 162.252 341.843 161.039 347.569C155.667 346.619 149.63 347.966 144.361 351.779C139.412 355.351 136.093 360.439 134.716 365.741C134.351 367.13 134.184 368.49 134.085 369.851C138.263 371.779 143.251 372.062 148.143 370.56Z" fill="#E6EE4C"/>
<path d="M210.304 365.652C216.751 361.003 219.316 352.76 216.634 346.391C216.36 345.786 216.081 345.18 215.712 344.602L214.574 343.08L214.276 342.756L212.952 341.53L212.731 341.361L211.475 340.544L210.962 340.276L209.467 339.614L208.936 339.473L207.734 339.177L207.076 339.051L206.889 339.022C205.741 342.362 203.537 345.461 200.399 347.73C198.4 349.209 196.205 350.125 194.026 350.618C194.131 357.903 190.409 365.61 183.634 370.556C174.799 376.953 163.788 376.403 157.422 369.767C156.526 369.316 155.714 368.696 155.045 367.991C153.777 369.119 152.251 369.978 150.549 370.359C149.73 370.556 148.926 370.612 148.138 370.57C143.247 372.063 138.259 371.782 134.082 369.865C134.066 369.851 134.045 369.851 134.03 369.837L133.997 370.429L133.97 371.627L133.997 372.387L134.082 373.486L134.154 374.163L134.447 375.854L134.53 376.15L134.96 377.587L135.153 378.136L135.642 379.334L135.861 379.841L136.739 381.433C142.488 390.592 155.207 392.17 165.133 384.956C170.876 394.114 183.581 395.706 193.526 388.492C194.658 387.647 195.709 386.745 196.685 385.773L197.425 384.998C198.529 383.786 199.476 382.504 200.316 381.166L200.843 380.236C202.907 376.572 203.979 372.5 203.92 368.541C206.09 368.062 208.287 367.118 210.304 365.652Z" fill="#DFBD4A"/>
<path d="M162.637 370.058C167.586 368.049 168.172 364.254 167.634 362.873C166.223 364.421 164.379 365.58 162.3 366.068C159.292 366.779 156.506 365.9 154.705 363.989C153.438 365.119 151.901 365.956 150.21 366.333C146.015 367.324 142.266 365.259 141.019 361.603C140.928 362.273 140.903 362.957 140.968 363.654C141.303 367.658 144.338 370.393 148.144 370.56C148.931 370.602 149.736 370.532 150.555 370.337C152.257 369.96 153.783 369.109 155.051 367.979C155.721 368.691 156.531 369.305 157.428 369.751C158.969 370.56 160.806 370.839 162.637 370.058Z" fill="#DFBD4A"/>
<path d="M301.908 420.484C299.356 420.36 297.321 418.542 297.081 415.841L297.119 414.477C297.958 416.93 300.492 418.321 303.304 417.674C304.448 417.398 305.481 416.833 306.325 416.076C307.539 417.385 309.424 417.977 311.45 417.481C312.854 417.15 314.108 416.379 315.042 415.318C315.394 416.255 315.011 418.804 311.697 420.168C310.438 420.664 309.202 420.498 308.177 419.975C312.451 424.425 319.868 424.797 325.813 420.484C330.38 417.178 332.888 411.984 332.809 407.052C334.271 406.735 335.752 406.101 337.117 405.123C339.221 403.607 340.702 401.499 341.476 399.281C340.183 399.102 338.838 399.171 337.487 399.543C337.2 398.758 336.838 397.972 336.383 397.256C332.519 391.084 323.963 390.009 317.258 394.873C313.724 397.435 311.412 401.183 310.606 405.013C306.981 404.365 302.921 405.274 299.368 407.864C295.2 410.882 292.872 415.483 292.537 420.03C295.346 421.311 298.656 421.49 301.908 420.484Z" fill="#E6EE4C"/>
<path d="M332.467 432.553C336.114 429.919 338.401 426.105 339.174 422.181C339.374 421.165 339.484 420.15 339.478 419.135C340.94 418.819 342.415 418.202 343.773 417.214C348.527 413.756 350.158 407.404 347.403 403.013L346.356 401.696L346.013 401.367L345.046 400.598L344.676 400.365L343.291 399.707L343.221 399.679L341.557 399.281L341.486 399.267L341.473 399.281C340.699 401.504 339.218 403.603 337.114 405.126C335.749 406.114 334.267 406.731 332.806 407.061C332.884 411.986 330.376 417.186 325.81 420.493C319.866 424.801 312.448 424.431 308.174 419.985C307.563 419.67 307.019 419.244 306.57 418.792C305.711 419.532 304.679 420.109 303.54 420.356L301.906 420.493C298.653 421.495 295.344 421.316 292.534 420.04C292.491 420.027 292.443 420.013 292.401 419.999C292.357 420.658 292.369 421.275 292.387 421.892L292.42 422.249C292.53 423.484 292.81 424.664 293.245 425.803L293.408 426.201L294.246 427.82C298.111 433.994 306.674 435.064 313.352 430.193C314.168 431.469 315.177 432.512 316.313 433.335C320.705 436.532 327.168 436.422 332.467 432.553Z" fill="#DFBD4A"/>
<path d="M311.694 420.177C315.007 418.801 315.39 416.266 315.04 415.326C314.105 416.375 312.851 417.152 311.448 417.493C309.42 417.983 307.537 417.384 306.323 416.089C305.478 416.838 304.445 417.397 303.301 417.683C300.489 418.324 297.956 416.934 297.118 414.481L297.078 415.857C297.318 418.555 299.352 420.368 301.906 420.49L303.541 420.354C304.679 420.109 305.711 419.537 306.571 418.787C307.018 419.25 307.564 419.659 308.174 419.986C309.199 420.504 310.434 420.668 311.694 420.177Z" fill="#DFBD4A"/>
<path d="M312.878 54.2382C313.326 54.9837 313.703 55.7452 313.97 56.5225C315.334 56.1735 316.692 56.0783 317.97 56.2686L318.062 56.2846L319.603 56.6334C319.433 55.8879 319.166 55.19 318.816 54.5079L318.503 53.9367L317.439 52.6361L317.1 52.2871L316.146 51.5257L315.756 51.3193L314.379 50.6373L314.301 50.6055L312.644 50.2089L312.566 50.1931V50.2089C311.37 50.0344 310.123 50.1138 308.876 50.3993C310.448 51.3194 311.846 52.5884 312.878 54.2382Z" fill="#E6C92E"/>
<path d="M270.461 58.7788C269.387 59.5748 268.439 60.4503 267.596 61.4373C264.722 64.7006 263.263 68.8713 263.497 72.7873L263.516 73.2011L263.788 74.984L263.802 75L264.34 76.7032L264.503 77.1172L265.335 78.7409C266.458 80.5397 267.984 81.8928 269.758 82.8002V82.7842L269.199 81.0808V81.0491C269.064 80.4601 268.992 79.871 268.935 79.2502L268.909 78.8682C268.857 78.2633 268.857 77.6265 268.909 77.0057C268.954 77.0216 268.998 77.0375 269.043 77.0534C269.356 72.5166 271.677 67.8684 275.872 64.8279C279.411 62.2809 283.492 61.3736 287.104 62.0103C287.914 58.1739 290.208 54.4489 293.774 51.8701C298.497 48.4316 304.182 47.9701 308.456 50.1828C308.184 49.4983 307.864 48.8297 307.469 48.1929C303.609 42.0006 295.041 40.9499 288.357 45.8051C287.187 46.6329 286.206 47.588 285.323 48.6228C283.492 50.8036 282.238 53.3506 281.697 55.9453C278.075 55.3245 274.001 56.2 270.461 58.7788Z" fill="#E6C92E"/>
<path d="M319.707 56.6891L319.598 56.6416L318.058 56.2935L319.707 56.6891Z" fill="#E6EE4C"/>
<path d="M293.775 51.8753C290.209 54.4472 287.915 58.1781 287.104 62.0041C283.492 61.3849 279.412 62.2898 275.872 64.8299C271.679 67.8622 269.358 72.5137 269.043 77.0541C271.839 78.3242 275.164 78.467 278.412 77.4668C275.86 77.3557 273.819 75.5459 273.579 72.8629L273.612 71.4659C274.463 73.9266 276.994 75.3236 279.815 74.6568C280.933 74.4028 281.971 73.8314 282.836 73.0852C284.044 74.3711 285.91 74.9426 287.954 74.4822C289.344 74.1489 290.59 73.3392 291.541 72.3073C291.904 73.2598 291.509 75.7999 288.183 77.1969C286.927 77.6732 285.713 77.4986 284.667 76.9747C288.948 81.4199 296.373 81.8009 302.317 77.4668C306.87 74.1806 309.393 68.9734 309.32 64.0361C310.79 63.7345 312.244 63.0994 313.606 62.1151C315.707 60.591 317.188 58.4955 317.972 56.2571C316.694 56.0825 315.337 56.1619 313.971 56.527C313.706 55.7491 313.328 54.987 312.881 54.2409C311.847 52.5898 310.45 51.3038 308.877 50.3989L308.456 50.1768C304.183 47.9701 298.497 48.4303 293.775 51.8753Z" fill="#E6EE4C"/>
<path d="M317.966 56.2719C317.183 58.519 315.7 60.592 313.6 62.127C312.238 63.1082 310.784 63.7411 309.315 64.0418C309.386 68.9949 306.865 74.2013 302.313 77.477C296.367 81.8287 288.942 81.4332 284.662 76.9865C284.051 76.67 283.5 76.2268 283.065 75.7679C282.206 76.5275 281.166 77.113 280.044 77.3662L278.406 77.477C275.159 78.4739 271.833 78.3316 269.038 77.0656C268.994 77.0498 268.948 77.0338 268.904 77.018C268.851 77.6351 268.851 78.2682 268.904 78.8695L268.929 79.2651C268.986 79.8823 269.059 80.4678 269.195 81.0533V81.1009L269.753 82.8099L269.904 83.2055L270.747 84.8037C272.404 87.4781 274.944 89.1873 277.848 89.8836C281.654 90.8014 286.051 89.9627 289.859 87.1934C292.924 92.0832 298.953 93.7605 304.65 91.814C306.138 91.2918 307.593 90.564 308.984 89.5671C313.536 86.2597 316.052 81.0533 315.973 76.1476C317.435 75.8311 318.916 75.1824 320.282 74.2012C325.034 70.7514 326.659 64.4058 323.91 60.0224L322.853 58.693L322.508 58.3766L321.56 57.617L321.171 57.3639L319.812 56.715L319.707 56.6833L318.058 56.2877L317.966 56.2719Z" fill="#DFBD4A"/>
<path d="M283.063 75.78C283.497 76.2362 284.049 76.6767 284.658 76.9913C285.704 77.5105 286.92 77.6993 288.174 77.2116C291.5 75.8115 291.896 73.2788 291.531 72.3349C290.583 73.3574 289.335 74.1754 287.946 74.5058C285.901 74.962 284.035 74.3799 282.827 73.1056C281.962 73.8608 280.924 74.4114 279.807 74.6631C276.986 75.3396 274.455 73.9394 273.604 71.4854L273.571 72.8697C273.81 75.5755 275.852 77.3846 278.403 77.4948L280.041 77.3846C281.163 77.1172 282.204 76.5351 283.063 75.78Z" fill="#DFBD4A"/>
</svg>
