<svg width="477" height="481" viewBox="0 0 477 481" fill="none" xmlns="http://www.w3.org/2000/svg">
<path d="M103.818 60.4783C104.546 58.0114 105.218 55.6658 106.018 53.4117C108.403 46.758 112.946 42.1312 121.216 37.8116C125.673 35.4389 130.373 34.599 135.815 33.6377C138.529 33.1577 141.329 32.6377 144.286 31.9049C149.085 30.7322 153.828 28.2781 156.871 26.4654C157.613 27.9709 158.642 29.4251 159.999 30.7979C163.627 29.4523 167.284 28.2252 170.984 27.0653C169.598 26.7982 168.255 26.2111 166.998 25.1984C161.67 20.8644 164.77 13.8121 161.185 8.77255C158.713 11.9451 158.07 15.1977 154.385 17.599C150.9 19.8645 146.129 22.3186 142.172 23.2785C133.558 25.4112 125.345 25.6112 117.074 29.918C107.946 34.6776 101.161 40.7185 97.6613 50.412C94.9329 58.0113 93.7187 65.9721 89.4905 72.9716C94.033 68.9719 98.704 65.1579 103.518 61.5711L103.818 60.4783Z" fill="#FBC510"/>
<path d="M368.046 450.947L369.16 452.441C367.576 451.934 365.772 450.734 363.717 449.307C360.878 447.413 357.662 445.227 353.474 443.907C349.537 442.627 345.772 441.881 342.274 441.587C324.846 450.693 306.305 457.481 287.042 461.747C285.552 464.494 285.113 467.12 284.768 468.987L284.533 470.347C284.25 470.507 283.811 470.681 283.121 470.867C282.619 469.307 281.913 468.08 281.207 467.081C280.376 465.947 279.152 464.693 277.521 463.627C266.086 465.614 254.446 466.747 242.65 466.987C240.595 467.799 238.839 468.334 237.474 468.334C236.956 468.334 235.952 468.307 234.164 466.987C225.521 466.827 216.972 466.213 208.517 465.081L208.423 465.187L208.344 465.081C197.223 463.627 186.305 461.333 175.623 458.281C173.411 459.467 171.748 460.894 170.509 462.441C169.819 461.267 169.066 459.934 168.219 458.4L167.827 457.641C167.419 456.88 166.964 456.174 166.493 455.454C154.321 451.36 142.509 446.24 131.199 440.121C130.478 440.121 129.756 440.094 129.019 440.094C126.76 440.094 124.548 440.16 122.29 440.227C121.27 440.227 120.235 440.267 119.184 440.281C116.831 440.334 113.913 440.64 110.525 441.001C108.925 441.161 107.262 441.333 105.552 441.467L105.599 441.093C106.227 435.733 104.58 430.347 101.207 426.72C96.6425 421.813 89.5054 420.187 84.3133 419.001C83.4505 418.8 82.6504 418.627 81.9131 418.414C81.0818 418.227 80.2348 418 79.3877 417.76C80.8308 416.16 81.9133 414.334 82.5878 412.24C83.325 410 83.4818 407.6 83.168 405.2C81.7406 403.854 80.3603 402.507 78.9799 401.107C73.1446 395.28 67.6857 389.187 62.6034 382.88L60.9563 381.973C59.921 381.374 58.8858 380.8 57.8819 380.227C51.8741 376.72 45.7564 372.907 39.6858 368.787C41.4427 367.493 42.8074 365.747 43.6858 363.653C44.5643 361.641 44.8779 359.481 44.7525 357.347C41.5525 352.027 38.619 346.56 35.8739 340.987C33.7406 339.093 31.4975 337.508 29.3955 336.027C30.4779 335.227 31.4034 334.254 32.1877 333.067C21.5524 309.067 15.1838 283.161 13.5054 256.347C12.2819 252.014 11.1525 247.801 10.2427 243.508C8.59561 235.813 9.9916 224.053 13.7563 213.627C14.3838 211.934 14.9328 210.24 15.5132 208.587C17.3014 196.373 20.125 184.402 23.8583 172.761C23.9995 169.147 23.7798 165.614 23.2465 162.347C23.0112 161.001 22.7289 159.735 22.3995 158.587C27.827 154.734 31.4819 147.52 32.5486 137.934C33.3329 130.814 32.7839 123.134 32.2348 115.707C31.3094 102.761 30.4466 90.521 36.125 82.3077C39.027 78.0802 42.823 77.2943 50.4465 76.041C52.4544 75.6944 54.5407 75.3618 56.721 74.8943C58.4465 74.5351 60.2975 74.0944 62.1798 73.5344C61.8661 76.0802 61.7877 78.8285 61.9759 81.721L62.4465 89.5469L70.2426 90.041L71.9837 90.1335C74.2583 87.6677 76.5799 85.2285 78.9799 82.8551C79.9838 81.8136 81.0347 80.8002 82.07 79.801C78.8229 81.2018 75.074 81.481 70.8231 81.2018C70.1329 69.721 74.6034 62.201 79.5132 52.1618C73.3485 60.441 64.7995 64.0803 54.8387 66.201C44.8465 68.361 35.2935 67.9218 28.8151 77.2677C17.4739 93.641 25.7564 118.48 23.7015 136.948C22.5093 147.814 16.8936 157.134 5.44258 150.841C10.7602 154.587 13.3642 157.001 14.478 163.813C15.4348 169.52 15.0427 176.094 13.8035 181.735C11.7015 191.401 8.75251 201.321 5.41133 210.587C1.74075 220.8 -0.72209 234.654 1.55242 245.36C3.79555 256.014 7.40346 266.281 9.92895 276.841C11.7329 284.48 19.7485 300.907 6.69748 300.747C10.6975 304.548 16.4231 305.721 20.3603 309.093C24.2191 312.4 30.5721 333.054 19.7643 328.814C15.1368 327.001 12.4387 321.52 10.6191 317.253C10.3524 323.947 10.274 329.694 14.7133 335.187C19.8113 341.454 27.8269 344.507 32.972 350.601C35.9837 354.213 38.3368 362.213 31.3407 362.667C24.6113 363.067 17.427 353.787 13.176 349.614C16.2349 360.907 22.3211 367.547 31.8113 374.16C38.823 379.04 46.0387 383.614 53.4269 387.893C59.5132 391.413 66.4466 394.734 71.1838 400.053C76.125 405.614 75.8583 412.654 67.7014 414.441C60.3603 416.067 52.8465 412.174 46.6818 408.627C46.9799 415.867 52.8466 417.947 58.7132 420.347C65.6152 423.12 72.5015 425.173 79.6858 427.001C84.1407 428.187 91.3877 429.214 94.6818 432.787C97.9916 436.334 97.4896 443.374 93.3955 446.16C88.6896 449.307 81.772 446.734 77.5053 444.067C82.8857 455.28 109.788 449.347 119.388 449.187C124.705 449.081 130.007 448.8 135.341 449.187C145.113 449.881 155.105 452.867 160.031 461.92C165.772 472.4 170.148 481.067 183.639 478.4C178.901 479.321 175.623 476.734 176.062 471.774C176.533 466.64 180.799 465.173 185.348 464.373C190.352 463.534 193.646 464.56 197.741 467.534C199.686 468.921 201.38 470.307 202.713 472.307C203.764 473.84 204.313 477.68 206.556 478C209.694 478.414 212.988 471.454 216.627 470.533C221.599 469.227 224.517 470.667 228.266 473.667C236.768 480.453 243.435 476.027 252.392 472.654C260.219 469.68 278.98 465.387 274.274 479.881C279.372 480.24 285.913 480.533 290.227 477.227C294.697 473.799 292.486 468.907 295.513 464.867C302.18 456.067 313.897 458.627 323.184 456.041C326.823 455.027 329.552 452.347 333.066 451.214C338.635 449.427 345.364 450.64 350.807 452.347C356.893 454.293 361.082 459.481 367.121 461.093C373.286 462.72 381.27 461.241 387.042 458.88C391.388 457.081 399.137 451.854 399.466 446.601C394.337 448.974 389.929 451.799 384.062 450.947C371.074 449.027 372.031 435.6 374.588 425.214C375.121 423.013 375.78 421.107 376.548 419.44C372.752 422.427 368.878 425.241 364.925 427.961C363.231 437.721 364.266 445.294 368.046 450.947Z" fill="#FBC510"/>
<path d="M216.623 17.7495L216.725 17.9089C220.369 17.5753 224.056 17.3221 227.729 17.1627C223.852 14.3093 221.188 8.69621 224.686 4.6693C214.618 8.02896 205.692 14.0415 195.567 17.3353C192.216 18.4562 188.162 21.1355 183.978 23.4284C194.513 20.8414 205.268 19.0415 216.169 17.9894L216.623 17.7495Z" fill="#FBC510"/>
<path d="M468.735 214.841C465.39 214.28 463.563 211.08 462.917 208.04C461.527 201.467 462.82 194.173 461.576 187.415C459.103 174.081 453.705 162.122 448.566 149.708C443.62 137.655 436.929 128.108 439.014 114.747C439.887 109.121 442.618 103.841 443.248 98.2543C444.056 91.5343 440.986 86.2947 437.43 80.9872C430.206 70.201 428.929 53.9214 438.949 44.3473C429.495 44.441 422.109 46.361 421.058 56.8677C420.283 64.7755 427.749 93.1214 410.553 87.801C394.279 82.7618 399.289 61.7873 407.337 52.4814C400.614 47.161 391.483 48.8677 383.483 49.3881C369.406 50.2818 358.659 49.1214 349.834 36.7756C342.723 26.8022 344.469 14.8152 331.313 9.90857C330.683 17.1215 331.232 23.0285 324.978 28.0015C319.935 32.0677 314.053 29.2944 310.319 24.5881C306.263 19.4277 304.63 15.4681 297.471 14.054C290.036 12.6011 266.715 14.4952 276.218 0.214844C267.733 -0.93103 259.766 8.81439 253.673 13.1877C251.943 14.4144 249.665 15.9207 247.337 17.1215C252.154 17.3219 256.97 17.6678 261.737 18.1477C262.61 17.4011 263.499 16.6414 264.388 15.8544C265.244 15.1481 266.23 14.2544 267.249 13.4544C269.657 17.1215 273.551 19.2014 277.85 20.4152C280.065 20.7885 282.263 21.241 284.477 21.6677C286.739 21.9748 288.937 22.1477 290.941 22.3077C292.848 22.4548 294.82 22.5744 295.758 22.7748C297.681 23.161 298.36 23.5619 299.863 25.4689C309.867 28.2956 319.596 31.8011 329.067 36.0015L330.521 34.9477C333.01 32.9744 334.82 30.854 336.145 28.6819L336.21 28.9211C337.713 32.9356 339.394 37.4414 342.642 41.9473L343.418 42.9477C351.725 47.3744 359.806 52.3085 367.547 57.8148C370.844 58.3481 373.996 58.521 376.953 58.521C379.071 58.521 381.398 58.4273 384.081 58.2689C385.228 58.201 386.408 58.0814 387.62 58.0022C389.867 57.7873 392.032 57.6143 394.036 57.5885C391.564 63.6814 390.287 70.6277 391.305 77.1214C393.309 79.001 395.297 80.8676 397.236 82.8539C401.778 87.3484 406.044 92.0547 410.117 96.8547C411.604 97.1618 413.042 97.3347 414.416 97.3347C418.925 97.3347 422.836 95.6684 425.729 92.5072C427.604 90.4418 428.848 88.0014 429.64 85.3072L430.044 85.9084C433.325 90.841 434.844 93.8002 434.44 97.228C434.198 99.2951 433.422 101.681 432.646 104.202C431.774 106.935 430.755 110.041 430.238 113.361C429.64 117.254 429.608 120.842 429.98 124.228C451.572 159.295 463.159 199.748 463.159 241.975C463.159 259.161 461.236 276.055 457.519 292.4L457.454 294.054C457.406 301.561 462.222 310.028 459.814 317.347C458.763 320.56 457.357 322.868 457.422 326.241L457.454 327.001C460.105 328.761 459.184 333.467 457.875 336.761L457.729 337.587C464.42 329.934 466.909 318.361 464.824 308.347C463.224 300.601 459.588 294.401 460.218 286.214C460.768 278.574 467.394 272.921 469.446 265.574C474.214 248.522 462.125 227.347 476.945 214.214C473.939 212.641 471.693 215.308 468.735 214.841Z" fill="#FBC510"/>
<path d="M437.685 369.133C438.101 371.04 438.388 372.881 438.42 374.641C436.598 373.8 434.632 373.373 432.555 373.373C431.004 373.373 429.534 373.627 428.127 374.027C427.312 375.68 426.864 377.506 425.266 378.974C422.405 381.587 418.33 382.054 414.206 382.573L412.847 383.813C407.988 389.786 402.794 395.601 397.248 401.107C394.594 403.76 391.909 406.334 389.128 408.827C391.51 408.068 394.115 407.441 397.04 406.893C409.283 404.614 414.462 392.706 423.956 386.054C427.648 383.467 433.322 379.894 437.014 384.52C439.971 388.254 437.174 393.734 436.119 397.708C442.017 394.453 445.661 385.947 446.892 379.627C447.866 374.481 446.987 369.521 445.821 364.587C445.053 365.414 444.206 366.174 443.215 366.894C441.457 368.161 439.587 368.72 437.685 369.133Z" fill="#FBC510"/>
<path d="M394.055 57.5836C392.035 57.6102 389.875 57.7839 387.621 57.9968C386.432 58.0767 385.242 58.1972 384.099 58.2645C381.407 58.4241 379.075 58.5181 376.977 58.5181C374.019 58.5181 370.857 58.3443 367.554 57.8106C375.834 63.6507 383.771 70.117 391.315 77.1171C390.313 70.6242 391.581 63.6773 394.055 57.5836Z" fill="#FDDF0D"/>
<path d="M295.762 22.7752C294.812 22.5762 292.852 22.4557 290.938 22.3094C288.933 22.1481 286.732 21.9748 284.47 21.6687C289.656 22.7752 294.782 24.0416 299.862 25.4692C298.355 23.5622 297.676 23.1627 295.762 22.7752Z" fill="#FDDF0D"/>
<path d="M267.275 13.4504C266.245 14.2497 265.274 15.1432 264.407 15.8498C263.511 16.6372 262.629 17.3977 261.748 18.1432C267.171 18.7303 272.534 19.4773 277.868 20.4096C273.58 19.1965 269.666 17.1168 267.275 13.4504Z" fill="#FDDF0D"/>
<path d="M342.649 41.9466C339.396 37.4406 337.724 32.9345 336.22 28.9209L336.144 28.68C334.809 30.854 333.014 32.9728 330.528 34.9474L329.071 35.9999C333.934 38.1463 338.706 40.4799 343.416 42.947L342.649 41.9466Z" fill="#FDDF0D"/>
<path d="M430.252 113.36C430.761 110.039 431.779 106.933 432.653 104.199C433.433 101.679 434.212 99.2931 434.45 97.2257C434.848 93.7985 433.337 90.8389 430.061 85.9057L429.647 85.3062C428.868 87.9986 427.612 90.4398 425.735 92.5056C422.841 95.6656 418.929 97.3323 414.428 97.3323C413.044 97.3323 411.613 97.1589 410.134 96.852C417.465 105.532 424.113 114.665 429.997 124.226C429.616 120.839 429.647 117.253 430.252 113.36Z" fill="#FDDF0D"/>
<path d="M438.434 374.639C438.402 372.88 438.115 371.039 437.701 369.132C435.456 369.601 433.21 369.906 431.06 370.933C429.468 371.72 428.719 372.827 428.13 374.026C429.547 373.626 431.013 373.373 432.557 373.373C434.628 373.373 436.602 373.798 438.434 374.639Z" fill="#FDDF0D"/>
<path d="M414.223 382.573L413.829 382.613L412.866 383.813L414.223 382.573Z" fill="#FDDF0D"/>
<path d="M10.2445 243.507C11.1511 247.8 12.2845 252.013 13.5111 256.347C13.2178 251.587 13.0579 246.787 13.0579 241.973C13.0579 230.693 13.8845 219.533 15.5111 208.587C14.9378 210.24 14.3912 211.933 13.7645 213.627C9.99119 224.053 8.60447 235.813 10.2445 243.507Z" fill="#FDDF0D"/>
<path d="M363.729 449.307C365.775 450.733 367.589 451.932 369.17 452.439L368.07 450.947C364.272 445.294 363.233 437.72 364.938 427.959C357.638 432.96 350.073 437.532 342.292 441.586C345.78 441.879 349.546 442.626 353.484 443.906C357.669 445.227 360.893 447.412 363.729 449.307Z" fill="#FDDF0D"/>
<path d="M281.206 467.08C281.911 468.08 282.616 469.307 283.126 470.868C283.815 470.68 284.25 470.506 284.535 470.347L284.775 468.987C285.105 467.12 285.54 464.494 287.04 461.747C283.875 462.413 280.696 463.053 277.517 463.628C279.151 464.694 280.366 465.947 281.206 467.08Z" fill="#FDDF0D"/>
<path d="M62.4416 89.5471L61.9765 81.721C61.785 78.8269 61.8671 76.0805 62.168 73.5338C60.2943 74.0946 58.4616 74.5336 56.7245 74.8947C54.5362 75.361 52.4572 75.6948 50.4467 76.0408C42.8285 77.2937 39.0262 78.0801 36.1266 82.3077C30.4369 90.5209 31.3123 102.761 32.2424 115.707C32.7894 123.134 33.3364 130.814 32.5432 137.934C31.4763 147.521 27.8246 154.734 22.3948 158.587C22.7367 159.734 23.0101 161.001 23.2427 162.347C23.7897 165.614 23.9949 169.147 23.8581 172.76C33.6373 142.334 49.9269 114.228 71.9883 90.1338L70.2376 90.0408L62.4416 89.5471Z" fill="#FDDF0D"/>
<path d="M242.66 466.987C241.144 467.013 239.627 467.04 238.11 467.04C236.785 467.04 235.489 467.013 234.164 466.987C235.961 468.306 236.962 468.333 237.492 468.333C238.847 468.333 240.614 467.8 242.66 466.987Z" fill="#FDDF0D"/>
<path d="M144.277 31.9083C141.32 32.6405 138.519 33.1609 135.803 33.6414C130.358 34.6011 125.667 35.4413 121.202 37.8141C112.928 42.1347 108.393 46.7609 106.019 53.4145C105.208 55.6679 104.54 58.0137 103.815 60.4804L103.502 61.5737C120.861 48.548 139.869 38.2407 159.987 30.8009C158.622 29.4275 157.598 27.9744 156.873 26.4674C153.816 28.2815 149.082 30.7354 144.277 31.9083Z" fill="#FDDF0D"/>
<path d="M216.179 17.9877L216.732 17.9091L216.63 17.7474L216.179 17.9877Z" fill="#FDDF0D"/>
<path d="M35.8893 340.986C34.6244 338.373 33.373 335.733 32.1889 333.066C31.4085 334.252 30.4935 335.225 29.4036 336.026C31.5027 337.506 33.7363 339.092 35.8893 340.986Z" fill="#FDDF0D"/>
<path d="M208.517 465.081H208.343L208.43 465.187L208.517 465.081Z" fill="#FDDF0D"/>
<path d="M39.6914 368.787C45.7657 372.907 51.8673 376.721 57.8736 380.227C58.895 380.8 59.9165 381.373 60.9652 381.974L62.5996 382.88C56.035 374.747 50.0832 366.213 44.7579 357.347C44.8805 359.48 44.5537 361.64 43.6956 363.654C42.8103 365.748 41.4347 367.494 39.6914 368.787Z" fill="#FDDF0D"/>
<path d="M82.6033 412.239C81.9294 414.333 80.8342 416.159 79.4021 417.759C80.2586 417.999 81.087 418.226 81.9294 418.413C82.6595 418.626 83.4598 418.799 84.3303 419C89.5253 420.186 96.658 421.812 101.221 426.719C104.591 430.346 106.234 435.733 105.616 441.092L105.574 441.466C107.273 441.333 108.929 441.16 110.53 441C113.914 440.639 116.834 440.333 119.193 440.28C120.246 440.265 121.285 440.226 122.31 440.226C124.556 440.159 126.775 440.093 129.021 440.093C129.766 440.093 130.496 440.119 131.212 440.119C113.914 430.773 97.7531 419.066 83.1791 405.199C83.4879 407.599 83.3334 410 82.6033 412.239Z" fill="#FDDF0D"/>
<path d="M168.235 458.4C169.079 459.933 169.838 461.267 170.51 462.44C171.756 460.893 173.416 459.466 175.634 458.28C172.571 457.399 169.537 456.466 166.503 455.453C166.961 456.173 167.419 456.88 167.834 457.64L168.235 458.4Z" fill="#FDDF0D"/>
<path d="M67.1658 373.44C68.2045 374.787 69.2569 376.12 70.3366 377.454L69.2706 376.094C68.5599 375.214 67.8491 374.32 67.1658 373.44Z" fill="#F78D39"/>
<path d="M55.358 356.44C54.9638 355.839 54.5698 355.253 54.1892 354.639C55.4124 356.626 56.6628 358.572 57.9267 360.493L56.8802 358.854C56.3773 358.067 55.8744 357.28 55.358 356.44Z" fill="#F78D39"/>
<path d="M58.3577 361.147C59.0924 362.24 59.8136 363.307 60.5348 364.387L59.7184 363.12C59.2693 362.454 58.8203 361.84 58.3577 361.147Z" fill="#F78D39"/>
<path d="M47.4051 342.695L46.9041 341.789C47.974 343.842 49.0574 345.829 50.1679 347.814C49.6533 346.869 49.1522 345.934 48.6376 344.974C48.2042 344.214 47.7978 343.482 47.4051 342.695Z" fill="#F78D39"/>
<path d="M220.927 456.974L221.905 457.04L221.335 457L220.927 456.974Z" fill="#F78D39"/>
<path d="M97.8425 405.759L98.7422 406.546L98.4516 406.279L97.8425 405.759Z" fill="#F78D39"/>
<path d="M99.3533 407.04C100.504 408.027 101.655 408.96 102.806 409.893C102.085 409.319 101.378 408.692 100.671 408.106L99.3533 407.04Z" fill="#F78D39"/>
<path d="M92.5645 401.079L92.2463 400.825C93.9894 402.386 95.7324 403.959 97.5032 405.479C96.4656 404.585 95.442 403.639 94.4183 402.719C93.7819 402.185 93.1732 401.653 92.5645 401.079Z" fill="#F78D39"/>
<path d="M217.062 456.627C217.967 456.707 218.856 456.787 219.775 456.839C219.483 456.813 219.192 456.787 218.9 456.761C218.287 456.707 217.66 456.681 217.062 456.627Z" fill="#F78D39"/>
<path d="M424.185 132.919L425.025 134.345C423.947 132.479 422.822 130.612 421.698 128.759L422.125 129.532C422.822 130.652 423.504 131.759 424.185 132.919Z" fill="#F78D39"/>
<path d="M433.088 149.721C432.754 149.041 432.436 148.388 432.134 147.735L432.547 148.615L433.088 149.721Z" fill="#F78D39"/>
<path d="M437.608 159.919C437.321 159.267 437.035 158.612 436.748 157.96C436.971 158.466 437.21 158.972 437.401 159.493L437.608 159.919Z" fill="#F78D39"/>
<path d="M431.545 146.535L431.338 146.148L431.433 146.362L431.545 146.535Z" fill="#F78D39"/>
<path d="M420.604 127.066L420.873 127.453C419.829 125.799 418.786 124.16 417.694 122.532L417.931 122.92C418.849 124.266 419.734 125.693 420.604 127.066Z" fill="#F78D39"/>
<path d="M438.304 161.653L438.24 161.492V161.519L438.304 161.653Z" fill="#F78D39"/>
<path d="M266.53 50.5855C268.759 46.7186 273.695 45.1719 278.399 43.8666C280.306 42.532 282.428 41.6526 284.826 41.7587C282.997 42.5858 280.721 43.1855 278.399 43.8666C277.354 44.6 276.37 45.4394 275.447 46.3589C281.505 44.56 286.379 39.9859 293.298 41.7986C300.048 43.559 305.598 47.8395 310.318 52.5458C315.484 57.7057 321.342 60.1457 327.292 64.36C333.365 68.6389 329.306 73.8925 328.092 78.8525C326.477 85.533 330.413 90.0117 333.365 96.2386C340.93 112 302.185 112.319 292.329 100.573C286.333 93.3866 288.947 85.7852 288.793 78.1591C288.639 71.8523 283.981 69.3723 276.139 65.6254C270.466 62.9055 262.409 57.7057 266.53 50.5855ZM38.7944 163.039C40.0244 161.494 43.3608 160.453 45.3288 161.226L46.1744 161.773C49.1418 164.827 45.6364 174.08 46.8817 178.106C47.712 180.692 49.5263 182.893 50.9869 185.226C51.5865 184.373 52.2168 183.48 52.8933 182.613C54.9997 179.973 57.2598 177.013 59.7044 174.012C60.4732 168.934 62.4873 164.426 66.162 159.773C71.8661 152.505 79.5537 142.106 88.2099 138.306C102.155 132.106 113.594 156.612 128.123 142.693C135.688 135.505 145.805 129.586 156.46 128.4C162.794 127.705 183.182 126.734 182.505 116.746C174.848 116.119 166.346 114.44 163.809 106.159C161.749 99.4121 165.531 92.7331 157.874 88.9463C152.355 86.2664 139.04 88.9063 137.441 80.9051C135.826 73.0392 148.619 66.1066 155.153 63.4267C160.011 54.9059 174.08 48.1055 180.552 45.6931C207.305 35.7331 237.579 35.7593 259.488 55.8791C298.525 91.7199 286.979 167.853 233.704 225.88C222.357 238.2 210.057 248.719 197.327 257.32C203.323 259.399 209.442 261.759 215.654 262.252C222.68 262.774 229.291 259.639 235.749 257.32C232.428 252.68 229.937 247.412 228.984 242.079C225.832 224.759 247.48 230.292 257.12 229.96C263.486 229.759 269.743 228.52 273.787 223.999C276.693 220.746 277.569 216 279.43 211.827C282.335 205.239 291.191 205.226 297.818 204.893C303.691 204.667 311.809 205.452 313.808 198.746C315.084 194.479 312.747 182.067 320.835 187.627C328.445 192.892 328.245 202.305 329.614 209.413L329.721 209.879C341.929 182.826 348.74 152.799 348.74 121.2C348.74 96.3724 344.512 72.5057 336.809 50.3056C307.228 35.052 273.695 26.319 238.117 26.319C145.697 26.319 66.8693 84.4798 36.1653 166.146L37.2262 165.852C37.5337 164.919 38.0102 164 38.7944 163.039Z" fill="#F78D39"/>
<path d="M410.68 112.652C410.224 112.051 409.798 111.439 409.341 110.851L409.893 111.598C410.161 111.944 410.428 112.303 410.68 112.652Z" fill="#F78D39"/>
<path d="M416.287 120.478L417.266 121.865C416.002 120.012 414.739 118.198 413.459 116.358L414.454 117.797C415.055 118.691 415.686 119.571 416.287 120.478Z" fill="#F78D39"/>
<path d="M280.237 278.828C277.59 277.761 274.973 276.747 272.326 276.001L270.77 275.587C270.098 276.241 269.365 276.948 268.542 277.628C265.491 280.135 263.114 280.201 259.39 281.014C257.715 281.375 256.593 281.828 255.591 282.387C254.948 283.002 254.32 283.455 253.692 283.788C252.989 284.442 252.271 285.201 251.404 286.162C248.772 289.081 247.172 289.428 243.089 289.04C240.337 288.801 236.404 286.615 233.727 287.428C231.11 288.267 228.419 292.188 225.786 293.64C220.328 296.64 215.512 297.24 209.471 296.762C205.792 296.48 202.218 297.001 198.584 297.201C198.15 305.974 188.22 309.735 181.804 314.028C174.432 318.947 165.848 332.107 156.994 325.081C139.123 310.868 118.725 308.694 97.6536 316.215C81.1136 322.081 67.1608 324.548 58.4272 306.602C54.6287 298.774 52.0714 290.467 47.9589 282.801C44.3249 276.001 39.3151 270.108 35.5614 263.414C30.1478 253.747 30.1776 241.028 35.5763 231.268L35.5165 231.134C34.0957 227.962 32.2713 225.454 31.6432 221.935C30.9254 217.948 31.7778 214.148 31.8376 210.161C31.8825 206.787 30.7759 204.468 29.9234 201.295C28.084 194.308 31.4936 186.308 31.7778 179.055C25.7211 198.962 22.446 220.081 22.446 241.975C22.446 266.88 26.6633 290.762 34.4398 313.028C63.9905 328.255 97.5341 336.854 133.082 336.854C189.955 336.854 241.683 314.8 280.237 278.828Z" fill="#F78D39"/>
<path d="M113.499 417.96L113.401 417.879L112.202 417.08C113.081 417.679 113.917 418.305 114.781 418.88L113.68 418.093L113.499 417.96Z" fill="#F78D39"/>
<path d="M182.349 450.333L183.067 450.534L182.579 450.386L182.349 450.333Z" fill="#F78D39"/>
<path d="M188.693 451.934C189.326 452.079 189.931 452.213 190.565 452.346L189.787 452.16L188.693 451.934Z" fill="#F78D39"/>
<path d="M175.362 448.359L175.548 448.399L175.476 448.372L175.362 448.359Z" fill="#F78D39"/>
<path d="M172.312 447.387C172.298 447.387 172.283 447.387 172.269 447.373L171.482 447.132C172.584 447.493 173.729 447.854 174.83 448.2C174.215 448.014 173.586 447.786 172.97 447.6C172.77 447.533 172.541 447.466 172.312 447.387Z" fill="#F78D39"/>
<path d="M179.791 449.625L178.815 449.373C179.561 449.559 180.293 449.773 181.025 449.985L180.379 449.786C180.178 449.733 179.992 449.678 179.791 449.625Z" fill="#F78D39"/>
<path d="M177.198 448.893L178.33 449.226L177.613 448.999L177.198 448.893Z" fill="#F78D39"/>
<path d="M204.111 454.96C204.749 455.053 205.387 455.161 206.04 455.279L204.909 455.081L204.111 454.96Z" fill="#F78D39"/>
<path d="M193.228 452.92L192.218 452.72C192.838 452.854 193.459 452.987 194.065 453.108L193.762 453.04L193.228 452.92Z" fill="#F78D39"/>
<path d="M209.801 455.8L211.516 456.001L210.804 455.908L209.801 455.8Z" fill="#F78D39"/>
<path d="M207.545 455.48L208.213 455.574L207.85 455.494L207.545 455.48Z" fill="#F78D39"/>
<path d="M199.225 454.119C199.992 454.28 200.745 454.4 201.497 454.52L200.513 454.334L199.225 454.119Z" fill="#F78D39"/>
<path d="M195.997 453.506C196.603 453.627 197.225 453.746 197.846 453.867L197.109 453.707L195.997 453.506Z" fill="#F78D39"/>
<path d="M183.924 450.759C184.629 450.946 185.347 451.105 186.066 451.305L185.419 451.105L183.924 450.759Z" fill="#F78D39"/>
<path d="M212.964 456.174L213.212 456.187L213.081 456.174H212.964Z" fill="#F78D39"/>
<path d="M130.162 428.679L128.645 427.813C129.825 428.507 131.033 429.213 132.255 429.893L131.328 429.361L130.162 428.679Z" fill="#F78D39"/>
<path d="M169.073 446.333L170.158 446.706L169.944 446.599L169.073 446.333Z" fill="#F78D39"/>
<path d="M125.742 426.065L127.452 427.106L126.653 426.6L125.742 426.065Z" fill="#F78D39"/>
<path d="M121.592 423.439C122.838 424.265 124.127 425.066 125.387 425.839L123.945 424.919C123.161 424.439 122.362 423.972 121.592 423.439Z" fill="#F78D39"/>
<path d="M115.893 419.667C116.745 420.28 117.61 420.868 118.476 421.428L117.261 420.587L115.893 419.667Z" fill="#F78D39"/>
<path d="M119.131 421.854C119.886 422.374 120.655 422.867 121.41 423.361L119.942 422.374L119.131 421.854Z" fill="#F78D39"/>
<path d="M214.951 456.401L216.276 456.56L215.3 456.415L214.951 456.401Z" fill="#F78D39"/>
<path d="M155.625 441.293C157.403 442.013 159.209 442.72 161.03 443.427C159.394 442.8 157.758 442.147 156.137 441.467L155.625 441.293Z" fill="#F78D39"/>
<path d="M149.263 438.521C151.036 439.321 152.824 440.121 154.597 440.88C153.263 440.307 151.944 439.694 150.583 439.08L149.263 438.521Z" fill="#F78D39"/>
<path d="M164.982 444.88C164.383 444.654 163.756 444.467 163.156 444.24C164.597 444.773 166.066 445.294 167.55 445.8C167.165 445.653 166.779 445.506 166.394 445.374L164.982 444.88Z" fill="#F78D39"/>
<path d="M138.7 433.373C139.391 433.734 140.054 434.081 140.731 434.428L140.505 434.306C139.885 434 139.307 433.68 138.7 433.373Z" fill="#F78D39"/>
<path d="M134.68 431.268C135.652 431.787 136.637 432.294 137.623 432.8L136.229 432.041L134.68 431.268Z" fill="#F78D39"/>
<path d="M144.108 436.08C144.235 436.132 144.334 436.186 144.447 436.253L144.32 436.173C144.249 436.146 144.179 436.119 144.108 436.08Z" fill="#F78D39"/>
<path d="M51.3286 349.76C52.2376 351.36 53.1738 352.961 54.1235 354.533C53.6351 353.707 53.133 352.879 52.6717 352.053C52.2104 351.28 51.7763 350.533 51.3286 349.76Z" fill="#F78D39"/>
<path d="M445.835 183.894L445.867 183.974L445.372 182.228L445.42 182.428L445.835 183.894Z" fill="#F78D39"/>
<path d="M451.322 209.413L451.242 208.988L451.29 209.333L451.322 209.413Z" fill="#F78D39"/>
<path d="M450.366 203.586L450.27 203.106L450.286 203.2L450.366 203.586Z" fill="#F78D39"/>
<path d="M453.191 226.014L453.063 224.441L453.143 225.64L453.191 226.014Z" fill="#F78D39"/>
<path d="M450.539 204.492L450.379 203.719L450.475 204.279L450.539 204.492Z" fill="#F78D39"/>
<path d="M441.281 169.52C441.074 168.906 440.851 168.307 440.628 167.707L441.01 168.814L441.281 169.52Z" fill="#F78D39"/>
<path d="M444.142 178.106L444.302 178.572C443.999 177.613 443.695 176.666 443.392 175.72C443.616 176.412 443.807 177.065 444.015 177.745L444.142 178.106Z" fill="#F78D39"/>
<path d="M453.713 236.799L453.665 235.8V236.04L453.713 236.799Z" fill="#F78D39"/>
<path d="M440.564 167.521L440.198 166.52L440.293 166.827L440.564 167.521Z" fill="#F78D39"/>
<path d="M84.0924 152.226C103.783 143.534 119.975 178.146 140.511 158.534C151.18 148.32 165.507 139.96 180.548 138.279C189.526 137.28 218.297 135.946 217.364 121.827C206.535 120.906 194.526 118.533 190.94 106.814C188.025 97.2674 193.36 87.8404 182.545 82.506C174.762 78.7064 155.932 82.4667 153.643 71.1465C153.104 68.4662 153.745 65.8674 155.145 63.4262C148.615 66.1065 135.818 73.0397 137.436 80.9072C139.039 88.9058 152.346 86.2663 157.87 88.9467C165.522 92.7332 161.747 99.4128 163.802 106.159C166.338 114.441 174.85 116.12 182.501 116.747C183.172 126.733 162.796 127.707 156.456 128.401C145.802 129.587 135.687 135.506 128.123 142.694C113.592 156.613 102.151 132.107 88.2025 138.307C79.5451 142.107 71.8641 152.506 66.1654 159.774C62.4779 164.427 60.4666 168.933 59.6941 174.014C66.69 165.346 74.9977 156.24 84.0924 152.226Z" fill="#F47321"/>
<path d="M53.4814 197.989C55.1237 203.134 59.5684 203.134 63.6968 205.507C71.8179 210.214 69.0305 220.681 79.5472 223.148C85.6041 224.561 89.883 226.922 93.9963 231.734C96.407 234.522 98.9534 239.309 102.615 240.681C107.722 242.641 112.725 239.147 117.742 241.575C122.774 244.041 126.044 249.028 130.549 252.241C135.43 255.695 143.039 256.281 148.915 256.881C155.469 257.535 160.05 255.682 166.182 254.401C174.152 252.762 183.63 253.148 191.359 255.361C193.348 255.949 195.321 256.614 197.31 257.321C210.042 248.721 222.337 238.201 233.682 225.881C286.974 167.855 298.515 91.722 259.477 55.8823C237.569 35.7619 207.285 35.7363 180.541 45.6955C174.062 48.1093 159.99 54.909 155.138 63.4293C153.737 65.8686 153.104 68.4692 153.631 71.1481C155.937 82.4679 174.755 78.7086 182.545 82.5085C193.363 87.8422 188.029 97.2696 190.922 106.816C194.508 118.535 206.531 120.908 217.349 121.829C218.283 135.948 189.521 137.281 180.541 138.282C165.504 139.962 151.175 148.322 140.508 158.535C119.972 178.149 103.775 143.536 84.0823 152.229C74.9969 156.242 66.6801 165.348 59.689 174.015C57.2482 177.014 54.9881 179.975 52.8938 182.615C52.2157 183.481 51.5829 184.375 50.9802 185.229C51.4925 186.055 51.9897 186.936 52.3362 187.869C53.6169 191.308 52.3815 194.588 53.4814 197.989Z" fill="#F8A14F"/>
<path d="M450.346 203.546L450.474 204.28L450.378 203.72L450.362 203.586L450.282 203.2L450.346 203.546Z" fill="#F47321"/>
<path d="M155.572 441.253L155.629 441.293L156.14 441.466L155.572 441.253Z" fill="#F47321"/>
<path d="M445.384 182.227L445.288 181.946L445.432 182.427L445.384 182.227Z" fill="#F47321"/>
<path d="M453.213 226.479L453.197 226.011L453.148 225.638L453.213 226.479Z" fill="#F47321"/>
<path d="M70.3353 377.453L70.5539 377.706C70.1302 377.173 69.7064 376.639 69.269 376.093L70.3353 377.453Z" fill="#F47321"/>
<path d="M185.424 451.106L186.057 451.306L186.675 451.453L186.086 451.306L185.424 451.106Z" fill="#F47321"/>
<path d="M60.5364 364.387L60.686 364.587C60.8221 364.8 60.9855 365.001 61.1216 365.201C60.6588 364.494 60.1825 363.814 59.7197 363.121L60.5364 364.387Z" fill="#F47321"/>
<path d="M437.617 159.971L437.777 160.345L438.238 161.519V161.492L437.617 159.919L437.41 159.492L437.617 159.971Z" fill="#F47321"/>
<path d="M422.134 129.531L421.691 128.757L420.884 127.452L420.615 127.066C421.137 127.877 421.643 128.705 422.134 129.531Z" fill="#F47321"/>
<path d="M104.753 350.067L106.531 350.973C103.397 347.88 100.542 344.613 98.0157 341.186C104.613 344.694 110.508 346.854 115.031 351.706C119.398 356.36 124.997 357.52 132.047 358.027C140.968 358.72 148.423 362.333 156.003 366.173C163.209 369.84 166.312 368.533 174.5 367.574C183.5 366.533 191.968 366.373 200.656 368.746C209.234 371.106 217.999 374.667 227.326 374.107C235.326 373.627 243.187 371.133 250.923 368.987C253.855 361.639 255.29 353.654 259.204 346.653C264.741 336.774 273.803 330.414 283.691 325.413C298.866 317.827 321.372 314.267 326.425 295.56L327.205 292.44C331.775 282.799 344.985 266.84 356.791 275.201C362.078 278.933 363.638 285.68 366.04 291.533C373.604 279.08 379.874 265.787 384.818 251.826C374.696 258.761 360.628 260.306 349.991 253.28C332.991 242.054 350.506 218.187 355.824 205.12C359.365 196.465 361.985 187.12 360.41 177.694C359.255 170.906 355.637 165.586 353.048 159.387C348.993 149.679 354.155 137.879 357.758 128.813C360.971 120.787 366.43 110.734 361.735 102.132C358.741 96.6267 346.544 88.6538 356.121 82.8941C363.529 78.4662 370.298 83.3869 376.349 87.8132C373.167 81.0927 369.674 74.5858 365.837 68.2662C369.471 70.9472 372.996 73.7592 376.458 76.654C375.569 75.9069 374.712 75.0928 373.807 74.3597L372.871 73.6002C371.156 72.2402 369.44 70.8661 367.693 69.5997L367.584 69.5201C365.759 68.1196 363.872 66.7736 361.985 65.4401L361.236 64.9067C359.583 63.7604 357.883 62.6125 356.183 61.5067L355.419 60.9734C351.566 58.52 347.652 56.1322 343.675 53.8801L342.692 53.3467C340.758 52.2675 338.762 51.3192 336.797 50.3069C344.517 72.5069 348.743 96.3725 348.743 121.2C348.743 152.8 341.928 182.826 329.731 209.88C331.322 217.507 337.732 230.16 330.636 231.6C316.053 234.627 309.129 246.307 308.692 264.04C308.38 277.96 306.352 288.267 291.598 283.28C287.824 282.001 284.003 280.346 280.244 278.827C241.705 314.8 189.957 336.853 133.092 336.853C97.5323 336.853 63.9844 328.254 34.4448 313.027C36.254 318.267 38.3127 323.412 40.5274 328.466L40.5586 328.559C41.51 330.733 42.5862 332.812 43.5999 334.933C44.5357 335.707 45.4715 336.453 46.4385 337.24C57.4964 350.413 70.1138 362.24 83.9946 372.48C108.356 384.853 135.385 392.734 163.988 395C163.224 394.654 162.445 394.226 161.618 393.68C158.265 391.48 156.455 389.012 152.073 388.293C147.238 387.506 146.224 389.12 142.465 386.054C139.752 383.839 138.878 380.76 136.804 378.252L135.837 377.253L135.743 377.187L135.354 376.827L134.511 376.12C132.499 374.653 130.253 373.773 127.914 372.107C118.899 365.733 110.852 358.386 104.753 350.067Z" fill="#F47321"/>
<path d="M407.79 108.96L407.774 108.92C405.288 105.719 402.691 102.586 400 99.5331L399.103 98.4803C397.718 96.9474 396.317 95.4272 394.917 93.9337L394.602 93.6001C393.028 91.9603 391.455 90.333 389.849 88.7467L389.11 88.0275C387.709 86.6536 386.277 85.3065 384.845 83.961L384.042 83.2135C382.374 81.6806 380.611 80.2674 378.912 78.7865C389.472 87.8937 399.182 97.9735 407.79 108.96Z" fill="#F47321"/>
<path d="M162.577 444L163.176 444.239C163.76 444.466 164.387 444.652 164.985 444.879C164.202 444.585 163.375 444.319 162.577 444Z" fill="#F47321"/>
<path d="M204.518 455L203.272 454.826L204.112 454.96L204.909 455.08L204.518 455Z" fill="#F47321"/>
<path d="M428.331 140.293C428.204 140.066 428.093 139.84 427.966 139.627C428.315 140.293 428.664 140.946 429.045 141.653L428.331 140.293Z" fill="#F47321"/>
<path d="M417.918 122.922L417.681 122.535L417.254 121.868L416.259 120.481C416.796 121.268 417.365 122.094 417.918 122.922Z" fill="#F47321"/>
<path d="M425.763 135.653C425.541 135.254 425.319 134.84 425.098 134.441L425.018 134.347L424.178 132.919C424.701 133.813 425.224 134.734 425.763 135.653Z" fill="#F47321"/>
<path d="M119.562 422.12L118.696 421.519L117.271 420.586L118.487 421.427L119.143 421.853L119.954 422.373L119.562 422.12Z" fill="#F47321"/>
<path d="M413.446 116.36L412.752 115.467C413.304 116.24 413.888 117.028 414.44 117.801L413.446 116.36Z" fill="#F47321"/>
<path d="M169.936 446.601L170.151 446.707L171.48 447.134L172.266 447.374C171.494 447.12 170.694 446.867 169.936 446.601Z" fill="#F47321"/>
<path d="M179.083 449.428L177.592 449L178.323 449.227L178.796 449.373L179.786 449.627C179.542 449.561 179.313 449.494 179.083 449.428Z" fill="#F47321"/>
<path d="M441.02 168.812L440.638 167.706L440.574 167.519L440.303 166.826C440.542 167.465 440.781 168.146 441.02 168.812Z" fill="#F47321"/>
<path d="M219.866 456.854L220.946 456.973L221.34 457L219.866 456.854Z" fill="#F47321"/>
<path d="M432.544 148.615L432.131 147.734L431.543 146.535L431.432 146.361C431.813 147.121 432.179 147.88 432.544 148.615Z" fill="#F47321"/>
<path d="M409.325 110.856L408.522 109.841C408.443 109.736 408.349 109.641 408.27 109.536C408.805 110.229 409.341 110.908 409.876 111.602L409.325 110.856Z" fill="#F47321"/>
<path d="M131.336 429.36L132.263 429.893L132.994 430.293L131.743 429.572L131.336 429.36Z" fill="#F47321"/>
<path d="M125.625 425.919L124.293 425.133L123.943 424.92L125.386 425.839L125.737 426.066L126.648 426.6L125.625 425.919Z" fill="#F47321"/>
<path d="M434.937 153.734C434.825 153.507 434.714 153.268 434.619 153.041C434.825 153.507 435.032 153.975 435.239 154.441L434.937 153.734Z" fill="#F47321"/>
<path d="M98.446 406.279L98.7369 406.545L99.3603 407.038L100.676 408.106C99.9283 407.505 99.1941 406.893 98.446 406.279Z" fill="#F47321"/>
<path d="M212.078 456.039L210.812 455.907L211.525 456L212.965 456.173H213.081L212.078 456.039Z" fill="#F47321"/>
<path d="M110.841 416.054C111.078 416.24 111.328 416.427 111.565 416.6L112.206 417.08L113.39 417.88C112.526 417.28 111.663 416.654 110.841 416.054Z" fill="#F47321"/>
<path d="M186.082 451.307L186.658 451.454L187.623 451.681L187.796 451.72L188.688 451.935L189.783 452.161C188.544 451.894 187.32 451.587 186.082 451.307Z" fill="#F25724"/>
<path d="M180.371 449.787L181.003 449.988L182.338 450.334L182.567 450.387C181.835 450.2 181.103 449.988 180.371 449.787Z" fill="#F25724"/>
<path d="M193.221 452.921L193.756 453.041L194.074 453.107C194.363 453.174 194.651 453.24 194.955 453.306L195.157 453.347L195.98 453.507L197.107 453.707C195.807 453.454 194.521 453.201 193.221 452.921Z" fill="#F25724"/>
<path d="M453.669 235.801L453.653 235.12L453.669 236.039V235.801Z" fill="#F25724"/>
<path d="M172.97 447.6C173.586 447.788 174.201 448.014 174.817 448.202L175.346 448.36L175.461 448.373C174.63 448.134 173.8 447.868 172.97 447.6Z" fill="#F25724"/>
<path d="M231.534 457.519C233.738 457.599 235.913 457.639 238.118 457.639C235.722 457.639 233.341 457.586 230.975 457.505L231.534 457.519Z" fill="#F25724"/>
<path d="M445.91 184.146L445.863 183.973L445.846 183.893L445.91 184.146Z" fill="#F25724"/>
<path d="M376.347 87.815C377.71 88.8027 379.026 89.776 380.31 90.575C387.776 95.4021 403.28 98.0288 400.332 108.962C394.434 130.989 400.585 150.548 415.867 166.908C420.29 171.615 424.095 176.188 426.567 180.841C424.475 155.363 417.975 131.175 407.782 108.962C399.174 97.9749 389.457 87.8959 378.899 78.7886C378.09 78.0816 377.282 77.3492 376.442 76.6549C372.986 73.7618 369.467 70.9496 365.821 68.2689C369.657 74.5893 373.16 81.0951 376.347 87.815Z" fill="#F25724"/>
<path d="M215.319 456.412L216.296 456.559L217.069 456.626C217.666 456.679 218.308 456.706 218.905 456.759C217.71 456.652 216.5 456.546 215.319 456.412Z" fill="#F25724"/>
<path d="M224.75 457.215C225.584 457.267 226.388 457.294 227.208 457.334C225.789 457.267 224.384 457.187 222.965 457.08L224.75 457.215Z" fill="#F25724"/>
<path d="M384.677 306.092C388.752 307.719 392.146 309.906 394.841 312.507C415.218 279.8 427.079 241.227 427.285 199.907C426.222 202.107 424.7 204.359 422.702 206.72C417.057 213.293 410.445 218.973 405.053 225.814C400.28 231.839 396.839 238.786 392.225 244.893C390.164 247.599 387.627 249.919 384.82 251.827C379.872 265.786 373.609 279.08 366.045 291.533C366.648 292.933 367.25 294.32 368.011 295.56C372.055 302.441 377.684 303.4 384.677 306.092Z" fill="#F25724"/>
<path d="M450.296 203.2L450.28 203.105L450.12 202.305L450.344 203.545L450.296 203.2Z" fill="#F25724"/>
<path d="M196.815 413.827C196.844 410.252 197.683 406.866 199.476 403.879C197.336 404.346 195.196 404.999 193.417 405.093C188.342 405.505 186.318 405.16 183.021 402.226C179.623 399.213 178.206 397.986 173.044 397.093C169.401 396.439 166.783 396.266 163.993 394.999C135.378 392.733 108.353 384.853 83.9893 372.479C116.002 396.039 154.753 410.959 196.815 413.827Z" fill="#F25724"/>
<path d="M212.081 456.04C210.671 455.88 209.261 455.694 207.851 455.493L208.215 455.573L209.799 455.8L210.817 455.906L212.081 456.04Z" fill="#F25724"/>
<path d="M131.733 429.574L130.16 428.681L131.34 429.36L131.733 429.574Z" fill="#F25724"/>
<path d="M200.504 454.334L201.49 454.521L203.272 454.827L204.518 455C203.185 454.801 201.837 454.56 200.504 454.334Z" fill="#F25724"/>
<path d="M426.577 180.84C429.781 186.907 430.614 193.094 427.281 199.907C427.073 241.227 415.219 279.799 394.842 312.506C400.545 317.986 403.188 325.373 402.884 333.067C409.708 329.094 408.811 321.293 417.221 317.4C422.364 315.013 427.938 315.013 429.989 309.88C431.35 306.494 429.781 303.2 431.398 299.746C433.065 296.293 436.829 293.56 438.223 290.013C439.793 285.973 435.419 276.706 439.104 273.68L440.177 273.106C442.628 272.319 446.793 273.401 448.331 274.907C449.661 276.199 450.318 277.441 450.638 278.679C452.688 266.786 453.778 254.48 453.778 241.972C453.778 240.253 453.746 238.52 453.714 236.8L453.666 236.04V235.119C453.601 233.959 453.585 232.814 453.505 231.64C453.505 230.973 453.441 230.334 453.409 229.68C453.345 228.614 453.281 227.547 453.201 226.48L453.137 225.64L453.057 224.441C452.977 223.414 452.881 222.334 452.784 221.28C452.704 220.626 452.64 219.973 452.576 219.319C452.448 218.146 452.32 216.934 452.176 215.747L452.112 215.213L452.016 214.279C451.791 212.666 451.567 211.04 451.327 209.413L451.295 209.334L451.247 208.987L451.038 207.614C450.862 206.547 450.702 205.56 450.542 204.493L450.478 204.28L450.334 203.546L450.109 202.306C449.949 201.427 449.773 200.533 449.597 199.614C449.453 198.867 449.292 198.066 449.1 197.307C448.956 196.466 448.764 195.613 448.571 194.787C448.411 193.986 448.219 193.187 448.027 192.413C447.834 191.586 447.642 190.787 447.45 189.986L447.37 189.747L447.114 188.667L446.841 187.561C446.649 186.827 446.457 186.108 446.265 185.387L446.008 184.493L445.912 184.147L445.848 183.894L445.432 182.426L445.287 181.946L444.951 180.826L444.807 180.334C444.631 179.721 444.47 179.147 444.294 178.574L444.134 178.107L444.022 177.747C443.798 177.066 443.605 176.413 443.397 175.72L442.82 174.013C442.516 173.04 442.18 172.079 441.843 171.107L441.283 169.519L441.01 168.813C440.77 168.147 440.546 167.466 440.305 166.826L440.193 166.521L439.681 165.213C439.28 164.134 438.88 163.067 438.447 162.013L438.303 161.654L438.239 161.519L437.758 160.347L437.614 159.973L437.406 159.493C437.198 158.974 436.957 158.466 436.749 157.96C436.301 156.88 435.852 155.8 435.371 154.746L435.243 154.44C435.035 153.972 434.827 153.506 434.618 153.04C434.154 152.013 433.689 150.974 433.209 149.972L433.097 149.719L432.552 148.612C432.183 147.88 431.815 147.119 431.447 146.36L431.35 146.147L431.062 145.573C430.469 144.386 429.861 143.199 429.252 142.027L429.044 141.654C428.675 140.947 428.307 140.293 427.97 139.627C427.234 138.293 426.497 136.973 425.76 135.653C425.231 134.733 424.702 133.814 424.174 132.92C423.501 131.76 422.812 130.653 422.123 129.533C421.627 128.707 421.13 127.88 420.601 127.066C419.736 125.693 418.839 124.266 417.926 122.92C417.382 122.094 416.805 121.267 416.276 120.479C415.667 119.572 415.043 118.693 414.45 117.799C413.889 117.027 413.313 116.24 412.752 115.466L412.72 115.426C412.063 114.494 411.358 113.573 410.669 112.653C410.413 112.306 410.157 111.947 409.884 111.599C409.356 110.906 408.811 110.227 408.266 109.533C408.106 109.32 407.93 109.132 407.786 108.919V108.959C417.974 131.174 424.478 155.36 426.577 180.84Z" fill="#EF3228"/>
<path d="M308.679 428.985C296.808 431.76 285.093 428.866 273.128 428.946C262.289 428.999 254.046 432.866 244.975 438.412C236.951 443.306 228.458 448.839 218.683 445.839C207.297 442.28 196.708 426.986 196.818 413.826C154.76 410.959 116.003 396.038 84.0025 372.479C70.1137 362.239 57.5073 350.412 46.4495 337.239C45.4798 336.453 44.5415 335.705 43.603 334.932C44.6197 337.066 45.5737 339.226 46.6685 341.318L46.9187 341.786L47.4192 342.692C47.8102 343.478 48.217 344.212 48.6549 344.972C49.171 345.932 49.6715 346.866 50.1876 347.812L50.4536 348.266C50.7351 348.773 51.0322 349.253 51.3294 349.76C51.7829 350.532 52.221 351.278 52.6745 352.052C53.1438 352.878 53.6442 353.706 54.1291 354.533L54.1915 354.639C54.5669 355.253 54.9736 355.839 55.3646 356.44C55.8807 357.28 56.3813 358.066 56.8975 358.853L57.9297 360.492L58.3676 361.146C58.8212 361.839 59.2748 362.452 59.7284 363.118C60.1976 363.813 60.6668 364.493 61.136 365.2C62.919 367.732 64.7177 370.239 66.5946 372.706L67.1732 373.439C67.8457 374.318 68.5652 375.213 69.2847 376.092C69.707 376.639 70.1293 377.173 70.5516 377.706C72.3503 379.946 74.2115 382.132 76.1196 384.305L76.7139 384.999C78.1998 386.667 79.6701 388.293 81.2185 389.893V389.92L81.4843 390.186C83.1109 391.919 84.7375 393.6 86.4424 395.266L87.0055 395.826L87.1775 395.985C88.6321 397.426 90.1022 398.799 91.6037 400.213L92.2451 400.826L92.5735 401.079C93.1678 401.652 93.7778 402.185 94.419 402.718C95.4357 403.638 96.468 404.586 97.5002 405.479L97.8444 405.759L98.4543 406.278C99.1894 406.893 99.9245 407.506 100.675 408.107C101.379 408.693 102.099 409.319 102.818 409.893L103.756 410.653C106.071 412.506 108.449 414.278 110.857 416.052C111.671 416.653 112.531 417.28 113.391 417.879L113.5 417.959L113.673 418.093L114.783 418.878L115.909 419.667L117.27 420.586L118.709 421.518L119.569 422.119L119.96 422.372L121.43 423.359L121.587 423.439C122.353 423.972 123.151 424.44 123.948 424.919L124.292 425.133L125.622 425.92L126.654 426.6L127.452 427.107L128.656 427.812L130.173 428.679L131.737 429.572L133.004 430.293L133.317 430.479L133.818 430.773L134.693 431.266L136.242 432.038L137.634 432.798C137.994 433 138.353 433.186 138.713 433.372C139.323 433.679 139.902 434 140.512 434.306L140.746 434.426L141.872 434.999C142.623 435.373 143.39 435.718 144.125 436.08C144.187 436.119 144.25 436.145 144.312 436.172L144.453 436.252C145.235 436.626 146.017 437.012 146.815 437.386L147.096 437.533L148.379 438.119C148.676 438.252 148.989 438.385 149.27 438.52L150.6 439.08C151.961 439.693 153.274 440.306 154.604 440.88L155.48 441.199L155.574 441.252L156.137 441.466C157.763 442.145 159.406 442.799 161.032 443.426L162.565 444C163.378 444.319 164.191 444.587 164.989 444.879L166.397 445.372C166.788 445.506 167.179 445.653 167.554 445.799C168.055 445.972 168.54 446.16 169.056 446.332H169.071L169.947 446.6C170.698 446.865 171.511 447.119 172.278 447.372C172.293 447.386 172.309 447.386 172.325 447.386C172.544 447.466 172.778 447.533 172.981 447.599C173.826 447.866 174.655 448.132 175.484 448.372L175.547 448.4L177.204 448.892L177.611 448.999L179.097 449.426C179.332 449.493 179.551 449.559 179.801 449.626C180.004 449.679 180.192 449.732 180.379 449.786C181.115 449.986 181.85 450.2 182.585 450.386L183.085 450.533L183.914 450.76L185.431 451.106L186.088 451.306C187.324 451.586 188.559 451.892 189.795 452.16L190.577 452.346L192.235 452.72L193.236 452.92C194.534 453.2 195.817 453.453 197.115 453.705L197.85 453.866L199.242 454.119L200.524 454.332C201.854 454.559 203.199 454.798 204.528 455L204.919 455.08L206.046 455.278L207.563 455.479L207.86 455.493C209.267 455.693 210.675 455.879 212.098 456.039L213.084 456.173L213.225 456.186L214.976 456.4L215.32 456.412C216.509 456.545 217.698 456.653 218.902 456.76C219.199 456.786 219.496 456.813 219.778 456.839C219.778 456.839 219.794 456.839 219.809 456.839L219.872 456.852L221.342 456.999L221.921 457.04L222.984 457.079C224.392 457.187 225.815 457.266 227.223 457.332C227.661 457.346 228.114 457.373 228.552 457.399L229.068 457.426C229.725 457.452 230.351 457.506 230.977 457.506C233.338 457.585 235.716 457.639 238.124 457.639C298.372 457.639 352.879 432.88 392.011 393.026C390.244 393.345 388.633 393.572 387.742 393.666C385.552 393.905 381.892 392.773 380.203 393.426C378.232 394.199 377.325 397.799 375.495 399.146C372.805 401.106 368.504 402.132 365 402.506C361.935 402.773 357.117 401.4 354.333 402.399C351.565 403.425 351.675 406.119 349.219 407.306C346.67 408.52 343.526 408.358 340.398 407.919C331.592 417.399 321.582 425.959 308.679 428.985Z" fill="#EF3228"/>
<path d="M412.861 383.813L413.826 382.613C410.225 383.067 406.591 383.573 403.778 385.573C401.688 387.079 401.977 389.48 400.064 390.84C398.826 391.694 395.161 392.493 392.009 393.026C352.878 432.88 298.361 457.64 238.12 457.64C235.917 457.64 233.731 457.6 231.528 457.519L230.965 457.507C230.338 457.507 229.711 457.454 229.052 457.426L228.554 457.4C228.12 457.373 227.654 457.346 227.22 457.333C226.4 457.293 225.596 457.267 224.76 457.212L222.975 457.079L221.914 457.039L220.933 456.973L219.856 456.854L219.808 456.839C219.792 456.839 219.776 456.839 219.776 456.839C218.859 456.786 217.959 456.706 217.059 456.627L216.287 456.56L214.969 456.4L213.216 456.187L212.959 456.172L211.528 456L209.808 455.799L208.216 455.573L207.557 455.479L206.046 455.28C205.387 455.159 204.76 455.053 204.117 454.96L203.265 454.827L201.496 454.519C200.757 454.4 199.985 454.28 199.229 454.119L197.847 453.867C197.22 453.746 196.609 453.627 195.998 453.507L195.162 453.346L194.969 453.306C194.663 453.24 194.358 453.172 194.069 453.106C193.458 452.986 192.847 452.852 192.236 452.72L190.564 452.346C189.937 452.212 189.326 452.079 188.699 451.933L187.799 451.72L187.638 451.68L186.673 451.454L186.062 451.306C185.339 451.106 184.615 450.946 183.908 450.759L183.072 450.534L182.348 450.333L181.014 449.986C180.291 449.774 179.551 449.56 178.811 449.373L178.329 449.227L177.188 448.892L175.532 448.401L175.355 448.36L174.84 448.2C173.731 447.852 172.59 447.494 171.48 447.132L170.146 446.706L169.069 446.333H169.053C168.538 446.159 168.04 445.973 167.557 445.799C166.078 445.293 164.599 444.774 163.168 444.24L162.574 444L161.03 443.426C159.214 442.721 157.413 442.013 155.628 441.293L155.564 441.253L155.467 441.2L154.599 440.88C152.831 440.119 151.046 439.32 149.278 438.52C148.972 438.386 148.667 438.253 148.378 438.119L147.091 437.534L146.802 437.386C145.998 437.013 145.226 436.626 144.439 436.253C144.342 436.187 144.23 436.132 144.117 436.079C143.378 435.719 142.622 435.373 141.866 435L140.741 434.426C140.066 434.079 139.391 433.733 138.715 433.373C138.346 433.187 137.992 433 137.638 432.799C136.641 432.293 135.661 431.786 134.68 431.267L133.812 430.774L133.313 430.479L132.992 430.293L132.252 429.893C131.03 429.213 129.841 428.507 128.651 427.812L127.445 427.106L125.741 426.066L125.387 425.84C124.117 425.066 122.831 424.267 121.577 423.439L121.416 423.36C120.661 422.867 119.905 422.373 119.133 421.852L118.49 421.426C117.622 420.867 116.754 420.28 115.902 419.666L114.777 418.88C113.908 418.306 113.072 417.679 112.204 417.079L111.561 416.6C111.32 416.426 111.079 416.24 110.854 416.053C108.442 414.28 106.079 412.507 103.748 410.653L102.799 409.893C101.658 408.96 100.5 408.026 99.3585 407.039L98.7316 406.545L97.8312 405.759L97.4937 405.48C95.7252 403.96 93.9728 402.386 92.2526 400.827L91.5934 400.213C90.0982 398.8 88.6352 397.427 87.1722 395.986L87.0114 395.827L86.4327 395.266C84.7446 393.6 83.1047 391.92 81.4648 390.187L81.2236 389.92L81.2076 389.893C79.6803 388.293 78.1851 386.666 76.7061 385.001L76.1112 384.306C74.198 382.132 72.3331 379.946 70.5486 377.706L70.3394 377.452C69.2623 376.12 68.2013 374.787 67.1724 373.44L66.5935 372.706C64.7125 370.24 62.9119 367.734 61.1273 365.2C60.9987 364.999 60.8379 364.8 60.6932 364.586L60.5324 364.387C59.825 363.306 59.1016 362.239 58.362 361.145L57.9281 360.493C56.658 358.573 55.4039 356.626 54.1982 354.639L54.1338 354.533C53.1852 352.959 52.2528 351.359 51.3203 349.76C51.0309 349.253 50.7255 348.773 50.4522 348.266L50.1789 347.813C49.0696 345.826 47.9764 343.84 46.9153 341.787L46.658 341.319C45.5647 339.226 44.6162 337.067 43.6033 334.933C42.5905 332.813 41.5134 330.732 40.5648 328.56L40.5327 328.466C38.314 323.413 36.2561 318.266 34.4394 313.027C26.6742 290.76 22.462 266.879 22.462 241.973C22.462 220.079 25.7256 198.96 31.7867 179.053L31.8189 177.986C31.7867 174.079 30.9829 171.107 33.7321 167.734C34.2787 167.094 35.1629 166.52 36.1597 166.147C66.8669 84.4801 145.693 26.3197 238.12 26.3197C273.698 26.3197 307.219 35.0527 336.801 50.3066C338.762 51.3195 340.772 52.2665 342.701 53.3469L343.666 53.879C347.653 56.133 351.56 58.5188 355.418 60.9722L356.174 61.506C357.894 62.6121 359.582 63.7599 361.238 64.9062L361.977 65.44C363.875 66.7728 365.772 68.1201 367.588 69.5187L367.701 69.5991C369.453 70.866 371.158 72.239 372.878 73.5991L373.81 74.3595C374.711 75.0927 375.563 75.9062 376.463 76.6522C377.283 77.3467 378.103 78.0798 378.907 78.7856C380.627 80.2663 382.379 81.6795 384.051 83.2132L384.839 83.9592C386.286 85.3065 387.717 86.6521 389.116 88.0267L389.839 88.7453C391.463 90.3337 393.038 91.9592 394.614 93.599L394.919 93.9333C396.334 95.4269 397.733 96.9462 399.099 98.48L400 99.533C402.685 102.586 405.289 105.72 407.781 108.919C407.926 109.133 408.119 109.319 408.279 109.533C408.36 109.639 408.44 109.732 408.521 109.84L409.341 110.853C409.791 111.44 410.225 112.052 410.675 112.654C411.366 113.573 412.057 114.493 412.733 115.427L412.749 115.465L413.44 116.359C414.742 118.2 415.996 120.012 417.267 121.866L417.684 122.533C418.778 124.16 419.839 125.8 420.868 127.452L421.688 128.76C422.813 130.613 423.939 132.48 425.016 134.346L425.096 134.44C425.321 134.84 425.546 135.253 425.771 135.653C426.495 136.973 427.234 138.293 427.974 139.626C428.086 139.84 428.199 140.067 428.327 140.293L429.051 141.653L429.26 142.026C429.855 143.2 430.466 144.386 431.061 145.573L431.35 146.147L431.559 146.533L432.138 147.734C432.443 148.386 432.765 149.039 433.102 149.719L433.199 149.973C433.681 150.973 434.147 152.013 434.614 153.039C434.726 153.266 434.839 153.505 434.935 153.734L435.241 154.439L435.385 154.746C435.852 155.8 436.302 156.88 436.752 157.96C437.025 158.613 437.331 159.266 437.604 159.92L438.231 161.492L438.295 161.653L438.44 162.013C438.89 163.066 439.292 164.132 439.694 165.213L440.192 166.52L440.562 167.52L440.626 167.706C440.852 168.306 441.077 168.906 441.286 169.52L441.848 171.107C442.186 172.079 442.508 173.039 442.813 174.013L443.392 175.719C443.681 176.666 443.987 177.613 444.292 178.573C444.469 179.147 444.63 179.719 444.806 180.333L444.951 180.827L445.289 181.946L445.385 182.227L445.868 183.973L445.916 184.147L446.012 184.492L446.253 185.386C446.462 186.106 446.639 186.827 446.848 187.56L447.105 188.666L447.379 189.746L447.459 189.986C447.652 190.786 447.829 191.585 448.038 192.413C448.215 193.187 448.408 193.986 448.569 194.786C448.762 195.613 448.954 196.466 449.099 197.306C449.292 198.066 449.453 198.867 449.597 199.613C449.774 200.532 449.951 201.426 450.112 202.306L450.273 203.106L450.369 203.587L450.385 203.719L450.546 204.494C450.707 205.56 450.851 206.547 451.028 207.613L451.253 208.986L451.334 209.413C451.559 211.039 451.8 212.666 452.025 214.28L452.106 215.212L452.186 215.746C452.331 216.933 452.443 218.146 452.572 219.32C452.652 219.973 452.7 220.627 452.781 221.28C452.893 222.333 452.974 223.413 453.054 224.441L453.199 226.013V226.479C453.279 227.547 453.359 228.613 453.408 229.68C453.44 230.333 453.504 230.973 453.52 231.64C453.585 232.814 453.601 233.96 453.665 235.119V235.799L453.713 236.799C453.745 238.519 453.777 240.252 453.777 241.973C453.777 254.479 452.684 266.786 450.626 278.68C450.916 279.76 450.932 280.813 450.884 281.959C452.572 282.267 454.228 282.959 455.064 283.786C457.99 286.693 457.7 289.267 457.524 292.4C461.253 276.053 463.167 259.159 463.167 241.973C463.167 199.746 451.575 159.293 430 124.226C424.115 114.666 417.459 105.533 410.128 96.853C406.061 92.0524 401.8 87.3466 397.251 82.8531C395.305 80.8659 393.312 78.9995 391.318 77.12C383.762 70.1201 375.836 63.6522 367.556 57.813C359.807 52.3066 351.72 47.3726 343.425 42.9466C338.714 40.4788 333.939 38.146 329.068 35.9997C319.598 31.7988 309.872 28.2924 299.872 25.466C294.791 24.04 289.663 22.773 284.486 21.667C282.267 21.2393 280.065 20.7859 277.862 20.413C272.525 19.4789 267.171 18.7329 261.737 18.1461C256.978 17.667 252.171 17.3198 247.332 17.1188C244.277 16.9998 241.207 16.9066 238.12 16.9066C234.663 16.9066 231.207 17.0256 227.734 17.159C224.068 17.3198 220.387 17.5738 216.737 17.9066L216.175 17.987C205.274 19.04 194.519 20.8391 183.988 23.4258C179.615 24.5191 175.307 25.7328 170.982 27.0656C167.268 28.2264 163.619 29.4531 159.985 30.7988C139.873 38.2392 120.87 48.5463 103.507 61.5719C98.6995 65.1603 94.0371 68.9721 89.4873 72.9721C86.9793 75.1859 84.5033 77.4656 82.0757 79.7984C81.0468 80.7984 79.9858 81.8129 78.989 82.8531C76.5775 85.226 74.2624 87.6666 71.9955 90.1328C49.9217 114.226 33.6516 142.333 23.8607 172.759C20.1308 184.399 17.3173 196.373 15.5166 208.587C13.8929 219.534 13.0569 230.693 13.0569 241.973C13.0569 246.786 13.2176 251.587 13.507 256.346C15.1951 283.16 21.5456 309.067 32.1886 333.067C33.3622 335.732 34.6162 338.372 35.8863 340.986C38.6355 346.56 41.5616 352.027 44.7609 357.346C50.0824 366.213 56.047 374.747 62.6064 382.88C67.7029 389.187 73.153 395.28 78.989 401.107C80.3717 402.507 81.7381 403.853 83.1851 405.2C97.7509 419.066 113.908 430.774 131.207 440.119C142.509 446.24 154.326 451.36 166.496 455.454C169.535 456.466 172.574 457.4 175.628 458.28C186.319 461.333 197.236 463.627 208.345 465.079H208.522C216.978 466.212 225.531 466.826 234.165 466.986C235.483 467.013 236.785 467.04 238.12 467.04C239.631 467.04 241.142 467.013 242.654 466.986C254.454 466.746 266.094 465.613 277.525 463.627C280.692 463.053 283.891 462.413 287.042 461.746C306.319 457.479 324.839 450.693 342.283 441.587C350.08 437.534 357.637 432.96 364.936 427.96C368.891 425.24 372.765 422.426 376.559 419.439C380.868 416.066 385.08 412.545 389.132 408.827C391.913 406.333 394.614 403.759 397.251 401.107C402.813 395.6 407.99 389.787 412.861 383.813Z" fill="#FFF537"/>
<path d="M365.688 248.974C361.687 248.974 357.955 247.907 354.875 245.881C348.858 241.88 351.763 233.268 359.654 217.734C361.321 214.441 362.877 211.348 364.052 208.495C367.26 200.655 371.277 188.748 369.149 176.188C368.149 170.282 365.751 165.415 363.64 161.095C362.75 159.321 361.925 157.654 361.226 155.962C358.987 150.548 362.512 141.282 365.926 132.322C369.498 122.921 373.96 111.269 371.912 100.682C373.15 101.161 374.325 101.655 375.484 102.215C381.359 104.908 389.218 110.562 389.647 128.081C390.155 148.615 396.966 159.695 409.382 172.974C422.91 187.415 422.862 192.869 415.939 200.922C413.637 203.629 411.113 206.188 408.477 208.868C404.984 212.415 401.364 216.108 398.062 220.308C395.251 223.855 392.949 227.548 390.742 231.095C388.869 234.094 387.106 236.947 385.122 239.535C380.771 245.269 373.15 248.974 365.688 248.974ZM392.203 244.894C396.839 238.787 400.284 231.841 405.048 225.814C410.43 218.974 417.051 213.295 422.687 206.722C424.688 204.362 426.212 202.108 427.276 199.907C430.61 193.094 429.769 186.908 426.577 180.842C424.1 176.188 420.29 171.615 415.86 166.908C400.586 150.548 394.442 130.988 400.332 108.962C403.269 98.0285 387.789 95.4024 380.311 90.5741C379.025 89.7755 377.723 88.8006 376.341 87.8146C370.292 83.388 363.512 78.4676 356.114 82.8958C346.524 88.6545 358.733 96.6282 361.734 102.134C366.418 110.735 360.972 120.789 357.749 128.815C354.145 137.882 348.985 149.681 353.034 159.388C355.637 165.588 359.257 170.909 360.401 177.695C361.988 187.121 359.353 196.468 355.828 205.121C350.509 218.188 332.98 242.055 349.985 253.282C360.623 260.308 374.69 258.761 384.804 251.827C387.63 249.921 390.155 247.601 392.203 244.894Z" fill="#F25724"/>
<path d="M398.079 220.305C401.387 216.105 404.997 212.412 408.495 208.866C411.123 206.186 413.656 203.627 415.951 200.92C422.869 192.865 422.916 187.412 409.397 172.971C396.987 159.692 390.164 148.612 389.657 128.079C389.23 110.56 381.362 104.905 375.505 102.212C374.35 101.652 373.162 101.16 371.928 100.678C373.97 111.266 369.521 122.918 365.944 132.318C362.524 141.28 358.994 150.545 361.242 155.959C361.939 157.653 362.762 159.32 363.648 161.093C365.77 165.413 368.16 170.279 369.157 176.185C371.294 188.746 367.274 200.652 364.06 208.493C362.889 211.345 361.337 214.44 359.659 217.733C351.776 233.265 348.879 241.878 354.894 245.879C357.965 247.905 361.701 248.972 365.706 248.972C373.162 248.972 380.777 245.266 385.13 239.532C387.109 236.946 388.882 234.093 390.75 231.092C392.966 227.546 395.261 223.853 398.079 220.305Z" fill="#B4321D"/>
<path d="M320.844 187.625C312.761 182.066 315.088 194.479 313.818 198.745C311.812 205.453 303.684 204.666 297.821 204.892C291.193 205.226 282.345 205.238 279.437 211.825C277.569 215.999 276.697 220.745 273.803 223.999C269.747 228.52 263.486 229.759 257.118 229.958C247.49 230.292 225.829 224.759 228.983 242.079C229.947 247.412 232.442 252.678 235.764 257.319L237.004 256.878C238.504 256.346 240.02 255.958 241.535 255.692C240.831 254.812 240.127 253.919 239.514 252.999C237.402 249.852 235.978 246.518 235.412 243.373C234.295 237.266 240.326 236.519 252.572 237.346C255.159 237.533 257.593 237.678 259.705 237.599C265.492 237.4 273.804 236.44 279.177 230.386C281.733 227.546 283.003 223.972 284.136 220.772C284.595 219.479 285.024 218.225 285.544 217.092C287.152 213.439 293.841 212.999 300.316 212.6C307.113 212.131 315.501 211.599 319.91 206.293C320.323 207.426 320.691 208.545 321.043 209.651C322.696 215.213 323.936 223.385 315.057 229.839C311.766 232.186 309.332 234.745 307.511 237.545C310.802 234.199 314.767 232.2 319.114 229.279C314.828 236.585 309.332 243.158 303.163 248.972C302.536 252.559 302.23 256.545 302.138 261.025C301.755 276.746 298.908 278.572 291.055 275.959C288.453 275.052 285.789 273.986 282.988 272.826C282.253 272.518 281.503 272.2 280.784 271.878C279.59 272.093 278.381 271.785 276.192 272.238C273.788 272.719 272.334 274.052 270.788 275.586L272.349 275.999C274.982 276.746 277.6 277.76 280.248 278.826C284.014 280.345 287.825 282 291.606 283.279C306.363 288.265 308.383 277.959 308.705 264.039C309.133 246.305 316.068 234.626 330.641 231.599C337.743 230.159 331.33 217.506 329.738 209.878L329.63 209.413C328.253 202.305 328.452 192.893 320.844 187.625Z" fill="#F25724"/>
<path d="M257.921 255.719C264.482 256.652 266.963 257.972 272.718 254.278C278.776 250.439 284.729 246.839 291.899 246.172C295.385 245.839 298.429 245.239 301.063 243.773C302.555 241.959 304.199 240.505 305.995 239.238C306.482 238.638 306.954 238.052 307.502 237.545C309.329 234.746 311.764 232.185 315.053 229.838C323.943 223.385 322.71 215.212 321.035 209.652C320.685 208.546 320.335 207.425 319.909 206.293C315.509 211.599 307.121 212.132 300.317 212.6C293.832 212.998 287.149 213.44 285.535 217.092C285.018 218.226 284.592 219.479 284.135 220.773C282.993 223.973 281.73 227.545 279.187 230.386C273.798 236.439 265.487 237.399 259.702 237.599C257.601 237.679 255.15 237.533 252.562 237.346C240.323 236.519 234.295 237.265 235.406 243.373C235.985 246.519 237.4 249.852 239.516 253C240.125 253.919 240.826 254.813 241.526 255.693C246.93 254.6 252.288 254.878 257.921 255.719Z" fill="#B4321D"/>
<path d="M291.044 275.96C298.894 278.573 301.747 276.747 302.124 261.026C302.215 256.546 302.532 252.559 303.166 248.972C302.32 249.786 301.46 250.573 300.584 251.333L300.116 251.72C298.652 253.226 297.097 254.639 295.527 256.04C294.757 256.76 294.003 257.293 293.293 257.773C291.753 260.226 290.999 263.159 288.946 265.28C287.632 266.613 286.742 267.04 285.821 267.2C285.293 268.213 284.689 269.16 283.889 269.96C282.56 271.306 281.67 271.761 280.779 271.88C281.504 272.2 282.243 272.52 282.983 272.826C285.776 273.987 288.448 275.053 291.044 275.96Z" fill="#B4321D"/>
<path d="M191.691 297.001C188.395 296.467 185.649 297.721 182.397 297.973C174.331 298.601 169.764 290.8 162.017 294.76L161.453 295.054C165.847 298.388 170.689 301.094 175.921 302.294C174.996 303.227 174.071 304.108 173.103 304.96C168.261 309.255 159.964 314.214 143.718 307.627C124.682 299.92 111.804 301.747 94.6761 307.841C76.0451 314.454 71.0585 312.254 66.4188 302.707C64.8722 299.534 63.5136 296.214 62.1116 292.721C60.2326 288.081 58.3248 283.281 55.7664 278.573C53.6562 274.602 51.1845 271.027 48.7996 267.574C46.7905 264.667 44.8826 261.868 43.3072 259.055C41.3703 255.641 40.4308 251.561 40.4164 247.441C39.1589 245.402 38.3784 243.108 37.7858 240.654C37.0197 237.335 36.9475 234.335 35.5743 231.267C30.1686 241.028 30.1396 253.748 35.5598 263.414C39.3178 270.108 44.3334 276.001 47.9613 282.801C52.0662 290.468 54.6245 298.774 58.4258 306.601C67.156 324.547 81.1185 322.081 97.6537 316.214C118.727 308.694 139.136 310.868 157.001 325.08C165.847 332.108 174.433 318.947 181.819 314.027C188.222 309.735 198.151 305.974 198.585 297.202C196.301 297.335 194.018 297.361 191.691 297.001Z" fill="#F25724"/>
<path d="M48.8017 267.575C51.178 271.027 53.6545 274.602 55.7731 278.574C58.3211 283.281 60.2393 288.081 62.1003 292.721C63.5174 296.214 64.8773 299.535 66.409 302.707C71.0469 312.254 76.0428 314.454 94.6807 307.841C111.801 301.748 124.67 299.922 143.723 307.627C159.97 314.214 168.259 309.255 173.097 304.961C174.071 304.107 175.001 303.229 175.917 302.295C170.692 301.094 165.854 298.387 161.445 295.055C158.324 296.641 157.594 297.002 154.187 296.241C151.024 295.481 149.764 295.281 146.328 295.974C144.324 296.335 141.118 297.494 139.128 296.641C136.723 295.614 136.179 292.094 133.46 291.294C129.28 290.055 122.838 293.868 118.443 291.241C116.468 290.055 116.554 287.388 114.349 286.347C112.13 285.348 108.251 286.695 105.818 286.414C103.012 286.055 99.5764 285.042 97.4292 283.068C95.9404 281.748 95.2389 278.135 93.65 277.387C92.3044 276.707 89.3699 277.854 87.6235 277.601C85.5622 277.322 79.2923 276.108 77.7463 274.788C76.2146 273.428 76.4436 271.027 74.7831 269.521C69.8874 265.134 61.9714 267.868 57.5624 262.921C55.3436 260.347 55.9449 256.721 52.9388 254.869C49.8038 252.961 46.2967 253.615 43.2047 250.828C42.0882 249.801 41.1577 248.681 40.4133 247.442C40.4276 251.561 41.3723 255.64 43.3048 259.054C44.8794 261.869 46.7834 264.669 48.8017 267.575Z" fill="#B4321D"/>
<path d="M218.678 445.839C228.454 448.839 236.959 443.306 244.973 438.413C254.045 432.866 262.289 429 273.123 428.946C285.091 428.866 296.814 431.759 308.675 428.986C321.577 425.959 331.599 417.399 340.395 407.92C336.825 407.479 333.239 406.706 330.434 407.399C327.017 408.187 326.328 411.679 323.355 412.733L321.792 413C317.225 416.347 312.199 419.027 306.667 420.306C303.817 420.987 300.783 421.305 297.105 421.305C293.535 421.305 289.934 421.013 286.072 420.706C282.042 420.386 277.843 420.066 273.506 420.066H273.093C260.496 420.119 250.904 424.413 240.361 430.826L239.365 431.413C234.001 434.692 228.929 437.812 224.332 437.812C223.321 437.812 222.325 437.653 221.298 437.346C214.724 435.279 207.568 425.919 205.989 417.32C205.07 412.24 206.158 408.466 209.177 406.093L209.453 405.893C207.997 404.84 206.572 403.879 205.131 403.505C203.507 403.107 201.515 403.413 199.477 403.879C197.669 406.866 196.841 410.252 196.81 413.826C196.703 426.986 207.307 442.279 218.678 445.839Z" fill="#EF3228"/>
<path d="M384.677 306.094C377.671 303.402 372.047 302.442 367.994 295.561C367.256 294.322 366.643 292.935 366.031 291.535C363.643 285.682 362.056 278.935 356.778 275.201C344.98 266.84 331.769 282.801 327.198 292.441L326.412 295.561C321.37 314.268 298.859 317.827 283.684 325.415C273.803 330.415 264.723 336.774 259.193 346.655C255.297 353.655 253.852 361.641 250.915 368.987C253.177 368.374 255.407 367.748 257.638 367.268C258.8 366.975 260.026 366.761 261.204 366.535C261.628 365.374 261.989 364.2 262.335 363.041C263.717 358.654 265.006 354.52 266.953 350.988C270.834 344.068 277.211 338.654 287.689 333.374C290.957 331.734 294.758 330.228 298.764 328.668C312.683 323.201 329.978 316.401 334.99 297.881L335.586 295.495C339.247 288.308 345.986 281.722 349.772 281.722C350.18 281.722 350.777 281.828 351.657 282.441C353.668 283.867 354.987 287.402 356.369 291.147C357.469 294.094 358.6 297.134 360.36 300.081C365.387 308.601 372.283 311.094 378.378 313.268C379.399 313.614 380.404 314.015 381.488 314.414C387.599 316.787 391.652 320.934 393.27 326.467C394.15 329.454 394.244 332.668 393.631 335.88C394.841 335.561 396.082 335.267 397.402 335.015C399.695 334.575 401.439 333.894 402.884 333.068C403.182 325.374 400.528 317.987 394.841 312.508C392.139 309.907 388.746 307.722 384.677 306.094Z" fill="#EF3228"/>
<path d="M205.984 417.32C207.566 425.92 214.73 435.28 221.3 437.347C222.319 437.653 223.308 437.814 224.327 437.814C228.921 437.814 233.985 434.693 239.37 431.414L240.358 430.827C250.899 424.413 260.496 420.12 273.09 420.067H273.5C277.85 420.067 282.048 420.387 286.063 420.706C289.927 421.013 293.531 421.307 297.09 421.307C300.771 421.307 303.813 420.987 306.657 420.306C312.194 419.027 317.213 416.347 321.791 413.001C319.373 413.147 316.377 412.319 314.369 412.014C310.034 411.36 308.467 411.56 304.543 412.28C300.011 413.119 299.296 412.693 294.748 410.839C285.06 406.88 279.341 414.666 269.272 414.027C265.211 413.787 261.774 412.52 257.652 413.08C250.153 414.027 242.929 412.373 235.461 412.814C227.871 413.306 221.863 412.733 215.049 409.694C213.194 408.894 211.323 407.306 209.437 405.893L209.178 406.094C206.152 408.467 205.072 412.24 205.984 417.32Z" fill="#B31B20"/>
<path d="M393.279 326.467C391.651 320.935 387.597 316.788 381.492 314.413C380.412 314.014 379.394 313.613 378.377 313.267C372.287 311.095 365.384 308.601 360.359 300.08C358.59 297.134 357.462 294.094 356.367 291.148C354.989 287.402 353.659 283.867 351.655 282.441C350.763 281.827 350.183 281.721 349.776 281.721C345.988 281.721 339.257 288.307 335.578 295.495L334.999 297.881C329.989 316.401 312.676 323.202 298.775 328.668C294.751 330.227 290.963 331.735 287.691 333.374C277.203 338.654 270.832 344.067 266.949 350.988C265.008 354.521 263.725 358.654 262.331 363.04C261.987 364.2 261.627 365.374 261.204 366.534C270.143 364.974 280.35 364.855 289.132 366.295C296.771 367.535 302.532 369.415 310.703 368.787C318.029 368.187 327.547 367.547 333.652 364.094C339.257 360.907 343.374 355.907 349.667 353.468C355.913 351.027 362.19 354.521 368.561 352.547C373.148 351.148 376.326 346.414 379.332 343.613C383.589 339.64 387.973 337.373 393.639 335.88C394.25 332.668 394.156 329.454 393.279 326.467Z" fill="#B31B20"/>
<path d="M278.41 43.8653C280.733 43.1851 282.995 42.5857 284.823 41.7587C282.426 41.6523 280.298 42.5318 278.41 43.8653Z" fill="#F47321"/>
<path d="M277.217 53.5224L278.03 54.8559C280.497 54.1095 282.674 53.0948 284.589 52.189C286.797 51.1743 288.728 50.2685 290.107 50.2685L291.058 50.4019C295.196 51.4548 299.319 54.1478 304.04 58.8685C308.132 62.9348 312.347 65.4821 316.424 67.9621C318.11 68.9752 319.765 69.9484 321.328 71.029L320.823 72.5081C320.348 73.7618 319.826 75.1612 319.459 76.7353C317.389 85.3215 320.807 91.5887 323.535 96.6283C323.949 97.3747 324.348 98.0951 324.731 98.8154C323.183 99.3488 320.501 99.9083 316.776 99.9083H316.761C308.469 99.9083 301.158 97.2689 299.135 94.8549C297.096 92.4424 297.05 90.0683 297.418 84.4019C297.587 82.3756 297.709 80.2421 297.648 77.9614C297.388 65.9358 287.716 61.3086 279.976 57.6148C277.248 56.3089 275.776 55.2145 274.949 54.5218C275.546 54.1754 276.359 53.829 277.217 53.5224ZM276.129 65.6293C283.976 69.3752 288.621 71.8551 288.789 78.1622C288.942 85.789 286.321 93.3881 292.314 100.575C302.17 112.322 340.916 112.001 333.36 96.242C330.402 90.0146 326.463 85.5345 328.072 78.855C329.283 73.8952 333.36 68.641 327.275 64.3617C321.328 60.1483 315.473 57.7082 310.308 52.5491C305.588 47.8422 300.039 43.5613 293.295 41.8018C286.367 39.9886 281.493 44.5622 275.439 46.3616C276.359 45.442 277.34 44.6021 278.397 43.8694C273.692 45.1753 268.757 46.7218 266.519 50.5888C262.396 57.7083 270.443 62.9087 276.129 65.6293Z" fill="#F47321"/>
<path d="M297.672 77.9574C297.733 80.237 297.596 82.3704 297.443 84.3972C297.063 90.065 297.108 92.4375 299.149 94.8512C301.174 97.2648 308.499 99.9037 316.768 99.9037H316.798C320.514 99.9037 323.194 99.3449 324.747 98.8104C324.366 98.0916 323.97 97.3713 323.559 96.6252C320.833 91.5848 317.407 85.317 319.478 76.7315C319.844 75.1585 320.361 73.7575 320.833 72.5043L321.351 71.0241C319.783 69.9445 318.138 68.9714 316.433 67.9572C312.367 65.4781 308.149 62.9305 304.052 58.8646C299.332 54.144 295.22 51.4502 291.063 50.398L290.119 50.264C288.748 50.264 286.814 51.17 284.606 52.1842C282.688 53.0918 280.525 54.1044 278.043 54.8506L277.221 53.5182C276.368 53.8242 275.561 54.1714 274.967 54.5171C275.789 55.2115 277.267 56.3048 280.008 57.6114C287.728 61.3042 297.398 65.9319 297.672 77.9574Z" fill="#B4321D"/>
<path d="M135.841 377.252L135.714 377.106L135.588 376.985L135.363 376.826L135.742 377.186L135.841 377.252Z" fill="#B31B20"/>
<path d="M448.338 274.906C446.802 273.4 442.641 272.318 440.177 273.105L439.105 273.678C435.424 276.706 439.793 285.973 438.225 290.012C436.833 293.559 433.056 296.292 431.408 299.746C429.776 303.199 431.36 306.492 430 309.88C427.935 315.012 422.367 315.011 417.23 317.399C408.829 321.292 409.709 329.093 402.892 333.067C401.452 333.892 399.708 334.572 397.404 335.012C396.091 335.265 394.843 335.56 393.643 335.88C387.978 337.373 383.61 339.639 379.337 343.612C376.345 346.412 373.161 351.146 368.568 352.546C362.199 354.519 355.927 351.026 349.67 353.466C343.381 355.906 339.284 360.905 333.668 364.093C327.555 367.546 318.05 368.186 310.721 368.786C302.544 369.412 296.783 367.533 289.15 366.293C280.349 364.853 270.156 364.973 261.227 366.533C260.043 366.759 258.81 366.972 257.642 367.266C255.418 367.746 253.178 368.372 250.937 368.986C243.192 371.132 235.335 373.625 227.334 374.107C217.989 374.665 209.236 371.107 200.659 368.746C191.97 366.372 183.505 366.533 174.496 367.572C166.319 368.533 163.214 369.839 156.014 366.172C148.429 362.333 140.972 358.719 132.043 358.026C125.002 357.519 119.401 356.359 115.032 351.706C110.52 346.852 104.615 344.692 98.0222 341.186C100.551 344.612 103.399 347.88 106.535 350.973C112.392 353.986 117.657 356.146 121.769 360.585C126.122 365.253 131.739 366.386 138.763 366.933C147.709 367.572 155.149 371.212 162.734 375.08C169.919 378.719 173.024 377.413 181.233 376.466C190.226 375.44 198.707 375.253 207.38 377.653C215.973 379.999 224.71 383.572 234.055 382.986C244.393 382.346 254.522 378.386 264.379 376.146C274.092 373.905 285.87 373.545 295.871 375.185C303.52 376.426 309.265 378.293 317.458 377.653C324.803 377.066 334.292 376.453 340.405 372.985C345.989 369.774 350.086 364.813 356.406 362.36C362.647 359.92 368.936 363.413 375.289 361.44C379.865 360.025 383.066 355.293 386.074 352.493C391.243 347.705 396.524 345.345 404.125 343.892C417.246 341.426 413.774 330.986 423.951 326.279C429.072 323.878 434.656 323.878 436.721 318.759C438.097 315.359 436.545 312.078 438.129 308.612C439.777 305.172 443.553 302.439 444.946 298.878C446.418 295.119 442.785 286.826 445.298 283.28C445.298 283.225 445.298 283.185 445.282 283.132L445.842 282.545L446.898 281.999C448.002 281.639 449.49 281.679 450.882 281.959C450.93 280.812 450.914 279.759 450.642 278.679C450.338 277.439 449.666 276.199 448.338 274.906Z" fill="#B31B20"/>
<path d="M444.929 298.881C443.537 302.442 439.762 305.174 438.115 308.615C436.531 312.081 438.067 315.362 436.707 318.761C434.644 323.881 429.061 323.881 423.927 326.282C413.753 330.988 417.24 341.428 404.108 343.895C396.51 345.347 391.216 347.708 386.065 352.494C383.042 355.295 379.843 360.028 375.268 361.442C368.918 363.414 362.631 359.921 356.393 362.362C350.075 364.814 345.98 369.774 340.382 372.987C334.271 376.454 324.786 377.068 317.428 377.655C309.254 378.295 303.496 376.428 295.866 375.188C285.868 373.547 274.08 373.907 264.37 376.148C254.501 378.388 244.376 382.348 234.043 382.988C224.685 383.573 215.952 380.002 207.362 377.655C198.692 375.254 190.215 375.441 181.225 376.468C173.004 377.415 169.9 378.72 162.718 375.081C155.137 371.214 147.682 367.575 138.741 366.935C131.735 366.388 126.104 365.255 121.754 360.588C117.643 356.147 112.38 353.988 106.51 350.974L104.734 350.067C110.845 358.388 118.89 365.735 127.896 372.108C130.247 373.774 132.487 374.654 134.502 376.121C135.862 376.228 137.349 376.001 139.861 376.401C144.227 377.134 146.051 379.587 149.378 381.814C153.217 384.308 156.16 384.388 160.831 385.202C165.966 386.094 167.389 387.307 170.812 390.335C174.107 393.281 176.107 393.628 181.193 393.214C184.632 392.961 189.559 390.8 192.918 391.627C196.165 392.454 199.54 396.347 202.803 397.801C209.665 400.828 215.648 401.4 223.23 400.921C230.684 400.481 237.93 402.162 245.448 401.188C249.559 400.641 252.998 401.907 257.06 402.162C267.138 402.787 272.848 394.988 282.525 398.947C287.068 400.828 287.788 401.255 292.315 400.401C296.282 399.681 297.801 399.467 302.136 400.148C304.615 400.508 308.614 401.695 311.141 400.841C314.101 399.814 314.788 396.28 318.18 395.495C323.458 394.228 331.472 398.027 336.99 395.415C339.438 394.228 339.31 391.547 342.109 390.535C344.876 389.508 349.707 390.867 352.762 390.602C356.265 390.24 360.552 389.215 363.255 387.241C365.095 385.922 365.974 382.335 367.958 381.561C369.653 380.881 373.301 382.014 375.492 381.775C378.051 381.481 385.921 380.294 387.824 378.947C389.744 377.601 389.44 375.214 391.551 373.694C397.662 369.307 407.547 372.068 413.065 367.095C415.849 364.548 415.081 360.88 418.856 359.054C422.743 357.134 427.11 357.774 430.997 355.002C434.788 352.268 436.627 348.748 437.747 344.827C438.706 341.454 438.802 338.455 440.594 335.295C442.402 332.162 444.657 329.628 445.441 326.108C446.352 322.109 445.297 318.321 445.201 314.362C445.153 310.974 446.528 308.655 447.6 305.454C449.887 298.507 445.665 290.522 445.281 283.281C442.769 286.829 446.4 295.121 444.929 298.881Z" fill="#FABB23"/>
<path d="M457.459 327L457.427 326.239C457.362 322.866 458.761 320.56 459.821 317.346C462.232 310.027 457.427 301.56 457.459 294.053L457.523 292.4C457.7 289.267 457.989 286.693 455.064 283.787C454.229 282.959 452.573 282.267 450.886 281.96C449.488 281.68 447.993 281.64 446.9 282L445.839 282.546L445.277 283.133C445.293 283.186 445.293 283.226 445.293 283.279C445.678 290.519 449.905 298.507 447.607 305.453C446.546 308.653 445.164 310.973 445.212 314.359C445.309 318.319 446.37 322.107 445.437 326.106C444.666 329.627 442.4 332.16 440.6 335.292C438.816 338.454 438.72 341.453 437.771 344.826C436.646 348.746 434.798 352.267 431.005 355.001C427.132 357.773 422.745 357.133 418.872 359.052C415.079 360.88 415.866 364.547 413.07 367.093C407.557 372.067 397.673 369.306 391.566 373.693C389.461 375.214 389.75 377.6 387.838 378.947C385.925 380.294 378.066 381.48 375.495 381.774C373.309 382.013 369.677 380.88 367.958 381.56C365.981 382.333 365.113 385.92 363.265 387.24C360.565 389.213 356.274 390.24 352.77 390.6C349.733 390.867 344.879 389.506 342.115 390.533C339.318 391.547 339.447 394.226 337.004 395.414C331.492 398.027 323.472 394.226 318.185 395.492C314.81 396.28 314.119 399.812 311.145 400.839C308.638 401.693 304.637 400.507 302.146 400.147C297.822 399.467 296.279 399.679 292.326 400.401C287.794 401.252 287.087 400.826 282.539 398.946C272.864 394.986 267.158 402.787 257.065 402.16C252.999 401.906 249.56 400.64 245.462 401.186C237.941 402.16 230.692 400.479 223.251 400.92C215.666 401.4 209.671 400.826 202.825 397.799C199.546 396.346 196.171 392.453 192.925 391.627C189.566 390.8 184.648 392.96 181.209 393.214C176.114 393.627 174.105 393.279 170.827 390.334C167.387 387.306 165.973 386.094 160.846 385.2C156.17 384.387 153.229 384.307 149.388 381.812C146.061 379.587 144.229 377.133 139.873 376.4C137.35 375.999 135.871 376.226 134.505 376.12L135.357 376.827L135.582 376.986L135.711 377.107L135.839 377.253L136.804 378.253C138.893 380.76 139.745 383.839 142.461 386.054C146.221 389.12 147.25 387.507 152.071 388.292C156.459 389.012 158.259 391.479 161.618 393.68C162.437 394.226 163.225 394.653 163.996 395.001C166.777 396.267 169.396 396.441 173.044 397.093C178.203 397.987 179.618 399.213 183.025 402.226C186.319 405.159 188.344 405.506 193.423 405.093C195.191 405 197.344 404.346 199.466 403.88C201.507 403.412 203.5 403.107 205.123 403.506C206.569 403.88 208 404.839 209.446 405.894C211.326 407.306 213.191 408.893 215.039 409.693C221.869 412.734 227.88 413.306 235.466 412.812C242.923 412.372 250.155 414.026 257.66 413.079C261.774 412.52 265.214 413.786 269.28 414.026C279.34 414.667 285.062 406.879 294.753 410.839C299.301 412.694 300.008 413.119 304.54 412.279C308.478 411.561 310.037 411.36 314.36 412.014C316.385 412.319 319.374 413.147 321.785 413.001L323.36 412.734C326.333 411.679 327.024 408.187 330.431 407.4C333.227 406.707 336.811 407.48 340.395 407.92C343.529 408.359 346.663 408.52 349.202 407.306C351.677 406.12 351.549 403.427 354.329 402.4C357.109 401.4 361.931 402.773 364.984 402.506C368.504 402.133 372.795 401.106 375.479 399.147C377.327 397.799 378.211 394.2 380.188 393.427C381.891 392.773 385.54 393.906 387.741 393.667C388.625 393.573 390.232 393.347 392 393.027C395.166 392.494 398.831 391.693 400.052 390.84C401.981 389.48 401.691 387.079 403.781 385.573C406.593 383.572 410.225 383.066 413.825 382.613L414.211 382.573C418.341 382.054 422.407 381.586 425.268 378.973C426.875 377.507 427.309 375.68 428.129 374.026C428.707 372.827 429.479 371.72 431.054 370.934C433.207 369.907 435.457 369.6 437.691 369.132C439.587 368.719 441.452 368.16 443.22 366.893C444.2 366.173 445.052 365.413 445.823 364.586C447.929 362.294 449.15 359.613 449.986 356.72C450.95 353.332 451.03 350.346 452.83 347.2C454.63 344.027 456.88 341.546 457.684 338L457.732 337.586L457.893 336.76C458.327 333.48 457.652 330.28 457.459 327Z" fill="#F68228"/>
<path d="M41.8492 182.826C42.9503 186.374 45.9969 189.107 47.294 192.56C48.576 195.987 47.3393 199.293 48.4101 202.693C50.0692 207.813 54.5336 207.813 58.6511 210.213C66.7806 214.92 63.9904 225.372 74.5029 227.826C80.5963 229.28 84.8343 231.639 88.9368 236.44C91.3651 239.239 93.914 243.974 97.564 245.387C102.677 247.346 107.684 243.867 112.677 246.307C117.744 248.746 121.002 253.707 125.512 256.907C130.384 260.373 137.97 260.973 143.867 261.574C150.413 262.254 154.998 260.346 161.122 259.094C169.116 257.48 178.557 257.866 186.31 260.094C194.198 262.334 202.327 266.293 210.608 266.946C218.058 267.507 225.057 263.96 231.934 261.574C238.887 259.186 245.675 259.359 252.854 260.414C259.445 261.32 261.903 262.653 267.665 258.987C273.728 255.133 279.701 251.52 286.85 250.866C292.476 250.334 296.97 249.173 300.439 244.52L301.058 243.773C298.418 245.239 295.371 245.839 291.902 246.173C284.723 246.839 278.766 250.44 272.717 254.28C266.971 257.973 264.467 256.654 257.907 255.72C252.281 254.88 246.926 254.599 241.527 255.693C240.019 255.96 238.495 256.346 237.002 256.88L235.75 257.32C229.28 259.64 222.674 262.774 215.645 262.254C209.446 261.761 203.323 259.4 197.32 257.32C195.329 256.613 193.353 255.946 191.362 255.36C183.625 253.147 174.168 252.759 166.19 254.4C160.051 255.679 155.466 257.533 148.92 256.88C143.038 256.28 135.451 255.693 130.55 252.239C126.055 249.026 122.782 244.04 117.744 241.573C112.737 239.146 107.745 242.639 102.617 240.68C98.9667 239.306 96.4178 234.52 94.0046 231.733C89.8871 226.92 85.6187 224.56 79.5556 223.146C69.043 220.68 71.8332 210.213 63.7037 205.506C59.5711 203.133 55.1218 203.133 53.4778 197.987C52.3919 194.586 53.6287 191.307 52.3316 187.867C51.9847 186.933 51.502 186.054 50.9892 185.227C49.5262 182.894 47.7162 180.693 46.8867 178.107C45.6349 174.08 49.134 164.827 46.1778 161.774L45.3182 161.226C43.3575 160.453 40.0241 161.493 38.7874 163.039C38.0031 164 37.5355 164.92 37.2339 165.854C38.3047 165.612 39.4209 165.587 40.2656 165.934L41.1403 166.48L41.5626 167.066C43.6892 170.573 40.6275 178.986 41.8492 182.826Z" fill="#EF3228"/>
<path d="M314.059 233.971C310.245 240.506 305.459 246.399 300.111 251.718L300.582 251.333C301.463 250.571 302.329 249.786 303.165 248.971C309.333 243.159 314.818 236.586 319.118 229.278C314.773 232.2 310.792 234.199 307.51 237.545C306.963 238.052 306.477 238.638 305.991 239.239C308.467 237.466 311.187 235.919 314.059 233.971Z" fill="#EF3228"/>
<path d="M293.299 257.773C292.231 258.507 291.224 259.186 290.262 260.079L289.39 260.933L289.284 261.027L288.397 262.172C287.36 263.76 286.698 265.533 285.826 267.2C286.744 267.039 287.631 266.614 288.939 265.28C290.998 263.16 291.75 260.227 293.299 257.773Z" fill="#EF3228"/>
<path d="M295.526 256.04C297.088 254.641 298.634 253.228 300.105 251.721C305.457 246.4 310.233 240.507 314.054 233.973C311.173 235.92 308.459 237.467 305.988 239.241C304.184 240.507 302.546 241.961 301.06 243.774L300.439 244.52C296.982 249.173 292.463 250.335 286.838 250.867C279.697 251.52 273.723 255.134 267.658 258.988C261.911 262.654 259.44 261.32 252.859 260.413C245.672 259.361 238.88 259.187 231.935 261.573C225.052 263.961 218.062 267.508 210.602 266.947C202.324 266.295 194.196 262.334 186.312 260.093C178.564 257.867 169.103 257.481 161.128 259.094C155.002 260.346 150.408 262.254 143.873 261.573C137.975 260.974 130.394 260.374 125.511 256.908C121.008 253.707 117.733 248.747 112.684 246.308C107.681 243.868 102.662 247.348 97.5674 245.387C93.9133 243.974 91.366 239.241 88.94 236.442C84.831 231.64 80.5856 229.28 74.4904 227.828C63.9829 225.373 66.7728 214.92 58.6458 210.214C54.5369 207.814 50.064 207.814 48.4113 202.693C47.3348 199.294 48.578 195.987 47.2892 192.56C45.9853 189.108 42.9529 186.374 41.8461 182.828C40.6331 178.987 43.6806 170.574 41.5579 167.068C41.3153 174.334 37.8584 182.387 39.693 189.387C40.5572 192.588 41.6641 194.894 41.6186 198.268C41.5428 202.24 40.7089 206.04 41.4216 210.053C42.0584 213.574 43.8475 216.094 45.303 219.24C46.7283 222.388 46.804 225.387 47.5925 228.747C48.4871 232.668 49.9578 236.201 53.0054 238.946C56.0834 241.721 59.5707 241.08 62.7093 242.961C65.7266 244.828 65.105 248.467 67.349 251C71.7461 255.987 79.6608 253.24 84.5278 257.64C86.2109 259.133 85.9833 261.52 87.5451 262.88C89.0613 264.24 95.3536 265.427 97.4005 265.706C99.1442 265.973 102.071 264.813 103.435 265.48C105.012 266.254 105.725 269.853 107.195 271.201C109.333 273.146 112.79 274.161 115.595 274.534C118.036 274.814 121.903 273.454 124.116 274.453C126.345 275.466 126.224 278.188 128.195 279.334C132.623 281.974 139.036 278.188 143.236 279.401C145.981 280.201 146.526 283.746 148.907 284.761C150.893 285.614 154.107 284.441 156.109 284.08C159.551 283.387 160.794 283.601 163.963 284.321C167.571 285.161 168.163 284.747 171.787 282.894C179.55 278.934 184.114 286.721 192.18 286.08C195.425 285.827 198.169 284.588 201.459 285.12C207.479 286.08 213.271 284.413 219.245 284.88C225.309 285.347 230.086 284.747 235.574 281.746C238.213 280.294 240.911 276.373 243.504 275.56C246.188 274.734 250.115 276.881 252.874 277.148C256.953 277.547 258.56 277.201 261.183 274.281C263.928 271.268 265.05 270.028 269.174 269.121C272.904 268.307 275.299 268.254 278.317 265.761C281 263.52 282.456 261.041 285.943 260.321C287.96 259.92 289.143 260.16 290.249 260.04V260.081C291.22 259.187 292.22 258.507 293.297 257.775C293.994 257.294 294.753 256.761 295.526 256.04Z" fill="#FABB23"/>
<path d="M29.9191 201.293C30.775 204.466 31.8862 206.786 31.8411 210.161C31.7811 214.147 30.9252 217.947 31.646 221.933C32.2766 225.453 34.0936 227.961 35.5201 231.134L35.5802 231.267C36.9467 234.334 37.0218 237.334 37.7877 240.654C38.3733 243.108 39.1692 245.401 40.4155 247.44C41.1663 248.68 42.0974 249.8 43.2236 250.828C46.3019 253.613 49.8157 252.96 52.9541 254.867C55.9423 256.72 55.3567 260.346 57.5641 262.92C61.9789 267.867 69.8924 265.134 74.7877 269.52C76.4394 271.027 76.2142 273.427 77.7459 274.788C79.2926 276.108 85.5693 277.321 87.6266 277.6C89.3685 277.854 92.3117 276.707 93.6631 277.387C95.2398 278.133 95.9457 281.746 97.4323 283.068C99.5796 285.041 103.018 286.054 105.811 286.413C108.259 286.694 112.133 285.347 114.356 286.347C116.563 287.386 116.473 290.053 118.44 291.239C122.84 293.867 129.282 290.053 133.471 291.293C136.189 292.094 136.73 295.614 139.132 296.639C141.13 297.494 144.343 296.334 146.34 295.974C149.779 295.28 151.025 295.48 154.194 296.24C157.602 297.001 158.338 296.639 161.462 295.054L162.017 294.761C169.766 290.799 174.331 298.6 182.409 297.973C185.653 297.72 188.401 296.467 191.689 297.001C194.017 297.36 196.314 297.333 198.597 297.201C202.216 297.001 205.805 296.48 209.469 296.761C215.52 297.24 220.34 296.639 225.791 293.64C228.434 292.187 231.122 288.268 233.735 287.427C236.423 286.613 240.342 288.799 243.09 289.039C247.175 289.427 248.781 289.08 251.409 286.161C252.28 285.2 252.986 284.44 253.692 283.787C254.322 283.453 254.953 283 255.584 282.387C256.605 281.827 257.716 281.374 259.398 281.013C263.122 280.201 265.494 280.133 268.543 277.627C269.369 276.947 270.089 276.24 270.78 275.586C272.327 274.053 273.783 272.72 276.186 272.239C278.378 271.787 279.58 272.094 280.781 271.88C281.667 271.76 282.568 271.307 283.889 269.96C284.685 269.161 285.301 268.213 285.811 267.2C286.697 265.533 287.358 263.76 288.394 262.174L289.28 261.027L289.385 260.934L290.256 260.081V260.04C289.145 260.16 287.959 259.92 285.946 260.321C282.463 261.04 281.006 263.521 278.318 265.76C275.3 268.254 272.912 268.307 269.173 269.12C265.059 270.027 263.918 271.268 261.185 274.28C258.557 277.201 256.95 277.546 252.866 277.147C250.118 276.881 246.183 274.733 243.511 275.561C240.913 276.373 238.21 280.294 235.582 281.746C230.086 284.746 225.311 285.347 219.244 284.88C213.268 284.413 207.486 286.08 201.45 285.12C198.176 284.587 195.428 285.828 192.17 286.08C184.106 286.719 179.556 278.934 171.793 282.893C168.159 284.746 167.573 285.161 163.969 284.32C160.801 283.601 159.555 283.387 156.116 284.08C154.104 284.44 150.89 285.613 148.908 284.76C146.52 283.746 145.98 280.201 143.247 279.401C139.042 278.187 132.63 281.973 128.201 279.334C126.233 278.187 126.354 275.466 124.116 274.454C121.909 273.454 118.05 274.813 115.602 274.534C112.794 274.16 109.34 273.146 107.208 271.2C105.721 269.853 105.016 266.254 103.439 265.48C102.072 264.814 99.1441 265.973 97.4022 265.707C95.36 265.426 89.0681 264.24 87.5515 262.88C85.9898 261.521 86.2151 259.133 84.5333 257.64C79.668 253.241 71.7544 255.987 67.3546 251C65.1022 248.467 65.7179 244.827 62.7147 242.961C59.5763 241.081 56.0774 241.72 52.9991 238.947C49.9658 236.2 48.4792 232.667 47.5933 228.746C46.7974 225.387 46.7223 222.387 45.3108 219.239C43.8542 216.093 42.0523 213.574 41.4216 210.054C40.7159 206.04 41.5567 202.239 41.6168 198.268C41.6619 194.894 40.5657 192.587 39.6948 189.387C37.8628 182.386 41.3164 174.333 41.5567 167.067L41.1363 166.48L40.2653 165.933C39.4094 165.586 38.3132 165.613 37.232 165.854L36.1659 166.146C35.1598 166.52 34.2739 167.094 33.7333 167.734C30.9703 171.108 31.7962 174.079 31.8112 177.987L31.7812 179.054C31.4958 186.307 28.1021 194.306 29.9191 201.293Z" fill="#F68228"/>
</svg>
