<svg width="483" height="467" viewBox="0 0 483 467" fill="none" xmlns="http://www.w3.org/2000/svg">
<path d="M115.683 447.881C113.782 447.63 111.798 447.42 109.883 447.238C104.684 446.763 99.2894 446.33 94.1043 445.016C91.7844 444.415 89.5343 443.661 87.3681 442.836C80.9112 443.353 74.2866 443.842 67.7739 444.192C66.0409 444.276 63.9865 444.373 62.0019 444.373C51.9672 444.373 48.571 441.956 46.5445 438.294C42.771 431.53 42.0583 421.9 42.226 412.369C41.3316 410.999 40.465 409.573 39.7382 408.022C38.8577 406.191 38.2009 404.305 37.572 402.432C36.7194 399.972 35.9368 397.61 34.7768 395.611C33.8823 410.356 32.0376 429.363 39.277 442.347C45.2447 453.08 57.2919 453.038 68.2071 452.479C85.034 451.627 101.749 449.726 118.604 449.293C119.974 449.279 121.315 449.209 122.671 449.181C121.315 448.524 118.953 448.217 117.22 448.049L115.683 447.881Z" fill="#F7947F"/>
<path d="M371.05 354.829C385.588 354.829 402.989 343.393 422.789 320.89L423.573 320.011C422.821 321.578 422.021 323.161 421.222 324.745C415.528 336.132 408.635 347.136 400.75 357.468C396.048 363.609 390.578 368.983 384.756 374.661C382.117 377.268 379.414 379.923 376.743 382.706L375.736 383.745C370.506 389.199 367.067 392.75 360.862 395.325C342.181 402.985 321.405 409.703 298.998 415.365C298.311 417.284 297.479 419.331 295.976 421.17C293.305 424.433 289.962 424.929 288.123 425.233L286.955 425.441C285.676 425.76 284.204 426.56 282.637 427.456L281.741 427.968C283.453 427.616 285.18 427.232 286.891 426.864C312.849 420.946 339.334 413.141 363.981 403.018C372.329 399.595 376.647 394.797 382.741 388.447C391.058 379.811 400.046 372.102 407.355 362.49C415.464 351.854 422.645 340.467 428.659 328.487C439.31 307.28 451.21 279.131 451.561 254.981C445.276 277.612 431.953 297.892 416.568 315.405C407.227 325.992 381.685 353.165 363.932 344.961C362.733 347.616 361.566 350.159 360.382 352.51C363.661 354.029 367.227 354.829 371.05 354.829Z" fill="#F7947F"/>
<path d="M477.891 112.774C470.177 108.058 419.365 121.478 435.444 100.586C441.781 92.3039 447.097 84.4757 452.494 75.529C457.486 67.2631 467.729 56.7928 464.115 46.3712C459.317 32.5136 448.539 35.0582 437.161 39.4181C406.189 51.2821 377.079 65.237 343.805 69.4348C349.948 58.1866 393.352 7.21341 369.64 1.54071C354.453 -2.10605 338.894 11.2653 328.31 19.9851C308.699 36.128 292.67 54.9937 274.776 72.8384C258.309 89.2731 237.045 100.505 214.013 103.925C216.185 89.3055 224.727 78.9001 235.554 69.3052C243.82 62.0441 252.847 55.6582 261.551 48.932C267.855 44.0535 277.386 38.0242 280.724 30.4228C288.148 13.6153 254.792 20.2119 247.726 22.1568C222.231 29.2396 203.835 48.0568 185.585 66.1447C163.964 87.5227 142.31 108.884 117.026 125.951C117.188 113.99 115.649 83.4059 95.7619 93.6978C85.2917 99.1112 78.5654 112.418 73.4924 122.369C66.0044 137.07 60.2831 152.759 56.3447 168.74C53.9459 178.578 52.9896 188.481 52.4709 198.432C55.129 196.698 58.0302 195.11 61.1096 193.602C61.6445 185.839 62.6008 178.254 64.4161 170.733C68.2573 155.076 73.8004 140.084 80.8994 126.146L80.9966 125.967C85.4537 117.215 91.564 105.238 99.5544 101.088C101.58 100.051 102.699 99.9378 103.088 99.9378L103.914 100.343C106.427 102.888 108.89 111.769 108.712 125.838L108.517 141.721L121.678 132.839C147.805 115.222 169.977 93.2602 191.42 72.028L193.187 70.3101C210.772 52.8706 227.369 36.452 249.962 30.1797C252.41 29.4989 261.097 27.5541 268.52 27.5541C270.416 27.5541 271.778 27.6837 272.734 27.862C270.481 31.9301 264.679 36.2253 259.979 39.7099C258.747 40.6338 257.564 41.5251 256.445 42.3679C253.965 44.2804 251.437 46.1929 248.925 48.073C242.653 52.8057 236.169 57.6842 230.059 63.0652C220.205 71.785 208.551 84.1515 205.78 102.693L204.127 113.779L215.229 112.142C239.379 108.544 262.637 96.68 280.643 78.7218C286.365 73.0167 291.924 67.182 297.305 61.5255C309.25 48.9807 320.547 37.149 333.578 26.3871L334.648 25.5443C342.978 18.6722 354.405 9.23938 364.373 9.23938C365.523 9.23938 366.642 9.38516 367.711 9.62827L368.311 9.79034C368.457 10.86 368.473 15.301 362.152 26.7113C357.079 35.8524 350.175 45.5771 344.648 53.3406C340.79 58.7863 338.003 62.7086 336.511 65.4639L328.748 79.7267L344.858 77.7007C372.557 74.1999 397.663 64.1188 421.943 54.3779C427.891 51.9792 434.033 49.5156 440.127 47.1655C443.645 45.8364 448.102 44.2642 451.246 44.2642C452.899 44.2642 454.585 44.2642 456.27 49.0941C457.713 53.2919 453.304 59.5967 449.398 65.1883C448.004 67.1819 446.578 69.2403 445.363 71.2501C440.111 80.0185 435.006 87.4902 428.814 95.5293C423.952 101.866 422.753 107.636 425.233 112.661C428.879 120.068 438.037 121.089 446.513 121.089C450.873 121.089 455.525 120.765 460.047 120.489C463.953 120.246 467.648 119.987 470.566 119.987C472.3 119.987 473.305 120.1 473.84 120.165C474.455 121.089 475.315 124.541 471.214 137.394L471.003 138.075C465.93 154.072 454.099 166.276 443.126 176.13C434.957 183.472 425.962 190.344 417.258 196.99C408.701 203.538 399.884 210.296 391.585 217.638L390.483 218.627C382.898 225.288 371.488 235.337 372.979 249.26L373.676 256.164L380.596 256.683C381.844 256.764 383.125 256.829 384.389 256.829C403.028 256.829 419.609 246.828 433.742 237.347C428.815 243.311 422.688 248.725 415.897 254.414C410.581 258.887 404.957 263.36 399.511 267.655C387.29 277.38 374.729 287.38 363.53 298.823V298.888L363.805 300.087C364.178 301.108 365.086 302 366.172 303.134C366.901 303.88 367.711 304.706 368.441 305.695C384.422 289.098 403.644 275.532 421.245 260.783C437.68 247.007 451.003 233.927 453.629 211.949C449.285 211.204 446.157 215.11 443.45 217.914C438.912 222.63 435.038 226.471 429.495 230.183C415.459 239.632 398.895 249.714 381.229 248.384C380.127 238.19 390.337 229.875 397.096 223.878C413.628 209.227 432.234 197.119 448.701 182.289C461.749 170.555 473.548 157.637 478.929 140.619C481.279 133.261 486.465 117.977 477.891 112.774Z" fill="#F7947F"/>
<path d="M47.0681 266.998V267.056L47.0826 267.012L47.0681 266.998Z" fill="#F7947F"/>
<path d="M124.018 441.875C122.228 441.47 120.298 441.26 118.928 441.064C120.284 441.302 122.228 441.47 124.018 441.875Z" fill="#F7947F"/>
<path d="M363.194 311.538C362.715 310.395 362.128 309.329 361.34 308.309C362.112 309.329 362.684 310.441 363.163 311.569L363.194 311.538Z" fill="#F7947F"/>
<path d="M357.705 343.826C358.029 343.039 358.368 342.191 358.738 341.312H358.707C358.368 342.191 358.029 343.039 357.705 343.826Z" fill="#F7947F"/>
<path d="M375.724 383.76L376.736 382.7C379.41 379.931 382.116 377.273 384.758 374.678C390.565 368.998 396.039 363.603 400.738 357.464C408.617 347.148 415.516 336.136 421.227 324.76C422.003 323.162 422.809 321.58 423.569 320.014L422.778 320.884C402.985 343.398 385.581 354.822 371.056 354.822C367.227 354.822 363.667 354.046 360.376 352.512C359.095 355.138 357.782 357.575 356.468 359.853C360.962 362.021 365.882 363.144 371.056 363.144C376.562 363.144 382.242 361.91 388.112 359.458C385.248 362.543 382.147 365.596 378.936 368.745C376.23 371.387 373.461 374.093 370.756 376.941L369.743 378.001C364.775 383.159 362.307 385.738 357.671 387.636C342.767 393.743 326.47 399.249 309.066 404.091C307.816 405.167 306.55 406.069 305.427 406.955C303.149 408.648 301.361 410.008 300.317 412.065C299.969 412.746 299.652 413.632 299.32 414.533L299.003 415.372C321.391 409.692 342.165 402.984 360.851 395.326C367.069 392.763 370.502 389.203 375.724 383.76Z" fill="#F15637"/>
<path d="M69.7505 189.907C70.2992 184.016 71.1224 178.303 72.4942 172.703C76.174 157.693 81.5 143.297 88.2947 129.933L88.4077 129.74C91.2643 124.156 95.2022 116.376 99.4469 111.728C100.012 114.956 100.48 119.572 100.399 125.721L99.9796 157.499L126.335 139.746C153.094 121.67 175.56 99.4462 197.267 77.9486L199.043 76.2056C213.794 61.5833 227.835 47.6873 244.943 40.6667L243.991 41.393C237.535 46.2509 230.918 51.2379 224.559 56.8544C213.633 66.4896 200.705 80.2727 197.558 101.464L194.265 123.655L216.441 120.363C242.361 116.538 267.264 103.836 286.518 84.598C292.296 78.8524 297.896 72.9776 303.335 67.2643C315.101 54.9016 326.204 43.2491 338.874 32.8231L339.923 31.9676C344.49 28.1909 350.591 23.1555 356.224 20.1375C355.82 20.9444 355.352 21.7998 354.868 22.6874C350.026 31.4188 343.296 40.9249 337.889 48.5427C333.855 54.2076 330.949 58.2909 329.19 61.4704L313.664 89.9884L345.895 85.9375C374.655 82.3223 400.268 72.0254 425.042 62.0997C430.981 59.7111 437.082 57.2418 443.118 54.95C444.7 54.3206 445.991 53.8849 447.072 53.5298C445.829 55.8054 443.844 58.6298 442.569 60.4374C441.117 62.5355 439.583 64.6982 438.244 66.9577C433.128 75.4309 428.205 82.6935 422.234 90.4726C413.551 101.754 415.003 110.776 417.763 116.36C424.203 129.401 439.825 129.401 446.507 129.401C451.123 129.401 455.916 129.094 460.564 128.787C462.146 128.707 463.679 128.594 465.132 128.513C464.712 130.192 464.115 132.274 463.292 134.872L463.082 135.582C458.628 149.656 447.669 160.84 437.566 169.959C429.642 177.076 420.765 183.839 412.195 190.407C403.544 197.025 394.587 203.884 386.081 211.421L384.968 212.389C379.093 217.57 370.426 225.204 366.537 235.646C366.94 236.808 367.295 237.922 367.554 239.035C368.215 241.892 368.683 244.845 368.99 247.815C369.523 253.028 369.506 258.451 369.038 264.18L379.981 264.955C381.433 265.068 382.918 265.149 384.387 265.149C386.146 265.149 387.873 265.068 389.616 264.907C381.643 271.298 373.622 277.866 365.923 284.936C365.649 286.291 365.342 287.663 365.036 289.099C364.874 289.842 364.697 290.617 364.487 291.424C363.841 293.974 363.244 296.636 363.535 298.831C374.736 287.389 387.292 277.382 399.509 267.666C404.948 263.357 410.581 258.887 415.891 254.416C422.685 248.719 428.802 243.312 433.741 237.341C419.603 246.83 403.028 256.837 384.387 256.837C383.112 256.837 381.853 256.756 380.594 256.676L373.67 256.159L372.976 249.252C371.492 235.323 382.902 225.285 390.471 218.635L391.585 217.634C399.881 210.291 408.709 203.529 417.247 196.992C425.962 190.343 434.951 183.484 443.134 176.124C454.093 166.279 465.923 154.078 470.991 138.084L471.216 137.406C475.316 124.543 474.444 121.089 473.831 120.169C473.298 120.104 472.298 119.992 470.555 119.992C467.65 119.992 463.954 120.234 460.048 120.492C455.529 120.766 450.881 121.089 446.507 121.089C438.034 121.089 428.883 120.072 425.219 112.664C422.75 107.629 423.96 101.867 428.802 95.5244C435.016 87.5031 440.1 80.0144 445.361 71.2507C446.588 69.2495 448.008 67.1836 449.396 65.1985C453.302 59.5981 457.708 53.3038 456.255 49.0915C454.577 44.2658 452.882 44.2657 451.252 44.2657C448.105 44.2657 443.651 45.8474 440.132 47.1708C434.031 49.511 427.882 51.9805 421.943 54.3691C397.669 64.1172 372.557 74.2043 344.845 77.6904L328.738 79.7239L336.502 65.4729C338.003 62.7131 340.795 58.7911 344.652 53.3522C350.172 45.573 357.079 35.8572 362.147 26.7062C368.473 15.2957 368.441 10.8574 368.312 9.79221L367.699 9.6308C366.634 9.38873 365.52 9.24341 364.374 9.24341C354.416 9.24341 342.99 18.6689 334.646 25.5604L333.58 26.3834C320.54 37.1483 309.242 48.9784 297.299 61.5348C291.908 67.1836 286.357 73.026 280.643 78.7232C262.632 96.6702 239.375 108.549 215.214 112.148L204.127 113.778L205.789 102.69C208.549 84.146 220.201 71.7833 230.063 63.0681C236.163 57.6775 242.651 52.8036 248.929 48.0747C251.431 46.2026 253.965 44.2819 256.45 42.3614C257.548 41.5221 258.742 40.6344 259.969 39.7144C264.681 36.2283 270.475 31.9353 272.735 27.852C271.783 27.6906 270.411 27.5616 268.523 27.5616C261.082 27.5616 252.416 29.4983 249.962 30.1761C227.367 36.4543 210.776 52.868 193.184 70.2985L191.425 72.0254C169.976 93.2648 147.816 115.23 121.671 132.838L108.517 141.731L108.695 125.85C108.889 111.777 106.419 102.884 103.918 100.35L103.094 99.9304C102.707 99.9304 101.577 100.06 99.5599 101.092C91.5548 105.24 85.4541 117.216 80.9997 125.963L80.9029 126.157C73.8016 140.085 68.2657 155.079 64.4245 170.734C62.6008 178.255 61.6486 185.84 61.116 193.603L62.3427 192.974C64.8281 191.812 67.2973 190.795 69.7505 189.907Z" fill="#F15637"/>
<path d="M61.9962 444.37C63.9775 444.37 66.0413 444.288 67.7612 444.205C74.2693 443.861 80.9013 443.352 87.3544 442.843C85.7996 442.279 84.2723 441.687 82.7588 441.095C81.204 440.49 79.608 439.857 78.0532 439.293C77.4065 439.073 76.7735 438.853 76.1131 438.619C73.6502 437.752 71.1047 436.816 68.6143 435.812L67.3484 435.881C65.7111 435.963 63.7987 436.046 61.9962 436.046C54.8001 436.046 54.0296 434.725 53.8095 434.271C52.1309 431.285 51.264 427.212 50.8513 422.699L49.3653 421.021C47.1088 418.613 44.4945 415.737 42.2242 412.38C42.0453 421.915 42.7608 431.533 46.5308 438.302C48.5534 441.962 51.952 444.37 61.9962 444.37Z" fill="#F15637"/>
<path d="M62.0026 436.038C63.8037 436.038 65.7275 435.956 67.3648 435.874L68.6201 435.793C67.433 435.315 66.2596 434.81 65.1135 434.264C63.0123 433.255 61.1566 432.204 59.492 431.058C56.5039 428.957 54.1298 426.351 51.8785 423.786L50.8552 422.68C51.2782 427.197 52.1378 431.276 53.8161 434.264C54.048 434.715 54.8121 436.038 62.0026 436.038Z" fill="#ED3320"/>
<path d="M369.755 377.999L370.77 376.938C373.469 374.082 376.247 371.383 378.931 368.745C382.145 365.578 385.251 362.535 388.122 359.445C382.255 361.911 376.575 363.143 371.051 363.143C365.901 363.143 360.955 362.004 356.476 359.851C355.259 361.957 354.011 363.97 352.731 365.843C350.422 369.213 346.833 374.784 340.154 375.97C337.766 376.407 335.785 376.064 334.349 375.83L333.428 375.674C332.601 375.892 331.712 376.797 329.917 379.091C329.075 380.168 328.139 381.416 327.015 382.587C326.266 383.429 325.501 384.256 324.737 385.068C321.756 388.36 319.072 391.497 316.794 394.961C314.969 397.754 313.377 399.845 311.582 401.733C310.771 402.607 309.928 403.387 309.07 404.089C326.485 399.236 342.776 393.744 357.678 387.627C362.312 385.739 364.793 383.148 369.755 377.999Z" fill="#ED3320"/>
<path d="M384.369 265.145C382.902 265.145 381.434 265.083 379.966 264.974L369.021 264.178C368.522 270.61 367.444 277.465 365.914 284.943C373.612 277.871 381.621 271.297 389.6 264.927C387.867 265.083 386.134 265.145 384.369 265.145Z" fill="#ED3320"/>
<path d="M339.29 118.14L338.566 118.59L338.197 118.927C337.425 119.57 336.702 120.213 335.978 120.921C334.515 122.303 333.068 123.718 331.541 125.004C327.972 127.962 324.113 130.84 319.371 131.58C315.143 132.287 311.043 131.21 308.728 127.271C307.201 124.683 306.992 121.194 308.326 118.477C309.033 111.789 312.136 106.034 316.831 101.114C320.271 97.4969 324.547 97.6256 327.795 99.6191C328.695 99.2493 329.596 98.9439 330.56 98.6867C334.676 97.6095 339.049 99.3297 341.203 103.043L341.557 103.719C342.521 104.844 343.277 106.162 343.631 107.481C344.804 111.725 342.843 115.792 339.29 118.14ZM384.964 212.398L386.073 211.417C394.578 203.877 403.533 197.028 412.182 190.405C420.767 183.845 429.641 177.077 437.567 169.955C447.664 160.84 458.612 149.666 463.065 135.583L463.29 134.875C464.11 132.287 464.705 130.197 465.123 128.525C463.676 128.589 462.133 128.702 460.557 128.782C455.911 129.104 451.12 129.409 446.49 129.409C439.818 129.409 424.192 129.409 417.761 116.371C414.996 110.776 413.549 101.757 422.23 90.4713C428.211 82.6902 433.13 75.4395 438.243 66.967C439.577 64.7163 441.104 62.546 442.567 60.4399C443.837 58.6393 445.815 55.8098 447.069 53.5269C445.992 53.8967 444.689 54.3308 443.114 54.9578C437.085 57.2568 430.976 59.7164 425.044 62.0958C400.269 72.0313 374.659 82.3205 345.881 85.9538L313.664 89.989L329.194 61.4689C330.93 58.3018 333.84 54.2182 337.875 48.5431C343.277 40.9227 350.013 31.4373 354.852 22.7076C355.351 21.7913 355.817 20.9554 356.219 20.1515C350.592 23.1579 344.483 28.1899 339.917 31.968L338.872 32.836C326.203 43.2538 315.094 54.9095 303.326 67.2726C297.892 72.9798 292.297 78.8639 286.51 84.6033C267.25 103.847 242.347 116.532 216.447 120.374L194.261 123.67L197.557 101.468C200.692 80.2787 213.634 66.4848 224.55 56.8708C230.916 51.244 237.524 46.2601 243.987 41.4049L244.935 40.6815C227.83 47.6909 213.794 61.5974 199.036 76.2112L197.268 77.9476C175.548 99.4423 153.088 121.676 126.321 139.747L99.9707 157.512L100.389 125.728C100.469 119.57 100.003 114.972 99.4402 111.725C95.1959 116.387 91.2571 124.168 88.3954 129.747L88.2989 129.94C81.4984 143.3 76.177 157.705 72.4954 172.704C71.1289 178.315 70.2929 184.022 69.7463 189.906C78.0902 186.787 86.1447 185.212 92.9773 185.196C96.9483 185.196 100.517 185.742 103.54 186.932C106.369 188.025 108.716 189.778 110.147 192.221C113.186 194.038 117.623 196.755 122.237 199.954C127.784 196.482 133.41 193.186 138.973 190.051C145.339 186.514 151.417 183.251 157.558 179.971L158.33 179.505C158.957 178.894 159.487 177.19 159.825 176.177C160.805 173.235 162.445 168.187 172.123 162.495C177.734 159.393 185.001 156.193 197.605 153.862C202.396 146.724 206.222 141.338 207.798 139.49C214.743 131.387 222.781 123.992 233.73 122.641C236.286 122.32 238.649 123.493 240.337 125.342C246.913 123.22 254.919 129.49 252.411 136.773C250.771 141.467 248.086 146.001 244.903 150.309C245.996 150.293 247.073 150.293 248.183 150.293C268.23 150.583 277.458 153.396 278.729 157.785C279.05 158.862 278.841 159.955 278.343 160.984C280.288 160.02 282.137 159.055 283.327 158.444C286.156 156.933 288.857 155.582 291.654 154.377C310.77 146.145 328.856 146.258 343.084 154.152C359.29 163.09 368.984 175.1 371.009 186.016C371.138 186.723 371.251 187.414 371.283 188.106C371.652 192.655 370.431 197.125 367.81 201.385C366.781 203.105 365.495 204.681 364.289 206.24C362.987 207.896 361.765 209.488 361.01 211.047C360.126 212.928 359.836 215.05 360.142 217.51C360.592 221.546 362.489 225.806 364.241 229.938C365.093 231.899 365.881 233.796 366.54 235.661C370.415 225.195 379.08 217.575 384.964 212.398Z" fill="#ED3320"/>
<path d="M69.925 426.697L70.2937 426.888L69.5427 426.492L69.925 426.697Z" fill="#ED3320"/>
<path d="M264.197 169.649C262.896 169.528 262.291 169.301 262.17 168.908L262.82 167.546C261.731 168.711 261.534 169.513 264.197 169.649Z" fill="#ED3320"/>
<path d="M359.757 249.114L359.634 248.142L359.803 249.469L359.757 249.114Z" fill="#ED3320"/>
<path d="M241.415 156.158C255.869 156.462 262.77 157.738 265.643 159.395C262.815 157.678 255.976 156.218 241.415 156.158Z" fill="#ED3320"/>
<path d="M301.431 159.242C302.018 158.191 302.884 157.325 303.997 156.629C306.223 155.223 309.192 154.62 312.577 154.62C317.153 154.62 322.595 155.733 328.192 157.804C333.788 159.861 339.524 162.891 344.672 166.74C349.589 170.42 353.361 174.285 355.912 177.964C358.494 181.659 359.885 185.153 359.885 188.261C359.885 189.637 359.622 190.92 358.988 192.064C358.354 193.192 357.396 194.135 356.175 194.785C354.428 195.759 352.325 196.145 349.913 196.145C345.677 196.145 340.545 194.878 335.056 192.713C329.537 190.518 323.678 187.41 318.035 183.638C312.778 180.113 308.465 176.403 305.435 172.801C302.42 169.229 300.596 165.782 300.596 162.582C300.565 161.407 300.859 160.263 301.431 159.242ZM358.123 319.052L359.205 319.284V319.253V319.284C360.086 319.609 360.689 320.382 360.983 321.201C361.292 322.005 361.431 322.933 361.431 324.015C361.431 326.427 360.813 329.503 359.808 333.136C358.787 336.708 357.365 340.804 355.633 345.01H355.618C352.526 352.585 349.372 358.908 346.574 362.526C345.631 363.716 344.765 364.659 343.791 365.231C343.25 365.571 342.647 365.788 341.967 365.803L341.07 365.633H341.039L339.694 364.551L338.952 362.959C338.566 361.768 338.426 360.3 338.426 358.584C338.426 353.853 339.679 347.143 342.4 339.923C344.008 335.533 346.017 331.529 348.074 328.282C350.145 325.004 352.248 322.469 354.18 320.846C355.51 319.779 356.716 319.083 358.123 319.052ZM217.591 423.5C198.962 442.794 152.103 444.263 103.852 426.793C100.899 425.773 97.9772 424.629 95.0243 423.392C44.0682 402.66 23.1817 348.782 60.935 307.859C79.0851 288.148 106.387 278.532 131.896 280.093C157.684 281.438 181.693 293.945 198.869 313.75C231.969 354.672 236.762 402.629 217.591 423.5ZM199.039 455.564V455.657L198.467 456.955L197.431 457.713C196.658 458.099 195.7 458.331 194.556 458.532C192.268 458.95 189.129 459.089 185.311 459.089C180.054 459.089 173.515 458.795 166.341 458.285C155.628 457.481 146.011 456.322 140.075 454.714C138.065 454.173 136.488 453.616 135.298 452.874C134.648 452.457 134.092 452.008 133.69 451.344L133.381 450.138L133.411 449.998V449.968V449.875C133.489 449.241 133.798 448.715 134.184 448.298C134.602 447.85 135.128 447.479 135.73 447.169C136.936 446.505 138.544 445.994 140.523 445.53C144.434 444.649 149.799 444.108 155.968 444.108C159.554 444.108 163.404 444.278 167.393 444.711H167.377C178.153 445.809 187.351 448.128 192.932 450.462C194.819 451.235 196.287 452.024 197.339 452.843L198.73 454.358L199.039 455.487V455.564ZM30.2314 321.588C30.0613 326.844 29.5203 331.946 28.67 336.352C27.8042 340.743 26.6757 344.515 25.2224 347.205C24.233 348.998 23.1353 350.374 21.682 351.07L19.9814 351.456C19.2703 351.456 18.5746 351.24 17.9716 350.884C17.3532 350.56 16.7966 350.05 16.2864 349.478C15.297 348.287 14.4467 346.695 13.7355 344.7C12.2978 340.773 11.4165 335.316 11.4165 328.9V328.56C11.432 323.165 12.1123 317.939 13.2254 313.378C14.354 308.787 15.8846 304.86 17.647 302.124C18.822 300.284 20.1051 298.939 21.6974 298.305V298.29V298.305L23.228 297.98C23.9237 297.98 24.5885 298.181 25.1605 298.552L26.6602 299.897C27.5259 301.01 28.1908 302.51 28.7009 304.319C29.7522 307.937 30.2777 312.837 30.2777 318.511C30.2777 319.532 30.2778 320.552 30.2314 321.588ZM190.103 176.805C194.448 175.723 198.838 174.764 203.167 173.96C198.143 174.254 193.551 174.439 189.67 174.439C186.996 174.439 184.661 174.347 182.698 174.177C180.719 174.006 179.111 173.744 177.89 173.311C177.086 173.017 176.39 172.677 175.896 172.043L175.416 170.667L175.494 169.987H175.509V169.972C175.803 169.075 176.421 168.456 177.225 167.838C178.044 167.25 179.111 166.632 180.394 166.06C182.961 164.854 186.439 163.617 190.644 162.489C199.055 160.17 210.294 158.129 222.337 157.201C227.346 156.83 232.062 156.645 236.39 156.645C241.523 156.645 246.13 156.892 249.98 157.325C253.86 157.743 256.999 158.315 259.271 159.057C260.802 159.567 261.93 160.093 262.75 160.866C263.214 161.329 263.6 161.948 263.6 162.69L263.368 163.664L263.353 163.695C262.951 164.499 262.255 165.024 261.405 165.488C260.539 165.998 259.472 166.431 258.189 166.849C255.638 167.668 252.222 168.425 248.14 169.137C245.373 169.647 242.265 170.095 238.926 170.528C249.763 170.543 260.338 171.533 270.418 173.666C321.529 183.545 347.146 213.275 354.397 245.463C361.941 278.13 351.166 313.255 335.86 345.211C327.821 361.011 319.473 374.554 310.428 386.056L309.13 387.695L308.202 388.854C307.522 389.674 306.842 390.508 306.146 391.297L305.945 391.529L304.956 392.688L304.569 393.137C303.842 393.956 303.085 394.822 302.327 395.61L301.338 396.739L299.684 398.455L298.339 399.831L296.978 401.16L295.417 402.675L294.226 403.819L292.51 405.381L291.428 406.324C290.81 406.881 290.207 407.422 289.588 407.932L288.599 408.782C287.95 409.308 287.3 409.849 286.635 410.359L285.692 411.086L285.538 411.24L286.265 411.611L287.146 412.663L287.408 413.807C287.408 414.502 287.146 415.152 286.806 415.724C286.45 416.342 285.971 416.914 285.368 417.517C284.177 418.707 282.539 419.991 280.529 421.336C276.494 424.041 270.944 427.087 264.682 430.225H264.667C256.458 434.26 248.743 437.646 243.332 439.13C241.492 439.594 239.946 439.903 238.632 439.903L236.947 439.687L235.54 438.836H235.525C235.076 438.326 234.875 437.677 234.875 437.074C234.891 436.378 235.092 435.729 235.401 435.064C235.71 434.399 236.128 433.735 236.684 433.023L236.793 432.884C242.652 418.12 246.811 401.176 248.99 381.835C252.283 347.761 249.872 312.08 231.072 283.881C214.283 258.526 183.904 239.449 138.9 240.5C120.58 261 73.7358 282.381 60.2238 278.207C56.4979 277.078 53.576 274.435 51.2879 271.08L50.6386 270.616C47.2838 273.012 43.6971 274.929 38.7499 277.867C26.7221 285.056 19.0538 295.368 14.6941 306.762C9.28308 320.784 7.36607 336.445 10.86 347.251C11.0765 347.962 11.3547 348.612 11.6484 349.23L11.9113 349.756L12.8079 351.224L13.009 351.518L14.3231 352.987L14.6787 353.312L15.9464 354.27L16.3793 354.564L17.4305 355.105L17.9097 355.337C18.4508 355.569 18.992 355.785 19.5949 355.94L20.6925 356.156L21.0482 356.203L21.9912 356.265L22.5014 356.295L23.2899 356.311H24.6504H24.8977H25.8253L26.2273 356.326L27.2167 356.419L27.4176 356.435L28.1906 356.605L28.4535 356.682L29.2574 357.053H29.2728L29.443 357.192L29.7522 357.47L29.8449 357.548L30.1696 357.95L30.185 357.965L30.6952 359.357C32.6586 370.163 35.8279 379.068 41.0843 387.555C43.6043 391.621 44.3464 396.739 46.3407 401.114C48.5206 405.953 51.8754 409.849 55.2302 413.652C58.3068 417.084 60.9968 420.841 64.7381 423.562C65.4647 424.103 66.2532 424.613 67.0262 425.077L67.8611 425.556L69.5617 426.484L70.3037 426.886C71.1386 427.288 71.958 427.674 72.7773 428.03L73.0402 428.138C74.0142 428.571 74.9726 428.988 75.9466 429.375L76.7506 429.7C77.4308 429.993 78.1265 430.225 78.8377 430.503C80.0436 430.967 81.2339 431.415 82.4398 431.895C87.588 433.889 92.5971 436.347 97.9771 437.878C104.702 439.748 111.984 439.996 118.925 441.063C120.301 441.264 122.234 441.464 124.027 441.866L124.336 441.959L125.001 442.129L125.388 442.238L125.944 442.438L126.315 442.578L126.965 442.887L127.088 442.964L127.119 442.98L127.351 443.119L127.691 443.335L127.939 443.536L128.201 443.799L128.402 443.984L128.727 444.433L128.82 444.665L128.974 445.005L129.036 445.283L129.114 445.685V445.933L129.052 446.659L128.897 447.355L128.866 447.54L128.712 448.05L128.665 448.19L128.294 449.442L128.279 449.488L128.14 449.89L128.093 450.06L128.016 450.493L127.939 450.756V450.911V451.158V451.313L127.985 451.544L128.016 451.714L128.093 451.931L128.155 452.055L128.325 452.302L128.402 452.41L128.727 452.766L128.851 452.797L129.191 453.075L129.423 453.214L129.67 453.322L129.763 453.384L130.443 453.678L130.582 453.755L131.665 454.157C140.631 457.203 151.531 457.373 160.868 458.579C168.227 459.506 175.602 460.65 182.853 461.006C189.485 461.114 208.222 463.82 203.523 454.482C202.085 451.498 199.936 448.236 202.085 445.484C204.327 442.609 209.676 441.743 213.216 440.722C216.926 439.625 221.255 437.692 225.383 438.032C228.181 438.249 229.712 440.15 232.232 441.124C237.334 443.088 242.992 440.908 246.872 439.563C254.262 436.997 260.817 433.394 267.357 430.009C270.511 428.385 273.711 426.824 276.88 425.309C279.818 423.886 282.74 421.722 285.986 420.903C288.336 420.3 290.16 420.671 291.815 418.63C293.577 416.466 294.103 413.204 295.432 410.591C298.122 405.257 303.487 403.325 307.445 399.073C309.13 397.28 310.537 395.301 311.913 393.137C314.943 388.468 318.669 384.34 322.487 380.135C325.858 376.471 327.821 371.755 333.51 370.982C335.551 370.719 337.638 371.74 339.632 371.384C343.003 370.781 345.445 367.025 347.301 364.18C351.367 358.058 354.737 350.977 357.705 343.819C358.045 343.031 358.37 342.18 358.725 341.299C359.978 338.207 361.354 334.713 362.467 331.096L362.621 330.663L362.977 329.41C363.379 327.895 363.734 326.38 364.013 324.881L364.028 324.803C364.322 323.165 364.492 321.557 364.569 319.964L364.585 319.253V318.449L364.477 316.749L364.461 316.563C364.415 316.068 364.291 315.574 364.198 315.079C364.013 314.12 363.75 313.177 363.41 312.25C363.333 312.018 363.271 311.786 363.178 311.554C362.699 310.426 362.127 309.312 361.354 308.292C359.699 306.097 357.133 304.52 356.159 301.938L355.788 300.639L355.742 300.377L355.695 300.206L355.587 299.14L355.556 298.939L355.587 297.439L355.618 296.991L355.711 295.909L355.804 295.337L355.958 294.44L356.082 293.698L356.221 292.956C356.484 291.75 356.747 290.59 356.948 289.493C357.21 288.148 357.473 286.787 357.705 285.442L358.014 283.726C358.231 282.489 358.432 281.222 358.633 279.985L358.865 278.408C359.05 277.264 359.205 276.104 359.344 274.976L359.483 273.986C359.653 272.595 359.792 271.188 359.916 269.781L360.009 268.807C360.132 267.308 360.225 265.854 360.287 264.37L360.318 263.767C360.364 262.283 360.426 260.768 360.411 259.268L360.426 259.083C360.411 257.599 360.364 256.099 360.271 254.599L360.21 253.687C360.117 252.265 359.978 250.874 359.808 249.467L359.638 248.137C359.499 247.318 359.406 246.529 359.251 245.71L358.988 244.272C358.741 243.066 358.478 241.86 358.138 240.639L357.782 239.34C356.87 236.418 355.355 233.28 353.886 230.08L353.516 229.23L353.314 228.781C352.526 227.034 351.815 225.256 351.227 223.479L351.088 223.077L350.794 222.072L350.485 220.819L350.393 220.526L350.145 219.057C349.759 216.413 349.929 213.785 351.057 211.25C352.619 207.787 355.773 204.633 357.751 201.232L358.617 199.608L358.787 199.222L359.297 198L359.498 197.49L359.87 196.377L360.009 195.836L360.256 194.738L360.364 194.182L360.488 193.069L360.55 192.559L360.581 191.244V190.935L360.488 189.451V189.389C360.411 188.786 360.318 188.168 360.194 187.58C357.767 175.954 346.45 165.009 333.015 157.974C322.75 152.517 311.542 151.327 297.087 157.402C289.557 160.541 279.168 167.25 270.047 169.183C268.037 169.6 266.058 169.786 264.203 169.647C261.528 169.523 261.729 168.719 262.827 167.544C264.358 165.828 267.96 163.385 267.233 161.113C267.063 160.541 266.553 159.953 265.656 159.381C262.781 157.727 255.87 156.444 241.431 156.135C192.963 157.155 178.817 162.69 173.917 167.359C168.969 172.445 173.298 176.65 160.25 183.777C150.124 189.204 140.044 194.63 130.273 200.459C132.206 199.376 134.154 198.341 136.117 197.336C153.309 188.168 171.644 181.273 190.103 176.805Z" fill="#E31E24"/>
<path d="M363.819 300.084L363.54 298.874V298.812C363.261 296.625 363.85 293.972 364.501 291.413C364.703 290.606 364.889 289.846 365.044 289.102C365.355 287.659 365.649 286.294 365.928 284.929C367.449 277.453 368.534 270.597 369.046 264.16C369.512 258.452 369.543 253.023 368.984 247.811C368.69 244.833 368.209 241.886 367.557 239.032C367.293 237.931 366.952 236.799 366.549 235.651C365.897 233.789 365.106 231.897 364.253 229.927C362.501 225.786 360.608 221.52 360.143 217.503C359.848 215.036 360.143 212.911 361.027 211.035C361.772 209.468 362.997 207.886 364.315 206.226C365.51 204.675 366.782 203.093 367.836 201.371C370.442 197.121 371.668 192.639 371.295 188.094C371.249 187.411 371.156 186.713 371.032 186C369 175.08 359.29 163.074 343.096 154.14C328.873 146.245 310.787 146.136 291.662 154.357C288.87 155.567 286.171 156.932 283.332 158.421C282.153 159.042 280.292 160.003 278.369 160.981C278.849 159.941 279.051 158.84 278.741 157.77C277.469 153.38 268.24 150.573 248.2 150.278C247.083 150.278 245.997 150.278 244.911 150.309C223.521 150.433 208.569 151.813 197.618 153.861C185.007 156.188 177.748 159.367 172.133 162.485C162.454 168.162 160.81 173.234 159.849 176.166C159.492 177.174 158.964 178.88 158.344 179.485L157.568 179.951C151.426 183.239 145.346 186.496 138.986 190.048C133.418 193.181 127.803 196.47 122.234 199.944C123.568 200.859 124.902 201.837 126.22 202.798C127.57 202.038 128.919 201.232 130.284 200.456C140.056 194.624 150.139 189.195 160.252 183.766C173.312 176.647 168.969 172.443 173.917 167.355C178.818 162.687 192.98 157.149 241.421 156.141C255.986 156.203 262.842 157.646 265.649 159.367C266.565 159.941 267.061 160.531 267.247 161.12C267.961 163.369 264.362 165.82 262.826 167.542L262.175 168.907C262.299 169.294 262.889 169.527 264.207 169.651C266.068 169.775 268.038 169.605 270.055 169.186C279.175 167.247 289.568 160.531 297.09 157.397C311.547 151.317 322.746 152.511 333.014 157.971C346.462 164.998 357.77 175.949 360.205 187.566C360.329 188.156 360.422 188.776 360.5 189.381V189.443L360.593 190.932V191.243L360.546 192.546L360.5 193.057L360.36 194.19L360.252 194.733L360.019 195.834L359.864 196.361L359.491 197.478L359.305 197.99L358.793 199.215L358.623 199.603L357.77 201.232C355.769 204.629 352.62 207.793 351.069 211.252C349.937 213.78 349.766 216.401 350.154 219.054L350.402 220.527L350.48 220.822L350.805 222.063L351.1 223.087L351.224 223.475C351.813 225.243 352.542 227.027 353.318 228.779L353.52 229.229L353.892 230.082C355.366 233.278 356.886 236.411 357.785 239.342L358.142 240.645C358.483 241.855 358.747 243.065 358.995 244.259L359.259 245.717C359.398 246.524 359.507 247.315 359.647 248.137L359.771 249.099L359.817 249.456C359.988 250.867 360.127 252.263 360.22 253.69L360.267 254.59C360.36 256.094 360.422 257.599 360.422 259.088V259.259C360.422 260.763 360.376 262.283 360.329 263.772L360.298 264.362C360.236 265.851 360.143 267.309 360.019 268.798L359.926 269.775C359.802 271.187 359.662 272.583 359.476 273.994L359.352 274.971C359.197 276.104 359.057 277.267 358.871 278.399L358.638 279.981C358.437 281.207 358.235 282.494 358.018 283.72L357.708 285.441C357.475 286.791 357.211 288.14 356.948 289.49C356.746 290.591 356.482 291.754 356.234 292.949L356.079 293.693L355.955 294.438L355.815 295.322L355.707 295.911L355.614 296.997L355.583 297.447L355.567 298.92L355.583 299.122L355.691 300.208L355.753 300.378L355.784 300.627L356.157 301.929C357.134 304.52 359.708 306.102 361.368 308.289C362.144 309.297 362.733 310.368 363.214 311.531C363.307 311.764 363.323 312.012 363.416 312.244C363.741 313.159 364.021 314.106 364.207 315.083C364.238 315.316 364.346 315.533 364.393 315.781L364.47 316.572L364.486 316.743L364.595 318.449V319.255L364.579 319.969C364.501 321.551 364.315 323.164 364.036 324.808L364.021 324.886C363.741 326.375 363.385 327.895 362.981 329.4L362.625 330.656L362.47 331.09C361.368 334.704 360.019 338.194 358.747 341.297C358.375 342.181 358.049 343.034 357.708 343.825C354.73 350.976 351.379 358.049 347.315 364.175C345.454 367.014 343.003 370.768 339.637 371.373C337.636 371.729 335.558 370.706 333.51 370.985C327.833 371.76 325.848 376.476 322.498 380.136C318.666 384.34 314.944 388.466 311.919 393.135C310.538 395.306 309.143 397.276 307.436 399.06C303.497 403.31 298.114 405.249 295.431 410.584C294.112 413.206 293.585 416.463 291.817 418.635C290.157 420.667 288.342 420.294 285.984 420.899C282.743 421.721 279.827 423.893 276.88 425.305C273.715 426.825 270.504 428.376 267.356 430.004C260.826 433.386 254.264 436.984 246.881 439.559C243.003 440.893 237.342 443.08 232.239 441.126C229.71 440.149 228.19 438.241 225.383 438.024C221.257 437.682 216.929 439.621 213.222 440.707C209.686 441.731 204.334 442.599 202.101 445.469C199.929 448.23 202.101 451.487 203.528 454.465C208.228 463.819 189.49 461.12 182.851 460.995C175.608 460.639 168.224 459.491 160.872 458.576C151.535 457.366 140.646 457.195 131.665 454.155L130.595 453.752L130.439 453.674L129.757 453.38L129.664 453.317L129.431 453.209L129.199 453.069L128.857 452.806L128.733 452.759L128.408 452.418L128.314 452.294L128.159 452.061L128.097 451.937L128.02 451.704L127.989 451.549L127.942 451.301V451.162V450.913V450.743L128.02 450.495L128.097 450.06L128.144 449.89L128.284 449.486L128.299 449.424L128.671 448.183L128.718 448.044L128.873 447.532L128.888 447.361L129.059 446.648L129.121 445.934V445.686L129.043 445.283L128.982 445.004L128.826 444.662L128.733 444.43L128.408 443.98L128.206 443.794L127.942 443.53L127.694 443.344L127.368 443.111L127.12 442.972L127.089 442.956L126.981 442.879L126.314 442.584L125.941 442.429L125.383 442.243L124.995 442.119L124.328 441.948L124.033 441.87C122.234 441.467 120.295 441.296 118.93 441.048C111.981 439.994 104.707 439.745 97.9903 437.868C92.6079 436.348 87.5825 433.898 82.4483 431.897C81.2385 431.416 80.044 430.966 78.8341 430.485C78.1361 430.222 77.4382 429.989 76.7557 429.694L75.9491 429.384C74.9719 428.981 74.0103 428.577 73.0331 428.143L72.7848 428.034C71.9627 427.662 71.1406 427.274 70.303 426.887L69.9309 426.685L69.5585 426.483L67.8679 425.553L67.0303 425.072C66.2547 424.607 65.4636 424.095 64.7501 423.552C60.9964 420.837 58.313 417.084 55.2418 413.64C51.8759 409.855 48.5256 405.947 46.354 401.123C44.3531 396.733 43.6085 391.614 41.0957 387.551C35.822 379.066 32.6733 370.163 30.6879 359.351L30.1915 357.955H30.176L29.8502 357.537L29.7572 357.459L29.447 357.196L29.2763 357.056H29.2608L28.4542 356.684L28.2061 356.606L27.4149 356.42H27.2133L26.2207 356.327L25.8329 356.311H24.9023H24.654H23.2891L22.5135 356.296L22.0017 356.265L21.0554 356.203L20.6987 356.156L19.5974 355.939C19.008 355.784 18.4496 355.567 17.9067 355.334L17.4259 355.102L16.3866 354.559L16.2005 354.465L15.9523 354.264L14.6804 353.302L14.3237 352.976L13.0207 351.518L12.8191 351.224L11.9039 349.75L11.6558 349.223C11.361 348.602 11.0819 347.966 10.8647 347.253C7.37476 336.442 9.2825 320.791 14.6959 306.769C19.0545 295.368 26.717 285.053 38.7536 277.872C43.7016 274.925 47.3002 273.001 50.635 270.613C49.3166 269.589 48.1533 268.379 47.0985 266.999L47.0831 267.045C45.9818 267.65 44.6633 268.41 42.9881 269.356C42.0574 269.899 41.0493 270.442 40.0256 271.078C29.2454 277.329 14.1221 289.893 6.44409 310.724C0.146599 327.864 -0.722112 344.089 3.01606 354.884C4.30347 358.653 6.53713 361.461 9.51525 363.229C10.7561 363.958 12.1056 364.501 13.5946 364.873C15.456 365.354 17.4413 365.292 19.1941 365.23C20.6676 365.199 22.0481 365.153 22.6841 365.525L23.0253 366.052C25.4606 377.934 29.1212 386.822 34.426 394.965L34.7827 395.601C35.946 397.602 36.7372 399.959 37.5903 402.426C38.2107 404.287 38.8621 406.179 39.7462 408.01C40.4753 409.561 41.3285 410.988 42.2436 412.353C44.5082 415.719 47.1295 418.588 49.3941 420.992L50.8677 422.683L51.8759 423.769C54.1405 426.344 56.5138 428.95 59.4919 431.044C61.1671 432.191 63.0129 433.246 65.1224 434.254C66.2702 434.813 67.4335 435.309 68.6279 435.79C71.1252 436.798 73.669 437.729 76.1353 438.598C76.7868 438.83 77.4227 439.047 78.0742 439.28C79.6253 439.838 81.2229 440.459 82.774 441.079C84.2941 441.669 85.8142 442.258 87.3808 442.817C89.5524 443.654 91.7859 444.414 94.1125 445.004C99.2932 446.322 104.691 446.741 109.887 447.222C111.795 447.423 113.781 447.625 115.689 447.873L117.224 448.044C118.961 448.199 121.319 448.525 122.684 449.176L122.808 449.207L122.855 449.238L122.73 449.595C121.583 453.286 121.133 457.335 125.631 459.537C126.314 459.879 127.12 460.204 128.128 460.515C136.039 463.012 145.253 463.4 153.287 464.051C155.056 464.191 156.793 464.346 158.483 464.516L158.949 464.563C166.255 465.354 173.715 466.3 181.145 466.564L182.293 466.61C193.089 467.045 202.783 467.51 207.576 461.802C209.313 459.708 210.895 456.311 208.708 451.487L208.026 450.091C207.716 449.424 207.235 448.416 206.987 447.656C208.119 447.191 209.887 446.694 210.942 446.431C211.873 446.182 212.819 445.934 213.687 445.686C214.82 445.329 215.921 444.942 216.991 444.569C219.504 443.732 221.877 442.987 223.847 443.111C224.344 443.142 225.088 443.592 225.972 444.104C226.903 444.662 228.004 445.298 229.416 445.826C236.551 448.385 243.779 445.577 248.153 444.073H248.184C255.986 441.327 262.687 437.636 269.62 434.022C270.644 433.51 271.699 432.998 272.722 432.455C274.77 431.478 276.911 430.439 279.02 429.415C279.982 428.95 280.866 428.453 281.734 427.972L282.634 427.461C284.201 426.561 285.674 425.77 286.962 425.444L288.125 425.227C289.955 424.932 293.306 424.436 295.974 421.179C297.478 419.333 298.316 417.285 298.998 415.377L299.324 414.524C299.65 413.625 299.975 412.741 300.317 412.058C301.371 410.011 303.155 408.646 305.435 406.955C306.568 406.071 307.824 405.156 309.065 404.085C309.918 403.387 310.771 402.612 311.593 401.728C313.377 399.835 314.959 397.741 316.805 394.965C319.07 391.49 321.769 388.357 324.731 385.069C325.491 384.247 326.267 383.425 327.011 382.587C328.128 381.408 329.074 380.167 329.927 379.097C331.711 376.801 332.595 375.886 333.433 375.685L334.348 375.824C335.791 376.072 337.76 376.414 340.149 375.979C346.834 374.785 350.433 369.216 352.729 365.835C354.016 363.974 355.257 361.957 356.482 359.848C357.785 357.568 359.088 355.132 360.391 352.511C361.57 350.153 362.733 347.61 363.943 344.973L364.114 344.554C367.867 335.837 372.908 324.653 371.823 314.664C371.435 311.298 370.334 308.289 368.457 305.699H368.441C367.728 304.706 366.906 303.868 366.177 303.124C365.075 302.007 364.191 301.092 363.819 300.084Z" fill="#F38C5B"/>
<path d="M203.723 173.936L203.149 173.981C198.818 174.781 194.442 175.731 190.096 176.818C194.185 175.837 198.305 174.947 202.425 174.192L203.723 173.936Z" fill="#DF481F"/>
<path d="M146.334 226.168C146.108 230.636 143.325 235.554 138.902 240.504C183.895 239.451 214.267 258.54 231.055 283.887C249.858 312.077 252.28 347.759 248.986 381.831C246.804 401.191 242.653 418.129 236.801 432.886C237.854 431.502 239.343 429.998 241.209 428.343C245.045 425.049 250.46 421.378 256.913 418.174V418.159V418.174C260.569 416.324 264.134 414.835 267.488 413.676L268.015 413.105C276.619 398.949 283.689 382.177 289.3 362.456C292.7 349.759 295.333 336.702 296.581 323.705C291.828 326.323 287.014 327.812 282.441 327.827C279.869 327.827 277.386 327.346 275.085 326.293C271.58 324.743 268.917 322.02 267.218 318.621C265.503 315.236 264.69 311.19 264.675 306.782C264.69 298.825 267.338 289.558 272.603 280.533C276.965 273.101 282.471 266.904 288.353 262.376C281.358 246.446 269.549 231.974 252.34 221.565L253.138 222.768C255.108 226.168 256.251 229.507 256.251 232.531C256.281 234.832 255.529 236.954 253.995 238.563C252.13 244.836 247.165 259.638 241.374 262.06C240.321 263.248 239.208 264.136 238.065 264.512C222.901 269.491 188.243 241.015 188.559 230.726C188.664 226.514 192.53 222.588 197.028 219.399C202.774 214.434 211.228 210.764 213.695 209.741C213.876 208.959 214.162 208.252 214.538 207.56C207.558 206.251 200.082 205.424 192.109 205.138C174.343 204.521 155.57 207.003 136.917 212.238L138 213.532C142.934 217.954 146.484 222.497 146.334 226.168Z" fill="#DF481F"/>
<path d="M270.397 173.688C260.317 171.543 249.755 170.56 238.92 170.545L237.953 170.696C249.135 170.636 260.03 171.558 270.397 173.688Z" fill="#DF481F"/>
<path d="M335.853 345.213C327.768 361.032 319.454 374.573 310.421 386.067C319.469 374.573 327.814 361.032 335.853 345.213Z" fill="#C94720"/>
<path d="M202.431 174.186L203.97 173.914L203.714 173.929L202.431 174.186Z" fill="#C94720"/>
<path d="M317.576 302.683C313.085 310.056 307.456 316.155 301.509 320.54C299.885 321.723 298.232 322.785 296.578 323.711C295.319 336.697 292.694 349.76 289.296 362.459C283.682 382.182 276.612 398.946 267.995 413.117C283.091 396.762 295.289 375.84 305.575 349.199C311.082 334.027 315.482 318.309 317.576 302.683Z" fill="#C94720"/>
<path d="M237.149 170.762C248.633 170.656 259.815 171.623 270.408 173.663C260.057 171.532 249.147 170.611 237.98 170.671L237.149 170.762Z" fill="#C94720"/>
<path d="M136.914 212.239C155.558 206.994 174.338 204.523 192.103 205.145C200.076 205.433 207.549 206.251 214.537 207.555C214.901 206.888 215.34 206.236 215.916 205.675C217.796 203.902 220.403 203.174 223.253 203.174C226.451 203.174 229.998 204.069 233.666 205.721C237.35 207.343 241.109 209.738 244.641 212.784C247.839 215.573 250.401 218.559 252.341 221.561C269.545 231.974 281.353 246.45 288.356 262.381L289.356 261.593C295.632 256.985 302.256 254.317 308.455 254.287C310.85 254.287 313.184 254.741 315.337 255.636C314.715 253.286 314.003 250.967 313.184 248.663C302.225 217.514 273.198 190.548 220.721 185.652C192.892 183.136 162.106 187.85 132.654 199.203C133.791 198.536 134.943 197.945 136.11 197.338C134.155 198.354 132.199 199.385 130.274 200.476C128.91 201.249 127.561 202.038 126.197 202.811C130.244 205.827 134.109 209.086 136.914 212.239Z" fill="#C94720"/>
<path d="M323.679 263.497C325.393 266.879 326.197 270.941 326.197 275.327C326.181 283.311 323.54 292.546 318.274 301.566L317.579 302.693C315.479 318.306 311.077 334.028 305.579 349.209C295.294 375.85 283.093 396.761 268.005 413.116L267.48 413.687C268.715 413.255 269.92 412.868 271.093 412.529C275.387 411.278 279.124 410.645 281.919 410.645C282.8 410.645 283.634 410.722 284.329 410.876L285.518 411.247L285.688 411.092L286.63 410.382C287.294 409.857 287.927 409.332 288.591 408.791L289.579 407.942C290.197 407.432 290.8 406.892 291.417 406.336L292.514 405.394L294.213 403.818L295.402 402.691L296.977 401.178L298.321 399.849L299.664 398.459L301.317 396.745L302.321 395.618C303.077 394.83 303.834 393.965 304.56 393.147L304.946 392.699L305.934 391.541L306.135 391.309C306.83 390.521 307.51 389.687 308.189 388.854L309.116 387.695L310.413 386.074C319.448 374.568 327.772 361.039 335.849 345.209C351.154 313.272 361.933 278.137 354.381 245.474C347.138 213.289 321.517 183.56 270.398 173.676C259.804 171.637 248.607 170.664 237.133 170.788C231.14 171.545 224.469 172.27 217.442 172.904C212.701 173.305 208.176 173.66 203.975 173.908L202.431 174.186C198.307 174.942 194.184 175.838 190.091 176.811C171.62 181.29 153.289 188.178 136.1 197.351C134.941 197.938 133.783 198.54 132.656 199.204C162.107 187.853 192.886 183.143 220.716 185.66C273.194 190.556 302.228 217.521 313.177 248.671C313.996 250.972 314.706 253.288 315.34 255.636L315.788 255.806C319.309 257.381 321.965 260.099 323.679 263.497Z" fill="#9E411D"/>
<path d="M131.891 280.101C106.37 278.531 79.0878 288.144 60.9192 307.868C23.1732 348.784 44.0568 402.658 95.0109 423.395C50.6462 405.065 32.2428 358.939 63.2526 323.718C94.3064 288.657 152.07 291.607 182.992 325.655C214.134 359.673 220.239 401.543 202.98 421.15C186.426 439.216 145.51 441.637 103.846 426.8C152.1 444.264 198.944 442.797 217.583 423.513C236.749 402.644 231.965 354.683 198.856 313.767C181.686 293.955 157.676 281.451 131.891 280.101Z" fill="#E31E24"/>
<path d="M95.7872 416.527C64.4374 402.565 51.6701 370.268 71.885 345.987C92.0999 321.764 132.253 321.764 156.971 344.019C181.792 366.245 188.175 396.429 174.738 412.475C161.096 428.449 127.254 430.548 95.7872 416.527ZM202.983 421.147C220.254 401.53 214.147 359.657 183.001 325.64C152.074 291.594 94.3153 288.65 63.2715 323.702C32.2569 358.929 50.6499 405.043 95.0293 423.392C97.9734 424.616 100.903 425.767 103.847 426.788C145.516 441.625 186.441 439.205 202.983 421.147Z" fill="#EF3A31"/>
<path d="M174.732 412.477C188.175 396.417 181.791 366.238 156.975 344.01C132.26 321.753 92.0887 321.753 71.8736 345.994C51.6729 370.278 64.4404 402.57 95.7839 416.517C127.257 430.549 161.102 428.45 174.732 412.477Z" fill="#F25850"/>
<path d="M319.383 181.626C324.896 185.307 330.624 188.34 335.952 190.45C341.264 192.544 346.161 193.729 349.918 193.714C351.519 193.714 352.89 193.498 354.014 193.113C354.522 187.724 349.348 179.332 339.186 171.879C327.129 162.979 311.854 158.729 303.415 160.793C303.169 161.316 303.015 161.901 303.015 162.579C303 164.796 304.447 167.891 307.28 171.233C310.129 174.589 314.287 178.177 319.383 181.626Z" fill="#AE3C1F"/>
<path d="M339.178 171.894C349.338 179.324 354.518 187.726 354.009 193.122L354.996 192.66C355.859 192.197 356.445 191.611 356.861 190.871C357.262 190.162 357.478 189.284 357.478 188.251C357.478 185.923 356.322 182.762 353.917 179.355C351.542 175.918 347.95 172.233 343.218 168.687C338.284 164.972 332.734 162.058 327.339 160.069C321.974 158.081 316.778 157.032 312.57 157.048C309.471 157.032 306.927 157.634 305.309 158.682C304.461 159.221 303.921 159.792 303.551 160.424L303.412 160.794C311.845 158.728 327.138 162.983 339.178 171.894Z" fill="#562115"/>
<path d="M303.412 160.796L303.535 160.426C303.921 159.793 304.461 159.222 305.31 158.682C306.93 157.633 309.461 157.047 312.563 157.047C316.775 157.047 321.976 158.081 327.346 160.071C332.731 162.062 338.271 164.978 343.225 168.697C347.946 172.231 351.542 175.919 353.918 179.36C356.31 182.77 357.483 185.918 357.483 188.264C357.483 189.298 357.267 190.162 356.866 190.872C356.449 191.612 355.863 192.199 354.999 192.662L354.011 193.125C352.885 193.511 351.511 193.711 349.922 193.711C346.157 193.727 341.265 192.554 335.941 190.455C330.617 188.357 324.892 185.317 319.383 181.629C314.276 178.187 310.109 174.592 307.27 171.228C304.43 167.895 302.995 164.809 303.011 162.586C303.011 161.907 303.165 161.321 303.412 160.796ZM318.041 183.635C323.673 187.415 329.537 190.517 335.046 192.708C340.54 194.884 345.678 196.149 349.922 196.149C352.314 196.149 354.428 195.764 356.171 194.776C357.39 194.143 358.362 193.187 358.98 192.06C359.628 190.918 359.89 189.637 359.89 188.264C359.89 185.162 358.486 181.659 355.924 177.971C353.363 174.283 349.582 170.41 344.675 166.737C339.521 162.88 333.781 159.855 328.194 157.803C322.593 155.735 317.161 154.608 312.563 154.608C309.183 154.608 306.22 155.226 303.998 156.63C302.872 157.324 302.008 158.189 301.437 159.253C300.866 160.256 300.573 161.398 300.604 162.586C300.604 165.781 302.424 169.222 305.433 172.802C308.458 176.413 312.763 180.116 318.041 183.635Z" fill="#562115"/>
<path d="M254.377 165.401C257.003 164.764 259.021 164.081 260.144 163.428C254.514 161.288 240.537 159.983 223.175 161.303C203.006 162.836 185.144 167.556 179.513 171.274L180.333 171.441C182.442 171.82 185.66 172.018 189.666 172.018C196.829 172.018 206.497 171.426 217.211 170.47C232.524 169.089 246.349 167.374 254.377 165.401Z" fill="#AE3C1F"/>
<path d="M260.155 163.427L260.201 163.382L261.112 162.714L261.051 162.623L259.973 161.955C258.925 161.454 257.195 160.953 254.993 160.512C250.53 159.647 244.108 159.07 236.396 159.07C232.13 159.07 227.469 159.252 222.52 159.647C206.898 160.831 192.627 163.959 184.489 166.98C181.772 167.997 179.753 168.999 178.675 169.788L177.855 170.593L178.083 170.775C178.386 170.912 178.887 171.109 179.525 171.276C185.157 167.557 203.011 162.82 223.172 161.302C240.54 159.981 254.523 161.287 260.155 163.427Z" fill="#562115"/>
<path d="M189.673 172.006C185.676 172.006 182.455 171.824 180.342 171.429L179.522 171.277C178.883 171.11 178.382 170.912 178.078 170.775L177.85 170.593L178.671 169.788C179.75 169.013 181.771 167.994 184.476 166.991C192.636 163.967 206.89 160.822 222.528 159.651C227.467 159.256 232.117 159.074 236.387 159.074C244.107 159.074 250.52 159.651 254.988 160.518C257.191 160.943 258.923 161.445 259.972 161.946L261.051 162.615L261.112 162.721L260.2 163.39L260.154 163.42C259.03 164.074 257.009 164.757 254.395 165.396C246.356 167.356 232.542 169.073 217.209 170.471C206.495 171.414 196.83 172.006 189.673 172.006ZM203.973 173.906C208.182 173.663 212.696 173.313 217.437 172.903C224.473 172.28 231.129 171.535 237.132 170.775L237.967 170.684L238.925 170.532C242.253 170.107 245.368 169.651 248.134 169.149C252.222 168.435 255.626 167.675 258.179 166.854C259.455 166.444 260.534 166.019 261.385 165.502C262.236 165.031 262.935 164.514 263.346 163.694L263.361 163.663L263.589 162.691C263.589 161.946 263.209 161.338 262.738 160.882C261.917 160.107 260.793 159.575 259.273 159.074C256.993 158.329 253.848 157.752 249.973 157.326C246.128 156.901 241.523 156.658 236.387 156.658C232.056 156.658 227.33 156.84 222.33 157.205C210.279 158.132 199.049 160.183 190.645 162.493C186.436 163.633 182.956 164.864 180.388 166.064C179.096 166.642 178.032 167.25 177.212 167.842C176.421 168.465 175.783 169.073 175.494 169.97V170H175.479L175.403 170.669L175.89 172.052C176.391 172.69 177.075 173.024 177.88 173.328C179.111 173.754 180.707 174.012 182.682 174.179C184.658 174.346 186.983 174.438 189.673 174.438C193.533 174.438 198.137 174.255 203.167 173.982L203.73 173.936L203.973 173.906Z" fill="#562115"/>
<path d="M25.3746 302.449C24.8879 301.49 24.344 300.889 23.9145 300.646L23.2132 300.445L22.5547 300.56L22.2112 300.76C19.0191 306.057 16.514 315.69 16.3852 325.753C16.2134 337.219 19.0047 345.579 22.3973 347.168L23.0701 346.051C23.9146 344.519 24.6733 342.415 25.3604 339.91C26.6916 334.9 27.5648 328.373 27.7938 321.53C27.8224 320.514 27.851 319.512 27.851 318.524C27.851 314.903 27.6078 311.596 27.1783 308.877C26.7632 306.114 26.119 303.895 25.3746 302.449Z" fill="#AE3C1F"/>
<path d="M16.4028 325.739C16.5316 315.663 19.0364 306.031 22.2281 300.75C21.4981 301.15 20.5678 302.052 19.6947 303.455C18.6499 305.043 17.6624 307.219 16.7893 309.795C15.0575 314.933 13.8695 321.66 13.8552 328.545V328.587V328.902C13.8552 332.953 14.2274 336.588 14.8428 339.622C15.4726 342.657 16.3457 345.104 17.3046 346.707C17.9487 347.781 18.6071 348.468 19.1653 348.768L19.981 349.04L20.6537 348.868C21.1546 348.625 21.7843 348.067 22.4141 347.151C19.022 345.562 16.2311 337.218 16.4028 325.739Z" fill="#562115"/>
<path d="M27.7993 321.533C27.5557 328.382 26.696 334.902 25.3633 339.917C24.6755 342.411 23.916 344.517 23.0706 346.05L22.3971 347.168C21.7666 348.085 21.1505 348.644 20.6346 348.888L19.9754 349.045L19.1587 348.787C18.5998 348.486 17.9264 347.798 17.2959 346.724C16.3358 345.105 15.4473 342.669 14.8312 339.645C14.215 336.607 13.8424 332.968 13.8424 328.912V328.597V328.568C13.8567 321.676 15.0461 314.955 16.7656 309.811C17.6541 307.232 18.6428 305.054 19.6745 303.463C20.5629 302.073 21.48 301.171 22.2108 300.769L22.5547 300.554L23.2139 300.44L23.916 300.64C24.3458 300.898 24.8904 301.486 25.3776 302.446C26.1227 303.893 26.7533 306.114 27.1832 308.865C27.6131 311.602 27.8566 314.898 27.8566 318.523C27.8566 319.512 27.828 320.515 27.7993 321.533ZM26.653 299.91L25.1484 298.563C24.5752 298.19 23.9017 297.989 23.2139 297.989L21.6806 298.319C20.09 298.949 18.8147 300.296 17.6397 302.131C15.8628 304.882 14.344 308.794 13.212 313.379C12.1086 317.95 11.4207 323.181 11.3921 328.568V328.912C11.3921 335.332 12.2949 340.777 13.7135 344.703C14.4443 346.71 15.2753 348.3 16.2784 349.489C16.7799 350.063 17.3388 350.564 17.955 350.894C18.5568 351.252 19.2589 351.467 19.9754 351.467L21.6663 351.094C23.1136 350.392 24.2312 349.002 25.2056 347.211C26.6672 344.531 27.7993 340.748 28.6591 336.364C29.5045 331.95 30.049 326.863 30.2209 321.604C30.2639 320.558 30.264 319.541 30.264 318.523C30.264 312.849 29.7482 307.948 28.6878 304.337C28.1719 302.517 27.5127 301.027 26.653 299.91Z" fill="#562115"/>
<path d="M21.6833 298.308L21.6976 298.294" stroke="#562115" stroke-linecap="round" stroke-linejoin="round"/>
<path d="M281.932 413.082C279.477 413.082 275.914 413.651 271.782 414.864C267.621 416.046 262.89 417.888 257.995 420.328C249.777 424.429 243.265 429.339 239.852 433.007C238.849 434.13 238.116 435.103 237.726 435.881C242.202 436.031 252.486 431.824 263.699 426.33C273.519 421.48 281.483 416.855 284.671 413.516L284.312 413.367C283.773 413.187 282.95 413.082 281.932 413.082Z" fill="#AE3C1F"/>
<path d="M237.725 435.892L237.575 436.116L237.306 437.074L237.321 437.209H237.336L237.635 437.359L238.608 437.479C239.566 437.479 240.974 437.224 242.681 436.775C244.372 436.341 246.364 435.652 248.549 434.799C252.951 433.092 258.161 430.727 263.596 428.077C271.74 424.004 278.642 420.052 282.295 417.043C283.508 416.039 284.332 415.126 284.706 414.497L284.975 413.809L284.96 413.734L284.826 413.614L284.676 413.524C281.487 416.848 273.507 421.489 263.701 426.325C252.487 431.819 242.201 436.027 237.725 435.892Z" fill="#562115"/>
<path d="M256.918 418.168V418.153" stroke="#562115" stroke-linecap="round" stroke-linejoin="round"/>
<path d="M284.832 413.603L284.967 413.723L284.982 413.798L284.712 414.502C284.337 415.116 283.513 416.031 282.299 417.035C278.642 420.047 271.748 423.988 263.596 428.065C258.171 430.717 252.955 433.085 248.549 434.794C246.376 435.648 244.383 436.322 242.69 436.772C240.981 437.222 239.572 437.476 238.628 437.476L237.639 437.356L237.339 437.206H237.324L237.309 437.072L237.579 436.112L237.729 435.873C238.119 435.108 238.853 434.119 239.857 433.01C243.259 429.339 249.778 424.438 257.991 420.332C262.891 417.889 267.627 416.046 271.778 414.862C275.915 413.648 279.482 413.078 281.924 413.078C282.958 413.078 283.783 413.183 284.322 413.363L284.682 413.513L284.832 413.603ZM281.924 410.635C279.137 410.635 275.39 411.28 271.104 412.524C269.935 412.853 268.736 413.258 267.492 413.678C264.135 414.832 260.569 416.315 256.912 418.174C250.468 421.381 245.042 425.052 241.206 428.349C239.348 429.998 237.864 431.512 236.8 432.89L236.68 433.025C236.125 433.745 235.706 434.404 235.391 435.079C235.091 435.738 234.897 436.382 234.882 437.072C234.882 437.671 235.076 438.331 235.526 438.84H235.541L236.95 439.679L238.628 439.904C239.947 439.904 241.491 439.589 243.334 439.125C248.744 437.641 256.462 434.254 264.66 430.223H264.675C270.939 427.091 276.484 424.048 280.531 421.336C282.524 419.987 284.172 418.713 285.371 417.514C285.971 416.915 286.45 416.33 286.795 415.731C287.14 415.161 287.409 414.502 287.409 413.798L287.14 412.659L286.27 411.625L285.536 411.25L284.337 410.86C283.633 410.71 282.809 410.635 281.924 410.635Z" fill="#562115"/>
<path d="M352.092 326.712C349.486 330.182 346.771 335.132 344.659 340.745V340.776C342.037 347.762 340.834 354.269 340.865 358.587C340.865 359.744 340.927 360.746 341.081 361.548L341.235 362.181C344.227 360.145 348.421 352.419 352.446 342.565C355.947 333.836 358.26 325.802 358.029 321.484C357.659 321.484 356.764 321.854 355.747 322.718C354.636 323.627 353.387 324.985 352.092 326.712Z" fill="#AE3C1F"/>
<path d="M341.238 362.18L341.655 363.152L341.886 363.368H341.963L342.534 363.168L343.644 362.227C344.477 361.363 345.48 359.975 346.545 358.216C348.689 354.761 351.064 349.809 353.393 344.132H353.378C355.075 339.968 356.479 335.941 357.466 332.486C358.438 329.015 358.977 326.038 358.977 324.033C358.977 323.154 358.854 322.475 358.715 322.058L358.314 321.518L358.114 321.488H358.037C358.253 325.807 355.954 333.844 352.437 342.559C348.411 352.416 344.215 360.144 341.238 362.18Z" fill="#562115"/>
<path d="M359.195 319.298L359.179 319.267" stroke="#562115" stroke-linecap="round" stroke-linejoin="round"/>
<path d="M358.03 321.504H358.107L358.308 321.535L358.709 322.059C358.848 322.476 358.972 323.156 358.972 324.036C358.972 326.043 358.431 329.008 357.459 332.497C356.471 335.956 355.065 339.971 353.367 344.124H353.382C351.051 349.822 348.673 354.778 346.542 358.221C345.477 359.981 344.473 361.371 343.639 362.236L342.528 363.178L341.956 363.378H341.879L341.648 363.147L341.231 362.189L341.076 361.556C340.922 360.753 340.845 359.75 340.845 358.592C340.829 354.284 342.018 347.768 344.658 340.789V340.758C346.758 335.138 349.476 330.197 352.085 326.723C353.367 324.993 354.618 323.634 355.729 322.723C356.764 321.859 357.644 321.504 358.03 321.504ZM348.071 328.297C346.002 331.54 343.994 335.539 342.389 339.924C339.671 347.166 338.405 353.867 338.405 358.592C338.405 360.306 338.559 361.788 338.945 362.977L339.671 364.567L341.03 365.633H341.045L341.956 365.818C342.636 365.803 343.238 365.586 343.778 365.247C344.751 364.66 345.631 363.734 346.558 362.529C349.352 358.916 352.518 352.601 355.606 345.02H355.621C357.351 340.804 358.771 336.712 359.806 333.146C360.794 329.517 361.411 326.445 361.411 324.036C361.411 322.955 361.272 322.029 360.964 321.21C360.686 320.392 360.084 319.635 359.203 319.296L358.107 319.064C356.702 319.095 355.498 319.79 354.17 320.855C352.24 322.476 350.124 325.009 348.071 328.297Z" fill="#562115"/>
<path d="M195.086 454.248L194.856 454.104C193.471 453.296 191.352 452.359 188.655 451.465C183.291 449.677 175.72 447.99 167.14 447.125C163.232 446.706 159.469 446.533 155.965 446.533C148.322 446.519 141.919 447.399 138.43 448.639C137.291 449.028 136.483 449.489 136.094 449.836C141.098 451.926 152.316 453.441 165.107 454.421C179.34 455.459 191.034 455.704 195.086 454.248Z" fill="#AE3C1F"/>
<path d="M195.085 454.254C191.031 455.712 179.343 455.452 165.116 454.413C152.317 453.432 141.106 451.917 136.099 449.825H136.085L135.825 450.142V450.157L136.056 450.445C136.359 450.69 136.893 451.008 137.629 451.34C139.115 451.989 141.409 452.638 144.251 453.172C149.951 454.327 157.887 455.236 166.516 455.856C173.644 456.361 180.151 456.678 185.317 456.678C187.77 456.678 189.948 456.592 191.723 456.448C193.483 456.303 194.883 456.058 195.763 455.769L196.542 455.438L196.355 455.163L195.085 454.254Z" fill="#562115"/>
<path d="M195.763 455.766C194.896 456.055 193.495 456.3 191.733 456.445C189.942 456.575 187.775 456.662 185.32 456.662C180.163 456.662 173.649 456.358 166.528 455.853C157.89 455.231 149.96 454.321 144.254 453.166C141.409 452.631 139.126 451.981 137.624 451.331C136.902 450.999 136.368 450.696 136.064 450.436L135.833 450.147V450.133L136.093 449.829H136.108C136.498 449.483 137.292 449.02 138.448 448.63C141.929 447.403 148.342 446.507 155.969 446.522C159.479 446.522 163.249 446.695 167.149 447.114C175.729 447.98 183.298 449.67 188.671 451.447C191.357 452.357 193.481 453.281 194.867 454.105L195.099 454.249L196.355 455.159L196.543 455.434L195.763 455.766ZM197.352 452.834C196.297 452.025 194.81 451.23 192.932 450.465C187.342 448.125 178.155 445.799 167.394 444.702H167.409C163.422 444.268 159.565 444.095 155.969 444.095C149.801 444.095 144.442 444.644 140.528 445.525C138.549 445.987 136.945 446.507 135.732 447.172C135.14 447.475 134.605 447.85 134.187 448.298C133.797 448.703 133.493 449.237 133.421 449.873V449.959V449.988L133.392 450.133L133.695 451.331C134.1 452.01 134.649 452.458 135.313 452.877C136.498 453.614 138.072 454.177 140.08 454.697C146.016 456.315 155.622 457.485 166.354 458.279C173.519 458.785 180.062 459.088 185.32 459.088C189.133 459.088 192.267 458.944 194.564 458.525C195.705 458.323 196.659 458.092 197.424 457.702L198.464 456.95L199.042 455.65V455.549V455.477L198.739 454.365L197.352 452.834Z" fill="#562115"/>
<path d="M268.841 306.807C268.841 310.688 269.569 314.084 270.933 316.753C272.237 319.315 274.087 321.195 276.528 322.378C286.716 320.149 298.224 310.931 305.926 297.71C314.962 282.276 315.902 266.342 309.14 258.503L308.442 258.473C303.5 258.458 297.572 260.747 291.826 264.962C286.08 269.177 280.515 275.287 276.21 282.67C271.252 291.115 268.841 299.742 268.841 306.807Z" fill="#AE2F21"/>
<path d="M305.942 297.703C298.236 310.91 286.73 320.121 276.547 322.355L276.805 322.507C278.507 323.252 280.392 323.647 282.459 323.647C287.368 323.647 293.326 321.383 299.057 317.157C304.802 312.962 310.38 306.852 314.681 299.466C319.636 290.984 322.053 282.367 322.022 275.314C322.022 271.423 321.323 268.034 319.955 265.359C318.618 262.699 316.672 260.769 314.088 259.583C312.584 258.915 310.942 258.565 309.164 258.489C315.912 266.332 314.985 282.26 305.942 297.703Z" fill="#551B16"/>
<path d="M291.827 264.953C297.582 260.736 303.504 258.452 308.452 258.467L309.152 258.498C310.934 258.574 312.578 258.924 314.085 259.579C316.673 260.781 318.607 262.715 319.947 265.379C321.317 268.043 322.017 271.423 322.017 275.321C322.048 282.385 319.627 291.002 314.664 299.467C310.37 306.866 304.798 312.971 299.043 317.158C293.304 321.39 287.366 323.659 282.448 323.659C280.378 323.659 278.49 323.263 276.8 322.517L276.541 322.365C274.09 321.177 272.248 319.304 270.939 316.747C269.584 314.082 268.853 310.687 268.853 306.79C268.838 299.741 271.259 291.109 276.222 282.659C280.53 275.275 286.087 269.17 291.827 264.953ZM272.598 280.543C267.331 289.571 264.681 298.827 264.666 306.79C264.681 311.19 265.504 315.24 267.224 318.635C268.914 322.015 271.578 324.755 275.08 326.293C277.379 327.358 279.876 327.83 282.448 327.83C287.016 327.815 291.827 326.338 296.577 323.72C298.236 322.791 299.881 321.71 301.51 320.538C307.462 316.153 313.08 310.048 317.572 302.679L318.272 301.568C323.555 292.54 326.189 283.299 326.204 275.321C326.204 270.936 325.397 266.871 323.677 263.491C321.971 260.096 319.307 257.371 315.79 255.803L315.333 255.635C313.172 254.737 310.842 254.28 308.452 254.296C302.256 254.311 295.633 256.991 289.36 261.588L288.356 262.38C282.464 266.902 276.968 273.098 272.598 280.543Z" fill="#551B16"/>
<path d="M60.223 278.21C73.7343 282.367 120.578 260.987 138.9 240.512C143.34 235.538 146.101 230.638 146.339 226.154C146.488 222.487 142.939 217.943 137.995 213.534C140.118 216.162 141.38 218.715 141.261 220.928C140.741 232.093 124.365 245.901 105.746 256.562L105.642 256.636C104.469 257.289 103.281 257.972 102.093 258.596L101.87 258.715C100.712 259.368 99.5245 259.992 98.3663 260.586L98.0991 260.719C96.9262 261.298 95.768 261.877 94.6247 262.442L94.2982 262.605C93.1549 263.154 92.0265 263.674 90.898 264.194L90.5268 264.372C89.4133 264.877 88.2849 265.367 87.1861 265.842L86.7852 266.02C85.7013 266.45 84.6323 266.911 83.5485 267.326L83.1476 267.505C82.0785 267.935 81.0244 268.336 79.985 268.707L79.5693 268.841C78.5449 269.227 77.5203 269.583 76.5107 269.925L76.1247 270.058C75.115 270.4 74.1202 270.712 73.1552 270.979L72.7988 271.098C71.8188 271.365 70.8835 271.632 69.9629 271.855L69.6362 271.959C68.7157 272.167 67.81 272.404 66.9489 272.568L66.6519 272.642C65.7759 272.805 64.9147 272.954 64.0981 273.102L63.8606 273.117C63.044 273.251 62.2422 273.34 61.485 273.414H61.3068C60.5199 273.459 59.7923 273.503 59.1242 273.488H58.9905C58.2778 273.473 57.6097 273.444 57.001 273.369L56.9118 273.34C56.2882 273.265 55.7241 273.147 55.1748 272.983C53.7791 272.538 52.4725 271.899 51.2847 271.083C53.5712 274.438 56.4962 277.066 60.223 278.21Z" fill="#9D351E"/>
<path d="M127.323 212.336C133.973 216.365 137.088 222.626 134.272 226.326C131.456 230.04 123.788 229.771 117.122 225.742C110.472 221.742 107.356 215.481 110.172 211.782C112.973 208.052 120.657 208.337 127.323 212.336ZM110.382 192.64C111.191 194.212 111.61 195.95 111.595 197.687C111.595 200.383 110.712 203.154 109.229 205.88C107.716 208.651 105.574 211.407 102.893 214.118C97.5307 219.54 90.0117 224.798 81.0697 228.992C77.7595 230.565 74.4342 231.868 71.1689 232.961C75.0333 241.469 82.0133 248.718 91.6293 252.942C96.1228 254.934 100.916 256.117 105.724 256.582C124.357 245.932 140.728 232.107 141.252 220.948C141.372 218.732 140.099 216.185 137.987 213.549L136.909 212.246C134.108 209.101 130.243 205.835 126.199 202.825C124.881 201.851 123.548 200.877 122.23 199.964C117.617 196.773 113.183 194.047 110.142 192.235L110.382 192.64Z" fill="#AE2F21"/>
<path d="M50.6442 270.617L51.2923 271.074C52.4853 271.899 53.7667 272.532 55.1659 272.974C55.7256 273.15 56.2852 273.268 56.9185 273.342L56.9922 273.371C57.6108 273.445 58.2735 273.474 58.9805 273.489H59.1131C59.8054 273.489 60.5124 273.46 61.3077 273.415H61.4844C62.2355 273.342 63.0456 273.253 63.8704 273.121L64.1062 273.091C64.9162 272.959 65.7705 272.812 66.6542 272.635L66.9487 272.561C67.8177 272.399 68.7161 272.178 69.644 271.957L69.9533 271.854C70.8812 271.633 71.8239 271.368 72.796 271.088L73.1642 270.971C74.1216 270.706 75.123 270.396 76.1246 270.057L76.5075 269.925C77.5237 269.586 78.5401 269.233 79.5711 268.85L79.9835 268.702C81.0292 268.334 82.0749 267.937 83.1501 267.509L83.5478 267.333C84.623 266.906 85.6982 266.449 86.7881 266.022L87.1857 265.83C88.2903 265.359 89.4097 264.873 90.5291 264.357L90.8973 264.195C92.0314 263.665 93.1656 263.15 94.2996 262.59L94.6236 262.443C95.7724 261.883 96.936 261.309 98.0996 260.719L98.3793 260.587C99.5282 259.983 100.706 259.365 101.87 258.716L102.091 258.599C103.284 257.965 104.462 257.288 105.641 256.64L105.744 256.566C100.927 256.095 96.126 254.916 91.6485 252.913C82.0308 248.701 75.0494 241.455 71.1905 232.942C63.7526 235.46 56.5945 236.756 50.4674 236.771C46.476 236.756 42.9117 236.226 39.9071 235.062C39.259 234.827 38.67 234.503 38.0808 234.208C38.2723 239.039 39.5241 257.067 47.0799 266.994L47.0947 267.009C48.1404 268.378 49.3187 269.601 50.6442 270.617Z" fill="#551B16"/>
<path d="M50.4454 232.633C58.4584 232.633 68.8679 230.177 79.3073 225.22C85.7027 222.194 91.3193 218.614 95.8275 214.93C100.321 211.215 103.661 207.381 105.563 203.891C106.821 201.555 107.42 199.458 107.42 197.676C107.42 196.702 107.241 195.833 106.866 194.995C98.0892 192.344 83.486 194.545 68.793 201.48C51.7035 209.523 40.0959 221.37 39.5417 230.237C40.1109 230.581 40.725 230.896 41.399 231.181C43.7655 232.109 46.8508 232.633 50.4454 232.633Z" fill="#AE2F21"/>
<path d="M68.7916 201.468C83.4875 194.54 98.0935 192.336 106.881 194.99L106.716 194.57C105.876 193.025 104.362 191.736 102.007 190.791C99.6681 189.876 96.5789 189.366 92.9799 189.396C84.9871 189.366 74.5501 191.841 64.1279 196.759L63.2282 194.855L64.1129 196.759C57.7096 199.788 52.1011 203.373 47.5874 207.047C43.1186 210.766 39.7596 214.604 37.8552 218.083C36.5955 220.423 35.9956 222.522 35.9956 224.307C35.9956 225.446 36.2505 226.466 36.7454 227.411C37.3002 228.491 38.23 229.435 39.5497 230.23C40.1045 221.368 51.7113 209.506 68.7916 201.468Z" fill="#551B16"/>
<path d="M36.7475 227.404C36.2518 226.472 35.9964 225.436 35.9964 224.309C35.9964 222.522 36.5972 220.419 37.859 218.09C39.7517 214.605 43.1165 210.76 47.5929 207.05C52.0993 203.369 57.7174 199.779 64.1165 196.76L63.2303 194.852L64.1316 196.76C74.5565 191.833 84.9964 189.369 92.9878 189.384C96.5779 189.369 99.6574 189.865 102.016 190.796C104.359 191.728 105.876 193.035 106.717 194.567L106.883 194.987C107.243 195.829 107.438 196.685 107.438 197.676C107.438 199.449 106.838 201.552 105.576 203.88C103.668 207.365 100.333 211.211 95.8419 214.921C91.3354 218.601 85.7174 222.191 79.3182 225.211C68.8783 230.153 58.4685 232.616 50.4621 232.616C46.8569 232.616 43.7625 232.09 41.4042 231.174C40.7282 230.889 40.1122 230.573 39.5564 230.228C38.2345 229.432 37.3033 228.485 36.7475 227.404ZM50.4621 236.777C56.5908 236.762 63.741 235.455 71.1766 232.947C74.4513 231.85 77.771 230.558 81.0908 228.981C90.0285 224.775 97.5393 219.533 102.902 214.11C105.576 211.406 107.724 208.627 109.241 205.878C110.728 203.129 111.614 200.38 111.614 197.676C111.629 195.934 111.209 194.206 110.398 192.629L110.157 192.223C108.73 189.775 106.372 188.017 103.548 186.921C100.529 185.734 96.9535 185.193 92.9878 185.193C86.153 185.208 78.1015 186.786 69.7495 189.91C67.301 190.797 64.8225 191.803 62.344 192.975L61.1122 193.605C58.0328 195.108 55.1337 196.7 52.4599 198.427C47.8032 201.387 43.7625 204.571 40.5479 207.861C37.844 210.565 35.7109 213.344 34.2238 216.108C32.7066 218.826 31.8354 221.591 31.8354 224.309C31.8354 226.037 32.2109 227.794 33.0521 229.342C34.1487 231.43 35.9363 233.037 38.0694 234.208C38.6552 234.509 39.2561 234.824 39.902 235.065C42.9063 236.221 46.4814 236.762 50.4621 236.777Z" fill="#551B16"/>
<path d="M117.148 225.729C123.8 229.762 131.479 230.03 134.291 226.31C137.104 222.604 133.994 216.354 127.327 212.321C120.66 208.318 112.981 208.035 110.183 211.756C107.371 215.461 110.496 221.726 117.148 225.729Z" fill="#DF3C23"/>
<path d="M211.38 251.691V251.721L210.98 251.41L209.839 250.565L208.995 249.943L207.869 249.04L207.07 248.388L205.944 247.484L205.189 246.848L204.107 245.915L203.396 245.263L202.359 244.315L201.678 243.693L200.715 242.715L200.064 242.093L199.145 241.13L198.568 240.508L197.709 239.59L197.161 238.953L196.405 238.035L195.902 237.427L195.22 236.539L194.776 235.931L194.183 235.102L193.784 234.495L193.295 233.695L192.969 233.132L192.584 232.362L192.317 231.829L192.036 231.058L191.858 230.584L191.665 229.829L191.577 229.459L191.517 228.422C191.591 225.178 193.917 222.083 197.027 219.402C192.525 222.586 188.659 226.526 188.555 230.733C188.244 241.012 222.903 269.495 238.055 264.518C239.196 264.148 240.322 263.259 241.373 262.059L241.033 262.207C233.656 264.636 221.704 259.141 211.38 251.691Z" fill="#DF3C23"/>
<path d="M244.065 252.59C242.676 257.172 239.158 260.38 236.246 259.745C233.319 259.153 232.092 254.94 233.497 250.373C234.886 245.82 238.404 242.598 241.316 243.219C244.257 243.84 245.484 248.023 244.065 252.59ZM246.416 241.386C243.237 241.386 239.66 240.484 235.995 238.858C232.299 237.232 228.545 234.838 225.027 231.763C223.356 230.315 221.864 228.807 220.533 227.255C215.655 231.408 212.182 236.966 211.177 243.219C210.704 246.146 210.792 248.984 211.369 251.703C221.686 259.153 233.644 264.652 241.02 262.213L241.375 262.065C247.155 259.656 252.121 244.86 253.984 238.577L253.747 238.858C251.87 240.617 249.283 241.386 246.416 241.386Z" fill="#AE2F21"/>
<path d="M191.521 228.408L191.58 229.449L191.684 229.821L191.863 230.58L192.041 231.055L192.338 231.814L192.606 232.349L192.978 233.122L193.305 233.687L193.781 234.491L194.197 235.1L194.792 235.918L195.223 236.528L195.907 237.42L196.413 238.03L197.171 238.937L197.722 239.576L198.569 240.498L199.164 241.123L200.086 242.09L200.726 242.714L201.692 243.681L202.376 244.305L203.402 245.257L204.116 245.911L205.202 246.833L205.96 247.473L207.075 248.38L207.879 249.034L208.994 249.927L209.856 250.551L210.986 251.399L211.388 251.711V251.681C210.808 248.975 210.719 246.12 211.18 243.205C212.206 236.944 215.671 231.382 220.548 227.248C218.972 225.434 217.619 223.59 216.548 221.761C214.556 218.356 213.44 215.039 213.44 212.006C213.425 211.232 213.529 210.459 213.708 209.73C211.239 210.757 202.793 214.43 197.038 219.397C193.915 222.073 191.595 225.166 191.521 228.408Z" fill="#551B16"/>
<path d="M226.75 229.773C230.084 232.675 233.641 234.922 237.079 236.455C240.487 237.974 243.747 238.762 246.426 238.762C248.673 238.762 250.429 238.182 251.665 237.17C251.68 231.797 247.587 224.549 240.502 218.387C232.138 211.109 222.3 207.731 216.451 209.621C216.198 210.321 216.049 211.109 216.049 212.017C216.034 214.384 216.987 217.331 218.788 220.441C220.618 223.537 223.312 226.781 226.75 229.773Z" fill="#AE2F21"/>
<path d="M240.513 218.391C247.603 224.543 251.699 231.797 251.669 237.174L251.952 236.951C253.069 235.878 253.62 234.418 253.62 232.527C253.65 230.158 252.712 227.194 250.895 224.096C249.048 220.998 246.366 217.736 242.926 214.772C239.604 211.867 236.029 209.603 232.633 208.084C229.192 206.564 225.945 205.775 223.264 205.775C220.836 205.775 218.959 206.4 217.738 207.577C217.142 208.143 216.725 208.814 216.457 209.603C222.311 207.726 232.141 211.107 240.513 218.391Z" fill="#551B16"/>
<path d="M216.44 209.624C216.708 208.818 217.141 208.162 217.722 207.596C218.945 206.418 220.824 205.791 223.254 205.791C225.938 205.791 229.189 206.567 232.618 208.103C236.018 209.624 239.597 211.875 242.907 214.783C246.367 217.75 249.051 221.016 250.885 224.117C252.704 227.189 253.643 230.171 253.613 232.542C253.613 234.421 253.062 235.882 251.943 236.956L251.66 237.179C250.437 238.193 248.663 238.76 246.411 238.76C243.757 238.76 240.477 237.985 237.077 236.464C233.647 234.913 230.083 232.676 226.743 229.784C223.314 226.786 220.615 223.536 218.796 220.449C216.977 217.333 216.037 214.395 216.037 212.024C216.037 211.115 216.186 210.324 216.44 209.624ZM213.428 212.024C213.428 215.036 214.546 218.362 216.544 221.776C217.603 223.61 218.96 225.444 220.54 227.249C221.867 228.799 223.359 230.305 225.029 231.752C228.548 234.824 232.305 237.224 236.003 238.864C239.671 240.475 243.25 241.384 246.411 241.384C249.289 241.384 251.884 240.624 253.747 238.864L253.986 238.566C255.522 236.956 256.267 234.824 256.238 232.542C256.238 229.515 255.104 226.175 253.136 222.775L252.331 221.568C250.407 218.57 247.843 215.573 244.637 212.785C241.118 209.743 237.345 207.342 233.677 205.717C230.009 204.062 226.445 203.167 223.254 203.167C220.406 203.167 217.797 203.913 215.918 205.687C215.336 206.239 214.904 206.88 214.531 207.551C214.143 208.252 213.875 208.967 213.696 209.743C213.517 210.473 213.413 211.249 213.428 212.024Z" fill="#551B16"/>
<path d="M241.332 243.21C238.401 242.592 234.896 245.803 233.496 250.369C232.097 254.92 233.32 259.147 236.266 259.737C239.167 260.37 242.688 257.174 244.072 252.593C245.486 248.027 244.264 243.844 241.332 243.21Z" fill="#DF3C23"/>
</svg>
