<svg width="437" height="482" viewBox="0 0 437 482" fill="none" xmlns="http://www.w3.org/2000/svg">
<path d="M181.632 408.403C179.209 431.307 163.412 449.718 142.461 456.354C132.301 462.388 115.813 462.271 99.9565 454.959C81.9125 446.635 70.4166 431.645 70.9892 418.769C69.4183 413.557 68.5519 408.036 68.5519 402.31C68.5519 381.638 79.7836 362.625 97.9011 352.627L106.211 348.031C96.4915 333.746 89.2241 318.066 84.4671 301.666L76.0985 303.002C74.4248 303.266 72.7509 303.384 71.0919 303.384C62.9728 303.384 55.5731 300.33 49.95 295.309C48.7314 296.102 47.41 296.542 46.0593 296.571C38.8799 296.777 32.7575 285.663 32.4052 271.803C32.0088 257.914 37.5439 246.536 44.7233 246.33C46.397 246.286 48.0267 246.873 49.5389 247.96C54.6776 243.218 61.3578 240.134 68.7722 239.606L78.4182 238.931C78.4182 238.857 78.4328 238.798 78.4328 238.74C78.4328 238.754 78.4476 238.754 78.4476 238.769C78.9027 234.82 79.534 230.899 80.3562 226.994L80.1946 226.906L79.1377 226.407C75.2616 224.307 76.1132 221.239 78.1539 218.581C77.4345 218.523 76.7886 218.302 76.2013 217.965C74.0871 216.908 72.6775 214.47 72.2664 213.12C71.87 211.74 72.1196 210.462 72.4426 209.097L72.8831 206.484L72.6923 206.351C71.7967 209.229 71.0039 212.121 70.2551 215.043V215.087C69.8147 216.849 69.4036 218.625 69.0072 220.417V220.461C68.5814 222.428 68.1996 224.41 67.8472 226.378C44.4003 228.051 25.9011 247.578 25.9011 271.451C25.9011 296.395 46.118 316.627 71.0919 316.627C73.485 316.627 75.8489 316.465 78.1539 316.098L78.3742 316.627L78.4036 316.671L78.5062 316.935L78.888 317.86C79.5781 319.387 80.2534 320.885 81.0021 322.397L81.2665 322.984L81.3399 323.116C81.3546 323.116 81.3546 323.131 81.3546 323.131C81.3692 323.175 81.3839 323.204 81.3986 323.248C82.0005 324.482 82.6319 325.715 83.2338 326.948L83.7624 327.873L83.9973 328.343C84.7314 329.723 85.4655 331.089 86.2584 332.454L86.2876 332.498C87.007 333.775 87.7559 335.038 88.5047 336.301L88.7835 336.726L88.7983 336.785L89.4442 337.813L89.7232 338.224L89.7966 338.356C90.2077 339.002 90.6189 339.633 91.03 340.294L91.4997 340.984C69.888 352.935 55.2649 375.883 55.2649 402.31C55.2649 440.938 86.596 472.269 125.253 472.269C161.371 472.269 191.072 444.902 194.831 409.813C197.195 410.238 199.558 410.635 201.951 410.958L202.128 410.987C204.462 411.296 206.782 411.589 209.116 411.81L209.468 411.839C211.774 412.044 214.049 412.191 216.34 412.294L216.854 412.353H217.749C205.666 411.809 193.612 409.622 181.896 405.819L181.632 408.403Z" fill="#952295"/>
<path d="M355.318 100.918C355.541 97.6126 356.564 94.5623 358.512 92.0392C366.033 82.4095 384.127 83.9586 398.947 95.5045C413.766 107.066 419.691 124.25 412.153 133.895C410.301 136.275 407.778 137.983 404.807 139.005C399.633 149.641 388.742 157.003 376.142 157.003C371.112 157.003 366.273 155.837 361.818 153.601L349.649 147.469L345.64 134.566C344.698 131.5 344.235 128.306 344.235 125.064C344.235 115.418 348.515 106.747 355.318 100.918ZM99.5828 155.566C95.4467 134.901 77.1777 119.299 55.2676 119.299C30.3233 119.299 10.074 139.548 10.074 164.509C10.074 189.469 30.3233 209.686 55.2676 209.686C61.3998 209.686 67.2287 208.473 72.5625 206.253L72.4987 206.221C71.0455 205.71 68.4903 206.524 67.0051 205.694L66.9253 205.598L66.7177 205.534C65.5519 204.863 65.3923 203.809 65.2645 202.867C65.1208 201.813 65.3284 201.334 64.9132 201.047C64.6098 200.935 64.1785 200.839 63.4599 200.727C60.4736 200.344 57.2637 200.152 54.4691 199.338C53.6546 199.098 52.8083 198.795 52.0258 198.428C50.0456 197.597 48.1293 196.463 46.4206 195.17C38.4837 192.87 31.8244 187.569 27.7202 180.574C26.0275 180.175 24.4306 179.488 22.9933 178.466C13.8907 171.998 14.5614 155.39 24.5263 141.385C34.4753 127.38 49.9498 121.263 59.0524 127.763C61.1603 129.248 62.7253 131.308 63.7793 133.736C75.1335 136.882 84.1884 146.224 86.5838 158.185L90.049 175.464C91.7258 175.176 93.4186 175.016 95.0315 175.08C96.9159 175.144 98.1776 175.879 99.8863 176.102H100.269L109.979 163.806C111.784 161.522 113.636 159.319 115.44 157.274C118.395 153.953 121.605 150.695 124.926 147.581C127.513 143.7 130.612 139.996 134.189 136.498L125.405 128.034C120.199 122.972 116.942 116.536 115.999 109.494C114.339 108.36 112.981 106.939 111.991 105.214C106.306 95.5844 113.716 80.7169 128.535 71.9816C143.355 63.2942 159.932 64.0447 165.601 73.6584C166.766 75.6385 167.373 77.8743 167.485 80.158C173.617 85.1085 177.961 92.183 179.159 100.359L180.692 110.883C190.242 108.136 200.51 106.252 211.225 105.47L211.896 105.422L208.974 94.3228C207.712 89.6277 207.105 84.7411 207.105 79.8545C207.105 65.2903 212.631 51.9877 221.701 41.9429C223.33 29.6145 238.629 19.1067 257.968 17.6854C275.582 16.4238 290.945 23.099 296.151 33.3035C310.859 43.5718 320.52 60.5953 320.52 79.8545C320.52 93.3327 315.714 106.412 306.946 116.664L297.572 127.587L309.23 136.019C313.206 138.878 317.039 142.008 320.68 145.217C321.766 146.192 322.836 147.166 323.874 148.156L335.835 159.43L344.826 172.845C348.435 178.194 351.725 183.896 354.631 189.788L359.933 200.6L371.191 196.368C374.769 195.01 378.569 194.324 382.434 194.324C394.315 194.324 404.679 200.855 410.189 210.517L411.163 210.756C420.042 213.583 423.699 226.949 419.339 240.603C414.98 254.241 404.248 263.024 395.353 260.182C393.501 259.575 391.904 258.505 390.531 257.1C387.96 257.786 385.309 258.186 382.514 258.186L381.955 258.169L370.329 258.026C370.297 260.006 370.201 262.002 370.106 263.967L370.233 263.535C370.042 266.985 369.706 270.434 369.307 273.868C373.523 278.738 374.976 284.008 373.299 289.757C374.609 293.941 374.05 298.413 371.463 303.203C369.387 307.02 364.74 311.619 359.326 314.701C357.49 319.476 355.446 324.171 353.13 328.818L368.7 330.016C378.969 330.863 387.816 336.548 393.038 344.708C394.076 344.74 395.082 344.916 396.088 345.219C404.967 348.046 408.624 361.428 404.248 375.066C399.889 388.725 389.157 397.481 380.262 394.643C378.713 394.143 377.276 393.297 376.062 392.187C372.948 393.207 369.627 393.773 366.145 393.773C352.795 393.773 340.722 385.366 336.155 372.814L331.891 361.189C321.127 373.916 308.831 384.312 295.608 392.324C295.049 399.651 292.015 406.283 287.336 411.416C294.378 410.616 299.329 411.234 299.936 413.358C300.862 416.703 290.45 422.548 276.652 426.429C262.839 430.281 250.894 430.683 249.967 427.324C249.472 425.616 251.916 423.295 256.259 420.879C250.159 419.399 244.634 416.138 240.37 411.532C235.164 412.157 229.926 412.481 224.688 412.498C232.497 425.986 247.077 435.087 263.813 435.087C288.773 435.087 309.006 414.851 309.006 389.9C309.006 389.244 308.991 388.594 308.959 387.95C314.021 384.744 318.939 381.198 323.698 377.35C330.006 394.681 346.646 407.043 366.145 407.043C391.105 407.043 411.355 386.82 411.355 361.843C411.355 358.889 411.067 355.967 410.54 353.172C410.317 352.086 410.061 351.048 409.774 349.994L409.502 349.036L409.247 348.253L408.848 347.008L408.448 345.858L408.129 345.043C407.666 343.862 407.139 342.712 406.58 341.594L406.404 341.259C405.478 339.47 404.456 337.777 403.306 336.132L403.178 335.925C398.931 329.856 393.181 324.874 386.522 321.52L386.075 321.281L384.334 320.482L384.175 320.403C383.6 320.163 382.993 319.907 382.37 319.684L382.242 319.604L380.853 319.109L380.262 318.901L379.368 318.63L378.234 318.295L377.835 318.183L376.158 317.768H376.094C374.034 317.288 371.91 316.985 369.754 316.809L369.882 316.522C370.201 315.739 370.553 314.941 370.888 314.142L371.08 313.647C371.591 312.418 372.054 311.204 372.501 309.959L373.06 308.489L373.427 307.451L373.539 307.18C373.763 306.541 373.986 305.918 374.21 305.279L374.705 303.714C375.088 302.628 375.423 301.543 375.759 300.441L376.19 299.035C376.541 297.822 376.909 296.608 377.228 295.394L377.244 295.33C377.739 293.51 378.186 291.689 378.633 289.853L378.889 288.623C379.224 287.17 379.528 285.685 379.799 284.232L380.118 282.619C380.342 281.277 380.582 279.952 380.789 278.642C380.885 277.988 380.997 277.333 381.077 276.662C381.332 274.922 381.572 273.197 381.779 271.456H382.434C407.394 271.456 427.628 251.207 427.628 226.262C427.628 201.318 407.394 181.069 382.434 181.069C376.845 181.069 371.463 182.075 366.529 183.959C363.414 177.588 359.853 171.407 355.861 165.435C361.961 168.517 368.86 170.258 376.142 170.258C401.102 170.258 421.336 150.024 421.336 125.064C421.336 100.104 401.102 79.8545 376.142 79.8545C351.182 79.8545 330.948 100.104 330.948 125.064C330.948 129.743 331.651 134.262 332.993 138.494C331.827 137.44 330.661 136.37 329.511 135.316C325.455 131.723 321.287 128.37 317.023 125.288C327.451 113.055 333.807 97.2133 333.807 79.8545C333.807 41.2084 302.459 9.87625 263.813 9.87625C225.167 9.87625 193.835 41.2084 193.835 79.8545C193.835 86.0187 194.633 92.0072 196.15 97.7083C194.857 97.9319 193.563 98.1874 192.286 98.4589C189.076 76.6127 170.296 59.8607 147.587 59.8607C122.611 59.8607 102.377 80.094 102.377 105.054C102.377 117.83 107.679 129.344 116.207 137.6C112.502 140.986 108.941 144.627 105.539 148.475C103.479 150.791 101.499 153.154 99.5828 155.566Z" fill="#952295"/>
<path d="M52.0181 189.385C50.0961 188.575 48.229 187.463 46.5815 186.213C47.7622 187.655 49.4646 188.932 51.6474 190.167L51.922 190.304C53.2674 190.95 55.0659 191.458 56.9604 191.65L57.3997 191.801C59.1295 191.993 60.873 191.938 62.3557 191.554C59.7061 191.238 56.9329 191.018 54.4618 190.291C53.6518 190.057 52.8144 189.742 52.0181 189.385Z" fill="#F0439B"/>
<path d="M68.5369 402.304C68.5369 408.031 69.4045 413.555 70.9808 418.776C71.0965 416.274 71.6172 413.888 72.6729 411.646C79.1229 397.633 101.814 394.335 123.347 404.242C144.852 414.163 157.072 433.585 150.622 447.584C148.916 451.257 146.096 454.208 142.451 456.362C163.407 449.724 179.199 431.315 181.629 408.407L181.889 405.818C162.12 399.383 143.276 388.305 126.804 372.44C119.023 364.949 112.168 356.749 106.21 348.043L97.9089 352.627C79.7881 362.621 68.5369 381.652 68.5369 402.304Z" fill="#F0439B"/>
<path d="M179.162 100.356C177.962 92.1894 173.611 85.1067 167.482 80.1632C167.887 89.1684 160.848 99.966 149.067 106.89C136.868 114.059 123.512 114.796 115.995 109.492C116.949 116.531 120.202 122.977 125.42 128.022L134.194 136.507C145.555 125.391 161.701 116.372 180.694 110.879L179.162 100.356Z" fill="#F0439B"/>
<path d="M349.642 147.477L361.815 153.603C366.279 155.835 371.107 157.007 376.125 157.007C388.725 157.007 399.616 149.646 404.808 139.008C395.864 142.143 382.868 139.119 371.708 130.429C360.786 121.881 354.707 110.278 355.309 100.923C348.518 106.764 344.228 115.423 344.228 125.079C344.228 128.308 344.687 131.505 345.637 134.576L349.642 147.477Z" fill="#F0439B"/>
<path d="M303.216 135.121C322.171 146.399 334.465 162.452 335.813 180.995C338.652 219.842 292.556 254.85 232.866 259.196C204.282 261.29 177.744 255.929 157.583 245.539C155.822 245.825 154.157 245.666 152.174 245.999C148.891 246.57 146.781 248.632 143.148 249.06C140.801 249.314 138.39 249.14 136.201 248.585C134.836 248.204 133.504 247.22 132.076 246.982C130.95 246.792 130.157 247.078 129.031 247.236C126.191 247.633 123.463 247.633 120.608 247.173C119.545 246.998 118.53 246.76 117.531 246.459C120.735 249.854 124.145 253.105 127.746 256.23C154.633 279.5 187.88 291.334 221.223 292.143C223.079 291.143 225.268 290.43 228.234 290.382C230.614 290.366 232.692 290.842 234.77 291.635L235.23 291.841C236.895 291.746 238.592 291.603 240.258 291.445C240.94 290.826 241.575 290.176 242.177 289.811C246.032 287.574 251.044 287.241 255.835 288.098C256.39 288.193 257.024 288.367 257.754 288.605C286.449 282.229 313.479 267.429 334.544 244.397C345.775 232.088 354.404 218.43 360.511 204.027C365 215.353 367.903 227.154 369.314 239.115C369.314 239.035 369.33 238.956 369.33 238.877C369.394 239.289 369.41 239.686 369.441 240.082C369.537 240.812 369.584 241.558 369.663 242.271C370.012 246.015 370.266 249.758 370.33 253.502V253.565C370.345 255.072 370.345 256.516 370.33 258.023L381.957 258.165L382.512 258.197C385.288 258.197 387.953 257.801 390.522 257.103C385.288 251.757 383.702 241.129 387.16 230.327C391.379 217.177 401.499 208.611 410.176 210.515C404.672 200.871 394.314 194.319 382.417 194.319C378.562 194.319 374.755 195.017 371.17 196.366L359.924 200.617L354.61 189.798C351.707 183.898 348.424 178.203 344.823 172.842L335.813 159.454L323.869 148.16C322.822 147.176 321.759 146.209 320.664 145.225C317.032 142.005 313.193 138.88 309.212 136.025L297.569 127.602L306.943 116.673C315.7 106.426 320.506 93.3392 320.506 79.8721C320.506 60.5992 310.846 43.5789 296.141 33.3159C297.156 35.3304 297.807 37.5037 297.965 39.7879C298.98 53.493 282.69 65.8815 261.561 67.4043C240.464 68.9429 222.556 59.0766 221.556 45.3398C221.477 44.2135 221.54 43.0713 221.683 41.9609C212.61 52.0018 207.09 65.2945 207.09 79.8721C207.09 84.7577 207.708 89.6275 208.961 94.3228L211.88 105.426C250.822 102.762 285.498 115.007 303.216 135.121Z" fill="#F0439B"/>
<path d="M57.5076 164.85C54.1303 169.603 50.1274 173.411 45.9579 176.149L45.9163 176.219C47.0698 178.053 48.9878 179.596 51.6424 181.111L51.9064 181.264C53.2546 181.889 55.0615 182.39 56.9516 182.612L57.3686 182.765C59.37 182.973 61.413 182.89 62.9974 182.348C65.2629 181.542 65.7771 180.263 67.3893 179.012C69.5435 177.372 81.1766 173.022 81.1349 177.761C83.845 176.914 86.9304 175.996 90.0437 175.468L86.5829 158.192C84.1785 146.226 75.1308 136.886 63.7619 133.745C67.3198 141.806 65.1656 154.078 57.5076 164.85Z" fill="#F0439B"/>
<path d="M116.296 173.51C116.493 164.422 119.527 155.672 124.904 147.6C121.588 150.705 118.384 153.965 115.421 157.281C113.628 159.327 111.766 161.529 109.973 163.815L100.25 176.121C102.649 176.262 105.105 175.218 107.236 174.625C109.903 173.905 113.374 172.889 116.296 173.51Z" fill="#F0439B"/>
<path d="M79.0098 276.437C78.8711 275.578 78.7602 274.718 78.6632 273.845C78.5523 273.124 78.4691 272.417 78.3581 271.668C78.2611 270.781 78.1779 269.893 78.0947 269.02C78.0115 268.313 77.97 267.606 77.9007 266.899C77.8175 266.011 77.7482 265.11 77.6927 264.195C77.665 263.544 77.6372 262.892 77.6094 262.24C77.4985 260.535 77.457 258.83 77.4432 257.125C77.4154 256.501 77.4154 255.863 77.4154 255.239C77.4154 254.282 77.4431 253.326 77.457 252.397C77.4708 251.759 77.4985 251.107 77.4985 250.47C77.554 249.499 77.5957 248.584 77.6511 247.642C77.665 247.018 77.7066 246.394 77.762 245.784C77.9284 243.496 78.1363 241.222 78.3997 238.949L68.7641 239.614C61.3468 240.141 54.6782 243.233 49.5208 247.974C54.4425 251.51 58.1026 260.48 58.3938 271.113C58.6711 282.343 55.1219 291.979 49.9367 295.32C55.5655 300.325 62.969 303.403 71.0795 303.403C72.7432 303.403 74.4207 303.264 76.0844 303.015L84.4584 301.67C82.656 295.459 81.2141 289.165 80.1327 282.773L80.105 282.69C79.9802 282.011 79.8277 281.345 79.7168 280.666C79.4395 279.252 79.2178 277.851 79.0098 276.437Z" fill="#F0439B"/>
<path d="M331.875 361.197L336.129 372.81C340.715 385.368 352.784 393.782 366.131 393.782C369.613 393.782 372.938 393.215 376.058 392.191C370.354 387.038 368.494 376.024 372.087 364.821C375.963 352.672 384.85 344.431 393.028 344.715C387.797 336.552 378.941 330.864 368.699 330.013L353.115 328.816C347.821 339.53 341.313 349.788 333.529 359.29C332.978 359.936 332.442 360.551 331.875 361.197Z" fill="#F0439B"/>
<path d="M256.244 420.887C260.458 418.553 266.431 416.158 273.222 414.248C278.346 412.823 283.197 411.868 287.336 411.413C292.005 406.289 295.052 399.649 295.598 392.327C278.392 402.772 259.564 409.215 240.372 411.534C244.632 416.143 250.165 419.402 256.244 420.887Z" fill="#F0439B"/>
<path d="M40.4821 188.766C38.6965 185.604 38.1512 182.605 38.7237 179.743C34.8526 181.065 31.0768 181.392 27.7236 180.574C31.8265 187.567 38.4784 192.869 46.4251 195.173C43.7807 193.183 41.6271 190.825 40.4821 188.766Z" fill="#F0439B"/>
<path d="M370.079 264.027L370.095 263.98C370.189 262.012 370.282 260.013 370.314 258.03C370.345 256.53 370.345 255.062 370.314 253.563C370.36 257.061 370.282 260.544 370.079 264.027Z" fill="#82D7F7"/>
<path d="M264.515 290.039C266.623 289.649 267.669 287.713 269.98 287.182C273.883 286.276 278.597 287.572 282.204 288.524C285.217 289.305 288.698 290.773 292.07 290.351C294.365 290.054 296.02 289.04 298.533 288.915C304.747 288.603 311.522 290.616 317.143 292.224C317.002 285.933 332.598 291.491 335.518 293.661C337.672 295.3 338.39 297.017 341.435 298.016C343.183 298.61 345.337 298.781 347.507 298.625C351.644 292.318 355.204 285.746 358.217 279.033C355.298 276.098 351.847 273.428 348.553 271.071C352.534 272.304 356.25 273.662 359.685 275.614C360.075 274.677 360.45 273.724 360.793 272.803C357.468 268.791 352.893 265.107 348.553 262.047C353.627 263.593 358.295 265.325 362.463 268.292L362.479 268.323C365.804 258.784 368.115 248.98 369.317 239.098C367.896 227.155 365.008 215.352 360.512 204.018C354.408 218.412 345.79 232.072 334.55 244.39C313.489 267.433 286.45 282.217 257.756 288.603C259.941 289.305 262.705 290.351 264.515 290.039Z" fill="#82D7F7"/>
<path d="M369.446 240.077C369.54 240.811 369.602 241.545 369.665 242.279C369.602 241.545 369.54 240.811 369.446 240.077Z" fill="#82D7F7"/>
<path d="M240.265 291.448C238.605 291.596 236.9 291.745 235.24 291.848C235.937 292.234 236.96 292.915 237.567 292.886C238.575 292.856 239.449 292.204 240.265 291.448Z" fill="#82D7F7"/>
<path d="M126.538 328.686C146.975 346.344 171.059 357.431 196.04 362.091C189.909 359.18 186.939 351.946 189.526 347.844L189.953 347.241C189.173 345.771 188.703 344.242 188.629 342.772C185.645 340.404 182.939 338.493 183.41 334.788C183.586 333.185 184.351 332.023 185.41 330.98C183.998 329.568 183.116 327.965 183.41 325.73C183.851 321.966 187.38 320.437 190.894 317.908C193.364 316.188 192.849 315.056 192.805 312.703C192.717 308.616 194.084 304.323 198.539 301.279C202.112 298.868 205.229 299 209.699 298.397C214.816 297.691 217.242 294.28 221.226 292.148C187.88 291.325 154.621 279.489 127.744 256.228C124.141 253.111 120.73 249.862 117.539 246.466C115.922 246.054 114.364 245.48 112.967 244.819C112.173 244.451 111.408 244.098 110.688 243.672C108.541 242.437 107.394 240.761 105.483 239.482C102.998 238.129 98.4988 239.246 95.2936 238.629C93.3821 238.261 91.5883 237.658 90.015 236.879C86.501 235.188 84.0015 232.63 83.4134 229.748C83.1781 228.513 82.8546 228.057 82.3253 227.763C81.8548 227.557 81.2079 227.381 80.3404 226.998C79.517 230.91 78.8995 234.835 78.429 238.79C82.4429 272.284 98.6165 304.528 126.538 328.686Z" fill="#82D7F7"/>
<path d="M78.3948 238.945C78.1321 241.227 77.9109 243.508 77.7588 245.79C77.9109 243.481 78.1321 241.213 78.3948 238.945Z" fill="#82D7F7"/>
<path d="M364.688 279.097C363.846 276.93 362.475 274.842 360.777 272.817C360.434 273.736 360.06 274.687 359.655 275.622C360.636 276.167 361.54 276.728 362.444 277.367C363.239 277.943 363.987 278.489 364.688 279.097Z" fill="#178AB9"/>
<path d="M367.221 272.274L367.034 271.493L367.549 272.039C368.455 269.384 369.314 266.698 370.079 264.027C370.282 260.544 370.36 257.062 370.313 253.563V253.516C370.267 249.768 370.017 246.019 369.657 242.287C369.595 241.553 369.532 240.819 369.439 240.084C369.408 239.694 369.392 239.288 369.33 238.882C369.314 238.96 369.314 239.038 369.314 239.116C368.111 248.987 365.8 258.795 362.473 268.322C364.285 269.634 365.847 270.915 367.221 272.274Z" fill="#178AB9"/>
<path d="M363.905 286.43C362.55 283.844 360.54 281.367 358.219 279.045C355.197 285.744 351.629 292.318 347.486 298.628L348.903 298.487L349.495 298.285C351.692 298.005 353.826 297.444 355.524 296.727L356.584 296.197C358.858 294.827 360.759 293.456 362.192 291.976C362.815 290.137 363.376 288.284 363.905 286.43Z" fill="#178AB9"/>
<path d="M339.033 320.002C338.49 320.405 338.8 321.04 338.614 322.451C338.459 323.737 338.258 325.133 336.707 326.032L336.46 326.156L336.32 326.233C334.522 327.303 331.453 326.497 329.484 326.915L329.437 327.21C329.267 327.783 328.972 328.512 328.538 329.271C328.74 329.907 329.05 330.527 329.127 330.868C329.608 332.697 329.964 334.418 329.437 336.262C328.895 338.154 326.942 341.688 323.873 343.021L322.586 343.501L321.997 344.059C324.524 347.47 325.469 351.36 320.509 354.135L319.548 354.6C317.998 355.391 316.959 355.654 316.215 355.98C315.518 356.383 315.145 357.003 314.82 358.63C314.107 362.521 310.805 365.962 306.139 368.257C304.047 369.326 301.675 370.163 299.133 370.706C295.041 371.558 289.352 370.287 286.004 371.76L285.539 372.023C282.996 373.775 281.493 376.054 278.641 377.728C277.68 378.286 276.703 378.797 275.664 379.293C272.611 380.766 269.138 381.897 265.496 382.549C261.698 383.246 258.071 383.277 254.242 382.812C252.738 382.611 251.669 382.239 250.165 382.502C248.274 382.874 246.522 384.161 244.662 384.703C241.764 385.509 238.555 385.773 235.439 385.447C230.556 384.982 227.704 382.285 223.333 381.557C219.411 380.936 216.45 381.804 212.699 380.022C209.444 378.487 207.119 376.069 207.956 373.356C201.724 373.062 193.121 366.66 199.895 363.265C198.5 363.064 197.229 362.645 196.051 362.087C171.063 357.421 146.99 346.338 126.544 328.682C98.6267 304.516 82.4436 272.274 78.4443 238.776C78.4443 238.761 78.4287 238.745 78.4287 238.73C78.4287 238.807 78.4133 238.869 78.4133 238.931C78.1498 241.21 77.9326 243.473 77.7776 245.767C77.7156 246.387 77.6847 247.007 77.6537 247.627C77.5917 248.573 77.5607 249.503 77.4986 250.464C77.4986 251.1 77.4831 251.751 77.4676 252.402C77.4521 253.316 77.4211 254.277 77.4211 255.238C77.4211 255.858 77.4212 256.494 77.4522 257.114C77.4677 258.819 77.4987 260.524 77.6072 262.229C77.6382 262.896 77.6691 263.531 77.7001 264.182C77.7621 265.097 77.8243 266.012 77.9018 266.895C77.9638 267.593 78.0257 268.321 78.1033 269.019C78.1808 269.887 78.2583 270.77 78.3668 271.669C78.4753 272.413 78.5527 273.111 78.6612 273.84C78.7697 274.708 78.8782 275.576 79.0177 276.428C79.2192 277.854 79.4518 279.249 79.7153 280.66C79.8393 281.342 79.9789 282.009 80.1184 282.691C78.1033 270.755 77.3127 258.633 77.8243 246.496C79.5759 287.775 96.0535 328.279 126.808 357.917C153.965 384.052 187.587 397.259 221.287 397.957C221.922 397.957 222.573 397.988 223.193 397.988C224.712 397.988 226.231 397.972 227.735 397.926C228.448 397.895 229.192 397.879 229.936 397.864C268.286 396.189 306 378.286 333.53 344.742C340.412 336.34 346.303 327.365 351.279 317.971C347.977 318.746 344.38 319.072 341.017 319.583C340.056 319.738 339.451 319.847 339.033 320.002Z" fill="#178AB9"/>
<path d="M295.594 392.331C308.812 384.323 321.112 373.92 331.873 361.2C332.433 360.546 332.977 359.94 333.522 359.287C341.312 349.786 347.812 339.538 353.115 328.824C355.432 324.19 357.485 319.493 359.32 314.719C358.698 315.077 358.076 315.435 357.438 315.746C355.976 316.477 354.468 317.099 352.96 317.581L351.265 317.985C346.289 327.378 340.395 336.35 333.522 344.747C305.982 378.289 268.272 396.203 229.925 397.867C229.194 397.883 228.448 397.898 227.717 397.945C226.208 397.976 224.7 397.992 223.192 397.992C222.554 397.992 221.901 397.961 221.279 397.961C187.566 397.277 153.946 384.059 126.795 357.934C96.036 328.279 79.5526 287.786 77.8109 246.515C77.3133 258.645 78.0908 270.758 80.1123 282.701L80.1278 282.779C81.2164 289.17 82.6471 295.452 84.451 301.673C89.2094 318.078 96.4869 333.769 106.206 348.044C112.162 356.752 119.019 364.947 126.795 372.442C143.263 388.304 162.11 399.391 181.874 405.829C193.599 409.639 205.651 411.816 217.733 412.36C219.817 412.454 221.885 412.5 223.922 412.5H224H224.544H224.684C229.909 412.485 235.15 412.158 240.359 411.536C259.548 409.219 278.38 402.781 295.594 392.331Z" fill="#ED1686"/>
<path d="M367.538 272.048C368.163 272.657 368.771 273.25 369.287 273.875C369.693 270.439 370.021 266.988 370.208 263.552L370.083 263.989L370.068 264.021C369.302 266.707 368.444 269.377 367.538 272.048Z" fill="#ED1686"/>
<path d="M362.219 291.973C363.341 290.82 364.183 289.604 364.775 288.279C364.541 287.656 364.229 287.048 363.918 286.425C363.388 288.279 362.827 290.118 362.219 291.973Z" fill="#ED1686"/>
<path d="M232.861 259.208C292.55 254.843 338.651 219.847 335.813 180.995C334.472 162.456 322.179 146.4 303.208 135.125C310.365 143.284 314.776 152.739 315.531 163.011C318.138 198.809 275.661 231.045 220.661 235.07C203.649 236.304 187.423 234.685 173.079 230.813C172.03 231.415 170.858 231.862 169.547 232.063C174.652 234.577 168.267 239.42 163.594 239.713C164.226 241.733 162.529 243.569 160.092 244.772C159.198 245.188 158.38 245.419 157.578 245.543C177.752 255.923 204.281 261.29 232.861 259.208Z" fill="#42C2F3"/>
<path d="M116.404 173.502C118.133 173.885 118.913 175.353 120.519 175.598C122.309 175.888 125.261 174.389 126.959 174.038C130.57 173.364 134.318 173.563 137.224 175.215C138.249 175.797 139.335 177.449 140.727 177.48L142.793 176.5C144.322 175.888 145.883 175.521 147.673 175.506C148.942 175.506 149.998 175.69 150.977 175.98C148.881 172.018 147.596 167.811 147.275 163.39C145.408 137.767 175.836 114.652 215.212 111.776C254.619 108.915 288.075 127.364 289.926 152.988C291.792 178.627 261.381 201.742 221.958 204.587C206.783 205.704 192.48 203.623 180.517 199.202C181.068 199.845 181.465 200.594 181.588 201.543C181.924 203.853 180.532 205.26 178.773 206.713C180.226 207.723 181.358 208.809 181.588 210.584C182.001 213.582 179.599 215.081 177.182 217.085C176.891 217.774 176.493 218.462 176.035 219.105C176.279 219.395 176.692 219.747 177.136 220.42C179.002 223.311 177.182 228.375 173.082 230.807C187.431 234.678 203.662 236.315 220.673 235.075C275.669 231.052 318.135 198.804 315.535 163.008C314.77 152.743 310.379 143.289 303.22 135.12C285.49 115.004 250.81 102.75 211.877 105.427L211.219 105.473C200.496 106.253 190.231 108.135 180.685 110.888C161.701 116.38 145.546 125.406 134.18 136.512C130.6 140.015 127.495 143.702 124.91 147.588C119.54 155.665 116.496 164.415 116.297 173.502H116.404Z" fill="#82D7F7"/>
<path d="M221.971 204.592C261.386 201.732 291.794 178.619 289.933 152.978C288.071 127.368 254.62 108.902 215.221 111.762C175.836 114.653 145.413 137.751 147.275 163.392C147.593 167.796 148.894 172.019 150.983 175.97C155.297 177.196 157.022 180.753 161.654 181.298C164.999 181.706 167.36 181.6 170.009 183.356C173.4 185.596 174.459 188.79 174.429 191.863C174.414 193.619 174.066 194.466 175.912 195.753C177.668 196.979 179.439 197.887 180.529 199.204C192.486 203.623 206.775 205.697 221.971 204.592Z" fill="#D1F0FC"/>
<path d="M261.569 67.3943C282.7 65.8763 298.988 53.4893 297.971 39.7815C297.819 37.4893 297.167 35.3336 296.149 33.3146C290.943 23.0983 275.595 16.419 257.956 17.679C238.631 19.1059 223.33 29.6259 221.69 41.9523C221.554 43.0604 221.478 44.1989 221.569 45.3374C222.571 59.0604 240.483 68.9427 261.569 67.3943Z" fill="#F472B2"/>
<path d="M371.726 130.413C382.87 139.122 395.862 142.131 404.809 138.994C407.77 137.991 410.302 136.272 412.165 133.9C419.695 124.252 413.757 107.057 398.95 95.5146C384.128 83.9561 366.026 82.4117 358.511 92.0437C356.569 94.5592 355.534 97.6001 355.327 100.912C354.706 110.273 360.788 121.879 371.726 130.413Z" fill="#F472B2"/>
<path d="M387.179 230.323C383.719 241.118 385.314 251.754 390.528 257.095C391.899 258.499 393.509 259.583 395.359 260.173C404.241 263.027 414.972 254.241 419.341 240.608C423.694 226.943 420.043 213.581 411.161 210.758L410.188 210.503C401.514 208.59 391.389 217.168 387.179 230.323Z" fill="#F472B2"/>
<path d="M372.07 364.822C368.487 376.03 370.342 387.047 376.049 392.2C377.27 393.309 378.697 394.149 380.25 394.657C389.144 397.494 399.876 388.728 404.236 375.079C408.611 361.445 404.949 348.065 396.071 345.228C395.057 344.911 394.058 344.752 393.028 344.72C384.848 344.435 375.954 352.679 372.07 364.822Z" fill="#F472B2"/>
<path d="M150.616 447.584C157.07 433.589 144.849 414.171 123.342 404.254C101.806 394.338 79.1252 397.643 72.6716 411.652C71.6127 413.899 71.0976 416.274 70.9831 418.779C70.3964 431.657 81.9012 446.639 99.9456 454.968C115.801 462.28 132.285 462.409 142.445 456.37C146.08 454.209 148.913 451.261 150.616 447.584Z" fill="#F472B2"/>
<path d="M256.239 420.886C251.909 423.301 249.463 425.626 249.949 427.327C250.891 430.684 262.832 430.289 276.641 426.431C290.451 422.557 300.857 416.708 299.93 413.366C299.323 411.239 294.37 410.616 287.321 411.421C283.189 411.877 278.343 412.834 273.223 414.247C266.417 416.161 260.447 418.561 256.239 420.886Z" fill="#F472B2"/>
<path d="M149.053 106.902C160.827 99.9732 167.871 89.1769 167.468 80.1776C167.368 77.8774 166.764 75.6492 165.585 73.6653C159.921 64.0479 143.346 63.3002 128.524 71.9976C113.717 80.7238 106.299 95.5885 111.977 105.235C112.984 106.931 114.335 108.354 115.988 109.504C123.492 114.809 136.862 114.062 149.053 106.902Z" fill="#F472B2"/>
<path d="M38.7139 179.751C38.8652 178.994 39.1128 178.251 39.4155 177.508C37.3241 172.101 38.879 167.216 43.5571 162.717L43.4195 163.309C44.4514 162.277 45.6209 161.258 46.983 160.295C50.065 158.025 53.5324 156.677 57.3162 155.438C51.5924 159.635 45.2632 165.221 44.7403 171.11C45.442 170.518 46.1712 169.913 46.983 169.349C50.065 167.079 53.5324 165.744 57.3162 164.506C52.8995 167.725 48.1526 171.757 45.9786 176.146C50.1339 173.394 54.1516 169.596 57.5225 164.836C65.1726 154.062 67.3327 141.789 63.7691 133.74C62.7234 131.305 61.1549 129.255 59.0497 127.769C49.9412 121.261 34.4761 127.384 24.5283 141.39C14.553 155.397 13.8925 171.991 23.001 178.471C24.4319 179.489 26.028 180.163 27.7203 180.576C31.0775 181.388 34.8476 181.071 38.7139 179.751Z" fill="#F472B2"/>
<path d="M58.3869 271.117C58.0854 260.495 54.4396 251.517 49.5192 247.981C48.0115 246.885 46.3805 246.309 44.6947 246.35C37.5265 246.542 31.9894 257.931 32.3868 271.816C32.7432 285.686 38.8561 296.788 46.038 296.596C47.3948 296.555 48.7105 296.116 49.9303 295.321C55.1112 291.991 58.661 282.355 58.3869 271.117Z" fill="#F472B2"/>
<path d="M102.366 105.069C102.366 80.1156 122.608 59.8738 147.577 59.8738C170.287 59.8738 189.071 76.6219 192.26 98.4824C193.542 98.1939 194.84 97.9374 196.138 97.713C194.632 92.0235 193.815 86.0295 193.815 79.8752C193.815 41.2186 225.147 9.88614 263.804 9.88614C302.444 9.88614 333.793 41.2186 333.793 79.8752C333.793 97.2162 327.446 113.067 317.013 125.295C321.276 128.388 325.443 131.738 329.498 135.328C330.651 136.37 331.821 137.443 332.975 138.501C331.645 134.27 330.94 129.767 330.94 125.071C330.94 100.117 351.166 79.8752 376.119 79.8752C401.089 79.8752 421.315 100.117 421.315 125.071C421.315 150.025 401.089 170.266 376.119 170.266C368.843 170.266 361.952 168.535 355.846 165.458C359.836 171.42 363.394 177.591 366.503 183.969C371.456 182.094 376.825 181.068 382.418 181.068C407.372 181.068 427.613 201.326 427.613 226.28C427.613 251.218 407.372 271.46 382.418 271.46H381.761C381.617 272.758 381.456 274.056 381.28 275.37L381.168 276.107L381.072 276.668C380.992 277.341 380.863 277.998 380.767 278.656L380.543 280.194L380.318 281.412L380.11 282.63L379.79 284.233L379.501 285.9L379.421 286.172C379.261 286.99 379.052 287.807 378.876 288.624L378.62 289.858L378.363 290.884L378.059 292.102C377.786 293.176 377.514 294.25 377.225 295.34L377.209 295.404L377.113 295.852L376.793 296.926C376.6 297.631 376.392 298.337 376.167 299.042L375.751 300.452L375.446 301.542L375.142 302.407L374.693 303.722L374.196 305.276L373.876 306.222L373.523 307.183L373.411 307.472L373.058 308.514L372.497 309.972L371.824 311.783L371.712 312.055L371.071 313.658L370.879 314.139C370.542 314.956 370.19 315.742 369.869 316.527L369.741 316.815C371.888 316.992 374.02 317.296 376.087 317.777H376.151L377.818 318.194L378.219 318.306L379.341 318.626L380.254 318.915L380.847 319.107L382.226 319.62L382.354 319.7C382.979 319.909 383.588 320.165 384.165 320.421L384.325 320.486L386.056 321.287L386.505 321.527C393.172 324.877 398.926 329.861 403.157 335.935L403.301 336.144C404.439 337.778 405.465 339.477 406.394 341.256L406.554 341.593C407.115 342.715 407.66 343.869 408.125 345.055L408.43 345.872L408.846 347.026L409.247 348.26L409.487 349.045L409.76 349.991C410.032 351.049 410.305 352.106 410.513 353.18C411.058 355.969 411.33 358.886 411.33 361.851C411.33 386.824 391.088 407.053 366.135 407.053C346.646 407.053 329.994 394.69 323.68 377.365C318.936 381.211 314.016 384.758 308.951 387.96C308.967 388.603 308.983 389.253 308.983 389.909C308.983 414.859 288.757 435.096 263.804 435.096C247.072 435.096 232.487 425.995 224.682 412.507H224.554H223.993H223.913C221.877 412.507 219.81 412.455 217.727 412.366L216.845 412.359L216.316 412.308C214.04 412.196 211.765 412.06 209.457 411.846L209.104 411.821C206.764 411.606 204.44 411.313 202.1 411L201.94 410.97C199.552 410.651 197.18 410.255 194.808 409.819C191.058 444.916 161.36 472.279 125.236 472.279C86.5954 472.279 55.2469 440.948 55.2469 402.317C55.2469 375.89 69.8793 352.94 91.4835 341L91.0188 340.311L90.1212 338.916L89.9129 338.596L89.7847 338.372L89.7046 338.227L89.4321 337.811L89.3198 337.65L88.791 336.785L88.775 336.737L88.4864 336.32C88.1499 335.711 87.7974 335.134 87.4608 334.573L87.0601 333.868L86.6595 333.195L86.2747 332.506L86.2427 332.474L85.2811 330.743L84.8164 329.909L84.031 328.451L83.9829 328.355L83.7425 327.89L83.2137 326.96L83.0534 326.624L82.8611 326.223C82.3642 325.246 81.8674 324.252 81.3866 323.258C81.3706 323.226 81.3546 323.178 81.3385 323.146L81.0981 322.681L80.9859 322.409C80.2327 320.902 79.5596 319.396 78.8865 317.873L78.662 317.328L78.5018 316.944L78.3895 316.671L78.3576 316.639L78.1332 316.11C75.8253 316.479 73.4694 316.639 71.0814 316.639C46.1116 316.639 25.8858 296.413 25.8858 271.46C25.8858 247.596 44.3808 228.059 67.828 226.392C68.1806 224.421 68.5813 222.434 68.9819 220.478V220.43C69.3826 218.635 69.7992 216.856 70.248 215.093V215.045C70.9852 212.144 71.7866 209.244 72.6841 206.359L72.5398 206.263C67.2189 208.474 61.3852 209.708 55.2469 209.708C30.3092 209.708 10.0673 189.483 10.0673 164.513C10.0673 139.559 30.3092 119.301 55.2469 119.301C77.1556 119.301 95.4421 134.911 99.577 155.57C101.484 153.166 103.472 150.81 105.523 148.486C108.937 144.64 112.495 141.001 116.181 137.604C107.671 129.35 102.366 117.843 102.366 105.069ZM55.2469 109.958C25.1807 109.958 0.707764 134.431 0.707764 164.513C0.707764 194.595 25.1807 219.068 55.2469 219.068H55.904C33.0978 225.703 16.5261 246.858 16.5261 271.46C16.5261 301.542 40.967 326.031 71.0814 326.031L72.3155 325.999L72.5398 326.464L72.652 326.736L72.8603 327.169L72.9245 327.249C73.4533 328.323 73.9822 329.396 74.5431 330.518L74.5913 330.566L74.6553 330.711L74.7675 330.919L74.8477 331.111L74.9438 331.288L75.0881 331.576L75.4728 332.265L75.6169 332.554L75.7451 332.81L76.6266 334.429L76.9152 334.958L77.0593 335.262L77.3478 335.743L78.1011 337.105L78.1973 337.266L78.2133 337.33L78.4216 337.666L78.5819 337.907L78.662 338.051V338.083C58.2599 352.908 45.8872 376.724 45.8872 402.317C45.8872 446.067 81.4989 481.646 125.236 481.646C162.578 481.646 194.231 455.974 202.485 420.493C208.143 421.22 213.832 421.663 219.554 421.825C229.747 435.888 246.222 444.443 263.804 444.443C292.812 444.443 316.628 421.667 318.263 393.047C318.968 392.534 319.673 392.079 320.394 391.571C330.299 406.791 347.48 416.427 366.135 416.427C396.233 416.427 420.706 391.936 420.706 361.851C420.706 348.036 415.513 334.862 406.138 324.733C399.599 317.761 391.473 312.632 382.53 309.812L382.707 309.299C383.171 307.985 383.636 306.606 384.069 305.276L384.149 305.004L384.357 304.347C384.854 302.776 385.335 301.125 385.832 299.458L386.04 298.625L386.136 298.32L386.2 298.048L386.232 297.872L386.248 297.808L386.28 297.776C386.569 296.638 386.873 295.5 387.162 294.378L387.194 294.17L387.466 293.064C387.899 291.253 388.268 289.65 388.588 288.095L388.636 287.823V287.791C388.941 286.284 389.245 284.746 389.55 283.047L389.774 281.733L389.983 280.274C416.507 276.588 436.973 253.766 436.973 226.28C436.973 202.128 421.203 181.565 399.406 174.401C417.885 165.651 430.675 146.851 430.675 125.071C430.675 94.9885 406.202 70.4995 376.119 70.4995C363.731 70.4995 352.288 74.6664 343.104 81.6862C343.12 81.0772 343.136 80.4521 343.136 79.8752C343.136 36.1381 307.541 0.542542 263.804 0.542542C224.778 0.542542 192.244 28.862 185.673 66.0281C184.936 65.323 184.167 64.6017 183.381 63.9285C173.461 55.274 160.735 50.5141 147.577 50.5141C117.495 50.5141 93.006 74.9871 93.006 105.069C93.006 116.737 96.6441 127.827 103.343 137.059L102.766 137.684C93.2785 120.936 75.2804 109.958 55.2469 109.958Z" fill="#ED1686"/>
<path d="M357.437 306.671C355.966 307.422 354.464 308.048 352.962 308.502C349.239 309.644 344.953 309.941 340.995 310.551C340.04 310.692 339.446 310.802 339.023 310.958C338.476 311.365 338.789 312.006 338.601 313.398C338.445 314.681 338.241 316.089 336.693 316.997L336.442 317.09L336.301 317.2C334.377 318.326 330.935 317.309 328.98 317.998L328.495 318.373C327.822 319.155 328.949 321.095 329.121 321.831C329.574 323.567 329.872 325.194 329.465 326.931C331.436 326.508 334.502 327.306 336.301 326.242L336.442 326.164L336.693 326.055C338.241 325.132 338.445 323.755 338.601 322.472C338.789 321.048 338.476 320.423 339.023 320C339.446 319.859 340.04 319.75 340.995 319.594C344.374 319.077 347.956 318.764 351.257 317.982L352.962 317.575C354.464 317.09 355.966 316.48 357.437 315.745C358.078 315.432 358.688 315.088 359.314 314.713C364.711 311.631 369.373 307.031 371.454 303.214C374.035 298.427 374.598 293.953 373.284 289.76C372.862 291.215 372.252 292.654 371.454 294.141C369.123 298.427 363.632 303.636 357.437 306.671Z" fill="#952295"/>
<path d="M190.186 335.004C188.486 333.523 186.714 332.332 185.421 330.981C184.346 332.027 183.591 333.189 183.417 334.786C182.937 338.49 185.639 340.408 188.631 342.761C188.515 341.294 188.835 339.914 189.517 338.796C190.941 336.559 192.321 336.849 190.186 335.004Z" fill="#952295"/>
<path d="M364.762 288.292C365.339 286.936 365.666 285.486 365.666 283.803C365.651 282.213 365.308 280.638 364.7 279.079C363.982 278.487 363.234 277.941 362.455 277.364C361.551 276.725 360.646 276.164 359.664 275.618C356.235 273.67 352.524 272.313 348.549 271.082C351.838 273.436 355.284 276.102 358.214 279.048C360.553 281.371 362.548 283.849 363.905 286.422C364.216 287.061 364.528 287.669 364.762 288.292Z" fill="#952295"/>
<path d="M189.953 347.231L189.523 347.829C186.946 351.957 189.907 359.183 196.044 362.083C197.225 362.651 198.499 363.065 199.879 363.264C193.113 366.67 201.705 373.068 207.95 373.36C207.106 376.075 209.438 378.484 212.706 380.018C216.45 381.798 219.411 380.939 223.323 381.553C227.696 382.289 230.55 384.974 235.428 385.45C238.558 385.772 241.75 385.511 244.665 384.698C246.506 384.161 248.27 382.872 250.157 382.504C251.661 382.243 252.72 382.611 254.239 382.811C258.059 383.271 261.68 383.24 265.485 382.565C269.121 381.906 272.604 380.77 275.657 379.297C276.7 378.806 277.667 378.285 278.633 377.732C281.487 376.06 282.991 373.774 285.538 372.025L285.998 371.764C289.358 370.291 295.035 371.565 299.131 370.721C301.678 370.168 304.041 369.325 306.143 368.266C310.807 365.964 314.106 362.528 314.827 358.646C315.134 357.004 315.517 356.391 316.208 355.992C316.959 355.654 317.987 355.393 319.537 354.596L320.504 354.135C325.459 351.358 324.508 347.461 321.992 344.055L320.504 345.083L319.537 345.543C317.987 346.341 316.959 346.617 316.208 346.94C315.517 347.338 315.134 347.952 314.827 349.579C314.106 353.46 310.807 356.912 306.143 359.198C304.041 360.272 301.663 361.132 299.131 361.653C295.035 362.528 289.358 361.224 285.998 362.727L285.538 362.973C282.991 364.722 281.487 366.992 278.633 368.665C277.667 369.232 276.685 369.754 275.657 370.23C272.588 371.703 269.121 372.853 265.485 373.513C261.68 374.173 258.059 374.219 254.239 373.759C252.72 373.559 251.661 373.176 250.157 373.467C248.27 373.805 246.506 375.124 244.665 375.646C241.75 376.474 238.558 376.72 235.428 376.398C230.55 375.907 227.696 373.222 223.323 372.516C219.411 371.887 216.45 372.731 212.706 370.966C209.438 369.432 207.106 367.008 207.95 364.292C201.935 364.016 193.881 358.109 199.342 354.611C199.389 354.58 199.389 354.534 199.45 354.503C199.465 354.519 199.465 354.519 199.465 354.519C199.634 354.412 199.695 354.289 199.879 354.197C195.246 353.552 191.763 350.591 189.953 347.231Z" fill="#952295"/>
<path d="M329.435 336.262C329.958 334.418 329.605 332.711 329.128 330.867C329.051 330.529 328.744 329.914 328.529 329.284C327.591 331.051 325.993 333.034 323.872 333.972C323.195 334.31 322.473 334.54 321.72 334.633C323.995 337.507 325.178 340.812 322.58 343.501L323.872 343.025C326.946 341.688 328.898 338.153 329.435 336.262Z" fill="#952295"/>
<path d="M72.4298 209.118C72.112 210.476 71.852 211.747 72.2564 213.134C72.6608 214.477 74.062 216.918 76.1852 217.973C76.7774 218.305 77.413 218.536 78.1352 218.594C76.0986 221.252 75.2319 224.328 79.1174 226.422L80.1718 226.914L80.3451 227C81.2118 227.376 81.8473 227.564 82.324 227.766C82.8584 228.055 83.1762 228.502 83.4073 229.745C83.9995 232.633 86.5128 235.19 90.0083 236.88C91.5827 237.66 93.3882 238.267 95.2948 238.628C98.4869 239.249 102.994 238.122 105.478 239.48C107.399 240.766 108.54 242.441 110.692 243.683C111.414 244.102 112.166 244.463 112.96 244.81C114.361 245.489 115.921 246.052 117.539 246.457C118.535 246.76 119.547 246.991 120.601 247.164C123.446 247.641 126.191 247.641 129.022 247.237C130.148 247.092 130.943 246.803 132.084 246.977C133.5 247.222 134.843 248.219 136.201 248.58C138.382 249.143 140.794 249.316 143.148 249.056C146.774 248.638 148.897 246.587 152.176 246.009C154.14 245.662 155.83 245.821 157.578 245.547C158.387 245.417 159.196 245.185 160.091 244.767C162.532 243.568 164.222 241.733 163.601 239.711C168.267 239.422 174.651 234.569 169.552 232.056C170.852 231.868 172.022 231.42 173.076 230.814C177.179 228.387 178.998 223.317 177.135 220.428C176.687 219.749 176.283 219.388 176.023 219.114C174.579 221.02 172.325 222.58 169.552 222.999C169.696 223.072 169.74 223.158 169.87 223.23H169.884C169.899 223.245 169.899 223.259 169.913 223.274C174.116 225.845 168.108 230.366 163.601 230.655C164.222 232.677 162.532 234.511 160.091 235.71C157.303 237.068 155.093 236.447 152.176 236.967C148.897 237.53 146.774 239.567 143.148 240C140.794 240.246 138.382 240.087 136.201 239.509C134.843 239.148 133.5 238.166 132.084 237.935C130.943 237.747 130.148 238.021 129.022 238.166C126.191 238.57 123.446 238.584 120.601 238.122C117.857 237.66 115.271 236.837 112.96 235.753C112.166 235.407 111.414 235.031 110.692 234.627C108.54 233.356 107.399 231.709 105.464 230.424C102.994 229.08 98.4869 230.207 95.2948 229.571C93.3882 229.196 91.5827 228.618 90.0083 227.795C86.5128 226.134 83.9995 223.577 83.4073 220.703C83.1762 219.446 82.8584 218.998 82.324 218.709C81.8329 218.507 81.1251 218.305 80.1718 217.843L79.1174 217.352C75.2319 215.272 76.0986 212.181 78.1352 209.523C77.413 209.465 76.7774 209.249 76.1852 208.916C74.062 207.862 72.6608 205.421 72.2564 204.078C71.852 202.691 72.112 201.42 72.4298 200.048L72.8631 197.433L72.4875 197.173C71.043 196.668 68.472 197.477 66.9987 196.639L66.9121 196.581L66.7098 196.494C65.5398 195.815 65.381 194.776 65.251 193.822C65.1066 192.782 65.3232 192.305 64.9043 192.002C64.601 191.887 64.1532 191.785 63.4455 191.684L62.3478 191.569C60.86 191.944 59.1122 192.002 57.3789 191.814L56.9456 191.67C55.0534 191.468 53.2479 190.962 51.9046 190.312L51.6446 190.182C49.4491 188.94 47.7447 187.669 46.5748 186.225C43.8593 184.202 41.6493 181.805 40.4649 179.739C40.046 178.988 39.6993 178.222 39.396 177.515C39.1071 178.266 38.8472 179.002 38.7027 179.754C38.1394 182.614 38.6739 185.603 40.4649 188.781C41.606 190.832 43.7725 193.187 46.4158 195.18C48.1202 196.465 50.0269 197.607 52.0057 198.444C52.8001 198.805 53.6379 199.109 54.4468 199.354C57.249 200.163 60.47 200.351 63.4455 200.741C64.1532 200.856 64.601 200.943 64.9043 201.059C65.3232 201.348 65.1066 201.824 65.251 202.879C65.381 203.832 65.5398 204.872 66.7098 205.551L66.9121 205.609L66.9987 205.695C68.472 206.533 71.043 205.724 72.4875 206.23L72.5453 206.273L72.6753 206.36L72.8631 206.49L72.4298 209.118Z" fill="#952295"/>
<path d="M181.578 210.588C181.361 208.823 180.219 207.724 178.773 206.712C178.079 207.305 177.312 207.898 176.589 208.549C175.012 209.937 176.068 209.72 177.138 211.369C178.136 212.916 178.064 215.057 177.182 217.096C179.597 215.086 181.998 213.582 181.578 210.588Z" fill="#952295"/>
<path d="M45.917 176.212L45.9719 176.157C48.1498 171.76 52.9028 167.733 57.3135 164.514C53.5329 165.747 50.0537 167.089 46.9854 169.35C46.1636 169.911 45.4377 170.528 44.7391 171.117L44.7117 171.897C44.7117 173.568 45.1363 174.952 45.917 176.212Z" fill="#952295"/>
<path d="M207.956 364.284C207.114 367.006 209.444 369.427 212.707 370.96C216.452 372.735 219.414 371.878 223.339 372.509C227.715 373.216 230.557 375.893 235.444 376.389C238.556 376.72 241.759 376.464 244.662 375.652C246.526 375.126 248.286 373.802 250.165 373.472C251.669 373.171 252.737 373.562 254.24 373.757C258.075 374.223 261.699 374.163 265.488 373.502C269.142 372.84 272.601 371.697 275.668 370.224C272.691 371.607 269.368 372.66 265.879 373.306C262.075 373.968 258.451 374.013 254.646 373.562C253.128 373.351 252.06 372.975 250.541 373.261C248.692 373.607 246.902 374.93 245.068 375.441C242.165 376.269 238.947 376.509 235.835 376.208C230.948 375.712 228.106 373.036 223.715 372.314C219.835 371.697 216.858 372.554 213.114 370.765C209.82 369.231 207.52 366.825 208.362 364.103C202.452 363.818 194.497 358.104 199.354 354.615C193.896 358.104 201.941 364.013 207.956 364.284Z" fill="#F359B4"/>
<path d="M198.551 301.275C194.091 304.311 192.728 308.616 192.805 312.704C192.852 315.043 193.363 316.189 190.9 317.908C187.37 320.432 183.854 321.965 183.421 325.729C183.126 327.974 184.009 329.569 185.418 330.978C186.719 332.326 188.485 333.534 190.188 335.005C192.325 336.848 190.931 336.554 189.522 338.799C188.825 339.914 188.516 341.293 188.624 342.764C188.717 344.235 189.181 345.768 189.956 347.239C191.768 350.584 195.237 353.558 199.883 354.208C199.697 354.301 199.635 354.41 199.465 354.518C200.363 354.735 201.261 354.905 202.113 354.936C201.276 357.677 203.584 360.078 206.836 361.611C210.615 363.392 213.573 362.525 217.475 363.16C221.843 363.872 224.692 366.566 229.586 367.047C232.699 367.372 235.904 367.109 238.831 366.303C240.659 365.777 242.424 364.445 244.298 364.104C245.816 363.825 246.869 364.197 248.387 364.383C252.212 364.863 255.851 364.832 259.614 364.166C264.353 363.314 268.751 361.657 272.406 359.52C273.877 358.606 275.008 357.615 276.092 356.547C273.583 357.414 270.703 357.817 267.807 357.631C265.499 357.491 263.362 356.949 261.209 356.036C260.373 355.68 259.816 355.261 258.886 355.199C257.756 355.122 256.47 355.741 255.293 355.788C253.451 355.881 251.53 355.556 249.78 354.859C247.024 353.759 245.831 351.529 243.4 350.383C241.247 349.346 239.342 349.454 237.499 347.704C235.858 346.155 234.929 344.188 235.889 342.5C232.466 341.385 228.796 336.259 232.435 334.742L233.891 335.454C232.931 337.127 233.845 339.093 235.486 340.611C237.36 342.392 239.234 342.253 241.387 343.321C243.833 344.467 245.01 346.697 247.767 347.797C249.517 348.494 251.453 348.803 253.296 348.741C254.473 348.695 255.743 348.06 256.889 348.138C257.818 348.184 258.36 348.618 259.212 348.958C261.364 349.888 263.47 350.429 265.809 350.569C268.705 350.739 271.57 350.321 274.079 349.469C276.061 348.803 277.331 347.533 279.127 346.775C281.373 345.799 284.795 347.859 287.552 347.952C292.244 348.091 296.503 346.202 298.315 343.011C298.919 344.204 299.507 345.427 300.065 346.651L300.561 347.534L301.041 348.726L300.592 349.516L300.452 349.748C304.804 347.472 307.87 344.126 308.583 340.425C309.264 336.848 310.255 338.118 314.251 335.919C319.47 333.007 318.184 328.857 315.35 325.341C319.717 325.171 322.505 320.386 323.171 318.047C323.713 316.204 323.372 314.501 322.892 312.658C322.706 311.914 321.576 309.963 322.273 309.189C323.79 307.47 328.158 309.189 330.45 307.826C331.998 306.912 332.184 305.503 332.354 304.249C332.664 301.957 331.658 301.693 335.158 301.167C339.107 300.594 343.396 300.284 347.113 299.138C347.717 298.968 348.321 298.72 348.91 298.488L347.5 298.627C345.317 298.782 343.18 298.612 341.43 298.023C338.394 297.016 337.666 295.313 335.514 293.671C332.587 291.503 316.992 285.944 317.131 292.231C311.51 290.621 304.742 288.607 298.516 288.917C296.023 289.041 294.366 290.063 292.059 290.357C288.698 290.775 285.213 289.304 282.209 288.53C278.585 287.585 273.877 286.284 269.975 287.182C267.667 287.725 266.614 289.66 264.508 290.032C262.696 290.357 259.939 289.304 257.756 288.607C257.028 288.359 256.393 288.205 255.835 288.096C251.05 287.229 246.032 287.585 242.176 289.815C241.572 290.171 240.938 290.822 240.256 291.457C239.451 292.216 238.568 292.866 237.561 292.897C236.957 292.928 235.935 292.231 235.223 291.844L234.758 291.627C232.699 290.853 230.623 290.373 228.223 290.388C225.265 290.435 223.081 291.147 221.223 292.154C217.243 294.275 214.812 297.682 209.701 298.395C205.225 298.999 202.113 298.859 198.551 301.275Z" fill="#F359B4"/>
<path d="M362.463 268.287C358.297 265.322 353.631 263.606 348.56 262.046C352.898 265.104 357.47 268.802 360.794 272.813C362.495 274.826 363.868 276.917 364.711 279.086C365.319 280.631 365.662 282.207 365.678 283.798C365.678 285.484 365.35 286.935 364.773 288.277C364.18 289.603 363.337 290.82 362.214 291.975C360.763 293.458 358.874 294.815 356.596 296.188L356.939 296.001C362.838 292.521 366.099 289.041 366.084 283.627L366.052 283.315C367.785 279.429 368.144 275.746 367.238 272.266C365.865 270.909 364.289 269.614 362.479 268.319L362.463 268.287Z" fill="#F359B4"/>
<path d="M336.296 317.192L336.435 317.099C334.308 318.101 330.748 316.991 328.976 318.009C330.933 317.3 334.37 318.332 336.296 317.192Z" fill="#F359B4"/>
<path d="M299.12 361.648C301.662 361.13 304.053 360.277 306.138 359.197C304.144 360.201 301.891 360.978 299.531 361.45C295.253 362.348 289.255 360.932 285.997 362.713C289.346 361.237 295.025 362.531 299.12 361.648Z" fill="#F359B4"/>
<path d="M321.588 334.486L321.711 334.624C322.478 334.547 323.198 334.317 323.873 333.98C323.152 334.271 322.416 334.47 321.588 334.486Z" fill="#F359B4"/>
<path d="M316.211 346.938C316.961 346.617 318.002 346.326 319.548 345.545C317.941 346.311 316.915 346.51 316.211 346.938Z" fill="#F359B4"/>
<path d="M352.976 308.492C354.483 308.026 355.99 307.42 357.451 306.659C356.115 307.327 354.732 307.886 353.364 308.306C349.619 309.425 345.362 309.735 341.399 310.341C340.078 310.543 339.395 310.699 339.037 310.947C339.457 310.792 340.047 310.683 341.011 310.543C344.958 309.937 349.246 309.627 352.976 308.492Z" fill="#F359B4"/>
<path d="M367.035 271.49L367.239 272.272C368.146 275.761 367.786 279.423 366.049 283.319L366.081 283.616C366.096 289.045 362.842 292.519 356.943 296.008L356.599 296.196L355.535 296.728C353.83 297.447 351.702 297.995 349.496 298.277L348.917 298.48C348.322 298.715 347.728 298.965 347.117 299.137C343.393 300.279 339.122 300.592 335.148 301.171C331.659 301.688 332.66 301.954 332.347 304.238C332.191 305.505 332.003 306.913 330.454 307.821C328.17 309.198 323.789 307.461 322.271 309.198C321.582 309.964 322.709 311.92 322.897 312.656C323.382 314.502 323.71 316.207 323.163 318.038C322.521 320.385 319.72 325.173 315.355 325.329C318.187 328.85 319.47 333.012 314.244 335.906C310.254 338.128 309.269 336.845 308.596 340.412C307.876 344.121 304.809 347.469 300.46 349.753C298.77 353.117 294.405 355.151 289.554 355.026C286.8 354.932 283.374 352.883 281.136 353.837C279.368 354.604 278.085 355.84 276.13 356.528L276.098 356.544C275.003 357.608 273.892 358.609 272.406 359.517C268.76 361.66 264.348 363.303 259.623 364.164C255.867 364.821 252.222 364.868 248.389 364.367C246.871 364.195 245.823 363.819 244.305 364.101C242.427 364.445 240.659 365.775 238.829 366.292C235.918 367.105 232.695 367.356 229.597 367.043C224.7 366.558 221.852 363.866 217.471 363.162C213.575 362.536 210.618 363.381 206.847 361.613C203.577 360.08 201.293 357.67 202.122 354.932C201.262 354.901 200.37 354.729 199.478 354.51C199.462 354.51 199.462 354.51 199.447 354.51C199.4 354.541 199.4 354.572 199.337 354.619C194.487 358.108 202.451 363.835 208.349 364.101C207.52 366.824 209.82 369.233 213.106 370.782C216.845 372.566 219.818 371.69 223.699 372.315C228.095 373.035 230.943 375.711 235.84 376.211C238.938 376.509 242.161 376.274 245.056 375.445C246.902 374.928 248.686 373.598 250.548 373.27C252.05 372.988 253.129 373.348 254.632 373.567C258.449 374.021 262.079 373.974 265.881 373.317C269.355 372.675 272.687 371.611 275.66 370.219C276.693 369.749 277.679 369.233 278.633 368.67C281.481 366.98 282.998 364.711 285.549 362.959L286.003 362.724C289.257 360.925 295.265 362.349 299.537 361.457C301.899 360.972 304.137 360.205 306.139 359.188C310.802 356.904 314.103 353.446 314.823 349.566C315.136 347.954 315.512 347.328 316.216 346.937C316.92 346.515 317.937 346.327 319.548 345.544L320.503 345.075L321.989 344.058L322.584 343.51C325.181 340.819 323.992 337.518 321.707 334.623L321.598 334.482C322.427 334.467 323.147 334.279 323.882 333.966C325.995 333.027 327.591 331.056 328.529 329.288C328.968 328.521 329.265 327.786 329.437 327.207L329.468 326.925C329.891 325.188 329.578 323.561 329.124 321.824C328.952 321.089 327.841 319.149 328.498 318.367L328.999 317.991C330.751 316.99 334.319 318.085 336.446 317.084L336.697 316.99C338.246 316.082 338.449 314.674 338.606 313.391C338.793 311.998 338.48 311.357 339.028 310.95C339.388 310.7 340.076 310.543 341.391 310.34C345.349 309.745 349.621 309.432 353.36 308.306C354.722 307.883 356.114 307.336 357.444 306.663C363.656 303.643 369.132 298.417 371.463 294.13C372.261 292.644 372.871 291.204 373.294 289.765C374.968 284.007 373.513 278.75 369.304 273.868C368.788 273.227 368.177 272.648 367.551 272.038L367.035 271.49Z" fill="#F03E6D"/>
<path d="M301.053 348.718L300.566 347.533L300.08 346.636C299.518 345.421 298.926 344.205 298.318 343.005C296.51 346.196 292.256 348.095 287.561 347.943C284.796 347.852 281.393 345.785 279.129 346.773C277.337 347.533 276.06 348.794 274.085 349.462C271.578 350.328 268.722 350.723 265.82 350.571C263.48 350.419 261.369 349.872 259.227 348.945C258.376 348.611 257.829 348.171 256.887 348.14C255.747 348.049 254.486 348.687 253.301 348.733C251.463 348.793 249.533 348.49 247.771 347.791C245.006 346.697 243.836 344.464 241.405 343.324C239.233 342.245 237.379 342.382 235.495 340.604C233.854 339.085 232.943 337.125 233.9 335.439L232.441 334.74C228.81 336.244 232.472 341.379 235.905 342.488C234.948 344.19 235.86 346.15 237.501 347.7C239.354 349.447 241.253 349.325 243.411 350.374C245.842 351.513 247.027 353.746 249.792 354.856C251.539 355.539 253.468 355.873 255.307 355.782C256.477 355.737 257.753 355.114 258.892 355.19C259.819 355.25 260.381 355.676 261.232 356.025C263.374 356.937 265.501 357.499 267.811 357.621C270.712 357.803 273.599 357.408 276.106 356.542L276.136 356.512C278.096 355.843 279.372 354.597 281.15 353.822C283.383 352.865 286.817 354.931 289.567 355.023C294.413 355.159 298.774 353.108 300.46 349.751L300.597 349.508L301.053 348.718Z" fill="#F03E6D"/>
<path d="M163.305 230.519C163.954 232.523 162.253 234.354 159.817 235.55C157.02 236.919 154.801 236.3 151.874 236.804C148.617 237.395 146.498 239.428 142.837 239.846C140.516 240.105 138.123 239.932 135.918 239.355C134.534 238.995 133.194 238.015 131.795 237.77C130.657 237.597 129.864 237.871 128.725 238.058C125.886 238.418 123.161 238.433 120.322 237.972C117.698 237.51 115.205 236.746 112.97 235.752C115.277 236.833 117.857 237.655 120.61 238.101C123.464 238.577 126.203 238.548 129.042 238.159C130.152 238.015 130.959 237.741 132.084 237.914C133.496 238.159 134.851 239.139 136.206 239.5C138.397 240.091 140.804 240.235 143.154 239.99C146.786 239.557 148.905 237.51 152.177 236.948C155.103 236.444 157.323 237.049 160.105 235.694C162.541 234.498 164.242 232.667 163.608 230.649C168.119 230.361 174.13 225.835 169.936 223.269C173.683 225.82 167.759 230.231 163.305 230.519Z" fill="#F359B4"/>
<path d="M67.3921 179.008C65.7868 180.252 65.2661 181.539 62.9956 182.349C61.4192 182.884 59.3656 182.971 57.3699 182.754L58.7438 183.217C61.5494 184.041 64.7744 184.215 67.7247 184.62C70.3424 184.996 69.6049 185.184 69.8363 186.919C69.9809 187.845 70.1254 188.9 71.3113 189.566C73.0467 190.564 76.2863 189.204 77.4722 190.52L77.0094 193.109C76.6768 194.483 76.4454 195.755 76.8648 197.144C77.3854 198.865 79.5114 202.451 82.7799 202.495C80.7118 205.185 79.7861 208.309 83.7487 210.435C86.7279 212.04 87.4655 211.085 88.015 213.732C88.5646 216.538 90.8931 218.982 94.176 220.674L94.0747 220.5L93.7565 219.878L94.0747 218.982L94.4363 218.331C94.8702 217.42 95.3041 216.509 95.7235 215.583C97.1118 217.94 100.322 219.343 103.822 219.17C105.905 219.097 108.421 217.521 110.128 218.215C111.473 218.765 112.442 219.719 113.931 220.196C115.811 220.818 117.952 221.079 120.15 220.934C121.885 220.804 123.462 220.384 125.067 219.676C125.703 219.386 126.108 219.068 126.788 219.025C127.67 218.967 128.61 219.415 129.478 219.444C130.881 219.473 132.313 219.213 133.614 218.663C135.682 217.839 136.564 216.161 138.343 215.265C139.949 214.469 141.351 214.527 142.754 213.197C143.969 212.011 144.62 210.536 143.897 209.292L144.996 208.742C147.729 209.842 145.01 213.717 142.451 214.614C143.203 215.843 142.537 217.319 141.323 218.49C139.949 219.835 138.531 219.792 136.912 220.587C135.118 221.469 134.25 223.147 132.197 223.986C130.881 224.521 129.449 224.781 128.046 224.737C127.179 224.709 126.239 224.275 125.385 224.347C124.662 224.376 124.257 224.709 123.621 224.969C122.044 225.692 120.439 226.111 118.689 226.227C116.549 226.415 114.365 226.126 112.485 225.504L112.471 225.49C113.295 226.27 114.163 227.037 115.291 227.688C118.039 229.264 121.365 230.465 124.908 231.043C127.743 231.506 130.447 231.506 133.325 231.101C134.453 230.942 135.248 230.667 136.391 230.855C137.779 231.101 139.124 232.084 140.513 232.46C142.682 233.024 145.112 233.198 147.426 232.923C151.085 232.504 153.196 230.465 156.464 229.9C159.386 229.365 161.598 230.002 164.39 228.613C166.819 227.442 168.526 225.605 167.875 223.595C168.526 223.537 169.206 223.407 169.885 223.219C169.755 223.147 169.712 223.06 169.553 222.988C172.344 222.568 174.6 221.021 176.032 219.097C176.509 218.461 176.899 217.767 177.203 217.087C178.085 215.033 178.143 212.907 177.145 211.36C176.075 209.711 175.019 209.928 176.596 208.54C177.333 207.875 178.085 207.282 178.779 206.703C180.544 205.243 181.932 203.84 181.6 201.54C181.484 200.586 181.079 199.848 180.529 199.197C179.445 197.896 177.68 196.97 175.916 195.755C174.065 194.468 174.426 193.615 174.441 191.865C174.47 188.785 173.399 185.589 170.015 183.361C167.354 181.597 164.997 181.713 161.656 181.293C157.028 180.758 155.307 177.201 150.983 175.971C150.014 175.682 148.944 175.508 147.671 175.508C145.893 175.523 144.331 175.884 142.798 176.492L140.73 177.475C139.341 177.446 138.257 175.783 137.244 175.205C134.337 173.556 130.592 173.354 126.976 174.033C125.284 174.38 122.319 175.884 120.526 175.595C118.921 175.349 118.14 173.874 116.419 173.498H116.303C113.382 172.876 109.925 173.889 107.25 174.612C105.124 175.205 102.665 176.246 100.265 176.101H99.8885C98.1675 175.884 96.9237 175.147 95.0292 175.089C93.4094 175.017 91.7319 175.176 90.0543 175.465C86.9305 175.986 83.85 176.911 81.1455 177.75C81.1889 173.021 69.547 177.374 67.3921 179.008Z" fill="#F359B4"/>
<path d="M44.4239 171.568L44.4101 171.788C44.4238 175.842 46.9168 178.417 51.3549 180.979L51.9164 181.253L51.6425 181.102C48.9988 179.595 47.0675 178.047 45.9169 176.212C45.1361 174.952 44.7115 173.568 44.7115 171.897L44.7389 171.116C45.2595 165.213 51.574 159.638 57.3133 155.446C53.5328 156.679 50.0535 158.022 46.9853 160.295C45.6155 161.268 44.4512 162.268 43.4239 163.309C42.7801 165.911 43.0542 168.665 44.4239 171.568Z" fill="#F359B4"/>
<path d="M66.9197 196.564L67.0162 196.633C68.4919 197.474 71.0569 196.66 72.505 197.17C71.1672 196.398 68.547 197.267 66.9197 196.564Z" fill="#F359B4"/>
<path d="M76.1807 208.915C76.7752 209.247 77.4111 209.468 78.13 209.524L78.1992 209.455C77.4664 209.413 76.8028 209.219 76.1807 208.915Z" fill="#F359B4"/>
<path d="M82.3283 218.695C81.8297 218.432 81.1925 218.307 80.1814 217.837C81.1371 218.307 81.8297 218.501 82.3283 218.695Z" fill="#F359B4"/>
<path d="M54.186 190.159C53.4438 189.952 52.729 189.678 52.0281 189.375C52.8115 189.746 53.6499 190.049 54.4608 190.282C56.9348 191.011 59.7111 191.231 62.3638 191.547L63.4495 191.684C64.178 191.78 64.6178 191.877 64.9202 192C64.6728 191.808 64.1642 191.684 63.1471 191.547C60.1921 191.134 56.976 190.956 54.186 190.159Z" fill="#F359B4"/>
<path d="M94.9937 229.416C93.1886 229.066 91.5234 228.506 90.0261 227.793C91.5933 228.604 93.3985 229.192 95.3015 229.57C98.5059 230.2 103.012 229.066 105.475 230.41C103.068 228.814 98.338 230.088 94.9937 229.416Z" fill="#F359B4"/>
<path d="M164.386 228.61C161.604 229.994 159.385 229.36 156.474 229.893C153.202 230.469 151.084 232.501 147.423 232.919C145.103 233.193 142.682 233.02 140.52 232.458C139.122 232.069 137.782 231.089 136.384 230.858C135.26 230.657 134.453 230.945 133.329 231.103C130.461 231.492 127.751 231.492 124.912 231.031C121.367 230.469 118.038 229.259 115.3 227.688C114.161 227.039 113.296 226.261 112.475 225.497C111.019 224.993 110.039 224.07 108.685 223.523C107.013 222.831 104.462 224.416 102.401 224.503C98.7551 224.633 95.4837 223.163 94.1722 220.669C90.9008 218.983 88.5805 216.533 88.0184 213.737C87.4708 211.086 86.7359 212.037 83.7527 210.437C79.7895 208.304 80.7118 205.177 82.7871 202.496C79.5156 202.453 77.3826 198.865 76.8638 197.135C76.4603 195.752 76.6765 194.469 77.0079 193.114L77.4691 190.52C76.3018 189.209 73.0592 190.563 71.301 189.555C70.1337 188.892 69.9896 187.84 69.8455 186.917C69.6149 185.188 70.3499 184.986 67.7269 184.612C64.7726 184.208 61.5444 184.049 58.7485 183.214L57.3794 182.752L56.9615 182.608C55.0735 182.392 53.2721 181.888 51.9174 181.254L51.3553 180.98C46.9165 178.415 44.4234 175.835 44.409 171.771L44.4234 171.555C43.0687 168.658 42.7948 165.905 43.4289 163.297L43.5587 162.72C38.8749 167.217 37.3185 172.102 39.4082 177.507C39.7108 178.213 40.0566 178.977 40.4745 179.726C41.6707 181.801 43.8757 184.194 46.5851 186.211C48.2424 187.451 50.1015 188.56 52.0327 189.382C52.7388 189.67 53.445 189.944 54.1944 190.146C56.9758 190.953 60.1897 191.14 63.1441 191.543C64.1673 191.673 64.6717 191.803 64.9167 191.99C65.3346 192.293 65.1184 192.768 65.2625 193.806C65.4066 194.757 65.5652 195.809 66.7181 196.472L66.9198 196.559C68.5483 197.265 71.1713 196.386 72.5116 197.164L72.8863 197.409L72.4396 200.032C72.1225 201.401 71.8631 202.669 72.2666 204.067C72.6845 205.407 74.0824 207.843 76.2009 208.895C76.8206 209.212 77.4836 209.399 78.2186 209.443L78.1465 209.515C76.1145 212.166 75.2498 215.265 79.141 217.34L80.193 217.83C81.2018 218.291 81.8358 218.421 82.3402 218.695C82.8735 218.983 83.1905 219.43 83.4211 220.698C84.012 223.566 86.5197 226.131 90.0217 227.789C91.5349 228.495 93.2066 229.071 95.0081 229.417C98.3516 230.08 103.079 228.812 105.485 230.412C107.416 231.694 108.555 233.352 110.702 234.605C111.423 235.009 112.187 235.384 112.979 235.744C115.213 236.753 117.706 237.517 120.315 237.963C123.168 238.424 125.892 238.41 128.731 238.05C129.87 237.877 130.648 237.603 131.801 237.761C133.199 238.006 134.539 238.986 135.923 239.347C138.128 239.923 140.52 240.111 142.84 239.851C146.515 239.419 148.634 237.387 151.876 236.796C154.802 236.306 157.036 236.911 159.817 235.557C162.253 234.36 163.968 232.516 163.305 230.512C167.758 230.224 173.695 225.814 169.934 223.263C169.905 223.249 169.905 223.235 169.891 223.22H169.876C169.213 223.408 168.536 223.537 167.888 223.595C168.536 225.613 166.836 227.428 164.386 228.61Z" fill="#F03E6D"/>
<path d="M102.388 224.509C104.44 224.424 107.005 222.827 108.673 223.54C110.027 224.067 111.01 225.008 112.464 225.507L112.478 225.521C114.36 226.134 116.54 226.419 118.678 226.234C120.431 226.12 122.027 225.692 123.624 224.979C124.251 224.723 124.664 224.381 125.377 224.352C126.232 224.281 127.172 224.723 128.042 224.737C129.438 224.78 130.864 224.523 132.189 223.996C134.241 223.155 135.111 221.488 136.907 220.59C138.517 219.792 139.942 219.849 141.311 218.495C142.522 217.326 143.192 215.844 142.451 214.618C145.002 213.72 147.724 209.844 144.988 208.746L143.89 209.302C144.617 210.542 143.961 212.024 142.75 213.207C141.353 214.533 139.942 214.476 138.332 215.274C136.55 216.157 135.667 217.839 133.6 218.68C132.317 219.222 130.864 219.478 129.467 219.45C128.598 219.421 127.657 218.965 126.773 219.036C126.103 219.079 125.69 219.393 125.063 219.678C123.452 220.39 121.871 220.804 120.132 220.932C117.951 221.089 115.799 220.818 113.918 220.205C112.435 219.735 111.466 218.765 110.127 218.21C108.416 217.54 105.894 219.108 103.813 219.179C100.307 219.35 97.1 217.953 95.7175 215.587C95.2899 216.514 94.8624 217.426 94.4348 218.338L94.0643 218.994L93.7507 219.892L94.0643 220.504L94.1641 220.675C95.4753 223.184 98.7534 224.652 102.388 224.509Z" fill="#F03E6D"/>
</svg>
