<svg width="474" height="481" viewBox="0 0 474 481" fill="none" xmlns="http://www.w3.org/2000/svg">
<path d="M451.399 40.5199C450.821 41.2798 450.261 41.9465 449.813 42.5199C448.793 43.8932 445.837 46.9198 443.006 49.8265C427.589 65.7598 401.774 92.3598 420.354 111.893C425.141 116.893 430.962 119.226 435.658 121.066C437.75 121.893 440.368 122.933 441.225 123.68C442.2 124.533 443.493 125.68 441.492 131.666C440.581 134.4 437.086 139.813 433.995 144.56C424.453 159.293 411.343 179.48 422.407 197.093C427.317 204.92 435.593 208.813 442.914 212.24C445.117 213.266 448.436 214.853 450.398 216.093C449.436 218.08 447.67 220.533 445.962 222.933C443.649 226.133 441.024 229.8 439.042 233.933C433.137 246.346 429.583 260.48 429.362 272.773C429.019 289.906 437.504 300.08 444.337 308.266C445.876 310.093 445.746 311.053 445.669 311.733C444.409 321.813 421.738 338.213 412.058 345.2C408.842 347.52 406.087 349.52 403.801 351.306C402.755 352.133 400.091 353.973 397.259 355.92C366.417 377.2 346.883 393.666 344.654 410.16C343.802 416.453 345.545 422.52 349.546 427.266C354.827 433.506 362.681 436.266 370.289 438.946C372.894 439.866 376.81 441.24 379.233 442.48C377.479 444.226 373.133 447.013 363.253 451.146C350.378 456.56 334.923 460.32 314.682 462.973C297.662 465.173 280.266 466.32 262.948 466.32C237.892 466.32 213.193 463.973 189.517 459.373C183.221 458.146 177.037 456.666 170.917 455.04L169.449 454.826C127.419 448.92 91.2622 427.933 65.6288 398.093C59.7301 393.186 54.1248 388.093 49.3168 382.72C43.4381 376.107 40.2608 366.786 36.8968 356.946C36.0661 354.493 35.2275 352.066 34.3621 349.68C29.7568 336.986 25.0155 323.28 21.5008 309.106C14.0235 278.853 12.7115 252.186 17.4541 227.6C27.9248 173.293 47.3674 131.906 75.2168 104.56C81.9328 97.9865 89.2688 92.3865 96.4528 87.3331C96.1981 88.7198 95.8488 90.2931 95.4461 92.0398C94.3288 96.9331 93.0688 102.44 93.2688 108.6C93.7955 125.333 104.522 136.16 120.611 136.16C121.747 136.16 122.878 136.107 124.047 135.987L124.373 135.853L125.503 135.373C127.017 134.68 128.529 134.027 130.063 133.413L130.219 133.347C131.803 132.707 133.427 132.093 135.031 131.493L136.209 131.093C137.522 130.613 138.846 130.16 140.19 129.706L141.21 129.36C142.834 128.827 144.465 128.347 146.109 127.853L146.979 127.613C148.355 127.227 149.758 126.853 151.135 126.48L152.026 126.266C163.245 119.88 172.761 111.586 176.698 105.133C187.339 87.7331 182.936 66.7731 179.998 52.9064C179.55 50.7465 178.837 48.5332 178.081 46.2132C177.842 45.4666 177.529 44.4798 177.225 43.4932C178.107 43.2798 178.953 43.0799 179.53 42.9466L180.077 42.8265C197.506 38.7998 216.266 37.1465 228.85 36.2799C234.247 35.8799 238.982 35.7198 243.277 35.7198C248.565 35.7198 253.313 35.9999 257.782 36.5465L262.376 37.0932L265.864 35.5199C281.285 28.7198 298.299 27.6131 316.305 26.4398C326.298 25.7998 336.645 25.1198 347.149 23.4265C353.821 22.3465 360.681 20.7999 367.333 19.2799L367.885 19.1598C351.578 26.3465 328.792 37.9732 327.902 58.4932C327.524 66.8531 330.902 72.2531 333.818 75.2665C338.445 80.1331 345.058 82.5731 353.457 82.5731C370.027 82.5731 391.27 72.7065 391.505 72.6265C402.183 67.6265 411.966 61.3065 421.418 55.1998C432.462 48.0398 442.941 41.2798 454.094 36.9731C452.995 38.4665 452.003 39.7599 451.399 40.5199ZM472.829 24.4799C469.547 17.3065 458.758 20.7065 453.151 22.5465C428.63 30.6399 408.842 49.1465 385.599 59.9998C378.298 63.4131 340.96 78.1198 341.797 59.1198C342.498 43.1865 371.938 32.8932 383.417 27.5465C396.857 21.2532 404.386 14.6799 409.25 0.519867C388.555 -2.12015 365.39 6.41321 344.954 9.6799C316.083 14.3065 287.067 10.8932 260.238 22.8265L259.542 22.7332C249.058 21.3731 238.365 21.6399 227.868 22.3865C210.992 23.5865 193.438 25.4399 176.946 29.2799C172.047 30.3999 164.023 32.0266 162.537 37.7466C161.374 42.2799 165.402 51.0932 166.383 55.7598C169.201 69.1198 172.43 85.4666 164.823 97.8799C156.703 111.147 108.171 139.186 107.19 108.173C106.839 96.8665 113.933 85.9731 109.19 74.7998C105.299 65.5865 100.805 67.4665 93.4381 72.5199C83.5648 79.2265 74.0608 86.2131 65.4928 94.6398C30.7715 128.68 12.8021 178.16 3.76612 224.987C-1.85922 254.187 0.914146 283.773 7.99548 312.44C11.5355 326.773 16.2448 340.546 21.2608 354.4C25.9954 367.48 29.4901 381.373 38.9221 391.973C49.3168 403.626 62.5768 413.626 74.9901 423.026C108.171 448.2 145.978 465.053 186.871 473.026C229.129 481.266 273.807 482.333 316.487 476.76C334.177 474.453 352.131 470.92 368.643 464C376.829 460.573 391.115 454.52 393.674 444.72C398.279 426.96 367.885 427.413 360.213 418.293C347.61 403.333 403.73 369.08 412.41 362.266C427.479 350.4 474.337 322.453 455.017 299.333C448.098 291.04 443.05 284.52 443.271 273.066C443.493 262 446.884 249.84 451.62 239.92C455.017 232.773 462.052 226.24 464.288 218.706C469.354 201.773 441.225 200.893 434.19 189.666C424.85 174.773 450.151 149.76 454.711 136.053C457.53 127.6 457.518 119.48 450.437 113.24C444.785 108.266 435.528 107.64 430.436 102.293C418.464 89.7065 453.886 60.1598 460.876 50.9731C465.033 45.5198 476.473 32.3999 472.829 24.4799Z" fill="#A0182F"/>
<path d="M26.8007 265.56C29.1981 248.4 34.1407 232.187 41.1714 217.293L41.2167 216.84L41.282 216.147L41.3914 215.293L41.482 214.64L41.638 213.773L41.73 213.173L41.93 212.32L42.0473 211.787L42.2434 210.947L42.3727 210.467L42.574 209.693L42.686 209.333L42.7554 209.053C46.7247 195.813 56.0261 184.466 65.7647 174.973C75.4821 165.546 86.5207 157.373 98.2261 150.493L98.5234 150.28L99.714 149.48L100.642 148.853C102.053 147.947 103.462 147.013 104.905 146.16L104.995 146.106C106.165 145.36 107.391 144.653 108.613 143.947H108.594H108.613L109.465 143.453L110.419 142.906C111.659 142.186 112.933 141.493 114.199 140.827L115.045 140.373C116.603 139.547 118.118 138.8 119.67 138.04L120.287 137.747C121.522 137.147 122.761 136.56 124.047 135.987C122.878 136.107 121.747 136.16 120.611 136.16C104.522 136.16 93.7954 125.333 93.2687 108.6C93.0687 102.44 94.3287 96.9332 95.446 92.0398C95.8487 90.2932 96.198 88.7198 96.4527 87.3332C89.2687 92.3865 81.9327 97.9865 75.2167 104.56C47.3673 131.907 27.9247 173.293 17.454 227.6C12.7114 252.187 14.0234 278.853 21.5007 309.107C25.0154 323.28 29.7567 336.987 34.3621 349.68C35.2274 352.067 36.066 354.493 36.8967 356.947C40.2607 366.787 43.438 376.107 49.3167 382.72C54.1247 388.093 59.7301 393.187 65.6287 398.093C35.3567 362.813 19.8114 315.2 26.8007 265.56Z" fill="#EB173D"/>
<path d="M391.505 72.6265C391.27 72.7065 370.027 82.5731 353.457 82.5731C345.058 82.5731 338.445 80.1331 333.818 75.2665C330.902 72.2531 327.523 66.8532 327.902 58.4932C328.791 37.9732 351.578 26.3465 367.885 19.1599L367.333 19.2799C360.681 20.7999 353.821 22.3465 347.149 23.4265C336.645 25.1198 326.298 25.7998 316.305 26.4398C298.299 27.6131 281.285 28.7198 265.863 35.5199L262.375 37.0932L257.782 36.5466C253.313 35.9999 248.565 35.7198 243.277 35.7198C238.982 35.7198 234.247 35.8799 228.85 36.2799C216.266 37.1465 197.506 38.7998 180.077 42.8265L179.53 42.9466C178.953 43.0799 178.107 43.2798 177.225 43.4932C177.529 44.4798 177.842 45.4666 178.081 46.2132C178.837 48.5332 179.55 50.7465 179.998 52.9065C182.935 66.7731 187.339 87.7332 176.698 105.133C172.761 111.586 163.245 119.88 152.026 126.266L152.467 126.147C154.074 125.747 155.695 125.386 157.307 125L157.495 124.973C158.282 124.813 159.055 124.64 159.859 124.506C163.154 123 166.402 121.453 169.605 119.68C176.101 116.08 182.422 112.346 187.937 107.306C194.75 101.053 196.102 97.2931 199.577 89.3065C208.569 68.6398 240.673 66.1465 259.179 58.0265C268.177 54.0932 285.397 43.0398 295.745 46.2932C311.681 51.3332 285.487 90.8265 289.406 103.266C297.486 129.053 361.727 91.9332 377.902 91.7865C410.35 91.4799 345.258 154.64 368.417 161.32C378.473 164.187 400.111 151.48 407.581 161.626C415.455 172.28 394.369 199.227 390.05 208.613C383.657 222.6 384.574 230.32 400.839 230.6C407.159 230.72 412.741 230.827 415.729 233.027C415.501 230.987 414.766 228.986 414.501 226.84C414.189 224.44 412.987 212.493 418.437 216.4C423.042 219.706 424.29 224.8 424.023 230.227C423.693 237.013 420.965 244.346 419.399 249.413C415.391 262.413 408.842 274.667 401.878 286.307C400.995 287.733 400.118 289.2 399.215 290.6C398.415 291.893 397.591 293.173 396.759 294.453L396.566 294.733C395.966 295.68 395.362 296.573 394.766 297.48C396.298 304.813 402.527 308.227 406.607 315.573C412.987 327.147 400.819 339.253 393.427 347.053C374.179 367.307 351.405 384.52 329.617 401.907C316.709 412.2 303.957 425.253 288.158 430.773C282.006 432.92 276.029 434.747 270.091 437.56L269.917 437.653C269.247 438.013 268.578 438.32 267.91 438.68L267.779 438.733C265.375 439.92 262.947 441.053 260.505 442.147C259.407 442.64 258.321 443.12 257.23 443.56L256.561 443.853L256.255 443.973C251.935 445.747 247.551 447.347 243.102 448.76C241.411 449.28 239.743 449.76 238.027 450.253L237.937 450.266C233.825 451.426 229.661 452.453 225.433 453.266L225.411 453.293C207.918 456.733 189.561 457.493 170.917 455.04C177.037 456.667 183.221 458.147 189.517 459.373C213.193 463.973 237.891 466.32 262.947 466.32C280.266 466.32 297.662 465.173 314.682 462.973C334.923 460.32 350.378 456.56 363.253 451.147C373.133 447.013 377.479 444.227 379.233 442.48C376.81 441.24 372.894 439.867 370.289 438.947C362.681 436.267 354.827 433.506 349.546 427.266C345.545 422.52 343.802 416.453 344.654 410.16C346.883 393.667 366.417 377.2 397.259 355.92C400.091 353.973 402.755 352.133 403.801 351.307C406.087 349.52 408.842 347.52 412.058 345.2C421.738 338.213 444.409 321.813 445.669 311.733C445.746 311.053 445.875 310.093 444.337 308.266C437.503 300.08 429.019 289.907 429.362 272.773C429.583 260.48 433.137 246.346 439.042 233.933C441.023 229.8 443.649 226.133 445.962 222.933C447.67 220.533 449.435 218.08 450.398 216.093C448.435 214.853 445.117 213.266 442.914 212.24C435.593 208.813 427.317 204.92 422.407 197.093C411.343 179.48 424.453 159.293 433.995 144.56C437.086 139.813 440.581 134.4 441.491 131.666C443.493 125.68 442.199 124.533 441.225 123.68C440.367 122.933 437.75 121.893 435.658 121.066C430.962 119.226 425.141 116.893 420.354 111.893C401.774 92.3598 427.589 65.7598 443.006 49.8265C445.837 46.9198 448.793 43.8932 449.813 42.5199C450.261 41.9465 450.821 41.2799 451.399 40.5199C452.003 39.7599 452.995 38.4665 454.094 36.9731C442.941 41.2798 432.462 48.0398 421.418 55.1998C411.966 61.3065 402.183 67.6265 391.505 72.6265Z" fill="#EB173D"/>
<path d="M225.411 453.293C234.559 440.32 241.972 425.96 247.193 410.44C241.834 412.253 236.424 413.907 230.954 415.387C219.268 418.56 206.918 421.08 194.537 421.92C193.94 422.453 193.349 422.987 192.725 423.52C160.908 449.707 103.585 432.573 64.6929 385.307C32.0315 345.6 18.7928 289.2 51.2715 251.813C57.4755 244.667 65.3368 238.227 75.0608 232.72C88.5262 225.107 108.146 218.64 123.886 219.96C124.093 225.707 123.613 234.453 127.529 239.147C134.273 247.213 149.466 241.827 158.009 240.627C165.758 239.52 175.834 238.093 178.992 247.213C181.337 253.973 175.438 259.973 183.293 264.027C191.608 268.307 207.497 258.733 214.31 265.293C218.974 269.747 215.324 283.493 214.241 288.92C212.817 296.213 211.181 299.92 215.662 306.24C219.813 312.093 223.789 315.12 225.211 322.56C228.441 339.48 222.873 359.173 217.092 375.68C229.862 374.187 241.769 370.773 253.717 365.693C251.65 361.973 248.35 360.413 245.485 357.48C240.477 352.4 247.214 348.373 251.702 345.987C254.717 344.373 257.829 342.947 260.966 341.707C261.524 338.973 261.798 336.133 261.212 333.693C260.673 331.427 253.69 325 253.69 325.88C253.69 317.053 259.633 309.133 262.414 300.907C264.689 294.173 262.523 287.667 262.045 280.4C238.093 282.907 253.826 255.093 248.176 243C243.733 233.467 227.693 237.867 220.138 233.653C213.084 229.733 215.845 223.28 216.734 216.68C217.722 209.333 219.137 200.653 212.018 195.84C203.937 190.346 190.808 198.147 181.758 198.92C173.009 199.653 166.466 201.013 165.266 191.36C164.356 183.84 167.994 177.933 157.854 179.12C147.233 180.36 137.806 188.253 127.577 190.906C115.856 193.933 106.541 189.653 95.1075 189.173C93.4382 189.107 90.1648 188.88 86.1835 188.747C84.0382 191.04 82.0235 193.507 80.1542 196.187C73.9049 204.987 69.0315 214.747 62.2635 223.133C58.7955 227.44 51.8755 235.093 45.7248 230.893L44.6009 229.973L44.3555 229.706L43.6515 228.933L43.3995 228.56L42.8595 227.76L42.6649 227.333L42.2622 226.533L42.0608 226L41.7688 225.147L41.6382 224.56L41.4168 223.733L41.3342 223.093L41.2102 222.267L41.1515 221.547L41.0862 220.76L41.0742 220V219.213L41.0995 218.44L41.1382 217.68L41.1715 217.293C34.1408 232.187 29.1982 248.4 26.8009 265.56C19.8115 315.2 35.3569 362.813 65.6289 398.093C91.2622 427.933 127.42 448.92 169.449 454.827L170.917 455.04C189.561 457.493 207.918 456.733 225.411 453.293Z" fill="#ED2A57"/>
<path d="M124.373 135.853L124.047 135.987C122.761 136.56 121.522 137.147 120.287 137.747C121.631 137.08 123.002 136.467 124.373 135.853Z" fill="#ED2A57"/>
<path d="M159.859 124.506C159.055 124.64 158.282 124.813 157.495 124.973C158.255 124.813 159.035 124.667 159.807 124.533L159.859 124.506Z" fill="#ED2A57"/>
<path d="M243.146 448.72L243.102 448.76C247.551 447.346 251.935 445.747 256.255 443.973L256.203 443.987C251.935 445.747 247.571 447.307 243.146 448.72Z" fill="#ED2A57"/>
<path d="M238.027 450.253C239.743 449.76 241.411 449.28 243.102 448.76L243.146 448.72C241.433 449.253 239.762 449.76 238.027 450.253Z" fill="#ED2A57"/>
<path d="M267.91 438.68C268.578 438.32 269.247 438.013 269.917 437.653L268.957 438.107L267.91 438.68Z" fill="#ED2A57"/>
<path d="M161.491 419.427C161.309 419.387 161.094 419.32 160.907 419.28C160.935 419.293 160.962 419.307 160.99 419.32C160.329 419.133 159.639 418.96 158.899 418.746L157.834 418.427L157.789 418.413L156.723 418.08L156.645 418.053L155.613 417.72L155.489 417.666L154.474 417.293L154.294 417.253L153.318 416.893L153.098 416.813L152.157 416.453L151.89 416.32L150.993 415.946L150.694 415.813L149.823 415.413L149.493 415.293L148.662 414.907L148.278 414.72L147.511 414.333L147.089 414.12L146.355 413.733L145.907 413.48L145.219 413.107L144.757 412.84L144.081 412.44L143.639 412.16L143.003 411.746L142.529 411.427L141.938 411.04L141.458 410.693L140.905 410.28L140.438 409.907L139.917 409.507L139.457 409.08L138.957 408.68L138.502 408.24L138.053 407.827L137.591 407.36L137.183 406.933L136.754 406.453L136.357 406.027L135.962 405.507L135.631 405.08L135.253 404.546L134.955 404.08L134.61 403.52L134.318 403.08L134.026 402.48L133.786 402.04L133.514 401.4L133.318 400.946L133.071 400.266L132.91 399.813L132.741 399.093L132.603 398.666L132.466 397.866L132.402 397.48L132.271 396.266C131.485 383.68 148.551 380.187 157.834 378.853C175.911 376.267 194.349 377.613 212.523 376.173C214.083 376.04 215.59 375.88 217.091 375.68C222.873 359.173 228.441 339.48 225.211 322.56C223.789 315.12 219.813 312.093 215.662 306.24C211.181 299.92 212.817 296.213 214.241 288.92C215.323 283.493 218.974 269.747 214.31 265.293C207.497 258.733 191.607 268.307 183.293 264.027C175.438 259.973 181.337 253.973 178.991 247.213C175.834 238.093 165.758 239.52 158.009 240.627C149.466 241.827 134.273 247.213 127.529 239.146C123.613 234.453 124.093 225.706 123.886 219.96C108.146 218.64 88.5261 225.107 75.0607 232.72C65.3368 238.227 57.4754 244.666 51.2714 251.813C18.7928 289.2 32.0314 345.6 64.6928 385.307C103.585 432.573 160.907 449.707 192.725 423.52C193.349 422.987 193.939 422.453 194.537 421.92C183.402 422.68 172.23 422.107 161.491 419.427Z" fill="#F14264"/>
<path d="M119.67 138.04C118.118 138.8 116.603 139.547 115.045 140.373L114.199 140.827C112.933 141.493 111.659 142.187 110.419 142.907L109.465 143.453L108.613 143.947L108.686 143.92H108.703C118.897 138 129.667 133.173 140.827 129.507C146.667 127.6 152.253 126.333 157.834 125.4C158.477 125.093 159.146 124.813 159.807 124.533C159.035 124.667 158.255 124.813 157.495 124.973L157.307 125C155.695 125.387 154.074 125.747 152.467 126.147L152.026 126.267L151.135 126.48C149.758 126.853 148.355 127.227 146.979 127.613L146.109 127.853C144.465 128.347 142.834 128.827 141.21 129.36L140.19 129.707C138.846 130.16 137.522 130.613 136.209 131.093L135.031 131.493C133.427 132.093 131.803 132.707 130.219 133.347L130.063 133.413C128.529 134.027 127.017 134.68 125.503 135.373L124.373 135.853C123.002 136.467 121.631 137.08 120.287 137.747L119.67 138.04Z" fill="#EB173D"/>
<path d="M243.146 448.72C247.571 447.307 251.935 445.747 256.203 443.987C252.578 445.36 245.823 446.347 243.146 448.72Z" fill="#EB173D"/>
<path d="M98.8501 151.106C100.63 149.906 102.403 148.733 104.235 147.627C105.693 146.68 107.171 145.8 108.659 144.933L108.613 144.947C107.391 145.653 106.165 146.36 104.995 147.106L104.905 147.16C103.462 148.013 102.053 148.947 100.642 149.853L99.7141 150.48L98.5234 151.28L98.8501 151.106Z" fill="#EB173D"/>
<path d="M260.505 442.146C262.947 441.053 265.375 439.92 267.779 438.733L267.91 438.68L268.957 438.107C266.157 439.467 263.35 440.84 260.505 442.146Z" fill="#EB173D"/>
<path d="M162.285 159.84C153.474 158.613 144.725 158.093 136.118 158.24C126.497 167.24 118.649 178.547 107.282 185.36C104.695 186.933 100.63 189.147 99.5714 185.08C98.954 182.747 99.1621 180.613 97.8674 178.427C93.5754 181.56 89.7033 184.973 86.1833 188.747C90.1647 188.88 93.438 189.106 95.1074 189.173C106.541 189.653 115.855 193.933 127.577 190.906C137.806 188.253 147.233 180.36 157.854 179.12C167.994 177.933 164.355 183.84 165.266 191.36C166.466 201.013 173.009 199.653 181.758 198.92C190.807 198.147 203.937 190.346 212.018 195.84C219.137 200.653 217.722 209.333 216.734 216.68C215.845 223.28 213.083 229.733 220.138 233.653C227.693 237.867 243.733 233.467 248.175 243C253.826 255.093 238.093 282.907 262.045 280.4C262.523 287.667 264.689 294.173 262.414 300.907C259.633 309.133 253.69 317.053 253.69 325.88C253.69 325 260.673 331.427 261.211 333.693C261.798 336.133 261.523 338.973 260.966 341.707C275.459 335.987 291.231 333.613 306.503 330C308.718 245.96 247.531 171.813 162.285 159.84Z" fill="#EB173D"/>
<path d="M245.337 446.68C256.646 439.613 267.11 431.2 276.459 421.68C283.331 411.8 289.198 401.16 293.855 389.813C278.927 397.96 263.303 404.96 247.193 410.44C241.971 425.96 234.559 440.32 225.411 453.293L225.433 453.267C229.661 452.453 233.825 451.427 237.937 450.267L238.027 450.253C239.762 449.76 241.433 449.253 243.146 448.72C243.881 448.04 244.589 447.373 245.337 446.68Z" fill="#EB173D"/>
<path d="M363.993 336.56C363.077 360.573 338.341 377.84 323.497 393.84C314.462 403.6 305.893 413.173 295.35 421.373C289.626 425.813 283.578 429.893 277.323 433.533C272.327 436.48 262.882 438.786 258.946 442.813C265.331 436.266 271.178 429.226 276.459 421.68C267.11 431.2 256.646 439.613 245.337 446.68C244.589 447.373 243.881 448.04 243.146 448.72C245.823 446.347 252.578 445.36 256.203 443.987L256.255 443.973L256.561 443.853L257.23 443.56C258.321 443.12 259.407 442.64 260.505 442.146C263.35 440.84 266.157 439.467 268.957 438.107L269.917 437.653L270.091 437.56C276.029 434.746 282.006 432.92 288.158 430.773C303.957 425.253 316.709 412.2 329.617 401.907C351.405 384.52 374.179 367.307 393.427 347.053C400.819 339.253 412.987 327.147 406.607 315.573C402.527 308.227 396.298 304.813 394.766 297.48C393.077 300.04 391.361 302.56 389.621 305.08C381.857 316.306 373.295 326.813 363.993 336.56Z" fill="#580E1F"/>
<path d="M243.102 448.76L243.146 448.72" stroke="#580E1F" stroke-linecap="round" stroke-linejoin="round"/>
<path d="M108.613 143.947H108.594" stroke="#580E1F" stroke-linecap="round" stroke-linejoin="round"/>
<path d="M108.659 143.933C108.665 143.933 108.675 143.92 108.686 143.92L108.613 143.947L108.659 143.933Z" fill="#580E1F"/>
<path d="M157.834 125.4C164.662 124.306 171.495 123.76 178.79 123.333C192.017 122.613 202.137 112.293 212.55 105.387C228.733 94.6532 251.091 90.4398 253.923 115.506C254.761 122.973 250.818 134.853 254.359 141.613C258.433 149.32 270.534 145.453 277.277 144.227C291.295 141.64 335.871 127.107 342.875 147.787C346.902 159.667 334.111 176.733 347.746 185.227C358.231 191.787 375.763 185.44 372.555 203.747C370.041 218.213 352.957 237.893 363.831 251.813C368.178 257.4 374.646 260.373 377.699 267.146C381.279 275.226 379.142 284.146 376.115 292C375.298 294.146 374.309 296.227 373.302 298.307C379.397 293.787 385.195 288.893 390.602 283.733C395.253 279.24 399.353 274.533 402.821 269.453C404.51 266.973 406.035 264.387 407.419 261.707C409.83 256.947 411.741 251.88 413.058 246.36C413.942 242.573 415.591 238.48 415.766 234.56L415.729 233.027C412.741 230.827 407.159 230.72 400.839 230.6C384.574 230.32 383.657 222.6 390.05 208.613C394.369 199.227 415.455 172.28 407.581 161.627C400.111 151.48 378.473 164.187 368.417 161.32C345.258 154.64 410.35 91.4799 377.902 91.7865C361.727 91.9332 297.486 129.053 289.406 103.266C285.487 90.8265 311.681 51.3332 295.745 46.2932C285.397 43.0399 268.177 54.0932 259.179 58.0265C240.673 66.1465 208.569 68.6398 199.577 89.3065C196.102 97.2931 194.75 101.053 187.937 107.306C182.422 112.346 176.101 116.08 169.605 119.68C166.402 121.453 163.154 123 159.859 124.506L159.807 124.533C159.146 124.813 158.477 125.093 157.834 125.4Z" fill="#580E1F"/>
<path d="M104.235 146.627C102.403 147.733 100.63 148.906 98.85 150.106C101.006 148.853 103.162 147.64 105.358 146.453C125.354 135.76 147.023 129.227 169.663 127.653C172.099 127.493 174.547 127.373 176.99 127.266H177.017C178.971 127.186 180.954 127.133 182.91 127.106C190.899 127.066 199.11 127.466 206.918 129.333C209.971 130.08 214.506 130.893 218.073 132.76C220.917 134.28 223.121 136.466 223.406 139.773C223.743 143.706 218.026 139.507 216.915 138.627C215.655 137.64 214.753 136.4 213.362 135.64C211.329 134.586 208.743 134.16 206.542 133.48C197.902 130.787 189.503 131.2 180.798 133.627C165.902 137.747 151.39 145.387 139.502 155.253C138.346 156.187 137.229 157.2 136.118 158.24C144.725 158.093 153.474 158.613 162.285 159.84C247.531 171.813 308.718 245.96 306.503 330C312.251 328.653 317.905 327.106 323.419 325.146C341.003 318.866 358.089 309.64 373.302 298.307C374.309 296.227 375.298 294.146 376.115 292C379.142 284.146 381.279 275.227 377.699 267.146C374.646 260.373 368.178 257.4 363.831 251.813C352.957 237.893 370.041 218.213 372.555 203.747C375.763 185.44 358.231 191.787 347.746 185.227C334.111 176.733 346.902 159.667 342.875 147.787C335.871 127.107 291.295 141.64 277.277 144.227C270.534 145.453 258.433 149.32 254.359 141.613C250.818 134.853 254.761 122.973 253.923 115.506C251.091 90.4398 228.733 94.6532 212.55 105.387C202.137 112.293 192.017 122.613 178.79 123.333C171.495 123.76 164.662 124.307 157.834 125.4C152.253 126.333 146.667 127.6 140.827 129.506C129.667 133.173 118.897 138 108.703 143.92H108.686C108.675 143.92 108.665 143.933 108.659 143.933C107.171 144.8 105.693 145.68 104.235 146.627Z" fill="#A0182F"/>
<path d="M258.946 442.813C262.882 438.786 272.327 436.48 277.323 433.533C283.578 429.893 289.626 425.813 295.35 421.373C305.893 413.173 314.462 403.6 323.497 393.84C338.341 377.84 363.077 360.573 363.993 336.56C347.135 354.28 327.902 369.626 306.698 382.453C302.489 384.986 298.207 387.453 293.855 389.813C289.198 401.16 283.331 411.8 276.459 421.68C271.178 429.226 265.331 436.266 258.946 442.813Z" fill="#A0182F"/>
<path d="M264.617 350.707C260.121 353.093 253.41 357.107 258.407 362.173C261.285 365.093 264.571 366.653 266.623 370.4C253.274 376.053 239.965 379.693 225.433 380.867C207.255 382.307 188.834 380.973 170.742 383.56C161.471 384.893 144.394 388.36 145.186 400.947C145.706 409.387 152.93 415.333 160.907 419.28C161.094 419.32 161.309 419.387 161.491 419.427C172.23 422.107 183.402 422.68 194.537 421.92C206.918 421.08 219.267 418.56 230.954 415.387C236.423 413.907 241.834 412.253 247.193 410.44C263.303 404.96 278.927 397.96 293.855 389.813C298.207 387.453 302.489 384.987 306.698 382.453C327.902 369.627 347.135 354.28 363.993 336.56C373.295 326.813 381.857 316.307 389.621 305.08C391.361 302.56 393.077 300.04 394.766 297.48C395.362 296.573 395.966 295.68 396.566 294.733C378.993 309.933 358.029 322.107 336.334 329.827C313.013 338.173 286.67 338.84 264.617 350.707Z" fill="#F14264"/>
<path d="M413.058 246.36C411.741 251.88 409.83 256.947 407.419 261.707C406.035 264.387 404.51 266.973 402.821 269.453C399.353 274.533 395.253 279.24 390.602 283.733C385.195 288.893 379.397 293.787 373.302 298.307C358.089 309.64 341.003 318.867 323.419 325.147C317.905 327.107 312.251 328.653 306.503 330C291.231 333.613 275.459 335.987 260.966 341.707C257.829 342.947 254.717 344.373 251.702 345.987C247.214 348.373 240.477 352.4 245.485 357.48C248.35 360.413 251.65 361.973 253.717 365.693C241.769 370.773 229.862 374.187 217.091 375.68C215.59 375.88 214.083 376.04 212.523 376.173C194.349 377.613 175.911 376.267 157.834 378.853C148.551 380.187 131.485 383.68 132.271 396.267L132.402 397.48L132.466 397.867L132.603 398.667L132.741 399.093L132.91 399.813L133.071 400.267L133.318 400.947L133.514 401.4L133.786 402.04L134.026 402.48L134.318 403.08L134.61 403.52L134.955 404.08L135.253 404.547L135.631 405.08L135.962 405.507L136.357 406.027L136.754 406.453L137.183 406.933L137.591 407.36L138.053 407.827L138.502 408.24L138.957 408.68L139.457 409.08L139.917 409.507L140.438 409.907L140.905 410.28L141.458 410.693L141.938 411.04L142.529 411.427L143.003 411.747L143.639 412.16L144.081 412.44L144.757 412.84L145.219 413.107L145.907 413.48L146.355 413.733L147.089 414.12L147.511 414.333L148.278 414.72L148.662 414.907L149.493 415.293L149.823 415.413L150.694 415.813L150.993 415.947L151.89 416.32L152.157 416.453L153.098 416.813L153.318 416.893L154.294 417.253L154.474 417.293L155.489 417.666L155.613 417.72L156.645 418.053L156.723 418.08L157.789 418.413L157.834 418.427L158.899 418.747C159.639 418.96 160.329 419.133 160.99 419.32C160.962 419.307 160.935 419.293 160.907 419.28C152.93 415.333 145.706 409.387 145.186 400.947C144.394 388.36 161.471 384.893 170.742 383.56C188.834 380.973 207.255 382.307 225.433 380.867C239.965 379.693 253.274 376.053 266.623 370.4C264.571 366.653 261.285 365.093 258.407 362.173C253.41 357.107 260.121 353.093 264.617 350.707C286.67 338.84 313.013 338.173 336.334 329.827C358.029 322.107 378.993 309.933 396.566 294.733L396.759 294.453C397.591 293.173 398.415 291.893 399.215 290.6C400.118 289.2 400.995 287.733 401.878 286.307C408.842 274.667 415.391 262.413 419.399 249.413C420.965 244.347 423.693 237.013 424.023 230.227C424.29 224.8 423.042 219.707 418.437 216.4C412.987 212.493 414.189 224.44 414.501 226.84C414.766 228.986 415.501 230.987 415.729 233.027L415.766 234.56C415.591 238.48 413.942 242.573 413.058 246.36Z" fill="#580E1F"/>
<path d="M47.2193 222.907C53.39 227.12 60.3073 219.48 63.7847 215.173C70.546 206.747 75.43 197 81.6473 188.2C86.6313 181.16 92.4647 175.52 99.382 170.44C100.642 172.613 100.449 174.733 101.077 177.093C102.143 181.16 106.209 178.973 108.795 177.413C121.457 169.76 129.758 156.573 141.029 147.253C151.494 138.6 163.971 131.627 176.99 127.267C174.547 127.373 172.099 127.493 169.663 127.653C147.023 129.227 125.354 135.76 105.358 146.453C103.162 147.64 101.006 148.853 98.85 150.107L98.5233 150.28L98.226 150.493C86.5207 157.373 75.482 165.547 65.7647 174.973C56.026 184.467 46.7246 195.813 42.7553 209.053L42.686 209.333C42.262 214.587 43.0806 220.08 47.2193 222.907Z" fill="#F14264"/>
<path d="M41.1714 217.293L41.1381 217.68L41.2167 216.84L41.1714 217.293Z" fill="#F14264"/>
<path d="M99.5714 185.08C100.63 189.146 104.695 186.933 107.282 185.36C118.649 178.546 126.497 167.24 136.118 158.24C137.229 157.2 138.346 156.186 139.502 155.253C151.39 145.386 165.902 137.746 180.798 133.626C189.503 131.2 197.902 130.786 206.542 133.48C208.743 134.16 211.329 134.586 213.362 135.64C214.753 136.4 215.655 137.64 216.915 138.626C218.026 139.506 223.743 143.706 223.406 139.773C223.121 136.466 220.917 134.28 218.073 132.76C214.506 130.893 209.971 130.08 206.918 129.333C199.11 127.466 190.899 127.066 182.91 127.106C180.954 127.133 178.971 127.186 177.017 127.266H176.99C163.971 131.626 151.494 138.6 141.029 147.253C129.758 156.573 121.457 169.76 108.795 177.413C106.209 178.973 102.143 181.16 101.077 177.093C100.449 174.733 100.642 172.613 99.3821 170.44C92.4648 175.52 86.6314 181.16 81.6474 188.2C75.4301 197 70.5461 206.746 63.7848 215.173C60.3074 219.48 53.3901 227.12 47.2194 222.906C43.0807 220.08 42.2621 214.586 42.6861 209.333L42.5741 209.693L42.3727 210.466L42.2434 210.946L42.0474 211.786L41.9301 212.32L41.7301 213.173L41.6381 213.773L41.4821 214.64L41.3914 215.293L41.2821 216.146L41.2167 216.84L41.1381 217.68L41.0994 218.44L41.0741 219.213V220L41.0861 220.76L41.1514 221.546L41.2101 222.266L41.3341 223.093L41.4167 223.733L41.6381 224.56L41.7688 225.146L42.0608 226L42.2621 226.533L42.6648 227.333L42.8594 227.76L43.3994 228.56L43.6514 228.933L44.3554 229.706L44.6008 229.973L45.7247 230.893C51.8754 235.093 58.7954 227.44 62.2634 223.133C69.0314 214.746 73.9048 204.986 80.1541 196.186C82.0234 193.506 84.0381 191.04 86.1834 188.746C89.7034 184.973 93.5755 181.56 97.8675 178.426C99.1621 180.613 98.9541 182.746 99.5714 185.08Z" fill="#580E1F"/>
</svg>
